<?xml version="1.0" encoding="utf-8" standalone="no"?>
<!DOCTYPE svg PUBLIC "-//W3C//DTD SVG 1.1//EN"
  "http://www.w3.org/Graphics/SVG/1.1/DTD/svg11.dtd">
<svg xmlns:xlink="http://www.w3.org/1999/xlink" width="178.023082pt" height="178.045406pt" viewBox="0 0 178.023082 178.045406" xmlns="http://www.w3.org/2000/svg" version="1.1">
 <metadata>
  <rdf:RDF xmlns:dc="http://purl.org/dc/elements/1.1/" xmlns:cc="http://creativecommons.org/ns#" xmlns:rdf="http://www.w3.org/1999/02/22-rdf-syntax-ns#">
   <cc:Work>
    <dc:type rdf:resource="http://purl.org/dc/dcmitype/StillImage"/>
    <dc:date>2025-06-14T03:56:30.531662</dc:date>
    <dc:format>image/svg+xml</dc:format>
    <dc:creator>
     <cc:Agent>
      <dc:title>Matplotlib v3.10.1, https://matplotlib.org/</dc:title>
     </cc:Agent>
    </dc:creator>
   </cc:Work>
  </rdf:RDF>
 </metadata>
 <defs>
  <style type="text/css">*{stroke-linejoin: round; stroke-linecap: butt}</style>
 </defs>
 <g id="figure_1">
  <g id="patch_1">
   <path d="M 0 178.045406 
L 178.023082 178.045406 
L 178.023082 0 
L 0 0 
z
" style="fill: #ffffff"/>
  </g>
  <g id="axes_1">
   <g id="LineCollection_1">
    <path d="M 109.472923 75.837157 
L 90.588527 104.062511 
" clip-path="url(#p9d68bdb3b7)" style="fill: none; stroke: #201f3d; stroke-opacity: 0.6; stroke-width: 0.4"/>
    <path d="M 109.472923 75.837157 
L 104.643016 56.654392 
" clip-path="url(#p9d68bdb3b7)" style="fill: none; stroke: #201f3d; stroke-opacity: 0.6; stroke-width: 0.4"/>
    <path d="M 109.472923 75.837157 
L 100.086716 71.903007 
" clip-path="url(#p9d68bdb3b7)" style="fill: none; stroke: #201f3d; stroke-opacity: 0.6; stroke-width: 0.4"/>
    <path d="M 109.472923 75.837157 
L 101.930066 69.45742 
" clip-path="url(#p9d68bdb3b7)" style="fill: none; stroke: #201f3d; stroke-opacity: 0.6; stroke-width: 0.4"/>
    <path d="M 109.472923 75.837157 
L 135.986851 58.862914 
" clip-path="url(#p9d68bdb3b7)" style="fill: none; stroke: #201f3d; stroke-opacity: 0.6; stroke-width: 0.4"/>
    <path d="M 109.472923 75.837157 
L 100.341538 65.089836 
" clip-path="url(#p9d68bdb3b7)" style="fill: none; stroke: #201f3d; stroke-opacity: 0.6; stroke-width: 0.4"/>
    <path d="M 109.472923 75.837157 
L 106.097601 82.618752 
" clip-path="url(#p9d68bdb3b7)" style="fill: none; stroke: #201f3d; stroke-opacity: 0.6; stroke-width: 0.4"/>
    <path d="M 109.472923 75.837157 
L 109.887851 71.289856 
" clip-path="url(#p9d68bdb3b7)" style="fill: none; stroke: #201f3d; stroke-opacity: 0.6; stroke-width: 0.4"/>
    <path d="M 109.472923 75.837157 
L 113.913402 82.015209 
" clip-path="url(#p9d68bdb3b7)" style="fill: none; stroke: #201f3d; stroke-opacity: 0.6; stroke-width: 0.4"/>
    <path d="M 109.472923 75.837157 
L 89.973734 74.312049 
" clip-path="url(#p9d68bdb3b7)" style="fill: none; stroke: #201f3d; stroke-opacity: 0.6; stroke-width: 0.4"/>
    <path d="M 109.472923 75.837157 
L 121.249982 72.887705 
" clip-path="url(#p9d68bdb3b7)" style="fill: none; stroke: #201f3d; stroke-opacity: 0.6; stroke-width: 0.4"/>
    <path d="M 109.472923 75.837157 
L 117.820343 59.122831 
" clip-path="url(#p9d68bdb3b7)" style="fill: none; stroke: #201f3d; stroke-opacity: 0.6; stroke-width: 0.4"/>
    <path d="M 109.472923 75.837157 
L 110.052136 79.375391 
" clip-path="url(#p9d68bdb3b7)" style="fill: none; stroke: #201f3d; stroke-opacity: 0.6; stroke-width: 0.4"/>
    <path d="M 109.472923 75.837157 
L 126.272411 70.013357 
" clip-path="url(#p9d68bdb3b7)" style="fill: none; stroke: #201f3d; stroke-opacity: 0.6; stroke-width: 0.4"/>
    <path d="M 109.472923 75.837157 
L 114.09022 65.139806 
" clip-path="url(#p9d68bdb3b7)" style="fill: none; stroke: #201f3d; stroke-opacity: 0.6; stroke-width: 0.4"/>
    <path d="M 109.472923 75.837157 
L 109.934579 64.31002 
" clip-path="url(#p9d68bdb3b7)" style="fill: none; stroke: #201f3d; stroke-opacity: 0.6; stroke-width: 0.4"/>
    <path d="M 109.472923 75.837157 
L 102.220809 78.317929 
" clip-path="url(#p9d68bdb3b7)" style="fill: none; stroke: #201f3d; stroke-opacity: 0.6; stroke-width: 0.4"/>
    <path d="M 109.472923 75.837157 
L 113.754209 61.802368 
" clip-path="url(#p9d68bdb3b7)" style="fill: none; stroke: #201f3d; stroke-opacity: 0.6; stroke-width: 0.4"/>
    <path d="M 109.472923 75.837157 
L 125.748072 62.55722 
" clip-path="url(#p9d68bdb3b7)" style="fill: none; stroke: #201f3d; stroke-opacity: 0.6; stroke-width: 0.4"/>
    <path d="M 109.472923 75.837157 
L 118.07866 76.021869 
" clip-path="url(#p9d68bdb3b7)" style="fill: none; stroke: #201f3d; stroke-opacity: 0.6; stroke-width: 0.4"/>
    <path d="M 109.472923 75.837157 
L 118.628946 63.534885 
" clip-path="url(#p9d68bdb3b7)" style="fill: none; stroke: #201f3d; stroke-opacity: 0.6; stroke-width: 0.4"/>
    <path d="M 109.472923 75.837157 
L 97.397036 67.406752 
" clip-path="url(#p9d68bdb3b7)" style="fill: none; stroke: #201f3d; stroke-opacity: 0.6; stroke-width: 0.4"/>
    <path d="M 109.472923 75.837157 
L 121.566773 68.07538 
" clip-path="url(#p9d68bdb3b7)" style="fill: none; stroke: #201f3d; stroke-opacity: 0.6; stroke-width: 0.4"/>
    <path d="M 109.472923 75.837157 
L 117.853926 72.957512 
" clip-path="url(#p9d68bdb3b7)" style="fill: none; stroke: #201f3d; stroke-opacity: 0.6; stroke-width: 0.4"/>
    <path d="M 109.472923 75.837157 
L 115.570115 71.086446 
" clip-path="url(#p9d68bdb3b7)" style="fill: none; stroke: #201f3d; stroke-opacity: 0.6; stroke-width: 0.4"/>
    <path d="M 109.472923 75.837157 
L 105.201942 78.684671 
" clip-path="url(#p9d68bdb3b7)" style="fill: none; stroke: #201f3d; stroke-opacity: 0.6; stroke-width: 0.4"/>
    <path d="M 109.472923 75.837157 
L 120.968067 77.776966 
" clip-path="url(#p9d68bdb3b7)" style="fill: none; stroke: #201f3d; stroke-opacity: 0.6; stroke-width: 0.4"/>
    <path d="M 109.472923 75.837157 
L 118.304319 64.8497 
" clip-path="url(#p9d68bdb3b7)" style="fill: none; stroke: #201f3d; stroke-opacity: 0.6; stroke-width: 0.4"/>
    <path d="M 109.472923 75.837157 
L 101.223262 81.536974 
" clip-path="url(#p9d68bdb3b7)" style="fill: none; stroke: #201f3d; stroke-opacity: 0.6; stroke-width: 0.4"/>
    <path d="M 109.472923 75.837157 
L 114.138955 77.566777 
" clip-path="url(#p9d68bdb3b7)" style="fill: none; stroke: #201f3d; stroke-opacity: 0.6; stroke-width: 0.4"/>
    <path d="M 109.472923 75.837157 
L 117.137568 79.148981 
" clip-path="url(#p9d68bdb3b7)" style="fill: none; stroke: #201f3d; stroke-opacity: 0.6; stroke-width: 0.4"/>
    <path d="M 109.472923 75.837157 
L 93.848375 78.184335 
" clip-path="url(#p9d68bdb3b7)" style="fill: none; stroke: #201f3d; stroke-opacity: 0.6; stroke-width: 0.4"/>
    <path d="M 109.472923 75.837157 
L 98.489784 78.358641 
" clip-path="url(#p9d68bdb3b7)" style="fill: none; stroke: #201f3d; stroke-opacity: 0.6; stroke-width: 0.4"/>
    <path d="M 109.472923 75.837157 
L 96.269651 75.187725 
" clip-path="url(#p9d68bdb3b7)" style="fill: none; stroke: #201f3d; stroke-opacity: 0.6; stroke-width: 0.4"/>
    <path d="M 109.472923 75.837157 
L 98.869547 66.573429 
" clip-path="url(#p9d68bdb3b7)" style="fill: none; stroke: #201f3d; stroke-opacity: 0.6; stroke-width: 0.4"/>
    <path d="M 109.472923 75.837157 
L 97.110633 72.495289 
" clip-path="url(#p9d68bdb3b7)" style="fill: none; stroke: #201f3d; stroke-opacity: 0.6; stroke-width: 0.4"/>
    <path d="M 109.472923 75.837157 
L 110.68709 81.633696 
" clip-path="url(#p9d68bdb3b7)" style="fill: none; stroke: #201f3d; stroke-opacity: 0.6; stroke-width: 0.4"/>
    <path d="M 109.472923 75.837157 
L 100.827428 73.895454 
" clip-path="url(#p9d68bdb3b7)" style="fill: none; stroke: #201f3d; stroke-opacity: 0.6; stroke-width: 0.4"/>
    <path d="M 109.472923 75.837157 
L 102.620424 76.604166 
" clip-path="url(#p9d68bdb3b7)" style="fill: none; stroke: #201f3d; stroke-opacity: 0.6; stroke-width: 0.4"/>
    <path d="M 109.472923 75.837157 
L 102.282232 70.973325 
" clip-path="url(#p9d68bdb3b7)" style="fill: none; stroke: #201f3d; stroke-opacity: 0.6; stroke-width: 0.4"/>
    <path d="M 109.472923 75.837157 
L 90.797252 70.643104 
" clip-path="url(#p9d68bdb3b7)" style="fill: none; stroke: #201f3d; stroke-opacity: 0.6; stroke-width: 0.4"/>
    <path d="M 109.472923 75.837157 
L 99.260857 79.776803 
" clip-path="url(#p9d68bdb3b7)" style="fill: none; stroke: #201f3d; stroke-opacity: 0.6; stroke-width: 0.4"/>
    <path d="M 109.472923 75.837157 
L 124.266784 69.498005 
" clip-path="url(#p9d68bdb3b7)" style="fill: none; stroke: #201f3d; stroke-opacity: 0.6; stroke-width: 0.4"/>
    <path d="M 109.472923 75.837157 
L 115.540347 75.608684 
" clip-path="url(#p9d68bdb3b7)" style="fill: none; stroke: #201f3d; stroke-opacity: 0.6; stroke-width: 0.4"/>
    <path d="M 109.472923 75.837157 
L 109.364374 69.232475 
" clip-path="url(#p9d68bdb3b7)" style="fill: none; stroke: #201f3d; stroke-opacity: 0.6; stroke-width: 0.4"/>
    <path d="M 109.472923 75.837157 
L 116.322195 69.213176 
" clip-path="url(#p9d68bdb3b7)" style="fill: none; stroke: #201f3d; stroke-opacity: 0.6; stroke-width: 0.4"/>
    <path d="M 109.472923 75.837157 
L 97.713943 76.985573 
" clip-path="url(#p9d68bdb3b7)" style="fill: none; stroke: #201f3d; stroke-opacity: 0.6; stroke-width: 0.4"/>
    <path d="M 109.472923 75.837157 
L 119.507528 71.318097 
" clip-path="url(#p9d68bdb3b7)" style="fill: none; stroke: #201f3d; stroke-opacity: 0.6; stroke-width: 0.4"/>
    <path d="M 109.472923 75.837157 
L 103.341912 74.584235 
" clip-path="url(#p9d68bdb3b7)" style="fill: none; stroke: #201f3d; stroke-opacity: 0.6; stroke-width: 0.4"/>
    <path d="M 109.472923 75.837157 
L 106.026434 67.354366 
" clip-path="url(#p9d68bdb3b7)" style="fill: none; stroke: #201f3d; stroke-opacity: 0.6; stroke-width: 0.4"/>
    <path d="M 109.472923 75.837157 
L 111.485256 68.410949 
" clip-path="url(#p9d68bdb3b7)" style="fill: none; stroke: #201f3d; stroke-opacity: 0.6; stroke-width: 0.4"/>
    <path d="M 109.472923 75.837157 
L 104.923802 69.793088 
" clip-path="url(#p9d68bdb3b7)" style="fill: none; stroke: #201f3d; stroke-opacity: 0.6; stroke-width: 0.4"/>
    <path d="M 109.472923 75.837157 
L 106.830282 70.845784 
" clip-path="url(#p9d68bdb3b7)" style="fill: none; stroke: #201f3d; stroke-opacity: 0.6; stroke-width: 0.4"/>
    <path d="M 109.472923 75.837157 
L 118.510596 77.829786 
" clip-path="url(#p9d68bdb3b7)" style="fill: none; stroke: #201f3d; stroke-opacity: 0.6; stroke-width: 0.4"/>
    <path d="M 109.472923 75.837157 
L 116.187447 71.211987 
" clip-path="url(#p9d68bdb3b7)" style="fill: none; stroke: #201f3d; stroke-opacity: 0.6; stroke-width: 0.4"/>
    <path d="M 109.472923 75.837157 
L 109.09719 67.767499 
" clip-path="url(#p9d68bdb3b7)" style="fill: none; stroke: #201f3d; stroke-opacity: 0.6; stroke-width: 0.4"/>
    <path d="M 109.472923 75.837157 
L 121.542098 74.385483 
" clip-path="url(#p9d68bdb3b7)" style="fill: none; stroke: #201f3d; stroke-opacity: 0.6; stroke-width: 0.4"/>
    <path d="M 109.472923 75.837157 
L 103.968641 81.926477 
" clip-path="url(#p9d68bdb3b7)" style="fill: none; stroke: #201f3d; stroke-opacity: 0.6; stroke-width: 0.4"/>
    <path d="M 109.472923 75.837157 
L 107.004247 80.649993 
" clip-path="url(#p9d68bdb3b7)" style="fill: none; stroke: #201f3d; stroke-opacity: 0.6; stroke-width: 0.4"/>
    <path d="M 109.472923 75.837157 
L 113.677378 69.141929 
" clip-path="url(#p9d68bdb3b7)" style="fill: none; stroke: #201f3d; stroke-opacity: 0.6; stroke-width: 0.4"/>
    <path d="M 109.472923 75.837157 
L 98.186731 73.765072 
" clip-path="url(#p9d68bdb3b7)" style="fill: none; stroke: #201f3d; stroke-opacity: 0.6; stroke-width: 0.4"/>
    <path d="M 109.472923 75.837157 
L 116.925547 80.952225 
" clip-path="url(#p9d68bdb3b7)" style="fill: none; stroke: #201f3d; stroke-opacity: 0.6; stroke-width: 0.4"/>
    <path d="M 109.472923 75.837157 
L 99.017856 70.515591 
" clip-path="url(#p9d68bdb3b7)" style="fill: none; stroke: #201f3d; stroke-opacity: 0.6; stroke-width: 0.4"/>
    <path d="M 109.472923 75.837157 
L 118.071744 73.680817 
" clip-path="url(#p9d68bdb3b7)" style="fill: none; stroke: #201f3d; stroke-opacity: 0.6; stroke-width: 0.4"/>
    <path d="M 109.472923 75.837157 
L 103.759557 68.24041 
" clip-path="url(#p9d68bdb3b7)" style="fill: none; stroke: #201f3d; stroke-opacity: 0.6; stroke-width: 0.4"/>
    <path d="M 109.472923 75.837157 
L 112.315555 73.61698 
" clip-path="url(#p9d68bdb3b7)" style="fill: none; stroke: #201f3d; stroke-opacity: 0.6; stroke-width: 0.4"/>
    <path d="M 109.472923 75.837157 
L 106.716488 73.166236 
" clip-path="url(#p9d68bdb3b7)" style="fill: none; stroke: #201f3d; stroke-opacity: 0.6; stroke-width: 0.4"/>
    <path d="M 109.472923 75.837157 
L 103.340834 72.335466 
" clip-path="url(#p9d68bdb3b7)" style="fill: none; stroke: #201f3d; stroke-opacity: 0.6; stroke-width: 0.4"/>
    <path d="M 109.472923 75.837157 
L 113.72481 80.049094 
" clip-path="url(#p9d68bdb3b7)" style="fill: none; stroke: #201f3d; stroke-opacity: 0.6; stroke-width: 0.4"/>
    <path d="M 109.472923 75.837157 
L 106.755284 68.457898 
" clip-path="url(#p9d68bdb3b7)" style="fill: none; stroke: #201f3d; stroke-opacity: 0.6; stroke-width: 0.4"/>
    <path d="M 109.472923 75.837157 
L 121.564219 75.902566 
" clip-path="url(#p9d68bdb3b7)" style="fill: none; stroke: #201f3d; stroke-opacity: 0.6; stroke-width: 0.4"/>
    <path d="M 109.472923 75.837157 
L 112.652853 71.258519 
" clip-path="url(#p9d68bdb3b7)" style="fill: none; stroke: #201f3d; stroke-opacity: 0.6; stroke-width: 0.4"/>
    <path d="M 109.472923 75.837157 
L 102.456655 80.215211 
" clip-path="url(#p9d68bdb3b7)" style="fill: none; stroke: #201f3d; stroke-opacity: 0.6; stroke-width: 0.4"/>
    <path d="M 109.472923 75.837157 
L 99.125625 75.628933 
" clip-path="url(#p9d68bdb3b7)" style="fill: none; stroke: #201f3d; stroke-opacity: 0.6; stroke-width: 0.4"/>
    <path d="M 109.472923 75.837157 
L 108.865871 82.73673 
" clip-path="url(#p9d68bdb3b7)" style="fill: none; stroke: #201f3d; stroke-opacity: 0.6; stroke-width: 0.4"/>
    <path d="M 90.588527 104.062511 
L 81.3835 100.28932 
" clip-path="url(#p9d68bdb3b7)" style="fill: none; stroke: #201f3d; stroke-opacity: 0.6; stroke-width: 0.4"/>
    <path d="M 90.588527 104.062511 
L 79.524249 101.755454 
" clip-path="url(#p9d68bdb3b7)" style="fill: none; stroke: #201f3d; stroke-opacity: 0.6; stroke-width: 0.4"/>
    <path d="M 90.588527 104.062511 
L 78.399156 103.387109 
" clip-path="url(#p9d68bdb3b7)" style="fill: none; stroke: #201f3d; stroke-opacity: 0.6; stroke-width: 0.4"/>
    <path d="M 90.588527 104.062511 
L 84.488877 103.479974 
" clip-path="url(#p9d68bdb3b7)" style="fill: none; stroke: #201f3d; stroke-opacity: 0.6; stroke-width: 0.4"/>
    <path d="M 90.588527 104.062511 
L 80.498485 106.292813 
" clip-path="url(#p9d68bdb3b7)" style="fill: none; stroke: #201f3d; stroke-opacity: 0.6; stroke-width: 0.4"/>
    <path d="M 90.588527 104.062511 
L 80.33615 104.590901 
" clip-path="url(#p9d68bdb3b7)" style="fill: none; stroke: #201f3d; stroke-opacity: 0.6; stroke-width: 0.4"/>
    <path d="M 90.588527 104.062511 
L 83.893876 101.46254 
" clip-path="url(#p9d68bdb3b7)" style="fill: none; stroke: #201f3d; stroke-opacity: 0.6; stroke-width: 0.4"/>
    <path d="M 90.588527 104.062511 
L 85.121445 99.982535 
" clip-path="url(#p9d68bdb3b7)" style="fill: none; stroke: #201f3d; stroke-opacity: 0.6; stroke-width: 0.4"/>
    <path d="M 90.588527 104.062511 
L 81.990935 102.612908 
" clip-path="url(#p9d68bdb3b7)" style="fill: none; stroke: #201f3d; stroke-opacity: 0.6; stroke-width: 0.4"/>
    <path d="M 90.588527 104.062511 
L 83.563378 105.34688 
" clip-path="url(#p9d68bdb3b7)" style="fill: none; stroke: #201f3d; stroke-opacity: 0.6; stroke-width: 0.4"/>
    <path d="M 104.643016 56.654392 
L 99.704173 48.61876 
" clip-path="url(#p9d68bdb3b7)" style="fill: none; stroke: #201f3d; stroke-opacity: 0.6; stroke-width: 0.4"/>
    <path d="M 104.643016 56.654392 
L 102.337962 48.030399 
" clip-path="url(#p9d68bdb3b7)" style="fill: none; stroke: #201f3d; stroke-opacity: 0.6; stroke-width: 0.4"/>
    <path d="M 135.986851 58.862914 
L 146.656169 52.493158 
" clip-path="url(#p9d68bdb3b7)" style="fill: none; stroke: #201f3d; stroke-opacity: 0.6; stroke-width: 0.4"/>
    <path d="M 135.986851 58.862914 
L 142.546392 50.519787 
" clip-path="url(#p9d68bdb3b7)" style="fill: none; stroke: #201f3d; stroke-opacity: 0.6; stroke-width: 0.4"/>
    <path d="M 135.986851 58.862914 
L 144.321731 51.891913 
" clip-path="url(#p9d68bdb3b7)" style="fill: none; stroke: #201f3d; stroke-opacity: 0.6; stroke-width: 0.4"/>
    <path d="M 135.986851 58.862914 
L 145.159924 50.681014 
" clip-path="url(#p9d68bdb3b7)" style="fill: none; stroke: #201f3d; stroke-opacity: 0.6; stroke-width: 0.4"/>
    <path d="M 130.361238 62.010759 
L 121.566773 68.07538 
" clip-path="url(#p9d68bdb3b7)" style="fill: none; stroke: #201f3d; stroke-opacity: 0.6; stroke-width: 0.4"/>
    <path d="M 100.341538 65.089836 
L 93.867704 57.679505 
" clip-path="url(#p9d68bdb3b7)" style="fill: none; stroke: #201f3d; stroke-opacity: 0.6; stroke-width: 0.4"/>
    <path d="M 89.973734 74.312049 
L 78.718109 73.81035 
" clip-path="url(#p9d68bdb3b7)" style="fill: none; stroke: #201f3d; stroke-opacity: 0.6; stroke-width: 0.4"/>
    <path d="M 89.973734 74.312049 
L 78.743683 71.793401 
" clip-path="url(#p9d68bdb3b7)" style="fill: none; stroke: #201f3d; stroke-opacity: 0.6; stroke-width: 0.4"/>
    <path d="M 134.342052 55.208909 
L 125.748072 62.55722 
" clip-path="url(#p9d68bdb3b7)" style="fill: none; stroke: #201f3d; stroke-opacity: 0.6; stroke-width: 0.4"/>
    <path d="M 117.820343 59.122831 
L 122.056336 50.20546 
" clip-path="url(#p9d68bdb3b7)" style="fill: none; stroke: #201f3d; stroke-opacity: 0.6; stroke-width: 0.4"/>
    <path d="M 117.820343 59.122831 
L 124.017438 50.198408 
" clip-path="url(#p9d68bdb3b7)" style="fill: none; stroke: #201f3d; stroke-opacity: 0.6; stroke-width: 0.4"/>
    <path d="M 117.820343 59.122831 
L 119.976758 50.0063 
" clip-path="url(#p9d68bdb3b7)" style="fill: none; stroke: #201f3d; stroke-opacity: 0.6; stroke-width: 0.4"/>
    <path d="M 132.071007 54.508402 
L 125.748072 62.55722 
" clip-path="url(#p9d68bdb3b7)" style="fill: none; stroke: #201f3d; stroke-opacity: 0.6; stroke-width: 0.4"/>
    <path d="M 126.272411 70.013357 
L 137.195301 64.920294 
" clip-path="url(#p9d68bdb3b7)" style="fill: none; stroke: #201f3d; stroke-opacity: 0.6; stroke-width: 0.4"/>
    <path d="M 114.09022 65.139806 
L 116.288911 56.839139 
" clip-path="url(#p9d68bdb3b7)" style="fill: none; stroke: #201f3d; stroke-opacity: 0.6; stroke-width: 0.4"/>
    <path d="M 109.934579 64.31002 
L 109.896492 55.775529 
" clip-path="url(#p9d68bdb3b7)" style="fill: none; stroke: #201f3d; stroke-opacity: 0.6; stroke-width: 0.4"/>
    <path d="M 134.076676 63.811506 
L 124.266784 69.498005 
" clip-path="url(#p9d68bdb3b7)" style="fill: none; stroke: #201f3d; stroke-opacity: 0.6; stroke-width: 0.4"/>
    <path d="M 123.925202 55.642876 
L 118.304319 64.8497 
" clip-path="url(#p9d68bdb3b7)" style="fill: none; stroke: #201f3d; stroke-opacity: 0.6; stroke-width: 0.4"/>
    <path d="M 80.665735 66.139509 
L 90.797252 70.643104 
" clip-path="url(#p9d68bdb3b7)" style="fill: none; stroke: #201f3d; stroke-opacity: 0.6; stroke-width: 0.4"/>
    <path d="M 113.754209 61.802368 
L 117.323921 53.421059 
" clip-path="url(#p9d68bdb3b7)" style="fill: none; stroke: #201f3d; stroke-opacity: 0.6; stroke-width: 0.4"/>
    <path d="M 113.754209 61.802368 
L 114.075326 52.804257 
" clip-path="url(#p9d68bdb3b7)" style="fill: none; stroke: #201f3d; stroke-opacity: 0.6; stroke-width: 0.4"/>
    <path d="M 125.748072 62.55722 
L 134.933506 55.246404 
" clip-path="url(#p9d68bdb3b7)" style="fill: none; stroke: #201f3d; stroke-opacity: 0.6; stroke-width: 0.4"/>
    <path d="M 118.628946 63.534885 
L 125.834883 56.56363 
" clip-path="url(#p9d68bdb3b7)" style="fill: none; stroke: #201f3d; stroke-opacity: 0.6; stroke-width: 0.4"/>
    <path d="M 118.628946 63.534885 
L 122.533375 55.979227 
" clip-path="url(#p9d68bdb3b7)" style="fill: none; stroke: #201f3d; stroke-opacity: 0.6; stroke-width: 0.4"/>
    <path d="M 97.397036 67.406752 
L 88.709097 61.283857 
" clip-path="url(#p9d68bdb3b7)" style="fill: none; stroke: #201f3d; stroke-opacity: 0.6; stroke-width: 0.4"/>
    <path d="M 91.811728 60.534936 
L 98.869547 66.573429 
" clip-path="url(#p9d68bdb3b7)" style="fill: none; stroke: #201f3d; stroke-opacity: 0.6; stroke-width: 0.4"/>
    <path d="M 93.848375 78.184335 
L 82.922601 78.578237 
" clip-path="url(#p9d68bdb3b7)" style="fill: none; stroke: #201f3d; stroke-opacity: 0.6; stroke-width: 0.4"/>
    <path d="M 31.366913 162.418133 
L 42.861665 160.336472 
" clip-path="url(#p9d68bdb3b7)" style="fill: none; stroke: #201f3d; stroke-opacity: 0.6; stroke-width: 0.4"/>
    <path d="M 36.854339 47.872679 
L 46.976206 52.709722 
" clip-path="url(#p9d68bdb3b7)" style="fill: none; stroke: #201f3d; stroke-opacity: 0.6; stroke-width: 0.4"/>
    <path d="M 90.797252 70.643104 
L 79.696526 67.945176 
" clip-path="url(#p9d68bdb3b7)" style="fill: none; stroke: #201f3d; stroke-opacity: 0.6; stroke-width: 0.4"/>
   </g>
   <g id="PathCollection_1">
    <defs>
     <path id="m2246d7cf78" d="M 0 1.581139 
C 0.419323 1.581139 0.821528 1.41454 1.118034 1.118034 
C 1.41454 0.821528 1.581139 0.419323 1.581139 0 
C 1.581139 -0.419323 1.41454 -0.821528 1.118034 -1.118034 
C 0.821528 -1.41454 0.419323 -1.581139 0 -1.581139 
C -0.419323 -1.581139 -0.821528 -1.41454 -1.118034 -1.118034 
C -1.41454 -0.821528 -1.581139 -0.419323 -1.581139 0 
C -1.581139 0.419323 -1.41454 0.821528 -1.118034 1.118034 
C -0.821528 1.41454 -0.419323 1.581139 0 1.581139 
z
" style="stroke: #201f3d; stroke-width: 0.1"/>
    </defs>
    <g clip-path="url(#p9d68bdb3b7)">
     <use xlink:href="#m2246d7cf78" x="112.652853" y="71.258519" style="fill: #201f3d; stroke: #201f3d; stroke-width: 0.1"/>
     <use xlink:href="#m2246d7cf78" x="122.056336" y="50.20546" style="fill: #201f3d; stroke: #201f3d; stroke-width: 0.1"/>
     <use xlink:href="#m2246d7cf78" x="116.187447" y="71.211987" style="fill: #201f3d; stroke: #201f3d; stroke-width: 0.1"/>
     <use xlink:href="#m2246d7cf78" x="121.566773" y="68.07538" style="fill: #201f3d; stroke: #201f3d; stroke-width: 0.1"/>
     <use xlink:href="#m2246d7cf78" x="117.853926" y="72.957512" style="fill: #201f3d; stroke: #201f3d; stroke-width: 0.1"/>
     <use xlink:href="#m2246d7cf78" x="103.340834" y="72.335466" style="fill: #201f3d; stroke: #201f3d; stroke-width: 0.1"/>
     <use xlink:href="#m2246d7cf78" x="99.260857" y="79.776803" style="fill: #201f3d; stroke: #201f3d; stroke-width: 0.1"/>
     <use xlink:href="#m2246d7cf78" x="106.026434" y="67.354366" style="fill: #201f3d; stroke: #201f3d; stroke-width: 0.1"/>
     <use xlink:href="#m2246d7cf78" x="99.704173" y="48.61876" style="fill: #201f3d; stroke: #201f3d; stroke-width: 0.1"/>
     <use xlink:href="#m2246d7cf78" x="104.923802" y="69.793088" style="fill: #201f3d; stroke: #201f3d; stroke-width: 0.1"/>
     <use xlink:href="#m2246d7cf78" x="84.488877" y="103.479974" style="fill: #201f3d; stroke: #201f3d; stroke-width: 0.1"/>
     <use xlink:href="#m2246d7cf78" x="118.510596" y="77.829786" style="fill: #201f3d; stroke: #201f3d; stroke-width: 0.1"/>
     <use xlink:href="#m2246d7cf78" x="78.399156" y="103.387109" style="fill: #201f3d; stroke: #201f3d; stroke-width: 0.1"/>
     <use xlink:href="#m2246d7cf78" x="123.925202" y="55.642876" style="fill: #201f3d; stroke: #201f3d; stroke-width: 0.1"/>
     <use xlink:href="#m2246d7cf78" x="82.922601" y="78.578237" style="fill: #201f3d; stroke: #201f3d; stroke-width: 0.1"/>
     <use xlink:href="#m2246d7cf78" x="88.709097" y="61.283857" style="fill: #201f3d; stroke: #201f3d; stroke-width: 0.1"/>
     <use xlink:href="#m2246d7cf78" x="93.867704" y="57.679505" style="fill: #201f3d; stroke: #201f3d; stroke-width: 0.1"/>
     <use xlink:href="#m2246d7cf78" x="81.3835" y="100.28932" style="fill: #201f3d; stroke: #201f3d; stroke-width: 0.1"/>
     <use xlink:href="#m2246d7cf78" x="132.071007" y="54.508402" style="fill: #201f3d; stroke: #201f3d; stroke-width: 0.1"/>
     <use xlink:href="#m2246d7cf78" x="113.913402" y="82.015209" style="fill: #201f3d; stroke: #201f3d; stroke-width: 0.1"/>
     <use xlink:href="#m2246d7cf78" x="120.968067" y="77.776966" style="fill: #201f3d; stroke: #201f3d; stroke-width: 0.1"/>
     <use xlink:href="#m2246d7cf78" x="91.811728" y="60.534936" style="fill: #201f3d; stroke: #201f3d; stroke-width: 0.1"/>
     <use xlink:href="#m2246d7cf78" x="79.696526" y="67.945176" style="fill: #201f3d; stroke: #201f3d; stroke-width: 0.1"/>
     <use xlink:href="#m2246d7cf78" x="102.620424" y="76.604166" style="fill: #201f3d; stroke: #201f3d; stroke-width: 0.1"/>
     <use xlink:href="#m2246d7cf78" x="110.68709" y="81.633696" style="fill: #201f3d; stroke: #201f3d; stroke-width: 0.1"/>
     <use xlink:href="#m2246d7cf78" x="90.797252" y="70.643104" style="fill: #201f3d; stroke: #201f3d; stroke-width: 0.1"/>
     <use xlink:href="#m2246d7cf78" x="108.865871" y="82.73673" style="fill: #201f3d; stroke: #201f3d; stroke-width: 0.1"/>
     <use xlink:href="#m2246d7cf78" x="117.137568" y="79.148981" style="fill: #201f3d; stroke: #201f3d; stroke-width: 0.1"/>
     <use xlink:href="#m2246d7cf78" x="101.223262" y="81.536974" style="fill: #201f3d; stroke: #201f3d; stroke-width: 0.1"/>
     <use xlink:href="#m2246d7cf78" x="83.893876" y="101.46254" style="fill: #201f3d; stroke: #201f3d; stroke-width: 0.1"/>
     <use xlink:href="#m2246d7cf78" x="113.754209" y="61.802368" style="fill: #201f3d; stroke: #201f3d; stroke-width: 0.1"/>
     <use xlink:href="#m2246d7cf78" x="144.321731" y="51.891913" style="fill: #201f3d; stroke: #201f3d; stroke-width: 0.1"/>
     <use xlink:href="#m2246d7cf78" x="118.304319" y="64.8497" style="fill: #201f3d; stroke: #201f3d; stroke-width: 0.1"/>
     <use xlink:href="#m2246d7cf78" x="46.976206" y="52.709722" style="fill: #201f3d; stroke: #201f3d; stroke-width: 0.1"/>
     <use xlink:href="#m2246d7cf78" x="102.337962" y="48.030399" style="fill: #201f3d; stroke: #201f3d; stroke-width: 0.1"/>
     <use xlink:href="#m2246d7cf78" x="109.896492" y="55.775529" style="fill: #201f3d; stroke: #201f3d; stroke-width: 0.1"/>
     <use xlink:href="#m2246d7cf78" x="114.09022" y="65.139806" style="fill: #201f3d; stroke: #201f3d; stroke-width: 0.1"/>
     <use xlink:href="#m2246d7cf78" x="109.364374" y="69.232475" style="fill: #201f3d; stroke: #201f3d; stroke-width: 0.1"/>
     <use xlink:href="#m2246d7cf78" x="146.656169" y="52.493158" style="fill: #201f3d; stroke: #201f3d; stroke-width: 0.1"/>
     <use xlink:href="#m2246d7cf78" x="78.718109" y="73.81035" style="fill: #201f3d; stroke: #201f3d; stroke-width: 0.1"/>
     <use xlink:href="#m2246d7cf78" x="101.930066" y="69.45742" style="fill: #201f3d; stroke: #201f3d; stroke-width: 0.1"/>
     <use xlink:href="#m2246d7cf78" x="100.086716" y="71.903007" style="fill: #201f3d; stroke: #201f3d; stroke-width: 0.1"/>
     <use xlink:href="#m2246d7cf78" x="118.071744" y="73.680817" style="fill: #201f3d; stroke: #201f3d; stroke-width: 0.1"/>
     <use xlink:href="#m2246d7cf78" x="118.07866" y="76.021869" style="fill: #201f3d; stroke: #201f3d; stroke-width: 0.1"/>
     <use xlink:href="#m2246d7cf78" x="145.159924" y="50.681014" style="fill: #201f3d; stroke: #201f3d; stroke-width: 0.1"/>
     <use xlink:href="#m2246d7cf78" x="100.341538" y="65.089836" style="fill: #201f3d; stroke: #201f3d; stroke-width: 0.1"/>
     <use xlink:href="#m2246d7cf78" x="119.976758" y="50.0063" style="fill: #201f3d; stroke: #201f3d; stroke-width: 0.1"/>
     <use xlink:href="#m2246d7cf78" x="112.315555" y="73.61698" style="fill: #201f3d; stroke: #201f3d; stroke-width: 0.1"/>
     <use xlink:href="#m2246d7cf78" x="126.272411" y="70.013357" style="fill: #201f3d; stroke: #201f3d; stroke-width: 0.1"/>
     <use xlink:href="#m2246d7cf78" x="106.755284" y="68.457898" style="fill: #201f3d; stroke: #201f3d; stroke-width: 0.1"/>
     <use xlink:href="#m2246d7cf78" x="31.366913" y="162.418133" style="fill: #201f3d; stroke: #201f3d; stroke-width: 0.1"/>
     <use xlink:href="#m2246d7cf78" x="93.848375" y="78.184335" style="fill: #201f3d; stroke: #201f3d; stroke-width: 0.1"/>
     <use xlink:href="#m2246d7cf78" x="103.968641" y="81.926477" style="fill: #201f3d; stroke: #201f3d; stroke-width: 0.1"/>
     <use xlink:href="#m2246d7cf78" x="106.097601" y="82.618752" style="fill: #201f3d; stroke: #201f3d; stroke-width: 0.1"/>
     <use xlink:href="#m2246d7cf78" x="135.986851" y="58.862914" style="fill: #201f3d; stroke: #201f3d; stroke-width: 0.1"/>
     <use xlink:href="#m2246d7cf78" x="124.017438" y="50.198408" style="fill: #201f3d; stroke: #201f3d; stroke-width: 0.1"/>
     <use xlink:href="#m2246d7cf78" x="80.665735" y="66.139509" style="fill: #201f3d; stroke: #201f3d; stroke-width: 0.1"/>
     <use xlink:href="#m2246d7cf78" x="96.269651" y="75.187725" style="fill: #201f3d; stroke: #201f3d; stroke-width: 0.1"/>
     <use xlink:href="#m2246d7cf78" x="115.570115" y="71.086446" style="fill: #201f3d; stroke: #201f3d; stroke-width: 0.1"/>
     <use xlink:href="#m2246d7cf78" x="109.934579" y="64.31002" style="fill: #201f3d; stroke: #201f3d; stroke-width: 0.1"/>
     <use xlink:href="#m2246d7cf78" x="124.266784" y="69.498005" style="fill: #201f3d; stroke: #201f3d; stroke-width: 0.1"/>
     <use xlink:href="#m2246d7cf78" x="115.540347" y="75.608684" style="fill: #201f3d; stroke: #201f3d; stroke-width: 0.1"/>
     <use xlink:href="#m2246d7cf78" x="113.72481" y="80.049094" style="fill: #201f3d; stroke: #201f3d; stroke-width: 0.1"/>
     <use xlink:href="#m2246d7cf78" x="111.485256" y="68.410949" style="fill: #201f3d; stroke: #201f3d; stroke-width: 0.1"/>
     <use xlink:href="#m2246d7cf78" x="97.110633" y="72.495289" style="fill: #201f3d; stroke: #201f3d; stroke-width: 0.1"/>
     <use xlink:href="#m2246d7cf78" x="106.830282" y="70.845784" style="fill: #201f3d; stroke: #201f3d; stroke-width: 0.1"/>
     <use xlink:href="#m2246d7cf78" x="97.397036" y="67.406752" style="fill: #201f3d; stroke: #201f3d; stroke-width: 0.1"/>
     <use xlink:href="#m2246d7cf78" x="98.869547" y="66.573429" style="fill: #201f3d; stroke: #201f3d; stroke-width: 0.1"/>
     <use xlink:href="#m2246d7cf78" x="125.748072" y="62.55722" style="fill: #201f3d; stroke: #201f3d; stroke-width: 0.1"/>
     <use xlink:href="#m2246d7cf78" x="90.588527" y="104.062511" style="fill: #201f3d; stroke: #201f3d; stroke-width: 0.1"/>
     <use xlink:href="#m2246d7cf78" x="109.09719" y="67.767499" style="fill: #201f3d; stroke: #201f3d; stroke-width: 0.1"/>
     <use xlink:href="#m2246d7cf78" x="98.489784" y="78.358641" style="fill: #201f3d; stroke: #201f3d; stroke-width: 0.1"/>
     <use xlink:href="#m2246d7cf78" x="121.564219" y="75.902566" style="fill: #201f3d; stroke: #201f3d; stroke-width: 0.1"/>
     <use xlink:href="#m2246d7cf78" x="81.990935" y="102.612908" style="fill: #201f3d; stroke: #201f3d; stroke-width: 0.1"/>
     <use xlink:href="#m2246d7cf78" x="80.33615" y="104.590901" style="fill: #201f3d; stroke: #201f3d; stroke-width: 0.1"/>
     <use xlink:href="#m2246d7cf78" x="116.322195" y="69.213176" style="fill: #201f3d; stroke: #201f3d; stroke-width: 0.1"/>
     <use xlink:href="#m2246d7cf78" x="98.186731" y="73.765072" style="fill: #201f3d; stroke: #201f3d; stroke-width: 0.1"/>
     <use xlink:href="#m2246d7cf78" x="121.249982" y="72.887705" style="fill: #201f3d; stroke: #201f3d; stroke-width: 0.1"/>
     <use xlink:href="#m2246d7cf78" x="80.498485" y="106.292813" style="fill: #201f3d; stroke: #201f3d; stroke-width: 0.1"/>
     <use xlink:href="#m2246d7cf78" x="36.854339" y="47.872679" style="fill: #201f3d; stroke: #201f3d; stroke-width: 0.1"/>
     <use xlink:href="#m2246d7cf78" x="99.125625" y="75.628933" style="fill: #201f3d; stroke: #201f3d; stroke-width: 0.1"/>
     <use xlink:href="#m2246d7cf78" x="85.121445" y="99.982535" style="fill: #201f3d; stroke: #201f3d; stroke-width: 0.1"/>
     <use xlink:href="#m2246d7cf78" x="100.827428" y="73.895454" style="fill: #201f3d; stroke: #201f3d; stroke-width: 0.1"/>
     <use xlink:href="#m2246d7cf78" x="97.713943" y="76.985573" style="fill: #201f3d; stroke: #201f3d; stroke-width: 0.1"/>
     <use xlink:href="#m2246d7cf78" x="122.533375" y="55.979227" style="fill: #201f3d; stroke: #201f3d; stroke-width: 0.1"/>
     <use xlink:href="#m2246d7cf78" x="116.288911" y="56.839139" style="fill: #201f3d; stroke: #201f3d; stroke-width: 0.1"/>
     <use xlink:href="#m2246d7cf78" x="78.743683" y="71.793401" style="fill: #201f3d; stroke: #201f3d; stroke-width: 0.1"/>
     <use xlink:href="#m2246d7cf78" x="102.456655" y="80.215211" style="fill: #201f3d; stroke: #201f3d; stroke-width: 0.1"/>
     <use xlink:href="#m2246d7cf78" x="114.075326" y="52.804257" style="fill: #201f3d; stroke: #201f3d; stroke-width: 0.1"/>
     <use xlink:href="#m2246d7cf78" x="105.201942" y="78.684671" style="fill: #201f3d; stroke: #201f3d; stroke-width: 0.1"/>
     <use xlink:href="#m2246d7cf78" x="116.925547" y="80.952225" style="fill: #201f3d; stroke: #201f3d; stroke-width: 0.1"/>
     <use xlink:href="#m2246d7cf78" x="79.524249" y="101.755454" style="fill: #201f3d; stroke: #201f3d; stroke-width: 0.1"/>
     <use xlink:href="#m2246d7cf78" x="102.220809" y="78.317929" style="fill: #201f3d; stroke: #201f3d; stroke-width: 0.1"/>
     <use xlink:href="#m2246d7cf78" x="103.759557" y="68.24041" style="fill: #201f3d; stroke: #201f3d; stroke-width: 0.1"/>
     <use xlink:href="#m2246d7cf78" x="134.076676" y="63.811506" style="fill: #201f3d; stroke: #201f3d; stroke-width: 0.1"/>
     <use xlink:href="#m2246d7cf78" x="130.361238" y="62.010759" style="fill: #201f3d; stroke: #201f3d; stroke-width: 0.1"/>
     <use xlink:href="#m2246d7cf78" x="107.004247" y="80.649993" style="fill: #201f3d; stroke: #201f3d; stroke-width: 0.1"/>
     <use xlink:href="#m2246d7cf78" x="102.282232" y="70.973325" style="fill: #201f3d; stroke: #201f3d; stroke-width: 0.1"/>
     <use xlink:href="#m2246d7cf78" x="109.887851" y="71.289856" style="fill: #201f3d; stroke: #201f3d; stroke-width: 0.1"/>
     <use xlink:href="#m2246d7cf78" x="99.017856" y="70.515591" style="fill: #201f3d; stroke: #201f3d; stroke-width: 0.1"/>
     <use xlink:href="#m2246d7cf78" x="117.820343" y="59.122831" style="fill: #201f3d; stroke: #201f3d; stroke-width: 0.1"/>
     <use xlink:href="#m2246d7cf78" x="106.716488" y="73.166236" style="fill: #201f3d; stroke: #201f3d; stroke-width: 0.1"/>
     <use xlink:href="#m2246d7cf78" x="83.563378" y="105.34688" style="fill: #201f3d; stroke: #201f3d; stroke-width: 0.1"/>
     <use xlink:href="#m2246d7cf78" x="119.507528" y="71.318097" style="fill: #201f3d; stroke: #201f3d; stroke-width: 0.1"/>
     <use xlink:href="#m2246d7cf78" x="89.973734" y="74.312049" style="fill: #201f3d; stroke: #201f3d; stroke-width: 0.1"/>
     <use xlink:href="#m2246d7cf78" x="104.643016" y="56.654392" style="fill: #201f3d; stroke: #201f3d; stroke-width: 0.1"/>
     <use xlink:href="#m2246d7cf78" x="121.542098" y="74.385483" style="fill: #201f3d; stroke: #201f3d; stroke-width: 0.1"/>
     <use xlink:href="#m2246d7cf78" x="103.341912" y="74.584235" style="fill: #201f3d; stroke: #201f3d; stroke-width: 0.1"/>
     <use xlink:href="#m2246d7cf78" x="137.195301" y="64.920294" style="fill: #201f3d; stroke: #201f3d; stroke-width: 0.1"/>
     <use xlink:href="#m2246d7cf78" x="42.861665" y="160.336472" style="fill: #201f3d; stroke: #201f3d; stroke-width: 0.1"/>
     <use xlink:href="#m2246d7cf78" x="114.138955" y="77.566777" style="fill: #201f3d; stroke: #201f3d; stroke-width: 0.1"/>
     <use xlink:href="#m2246d7cf78" x="118.628946" y="63.534885" style="fill: #201f3d; stroke: #201f3d; stroke-width: 0.1"/>
     <use xlink:href="#m2246d7cf78" x="134.342052" y="55.208909" style="fill: #201f3d; stroke: #201f3d; stroke-width: 0.1"/>
     <use xlink:href="#m2246d7cf78" x="109.472923" y="75.837157" style="fill: #201f3d; stroke: #201f3d; stroke-width: 0.1"/>
     <use xlink:href="#m2246d7cf78" x="134.933506" y="55.246404" style="fill: #201f3d; stroke: #201f3d; stroke-width: 0.1"/>
     <use xlink:href="#m2246d7cf78" x="113.677378" y="69.141929" style="fill: #201f3d; stroke: #201f3d; stroke-width: 0.1"/>
     <use xlink:href="#m2246d7cf78" x="142.546392" y="50.519787" style="fill: #201f3d; stroke: #201f3d; stroke-width: 0.1"/>
     <use xlink:href="#m2246d7cf78" x="117.323921" y="53.421059" style="fill: #201f3d; stroke: #201f3d; stroke-width: 0.1"/>
     <use xlink:href="#m2246d7cf78" x="125.834883" y="56.56363" style="fill: #201f3d; stroke: #201f3d; stroke-width: 0.1"/>
     <use xlink:href="#m2246d7cf78" x="110.052136" y="79.375391" style="fill: #201f3d; stroke: #201f3d; stroke-width: 0.1"/>
    </g>
   </g>
   <g id="text_1">
    <!-- Red de nodos corruptos (K) de Dinamarca -->
    <g transform="translate(8.003956 10.084396) scale(0.096 -0.096)">
     <defs>
      <path id="NimbusRomNo9L-Regu-52" d="M 4218 121 
C 3974 140 3846 205 3661 424 
L 2342 2061 
C 2771 2143 2963 2219 3174 2388 
C 3379 2553 3501 2818 3501 3113 
C 3501 3385 3418 3618 3251 3801 
C 3008 4059 2477 4224 1875 4224 
L 109 4224 
L 109 4102 
C 589 4051 653 3981 653 3528 
L 653 765 
C 653 236 589 159 109 121 
L 109 0 
L 1882 0 
L 1882 134 
C 1389 134 1306 219 1306 692 
L 1306 1984 
L 1664 1984 
L 3187 0 
L 4218 0 
L 4218 121 
z
M 1306 3762 
C 1306 3937 1376 3987 1632 3987 
C 2432 3987 2803 3716 2803 3123 
C 2803 2807 2669 2542 2438 2423 
C 2144 2258 1920 2221 1306 2221 
L 1306 3762 
z
" transform="scale(0.015625)"/>
      <path id="NimbusRomNo9L-Regu-65" d="M 2611 1053 
C 2304 564 2029 378 1619 378 
C 1254 378 979 564 794 930 
C 678 1174 634 1386 621 1779 
L 2592 1779 
C 2541 2193 2477 2377 2317 2581 
C 2125 2811 1830 2944 1498 2944 
C 1178 2944 877 2829 634 2611 
C 333 2349 160 1894 160 1370 
C 160 486 621 -64 1357 -64 
C 1965 -64 2445 315 2714 1008 
L 2611 1053 
z
M 634 1984 
C 704 2479 922 2714 1312 2714 
C 1702 2714 1856 2535 1939 1984 
L 634 1984 
z
" transform="scale(0.015625)"/>
      <path id="NimbusRomNo9L-Regu-64" d="M 2202 -64 
L 3142 269 
L 3142 365 
C 3027 365 3014 365 2995 365 
C 2765 365 2714 435 2714 731 
L 2714 4364 
L 2682 4377 
C 2374 4268 2150 4204 1741 4096 
L 1741 3994 
C 1792 4000 1830 4000 1882 4000 
C 2118 4000 2176 3936 2176 3672 
L 2176 2669 
C 1933 2874 1760 2944 1504 2944 
C 768 2944 173 2221 173 1312 
C 173 493 653 -64 1357 -64 
C 1715 -64 1958 64 2176 365 
L 2176 -45 
L 2202 -64 
z
M 2176 653 
C 2176 608 2131 531 2067 461 
C 1952 333 1792 269 1606 269 
C 1075 269 723 781 723 1568 
C 723 2291 1037 2765 1523 2765 
C 1862 2765 2176 2464 2176 2125 
L 2176 653 
z
" transform="scale(0.015625)"/>
      <path id="NimbusRomNo9L-Regu-6e" d="M 102 2579 
C 141 2598 205 2605 275 2605 
C 454 2605 512 2509 512 2195 
L 512 608 
C 512 243 442 154 115 128 
L 115 32 
L 1472 32 
L 1472 128 
C 1146 154 1050 230 1050 461 
L 1050 2259 
C 1357 2547 1498 2624 1709 2624 
C 2022 2624 2176 2426 2176 2003 
L 2176 666 
C 2176 262 2093 154 1773 128 
L 1773 32 
L 3104 32 
L 3104 128 
C 2790 160 2714 237 2714 550 
L 2714 2016 
C 2714 2618 2432 2976 1958 2976 
C 1664 2976 1466 2867 1030 2458 
L 1030 2963 
L 986 2976 
C 672 2861 454 2790 102 2688 
L 102 2579 
z
" transform="scale(0.015625)"/>
      <path id="NimbusRomNo9L-Regu-6f" d="M 1600 2944 
C 768 2944 186 2330 186 1446 
C 186 582 781 -64 1587 -64 
C 2394 -64 3008 614 3008 1498 
C 3008 2336 2419 2944 1600 2944 
z
M 1517 2765 
C 2054 2765 2432 2150 2432 1274 
C 2432 550 2144 115 1664 115 
C 1414 115 1178 269 1043 525 
C 864 858 762 1306 762 1760 
C 762 2368 1062 2765 1517 2765 
z
" transform="scale(0.015625)"/>
      <path id="NimbusRomNo9L-Regu-73" d="M 2016 2010 
L 1990 2880 
L 1920 2880 
L 1907 2867 
C 1850 2822 1843 2816 1818 2816 
C 1779 2816 1715 2829 1645 2861 
C 1504 2915 1363 2944 1197 2944 
C 691 2944 326 2616 326 2154 
C 326 1796 531 1539 1075 1231 
L 1446 1020 
C 1670 892 1779 737 1779 539 
C 1779 256 1574 77 1248 77 
C 1030 77 832 159 710 298 
C 576 455 518 600 435 960 
L 333 960 
L 333 -39 
L 416 -39 
C 461 33 486 48 563 48 
C 621 48 710 35 858 -2 
C 1037 -39 1210 -64 1325 -64 
C 1818 -64 2227 308 2227 757 
C 2227 1077 2074 1289 1690 1520 
L 998 1930 
C 819 2033 723 2194 723 2367 
C 723 2624 922 2803 1216 2803 
C 1581 2803 1773 2583 1920 2010 
L 2016 2010 
z
" transform="scale(0.015625)"/>
      <path id="NimbusRomNo9L-Regu-63" d="M 2547 998 
C 2240 550 2010 397 1645 397 
C 1062 397 653 909 653 1645 
C 653 2304 1005 2758 1523 2758 
C 1754 2758 1837 2688 1901 2451 
L 1939 2310 
C 1990 2131 2106 2016 2240 2016 
C 2406 2016 2547 2138 2547 2285 
C 2547 2643 2099 2944 1562 2944 
C 1248 2944 922 2816 659 2586 
C 339 2304 160 1869 160 1363 
C 160 531 666 -64 1376 -64 
C 1664 -64 1920 38 2150 237 
C 2323 390 2445 563 2637 941 
L 2547 998 
z
" transform="scale(0.015625)"/>
      <path id="NimbusRomNo9L-Regu-72" d="M 45 2496 
C 134 2515 192 2522 269 2522 
C 429 2522 486 2419 486 2138 
L 486 538 
C 486 218 442 173 32 96 
L 32 0 
L 1568 0 
L 1568 102 
C 1133 102 1024 199 1024 565 
L 1024 2013 
C 1024 2219 1299 2541 1472 2541 
C 1510 2541 1568 2509 1638 2445 
C 1741 2355 1811 2317 1894 2317 
C 2048 2317 2144 2426 2144 2605 
C 2144 2816 2010 2944 1792 2944 
C 1523 2944 1338 2797 1024 2343 
L 1024 2931 
L 992 2944 
C 653 2803 422 2721 45 2599 
L 45 2496 
z
" transform="scale(0.015625)"/>
      <path id="NimbusRomNo9L-Regu-75" d="M 3066 320 
L 3034 320 
C 2739 320 2669 390 2669 685 
L 2669 2880 
L 1658 2880 
L 1658 2758 
C 2054 2758 2131 2694 2131 2375 
L 2131 875 
C 2131 697 2099 607 2010 537 
C 1837 397 1638 320 1446 320 
C 1197 320 992 537 992 805 
L 992 2880 
L 58 2880 
L 58 2778 
C 365 2778 454 2682 454 2387 
L 454 770 
C 454 263 762 -64 1229 -64 
C 1466 -64 1715 38 1888 211 
L 2163 486 
L 2163 -45 
L 2189 -58 
C 2509 70 2739 141 3066 230 
L 3066 320 
z
" transform="scale(0.015625)"/>
      <path id="NimbusRomNo9L-Regu-70" d="M 58 2516 
C 115 2522 160 2522 218 2522 
C 435 2522 480 2458 480 2155 
L 480 -855 
C 480 -1189 410 -1261 32 -1299 
L 32 -1408 
L 1581 -1408 
L 1581 -1293 
C 1101 -1293 1018 -1222 1018 -816 
L 1018 199 
C 1242 -13 1395 -77 1664 -77 
C 2419 -77 3008 643 3008 1575 
C 3008 2372 2560 2944 1939 2944 
C 1581 2944 1299 2784 1018 2438 
L 1018 2931 
L 979 2944 
C 634 2810 410 2726 58 2618 
L 58 2516 
z
M 1018 2136 
C 1018 2329 1376 2560 1670 2560 
C 2144 2560 2458 2071 2458 1324 
C 2458 611 2144 128 1683 128 
C 1382 128 1018 359 1018 552 
L 1018 2136 
z
" transform="scale(0.015625)"/>
      <path id="NimbusRomNo9L-Regu-74" d="M 1632 2880 
L 986 2880 
L 986 3622 
C 986 3686 979 3706 941 3706 
C 896 3648 858 3590 813 3526 
C 570 3174 294 2867 192 2841 
C 122 2794 83 2748 83 2715 
C 83 2695 90 2682 109 2682 
L 448 2682 
L 448 751 
C 448 212 640 -64 1018 -64 
C 1331 -64 1574 90 1786 423 
L 1702 493 
C 1568 333 1459 269 1318 269 
C 1082 269 986 443 986 847 
L 986 2682 
L 1632 2682 
L 1632 2880 
z
" transform="scale(0.015625)"/>
      <path id="NimbusRomNo9L-Regu-28" d="M 1888 4326 
C 1414 4019 1222 3853 986 3558 
C 531 3002 307 2362 307 1613 
C 307 800 544 173 1107 -480 
C 1370 -787 1536 -928 1869 -1133 
L 1946 -1030 
C 1434 -627 1254 -403 1082 77 
C 928 506 858 992 858 1632 
C 858 2304 941 2829 1114 3226 
C 1293 3622 1485 3853 1946 4224 
L 1888 4326 
z
" transform="scale(0.015625)"/>
      <path id="NimbusRomNo9L-Regu-4b" d="M 2643 4109 
C 2720 4096 2784 4096 2810 4096 
C 3002 4096 3078 4045 3078 3917 
C 3078 3775 2931 3583 2579 3257 
L 1446 2224 
L 1446 3534 
C 1446 4000 1517 4071 2035 4109 
L 2035 4231 
L 218 4231 
L 218 4109 
C 717 4071 794 3988 794 3531 
L 794 750 
C 794 217 723 134 218 134 
L 218 0 
L 2022 0 
L 2022 134 
C 1523 134 1446 211 1446 683 
L 1446 1891 
L 1613 2026 
L 2291 1355 
C 2778 876 3123 422 3123 269 
C 3123 179 3034 134 2854 134 
C 2822 134 2752 134 2675 121 
L 2675 0 
L 4627 0 
L 4627 134 
C 4294 134 4205 198 3622 816 
L 2131 2409 
L 3347 3611 
C 3782 4026 3885 4077 4320 4109 
L 4320 4231 
L 2643 4231 
L 2643 4109 
z
" transform="scale(0.015625)"/>
      <path id="NimbusRomNo9L-Regu-29" d="M 243 -1133 
C 717 -826 909 -659 1146 -365 
C 1600 192 1824 832 1824 1581 
C 1824 2400 1587 3021 1024 3674 
C 762 3981 595 4122 262 4326 
L 186 4224 
C 698 3821 870 3597 1050 3117 
C 1203 2688 1274 2202 1274 1562 
C 1274 896 1190 365 1018 -26 
C 838 -429 646 -659 186 -1030 
L 243 -1133 
z
" transform="scale(0.015625)"/>
      <path id="NimbusRomNo9L-Regu-44" d="M 666 679 
C 666 217 589 134 102 134 
L 102 0 
L 1920 0 
C 2662 0 3334 210 3731 568 
C 4147 944 4384 1512 4384 2131 
C 4384 2706 4192 3203 3840 3554 
C 3405 3994 2707 4224 1830 4224 
L 102 4224 
L 102 4102 
C 608 4057 666 4000 666 3525 
L 666 679 
z
M 1318 3738 
C 1318 3936 1389 3987 1651 3987 
C 2202 3987 2618 3885 2925 3668 
C 3424 3323 3686 2775 3686 2087 
C 3686 1334 3424 798 2906 498 
C 2579 314 2208 237 1651 237 
C 1395 237 1318 294 1318 498 
L 1318 3738 
z
" transform="scale(0.015625)"/>
      <path id="NimbusRomNo9L-Regu-69" d="M 1120 2929 
L 128 2579 
L 128 2484 
L 179 2490 
C 256 2502 339 2509 397 2509 
C 550 2509 608 2406 608 2125 
L 608 640 
C 608 179 544 109 102 109 
L 102 0 
L 1619 0 
L 1619 96 
C 1197 128 1146 191 1146 650 
L 1146 2910 
L 1120 2929 
z
M 819 4352 
C 646 4352 499 4205 499 4026 
C 499 3847 640 3699 819 3699 
C 1005 3699 1152 3840 1152 4026 
C 1152 4205 1005 4352 819 4352 
z
" transform="scale(0.015625)"/>
      <path id="NimbusRomNo9L-Regu-61" d="M 2829 423 
C 2720 333 2643 301 2547 301 
C 2400 301 2355 390 2355 672 
L 2355 1920 
C 2355 2253 2323 2438 2227 2592 
C 2086 2822 1811 2944 1434 2944 
C 832 2944 358 2630 358 2227 
C 358 2080 486 1952 634 1952 
C 787 1952 922 2080 922 2221 
C 922 2246 915 2278 909 2323 
C 896 2381 890 2432 890 2477 
C 890 2650 1094 2790 1350 2790 
C 1664 2790 1837 2605 1837 2259 
L 1837 1869 
C 851 1472 742 1421 467 1178 
C 326 1050 237 832 237 621 
C 237 218 518 -64 909 -64 
C 1190 -64 1453 70 1843 403 
C 1875 70 1990 -64 2253 -64 
C 2470 -64 2605 13 2829 256 
L 2829 423 
z
M 1837 783 
C 1837 584 1805 526 1670 449 
C 1517 359 1338 301 1203 301 
C 979 301 800 520 800 796 
L 800 822 
C 800 1201 1062 1433 1837 1715 
L 1837 783 
z
" transform="scale(0.015625)"/>
      <path id="NimbusRomNo9L-Regu-6d" d="M 122 2547 
C 205 2566 256 2573 326 2573 
C 493 2573 550 2470 550 2162 
L 550 539 
C 550 192 461 96 102 96 
L 102 0 
L 1523 0 
L 1523 96 
C 1184 96 1088 166 1088 418 
L 1088 2234 
C 1088 2246 1139 2310 1184 2355 
C 1344 2502 1619 2611 1843 2611 
C 2125 2611 2266 2385 2266 1932 
L 2266 528 
C 2266 167 2195 96 1830 96 
L 1830 0 
L 3264 0 
L 3264 96 
C 2899 96 2803 205 2803 603 
L 2803 2221 
C 2995 2496 3206 2611 3501 2611 
C 3866 2611 3981 2438 3981 1907 
L 3981 557 
C 3981 192 3930 141 3558 96 
L 3558 0 
L 4960 0 
L 4960 96 
L 4794 115 
C 4602 115 4518 230 4518 480 
L 4518 1802 
C 4518 2559 4269 2944 3776 2944 
C 3405 2944 3078 2778 2733 2407 
C 2618 2771 2400 2944 2054 2944 
C 1773 2944 1594 2854 1062 2451 
L 1062 2931 
L 1018 2944 
C 691 2822 474 2752 122 2656 
L 122 2547 
z
" transform="scale(0.015625)"/>
     </defs>
     <use xlink:href="#NimbusRomNo9L-Regu-52" transform="scale(0.996264)"/>
     <use xlink:href="#NimbusRomNo9L-Regu-65" transform="translate(66.450031 0) scale(0.996264)"/>
     <use xlink:href="#NimbusRomNo9L-Regu-64" transform="translate(110.6836 0) scale(0.996264)"/>
     <use xlink:href="#NimbusRomNo9L-Regu-64" transform="translate(185.403401 0) scale(0.996264)"/>
     <use xlink:href="#NimbusRomNo9L-Regu-65" transform="translate(235.216601 0) scale(0.996264)"/>
     <use xlink:href="#NimbusRomNo9L-Regu-6e" transform="translate(304.35677 0) scale(0.996264)"/>
     <use xlink:href="#NimbusRomNo9L-Regu-6f" transform="translate(354.169971 0) scale(0.996264)"/>
     <use xlink:href="#NimbusRomNo9L-Regu-64" transform="translate(403.983171 0) scale(0.996264)"/>
     <use xlink:href="#NimbusRomNo9L-Regu-6f" transform="translate(453.796372 0) scale(0.996264)"/>
     <use xlink:href="#NimbusRomNo9L-Regu-73" transform="translate(503.609572 0) scale(0.996264)"/>
     <use xlink:href="#NimbusRomNo9L-Regu-63" transform="translate(567.269878 0) scale(0.996264)"/>
     <use xlink:href="#NimbusRomNo9L-Regu-6f" transform="translate(611.503447 0) scale(0.996264)"/>
     <use xlink:href="#NimbusRomNo9L-Regu-72" transform="translate(661.316648 0) scale(0.996264)"/>
     <use xlink:href="#NimbusRomNo9L-Regu-72" transform="translate(694.491877 0) scale(0.996264)"/>
     <use xlink:href="#NimbusRomNo9L-Regu-75" transform="translate(727.667107 0) scale(0.996264)"/>
     <use xlink:href="#NimbusRomNo9L-Regu-70" transform="translate(777.480308 0) scale(0.996264)"/>
     <use xlink:href="#NimbusRomNo9L-Regu-74" transform="translate(827.293508 0) scale(0.996264)"/>
     <use xlink:href="#NimbusRomNo9L-Regu-6f" transform="translate(854.988678 0) scale(0.996264)"/>
     <use xlink:href="#NimbusRomNo9L-Regu-73" transform="translate(904.801878 0) scale(0.996264)"/>
     <use xlink:href="#NimbusRomNo9L-Regu-28" transform="translate(968.462185 0) scale(0.996264)"/>
     <use xlink:href="#NimbusRomNo9L-Regu-4b" transform="translate(1001.637414 0) scale(0.996264)"/>
     <use xlink:href="#NimbusRomNo9L-Regu-29" transform="translate(1073.567399 0) scale(0.996264)"/>
     <use xlink:href="#NimbusRomNo9L-Regu-64" transform="translate(1131.649229 0) scale(0.996264)"/>
     <use xlink:href="#NimbusRomNo9L-Regu-65" transform="translate(1181.46243 0) scale(0.996264)"/>
     <use xlink:href="#NimbusRomNo9L-Regu-44" transform="translate(1250.602599 0) scale(0.996264)"/>
     <use xlink:href="#NimbusRomNo9L-Regu-69" transform="translate(1322.532584 0) scale(0.996264)"/>
     <use xlink:href="#NimbusRomNo9L-Regu-6e" transform="translate(1350.227753 0) scale(0.996264)"/>
     <use xlink:href="#NimbusRomNo9L-Regu-61" transform="translate(1400.040954 0) scale(0.996264)"/>
     <use xlink:href="#NimbusRomNo9L-Regu-6d" transform="translate(1444.274522 0) scale(0.996264)"/>
     <use xlink:href="#NimbusRomNo9L-Regu-61" transform="translate(1521.782892 0) scale(0.996264)"/>
     <use xlink:href="#NimbusRomNo9L-Regu-72" transform="translate(1566.016461 0) scale(0.996264)"/>
     <use xlink:href="#NimbusRomNo9L-Regu-63" transform="translate(1599.191691 0) scale(0.996264)"/>
     <use xlink:href="#NimbusRomNo9L-Regu-61" transform="translate(1643.42526 0) scale(0.996264)"/>
    </g>
    <!-- Barabsi-Albert_(m=1) - H: 0.5\%  -->
    <g transform="translate(24.832086 19.936215) scale(0.096 -0.096)">
     <defs>
      <path id="NimbusRomNo9L-Regu-42" d="M 109 4237 
L 109 4096 
C 646 4096 723 4026 723 3548 
L 723 689 
C 723 212 640 128 109 128 
L 109 0 
L 2246 0 
C 2746 0 3200 136 3437 356 
C 3667 564 3795 855 3795 1165 
C 3795 1451 3680 1710 3482 1897 
C 3290 2072 3117 2150 2701 2253 
C 3034 2335 3168 2398 3322 2531 
C 3482 2671 3578 2903 3578 3163 
C 3578 3871 3008 4237 1901 4237 
L 109 4237 
z
M 1376 2112 
C 1997 2112 2291 2080 2522 1982 
C 2886 1827 3059 1568 3059 1159 
C 3059 809 2925 555 2669 406 
C 2464 290 2202 238 1779 238 
C 1466 238 1376 296 1376 504 
L 1376 2112 
z
M 1376 2368 
L 1376 3812 
C 1376 3944 1421 4001 1517 4001 
L 1798 4001 
C 2534 4001 2925 3699 2925 3137 
C 2925 2646 2586 2368 1984 2368 
L 1376 2368 
z
" transform="scale(0.015625)"/>
      <path id="NimbusRomNo9L-Regu-62" d="M 979 4364 
L 947 4377 
C 678 4281 506 4230 205 4147 
L 19 4096 
L 19 3994 
C 58 4000 83 4000 128 4000 
C 384 4000 442 3942 442 3673 
L 442 347 
C 442 147 986 -64 1498 -64 
C 2342 -64 2995 640 2995 1555 
C 2995 2342 2509 2944 1869 2944 
C 1478 2944 1107 2714 979 2400 
L 979 4364 
z
M 979 2061 
C 979 2310 1280 2541 1613 2541 
C 2112 2541 2432 2042 2432 1261 
C 2432 550 2125 141 1600 141 
C 1267 141 979 288 979 448 
L 979 2061 
z
" transform="scale(0.015625)"/>
      <path id="NimbusRomNo9L-Regu-b4" d="M 851 3264 
L 1837 3882 
C 1971 3964 2029 4047 2029 4148 
C 2029 4275 1946 4352 1805 4352 
C 1709 4352 1651 4320 1536 4206 
L 595 3264 
L 851 3264 
z
" transform="scale(0.015625)"/>
      <path id="NimbusRomNo9L-Regu-2d" d="M 250 1619 
L 250 1216 
L 1824 1216 
L 1824 1619 
L 250 1619 
z
" transform="scale(0.015625)"/>
      <path id="NimbusRomNo9L-Regu-41" d="M 4518 128 
C 4230 128 4166 192 3942 667 
L 2349 4320 
L 2221 4320 
L 890 1168 
C 480 231 403 128 96 128 
L 96 0 
L 1363 0 
L 1363 128 
C 1056 128 928 212 928 393 
C 928 470 947 560 979 645 
L 1274 1401 
L 2950 1401 
L 3213 778 
C 3290 602 3334 434 3334 342 
C 3334 180 3226 128 2886 128 
L 2886 0 
L 4518 0 
L 4518 128 
z
M 1382 1664 
L 2118 3416 
L 2861 1664 
L 1382 1664 
z
" transform="scale(0.015625)"/>
      <path id="NimbusRomNo9L-Regu-6c" d="M 122 4000 
L 160 4000 
C 230 4000 307 4000 358 4000 
C 563 4000 627 3910 627 3610 
L 627 557 
C 627 211 538 128 134 96 
L 134 0 
L 1645 0 
L 1645 109 
C 1242 109 1165 173 1165 528 
L 1165 4371 
L 1139 4384 
C 806 4275 563 4211 122 4103 
L 122 4000 
z
" transform="scale(0.015625)"/>
      <path id="NimbusRomNo9L-Regu-3d" d="M 3418 2470 
L 192 2470 
L 192 2048 
L 3418 2048 
L 3418 2470 
z
M 3418 1190 
L 192 1190 
L 192 768 
L 3418 768 
L 3418 1190 
z
" transform="scale(0.015625)"/>
      <path id="NimbusRomNo9L-Regu-31" d="M 1862 4339 
L 710 3757 
L 710 3667 
C 787 3699 858 3725 883 3738 
C 998 3783 1107 3808 1171 3808 
C 1306 3808 1363 3711 1363 3505 
L 1363 592 
C 1363 379 1312 232 1210 173 
C 1114 116 1024 96 755 96 
L 755 0 
L 2522 0 
L 2522 96 
C 2016 96 1914 160 1914 470 
L 1914 4327 
L 1862 4339 
z
" transform="scale(0.015625)"/>
      <path id="NimbusRomNo9L-Regu-48" d="M 1338 2304 
L 1338 3533 
C 1338 3990 1408 4059 1901 4104 
L 1901 4224 
L 122 4224 
L 122 4104 
C 614 4059 685 3989 685 3527 
L 685 749 
C 685 210 621 134 122 134 
L 122 0 
L 1901 0 
L 1901 121 
C 1421 159 1338 242 1338 699 
L 1338 2022 
L 3277 2022 
L 3277 757 
C 3277 211 3213 134 2714 134 
L 2714 0 
L 4493 0 
L 4493 121 
C 4013 159 3930 242 3930 696 
L 3930 3529 
C 3930 3989 4000 4059 4493 4104 
L 4493 4224 
L 2714 4224 
L 2714 4104 
C 3206 4059 3277 3990 3277 3533 
L 3277 2304 
L 1338 2304 
z
" transform="scale(0.015625)"/>
      <path id="NimbusRomNo9L-Regu-3a" d="M 870 2944 
C 678 2944 518 2777 518 2579 
C 518 2393 678 2233 864 2233 
C 1062 2233 1229 2393 1229 2579 
C 1229 2777 1062 2944 870 2944 
z
M 870 646 
C 678 646 518 480 518 281 
C 518 96 678 -64 864 -64 
C 1062 -64 1229 96 1229 281 
C 1229 480 1062 646 870 646 
z
" transform="scale(0.015625)"/>
      <path id="NimbusRomNo9L-Regu-30" d="M 1626 4352 
C 1274 4352 1005 4244 768 4020 
C 397 3661 154 2925 154 2176 
C 154 1479 365 730 666 372 
C 902 90 1229 -64 1600 -64 
C 1926 -64 2202 45 2432 269 
C 2803 621 3046 1364 3046 2138 
C 3046 3450 2464 4352 1626 4352 
z
M 1606 4186 
C 2144 4186 2432 3463 2432 2125 
C 2432 788 2150 103 1600 103 
C 1050 103 768 788 768 2119 
C 768 3476 1056 4186 1606 4186 
z
" transform="scale(0.015625)"/>
      <path id="NimbusRomNo9L-Regu-2e" d="M 800 646 
C 608 646 448 480 448 281 
C 448 96 608 -64 794 -64 
C 992 -64 1158 96 1158 281 
C 1158 480 992 646 800 646 
z
" transform="scale(0.015625)"/>
      <path id="NimbusRomNo9L-Regu-35" d="M 1158 3776 
L 2413 3776 
C 2515 3776 2541 3789 2560 3834 
L 2803 4403 
L 2746 4448 
C 2650 4314 2586 4282 2451 4282 
L 1114 4282 
L 416 2759 
C 410 2746 410 2740 410 2727 
C 410 2695 435 2676 486 2676 
C 691 2676 947 2631 1210 2547 
C 1946 2309 2285 1910 2285 1274 
C 2285 656 1894 173 1395 173 
C 1267 173 1158 218 966 360 
C 762 508 614 572 480 572 
C 294 572 205 495 205 334 
C 205 90 506 -64 986 -64 
C 1523 -64 1984 110 2304 438 
C 2598 728 2733 1094 2733 1583 
C 2733 2046 2611 2342 2291 2663 
C 2010 2947 1645 3094 890 3229 
L 1158 3776 
z
" transform="scale(0.015625)"/>
      <path id="NimbusRomNo9L-Regu-25" d="M 4282 2368 
C 3558 2368 2874 1622 2874 824 
C 2874 325 3181 0 3642 0 
C 3930 0 4166 102 4390 325 
C 4730 670 4941 1187 4941 1686 
C 4941 2120 4698 2368 4282 2368 
z
M 4326 2164 
C 4570 2164 4774 1934 4774 1654 
C 4774 1290 4614 856 4371 556 
C 4166 301 3981 192 3750 192 
C 3520 192 3360 357 3360 601 
C 3360 939 3539 1462 3776 1793 
C 3949 2048 4128 2164 4326 2164 
z
M 4058 4320 
L 3808 4320 
C 3462 4008 3206 3904 2810 3904 
C 2554 3904 2406 3946 2253 4064 
C 2086 4194 2003 4224 1805 4224 
C 1075 4224 390 3468 390 2662 
C 390 2217 730 1856 1146 1856 
C 1421 1856 1709 1984 1920 2209 
C 2253 2549 2458 3056 2458 3526 
C 2458 3615 2445 3693 2413 3808 
C 2528 3763 2643 3744 2829 3744 
C 3110 3744 3277 3788 3533 3931 
L 1286 -96 
L 1594 -96 
L 4058 4320 
z
M 2240 3829 
C 2278 3702 2298 3607 2298 3518 
C 2298 2802 1773 2073 1254 2073 
C 1030 2073 877 2231 877 2460 
C 877 2726 1005 3157 1178 3474 
C 1363 3816 1606 4032 1805 4032 
C 1837 4032 1850 4025 1888 3993 
C 1978 3911 2054 3879 2240 3829 
z
" transform="scale(0.015625)"/>
     </defs>
     <use xlink:href="#NimbusRomNo9L-Regu-42" transform="scale(0.996264)"/>
     <use xlink:href="#NimbusRomNo9L-Regu-61" transform="translate(66.450031 0) scale(0.996264)"/>
     <use xlink:href="#NimbusRomNo9L-Regu-72" transform="translate(110.6836 0) scale(0.996264)"/>
     <use xlink:href="#NimbusRomNo9L-Regu-61" transform="translate(143.85883 0) scale(0.996264)"/>
     <use xlink:href="#NimbusRomNo9L-Regu-62" transform="translate(188.092398 0) scale(0.996264)"/>
     <use xlink:href="#NimbusRomNo9L-Regu-b4" transform="translate(243.434776 0.498056) scale(0.996264)"/>
     <use xlink:href="#NimbusRomNo9L-Regu-61" transform="translate(237.905599 0) scale(0.996264)"/>
     <use xlink:href="#NimbusRomNo9L-Regu-73" transform="translate(282.139167 0) scale(0.996264)"/>
     <use xlink:href="#NimbusRomNo9L-Regu-69" transform="translate(320.892874 0) scale(0.996264)"/>
     <use xlink:href="#NimbusRomNo9L-Regu-2d" transform="translate(348.588043 0) scale(0.996264)"/>
     <use xlink:href="#NimbusRomNo9L-Regu-41" transform="translate(381.763273 0) scale(0.996264)"/>
     <use xlink:href="#NimbusRomNo9L-Regu-6c" transform="translate(453.693258 0) scale(0.996264)"/>
     <use xlink:href="#NimbusRomNo9L-Regu-62" transform="translate(481.388427 0) scale(0.996264)"/>
     <use xlink:href="#NimbusRomNo9L-Regu-65" transform="translate(531.201628 0) scale(0.996264)"/>
     <use xlink:href="#NimbusRomNo9L-Regu-72" transform="translate(575.435197 0) scale(0.996264)"/>
     <use xlink:href="#NimbusRomNo9L-Regu-74" transform="translate(608.610426 0) scale(0.996264)"/>
     <use xlink:href="#NimbusRomNo9L-Regu-28" transform="translate(672.171161 0) scale(0.996264)"/>
     <use xlink:href="#NimbusRomNo9L-Regu-6d" transform="translate(705.346391 0) scale(0.996264)"/>
     <use xlink:href="#NimbusRomNo9L-Regu-3d" transform="translate(782.854761 0) scale(0.996264)"/>
     <use xlink:href="#NimbusRomNo9L-Regu-31" transform="translate(839.043011 0) scale(0.996264)"/>
     <use xlink:href="#NimbusRomNo9L-Regu-29" transform="translate(888.856212 0) scale(0.996264)"/>
     <use xlink:href="#NimbusRomNo9L-Regu-2d" transform="translate(946.938042 0) scale(0.996264)"/>
     <use xlink:href="#NimbusRomNo9L-Regu-48" transform="translate(1005.019872 0) scale(0.996264)"/>
     <use xlink:href="#NimbusRomNo9L-Regu-3a" transform="translate(1076.949857 0) scale(0.996264)"/>
     <use xlink:href="#NimbusRomNo9L-Regu-30" transform="translate(1129.551626 0) scale(0.996264)"/>
     <use xlink:href="#NimbusRomNo9L-Regu-2e" transform="translate(1179.364827 0) scale(0.996264)"/>
     <use xlink:href="#NimbusRomNo9L-Regu-35" transform="translate(1204.271427 0) scale(0.996264)"/>
     <use xlink:href="#NimbusRomNo9L-Regu-25" transform="translate(1254.084628 0) scale(0.996264)"/>
     <path d="M 642.282937 0 
L 672.171161 0 
L 672.171161 0.3985 
L 642.282937 0.3985 
L 642.282937 0 
z
"/>
    </g>
    <!-- Masa crtica: 65\% - Nodos perifericos (H,C) -->
    <g transform="translate(3.6 29.845406) scale(0.096 -0.096)">
     <defs>
      <path id="NimbusRomNo9L-Regu-4d" d="M 4314 3667 
L 4314 751 
C 4314 217 4237 134 3731 134 
L 3731 0 
L 5523 0 
L 5523 134 
C 5056 134 4966 223 4966 681 
L 4966 3536 
C 4966 3993 5050 4077 5523 4115 
L 5523 4237 
L 4250 4237 
L 2835 1004 
L 1357 4237 
L 90 4237 
L 90 4096 
C 614 4096 698 4019 698 3550 
L 698 943 
C 698 282 608 159 77 121 
L 77 0 
L 1581 0 
L 1581 134 
C 1088 134 979 282 979 931 
L 979 3520 
L 2586 0 
L 2675 0 
L 4314 3667 
z
" transform="scale(0.015625)"/>
      <path id="NimbusRomNo9L-Regu-11" d="M 1120 2950 
L 128 2598 
L 128 2502 
L 179 2508 
C 256 2521 339 2528 397 2528 
C 550 2528 608 2424 608 2141 
L 608 644 
C 608 180 544 109 102 109 
L 102 0 
L 1619 0 
L 1619 96 
C 1197 128 1146 192 1146 654 
L 1146 2931 
L 1120 2950 
z
" transform="scale(0.015625)"/>
      <path id="NimbusRomNo9L-Regu-36" d="M 2854 4391 
C 2125 4327 1754 4205 1286 3879 
C 595 3386 218 2656 218 1802 
C 218 1248 390 688 666 370 
C 909 89 1254 -64 1651 -64 
C 2445 -64 2995 541 2995 1421 
C 2995 2236 2528 2752 1792 2752 
C 1510 2752 1376 2707 973 2464 
C 1146 3431 1862 4122 2867 4288 
L 2854 4391 
z
M 1549 2458 
C 2099 2458 2419 2000 2419 1204 
C 2419 504 2170 116 1722 116 
C 1158 116 813 714 813 1700 
C 813 2025 864 2203 992 2299 
C 1126 2400 1325 2458 1549 2458 
z
" transform="scale(0.015625)"/>
      <path id="NimbusRomNo9L-Regu-4e" d="M 3917 -64 
L 3917 3287 
C 3917 3669 3981 3905 4102 3987 
C 4192 4051 4282 4077 4525 4102 
L 4525 4224 
L 3021 4224 
L 3021 4102 
C 3264 4083 3354 4057 3450 4000 
C 3578 3911 3635 3681 3635 3286 
L 3635 1136 
L 1171 4224 
L 77 4224 
L 77 4102 
C 352 4102 442 4051 698 3751 
L 698 938 
C 698 281 608 159 77 121 
L 77 0 
L 1581 0 
L 1581 134 
C 1088 134 979 281 979 928 
L 979 3439 
L 3808 -64 
L 3917 -64 
z
" transform="scale(0.015625)"/>
      <path id="NimbusRomNo9L-Regu-66" d="M 1978 2880 
L 1190 2880 
L 1190 3611 
C 1190 3978 1312 4173 1555 4173 
C 1690 4173 1779 4110 1894 3927 
C 1997 3763 2074 3700 2182 3700 
C 2330 3700 2451 3814 2451 3959 
C 2451 4188 2170 4352 1786 4352 
C 1389 4352 1050 4181 883 3891 
C 717 3613 666 3385 659 2880 
L 134 2880 
L 134 2675 
L 659 2675 
L 659 656 
C 659 185 589 109 128 109 
L 128 0 
L 1792 0 
L 1792 109 
C 1267 109 1197 180 1197 661 
L 1197 2675 
L 1978 2675 
L 1978 2880 
z
" transform="scale(0.015625)"/>
      <path id="NimbusRomNo9L-Regu-2c" d="M 531 -889 
C 960 -678 1248 -288 1248 96 
C 1248 416 1024 666 736 666 
C 512 666 358 519 358 301 
C 358 96 506 -25 736 -25 
C 774 -25 819 -19 858 -13 
C 902 0 902 0 909 0 
C 960 0 998 -38 998 -89 
C 998 -294 819 -531 474 -768 
L 531 -889 
z
" transform="scale(0.015625)"/>
      <path id="NimbusRomNo9L-Regu-43" d="M 3968 2906 
L 3910 4352 
L 3776 4352 
C 3738 4218 3635 4141 3507 4141 
C 3450 4141 3354 4160 3258 4199 
C 2944 4301 2624 4352 2323 4352 
C 1798 4352 1267 4154 870 3802 
C 422 3405 179 2810 179 2106 
C 179 1511 371 960 698 596 
C 1082 180 1670 -64 2304 -64 
C 3027 -64 3661 231 4051 749 
L 3936 864 
C 3462 410 3040 218 2509 218 
C 2106 218 1747 346 1472 589 
C 1120 903 922 1479 922 2189 
C 922 3348 1517 4096 2445 4096 
C 2810 4096 3142 3962 3398 3706 
C 3603 3501 3699 3322 3821 2906 
L 3968 2906 
z
" transform="scale(0.015625)"/>
     </defs>
     <use xlink:href="#NimbusRomNo9L-Regu-4d" transform="scale(0.996264)"/>
     <use xlink:href="#NimbusRomNo9L-Regu-61" transform="translate(88.566907 0) scale(0.996264)"/>
     <use xlink:href="#NimbusRomNo9L-Regu-73" transform="translate(132.800475 0) scale(0.996264)"/>
     <use xlink:href="#NimbusRomNo9L-Regu-61" transform="translate(171.554182 0) scale(0.996264)"/>
     <use xlink:href="#NimbusRomNo9L-Regu-63" transform="translate(240.694351 0) scale(0.996264)"/>
     <use xlink:href="#NimbusRomNo9L-Regu-72" transform="translate(284.927919 0) scale(0.996264)"/>
     <use xlink:href="#NimbusRomNo9L-Regu-b4" transform="translate(315.363119 0.498056) scale(0.996264)"/>
     <use xlink:href="#NimbusRomNo9L-Regu-11" transform="translate(318.103149 0) scale(0.996264)"/>
     <use xlink:href="#NimbusRomNo9L-Regu-74" transform="translate(345.798319 0) scale(0.996264)"/>
     <use xlink:href="#NimbusRomNo9L-Regu-69" transform="translate(373.493488 0) scale(0.996264)"/>
     <use xlink:href="#NimbusRomNo9L-Regu-63" transform="translate(401.188658 0) scale(0.996264)"/>
     <use xlink:href="#NimbusRomNo9L-Regu-61" transform="translate(445.422226 0) scale(0.996264)"/>
     <use xlink:href="#NimbusRomNo9L-Regu-3a" transform="translate(489.655795 0) scale(0.996264)"/>
     <use xlink:href="#NimbusRomNo9L-Regu-36" transform="translate(548.234997 0) scale(0.996264)"/>
     <use xlink:href="#NimbusRomNo9L-Regu-35" transform="translate(598.048198 0) scale(0.996264)"/>
     <use xlink:href="#NimbusRomNo9L-Regu-25" transform="translate(647.861398 0) scale(0.996264)"/>
     <use xlink:href="#NimbusRomNo9L-Regu-2d" transform="translate(755.756429 0) scale(0.996264)"/>
     <use xlink:href="#NimbusRomNo9L-Regu-4e" transform="translate(813.838259 0) scale(0.996264)"/>
     <use xlink:href="#NimbusRomNo9L-Regu-6f" transform="translate(885.768243 0) scale(0.996264)"/>
     <use xlink:href="#NimbusRomNo9L-Regu-64" transform="translate(935.581444 0) scale(0.996264)"/>
     <use xlink:href="#NimbusRomNo9L-Regu-6f" transform="translate(985.394644 0) scale(0.996264)"/>
     <use xlink:href="#NimbusRomNo9L-Regu-73" transform="translate(1035.207845 0) scale(0.996264)"/>
     <use xlink:href="#NimbusRomNo9L-Regu-70" transform="translate(1098.868151 0) scale(0.996264)"/>
     <use xlink:href="#NimbusRomNo9L-Regu-65" transform="translate(1148.681352 0) scale(0.996264)"/>
     <use xlink:href="#NimbusRomNo9L-Regu-72" transform="translate(1192.91492 0) scale(0.996264)"/>
     <use xlink:href="#NimbusRomNo9L-Regu-69" transform="translate(1226.09015 0) scale(0.996264)"/>
     <use xlink:href="#NimbusRomNo9L-Regu-66" transform="translate(1253.78532 0) scale(0.996264)"/>
     <use xlink:href="#NimbusRomNo9L-Regu-65" transform="translate(1286.96055 0) scale(0.996264)"/>
     <use xlink:href="#NimbusRomNo9L-Regu-72" transform="translate(1331.194118 0) scale(0.996264)"/>
     <use xlink:href="#NimbusRomNo9L-Regu-69" transform="translate(1364.369348 0) scale(0.996264)"/>
     <use xlink:href="#NimbusRomNo9L-Regu-63" transform="translate(1392.064518 0) scale(0.996264)"/>
     <use xlink:href="#NimbusRomNo9L-Regu-6f" transform="translate(1436.298086 0) scale(0.996264)"/>
     <use xlink:href="#NimbusRomNo9L-Regu-73" transform="translate(1486.111287 0) scale(0.996264)"/>
     <use xlink:href="#NimbusRomNo9L-Regu-28" transform="translate(1549.771593 0) scale(0.996264)"/>
     <use xlink:href="#NimbusRomNo9L-Regu-48" transform="translate(1582.946823 0) scale(0.996264)"/>
     <use xlink:href="#NimbusRomNo9L-Regu-2c" transform="translate(1654.876808 0) scale(0.996264)"/>
     <use xlink:href="#NimbusRomNo9L-Regu-43" transform="translate(1679.783408 0) scale(0.996264)"/>
     <use xlink:href="#NimbusRomNo9L-Regu-29" transform="translate(1746.233439 0) scale(0.996264)"/>
    </g>
   </g>
  </g>
 </g>
 <defs>
  <clipPath id="p9d68bdb3b7">
   <rect x="19.261541" y="35.845406" width="139.5" height="138.6"/>
  </clipPath>
 </defs>
</svg>
