<?xml version="1.0" encoding="utf-8" standalone="no"?>
<!DOCTYPE svg PUBLIC "-//W3C//DTD SVG 1.1//EN"
  "http://www.w3.org/Graphics/SVG/1.1/DTD/svg11.dtd">
<svg xmlns:xlink="http://www.w3.org/1999/xlink" width="174.312175pt" height="188.617154pt" viewBox="0 0 174.312175 188.617154" xmlns="http://www.w3.org/2000/svg" version="1.1">
 <metadata>
  <rdf:RDF xmlns:dc="http://purl.org/dc/elements/1.1/" xmlns:cc="http://creativecommons.org/ns#" xmlns:rdf="http://www.w3.org/1999/02/22-rdf-syntax-ns#">
   <cc:Work>
    <dc:type rdf:resource="http://purl.org/dc/dcmitype/StillImage"/>
    <dc:date>2025-06-17T14:08:27.409056</dc:date>
    <dc:format>image/svg+xml</dc:format>
    <dc:creator>
     <cc:Agent>
      <dc:title>Matplotlib v3.10.1, https://matplotlib.org/</dc:title>
     </cc:Agent>
    </dc:creator>
   </cc:Work>
  </rdf:RDF>
 </metadata>
 <defs>
  <style type="text/css">*{stroke-linejoin: round; stroke-linecap: butt}</style>
 </defs>
 <g id="figure_1">
  <g id="patch_1">
   <path d="M 0 188.617154 
L 174.312175 188.617154 
L 174.312175 0 
L 0 0 
z
" style="fill: #ffffff"/>
  </g>
  <g id="axes_1">
   <g id="patch_2">
    <path d="M 17.406088 174.388034 
L 156.906088 174.388034 
L 156.906088 35.788034 
L 17.406088 35.788034 
z
" style="fill: #ffffff"/>
   </g>
   <g id="matplotlib.axis_1">
    <g id="xtick_1">
     <g id="line2d_1">
      <path d="M 17.406088 174.388034 
L 17.406088 35.788034 
" clip-path="url(#p68bf1bd83f)" style="fill: none; stroke-dasharray: 1.85,0.8; stroke-dashoffset: 0; stroke: #b0b0b0; stroke-opacity: 0.6; stroke-width: 0.5"/>
     </g>
     <g id="line2d_2">
      <defs>
       <path id="m40a8f18bcc" d="M 0 0 
L 0 -3 
" style="stroke: #000000; stroke-width: 0.5"/>
      </defs>
      <g>
       <use xlink:href="#m40a8f18bcc" x="17.406088" y="174.388034" style="stroke: #000000; stroke-width: 0.5"/>
      </g>
     </g>
     <g id="line2d_3">
      <defs>
       <path id="m4959b882ff" d="M 0 0 
L 0 3 
" style="stroke: #000000; stroke-width: 0.5"/>
      </defs>
      <g>
       <use xlink:href="#m4959b882ff" x="17.406088" y="35.788034" style="stroke: #000000; stroke-width: 0.5"/>
      </g>
     </g>
     <g id="text_1">
      <!-- $\mathdefault{0}$ -->
      <g transform="translate(15.41356 183.29169) scale(0.08 -0.08)">
       <defs>
        <path id="NimbusRomNo9L-Regu-30" d="M 1626 4352 
C 1274 4352 1005 4244 768 4020 
C 397 3661 154 2925 154 2176 
C 154 1479 365 730 666 372 
C 902 90 1229 -64 1600 -64 
C 1926 -64 2202 45 2432 269 
C 2803 621 3046 1364 3046 2138 
C 3046 3450 2464 4352 1626 4352 
z
M 1606 4186 
C 2144 4186 2432 3463 2432 2125 
C 2432 788 2150 103 1600 103 
C 1050 103 768 788 768 2119 
C 768 3476 1056 4186 1606 4186 
z
" transform="scale(0.015625)"/>
       </defs>
       <use xlink:href="#NimbusRomNo9L-Regu-30" transform="scale(0.996264)"/>
      </g>
     </g>
    </g>
    <g id="xtick_2">
     <g id="line2d_4">
      <path d="M 45.361999 174.388034 
L 45.361999 35.788034 
" clip-path="url(#p68bf1bd83f)" style="fill: none; stroke-dasharray: 1.85,0.8; stroke-dashoffset: 0; stroke: #b0b0b0; stroke-opacity: 0.6; stroke-width: 0.5"/>
     </g>
     <g id="line2d_5">
      <g>
       <use xlink:href="#m40a8f18bcc" x="45.361999" y="174.388034" style="stroke: #000000; stroke-width: 0.5"/>
      </g>
     </g>
     <g id="line2d_6">
      <g>
       <use xlink:href="#m4959b882ff" x="45.361999" y="35.788034" style="stroke: #000000; stroke-width: 0.5"/>
      </g>
     </g>
     <g id="text_2">
      <!-- $\mathdefault{100}$ -->
      <g transform="translate(39.384415 183.29169) scale(0.08 -0.08)">
       <defs>
        <path id="NimbusRomNo9L-Regu-31" d="M 1862 4339 
L 710 3757 
L 710 3667 
C 787 3699 858 3725 883 3738 
C 998 3783 1107 3808 1171 3808 
C 1306 3808 1363 3711 1363 3505 
L 1363 592 
C 1363 379 1312 232 1210 173 
C 1114 116 1024 96 755 96 
L 755 0 
L 2522 0 
L 2522 96 
C 2016 96 1914 160 1914 470 
L 1914 4327 
L 1862 4339 
z
" transform="scale(0.015625)"/>
       </defs>
       <use xlink:href="#NimbusRomNo9L-Regu-31" transform="scale(0.996264)"/>
       <use xlink:href="#NimbusRomNo9L-Regu-30" transform="translate(49.8132 0) scale(0.996264)"/>
       <use xlink:href="#NimbusRomNo9L-Regu-30" transform="translate(99.626401 0) scale(0.996264)"/>
      </g>
     </g>
    </g>
    <g id="xtick_3">
     <g id="line2d_7">
      <path d="M 73.317911 174.388034 
L 73.317911 35.788034 
" clip-path="url(#p68bf1bd83f)" style="fill: none; stroke-dasharray: 1.85,0.8; stroke-dashoffset: 0; stroke: #b0b0b0; stroke-opacity: 0.6; stroke-width: 0.5"/>
     </g>
     <g id="line2d_8">
      <g>
       <use xlink:href="#m40a8f18bcc" x="73.317911" y="174.388034" style="stroke: #000000; stroke-width: 0.5"/>
      </g>
     </g>
     <g id="line2d_9">
      <g>
       <use xlink:href="#m4959b882ff" x="73.317911" y="35.788034" style="stroke: #000000; stroke-width: 0.5"/>
      </g>
     </g>
     <g id="text_3">
      <!-- $\mathdefault{200}$ -->
      <g transform="translate(67.340327 183.29169) scale(0.08 -0.08)">
       <defs>
        <path id="NimbusRomNo9L-Regu-32" d="M 3040 875 
L 2957 907 
C 2720 544 2637 486 2349 486 
L 819 486 
L 1894 1609 
C 2464 2202 2714 2687 2714 3185 
C 2714 3823 2195 4313 1530 4313 
C 1178 4313 845 4173 608 3918 
C 403 3700 307 3496 198 3043 
L 333 3011 
C 589 3636 819 3840 1261 3840 
C 1798 3840 2163 3476 2163 2940 
C 2163 2443 1869 1850 1331 1282 
L 192 77 
L 192 0 
L 2688 0 
L 3040 875 
z
" transform="scale(0.015625)"/>
       </defs>
       <use xlink:href="#NimbusRomNo9L-Regu-32" transform="scale(0.996264)"/>
       <use xlink:href="#NimbusRomNo9L-Regu-30" transform="translate(49.8132 0) scale(0.996264)"/>
       <use xlink:href="#NimbusRomNo9L-Regu-30" transform="translate(99.626401 0) scale(0.996264)"/>
      </g>
     </g>
    </g>
    <g id="xtick_4">
     <g id="line2d_10">
      <path d="M 101.273823 174.388034 
L 101.273823 35.788034 
" clip-path="url(#p68bf1bd83f)" style="fill: none; stroke-dasharray: 1.85,0.8; stroke-dashoffset: 0; stroke: #b0b0b0; stroke-opacity: 0.6; stroke-width: 0.5"/>
     </g>
     <g id="line2d_11">
      <g>
       <use xlink:href="#m40a8f18bcc" x="101.273823" y="174.388034" style="stroke: #000000; stroke-width: 0.5"/>
      </g>
     </g>
     <g id="line2d_12">
      <g>
       <use xlink:href="#m4959b882ff" x="101.273823" y="35.788034" style="stroke: #000000; stroke-width: 0.5"/>
      </g>
     </g>
     <g id="text_4">
      <!-- $\mathdefault{300}$ -->
      <g transform="translate(95.296239 183.29169) scale(0.08 -0.08)">
       <defs>
        <path id="NimbusRomNo9L-Regu-33" d="M 979 2138 
C 1357 2138 1504 2125 1658 2068 
C 2054 1927 2304 1562 2304 1120 
C 2304 583 1939 167 1466 167 
C 1293 167 1165 212 928 365 
C 736 480 627 525 518 525 
C 371 525 275 436 275 301 
C 275 77 550 -64 998 -64 
C 1491 -64 1997 103 2298 365 
C 2598 628 2765 999 2765 1428 
C 2765 1754 2662 2055 2477 2253 
C 2349 2394 2227 2471 1946 2592 
C 2387 2893 2547 3130 2547 3476 
C 2547 3994 2138 4352 1549 4352 
C 1229 4352 947 4244 717 4039 
C 525 3866 429 3699 288 3315 
L 384 3290 
C 646 3757 934 3968 1338 3968 
C 1754 3968 2042 3687 2042 3284 
C 2042 3053 1946 2823 1786 2663 
C 1594 2471 1414 2375 979 2221 
L 979 2138 
z
" transform="scale(0.015625)"/>
       </defs>
       <use xlink:href="#NimbusRomNo9L-Regu-33" transform="scale(0.996264)"/>
       <use xlink:href="#NimbusRomNo9L-Regu-30" transform="translate(49.8132 0) scale(0.996264)"/>
       <use xlink:href="#NimbusRomNo9L-Regu-30" transform="translate(99.626401 0) scale(0.996264)"/>
      </g>
     </g>
    </g>
    <g id="xtick_5">
     <g id="line2d_13">
      <path d="M 129.229735 174.388034 
L 129.229735 35.788034 
" clip-path="url(#p68bf1bd83f)" style="fill: none; stroke-dasharray: 1.85,0.8; stroke-dashoffset: 0; stroke: #b0b0b0; stroke-opacity: 0.6; stroke-width: 0.5"/>
     </g>
     <g id="line2d_14">
      <g>
       <use xlink:href="#m40a8f18bcc" x="129.229735" y="174.388034" style="stroke: #000000; stroke-width: 0.5"/>
      </g>
     </g>
     <g id="line2d_15">
      <g>
       <use xlink:href="#m4959b882ff" x="129.229735" y="35.788034" style="stroke: #000000; stroke-width: 0.5"/>
      </g>
     </g>
     <g id="text_5">
      <!-- $\mathdefault{400}$ -->
      <g transform="translate(123.252151 183.29169) scale(0.08 -0.08)">
       <defs>
        <path id="NimbusRomNo9L-Regu-34" d="M 3021 1497 
L 2368 1497 
L 2368 4352 
L 2086 4352 
L 77 1497 
L 77 1088 
L 1875 1088 
L 1875 32 
L 2368 32 
L 2368 1088 
L 3021 1088 
L 3021 1497 
z
M 1869 1497 
L 333 1497 
L 1869 3698 
L 1869 1497 
z
" transform="scale(0.015625)"/>
       </defs>
       <use xlink:href="#NimbusRomNo9L-Regu-34" transform="scale(0.996264)"/>
       <use xlink:href="#NimbusRomNo9L-Regu-30" transform="translate(49.8132 0) scale(0.996264)"/>
       <use xlink:href="#NimbusRomNo9L-Regu-30" transform="translate(99.626401 0) scale(0.996264)"/>
      </g>
     </g>
    </g>
    <g id="xtick_6">
     <g id="line2d_16">
      <defs>
       <path id="me77b6f0266" d="M 0 0 
L 0 -1.5 
" style="stroke: #000000; stroke-width: 0.5"/>
      </defs>
      <g>
       <use xlink:href="#me77b6f0266" x="22.99727" y="174.388034" style="stroke: #000000; stroke-width: 0.5"/>
      </g>
     </g>
     <g id="line2d_17">
      <defs>
       <path id="m3c30219e6b" d="M 0 0 
L 0 1.5 
" style="stroke: #000000; stroke-width: 0.5"/>
      </defs>
      <g>
       <use xlink:href="#m3c30219e6b" x="22.99727" y="35.788034" style="stroke: #000000; stroke-width: 0.5"/>
      </g>
     </g>
    </g>
    <g id="xtick_7">
     <g id="line2d_18">
      <g>
       <use xlink:href="#me77b6f0266" x="28.588452" y="174.388034" style="stroke: #000000; stroke-width: 0.5"/>
      </g>
     </g>
     <g id="line2d_19">
      <g>
       <use xlink:href="#m3c30219e6b" x="28.588452" y="35.788034" style="stroke: #000000; stroke-width: 0.5"/>
      </g>
     </g>
    </g>
    <g id="xtick_8">
     <g id="line2d_20">
      <g>
       <use xlink:href="#me77b6f0266" x="34.179635" y="174.388034" style="stroke: #000000; stroke-width: 0.5"/>
      </g>
     </g>
     <g id="line2d_21">
      <g>
       <use xlink:href="#m3c30219e6b" x="34.179635" y="35.788034" style="stroke: #000000; stroke-width: 0.5"/>
      </g>
     </g>
    </g>
    <g id="xtick_9">
     <g id="line2d_22">
      <g>
       <use xlink:href="#me77b6f0266" x="39.770817" y="174.388034" style="stroke: #000000; stroke-width: 0.5"/>
      </g>
     </g>
     <g id="line2d_23">
      <g>
       <use xlink:href="#m3c30219e6b" x="39.770817" y="35.788034" style="stroke: #000000; stroke-width: 0.5"/>
      </g>
     </g>
    </g>
    <g id="xtick_10">
     <g id="line2d_24">
      <g>
       <use xlink:href="#me77b6f0266" x="50.953182" y="174.388034" style="stroke: #000000; stroke-width: 0.5"/>
      </g>
     </g>
     <g id="line2d_25">
      <g>
       <use xlink:href="#m3c30219e6b" x="50.953182" y="35.788034" style="stroke: #000000; stroke-width: 0.5"/>
      </g>
     </g>
    </g>
    <g id="xtick_11">
     <g id="line2d_26">
      <g>
       <use xlink:href="#me77b6f0266" x="56.544364" y="174.388034" style="stroke: #000000; stroke-width: 0.5"/>
      </g>
     </g>
     <g id="line2d_27">
      <g>
       <use xlink:href="#m3c30219e6b" x="56.544364" y="35.788034" style="stroke: #000000; stroke-width: 0.5"/>
      </g>
     </g>
    </g>
    <g id="xtick_12">
     <g id="line2d_28">
      <g>
       <use xlink:href="#me77b6f0266" x="62.135547" y="174.388034" style="stroke: #000000; stroke-width: 0.5"/>
      </g>
     </g>
     <g id="line2d_29">
      <g>
       <use xlink:href="#m3c30219e6b" x="62.135547" y="35.788034" style="stroke: #000000; stroke-width: 0.5"/>
      </g>
     </g>
    </g>
    <g id="xtick_13">
     <g id="line2d_30">
      <g>
       <use xlink:href="#me77b6f0266" x="67.726729" y="174.388034" style="stroke: #000000; stroke-width: 0.5"/>
      </g>
     </g>
     <g id="line2d_31">
      <g>
       <use xlink:href="#m3c30219e6b" x="67.726729" y="35.788034" style="stroke: #000000; stroke-width: 0.5"/>
      </g>
     </g>
    </g>
    <g id="xtick_14">
     <g id="line2d_32">
      <g>
       <use xlink:href="#me77b6f0266" x="78.909094" y="174.388034" style="stroke: #000000; stroke-width: 0.5"/>
      </g>
     </g>
     <g id="line2d_33">
      <g>
       <use xlink:href="#m3c30219e6b" x="78.909094" y="35.788034" style="stroke: #000000; stroke-width: 0.5"/>
      </g>
     </g>
    </g>
    <g id="xtick_15">
     <g id="line2d_34">
      <g>
       <use xlink:href="#me77b6f0266" x="84.500276" y="174.388034" style="stroke: #000000; stroke-width: 0.5"/>
      </g>
     </g>
     <g id="line2d_35">
      <g>
       <use xlink:href="#m3c30219e6b" x="84.500276" y="35.788034" style="stroke: #000000; stroke-width: 0.5"/>
      </g>
     </g>
    </g>
    <g id="xtick_16">
     <g id="line2d_36">
      <g>
       <use xlink:href="#me77b6f0266" x="90.091458" y="174.388034" style="stroke: #000000; stroke-width: 0.5"/>
      </g>
     </g>
     <g id="line2d_37">
      <g>
       <use xlink:href="#m3c30219e6b" x="90.091458" y="35.788034" style="stroke: #000000; stroke-width: 0.5"/>
      </g>
     </g>
    </g>
    <g id="xtick_17">
     <g id="line2d_38">
      <g>
       <use xlink:href="#me77b6f0266" x="95.682641" y="174.388034" style="stroke: #000000; stroke-width: 0.5"/>
      </g>
     </g>
     <g id="line2d_39">
      <g>
       <use xlink:href="#m3c30219e6b" x="95.682641" y="35.788034" style="stroke: #000000; stroke-width: 0.5"/>
      </g>
     </g>
    </g>
    <g id="xtick_18">
     <g id="line2d_40">
      <g>
       <use xlink:href="#me77b6f0266" x="106.865005" y="174.388034" style="stroke: #000000; stroke-width: 0.5"/>
      </g>
     </g>
     <g id="line2d_41">
      <g>
       <use xlink:href="#m3c30219e6b" x="106.865005" y="35.788034" style="stroke: #000000; stroke-width: 0.5"/>
      </g>
     </g>
    </g>
    <g id="xtick_19">
     <g id="line2d_42">
      <g>
       <use xlink:href="#me77b6f0266" x="112.456188" y="174.388034" style="stroke: #000000; stroke-width: 0.5"/>
      </g>
     </g>
     <g id="line2d_43">
      <g>
       <use xlink:href="#m3c30219e6b" x="112.456188" y="35.788034" style="stroke: #000000; stroke-width: 0.5"/>
      </g>
     </g>
    </g>
    <g id="xtick_20">
     <g id="line2d_44">
      <g>
       <use xlink:href="#me77b6f0266" x="118.04737" y="174.388034" style="stroke: #000000; stroke-width: 0.5"/>
      </g>
     </g>
     <g id="line2d_45">
      <g>
       <use xlink:href="#m3c30219e6b" x="118.04737" y="35.788034" style="stroke: #000000; stroke-width: 0.5"/>
      </g>
     </g>
    </g>
    <g id="xtick_21">
     <g id="line2d_46">
      <g>
       <use xlink:href="#me77b6f0266" x="123.638553" y="174.388034" style="stroke: #000000; stroke-width: 0.5"/>
      </g>
     </g>
     <g id="line2d_47">
      <g>
       <use xlink:href="#m3c30219e6b" x="123.638553" y="35.788034" style="stroke: #000000; stroke-width: 0.5"/>
      </g>
     </g>
    </g>
    <g id="xtick_22">
     <g id="line2d_48">
      <g>
       <use xlink:href="#me77b6f0266" x="134.820917" y="174.388034" style="stroke: #000000; stroke-width: 0.5"/>
      </g>
     </g>
     <g id="line2d_49">
      <g>
       <use xlink:href="#m3c30219e6b" x="134.820917" y="35.788034" style="stroke: #000000; stroke-width: 0.5"/>
      </g>
     </g>
    </g>
    <g id="xtick_23">
     <g id="line2d_50">
      <g>
       <use xlink:href="#me77b6f0266" x="140.4121" y="174.388034" style="stroke: #000000; stroke-width: 0.5"/>
      </g>
     </g>
     <g id="line2d_51">
      <g>
       <use xlink:href="#m3c30219e6b" x="140.4121" y="35.788034" style="stroke: #000000; stroke-width: 0.5"/>
      </g>
     </g>
    </g>
    <g id="xtick_24">
     <g id="line2d_52">
      <g>
       <use xlink:href="#me77b6f0266" x="146.003282" y="174.388034" style="stroke: #000000; stroke-width: 0.5"/>
      </g>
     </g>
     <g id="line2d_53">
      <g>
       <use xlink:href="#m3c30219e6b" x="146.003282" y="35.788034" style="stroke: #000000; stroke-width: 0.5"/>
      </g>
     </g>
    </g>
    <g id="xtick_25">
     <g id="line2d_54">
      <g>
       <use xlink:href="#me77b6f0266" x="151.594464" y="174.388034" style="stroke: #000000; stroke-width: 0.5"/>
      </g>
     </g>
     <g id="line2d_55">
      <g>
       <use xlink:href="#m3c30219e6b" x="151.594464" y="35.788034" style="stroke: #000000; stroke-width: 0.5"/>
      </g>
     </g>
    </g>
   </g>
   <g id="matplotlib.axis_2">
    <g id="ytick_1">
     <g id="line2d_56">
      <path d="M 17.406088 174.388034 
L 156.906088 174.388034 
" clip-path="url(#p68bf1bd83f)" style="fill: none; stroke-dasharray: 1.85,0.8; stroke-dashoffset: 0; stroke: #b0b0b0; stroke-opacity: 0.6; stroke-width: 0.5"/>
     </g>
     <g id="line2d_57">
      <defs>
       <path id="m049b9b2691" d="M 0 0 
L 3 0 
" style="stroke: #000000; stroke-width: 0.5"/>
      </defs>
      <g>
       <use xlink:href="#m049b9b2691" x="17.406088" y="174.388034" style="stroke: #000000; stroke-width: 0.5"/>
      </g>
     </g>
     <g id="line2d_58">
      <defs>
       <path id="mec3a713491" d="M 0 0 
L -3 0 
" style="stroke: #000000; stroke-width: 0.5"/>
      </defs>
      <g>
       <use xlink:href="#mec3a713491" x="156.906088" y="174.388034" style="stroke: #000000; stroke-width: 0.5"/>
      </g>
     </g>
     <g id="text_6">
      <!-- $\mathdefault{0.0}$ -->
      <g transform="translate(3.728342 177.089862) scale(0.08 -0.08)">
       <defs>
        <path id="CMMI10-3a" d="M 1229 338 
C 1229 522 1075 675 890 675 
C 704 675 550 522 550 338 
C 550 153 704 0 890 0 
C 1075 0 1229 153 1229 338 
z
" transform="scale(0.015625)"/>
       </defs>
       <use xlink:href="#NimbusRomNo9L-Regu-30" transform="scale(0.996264)"/>
       <use xlink:href="#CMMI10-3a" transform="translate(49.8132 0) scale(0.996264)"/>
       <use xlink:href="#NimbusRomNo9L-Regu-30" transform="translate(77.408707 0) scale(0.996264)"/>
      </g>
     </g>
    </g>
    <g id="ytick_2">
     <g id="line2d_59">
      <path d="M 17.406088 146.668034 
L 156.906088 146.668034 
" clip-path="url(#p68bf1bd83f)" style="fill: none; stroke-dasharray: 1.85,0.8; stroke-dashoffset: 0; stroke: #b0b0b0; stroke-opacity: 0.6; stroke-width: 0.5"/>
     </g>
     <g id="line2d_60">
      <g>
       <use xlink:href="#m049b9b2691" x="17.406088" y="146.668034" style="stroke: #000000; stroke-width: 0.5"/>
      </g>
     </g>
     <g id="line2d_61">
      <g>
       <use xlink:href="#mec3a713491" x="156.906088" y="146.668034" style="stroke: #000000; stroke-width: 0.5"/>
      </g>
     </g>
     <g id="text_7">
      <!-- $\mathdefault{0.2}$ -->
      <g transform="translate(3.728342 149.369862) scale(0.08 -0.08)">
       <use xlink:href="#NimbusRomNo9L-Regu-30" transform="scale(0.996264)"/>
       <use xlink:href="#CMMI10-3a" transform="translate(49.8132 0) scale(0.996264)"/>
       <use xlink:href="#NimbusRomNo9L-Regu-32" transform="translate(77.408707 0) scale(0.996264)"/>
      </g>
     </g>
    </g>
    <g id="ytick_3">
     <g id="line2d_62">
      <path d="M 17.406088 118.948034 
L 156.906088 118.948034 
" clip-path="url(#p68bf1bd83f)" style="fill: none; stroke-dasharray: 1.85,0.8; stroke-dashoffset: 0; stroke: #b0b0b0; stroke-opacity: 0.6; stroke-width: 0.5"/>
     </g>
     <g id="line2d_63">
      <g>
       <use xlink:href="#m049b9b2691" x="17.406088" y="118.948034" style="stroke: #000000; stroke-width: 0.5"/>
      </g>
     </g>
     <g id="line2d_64">
      <g>
       <use xlink:href="#mec3a713491" x="156.906088" y="118.948034" style="stroke: #000000; stroke-width: 0.5"/>
      </g>
     </g>
     <g id="text_8">
      <!-- $\mathdefault{0.4}$ -->
      <g transform="translate(3.728342 121.649862) scale(0.08 -0.08)">
       <use xlink:href="#NimbusRomNo9L-Regu-30" transform="scale(0.996264)"/>
       <use xlink:href="#CMMI10-3a" transform="translate(49.8132 0) scale(0.996264)"/>
       <use xlink:href="#NimbusRomNo9L-Regu-34" transform="translate(77.408707 0) scale(0.996264)"/>
      </g>
     </g>
    </g>
    <g id="ytick_4">
     <g id="line2d_65">
      <path d="M 17.406088 91.228034 
L 156.906088 91.228034 
" clip-path="url(#p68bf1bd83f)" style="fill: none; stroke-dasharray: 1.85,0.8; stroke-dashoffset: 0; stroke: #b0b0b0; stroke-opacity: 0.6; stroke-width: 0.5"/>
     </g>
     <g id="line2d_66">
      <g>
       <use xlink:href="#m049b9b2691" x="17.406088" y="91.228034" style="stroke: #000000; stroke-width: 0.5"/>
      </g>
     </g>
     <g id="line2d_67">
      <g>
       <use xlink:href="#mec3a713491" x="156.906088" y="91.228034" style="stroke: #000000; stroke-width: 0.5"/>
      </g>
     </g>
     <g id="text_9">
      <!-- $\mathdefault{0.6}$ -->
      <g transform="translate(3.728342 93.929862) scale(0.08 -0.08)">
       <defs>
        <path id="NimbusRomNo9L-Regu-36" d="M 2854 4391 
C 2125 4327 1754 4205 1286 3879 
C 595 3386 218 2656 218 1802 
C 218 1248 390 688 666 370 
C 909 89 1254 -64 1651 -64 
C 2445 -64 2995 541 2995 1421 
C 2995 2236 2528 2752 1792 2752 
C 1510 2752 1376 2707 973 2464 
C 1146 3431 1862 4122 2867 4288 
L 2854 4391 
z
M 1549 2458 
C 2099 2458 2419 2000 2419 1204 
C 2419 504 2170 116 1722 116 
C 1158 116 813 714 813 1700 
C 813 2025 864 2203 992 2299 
C 1126 2400 1325 2458 1549 2458 
z
" transform="scale(0.015625)"/>
       </defs>
       <use xlink:href="#NimbusRomNo9L-Regu-30" transform="scale(0.996264)"/>
       <use xlink:href="#CMMI10-3a" transform="translate(49.8132 0) scale(0.996264)"/>
       <use xlink:href="#NimbusRomNo9L-Regu-36" transform="translate(77.408707 0) scale(0.996264)"/>
      </g>
     </g>
    </g>
    <g id="ytick_5">
     <g id="line2d_68">
      <path d="M 17.406088 63.508034 
L 156.906088 63.508034 
" clip-path="url(#p68bf1bd83f)" style="fill: none; stroke-dasharray: 1.85,0.8; stroke-dashoffset: 0; stroke: #b0b0b0; stroke-opacity: 0.6; stroke-width: 0.5"/>
     </g>
     <g id="line2d_69">
      <g>
       <use xlink:href="#m049b9b2691" x="17.406088" y="63.508034" style="stroke: #000000; stroke-width: 0.5"/>
      </g>
     </g>
     <g id="line2d_70">
      <g>
       <use xlink:href="#mec3a713491" x="156.906088" y="63.508034" style="stroke: #000000; stroke-width: 0.5"/>
      </g>
     </g>
     <g id="text_10">
      <!-- $\mathdefault{0.8}$ -->
      <g transform="translate(3.728342 66.209862) scale(0.08 -0.08)">
       <defs>
        <path id="NimbusRomNo9L-Regu-38" d="M 1856 2400 
C 2490 2740 2714 3008 2714 3444 
C 2714 3968 2253 4352 1613 4352 
C 915 4352 397 3924 397 3341 
C 397 2925 518 2740 1190 2151 
C 499 1626 358 1428 358 992 
C 358 372 864 -64 1587 -64 
C 2355 -64 2848 359 2848 1018 
C 2848 1511 2630 1824 1856 2400 
z
M 1741 1741 
C 2208 1408 2362 1178 2362 820 
C 2362 404 2074 116 1658 116 
C 1171 116 845 487 845 1044 
C 845 1453 986 1722 1357 2023 
L 1741 1741 
z
M 1670 2516 
C 1101 2887 870 3181 870 3540 
C 870 3911 1158 4173 1562 4173 
C 1997 4173 2272 3892 2272 3450 
C 2272 3085 2093 2797 1728 2554 
C 1696 2535 1696 2535 1670 2516 
z
" transform="scale(0.015625)"/>
       </defs>
       <use xlink:href="#NimbusRomNo9L-Regu-30" transform="scale(0.996264)"/>
       <use xlink:href="#CMMI10-3a" transform="translate(49.8132 0) scale(0.996264)"/>
       <use xlink:href="#NimbusRomNo9L-Regu-38" transform="translate(77.408707 0) scale(0.996264)"/>
      </g>
     </g>
    </g>
    <g id="ytick_6">
     <g id="line2d_71">
      <path d="M 17.406088 35.788034 
L 156.906088 35.788034 
" clip-path="url(#p68bf1bd83f)" style="fill: none; stroke-dasharray: 1.85,0.8; stroke-dashoffset: 0; stroke: #b0b0b0; stroke-opacity: 0.6; stroke-width: 0.5"/>
     </g>
     <g id="line2d_72">
      <g>
       <use xlink:href="#m049b9b2691" x="17.406088" y="35.788034" style="stroke: #000000; stroke-width: 0.5"/>
      </g>
     </g>
     <g id="line2d_73">
      <g>
       <use xlink:href="#mec3a713491" x="156.906088" y="35.788034" style="stroke: #000000; stroke-width: 0.5"/>
      </g>
     </g>
     <g id="text_11">
      <!-- $\mathdefault{1.0}$ -->
      <g transform="translate(3.728342 38.489862) scale(0.08 -0.08)">
       <use xlink:href="#NimbusRomNo9L-Regu-31" transform="scale(0.996264)"/>
       <use xlink:href="#CMMI10-3a" transform="translate(49.8132 0) scale(0.996264)"/>
       <use xlink:href="#NimbusRomNo9L-Regu-30" transform="translate(77.408707 0) scale(0.996264)"/>
      </g>
     </g>
    </g>
    <g id="ytick_7">
     <g id="line2d_74">
      <defs>
       <path id="m40d7c51f79" d="M 0 0 
L 1.5 0 
" style="stroke: #000000; stroke-width: 0.5"/>
      </defs>
      <g>
       <use xlink:href="#m40d7c51f79" x="17.406088" y="167.458034" style="stroke: #000000; stroke-width: 0.5"/>
      </g>
     </g>
     <g id="line2d_75">
      <defs>
       <path id="md2a080dff7" d="M 0 0 
L -1.5 0 
" style="stroke: #000000; stroke-width: 0.5"/>
      </defs>
      <g>
       <use xlink:href="#md2a080dff7" x="156.906088" y="167.458034" style="stroke: #000000; stroke-width: 0.5"/>
      </g>
     </g>
    </g>
    <g id="ytick_8">
     <g id="line2d_76">
      <g>
       <use xlink:href="#m40d7c51f79" x="17.406088" y="160.528034" style="stroke: #000000; stroke-width: 0.5"/>
      </g>
     </g>
     <g id="line2d_77">
      <g>
       <use xlink:href="#md2a080dff7" x="156.906088" y="160.528034" style="stroke: #000000; stroke-width: 0.5"/>
      </g>
     </g>
    </g>
    <g id="ytick_9">
     <g id="line2d_78">
      <g>
       <use xlink:href="#m40d7c51f79" x="17.406088" y="153.598034" style="stroke: #000000; stroke-width: 0.5"/>
      </g>
     </g>
     <g id="line2d_79">
      <g>
       <use xlink:href="#md2a080dff7" x="156.906088" y="153.598034" style="stroke: #000000; stroke-width: 0.5"/>
      </g>
     </g>
    </g>
    <g id="ytick_10">
     <g id="line2d_80">
      <g>
       <use xlink:href="#m40d7c51f79" x="17.406088" y="139.738034" style="stroke: #000000; stroke-width: 0.5"/>
      </g>
     </g>
     <g id="line2d_81">
      <g>
       <use xlink:href="#md2a080dff7" x="156.906088" y="139.738034" style="stroke: #000000; stroke-width: 0.5"/>
      </g>
     </g>
    </g>
    <g id="ytick_11">
     <g id="line2d_82">
      <g>
       <use xlink:href="#m40d7c51f79" x="17.406088" y="132.808034" style="stroke: #000000; stroke-width: 0.5"/>
      </g>
     </g>
     <g id="line2d_83">
      <g>
       <use xlink:href="#md2a080dff7" x="156.906088" y="132.808034" style="stroke: #000000; stroke-width: 0.5"/>
      </g>
     </g>
    </g>
    <g id="ytick_12">
     <g id="line2d_84">
      <g>
       <use xlink:href="#m40d7c51f79" x="17.406088" y="125.878034" style="stroke: #000000; stroke-width: 0.5"/>
      </g>
     </g>
     <g id="line2d_85">
      <g>
       <use xlink:href="#md2a080dff7" x="156.906088" y="125.878034" style="stroke: #000000; stroke-width: 0.5"/>
      </g>
     </g>
    </g>
    <g id="ytick_13">
     <g id="line2d_86">
      <g>
       <use xlink:href="#m40d7c51f79" x="17.406088" y="112.018034" style="stroke: #000000; stroke-width: 0.5"/>
      </g>
     </g>
     <g id="line2d_87">
      <g>
       <use xlink:href="#md2a080dff7" x="156.906088" y="112.018034" style="stroke: #000000; stroke-width: 0.5"/>
      </g>
     </g>
    </g>
    <g id="ytick_14">
     <g id="line2d_88">
      <g>
       <use xlink:href="#m40d7c51f79" x="17.406088" y="105.088034" style="stroke: #000000; stroke-width: 0.5"/>
      </g>
     </g>
     <g id="line2d_89">
      <g>
       <use xlink:href="#md2a080dff7" x="156.906088" y="105.088034" style="stroke: #000000; stroke-width: 0.5"/>
      </g>
     </g>
    </g>
    <g id="ytick_15">
     <g id="line2d_90">
      <g>
       <use xlink:href="#m40d7c51f79" x="17.406088" y="98.158034" style="stroke: #000000; stroke-width: 0.5"/>
      </g>
     </g>
     <g id="line2d_91">
      <g>
       <use xlink:href="#md2a080dff7" x="156.906088" y="98.158034" style="stroke: #000000; stroke-width: 0.5"/>
      </g>
     </g>
    </g>
    <g id="ytick_16">
     <g id="line2d_92">
      <g>
       <use xlink:href="#m40d7c51f79" x="17.406088" y="84.298034" style="stroke: #000000; stroke-width: 0.5"/>
      </g>
     </g>
     <g id="line2d_93">
      <g>
       <use xlink:href="#md2a080dff7" x="156.906088" y="84.298034" style="stroke: #000000; stroke-width: 0.5"/>
      </g>
     </g>
    </g>
    <g id="ytick_17">
     <g id="line2d_94">
      <g>
       <use xlink:href="#m40d7c51f79" x="17.406088" y="77.368034" style="stroke: #000000; stroke-width: 0.5"/>
      </g>
     </g>
     <g id="line2d_95">
      <g>
       <use xlink:href="#md2a080dff7" x="156.906088" y="77.368034" style="stroke: #000000; stroke-width: 0.5"/>
      </g>
     </g>
    </g>
    <g id="ytick_18">
     <g id="line2d_96">
      <g>
       <use xlink:href="#m40d7c51f79" x="17.406088" y="70.438034" style="stroke: #000000; stroke-width: 0.5"/>
      </g>
     </g>
     <g id="line2d_97">
      <g>
       <use xlink:href="#md2a080dff7" x="156.906088" y="70.438034" style="stroke: #000000; stroke-width: 0.5"/>
      </g>
     </g>
    </g>
    <g id="ytick_19">
     <g id="line2d_98">
      <g>
       <use xlink:href="#m40d7c51f79" x="17.406088" y="56.578034" style="stroke: #000000; stroke-width: 0.5"/>
      </g>
     </g>
     <g id="line2d_99">
      <g>
       <use xlink:href="#md2a080dff7" x="156.906088" y="56.578034" style="stroke: #000000; stroke-width: 0.5"/>
      </g>
     </g>
    </g>
    <g id="ytick_20">
     <g id="line2d_100">
      <g>
       <use xlink:href="#m40d7c51f79" x="17.406088" y="49.648034" style="stroke: #000000; stroke-width: 0.5"/>
      </g>
     </g>
     <g id="line2d_101">
      <g>
       <use xlink:href="#md2a080dff7" x="156.906088" y="49.648034" style="stroke: #000000; stroke-width: 0.5"/>
      </g>
     </g>
    </g>
    <g id="ytick_21">
     <g id="line2d_102">
      <g>
       <use xlink:href="#m40d7c51f79" x="17.406088" y="42.718034" style="stroke: #000000; stroke-width: 0.5"/>
      </g>
     </g>
     <g id="line2d_103">
      <g>
       <use xlink:href="#md2a080dff7" x="156.906088" y="42.718034" style="stroke: #000000; stroke-width: 0.5"/>
      </g>
     </g>
    </g>
   </g>
   <g id="line2d_104">
    <path d="M 17.406088 122.828834 
L 17.685647 120.056834 
L 17.965206 123.799034 
L 18.244765 123.660434 
L 18.524324 122.828834 
L 18.803883 120.611234 
L 19.363001 122.413034 
L 19.642561 122.413034 
L 19.92212 117.284834 
L 20.201679 115.344434 
L 20.481238 116.176034 
L 21.040356 120.472634 
L 21.319915 120.334034 
L 21.599474 119.918234 
L 21.879033 120.472634 
L 22.158593 122.551634 
L 22.438152 122.135834 
L 22.717711 123.660434 
L 23.276829 125.185034 
L 23.556388 125.046434 
L 23.835947 126.571034 
L 24.115506 125.323634 
L 24.395066 126.016634 
L 24.674625 126.155234 
L 24.954184 127.264034 
L 25.513302 130.174634 
L 25.792861 129.620234 
L 26.07242 130.729034 
L 26.351979 128.788634 
L 26.631538 128.511434 
L 26.911098 130.313234 
L 27.190657 130.313234 
L 27.749775 131.006234 
L 28.029334 131.144834 
L 28.588452 131.144834 
L 29.147571 131.837834 
L 29.42713 133.362434 
L 29.706689 133.085234 
L 29.986248 133.778234 
L 30.265807 133.362434 
L 30.545366 133.778234 
L 30.824925 132.808034 
L 31.104484 132.530834 
L 31.384043 132.946634 
L 31.663603 132.392234 
L 32.50228 133.085234 
L 32.781839 132.530834 
L 33.061398 133.362434 
L 33.340957 131.699234 
L 33.620516 131.560634 
L 34.179635 127.541234 
L 34.459194 126.432434 
L 35.018312 125.462234 
L 35.297871 125.739434 
L 35.57743 127.402634 
L 36.136549 125.600834 
L 36.416108 126.848234 
L 36.695667 126.709634 
L 36.975226 124.492034 
L 37.254785 126.293834 
L 37.534344 126.432434 
L 37.813903 125.878034 
L 38.093462 125.600834 
L 38.373021 124.076234 
L 38.652581 123.660434 
L 38.93214 124.076234 
L 39.211699 125.323634 
L 39.491258 123.937634 
L 39.770817 123.521834 
L 40.050376 121.858634 
L 40.329935 122.690234 
L 40.609494 122.413034 
L 40.889054 121.720034 
L 41.168613 121.720034 
L 42.00729 115.205834 
L 42.286849 114.235634 
L 43.125526 109.661834 
L 43.405086 105.503834 
L 43.684645 104.533634 
L 43.964204 105.088034 
L 44.243763 104.117834 
L 44.523322 103.979234 
L 44.802881 102.870434 
L 45.08244 104.533634 
L 45.361999 104.395034 
L 45.641559 103.424834 
L 45.921118 104.533634 
L 46.480236 103.009034 
L 46.759795 101.623034 
L 47.039354 101.484434 
L 47.318913 100.791434 
L 47.598472 101.345834 
L 48.43715 107.582834 
L 48.716709 108.968834 
L 49.275827 106.196834 
L 49.555386 107.305634 
L 49.834945 107.582834 
L 50.114504 107.444234 
L 50.394064 111.186434 
L 50.673623 112.018034 
L 50.953182 114.097034 
L 51.232741 114.651434 
L 51.5123 114.790034 
L 51.791859 117.562034 
L 52.350977 118.532234 
L 52.630536 118.255034 
L 52.910096 118.809434 
L 53.469214 119.502434 
L 53.748773 120.056834 
L 54.028332 118.532234 
L 54.307891 119.086634 
L 54.58745 118.948034 
L 54.867009 119.225234 
L 55.426128 123.383234 
L 55.705687 122.135834 
L 56.264805 123.106034 
L 56.544364 122.551634 
L 56.823923 124.214834 
L 57.103482 125.185034 
L 57.383041 124.076234 
L 57.94216 123.383234 
L 58.780837 116.314634 
L 59.060396 116.869034 
L 59.339955 115.898834 
L 59.619514 117.284834 
L 59.899074 117.423434 
L 60.178633 117.977834 
L 60.458192 117.146234 
L 60.737751 117.839234 
L 61.01731 119.641034 
L 61.576428 117.423434 
L 61.855987 117.423434 
L 62.135547 117.977834 
L 62.415106 116.730434 
L 62.694665 116.591834 
L 62.974224 118.948034 
L 63.253783 119.779634 
L 63.533342 119.779634 
L 63.812901 118.948034 
L 64.09246 120.334034 
L 64.372019 119.502434 
L 64.931138 120.749834 
L 65.210697 121.858634 
L 65.490256 121.720034 
L 65.769815 123.521834 
L 66.049374 124.353434 
L 66.328933 124.769234 
L 66.608492 124.214834 
L 66.888052 124.353434 
L 67.167611 124.907834 
L 67.44717 125.046434 
L 67.726729 126.016634 
L 68.285847 121.442834 
L 68.565406 119.225234 
L 68.844965 118.670834 
L 69.124524 118.670834 
L 69.404084 119.363834 
L 69.683643 119.641034 
L 69.963202 118.809434 
L 70.242761 119.502434 
L 70.52232 119.502434 
L 70.801879 119.641034 
L 71.360997 118.393634 
L 71.640557 119.641034 
L 72.479234 118.393634 
L 73.038352 117.146234 
L 73.59747 121.165634 
L 73.877029 120.749834 
L 74.156589 121.442834 
L 74.436148 120.611234 
L 74.715707 121.858634 
L 74.995266 120.334034 
L 75.274825 121.442834 
L 75.554384 121.720034 
L 75.833943 123.521834 
L 76.393062 124.492034 
L 76.672621 126.016634 
L 76.95218 124.907834 
L 77.231739 125.462234 
L 77.511298 125.046434 
L 77.790857 126.016634 
L 78.070416 125.878034 
L 78.349975 126.432434 
L 78.629534 125.600834 
L 79.468212 124.769234 
L 79.747771 126.293834 
L 80.02733 125.600834 
L 80.306889 125.878034 
L 80.586448 125.600834 
L 80.866007 126.016634 
L 81.145567 125.600834 
L 81.425126 124.630634 
L 81.704685 125.600834 
L 81.984244 126.155234 
L 82.543362 123.799034 
L 82.822921 123.937634 
L 83.10248 124.492034 
L 83.382039 124.214834 
L 83.661599 122.690234 
L 83.941158 123.106034 
L 84.220717 123.244634 
L 84.500276 122.828834 
L 84.779835 121.027034 
L 85.059394 121.027034 
L 85.338953 118.255034 
L 85.618512 118.532234 
L 85.898072 117.562034 
L 86.177631 120.195434 
L 86.45719 120.056834 
L 86.736749 120.334034 
L 87.016308 122.135834 
L 87.295867 122.413034 
L 87.575426 122.135834 
L 87.854985 120.472634 
L 88.414104 115.344434 
L 88.973222 111.602234 
L 89.252781 108.691634 
L 89.53234 108.137234 
L 89.811899 107.167034 
L 90.091458 105.642434 
L 90.371017 105.365234 
L 90.650577 104.810834 
L 90.930136 106.196834 
L 91.209695 106.474034 
L 91.489254 108.414434 
L 91.768813 107.721434 
L 92.048372 107.721434 
L 92.327931 107.305634 
L 92.60749 106.474034 
L 92.88705 110.216234 
L 93.166609 111.325034 
L 93.725727 112.433834 
L 94.005286 111.463634 
L 94.284845 115.483034 
L 94.564404 116.730434 
L 94.843963 116.869034 
L 95.682641 119.225234 
L 95.9622 121.858634 
L 96.241759 121.581434 
L 96.521318 122.551634 
L 96.800877 122.413034 
L 97.080436 120.472634 
L 97.359995 120.749834 
L 97.639555 119.086634 
L 97.919114 118.532234 
L 98.198673 117.562034 
L 98.478232 118.116434 
L 98.757791 117.839234 
L 99.03735 117.007634 
L 99.316909 116.730434 
L 99.596468 117.700634 
L 100.435146 116.037434 
L 100.714705 116.591834 
L 100.994264 114.235634 
L 101.273823 113.958434 
L 101.553382 114.928634 
L 101.832941 114.651434 
L 102.1125 113.819834 
L 102.39206 114.512834 
L 102.671619 114.235634 
L 102.951178 114.235634 
L 103.230737 115.760234 
L 103.510296 115.760234 
L 103.789855 116.869034 
L 104.069414 117.284834 
L 104.348973 117.007634 
L 104.628532 117.284834 
L 104.908092 117.007634 
L 105.187651 115.760234 
L 105.46721 115.067234 
L 105.746769 113.958434 
L 106.026328 114.374234 
L 106.305887 114.097034 
L 106.585446 116.037434 
L 106.865005 120.334034 
L 107.424124 122.413034 
L 107.703683 121.581434 
L 107.983242 122.135834 
L 108.262801 121.165634 
L 108.821919 127.264034 
L 109.101478 128.511434 
L 109.381037 128.788634 
L 109.660597 128.650034 
L 109.940156 128.788634 
L 110.219715 129.343034 
L 110.499274 128.927234 
L 110.778833 130.036034 
L 111.337951 134.194034 
L 111.61751 137.520434 
L 111.89707 137.243234 
L 112.176629 137.520434 
L 112.456188 137.243234 
L 112.735747 136.411634 
L 113.015306 135.025634 
L 113.574424 127.818434 
L 113.853983 127.818434 
L 114.413102 121.165634 
L 114.692661 121.442834 
L 115.251779 121.165634 
L 115.531338 119.641034 
L 115.810897 117.423434 
L 116.090456 118.255034 
L 116.649575 115.205834 
L 116.929134 112.433834 
L 117.488252 113.126834 
L 117.767811 112.849634 
L 118.326929 111.740834 
L 118.606488 108.830234 
L 119.445166 109.246034 
L 119.724725 108.275834 
L 120.004284 109.246034 
L 120.283843 108.691634 
L 120.842961 108.137234 
L 121.12252 108.968834 
L 121.40208 108.414434 
L 121.681639 108.968834 
L 121.961198 108.137234 
L 122.240757 108.691634 
L 122.520316 107.998634 
L 122.799875 108.137234 
L 123.079434 107.721434 
L 123.358993 109.107434 
L 123.638553 109.246034 
L 123.918112 107.860034 
L 124.47723 109.246034 
L 124.756789 108.137234 
L 125.315907 108.830234 
L 125.595466 108.691634 
L 126.154585 107.721434 
L 126.434144 107.721434 
L 126.713703 108.414434 
L 126.993262 109.800434 
L 127.272821 109.661834 
L 127.55238 111.463634 
L 127.831939 115.205834 
L 128.111498 114.928634 
L 128.391058 116.176034 
L 128.670617 118.948034 
L 128.950176 118.393634 
L 129.229735 118.809434 
L 129.509294 121.165634 
L 129.788853 121.720034 
L 130.068412 124.076234 
L 130.347971 125.046434 
L 130.62753 125.046434 
L 130.90709 124.492034 
L 131.186649 124.630634 
L 131.466208 124.630634 
L 131.745767 126.848234 
L 132.025326 126.155234 
L 132.304885 127.264034 
L 132.584444 127.125434 
L 132.864003 127.541234 
L 133.143563 127.402634 
L 133.423122 126.986834 
L 133.702681 127.264034 
L 133.98224 126.571034 
L 134.261799 126.571034 
L 134.541358 126.848234 
L 134.820917 127.679834 
L 135.100476 126.709634 
L 135.659595 123.383234 
L 135.939154 124.492034 
L 136.218713 123.937634 
L 136.498272 125.739434 
L 136.777831 125.185034 
L 137.05739 126.709634 
L 137.336949 125.600834 
L 137.616508 125.185034 
L 137.896068 125.739434 
L 138.175627 126.016634 
L 138.455186 125.323634 
L 138.734745 126.016634 
L 139.014304 125.323634 
L 139.293863 123.383234 
L 139.852981 117.423434 
L 140.13254 117.562034 
L 140.971218 115.067234 
L 141.250777 114.790034 
L 141.530336 116.037434 
L 141.809895 116.730434 
L 142.089454 114.097034 
L 142.369013 115.344434 
L 142.648573 115.621634 
L 142.928132 115.621634 
L 143.207691 116.453234 
L 143.48725 116.453234 
L 143.766809 115.483034 
L 144.046368 116.730434 
L 144.325927 117.284834 
L 144.605486 117.562034 
L 144.885045 117.007634 
L 145.164605 116.730434 
L 145.444164 117.839234 
L 145.723723 116.869034 
L 146.282841 117.977834 
L 146.5624 118.255034 
L 146.841959 117.284834 
L 147.121518 118.670834 
L 147.401078 117.839234 
L 147.680637 117.839234 
L 147.960196 118.809434 
L 148.519314 113.819834 
L 148.798873 114.097034 
L 149.078432 115.067234 
L 149.357991 115.621634 
L 149.637551 116.591834 
L 150.196669 115.344434 
L 150.755787 119.641034 
L 151.035346 119.918234 
L 151.314905 120.749834 
L 151.594464 120.472634 
L 151.874023 122.967434 
L 152.153583 122.828834 
L 152.433142 122.274434 
L 152.712701 123.383234 
L 153.271819 122.967434 
L 153.551378 123.799034 
L 153.830937 123.521834 
L 154.110496 125.323634 
L 154.390056 125.878034 
L 154.949174 126.571034 
L 155.228733 126.986834 
L 155.508292 130.174634 
L 155.787851 131.006234 
L 156.06741 130.590434 
L 156.346969 131.422034 
L 156.626528 130.729034 
L 156.906088 130.451834 
L 156.906088 130.451834 
" clip-path="url(#p68bf1bd83f)" style="fill: none; stroke: #dedeee; stroke-linecap: square"/>
   </g>
   <g id="line2d_105">
    <path d="M 17.406088 174.388034 
L 156.906088 174.388034 
L 156.906088 174.388034 
" clip-path="url(#p68bf1bd83f)" style="fill: none; stroke-dasharray: 3.7,1.6; stroke-dashoffset: 0; stroke: #9b9aca"/>
   </g>
   <g id="line2d_106">
    <path d="M 17.406088 118.948034 
L 17.685647 119.225234 
L 17.965206 114.512834 
L 18.524324 113.681234 
L 18.803883 114.928634 
L 19.083442 114.235634 
L 19.363001 112.572434 
L 19.642561 113.819834 
L 20.201679 119.502434 
L 20.481238 117.146234 
L 20.760797 116.453234 
L 21.040356 114.235634 
L 21.319915 114.235634 
L 21.599474 114.790034 
L 22.99727 109.523234 
L 23.276829 109.246034 
L 23.556388 107.721434 
L 23.835947 107.998634 
L 24.115506 107.998634 
L 24.395066 107.721434 
L 24.674625 106.474034 
L 24.954184 106.751234 
L 25.233743 104.117834 
L 25.513302 103.979234 
L 25.792861 104.672234 
L 26.07242 102.870434 
L 26.351979 103.979234 
L 26.631538 104.256434 
L 27.470216 101.900234 
L 27.749775 102.593234 
L 28.029334 102.316034 
L 28.308893 102.316034 
L 28.588452 102.177434 
L 28.868011 102.177434 
L 29.147571 101.484434 
L 29.42713 101.345834 
L 29.986248 99.128234 
L 30.265807 99.959834 
L 30.545366 99.821234 
L 30.824925 100.930034 
L 31.104484 100.930034 
L 31.384043 99.959834 
L 31.663603 99.959834 
L 31.943162 101.207234 
L 32.222721 100.514234 
L 32.781839 101.068634 
L 33.061398 100.237034 
L 33.340957 101.623034 
L 33.620516 102.316034 
L 33.900076 104.949434 
L 34.459194 107.860034 
L 34.738753 107.860034 
L 35.018312 107.721434 
L 35.297871 108.414434 
L 35.57743 106.889834 
L 35.856989 107.028434 
L 36.136549 108.553034 
L 36.416108 107.028434 
L 36.695667 107.444234 
L 36.975226 108.137234 
L 37.254785 108.137234 
L 37.534344 107.167034 
L 37.813903 108.137234 
L 38.093462 107.998634 
L 38.373021 110.077634 
L 38.652581 109.939034 
L 39.211699 108.968834 
L 39.770817 109.800434 
L 40.050376 111.463634 
L 40.329935 111.325034 
L 40.609494 111.602234 
L 41.727731 116.314634 
L 42.566408 120.888434 
L 42.845967 123.799034 
L 43.125526 124.630634 
L 43.405086 128.234234 
L 44.243763 130.451834 
L 44.523322 130.590434 
L 44.802881 130.313234 
L 45.08244 130.590434 
L 45.361999 129.620234 
L 45.641559 130.313234 
L 45.921118 130.590434 
L 46.200677 130.036034 
L 46.480236 131.144834 
L 46.759795 131.422034 
L 47.039354 132.669434 
L 47.318913 133.362434 
L 47.878031 130.174634 
L 48.157591 127.402634 
L 48.43715 126.571034 
L 48.716709 124.769234 
L 49.275827 127.402634 
L 49.555386 125.739434 
L 49.834945 125.185034 
L 50.114504 124.907834 
L 50.394064 122.690234 
L 50.673623 121.442834 
L 50.953182 119.225234 
L 51.232741 118.670834 
L 51.5123 118.948034 
L 51.791859 116.176034 
L 52.071418 115.344434 
L 52.350977 115.621634 
L 52.630536 114.374234 
L 52.910096 113.819834 
L 53.189655 113.681234 
L 53.469214 114.374234 
L 53.748773 113.542634 
L 54.028332 114.651434 
L 54.307891 114.374234 
L 54.58745 113.819834 
L 54.867009 114.790034 
L 55.426128 110.770634 
L 55.705687 112.018034 
L 55.985246 111.186434 
L 56.264805 111.325034 
L 56.823923 109.246034 
L 57.103482 108.830234 
L 57.383041 109.107434 
L 58.221719 112.156634 
L 58.501278 114.790034 
L 58.780837 116.314634 
L 59.060396 116.314634 
L 59.339955 116.591834 
L 59.899074 116.314634 
L 60.178633 115.760234 
L 60.458192 115.483034 
L 60.737751 115.898834 
L 61.01731 115.483034 
L 61.296869 114.651434 
L 61.576428 115.760234 
L 61.855987 116.176034 
L 62.135547 116.037434 
L 62.415106 116.869034 
L 62.694665 116.869034 
L 63.253783 114.374234 
L 63.533342 115.621634 
L 64.09246 113.265434 
L 64.372019 112.988234 
L 64.651579 113.819834 
L 64.931138 113.126834 
L 65.210697 111.186434 
L 65.490256 111.879434 
L 66.328933 107.998634 
L 66.608492 108.691634 
L 67.167611 108.691634 
L 67.44717 106.889834 
L 67.726729 107.998634 
L 68.565406 113.958434 
L 68.844965 115.205834 
L 69.124524 115.205834 
L 69.404084 113.958434 
L 69.683643 114.097034 
L 69.963202 114.512834 
L 70.242761 115.344434 
L 70.52232 114.235634 
L 71.081438 115.205834 
L 71.360997 115.067234 
L 71.640557 114.790034 
L 72.199675 115.483034 
L 72.479234 115.760234 
L 72.758793 114.790034 
L 73.038352 115.344434 
L 73.317911 114.374234 
L 73.59747 111.602234 
L 73.877029 113.265434 
L 74.715707 112.572434 
L 74.995266 112.572434 
L 75.554384 111.740834 
L 75.833943 110.216234 
L 76.113502 109.661834 
L 76.95218 107.444234 
L 77.231739 107.721434 
L 77.511298 108.691634 
L 77.790857 108.275834 
L 78.070416 108.275834 
L 78.349975 107.028434 
L 78.629534 108.137234 
L 78.909094 107.721434 
L 79.188653 108.553034 
L 79.468212 108.691634 
L 79.747771 107.167034 
L 80.02733 108.691634 
L 80.306889 107.721434 
L 80.586448 107.721434 
L 80.866007 106.889834 
L 81.145567 107.582834 
L 81.425126 108.691634 
L 81.704685 107.860034 
L 81.984244 108.137234 
L 82.263803 107.860034 
L 82.543362 110.077634 
L 82.822921 109.107434 
L 83.10248 110.354834 
L 83.382039 110.216234 
L 83.661599 110.493434 
L 83.941158 110.077634 
L 84.500276 110.493434 
L 84.779835 112.295234 
L 85.059394 112.988234 
L 85.338953 114.651434 
L 85.898072 115.621634 
L 86.45719 112.988234 
L 86.736749 113.265434 
L 87.295867 111.047834 
L 87.575426 111.186434 
L 87.854985 112.849634 
L 88.414104 118.116434 
L 89.53234 125.878034 
L 89.811899 126.709634 
L 90.091458 127.957034 
L 90.371017 128.234234 
L 90.650577 129.065834 
L 90.930136 127.402634 
L 91.209695 127.541234 
L 91.489254 126.016634 
L 91.768813 126.432434 
L 92.048372 125.600834 
L 92.327931 126.709634 
L 92.60749 125.739434 
L 93.446168 121.442834 
L 94.005286 121.858634 
L 94.284845 117.562034 
L 95.123522 115.483034 
L 95.403082 114.235634 
L 95.682641 113.819834 
L 95.9622 111.740834 
L 96.241759 112.018034 
L 96.521318 110.770634 
L 97.080436 112.849634 
L 97.639555 114.790034 
L 97.919114 114.928634 
L 98.198673 115.760234 
L 98.478232 115.205834 
L 98.757791 115.344434 
L 99.03735 116.730434 
L 99.316909 116.176034 
L 99.596468 116.176034 
L 100.155587 117.146234 
L 100.435146 116.730434 
L 100.714705 117.007634 
L 100.994264 119.918234 
L 101.553382 119.502434 
L 101.832941 119.363834 
L 102.1125 120.056834 
L 102.39206 120.195434 
L 102.671619 118.809434 
L 102.951178 119.779634 
L 103.230737 117.423434 
L 103.510296 117.977834 
L 103.789855 116.037434 
L 104.348973 116.869034 
L 104.628532 116.453234 
L 104.908092 115.760234 
L 105.46721 118.116434 
L 105.746769 119.086634 
L 106.026328 119.363834 
L 106.305887 118.809434 
L 106.865005 113.126834 
L 107.424124 111.047834 
L 107.703683 111.602234 
L 107.983242 111.740834 
L 108.262801 111.602234 
L 108.821919 106.889834 
L 109.101478 104.810834 
L 109.381037 104.672234 
L 109.660597 104.395034 
L 109.940156 103.424834 
L 110.219715 103.840634 
L 110.778833 103.147634 
L 111.61751 95.247434 
L 111.89707 95.663234 
L 112.176629 95.801834 
L 113.015306 97.742234 
L 113.574424 105.088034 
L 113.853983 105.503834 
L 114.133542 108.275834 
L 114.413102 112.572434 
L 114.692661 112.433834 
L 114.97222 112.711034 
L 115.251779 113.958434 
L 115.531338 113.819834 
L 115.810897 115.898834 
L 116.090456 115.898834 
L 116.370015 116.591834 
L 116.929134 120.334034 
L 117.208693 121.442834 
L 117.488252 121.027034 
L 117.767811 121.027034 
L 118.04737 121.858634 
L 118.326929 121.997234 
L 118.886048 125.600834 
L 119.165607 125.185034 
L 119.445166 123.799034 
L 119.724725 125.600834 
L 120.004284 124.492034 
L 120.283843 124.214834 
L 120.563402 124.907834 
L 120.842961 124.907834 
L 121.12252 126.016634 
L 121.961198 124.907834 
L 122.240757 124.769234 
L 122.799875 125.046434 
L 123.079434 125.739434 
L 123.358993 124.907834 
L 123.638553 125.739434 
L 123.918112 125.600834 
L 124.197671 124.907834 
L 124.47723 125.600834 
L 124.756789 125.600834 
L 125.036348 125.046434 
L 125.315907 125.185034 
L 125.595466 125.185034 
L 125.875025 124.630634 
L 126.154585 125.185034 
L 126.434144 124.076234 
L 126.713703 125.185034 
L 126.993262 123.106034 
L 127.272821 123.660434 
L 127.55238 121.720034 
L 127.831939 118.532234 
L 128.391058 116.869034 
L 128.670617 114.928634 
L 128.950176 113.819834 
L 129.229735 113.819834 
L 129.509294 113.265434 
L 129.788853 111.879434 
L 130.068412 109.246034 
L 130.62753 108.275834 
L 130.90709 108.968834 
L 131.186649 108.830234 
L 131.466208 108.553034 
L 131.745767 107.582834 
L 132.584444 106.335434 
L 132.864003 105.088034 
L 133.423122 106.474034 
L 133.702681 107.028434 
L 133.98224 106.335434 
L 134.261799 106.335434 
L 134.541358 107.028434 
L 134.820917 105.919634 
L 135.380035 108.137234 
L 135.659595 110.077634 
L 135.939154 109.800434 
L 136.498272 107.305634 
L 136.777831 108.830234 
L 137.05739 107.721434 
L 137.336949 107.305634 
L 137.616508 107.721434 
L 137.896068 107.721434 
L 138.175627 106.474034 
L 138.455186 107.998634 
L 138.734745 107.998634 
L 139.014304 107.444234 
L 139.293863 109.384634 
L 139.573422 113.404034 
L 139.852981 115.621634 
L 140.13254 115.483034 
L 140.4121 117.562034 
L 140.691659 117.146234 
L 141.250777 119.363834 
L 141.530336 117.284834 
L 141.809895 117.839234 
L 142.089454 119.363834 
L 142.648573 118.809434 
L 142.928132 119.225234 
L 143.207691 117.562034 
L 143.48725 116.730434 
L 143.766809 118.116434 
L 144.325927 116.453234 
L 144.605486 115.483034 
L 144.885045 117.007634 
L 145.164605 116.591834 
L 145.444164 117.146234 
L 145.723723 116.453234 
L 146.003282 116.869034 
L 146.841959 115.483034 
L 147.401078 116.869034 
L 147.960196 116.176034 
L 148.239755 117.423434 
L 148.519314 119.225234 
L 148.798873 119.641034 
L 149.078432 119.641034 
L 149.637551 117.423434 
L 149.91711 117.839234 
L 150.196669 118.809434 
L 150.476228 115.898834 
L 151.035346 112.849634 
L 151.314905 112.572434 
L 151.594464 112.988234 
L 151.874023 110.216234 
L 152.153583 110.493434 
L 152.433142 110.493434 
L 152.712701 109.800434 
L 152.99226 109.661834 
L 153.271819 110.770634 
L 153.551378 109.939034 
L 153.830937 110.632034 
L 154.110496 108.137234 
L 154.390056 106.751234 
L 154.669615 106.889834 
L 155.228733 105.226634 
L 155.508292 103.147634 
L 155.787851 103.009034 
L 156.06741 102.593234 
L 156.346969 101.761634 
L 156.626528 102.731834 
L 156.906088 102.731834 
L 156.906088 102.731834 
" clip-path="url(#p68bf1bd83f)" style="fill: none; stroke-dasharray: 1,1.65; stroke-dashoffset: 0; stroke: #7976b8"/>
   </g>
   <g id="line2d_107">
    <path d="M 17.406088 142.787234 
L 17.685647 145.282034 
L 17.965206 146.252234 
L 18.244765 146.806634 
L 18.803883 149.024234 
L 19.083442 148.747034 
L 19.363001 149.578634 
L 19.642561 148.331234 
L 19.92212 150.271634 
L 20.201679 149.717234 
L 20.481238 151.241834 
L 20.760797 149.440034 
L 21.040356 149.855834 
L 21.319915 149.994434 
L 21.599474 149.855834 
L 21.879033 150.410234 
L 22.158593 149.717234 
L 22.438152 151.380434 
L 22.717711 150.133034 
L 22.99727 150.687434 
L 23.276829 150.133034 
L 23.556388 151.796234 
L 23.835947 149.994434 
L 24.115506 151.241834 
L 24.395066 150.826034 
L 24.674625 151.934834 
L 24.954184 150.548834 
L 25.233743 151.380434 
L 25.513302 150.410234 
L 25.792861 150.271634 
L 26.351979 151.796234 
L 26.631538 151.796234 
L 26.911098 150.687434 
L 27.190657 151.519034 
L 27.470216 151.934834 
L 27.749775 150.964634 
L 28.029334 151.103234 
L 28.308893 151.103234 
L 28.588452 151.241834 
L 28.868011 150.964634 
L 29.147571 151.241834 
L 29.42713 149.855834 
L 29.706689 151.241834 
L 29.986248 151.657634 
L 30.545366 150.964634 
L 30.824925 150.826034 
L 31.104484 151.103234 
L 31.663603 152.212034 
L 31.943162 150.687434 
L 32.222721 150.964634 
L 32.50228 150.687434 
L 32.781839 150.964634 
L 33.061398 150.964634 
L 33.340957 151.241834 
L 33.620516 150.687434 
L 33.900076 150.548834 
L 34.179635 150.687434 
L 34.459194 150.271634 
L 34.738753 150.687434 
L 35.018312 151.380434 
L 35.297871 150.410234 
L 35.57743 150.271634 
L 35.856989 151.241834 
L 36.136549 150.410234 
L 36.416108 150.687434 
L 36.695667 150.410234 
L 36.975226 151.934834 
L 37.254785 150.133034 
L 37.534344 150.964634 
L 37.813903 150.548834 
L 38.093462 150.964634 
L 38.373021 150.410234 
L 38.652581 150.964634 
L 38.93214 150.964634 
L 39.211699 150.271634 
L 39.491258 151.241834 
L 40.050376 151.241834 
L 40.329935 150.548834 
L 40.609494 150.548834 
L 40.889054 150.133034 
L 41.168613 149.440034 
L 41.448172 150.271634 
L 41.727731 150.548834 
L 42.00729 151.380434 
L 42.286849 151.103234 
L 42.566408 151.103234 
L 42.845967 150.410234 
L 43.125526 150.271634 
L 43.405086 150.826034 
L 43.684645 150.964634 
L 43.964204 149.717234 
L 44.243763 149.994434 
L 44.523322 149.994434 
L 44.802881 151.380434 
L 45.08244 149.440034 
L 45.361999 150.548834 
L 45.641559 150.826034 
L 45.921118 149.440034 
L 46.200677 150.687434 
L 46.480236 150.410234 
L 46.759795 151.519034 
L 47.039354 150.410234 
L 47.318913 150.410234 
L 47.598472 151.380434 
L 47.878031 150.826034 
L 48.157591 151.796234 
L 48.43715 150.410234 
L 48.996268 151.241834 
L 49.275827 150.964634 
L 49.555386 151.519034 
L 50.114504 152.212034 
L 50.394064 150.687434 
L 50.673623 151.103234 
L 50.953182 151.241834 
L 51.232741 151.241834 
L 51.5123 150.826034 
L 51.791859 150.826034 
L 52.071418 151.103234 
L 52.350977 150.410234 
L 52.630536 151.934834 
L 52.910096 151.934834 
L 53.189655 151.796234 
L 53.469214 150.687434 
L 54.028332 151.380434 
L 54.307891 151.103234 
L 54.58745 151.796234 
L 54.867009 150.548834 
L 55.146569 150.271634 
L 55.426128 150.410234 
L 55.705687 150.410234 
L 55.985246 150.687434 
L 56.264805 150.133034 
L 56.544364 151.934834 
L 57.103482 150.548834 
L 57.383041 151.380434 
L 57.662601 150.826034 
L 57.94216 149.994434 
L 58.221719 151.380434 
L 58.780837 151.934834 
L 59.060396 151.380434 
L 59.339955 152.073434 
L 59.619514 150.826034 
L 60.178633 150.826034 
L 60.458192 151.934834 
L 61.01731 149.440034 
L 61.296869 151.519034 
L 61.576428 151.380434 
L 62.135547 150.548834 
L 62.415106 150.964634 
L 62.694665 151.103234 
L 62.974224 150.133034 
L 63.253783 150.410234 
L 63.533342 149.162834 
L 63.812901 151.241834 
L 64.09246 150.964634 
L 64.372019 152.073434 
L 64.651579 150.687434 
L 64.931138 150.687434 
L 65.210697 151.519034 
L 65.769815 150.548834 
L 66.049374 151.380434 
L 66.328933 151.796234 
L 66.888052 151.519034 
L 67.167611 150.964634 
L 67.44717 152.627834 
L 67.726729 150.548834 
L 68.285847 151.519034 
L 68.565406 151.380434 
L 68.844965 150.687434 
L 69.124524 150.687434 
L 69.404084 151.241834 
L 69.683643 150.826034 
L 69.963202 151.241834 
L 70.242761 149.717234 
L 70.52232 150.826034 
L 70.801879 150.133034 
L 71.081438 150.410234 
L 71.360997 151.103234 
L 71.640557 150.133034 
L 71.920116 150.133034 
L 72.199675 150.410234 
L 72.479234 150.410234 
L 72.758793 152.073434 
L 73.038352 152.073434 
L 73.317911 150.826034 
L 73.59747 151.796234 
L 73.877029 150.548834 
L 74.156589 150.133034 
L 74.436148 151.380434 
L 74.715707 150.133034 
L 74.995266 151.657634 
L 75.274825 150.964634 
L 75.554384 151.103234 
L 75.833943 150.826034 
L 76.113502 150.964634 
L 76.393062 151.241834 
L 76.672621 150.548834 
L 76.95218 152.212034 
L 77.511298 150.826034 
L 77.790857 150.271634 
L 78.070416 150.410234 
L 78.349975 151.103234 
L 78.629534 150.826034 
L 78.909094 151.519034 
L 79.188653 150.826034 
L 79.468212 151.103234 
L 79.747771 151.103234 
L 80.02733 150.271634 
L 80.306889 150.964634 
L 80.866007 151.657634 
L 81.425126 151.241834 
L 81.704685 151.103234 
L 81.984244 150.271634 
L 82.263803 151.796234 
L 82.543362 150.687434 
L 82.822921 151.519034 
L 83.10248 149.717234 
L 83.382039 150.133034 
L 83.661599 151.380434 
L 83.941158 151.380434 
L 84.220717 150.964634 
L 84.500276 151.241834 
L 84.779835 151.241834 
L 85.059394 150.548834 
L 85.338953 151.657634 
L 85.618512 150.826034 
L 85.898072 151.380434 
L 86.177631 150.271634 
L 86.45719 151.519034 
L 86.736749 150.964634 
L 87.016308 150.133034 
L 87.295867 151.103234 
L 87.575426 151.241834 
L 87.854985 151.241834 
L 88.134544 151.380434 
L 88.693663 150.687434 
L 89.252781 151.241834 
L 89.53234 150.548834 
L 89.811899 150.687434 
L 90.091458 150.964634 
L 90.371017 150.964634 
L 90.650577 150.687434 
L 90.930136 150.964634 
L 91.489254 150.133034 
L 91.768813 150.410234 
L 92.048372 151.241834 
L 92.327931 150.548834 
L 92.60749 152.350634 
L 92.88705 150.133034 
L 93.446168 151.241834 
L 93.725727 150.410234 
L 94.005286 151.241834 
L 94.284845 151.519034 
L 94.564404 150.964634 
L 94.843963 151.796234 
L 95.123522 151.519034 
L 95.403082 151.934834 
L 95.9622 150.964634 
L 96.241759 150.964634 
L 96.521318 151.241834 
L 96.800877 150.133034 
L 97.080436 151.241834 
L 97.359995 150.133034 
L 97.919114 151.103234 
L 98.198673 151.241834 
L 98.478232 151.241834 
L 98.757791 151.380434 
L 99.03735 150.826034 
L 99.316909 151.657634 
L 99.596468 150.687434 
L 100.155587 150.964634 
L 100.435146 151.796234 
L 100.994264 150.410234 
L 101.273823 150.964634 
L 101.553382 150.133034 
L 101.832941 150.548834 
L 102.1125 150.687434 
L 102.39206 149.855834 
L 102.671619 151.519034 
L 102.951178 150.548834 
L 103.230737 151.380434 
L 103.510296 150.826034 
L 103.789855 151.657634 
L 104.069414 150.826034 
L 104.348973 150.687434 
L 104.628532 150.826034 
L 104.908092 151.796234 
L 105.187651 151.657634 
L 105.46721 151.380434 
L 105.746769 151.519034 
L 106.026328 150.826034 
L 106.585446 152.627834 
L 106.865005 151.103234 
L 107.424124 151.103234 
L 107.703683 151.380434 
L 107.983242 150.687434 
L 108.262801 151.796234 
L 108.821919 150.410234 
L 109.101478 151.241834 
L 109.381037 151.103234 
L 109.660597 151.519034 
L 109.940156 152.350634 
L 110.219715 151.380434 
L 110.499274 152.073434 
L 110.778833 151.380434 
L 111.058392 151.657634 
L 111.337951 151.657634 
L 111.61751 151.796234 
L 111.89707 151.657634 
L 112.456188 150.826034 
L 113.015306 151.796234 
L 113.294865 150.964634 
L 113.574424 151.657634 
L 113.853983 151.241834 
L 114.133542 151.934834 
L 114.413102 150.826034 
L 114.97222 150.548834 
L 115.251779 149.440034 
L 115.531338 151.103234 
L 115.810897 151.241834 
L 116.090456 150.410234 
L 116.370015 151.380434 
L 116.649575 150.548834 
L 116.929134 151.796234 
L 117.208693 150.271634 
L 117.488252 150.410234 
L 117.767811 150.687434 
L 118.04737 150.410234 
L 118.326929 150.826034 
L 118.606488 151.519034 
L 118.886048 149.994434 
L 119.165607 150.271634 
L 119.445166 151.519034 
L 119.724725 150.687434 
L 120.004284 150.826034 
L 120.283843 151.657634 
L 120.563402 151.241834 
L 120.842961 151.519034 
L 121.12252 149.578634 
L 121.40208 150.548834 
L 121.681639 150.548834 
L 121.961198 151.519034 
L 122.240757 151.103234 
L 122.520316 151.657634 
L 123.079434 151.103234 
L 123.358993 150.548834 
L 123.638553 149.578634 
L 123.918112 151.103234 
L 124.197671 151.103234 
L 124.47723 149.717234 
L 124.756789 150.826034 
L 125.036348 150.964634 
L 125.315907 150.548834 
L 125.595466 150.687434 
L 125.875025 151.657634 
L 126.154585 151.657634 
L 126.434144 152.766434 
L 126.713703 150.964634 
L 126.993262 151.657634 
L 127.272821 151.241834 
L 127.55238 151.380434 
L 127.831939 150.826034 
L 128.111498 151.934834 
L 128.391058 151.519034 
L 128.670617 150.687434 
L 128.950176 152.350634 
L 129.229735 151.934834 
L 129.509294 150.133034 
L 129.788853 150.964634 
L 130.068412 151.241834 
L 130.347971 150.826034 
L 130.62753 151.241834 
L 130.90709 151.103234 
L 131.186649 151.103234 
L 131.466208 151.380434 
L 131.745767 150.133034 
L 132.025326 151.241834 
L 132.304885 150.410234 
L 132.864003 151.934834 
L 133.143563 151.241834 
L 133.423122 151.103234 
L 133.702681 150.271634 
L 133.98224 151.657634 
L 134.261799 151.657634 
L 134.541358 150.687434 
L 134.820917 150.964634 
L 135.100476 150.826034 
L 135.380035 151.241834 
L 135.659595 151.103234 
L 135.939154 150.271634 
L 136.218713 151.934834 
L 136.498272 151.519034 
L 136.777831 150.548834 
L 137.05739 150.133034 
L 137.336949 151.657634 
L 137.616508 151.657634 
L 137.896068 151.103234 
L 138.175627 152.073434 
L 138.734745 150.548834 
L 139.014304 151.796234 
L 139.293863 151.796234 
L 139.573422 150.964634 
L 139.852981 151.519034 
L 140.13254 151.519034 
L 140.4121 150.271634 
L 140.691659 151.519034 
L 140.971218 151.241834 
L 141.250777 150.410234 
L 141.530336 151.241834 
L 141.809895 149.994434 
L 142.089454 151.103234 
L 142.369013 150.133034 
L 142.648573 150.133034 
L 142.928132 149.717234 
L 143.48725 151.380434 
L 144.046368 150.410234 
L 144.325927 150.826034 
L 144.605486 151.519034 
L 144.885045 150.548834 
L 145.164605 151.241834 
L 145.444164 149.578634 
L 145.723723 151.241834 
L 146.003282 150.133034 
L 146.282841 150.133034 
L 146.5624 150.271634 
L 146.841959 151.796234 
L 147.121518 149.717234 
L 147.401078 149.855834 
L 147.680637 150.271634 
L 147.960196 149.578634 
L 148.239755 151.380434 
L 148.519314 151.519034 
L 149.078432 149.855834 
L 149.357991 150.548834 
L 149.637551 150.548834 
L 149.91711 150.687434 
L 150.196669 150.410234 
L 150.476228 150.964634 
L 150.755787 150.687434 
L 151.035346 151.796234 
L 151.314905 151.241834 
L 151.594464 151.103234 
L 151.874023 151.380434 
L 152.153583 151.241834 
L 152.433142 151.796234 
L 152.712701 151.380434 
L 152.99226 151.796234 
L 153.271819 150.826034 
L 153.551378 150.826034 
L 153.830937 150.410234 
L 154.390056 151.934834 
L 154.669615 151.519034 
L 154.949174 151.796234 
L 155.228733 152.350634 
L 155.787851 150.548834 
L 156.06741 151.380434 
L 156.346969 151.380434 
L 156.626528 151.103234 
L 156.906088 151.380434 
L 156.906088 151.380434 
" clip-path="url(#p68bf1bd83f)" style="fill: none; stroke-dasharray: 6.4,1.6,1,1.6; stroke-dashoffset: 0; stroke: #201f3d"/>
   </g>
   <g id="patch_3">
    <path d="M 17.406088 174.388034 
L 17.406088 35.788034 
" style="fill: none; stroke: #000000; stroke-width: 0.5; stroke-linejoin: miter; stroke-linecap: square"/>
   </g>
   <g id="patch_4">
    <path d="M 156.906088 174.388034 
L 156.906088 35.788034 
" style="fill: none; stroke: #000000; stroke-width: 0.5; stroke-linejoin: miter; stroke-linecap: square"/>
   </g>
   <g id="patch_5">
    <path d="M 17.406088 174.388034 
L 156.906088 174.388034 
" style="fill: none; stroke: #000000; stroke-width: 0.5; stroke-linejoin: miter; stroke-linecap: square"/>
   </g>
   <g id="patch_6">
    <path d="M 17.406088 35.788034 
L 156.906088 35.788034 
" style="fill: none; stroke: #000000; stroke-width: 0.5; stroke-linejoin: miter; stroke-linecap: square"/>
   </g>
   <g id="text_12">
    <!-- Evolucin de Mxico -->
    <g transform="translate(46.078417 10.084396) scale(0.096 -0.096)">
     <defs>
      <path id="NimbusRomNo9L-Regu-45" d="M 3821 1078 
L 3642 1078 
C 3322 389 3046 237 2131 237 
L 1958 237 
C 1645 237 1376 269 1331 315 
C 1299 334 1286 404 1286 514 
L 1286 2106 
L 2272 2106 
C 2797 2106 2893 2020 2976 1472 
L 3123 1472 
L 3123 2957 
L 2976 2957 
C 2931 2703 2906 2610 2835 2523 
C 2752 2417 2573 2368 2272 2368 
L 1286 2368 
L 1286 3766 
C 1286 3943 1325 3981 1498 3981 
L 2362 3981 
C 3085 3981 3226 3886 3334 3314 
L 3494 3314 
L 3475 4224 
L 77 4224 
L 77 4102 
C 550 4064 634 3974 634 3525 
L 634 679 
C 634 230 544 134 77 134 
L 77 0 
L 3533 0 
L 3821 1078 
z
" transform="scale(0.015625)"/>
      <path id="NimbusRomNo9L-Regu-76" d="M 3053 2854 
L 2163 2854 
L 2163 2758 
C 2368 2739 2464 2675 2464 2552 
C 2464 2488 2451 2424 2426 2359 
L 1792 695 
L 1139 2340 
C 1101 2431 1082 2520 1082 2578 
C 1082 2694 1152 2739 1376 2758 
L 1376 2854 
L 122 2854 
L 122 2752 
C 365 2752 410 2688 704 2024 
L 1472 175 
C 1485 137 1504 91 1523 40 
C 1562 -76 1600 -128 1638 -128 
C 1677 -128 1722 -44 1818 193 
L 2637 2257 
C 2822 2694 2861 2739 3053 2758 
L 3053 2854 
z
" transform="scale(0.015625)"/>
      <path id="NimbusRomNo9L-Regu-6f" d="M 1600 2944 
C 768 2944 186 2330 186 1446 
C 186 582 781 -64 1587 -64 
C 2394 -64 3008 614 3008 1498 
C 3008 2336 2419 2944 1600 2944 
z
M 1517 2765 
C 2054 2765 2432 2150 2432 1274 
C 2432 550 2144 115 1664 115 
C 1414 115 1178 269 1043 525 
C 864 858 762 1306 762 1760 
C 762 2368 1062 2765 1517 2765 
z
" transform="scale(0.015625)"/>
      <path id="NimbusRomNo9L-Regu-6c" d="M 122 4000 
L 160 4000 
C 230 4000 307 4000 358 4000 
C 563 4000 627 3910 627 3610 
L 627 557 
C 627 211 538 128 134 96 
L 134 0 
L 1645 0 
L 1645 109 
C 1242 109 1165 173 1165 528 
L 1165 4371 
L 1139 4384 
C 806 4275 563 4211 122 4103 
L 122 4000 
z
" transform="scale(0.015625)"/>
      <path id="NimbusRomNo9L-Regu-75" d="M 3066 320 
L 3034 320 
C 2739 320 2669 390 2669 685 
L 2669 2880 
L 1658 2880 
L 1658 2758 
C 2054 2758 2131 2694 2131 2375 
L 2131 875 
C 2131 697 2099 607 2010 537 
C 1837 397 1638 320 1446 320 
C 1197 320 992 537 992 805 
L 992 2880 
L 58 2880 
L 58 2778 
C 365 2778 454 2682 454 2387 
L 454 770 
C 454 263 762 -64 1229 -64 
C 1466 -64 1715 38 1888 211 
L 2163 486 
L 2163 -45 
L 2189 -58 
C 2509 70 2739 141 3066 230 
L 3066 320 
z
" transform="scale(0.015625)"/>
      <path id="NimbusRomNo9L-Regu-63" d="M 2547 998 
C 2240 550 2010 397 1645 397 
C 1062 397 653 909 653 1645 
C 653 2304 1005 2758 1523 2758 
C 1754 2758 1837 2688 1901 2451 
L 1939 2310 
C 1990 2131 2106 2016 2240 2016 
C 2406 2016 2547 2138 2547 2285 
C 2547 2643 2099 2944 1562 2944 
C 1248 2944 922 2816 659 2586 
C 339 2304 160 1869 160 1363 
C 160 531 666 -64 1376 -64 
C 1664 -64 1920 38 2150 237 
C 2323 390 2445 563 2637 941 
L 2547 998 
z
" transform="scale(0.015625)"/>
      <path id="NimbusRomNo9L-Regu-69" d="M 1120 2929 
L 128 2579 
L 128 2484 
L 179 2490 
C 256 2502 339 2509 397 2509 
C 550 2509 608 2406 608 2125 
L 608 640 
C 608 179 544 109 102 109 
L 102 0 
L 1619 0 
L 1619 96 
C 1197 128 1146 191 1146 650 
L 1146 2910 
L 1120 2929 
z
M 819 4352 
C 646 4352 499 4205 499 4026 
C 499 3847 640 3699 819 3699 
C 1005 3699 1152 3840 1152 4026 
C 1152 4205 1005 4352 819 4352 
z
" transform="scale(0.015625)"/>
      <path id="NimbusRomNo9L-Regu-b4" d="M 851 3264 
L 1837 3882 
C 1971 3964 2029 4047 2029 4148 
C 2029 4275 1946 4352 1805 4352 
C 1709 4352 1651 4320 1536 4206 
L 595 3264 
L 851 3264 
z
" transform="scale(0.015625)"/>
      <path id="NimbusRomNo9L-Regu-6e" d="M 102 2579 
C 141 2598 205 2605 275 2605 
C 454 2605 512 2509 512 2195 
L 512 608 
C 512 243 442 154 115 128 
L 115 32 
L 1472 32 
L 1472 128 
C 1146 154 1050 230 1050 461 
L 1050 2259 
C 1357 2547 1498 2624 1709 2624 
C 2022 2624 2176 2426 2176 2003 
L 2176 666 
C 2176 262 2093 154 1773 128 
L 1773 32 
L 3104 32 
L 3104 128 
C 2790 160 2714 237 2714 550 
L 2714 2016 
C 2714 2618 2432 2976 1958 2976 
C 1664 2976 1466 2867 1030 2458 
L 1030 2963 
L 986 2976 
C 672 2861 454 2790 102 2688 
L 102 2579 
z
" transform="scale(0.015625)"/>
      <path id="NimbusRomNo9L-Regu-64" d="M 2202 -64 
L 3142 269 
L 3142 365 
C 3027 365 3014 365 2995 365 
C 2765 365 2714 435 2714 731 
L 2714 4364 
L 2682 4377 
C 2374 4268 2150 4204 1741 4096 
L 1741 3994 
C 1792 4000 1830 4000 1882 4000 
C 2118 4000 2176 3936 2176 3672 
L 2176 2669 
C 1933 2874 1760 2944 1504 2944 
C 768 2944 173 2221 173 1312 
C 173 493 653 -64 1357 -64 
C 1715 -64 1958 64 2176 365 
L 2176 -45 
L 2202 -64 
z
M 2176 653 
C 2176 608 2131 531 2067 461 
C 1952 333 1792 269 1606 269 
C 1075 269 723 781 723 1568 
C 723 2291 1037 2765 1523 2765 
C 1862 2765 2176 2464 2176 2125 
L 2176 653 
z
" transform="scale(0.015625)"/>
      <path id="NimbusRomNo9L-Regu-65" d="M 2611 1053 
C 2304 564 2029 378 1619 378 
C 1254 378 979 564 794 930 
C 678 1174 634 1386 621 1779 
L 2592 1779 
C 2541 2193 2477 2377 2317 2581 
C 2125 2811 1830 2944 1498 2944 
C 1178 2944 877 2829 634 2611 
C 333 2349 160 1894 160 1370 
C 160 486 621 -64 1357 -64 
C 1965 -64 2445 315 2714 1008 
L 2611 1053 
z
M 634 1984 
C 704 2479 922 2714 1312 2714 
C 1702 2714 1856 2535 1939 1984 
L 634 1984 
z
" transform="scale(0.015625)"/>
      <path id="NimbusRomNo9L-Regu-4d" d="M 4314 3667 
L 4314 751 
C 4314 217 4237 134 3731 134 
L 3731 0 
L 5523 0 
L 5523 134 
C 5056 134 4966 223 4966 681 
L 4966 3536 
C 4966 3993 5050 4077 5523 4115 
L 5523 4237 
L 4250 4237 
L 2835 1004 
L 1357 4237 
L 90 4237 
L 90 4096 
C 614 4096 698 4019 698 3550 
L 698 943 
C 698 282 608 159 77 121 
L 77 0 
L 1581 0 
L 1581 134 
C 1088 134 979 282 979 931 
L 979 3520 
L 2586 0 
L 2675 0 
L 4314 3667 
z
" transform="scale(0.015625)"/>
      <path id="NimbusRomNo9L-Regu-78" d="M 1779 0 
L 3066 0 
L 3066 96 
C 2867 96 2739 198 2541 480 
L 1722 1735 
L 2253 2502 
C 2374 2675 2566 2778 2771 2778 
L 2771 2880 
L 1760 2880 
L 1760 2778 
C 1952 2778 2016 2740 2016 2649 
C 2016 2571 1939 2430 1779 2229 
C 1747 2191 1670 2075 1587 1946 
L 1498 2074 
C 1318 2342 1203 2560 1203 2643 
C 1203 2733 1286 2778 1478 2778 
L 1478 2880 
L 154 2880 
L 154 2778 
L 211 2778 
C 403 2778 506 2695 704 2396 
L 1306 1479 
L 576 422 
C 384 160 320 115 109 96 
L 109 0 
L 1037 0 
L 1037 96 
C 858 96 781 128 781 211 
C 781 250 826 346 909 474 
L 1414 1261 
L 1997 365 
C 2022 326 2035 288 2035 250 
C 2035 123 1990 96 1779 96 
L 1779 0 
z
" transform="scale(0.015625)"/>
     </defs>
     <use xlink:href="#NimbusRomNo9L-Regu-45" transform="scale(0.996264)"/>
     <use xlink:href="#NimbusRomNo9L-Regu-76" transform="translate(60.871631 0) scale(0.996264)"/>
     <use xlink:href="#NimbusRomNo9L-Regu-6f" transform="translate(108.69282 0) scale(0.996264)"/>
     <use xlink:href="#NimbusRomNo9L-Regu-6c" transform="translate(158.506021 0) scale(0.996264)"/>
     <use xlink:href="#NimbusRomNo9L-Regu-75" transform="translate(186.20119 0) scale(0.996264)"/>
     <use xlink:href="#NimbusRomNo9L-Regu-63" transform="translate(236.014391 0) scale(0.996264)"/>
     <use xlink:href="#NimbusRomNo9L-Regu-69" transform="translate(280.247959 0) scale(0.996264)"/>
     <use xlink:href="#NimbusRomNo9L-Regu-b4" transform="translate(316.262122 0.498056) scale(0.996264)"/>
     <use xlink:href="#NimbusRomNo9L-Regu-6f" transform="translate(307.943129 0) scale(0.996264)"/>
     <use xlink:href="#NimbusRomNo9L-Regu-6e" transform="translate(357.756329 0) scale(0.996264)"/>
     <use xlink:href="#NimbusRomNo9L-Regu-64" transform="translate(432.47613 0) scale(0.996264)"/>
     <use xlink:href="#NimbusRomNo9L-Regu-65" transform="translate(482.289331 0) scale(0.996264)"/>
     <use xlink:href="#NimbusRomNo9L-Regu-4d" transform="translate(551.4295 0) scale(0.996264)"/>
     <use xlink:href="#NimbusRomNo9L-Regu-b4" transform="translate(645.525583 0.498056) scale(0.996264)"/>
     <use xlink:href="#NimbusRomNo9L-Regu-65" transform="translate(639.996406 0) scale(0.996264)"/>
     <use xlink:href="#NimbusRomNo9L-Regu-78" transform="translate(684.229975 0) scale(0.996264)"/>
     <use xlink:href="#NimbusRomNo9L-Regu-69" transform="translate(734.043175 0) scale(0.996264)"/>
     <use xlink:href="#NimbusRomNo9L-Regu-63" transform="translate(761.738345 0) scale(0.996264)"/>
     <use xlink:href="#NimbusRomNo9L-Regu-6f" transform="translate(805.971914 0) scale(0.996264)"/>
    </g>
    <!-- Barabsi-Albert (m=1) - H: 0.0\%  -->
    <g transform="translate(23.50266 19.936215) scale(0.096 -0.096)">
     <defs>
      <path id="NimbusRomNo9L-Regu-42" d="M 109 4237 
L 109 4096 
C 646 4096 723 4026 723 3548 
L 723 689 
C 723 212 640 128 109 128 
L 109 0 
L 2246 0 
C 2746 0 3200 136 3437 356 
C 3667 564 3795 855 3795 1165 
C 3795 1451 3680 1710 3482 1897 
C 3290 2072 3117 2150 2701 2253 
C 3034 2335 3168 2398 3322 2531 
C 3482 2671 3578 2903 3578 3163 
C 3578 3871 3008 4237 1901 4237 
L 109 4237 
z
M 1376 2112 
C 1997 2112 2291 2080 2522 1982 
C 2886 1827 3059 1568 3059 1159 
C 3059 809 2925 555 2669 406 
C 2464 290 2202 238 1779 238 
C 1466 238 1376 296 1376 504 
L 1376 2112 
z
M 1376 2368 
L 1376 3812 
C 1376 3944 1421 4001 1517 4001 
L 1798 4001 
C 2534 4001 2925 3699 2925 3137 
C 2925 2646 2586 2368 1984 2368 
L 1376 2368 
z
" transform="scale(0.015625)"/>
      <path id="NimbusRomNo9L-Regu-61" d="M 2829 423 
C 2720 333 2643 301 2547 301 
C 2400 301 2355 390 2355 672 
L 2355 1920 
C 2355 2253 2323 2438 2227 2592 
C 2086 2822 1811 2944 1434 2944 
C 832 2944 358 2630 358 2227 
C 358 2080 486 1952 634 1952 
C 787 1952 922 2080 922 2221 
C 922 2246 915 2278 909 2323 
C 896 2381 890 2432 890 2477 
C 890 2650 1094 2790 1350 2790 
C 1664 2790 1837 2605 1837 2259 
L 1837 1869 
C 851 1472 742 1421 467 1178 
C 326 1050 237 832 237 621 
C 237 218 518 -64 909 -64 
C 1190 -64 1453 70 1843 403 
C 1875 70 1990 -64 2253 -64 
C 2470 -64 2605 13 2829 256 
L 2829 423 
z
M 1837 783 
C 1837 584 1805 526 1670 449 
C 1517 359 1338 301 1203 301 
C 979 301 800 520 800 796 
L 800 822 
C 800 1201 1062 1433 1837 1715 
L 1837 783 
z
" transform="scale(0.015625)"/>
      <path id="NimbusRomNo9L-Regu-72" d="M 45 2496 
C 134 2515 192 2522 269 2522 
C 429 2522 486 2419 486 2138 
L 486 538 
C 486 218 442 173 32 96 
L 32 0 
L 1568 0 
L 1568 102 
C 1133 102 1024 199 1024 565 
L 1024 2013 
C 1024 2219 1299 2541 1472 2541 
C 1510 2541 1568 2509 1638 2445 
C 1741 2355 1811 2317 1894 2317 
C 2048 2317 2144 2426 2144 2605 
C 2144 2816 2010 2944 1792 2944 
C 1523 2944 1338 2797 1024 2343 
L 1024 2931 
L 992 2944 
C 653 2803 422 2721 45 2599 
L 45 2496 
z
" transform="scale(0.015625)"/>
      <path id="NimbusRomNo9L-Regu-62" d="M 979 4364 
L 947 4377 
C 678 4281 506 4230 205 4147 
L 19 4096 
L 19 3994 
C 58 4000 83 4000 128 4000 
C 384 4000 442 3942 442 3673 
L 442 347 
C 442 147 986 -64 1498 -64 
C 2342 -64 2995 640 2995 1555 
C 2995 2342 2509 2944 1869 2944 
C 1478 2944 1107 2714 979 2400 
L 979 4364 
z
M 979 2061 
C 979 2310 1280 2541 1613 2541 
C 2112 2541 2432 2042 2432 1261 
C 2432 550 2125 141 1600 141 
C 1267 141 979 288 979 448 
L 979 2061 
z
" transform="scale(0.015625)"/>
      <path id="NimbusRomNo9L-Regu-73" d="M 2016 2010 
L 1990 2880 
L 1920 2880 
L 1907 2867 
C 1850 2822 1843 2816 1818 2816 
C 1779 2816 1715 2829 1645 2861 
C 1504 2915 1363 2944 1197 2944 
C 691 2944 326 2616 326 2154 
C 326 1796 531 1539 1075 1231 
L 1446 1020 
C 1670 892 1779 737 1779 539 
C 1779 256 1574 77 1248 77 
C 1030 77 832 159 710 298 
C 576 455 518 600 435 960 
L 333 960 
L 333 -39 
L 416 -39 
C 461 33 486 48 563 48 
C 621 48 710 35 858 -2 
C 1037 -39 1210 -64 1325 -64 
C 1818 -64 2227 308 2227 757 
C 2227 1077 2074 1289 1690 1520 
L 998 1930 
C 819 2033 723 2194 723 2367 
C 723 2624 922 2803 1216 2803 
C 1581 2803 1773 2583 1920 2010 
L 2016 2010 
z
" transform="scale(0.015625)"/>
      <path id="NimbusRomNo9L-Regu-2d" d="M 250 1619 
L 250 1216 
L 1824 1216 
L 1824 1619 
L 250 1619 
z
" transform="scale(0.015625)"/>
      <path id="NimbusRomNo9L-Regu-41" d="M 4518 128 
C 4230 128 4166 192 3942 667 
L 2349 4320 
L 2221 4320 
L 890 1168 
C 480 231 403 128 96 128 
L 96 0 
L 1363 0 
L 1363 128 
C 1056 128 928 212 928 393 
C 928 470 947 560 979 645 
L 1274 1401 
L 2950 1401 
L 3213 778 
C 3290 602 3334 434 3334 342 
C 3334 180 3226 128 2886 128 
L 2886 0 
L 4518 0 
L 4518 128 
z
M 1382 1664 
L 2118 3416 
L 2861 1664 
L 1382 1664 
z
" transform="scale(0.015625)"/>
      <path id="NimbusRomNo9L-Regu-74" d="M 1632 2880 
L 986 2880 
L 986 3622 
C 986 3686 979 3706 941 3706 
C 896 3648 858 3590 813 3526 
C 570 3174 294 2867 192 2841 
C 122 2794 83 2748 83 2715 
C 83 2695 90 2682 109 2682 
L 448 2682 
L 448 751 
C 448 212 640 -64 1018 -64 
C 1331 -64 1574 90 1786 423 
L 1702 493 
C 1568 333 1459 269 1318 269 
C 1082 269 986 443 986 847 
L 986 2682 
L 1632 2682 
L 1632 2880 
z
" transform="scale(0.015625)"/>
      <path id="NimbusRomNo9L-Regu-28" d="M 1888 4326 
C 1414 4019 1222 3853 986 3558 
C 531 3002 307 2362 307 1613 
C 307 800 544 173 1107 -480 
C 1370 -787 1536 -928 1869 -1133 
L 1946 -1030 
C 1434 -627 1254 -403 1082 77 
C 928 506 858 992 858 1632 
C 858 2304 941 2829 1114 3226 
C 1293 3622 1485 3853 1946 4224 
L 1888 4326 
z
" transform="scale(0.015625)"/>
      <path id="NimbusRomNo9L-Regu-6d" d="M 122 2547 
C 205 2566 256 2573 326 2573 
C 493 2573 550 2470 550 2162 
L 550 539 
C 550 192 461 96 102 96 
L 102 0 
L 1523 0 
L 1523 96 
C 1184 96 1088 166 1088 418 
L 1088 2234 
C 1088 2246 1139 2310 1184 2355 
C 1344 2502 1619 2611 1843 2611 
C 2125 2611 2266 2385 2266 1932 
L 2266 528 
C 2266 167 2195 96 1830 96 
L 1830 0 
L 3264 0 
L 3264 96 
C 2899 96 2803 205 2803 603 
L 2803 2221 
C 2995 2496 3206 2611 3501 2611 
C 3866 2611 3981 2438 3981 1907 
L 3981 557 
C 3981 192 3930 141 3558 96 
L 3558 0 
L 4960 0 
L 4960 96 
L 4794 115 
C 4602 115 4518 230 4518 480 
L 4518 1802 
C 4518 2559 4269 2944 3776 2944 
C 3405 2944 3078 2778 2733 2407 
C 2618 2771 2400 2944 2054 2944 
C 1773 2944 1594 2854 1062 2451 
L 1062 2931 
L 1018 2944 
C 691 2822 474 2752 122 2656 
L 122 2547 
z
" transform="scale(0.015625)"/>
      <path id="NimbusRomNo9L-Regu-3d" d="M 3418 2470 
L 192 2470 
L 192 2048 
L 3418 2048 
L 3418 2470 
z
M 3418 1190 
L 192 1190 
L 192 768 
L 3418 768 
L 3418 1190 
z
" transform="scale(0.015625)"/>
      <path id="NimbusRomNo9L-Regu-29" d="M 243 -1133 
C 717 -826 909 -659 1146 -365 
C 1600 192 1824 832 1824 1581 
C 1824 2400 1587 3021 1024 3674 
C 762 3981 595 4122 262 4326 
L 186 4224 
C 698 3821 870 3597 1050 3117 
C 1203 2688 1274 2202 1274 1562 
C 1274 896 1190 365 1018 -26 
C 838 -429 646 -659 186 -1030 
L 243 -1133 
z
" transform="scale(0.015625)"/>
      <path id="NimbusRomNo9L-Regu-48" d="M 1338 2304 
L 1338 3533 
C 1338 3990 1408 4059 1901 4104 
L 1901 4224 
L 122 4224 
L 122 4104 
C 614 4059 685 3989 685 3527 
L 685 749 
C 685 210 621 134 122 134 
L 122 0 
L 1901 0 
L 1901 121 
C 1421 159 1338 242 1338 699 
L 1338 2022 
L 3277 2022 
L 3277 757 
C 3277 211 3213 134 2714 134 
L 2714 0 
L 4493 0 
L 4493 121 
C 4013 159 3930 242 3930 696 
L 3930 3529 
C 3930 3989 4000 4059 4493 4104 
L 4493 4224 
L 2714 4224 
L 2714 4104 
C 3206 4059 3277 3990 3277 3533 
L 3277 2304 
L 1338 2304 
z
" transform="scale(0.015625)"/>
      <path id="NimbusRomNo9L-Regu-3a" d="M 870 2944 
C 678 2944 518 2777 518 2579 
C 518 2393 678 2233 864 2233 
C 1062 2233 1229 2393 1229 2579 
C 1229 2777 1062 2944 870 2944 
z
M 870 646 
C 678 646 518 480 518 281 
C 518 96 678 -64 864 -64 
C 1062 -64 1229 96 1229 281 
C 1229 480 1062 646 870 646 
z
" transform="scale(0.015625)"/>
      <path id="NimbusRomNo9L-Regu-2e" d="M 800 646 
C 608 646 448 480 448 281 
C 448 96 608 -64 794 -64 
C 992 -64 1158 96 1158 281 
C 1158 480 992 646 800 646 
z
" transform="scale(0.015625)"/>
      <path id="NimbusRomNo9L-Regu-25" d="M 4282 2368 
C 3558 2368 2874 1622 2874 824 
C 2874 325 3181 0 3642 0 
C 3930 0 4166 102 4390 325 
C 4730 670 4941 1187 4941 1686 
C 4941 2120 4698 2368 4282 2368 
z
M 4326 2164 
C 4570 2164 4774 1934 4774 1654 
C 4774 1290 4614 856 4371 556 
C 4166 301 3981 192 3750 192 
C 3520 192 3360 357 3360 601 
C 3360 939 3539 1462 3776 1793 
C 3949 2048 4128 2164 4326 2164 
z
M 4058 4320 
L 3808 4320 
C 3462 4008 3206 3904 2810 3904 
C 2554 3904 2406 3946 2253 4064 
C 2086 4194 2003 4224 1805 4224 
C 1075 4224 390 3468 390 2662 
C 390 2217 730 1856 1146 1856 
C 1421 1856 1709 1984 1920 2209 
C 2253 2549 2458 3056 2458 3526 
C 2458 3615 2445 3693 2413 3808 
C 2528 3763 2643 3744 2829 3744 
C 3110 3744 3277 3788 3533 3931 
L 1286 -96 
L 1594 -96 
L 4058 4320 
z
M 2240 3829 
C 2278 3702 2298 3607 2298 3518 
C 2298 2802 1773 2073 1254 2073 
C 1030 2073 877 2231 877 2460 
C 877 2726 1005 3157 1178 3474 
C 1363 3816 1606 4032 1805 4032 
C 1837 4032 1850 4025 1888 3993 
C 1978 3911 2054 3879 2240 3829 
z
" transform="scale(0.015625)"/>
     </defs>
     <use xlink:href="#NimbusRomNo9L-Regu-42" transform="scale(0.996264)"/>
     <use xlink:href="#NimbusRomNo9L-Regu-61" transform="translate(66.450031 0) scale(0.996264)"/>
     <use xlink:href="#NimbusRomNo9L-Regu-72" transform="translate(110.6836 0) scale(0.996264)"/>
     <use xlink:href="#NimbusRomNo9L-Regu-61" transform="translate(143.85883 0) scale(0.996264)"/>
     <use xlink:href="#NimbusRomNo9L-Regu-62" transform="translate(188.092398 0) scale(0.996264)"/>
     <use xlink:href="#NimbusRomNo9L-Regu-b4" transform="translate(243.434776 0.498056) scale(0.996264)"/>
     <use xlink:href="#NimbusRomNo9L-Regu-61" transform="translate(237.905599 0) scale(0.996264)"/>
     <use xlink:href="#NimbusRomNo9L-Regu-73" transform="translate(282.139167 0) scale(0.996264)"/>
     <use xlink:href="#NimbusRomNo9L-Regu-69" transform="translate(320.892874 0) scale(0.996264)"/>
     <use xlink:href="#NimbusRomNo9L-Regu-2d" transform="translate(348.588043 0) scale(0.996264)"/>
     <use xlink:href="#NimbusRomNo9L-Regu-41" transform="translate(381.763273 0) scale(0.996264)"/>
     <use xlink:href="#NimbusRomNo9L-Regu-6c" transform="translate(453.693258 0) scale(0.996264)"/>
     <use xlink:href="#NimbusRomNo9L-Regu-62" transform="translate(481.388427 0) scale(0.996264)"/>
     <use xlink:href="#NimbusRomNo9L-Regu-65" transform="translate(531.201628 0) scale(0.996264)"/>
     <use xlink:href="#NimbusRomNo9L-Regu-72" transform="translate(575.435197 0) scale(0.996264)"/>
     <use xlink:href="#NimbusRomNo9L-Regu-74" transform="translate(608.610426 0) scale(0.996264)"/>
     <use xlink:href="#NimbusRomNo9L-Regu-28" transform="translate(661.212196 0) scale(0.996264)"/>
     <use xlink:href="#NimbusRomNo9L-Regu-6d" transform="translate(694.387426 0) scale(0.996264)"/>
     <use xlink:href="#NimbusRomNo9L-Regu-3d" transform="translate(771.895796 0) scale(0.996264)"/>
     <use xlink:href="#NimbusRomNo9L-Regu-31" transform="translate(828.084046 0) scale(0.996264)"/>
     <use xlink:href="#NimbusRomNo9L-Regu-29" transform="translate(877.897247 0) scale(0.996264)"/>
     <use xlink:href="#NimbusRomNo9L-Regu-2d" transform="translate(935.979077 0) scale(0.996264)"/>
     <use xlink:href="#NimbusRomNo9L-Regu-48" transform="translate(994.060907 0) scale(0.996264)"/>
     <use xlink:href="#NimbusRomNo9L-Regu-3a" transform="translate(1065.990892 0) scale(0.996264)"/>
     <use xlink:href="#NimbusRomNo9L-Regu-30" transform="translate(1118.592662 0) scale(0.996264)"/>
     <use xlink:href="#NimbusRomNo9L-Regu-2e" transform="translate(1168.405862 0) scale(0.996264)"/>
     <use xlink:href="#NimbusRomNo9L-Regu-30" transform="translate(1193.312462 0) scale(0.996264)"/>
     <use xlink:href="#NimbusRomNo9L-Regu-25" transform="translate(1243.125663 0) scale(0.996264)"/>
    </g>
    <!-- Masa crtica: 80\% - Nodos aleatorios (H,C) -->
    <g transform="translate(3.6 29.788034) scale(0.096 -0.096)">
     <defs>
      <path id="NimbusRomNo9L-Regu-11" d="M 1120 2950 
L 128 2598 
L 128 2502 
L 179 2508 
C 256 2521 339 2528 397 2528 
C 550 2528 608 2424 608 2141 
L 608 644 
C 608 180 544 109 102 109 
L 102 0 
L 1619 0 
L 1619 96 
C 1197 128 1146 192 1146 654 
L 1146 2931 
L 1120 2950 
z
" transform="scale(0.015625)"/>
      <path id="NimbusRomNo9L-Regu-4e" d="M 3917 -64 
L 3917 3287 
C 3917 3669 3981 3905 4102 3987 
C 4192 4051 4282 4077 4525 4102 
L 4525 4224 
L 3021 4224 
L 3021 4102 
C 3264 4083 3354 4057 3450 4000 
C 3578 3911 3635 3681 3635 3286 
L 3635 1136 
L 1171 4224 
L 77 4224 
L 77 4102 
C 352 4102 442 4051 698 3751 
L 698 938 
C 698 281 608 159 77 121 
L 77 0 
L 1581 0 
L 1581 134 
C 1088 134 979 281 979 928 
L 979 3439 
L 3808 -64 
L 3917 -64 
z
" transform="scale(0.015625)"/>
      <path id="NimbusRomNo9L-Regu-2c" d="M 531 -889 
C 960 -678 1248 -288 1248 96 
C 1248 416 1024 666 736 666 
C 512 666 358 519 358 301 
C 358 96 506 -25 736 -25 
C 774 -25 819 -19 858 -13 
C 902 0 902 0 909 0 
C 960 0 998 -38 998 -89 
C 998 -294 819 -531 474 -768 
L 531 -889 
z
" transform="scale(0.015625)"/>
      <path id="NimbusRomNo9L-Regu-43" d="M 3968 2906 
L 3910 4352 
L 3776 4352 
C 3738 4218 3635 4141 3507 4141 
C 3450 4141 3354 4160 3258 4199 
C 2944 4301 2624 4352 2323 4352 
C 1798 4352 1267 4154 870 3802 
C 422 3405 179 2810 179 2106 
C 179 1511 371 960 698 596 
C 1082 180 1670 -64 2304 -64 
C 3027 -64 3661 231 4051 749 
L 3936 864 
C 3462 410 3040 218 2509 218 
C 2106 218 1747 346 1472 589 
C 1120 903 922 1479 922 2189 
C 922 3348 1517 4096 2445 4096 
C 2810 4096 3142 3962 3398 3706 
C 3603 3501 3699 3322 3821 2906 
L 3968 2906 
z
" transform="scale(0.015625)"/>
     </defs>
     <use xlink:href="#NimbusRomNo9L-Regu-4d" transform="scale(0.996264)"/>
     <use xlink:href="#NimbusRomNo9L-Regu-61" transform="translate(88.566907 0) scale(0.996264)"/>
     <use xlink:href="#NimbusRomNo9L-Regu-73" transform="translate(132.800475 0) scale(0.996264)"/>
     <use xlink:href="#NimbusRomNo9L-Regu-61" transform="translate(171.554182 0) scale(0.996264)"/>
     <use xlink:href="#NimbusRomNo9L-Regu-63" transform="translate(240.694351 0) scale(0.996264)"/>
     <use xlink:href="#NimbusRomNo9L-Regu-72" transform="translate(284.927919 0) scale(0.996264)"/>
     <use xlink:href="#NimbusRomNo9L-Regu-b4" transform="translate(315.363119 0.498056) scale(0.996264)"/>
     <use xlink:href="#NimbusRomNo9L-Regu-11" transform="translate(318.103149 0) scale(0.996264)"/>
     <use xlink:href="#NimbusRomNo9L-Regu-74" transform="translate(345.798319 0) scale(0.996264)"/>
     <use xlink:href="#NimbusRomNo9L-Regu-69" transform="translate(373.493488 0) scale(0.996264)"/>
     <use xlink:href="#NimbusRomNo9L-Regu-63" transform="translate(401.188658 0) scale(0.996264)"/>
     <use xlink:href="#NimbusRomNo9L-Regu-61" transform="translate(445.422226 0) scale(0.996264)"/>
     <use xlink:href="#NimbusRomNo9L-Regu-3a" transform="translate(489.655795 0) scale(0.996264)"/>
     <use xlink:href="#NimbusRomNo9L-Regu-38" transform="translate(548.234997 0) scale(0.996264)"/>
     <use xlink:href="#NimbusRomNo9L-Regu-30" transform="translate(598.048198 0) scale(0.996264)"/>
     <use xlink:href="#NimbusRomNo9L-Regu-25" transform="translate(647.861398 0) scale(0.996264)"/>
     <use xlink:href="#NimbusRomNo9L-Regu-2d" transform="translate(755.756429 0) scale(0.996264)"/>
     <use xlink:href="#NimbusRomNo9L-Regu-4e" transform="translate(813.838259 0) scale(0.996264)"/>
     <use xlink:href="#NimbusRomNo9L-Regu-6f" transform="translate(885.768243 0) scale(0.996264)"/>
     <use xlink:href="#NimbusRomNo9L-Regu-64" transform="translate(935.581444 0) scale(0.996264)"/>
     <use xlink:href="#NimbusRomNo9L-Regu-6f" transform="translate(985.394644 0) scale(0.996264)"/>
     <use xlink:href="#NimbusRomNo9L-Regu-73" transform="translate(1035.207845 0) scale(0.996264)"/>
     <use xlink:href="#NimbusRomNo9L-Regu-61" transform="translate(1098.868151 0) scale(0.996264)"/>
     <use xlink:href="#NimbusRomNo9L-Regu-6c" transform="translate(1143.10172 0) scale(0.996264)"/>
     <use xlink:href="#NimbusRomNo9L-Regu-65" transform="translate(1170.79689 0) scale(0.996264)"/>
     <use xlink:href="#NimbusRomNo9L-Regu-61" transform="translate(1215.030458 0) scale(0.996264)"/>
     <use xlink:href="#NimbusRomNo9L-Regu-74" transform="translate(1259.264027 0) scale(0.996264)"/>
     <use xlink:href="#NimbusRomNo9L-Regu-6f" transform="translate(1286.959197 0) scale(0.996264)"/>
     <use xlink:href="#NimbusRomNo9L-Regu-72" transform="translate(1336.772397 0) scale(0.996264)"/>
     <use xlink:href="#NimbusRomNo9L-Regu-69" transform="translate(1369.947627 0) scale(0.996264)"/>
     <use xlink:href="#NimbusRomNo9L-Regu-6f" transform="translate(1397.642796 0) scale(0.996264)"/>
     <use xlink:href="#NimbusRomNo9L-Regu-73" transform="translate(1447.455997 0) scale(0.996264)"/>
     <use xlink:href="#NimbusRomNo9L-Regu-28" transform="translate(1511.116303 0) scale(0.996264)"/>
     <use xlink:href="#NimbusRomNo9L-Regu-48" transform="translate(1544.291533 0) scale(0.996264)"/>
     <use xlink:href="#NimbusRomNo9L-Regu-2c" transform="translate(1616.221518 0) scale(0.996264)"/>
     <use xlink:href="#NimbusRomNo9L-Regu-43" transform="translate(1641.128118 0) scale(0.996264)"/>
     <use xlink:href="#NimbusRomNo9L-Regu-29" transform="translate(1707.578149 0) scale(0.996264)"/>
    </g>
   </g>
   <g id="legend_1">
    <g id="line2d_108">
     <path d="M 87.615017 44.538034 
L 94.615017 44.538034 
L 101.615017 44.538034 
" style="fill: none; stroke: #dedeee; stroke-linecap: square"/>
    </g>
    <g id="text_13">
     <!-- (C) C. Coop -->
     <g transform="translate(107.215017 46.988034) scale(0.07 -0.07)">
      <defs>
       <path id="NimbusRomNo9L-Regu-70" d="M 58 2516 
C 115 2522 160 2522 218 2522 
C 435 2522 480 2458 480 2155 
L 480 -855 
C 480 -1189 410 -1261 32 -1299 
L 32 -1408 
L 1581 -1408 
L 1581 -1293 
C 1101 -1293 1018 -1222 1018 -816 
L 1018 199 
C 1242 -13 1395 -77 1664 -77 
C 2419 -77 3008 643 3008 1575 
C 3008 2372 2560 2944 1939 2944 
C 1581 2944 1299 2784 1018 2438 
L 1018 2931 
L 979 2944 
C 634 2810 410 2726 58 2618 
L 58 2516 
z
M 1018 2136 
C 1018 2329 1376 2560 1670 2560 
C 2144 2560 2458 2071 2458 1324 
C 2458 611 2144 128 1683 128 
C 1382 128 1018 359 1018 552 
L 1018 2136 
z
" transform="scale(0.015625)"/>
      </defs>
      <use xlink:href="#NimbusRomNo9L-Regu-28" transform="scale(0.996264)"/>
      <use xlink:href="#NimbusRomNo9L-Regu-43" transform="translate(33.17523 0) scale(0.996264)"/>
      <use xlink:href="#NimbusRomNo9L-Regu-29" transform="translate(99.625261 0) scale(0.996264)"/>
      <use xlink:href="#NimbusRomNo9L-Regu-43" transform="translate(157.707091 0) scale(0.996264)"/>
      <use xlink:href="#NimbusRomNo9L-Regu-2e" transform="translate(224.157122 0) scale(0.996264)"/>
      <use xlink:href="#NimbusRomNo9L-Regu-43" transform="translate(273.970322 0) scale(0.996264)"/>
      <use xlink:href="#NimbusRomNo9L-Regu-6f" transform="translate(340.420354 0) scale(0.996264)"/>
      <use xlink:href="#NimbusRomNo9L-Regu-6f" transform="translate(390.233554 0) scale(0.996264)"/>
      <use xlink:href="#NimbusRomNo9L-Regu-70" transform="translate(440.046755 0) scale(0.996264)"/>
     </g>
    </g>
    <g id="line2d_109">
     <path d="M 87.615017 54.447815 
L 94.615017 54.447815 
L 101.615017 54.447815 
" style="fill: none; stroke-dasharray: 3.7,1.6; stroke-dashoffset: 0; stroke: #9b9aca"/>
    </g>
    <g id="text_14">
     <!-- (D) C. no Coop -->
     <g transform="translate(107.215017 56.897815) scale(0.07 -0.07)">
      <defs>
       <path id="NimbusRomNo9L-Regu-44" d="M 666 679 
C 666 217 589 134 102 134 
L 102 0 
L 1920 0 
C 2662 0 3334 210 3731 568 
C 4147 944 4384 1512 4384 2131 
C 4384 2706 4192 3203 3840 3554 
C 3405 3994 2707 4224 1830 4224 
L 102 4224 
L 102 4102 
C 608 4057 666 4000 666 3525 
L 666 679 
z
M 1318 3738 
C 1318 3936 1389 3987 1651 3987 
C 2202 3987 2618 3885 2925 3668 
C 3424 3323 3686 2775 3686 2087 
C 3686 1334 3424 798 2906 498 
C 2579 314 2208 237 1651 237 
C 1395 237 1318 294 1318 498 
L 1318 3738 
z
" transform="scale(0.015625)"/>
      </defs>
      <use xlink:href="#NimbusRomNo9L-Regu-28" transform="scale(0.996264)"/>
      <use xlink:href="#NimbusRomNo9L-Regu-44" transform="translate(33.17523 0) scale(0.996264)"/>
      <use xlink:href="#NimbusRomNo9L-Regu-29" transform="translate(105.105215 0) scale(0.996264)"/>
      <use xlink:href="#NimbusRomNo9L-Regu-43" transform="translate(163.187045 0) scale(0.996264)"/>
      <use xlink:href="#NimbusRomNo9L-Regu-2e" transform="translate(229.637076 0) scale(0.996264)"/>
      <use xlink:href="#NimbusRomNo9L-Regu-6e" transform="translate(279.450276 0) scale(0.996264)"/>
      <use xlink:href="#NimbusRomNo9L-Regu-6f" transform="translate(329.263477 0) scale(0.996264)"/>
      <use xlink:href="#NimbusRomNo9L-Regu-43" transform="translate(403.983277 0) scale(0.996264)"/>
      <use xlink:href="#NimbusRomNo9L-Regu-6f" transform="translate(470.433309 0) scale(0.996264)"/>
      <use xlink:href="#NimbusRomNo9L-Regu-6f" transform="translate(520.246509 0) scale(0.996264)"/>
      <use xlink:href="#NimbusRomNo9L-Regu-70" transform="translate(570.05971 0) scale(0.996264)"/>
     </g>
    </g>
    <g id="line2d_110">
     <path d="M 87.615017 64.357595 
L 94.615017 64.357595 
L 101.615017 64.357595 
" style="fill: none; stroke-dasharray: 1,1.65; stroke-dashoffset: 0; stroke: #7976b8"/>
    </g>
    <g id="text_15">
     <!-- (H) P. Honrado -->
     <g transform="translate(107.215017 66.807595) scale(0.07 -0.07)">
      <defs>
       <path id="NimbusRomNo9L-Regu-50" d="M 1293 1875 
C 1459 1856 1568 1856 1734 1856 
C 2234 1856 2579 1919 2854 2072 
C 3238 2274 3469 2660 3469 3078 
C 3469 3344 3379 3584 3206 3768 
C 2950 4047 2394 4224 1792 4224 
L 102 4224 
L 102 4102 
C 576 4051 640 3987 640 3528 
L 640 766 
C 640 230 589 166 102 122 
L 102 0 
L 1894 0 
L 1894 128 
C 1389 128 1293 218 1293 693 
L 1293 1875 
z
M 1293 3772 
C 1293 3943 1338 3987 1510 3987 
C 2374 3987 2771 3690 2771 3040 
C 2771 2428 2394 2112 1658 2112 
C 1530 2112 1440 2119 1293 2131 
L 1293 3772 
z
" transform="scale(0.015625)"/>
      </defs>
      <use xlink:href="#NimbusRomNo9L-Regu-28" transform="scale(0.996264)"/>
      <use xlink:href="#NimbusRomNo9L-Regu-48" transform="translate(33.17523 0) scale(0.996264)"/>
      <use xlink:href="#NimbusRomNo9L-Regu-29" transform="translate(105.105215 0) scale(0.996264)"/>
      <use xlink:href="#NimbusRomNo9L-Regu-50" transform="translate(163.187045 0) scale(0.996264)"/>
      <use xlink:href="#NimbusRomNo9L-Regu-2e" transform="translate(207.520276 0) scale(0.996264)"/>
      <use xlink:href="#NimbusRomNo9L-Regu-48" transform="translate(257.333477 0) scale(0.996264)"/>
      <use xlink:href="#NimbusRomNo9L-Regu-6f" transform="translate(329.263461 0) scale(0.996264)"/>
      <use xlink:href="#NimbusRomNo9L-Regu-6e" transform="translate(379.076662 0) scale(0.996264)"/>
      <use xlink:href="#NimbusRomNo9L-Regu-72" transform="translate(428.889862 0) scale(0.996264)"/>
      <use xlink:href="#NimbusRomNo9L-Regu-61" transform="translate(462.065092 0) scale(0.996264)"/>
      <use xlink:href="#NimbusRomNo9L-Regu-64" transform="translate(506.298661 0) scale(0.996264)"/>
      <use xlink:href="#NimbusRomNo9L-Regu-6f" transform="translate(556.111861 0) scale(0.996264)"/>
     </g>
    </g>
    <g id="line2d_111">
     <path d="M 87.615017 74.267375 
L 94.615017 74.267375 
L 101.615017 74.267375 
" style="fill: none; stroke-dasharray: 6.4,1.6,1,1.6; stroke-dashoffset: 0; stroke: #201f3d"/>
    </g>
    <g id="text_16">
     <!-- (K) P. Corrupto -->
     <g transform="translate(107.215017 76.717375) scale(0.07 -0.07)">
      <defs>
       <path id="NimbusRomNo9L-Regu-4b" d="M 2643 4109 
C 2720 4096 2784 4096 2810 4096 
C 3002 4096 3078 4045 3078 3917 
C 3078 3775 2931 3583 2579 3257 
L 1446 2224 
L 1446 3534 
C 1446 4000 1517 4071 2035 4109 
L 2035 4231 
L 218 4231 
L 218 4109 
C 717 4071 794 3988 794 3531 
L 794 750 
C 794 217 723 134 218 134 
L 218 0 
L 2022 0 
L 2022 134 
C 1523 134 1446 211 1446 683 
L 1446 1891 
L 1613 2026 
L 2291 1355 
C 2778 876 3123 422 3123 269 
C 3123 179 3034 134 2854 134 
C 2822 134 2752 134 2675 121 
L 2675 0 
L 4627 0 
L 4627 134 
C 4294 134 4205 198 3622 816 
L 2131 2409 
L 3347 3611 
C 3782 4026 3885 4077 4320 4109 
L 4320 4231 
L 2643 4231 
L 2643 4109 
z
" transform="scale(0.015625)"/>
      </defs>
      <use xlink:href="#NimbusRomNo9L-Regu-28" transform="scale(0.996264)"/>
      <use xlink:href="#NimbusRomNo9L-Regu-4b" transform="translate(33.17523 0) scale(0.996264)"/>
      <use xlink:href="#NimbusRomNo9L-Regu-29" transform="translate(105.105215 0) scale(0.996264)"/>
      <use xlink:href="#NimbusRomNo9L-Regu-50" transform="translate(163.187045 0) scale(0.996264)"/>
      <use xlink:href="#NimbusRomNo9L-Regu-2e" transform="translate(207.520276 0) scale(0.996264)"/>
      <use xlink:href="#NimbusRomNo9L-Regu-43" transform="translate(257.333477 0) scale(0.996264)"/>
      <use xlink:href="#NimbusRomNo9L-Regu-6f" transform="translate(323.783508 0) scale(0.996264)"/>
      <use xlink:href="#NimbusRomNo9L-Regu-72" transform="translate(373.596708 0) scale(0.996264)"/>
      <use xlink:href="#NimbusRomNo9L-Regu-72" transform="translate(406.771938 0) scale(0.996264)"/>
      <use xlink:href="#NimbusRomNo9L-Regu-75" transform="translate(439.947168 0) scale(0.996264)"/>
      <use xlink:href="#NimbusRomNo9L-Regu-70" transform="translate(489.760368 0) scale(0.996264)"/>
      <use xlink:href="#NimbusRomNo9L-Regu-74" transform="translate(539.573569 0) scale(0.996264)"/>
      <use xlink:href="#NimbusRomNo9L-Regu-6f" transform="translate(567.268738 0) scale(0.996264)"/>
     </g>
    </g>
   </g>
  </g>
 </g>
 <defs>
  <clipPath id="p68bf1bd83f">
   <rect x="17.406088" y="35.788034" width="139.5" height="138.6"/>
  </clipPath>
 </defs>
</svg>
