<?xml version="1.0" encoding="utf-8" standalone="no"?>
<!DOCTYPE svg PUBLIC "-//W3C//DTD SVG 1.1//EN"
  "http://www.w3.org/Graphics/SVG/1.1/DTD/svg11.dtd">
<svg xmlns:xlink="http://www.w3.org/1999/xlink" width="268.023213pt" height="270.244693pt" viewBox="0 0 268.023213 270.244693" xmlns="http://www.w3.org/2000/svg" version="1.1">
 <metadata>
  <rdf:RDF xmlns:dc="http://purl.org/dc/elements/1.1/" xmlns:cc="http://creativecommons.org/ns#" xmlns:rdf="http://www.w3.org/1999/02/22-rdf-syntax-ns#">
   <cc:Work>
    <dc:type rdf:resource="http://purl.org/dc/dcmitype/StillImage"/>
    <dc:date>2025-04-01T13:51:50.673665</dc:date>
    <dc:format>image/svg+xml</dc:format>
    <dc:creator>
     <cc:Agent>
      <dc:title>Matplotlib v3.10.1, https://matplotlib.org/</dc:title>
     </cc:Agent>
    </dc:creator>
   </cc:Work>
  </rdf:RDF>
 </metadata>
 <defs>
  <style type="text/css">*{stroke-linejoin: round; stroke-linecap: butt}</style>
 </defs>
 <g id="figure_1">
  <g id="patch_1">
   <path d="M 0 270.244693 
L 268.023213 270.244693 
L 268.023213 0 
L 0 0 
z
" style="fill: #ffffff"/>
  </g>
  <g id="axes_1">
   <g id="patch_2">
    <path d="M 41.223213 240.326376 
L 264.423213 240.326376 
L 264.423213 18.566376 
L 41.223213 18.566376 
z
" style="fill: #ffffff"/>
   </g>
   <g id="matplotlib.axis_1">
    <g id="xtick_1">
     <g id="line2d_1">
      <defs>
       <path id="md4ccbac9fb" d="M 0 0 
L 0 -3 
" style="stroke: #000000; stroke-width: 0.5"/>
      </defs>
      <g>
       <use xlink:href="#md4ccbac9fb" x="51.368668" y="240.326376" style="stroke: #000000; stroke-width: 0.5"/>
      </g>
     </g>
     <g id="line2d_2">
      <defs>
       <path id="m514c0be526" d="M 0 0 
L 0 3 
" style="stroke: #000000; stroke-width: 0.5"/>
      </defs>
      <g>
       <use xlink:href="#m514c0be526" x="51.368668" y="18.566376" style="stroke: #000000; stroke-width: 0.5"/>
      </g>
     </g>
     <g id="text_1">
      <!-- $\mathdefault{10^{0}}$ -->
      <g transform="translate(44.401714 250.744874) scale(0.1 -0.1)">
       <defs>
        <path id="CMR17-31" d="M 1702 4058 
C 1702 4192 1696 4192 1606 4192 
C 1357 3916 979 3827 621 3827 
C 602 3827 570 3827 563 3808 
C 557 3795 557 3782 557 3648 
C 755 3648 1088 3686 1344 3839 
L 1344 461 
C 1344 236 1331 160 781 160 
L 589 160 
L 589 0 
C 896 0 1216 0 1523 0 
C 1830 0 2150 0 2458 0 
L 2458 160 
L 2266 160 
C 1715 160 1702 230 1702 458 
L 1702 4058 
z
" transform="scale(0.015625)"/>
        <path id="CMR17-30" d="M 2688 2025 
C 2688 2416 2682 3080 2413 3591 
C 2176 4039 1798 4198 1466 4198 
C 1158 4198 768 4058 525 3597 
C 269 3118 243 2524 243 2025 
C 243 1661 250 1106 448 619 
C 723 -39 1216 -128 1466 -128 
C 1760 -128 2208 -7 2470 600 
C 2662 1042 2688 1559 2688 2025 
z
M 1466 -26 
C 1056 -26 813 325 723 812 
C 653 1188 653 1738 653 2096 
C 653 2588 653 2997 736 3387 
C 858 3929 1216 4096 1466 4096 
C 1728 4096 2067 3923 2189 3400 
C 2272 3036 2278 2607 2278 2096 
C 2278 1680 2278 1169 2202 792 
C 2067 95 1690 -26 1466 -26 
z
" transform="scale(0.015625)"/>
       </defs>
       <use xlink:href="#CMR17-31" transform="scale(0.996264)"/>
       <use xlink:href="#CMR17-30" transform="translate(45.690477 0) scale(0.996264)"/>
       <use xlink:href="#CMR17-30" transform="translate(91.380954 36.153639) scale(0.697382)"/>
      </g>
     </g>
    </g>
    <g id="xtick_2">
     <g id="line2d_3">
      <g>
       <use xlink:href="#md4ccbac9fb" x="166.928778" y="240.326376" style="stroke: #000000; stroke-width: 0.5"/>
      </g>
     </g>
     <g id="line2d_4">
      <g>
       <use xlink:href="#m514c0be526" x="166.928778" y="18.566376" style="stroke: #000000; stroke-width: 0.5"/>
      </g>
     </g>
     <g id="text_2">
      <!-- $\mathdefault{10^{1}}$ -->
      <g transform="translate(159.961824 250.744874) scale(0.1 -0.1)">
       <use xlink:href="#CMR17-31" transform="scale(0.996264)"/>
       <use xlink:href="#CMR17-30" transform="translate(45.690477 0) scale(0.996264)"/>
       <use xlink:href="#CMR17-31" transform="translate(91.380954 36.153639) scale(0.697382)"/>
      </g>
     </g>
    </g>
    <g id="xtick_3">
     <g id="line2d_5">
      <defs>
       <path id="mec49b5abf3" d="M 0 0 
L 0 -1.5 
" style="stroke: #000000; stroke-width: 0.5"/>
      </defs>
      <g>
       <use xlink:href="#mec49b5abf3" x="46.080927" y="240.326376" style="stroke: #000000; stroke-width: 0.5"/>
      </g>
     </g>
     <g id="line2d_6">
      <defs>
       <path id="mefde0e790b" d="M 0 0 
L 0 1.5 
" style="stroke: #000000; stroke-width: 0.5"/>
      </defs>
      <g>
       <use xlink:href="#mefde0e790b" x="46.080927" y="18.566376" style="stroke: #000000; stroke-width: 0.5"/>
      </g>
     </g>
    </g>
    <g id="xtick_4">
     <g id="line2d_7">
      <g>
       <use xlink:href="#mec49b5abf3" x="86.155727" y="240.326376" style="stroke: #000000; stroke-width: 0.5"/>
      </g>
     </g>
     <g id="line2d_8">
      <g>
       <use xlink:href="#mefde0e790b" x="86.155727" y="18.566376" style="stroke: #000000; stroke-width: 0.5"/>
      </g>
     </g>
    </g>
    <g id="xtick_5">
     <g id="line2d_9">
      <g>
       <use xlink:href="#mec49b5abf3" x="106.504853" y="240.326376" style="stroke: #000000; stroke-width: 0.5"/>
      </g>
     </g>
     <g id="line2d_10">
      <g>
       <use xlink:href="#mefde0e790b" x="106.504853" y="18.566376" style="stroke: #000000; stroke-width: 0.5"/>
      </g>
     </g>
    </g>
    <g id="xtick_6">
     <g id="line2d_11">
      <g>
       <use xlink:href="#mec49b5abf3" x="120.942787" y="240.326376" style="stroke: #000000; stroke-width: 0.5"/>
      </g>
     </g>
     <g id="line2d_12">
      <g>
       <use xlink:href="#mefde0e790b" x="120.942787" y="18.566376" style="stroke: #000000; stroke-width: 0.5"/>
      </g>
     </g>
    </g>
    <g id="xtick_7">
     <g id="line2d_13">
      <g>
       <use xlink:href="#mec49b5abf3" x="132.141718" y="240.326376" style="stroke: #000000; stroke-width: 0.5"/>
      </g>
     </g>
     <g id="line2d_14">
      <g>
       <use xlink:href="#mefde0e790b" x="132.141718" y="18.566376" style="stroke: #000000; stroke-width: 0.5"/>
      </g>
     </g>
    </g>
    <g id="xtick_8">
     <g id="line2d_15">
      <g>
       <use xlink:href="#mec49b5abf3" x="141.291912" y="240.326376" style="stroke: #000000; stroke-width: 0.5"/>
      </g>
     </g>
     <g id="line2d_16">
      <g>
       <use xlink:href="#mefde0e790b" x="141.291912" y="18.566376" style="stroke: #000000; stroke-width: 0.5"/>
      </g>
     </g>
    </g>
    <g id="xtick_9">
     <g id="line2d_17">
      <g>
       <use xlink:href="#mec49b5abf3" x="149.02829" y="240.326376" style="stroke: #000000; stroke-width: 0.5"/>
      </g>
     </g>
     <g id="line2d_18">
      <g>
       <use xlink:href="#mefde0e790b" x="149.02829" y="18.566376" style="stroke: #000000; stroke-width: 0.5"/>
      </g>
     </g>
    </g>
    <g id="xtick_10">
     <g id="line2d_19">
      <g>
       <use xlink:href="#mec49b5abf3" x="155.729846" y="240.326376" style="stroke: #000000; stroke-width: 0.5"/>
      </g>
     </g>
     <g id="line2d_20">
      <g>
       <use xlink:href="#mefde0e790b" x="155.729846" y="18.566376" style="stroke: #000000; stroke-width: 0.5"/>
      </g>
     </g>
    </g>
    <g id="xtick_11">
     <g id="line2d_21">
      <g>
       <use xlink:href="#mec49b5abf3" x="161.641037" y="240.326376" style="stroke: #000000; stroke-width: 0.5"/>
      </g>
     </g>
     <g id="line2d_22">
      <g>
       <use xlink:href="#mefde0e790b" x="161.641037" y="18.566376" style="stroke: #000000; stroke-width: 0.5"/>
      </g>
     </g>
    </g>
    <g id="xtick_12">
     <g id="line2d_23">
      <g>
       <use xlink:href="#mec49b5abf3" x="201.715837" y="240.326376" style="stroke: #000000; stroke-width: 0.5"/>
      </g>
     </g>
     <g id="line2d_24">
      <g>
       <use xlink:href="#mefde0e790b" x="201.715837" y="18.566376" style="stroke: #000000; stroke-width: 0.5"/>
      </g>
     </g>
    </g>
    <g id="xtick_13">
     <g id="line2d_25">
      <g>
       <use xlink:href="#mec49b5abf3" x="222.064962" y="240.326376" style="stroke: #000000; stroke-width: 0.5"/>
      </g>
     </g>
     <g id="line2d_26">
      <g>
       <use xlink:href="#mefde0e790b" x="222.064962" y="18.566376" style="stroke: #000000; stroke-width: 0.5"/>
      </g>
     </g>
    </g>
    <g id="xtick_14">
     <g id="line2d_27">
      <g>
       <use xlink:href="#mec49b5abf3" x="236.502896" y="240.326376" style="stroke: #000000; stroke-width: 0.5"/>
      </g>
     </g>
     <g id="line2d_28">
      <g>
       <use xlink:href="#mefde0e790b" x="236.502896" y="18.566376" style="stroke: #000000; stroke-width: 0.5"/>
      </g>
     </g>
    </g>
    <g id="xtick_15">
     <g id="line2d_29">
      <g>
       <use xlink:href="#mec49b5abf3" x="247.701828" y="240.326376" style="stroke: #000000; stroke-width: 0.5"/>
      </g>
     </g>
     <g id="line2d_30">
      <g>
       <use xlink:href="#mefde0e790b" x="247.701828" y="18.566376" style="stroke: #000000; stroke-width: 0.5"/>
      </g>
     </g>
    </g>
    <g id="xtick_16">
     <g id="line2d_31">
      <g>
       <use xlink:href="#mec49b5abf3" x="256.852022" y="240.326376" style="stroke: #000000; stroke-width: 0.5"/>
      </g>
     </g>
     <g id="line2d_32">
      <g>
       <use xlink:href="#mefde0e790b" x="256.852022" y="18.566376" style="stroke: #000000; stroke-width: 0.5"/>
      </g>
     </g>
    </g>
    <g id="text_3">
     <!-- Grado (log) -->
     <g transform="translate(127.314645 264.154033) scale(0.1 -0.1)">
      <defs>
       <path id="CMR17-47" d="M 3974 1233 
C 3974 1473 3994 1505 4390 1505 
L 4390 1670 
C 4237 1664 3891 1664 3718 1664 
C 3539 1664 3040 1664 2797 1664 
L 2797 1505 
L 2989 1505 
C 3539 1505 3552 1434 3552 1201 
L 3552 774 
C 3552 63 2720 63 2522 63 
C 1862 63 781 511 781 2160 
C 781 3808 1843 4250 2464 4250 
C 3187 4250 3712 3626 3834 2741 
C 3846 2664 3846 2651 3904 2651 
C 3974 2651 3974 2664 3974 2779 
L 3974 4288 
C 3974 4402 3968 4409 3930 4409 
C 3904 4409 3898 4402 3853 4326 
L 3571 3791 
C 3258 4187 2874 4416 2381 4416 
C 1286 4416 294 3456 294 2148 
C 294 845 1267 -128 2394 -128 
C 2912 -128 3418 56 3616 417 
C 3725 158 3904 -20 3936 -20 
C 3968 -20 3974 -13 3974 100 
L 3974 1233 
z
" transform="scale(0.015625)"/>
       <path id="CMR17-72" d="M 960 1497 
C 960 2112 1222 2688 1702 2688 
C 1747 2688 1792 2682 1837 2662 
C 1837 2662 1696 2617 1696 2452 
C 1696 2298 1818 2234 1914 2234 
C 1990 2234 2131 2279 2131 2458 
C 2131 2663 1926 2790 1709 2790 
C 1222 2790 1011 2317 947 2093 
L 941 2093 
L 941 2790 
L 198 2720 
L 198 2554 
C 576 2554 634 2515 634 2208 
L 634 428 
C 634 184 608 153 198 153 
L 198 -13 
C 352 0 646 0 813 0 
C 998 0 1325 0 1498 -13 
L 1498 153 
C 1037 153 960 153 960 440 
L 960 1497 
z
" transform="scale(0.015625)"/>
       <path id="CMR17-61" d="M 2304 1653 
C 2304 2072 2304 2294 2035 2543 
C 1798 2752 1523 2816 1306 2816 
C 800 2816 435 2407 435 1971 
C 435 1728 627 1728 666 1728 
C 749 1728 896 1778 896 1954 
C 896 2112 774 2181 666 2181 
C 640 2181 608 2174 589 2168 
C 723 2592 1069 2714 1293 2714 
C 1613 2714 1965 2429 1965 1885 
L 1965 1600 
C 1587 1600 1133 1549 774 1357 
C 371 1133 256 813 256 570 
C 256 77 832 -64 1171 -64 
C 1523 -64 1850 139 1990 511 
C 2003 233 2182 -18 2464 -18 
C 2598 -18 2938 70 2938 567 
L 2938 920 
L 2822 920 
L 2822 562 
C 2822 178 2650 128 2566 128 
C 2304 128 2304 458 2304 738 
L 2304 1653 
z
M 1965 870 
C 1965 317 1568 38 1216 38 
C 896 38 646 275 646 570 
C 646 761 730 1100 1101 1305 
C 1408 1478 1760 1504 1965 1504 
L 1965 870 
z
" transform="scale(0.015625)"/>
       <path id="CMR17-64" d="M 1869 4326 
L 1869 4160 
C 2246 4160 2304 4122 2304 3820 
L 2304 2345 
C 2278 2377 2016 2790 1498 2790 
C 845 2790 211 2208 211 1364 
C 211 525 806 -64 1434 -64 
C 1978 -64 2259 337 2291 380 
L 2291 -63 
L 3066 -63 
L 3066 128 
C 2688 128 2630 166 2630 473 
L 2630 4396 
L 1869 4326 
z
M 2291 755 
C 2291 563 2176 390 2029 262 
C 1811 70 1594 38 1472 38 
C 1286 38 621 134 621 1356 
C 621 2612 1363 2688 1530 2688 
C 1824 2688 2061 2522 2208 2291 
C 2291 2157 2291 2138 2291 2023 
L 2291 755 
z
" transform="scale(0.015625)"/>
       <path id="CMR17-6f" d="M 2758 1356 
C 2758 2176 2163 2816 1466 2816 
C 768 2816 173 2176 173 1356 
C 173 551 768 -64 1466 -64 
C 2163 -64 2758 551 2758 1356 
z
M 1466 51 
C 1165 51 909 230 762 480 
C 602 767 582 1126 582 1408 
C 582 1677 595 2010 762 2298 
C 890 2509 1139 2714 1466 2714 
C 1754 2714 1997 2554 2150 2330 
C 2349 2029 2349 1607 2349 1408 
C 2349 1158 2336 775 2163 467 
C 1984 173 1709 51 1466 51 
z
" transform="scale(0.015625)"/>
       <path id="CMR17-28" d="M 1958 -1561 
C 1958 -1555 1958 -1542 1939 -1523 
C 1645 -1224 858 -407 858 1581 
C 858 3569 1632 4379 1946 4697 
C 1946 4704 1958 4717 1958 4736 
C 1958 4755 1939 4768 1914 4768 
C 1843 4768 1299 4296 986 3594 
C 666 2887 576 2199 576 1588 
C 576 1128 621 351 1005 -471 
C 1312 -1135 1837 -1600 1914 -1600 
C 1946 -1600 1958 -1587 1958 -1561 
z
" transform="scale(0.015625)"/>
       <path id="CMR17-6c" d="M 979 4396 
L 218 4326 
L 218 4160 
C 595 4160 653 4122 653 3817 
L 653 426 
C 653 184 627 153 218 153 
L 218 -13 
C 371 0 653 0 813 0 
C 979 0 1261 0 1414 -13 
L 1414 153 
C 1005 153 979 178 979 426 
L 979 4396 
z
" transform="scale(0.015625)"/>
       <path id="CMR17-67" d="M 710 1164 
C 832 1068 1043 960 1299 960 
C 1805 960 2240 1357 2240 1888 
C 2240 2054 2189 2310 1997 2509 
C 2176 2692 2438 2752 2586 2752 
C 2611 2752 2650 2752 2682 2734 
C 2656 2728 2598 2703 2598 2605 
C 2598 2527 2656 2471 2739 2471 
C 2835 2471 2886 2533 2886 2614 
C 2886 2731 2790 2854 2586 2854 
C 2330 2854 2106 2738 1926 2580 
C 1734 2753 1504 2816 1299 2816 
C 794 2816 358 2419 358 1888 
C 358 1522 570 1292 634 1228 
C 442 1004 442 743 442 711 
C 442 545 506 302 723 168 
C 390 85 128 -169 128 -486 
C 128 -943 736 -1280 1466 -1280 
C 2170 -1280 2803 -956 2803 -479 
C 2803 384 1856 384 1363 384 
C 1216 384 954 384 922 391 
C 723 423 589 602 589 826 
C 589 883 589 1024 710 1164 
z
M 1299 1068 
C 736 1068 736 1760 736 1889 
C 736 2016 736 2708 1299 2708 
C 1862 2708 1862 2016 1862 1889 
C 1862 1760 1862 1068 1299 1068 
z
M 1466 -1171 
C 826 -1171 384 -835 384 -486 
C 384 -289 493 -105 634 -4 
C 794 104 858 104 1293 104 
C 1818 104 2547 104 2547 -486 
C 2547 -835 2106 -1171 1466 -1171 
z
" transform="scale(0.015625)"/>
       <path id="CMR17-29" d="M 1683 1581 
C 1683 2040 1638 2817 1254 3639 
C 947 4303 422 4768 346 4768 
C 326 4768 301 4761 301 4729 
C 301 4717 307 4710 314 4697 
C 621 4378 1402 3568 1402 1584 
C 1402 -407 627 -1217 314 -1537 
C 307 -1549 301 -1556 301 -1568 
C 301 -1600 326 -1600 346 -1600 
C 416 -1600 960 -1128 1274 -426 
C 1594 281 1683 969 1683 1581 
z
" transform="scale(0.015625)"/>
      </defs>
      <use xlink:href="#CMR17-47" transform="scale(0.996264)"/>
      <use xlink:href="#CMR17-72" transform="translate(72.355346 0) scale(0.996264)"/>
      <use xlink:href="#CMR17-61" transform="translate(107.636114 0) scale(0.996264)"/>
      <use xlink:href="#CMR17-64" transform="translate(153.326591 0) scale(0.996264)"/>
      <use xlink:href="#CMR17-6f" transform="translate(204.221961 0) scale(0.996264)"/>
      <use xlink:href="#CMR17-28" transform="translate(279.988404 0) scale(0.996264)"/>
      <use xlink:href="#CMR17-6c" transform="translate(315.269172 0) scale(0.996264)"/>
      <use xlink:href="#CMR17-6f" transform="translate(340.14023 0) scale(0.996264)"/>
      <use xlink:href="#CMR17-67" transform="translate(385.830707 0) scale(0.996264)"/>
      <use xlink:href="#CMR17-29" transform="translate(431.521185 0) scale(0.996264)"/>
     </g>
    </g>
   </g>
   <g id="matplotlib.axis_2">
    <g id="ytick_1">
     <g id="line2d_33">
      <defs>
       <path id="m38f0d6f167" d="M 0 0 
L 3 0 
" style="stroke: #000000; stroke-width: 0.5"/>
      </defs>
      <g>
       <use xlink:href="#m38f0d6f167" x="41.223213" y="147.11437" style="stroke: #000000; stroke-width: 0.5"/>
      </g>
     </g>
     <g id="line2d_34">
      <defs>
       <path id="m936d67650d" d="M 0 0 
L -3 0 
" style="stroke: #000000; stroke-width: 0.5"/>
      </defs>
      <g>
       <use xlink:href="#m936d67650d" x="264.423213" y="147.11437" style="stroke: #000000; stroke-width: 0.5"/>
      </g>
     </g>
     <g id="text_4">
      <!-- $\mathdefault{10^{-2}}$ -->
      <g transform="translate(17.56264 150.573619) scale(0.1 -0.1)">
       <defs>
        <path id="CMSY10-0" d="M 4218 1472 
C 4326 1472 4442 1472 4442 1600 
C 4442 1728 4326 1728 4218 1728 
L 755 1728 
C 646 1728 531 1728 531 1600 
C 531 1472 646 1472 755 1472 
L 4218 1472 
z
" transform="scale(0.015625)"/>
        <path id="CMR17-32" d="M 2669 989 
L 2554 989 
C 2490 536 2438 459 2413 420 
C 2381 369 1920 369 1830 369 
L 602 369 
C 832 619 1280 1072 1824 1597 
C 2214 1967 2669 2402 2669 3035 
C 2669 3790 2067 4224 1395 4224 
C 691 4224 262 3604 262 3030 
C 262 2780 448 2748 525 2748 
C 589 2748 781 2787 781 3010 
C 781 3207 614 3264 525 3264 
C 486 3264 448 3258 422 3245 
C 544 3790 915 4058 1306 4058 
C 1862 4058 2227 3617 2227 3035 
C 2227 2479 1901 2000 1536 1584 
L 262 146 
L 262 0 
L 2515 0 
L 2669 989 
z
" transform="scale(0.015625)"/>
       </defs>
       <use xlink:href="#CMR17-31" transform="scale(0.996264)"/>
       <use xlink:href="#CMR17-30" transform="translate(45.690477 0) scale(0.996264)"/>
       <use xlink:href="#CMSY10-0" transform="translate(91.380954 36.153639) scale(0.697382)"/>
       <use xlink:href="#CMR17-32" transform="translate(145.621947 36.153639) scale(0.697382)"/>
      </g>
     </g>
    </g>
    <g id="ytick_2">
     <g id="line2d_35">
      <g>
       <use xlink:href="#m38f0d6f167" x="41.223213" y="53.037608" style="stroke: #000000; stroke-width: 0.5"/>
      </g>
     </g>
     <g id="line2d_36">
      <g>
       <use xlink:href="#m936d67650d" x="264.423213" y="53.037608" style="stroke: #000000; stroke-width: 0.5"/>
      </g>
     </g>
     <g id="text_5">
      <!-- $\mathdefault{10^{-1}}$ -->
      <g transform="translate(17.56264 56.496858) scale(0.1 -0.1)">
       <use xlink:href="#CMR17-31" transform="scale(0.996264)"/>
       <use xlink:href="#CMR17-30" transform="translate(45.690477 0) scale(0.996264)"/>
       <use xlink:href="#CMSY10-0" transform="translate(91.380954 36.153639) scale(0.697382)"/>
       <use xlink:href="#CMR17-31" transform="translate(145.621947 36.153639) scale(0.697382)"/>
      </g>
     </g>
    </g>
    <g id="ytick_3">
     <g id="line2d_37">
      <defs>
       <path id="m9bbac0f245" d="M 0 0 
L 1.5 0 
" style="stroke: #000000; stroke-width: 0.5"/>
      </defs>
      <g>
       <use xlink:href="#m9bbac0f245" x="41.223213" y="212.871204" style="stroke: #000000; stroke-width: 0.5"/>
      </g>
     </g>
     <g id="line2d_38">
      <defs>
       <path id="m5dac19665d" d="M 0 0 
L -1.5 0 
" style="stroke: #000000; stroke-width: 0.5"/>
      </defs>
      <g>
       <use xlink:href="#m5dac19665d" x="264.423213" y="212.871204" style="stroke: #000000; stroke-width: 0.5"/>
      </g>
     </g>
    </g>
    <g id="ytick_4">
     <g id="line2d_39">
      <g>
       <use xlink:href="#m9bbac0f245" x="41.223213" y="196.305109" style="stroke: #000000; stroke-width: 0.5"/>
      </g>
     </g>
     <g id="line2d_40">
      <g>
       <use xlink:href="#m5dac19665d" x="264.423213" y="196.305109" style="stroke: #000000; stroke-width: 0.5"/>
      </g>
     </g>
    </g>
    <g id="ytick_5">
     <g id="line2d_41">
      <g>
       <use xlink:href="#m9bbac0f245" x="41.223213" y="184.551277" style="stroke: #000000; stroke-width: 0.5"/>
      </g>
     </g>
     <g id="line2d_42">
      <g>
       <use xlink:href="#m5dac19665d" x="264.423213" y="184.551277" style="stroke: #000000; stroke-width: 0.5"/>
      </g>
     </g>
    </g>
    <g id="ytick_6">
     <g id="line2d_43">
      <g>
       <use xlink:href="#m9bbac0f245" x="41.223213" y="175.434297" style="stroke: #000000; stroke-width: 0.5"/>
      </g>
     </g>
     <g id="line2d_44">
      <g>
       <use xlink:href="#m5dac19665d" x="264.423213" y="175.434297" style="stroke: #000000; stroke-width: 0.5"/>
      </g>
     </g>
    </g>
    <g id="ytick_7">
     <g id="line2d_45">
      <g>
       <use xlink:href="#m9bbac0f245" x="41.223213" y="167.985182" style="stroke: #000000; stroke-width: 0.5"/>
      </g>
     </g>
     <g id="line2d_46">
      <g>
       <use xlink:href="#m5dac19665d" x="264.423213" y="167.985182" style="stroke: #000000; stroke-width: 0.5"/>
      </g>
     </g>
    </g>
    <g id="ytick_8">
     <g id="line2d_47">
      <g>
       <use xlink:href="#m9bbac0f245" x="41.223213" y="161.687045" style="stroke: #000000; stroke-width: 0.5"/>
      </g>
     </g>
     <g id="line2d_48">
      <g>
       <use xlink:href="#m5dac19665d" x="264.423213" y="161.687045" style="stroke: #000000; stroke-width: 0.5"/>
      </g>
     </g>
    </g>
    <g id="ytick_9">
     <g id="line2d_49">
      <g>
       <use xlink:href="#m9bbac0f245" x="41.223213" y="156.23135" style="stroke: #000000; stroke-width: 0.5"/>
      </g>
     </g>
     <g id="line2d_50">
      <g>
       <use xlink:href="#m5dac19665d" x="264.423213" y="156.23135" style="stroke: #000000; stroke-width: 0.5"/>
      </g>
     </g>
    </g>
    <g id="ytick_10">
     <g id="line2d_51">
      <g>
       <use xlink:href="#m9bbac0f245" x="41.223213" y="151.419087" style="stroke: #000000; stroke-width: 0.5"/>
      </g>
     </g>
     <g id="line2d_52">
      <g>
       <use xlink:href="#m5dac19665d" x="264.423213" y="151.419087" style="stroke: #000000; stroke-width: 0.5"/>
      </g>
     </g>
    </g>
    <g id="ytick_11">
     <g id="line2d_53">
      <g>
       <use xlink:href="#m9bbac0f245" x="41.223213" y="118.794443" style="stroke: #000000; stroke-width: 0.5"/>
      </g>
     </g>
     <g id="line2d_54">
      <g>
       <use xlink:href="#m5dac19665d" x="264.423213" y="118.794443" style="stroke: #000000; stroke-width: 0.5"/>
      </g>
     </g>
    </g>
    <g id="ytick_12">
     <g id="line2d_55">
      <g>
       <use xlink:href="#m9bbac0f245" x="41.223213" y="102.228348" style="stroke: #000000; stroke-width: 0.5"/>
      </g>
     </g>
     <g id="line2d_56">
      <g>
       <use xlink:href="#m5dac19665d" x="264.423213" y="102.228348" style="stroke: #000000; stroke-width: 0.5"/>
      </g>
     </g>
    </g>
    <g id="ytick_13">
     <g id="line2d_57">
      <g>
       <use xlink:href="#m9bbac0f245" x="41.223213" y="90.474516" style="stroke: #000000; stroke-width: 0.5"/>
      </g>
     </g>
     <g id="line2d_58">
      <g>
       <use xlink:href="#m5dac19665d" x="264.423213" y="90.474516" style="stroke: #000000; stroke-width: 0.5"/>
      </g>
     </g>
    </g>
    <g id="ytick_14">
     <g id="line2d_59">
      <g>
       <use xlink:href="#m9bbac0f245" x="41.223213" y="81.357536" style="stroke: #000000; stroke-width: 0.5"/>
      </g>
     </g>
     <g id="line2d_60">
      <g>
       <use xlink:href="#m5dac19665d" x="264.423213" y="81.357536" style="stroke: #000000; stroke-width: 0.5"/>
      </g>
     </g>
    </g>
    <g id="ytick_15">
     <g id="line2d_61">
      <g>
       <use xlink:href="#m9bbac0f245" x="41.223213" y="73.90842" style="stroke: #000000; stroke-width: 0.5"/>
      </g>
     </g>
     <g id="line2d_62">
      <g>
       <use xlink:href="#m5dac19665d" x="264.423213" y="73.90842" style="stroke: #000000; stroke-width: 0.5"/>
      </g>
     </g>
    </g>
    <g id="ytick_16">
     <g id="line2d_63">
      <g>
       <use xlink:href="#m9bbac0f245" x="41.223213" y="67.610283" style="stroke: #000000; stroke-width: 0.5"/>
      </g>
     </g>
     <g id="line2d_64">
      <g>
       <use xlink:href="#m5dac19665d" x="264.423213" y="67.610283" style="stroke: #000000; stroke-width: 0.5"/>
      </g>
     </g>
    </g>
    <g id="ytick_17">
     <g id="line2d_65">
      <g>
       <use xlink:href="#m9bbac0f245" x="41.223213" y="62.154589" style="stroke: #000000; stroke-width: 0.5"/>
      </g>
     </g>
     <g id="line2d_66">
      <g>
       <use xlink:href="#m5dac19665d" x="264.423213" y="62.154589" style="stroke: #000000; stroke-width: 0.5"/>
      </g>
     </g>
    </g>
    <g id="ytick_18">
     <g id="line2d_67">
      <g>
       <use xlink:href="#m9bbac0f245" x="41.223213" y="57.342325" style="stroke: #000000; stroke-width: 0.5"/>
      </g>
     </g>
     <g id="line2d_68">
      <g>
       <use xlink:href="#m5dac19665d" x="264.423213" y="57.342325" style="stroke: #000000; stroke-width: 0.5"/>
      </g>
     </g>
    </g>
    <g id="ytick_19">
     <g id="line2d_69">
      <g>
       <use xlink:href="#m9bbac0f245" x="41.223213" y="24.717681" style="stroke: #000000; stroke-width: 0.5"/>
      </g>
     </g>
     <g id="line2d_70">
      <g>
       <use xlink:href="#m5dac19665d" x="264.423213" y="24.717681" style="stroke: #000000; stroke-width: 0.5"/>
      </g>
     </g>
    </g>
    <g id="text_6">
     <!-- Probabilidad (log) -->
     <g transform="translate(11.07198 169.380067) rotate(-90) scale(0.1 -0.1)">
      <defs>
       <path id="CMR17-50" d="M 1267 2042 
L 2291 2042 
C 3117 2042 3718 2578 3718 3184 
C 3718 3791 3130 4352 2291 4352 
L 333 4352 
L 333 4186 
C 774 4186 845 4186 845 3899 
L 845 446 
C 845 160 774 160 333 160 
L 333 0 
C 518 0 858 0 1056 0 
C 1254 0 1594 0 1779 0 
L 1779 160 
C 1338 160 1267 160 1267 446 
L 1267 2042 
z
M 1254 2176 
L 1254 3938 
C 1254 4155 1267 4186 1523 4186 
L 2170 4186 
C 2995 4186 3232 3714 3232 3184 
C 3232 2604 2950 2176 2170 2176 
L 1254 2176 
z
" transform="scale(0.015625)"/>
       <path id="CMR17-62" d="M 960 4396 
L 198 4326 
L 198 4160 
C 576 4160 634 4122 634 3817 
L 634 -13 
L 749 -13 
L 934 441 
C 1120 141 1395 -64 1766 -64 
C 2406 -64 3053 500 3053 1370 
C 3053 2188 2477 2790 1830 2790 
C 1434 2790 1152 2579 960 2330 
L 960 4396 
z
M 973 2004 
C 973 2118 973 2138 1062 2272 
C 1312 2657 1670 2688 1792 2688 
C 1984 2688 2643 2585 2643 1376 
C 2643 108 1888 38 1734 38 
C 1536 38 1248 114 1043 486 
C 973 608 973 621 973 735 
L 973 2004 
z
" transform="scale(0.015625)"/>
       <path id="CMR17-69" d="M 992 3909 
C 992 4049 877 4170 730 4170 
C 589 4170 467 4056 467 3909 
C 467 3769 582 3648 730 3648 
C 870 3648 992 3763 992 3909 
z
M 243 2706 
L 243 2541 
C 602 2541 653 2502 653 2197 
L 653 427 
C 653 184 627 153 218 153 
L 218 -13 
C 371 0 646 0 806 0 
C 960 0 1222 0 1370 -13 
L 1370 153 
C 992 153 979 191 979 420 
L 979 2776 
L 243 2706 
z
" transform="scale(0.015625)"/>
      </defs>
      <use xlink:href="#CMR17-50" transform="scale(0.996264)"/>
      <use xlink:href="#CMR17-72" transform="translate(62.586301 0) scale(0.996264)"/>
      <use xlink:href="#CMR17-6f" transform="translate(97.867068 0) scale(0.996264)"/>
      <use xlink:href="#CMR17-62" transform="translate(143.557545 0) scale(0.996264)"/>
      <use xlink:href="#CMR17-61" transform="translate(194.452915 0) scale(0.996264)"/>
      <use xlink:href="#CMR17-62" transform="translate(240.143392 0) scale(0.996264)"/>
      <use xlink:href="#CMR17-69" transform="translate(291.038762 0) scale(0.996264)"/>
      <use xlink:href="#CMR17-6c" transform="translate(315.909821 0) scale(0.996264)"/>
      <use xlink:href="#CMR17-69" transform="translate(340.780879 0) scale(0.996264)"/>
      <use xlink:href="#CMR17-64" transform="translate(365.651938 0) scale(0.996264)"/>
      <use xlink:href="#CMR17-61" transform="translate(416.547307 0) scale(0.996264)"/>
      <use xlink:href="#CMR17-64" transform="translate(462.237784 0) scale(0.996264)"/>
      <use xlink:href="#CMR17-28" transform="translate(543.209121 0) scale(0.996264)"/>
      <use xlink:href="#CMR17-6c" transform="translate(578.489888 0) scale(0.996264)"/>
      <use xlink:href="#CMR17-6f" transform="translate(603.360947 0) scale(0.996264)"/>
      <use xlink:href="#CMR17-67" transform="translate(649.051424 0) scale(0.996264)"/>
      <use xlink:href="#CMR17-29" transform="translate(694.741901 0) scale(0.996264)"/>
     </g>
    </g>
   </g>
   <g id="line2d_71">
    <defs>
     <path id="mdf9cfaebeb" d="M 0 3 
C 0.795609 3 1.55874 2.683901 2.12132 2.12132 
C 2.683901 1.55874 3 0.795609 3 0 
C 3 -0.795609 2.683901 -1.55874 2.12132 -2.12132 
C 1.55874 -2.683901 0.795609 -3 0 -3 
C -0.795609 -3 -1.55874 -2.683901 -2.12132 -2.12132 
C -2.683901 -1.55874 -3 -0.795609 -3 0 
C -3 0.795609 -2.683901 1.55874 -2.12132 2.12132 
C -1.55874 2.683901 -0.795609 3 0 3 
z
" style="stroke: #9fa3d5"/>
    </defs>
    <g clip-path="url(#p48ef6c9b84)">
     <use xlink:href="#mdf9cfaebeb" x="51.368668" y="150.742289" style="fill: #9fa3d5; stroke: #9fa3d5"/>
     <use xlink:href="#mdf9cfaebeb" x="86.155727" y="116.966668" style="fill: #9fa3d5; stroke: #9fa3d5"/>
     <use xlink:href="#mdf9cfaebeb" x="106.504853" y="97.130266" style="fill: #9fa3d5; stroke: #9fa3d5"/>
     <use xlink:href="#mdf9cfaebeb" x="120.942787" y="82.715036" style="fill: #9fa3d5; stroke: #9fa3d5"/>
     <use xlink:href="#mdf9cfaebeb" x="132.141718" y="86.169799" style="fill: #9fa3d5; stroke: #9fa3d5"/>
     <use xlink:href="#mdf9cfaebeb" x="141.291912" y="73.819504" style="fill: #9fa3d5; stroke: #9fa3d5"/>
     <use xlink:href="#mdf9cfaebeb" x="149.02829" y="78.520894" style="fill: #9fa3d5; stroke: #9fa3d5"/>
     <use xlink:href="#mdf9cfaebeb" x="155.729846" y="88.646741" style="fill: #9fa3d5; stroke: #9fa3d5"/>
     <use xlink:href="#mdf9cfaebeb" x="161.641037" y="68.032086" style="fill: #9fa3d5; stroke: #9fa3d5"/>
     <use xlink:href="#mdf9cfaebeb" x="166.928778" y="68.810339" style="fill: #9fa3d5; stroke: #9fa3d5"/>
     <use xlink:href="#mdf9cfaebeb" x="171.712121" y="76.574954" style="fill: #9fa3d5; stroke: #9fa3d5"/>
     <use xlink:href="#mdf9cfaebeb" x="176.078971" y="74.717497" style="fill: #9fa3d5; stroke: #9fa3d5"/>
     <use xlink:href="#mdf9cfaebeb" x="180.096084" y="76.574954" style="fill: #9fa3d5; stroke: #9fa3d5"/>
     <use xlink:href="#mdf9cfaebeb" x="183.81535" y="91.283592" style="fill: #9fa3d5; stroke: #9fa3d5"/>
     <use xlink:href="#mdf9cfaebeb" x="187.277903" y="95.588309" style="fill: #9fa3d5; stroke: #9fa3d5"/>
     <use xlink:href="#mdf9cfaebeb" x="190.516905" y="122.422362" style="fill: #9fa3d5; stroke: #9fa3d5"/>
     <use xlink:href="#mdf9cfaebeb" x="193.55948" y="109.945379" style="fill: #9fa3d5; stroke: #9fa3d5"/>
     <use xlink:href="#mdf9cfaebeb" x="196.428096" y="109.945379" style="fill: #9fa3d5; stroke: #9fa3d5"/>
     <use xlink:href="#mdf9cfaebeb" x="199.141574" y="164.489542" style="fill: #9fa3d5; stroke: #9fa3d5"/>
     <use xlink:href="#mdf9cfaebeb" x="201.715837" y="95.588309" style="fill: #9fa3d5; stroke: #9fa3d5"/>
     <use xlink:href="#mdf9cfaebeb" x="204.164475" y="230.246376" style="fill: #9fa3d5; stroke: #9fa3d5"/>
     <use xlink:href="#mdf9cfaebeb" x="206.49918" y="112.154404" style="fill: #9fa3d5; stroke: #9fa3d5"/>
     <use xlink:href="#mdf9cfaebeb" x="208.730086" y="109.945379" style="fill: #9fa3d5; stroke: #9fa3d5"/>
     <use xlink:href="#mdf9cfaebeb" x="210.866031" y="230.246376" style="fill: #9fa3d5; stroke: #9fa3d5"/>
     <use xlink:href="#mdf9cfaebeb" x="212.914769" y="173.606522" style="fill: #9fa3d5; stroke: #9fa3d5"/>
     <use xlink:href="#mdf9cfaebeb" x="214.883143" y="95.588309" style="fill: #9fa3d5; stroke: #9fa3d5"/>
     <use xlink:href="#mdf9cfaebeb" x="216.777222" y="230.246376" style="fill: #9fa3d5; stroke: #9fa3d5"/>
     <use xlink:href="#mdf9cfaebeb" x="218.602409" y="201.926449" style="fill: #9fa3d5; stroke: #9fa3d5"/>
     <use xlink:href="#mdf9cfaebeb" x="220.363541" y="230.246376" style="fill: #9fa3d5; stroke: #9fa3d5"/>
     <use xlink:href="#mdf9cfaebeb" x="222.064962" y="185.360354" style="fill: #9fa3d5; stroke: #9fa3d5"/>
     <use xlink:href="#mdf9cfaebeb" x="223.710589" y="69.603704" style="fill: #9fa3d5; stroke: #9fa3d5"/>
     <use xlink:href="#mdf9cfaebeb" x="225.303965" y="173.606522" style="fill: #9fa3d5; stroke: #9fa3d5"/>
     <use xlink:href="#mdf9cfaebeb" x="226.848305" y="201.926449" style="fill: #9fa3d5; stroke: #9fa3d5"/>
     <use xlink:href="#mdf9cfaebeb" x="228.34654" y="230.246376" style="fill: #9fa3d5; stroke: #9fa3d5"/>
     <use xlink:href="#mdf9cfaebeb" x="229.801341" y="201.926449" style="fill: #9fa3d5; stroke: #9fa3d5"/>
     <use xlink:href="#mdf9cfaebeb" x="231.215156" y="185.360354" style="fill: #9fa3d5; stroke: #9fa3d5"/>
     <use xlink:href="#mdf9cfaebeb" x="236.502896" y="185.360354" style="fill: #9fa3d5; stroke: #9fa3d5"/>
     <use xlink:href="#mdf9cfaebeb" x="237.742147" y="201.926449" style="fill: #9fa3d5; stroke: #9fa3d5"/>
     <use xlink:href="#mdf9cfaebeb" x="238.951534" y="230.246376" style="fill: #9fa3d5; stroke: #9fa3d5"/>
     <use xlink:href="#mdf9cfaebeb" x="240.132462" y="230.246376" style="fill: #9fa3d5; stroke: #9fa3d5"/>
     <use xlink:href="#mdf9cfaebeb" x="242.414087" y="230.246376" style="fill: #9fa3d5; stroke: #9fa3d5"/>
     <use xlink:href="#mdf9cfaebeb" x="254.277759" y="230.246376" style="fill: #9fa3d5; stroke: #9fa3d5"/>
    </g>
   </g>
   <g id="line2d_72">
    <path d="M 51.368668 28.646376 
L 86.155727 57.292101 
L 106.504853 74.048776 
L 120.942787 85.937826 
L 132.141718 95.159689 
L 141.291912 102.6945 
L 149.02829 109.065093 
L 155.729846 114.58355 
L 161.641037 119.451175 
L 166.928778 123.805414 
L 171.712121 127.744302 
L 176.078971 131.340225 
L 180.096084 134.648154 
L 183.81535 137.710817 
L 187.277903 140.562089 
L 190.516905 143.229275 
L 193.55948 145.734712 
L 196.428096 148.0969 
L 199.141574 150.331339 
L 201.715837 152.451139 
L 204.164475 154.467492 
L 206.49918 156.390027 
L 208.730086 158.227087 
L 210.866031 159.98595 
L 212.914769 161.673002 
L 214.883143 163.293879 
L 216.777222 164.853575 
L 218.602409 166.356542 
L 220.363541 167.806763 
L 222.064962 169.207814 
L 223.710589 170.56292 
L 225.303965 171.875 
L 226.848305 173.146702 
L 228.34654 174.380436 
L 229.801341 175.578406 
L 231.215156 176.742625 
L 236.502896 181.096864 
L 237.742147 182.117336 
L 238.951534 183.113217 
L 240.132462 184.085663 
L 242.414087 185.964488 
L 254.277759 195.733738 
" clip-path="url(#p48ef6c9b84)" style="fill: none; stroke-dasharray: 3.7,1.6; stroke-dashoffset: 0; stroke: #3b4285"/>
   </g>
   <g id="patch_3">
    <path d="M 41.223213 240.326376 
L 41.223213 18.566376 
" style="fill: none; stroke: #000000; stroke-width: 0.5; stroke-linejoin: miter; stroke-linecap: square"/>
   </g>
   <g id="patch_4">
    <path d="M 264.423213 240.326376 
L 264.423213 18.566376 
" style="fill: none; stroke: #000000; stroke-width: 0.5; stroke-linejoin: miter; stroke-linecap: square"/>
   </g>
   <g id="patch_5">
    <path d="M 41.223213 240.326376 
L 264.423213 240.326376 
" style="fill: none; stroke: #000000; stroke-width: 0.5; stroke-linejoin: miter; stroke-linecap: square"/>
   </g>
   <g id="patch_6">
    <path d="M 41.223213 18.566376 
L 264.423213 18.566376 
" style="fill: none; stroke: #000000; stroke-width: 0.5; stroke-linejoin: miter; stroke-linecap: square"/>
   </g>
   <g id="text_7">
    <!-- Distribución de grados (escala logarítmica) -->
    <g transform="translate(42.901839 12.566376) scale(0.12 -0.12)">
     <defs>
      <path id="CMR17-44" d="M 333 4352 
L 333 4186 
C 774 4186 845 4186 845 3900 
L 845 452 
C 845 166 774 166 333 166 
L 333 0 
L 2368 0 
C 3398 0 4224 943 4224 2141 
C 4224 3346 3411 4352 2368 4352 
L 333 4352 
z
M 1523 166 
C 1267 166 1254 197 1254 414 
L 1254 3938 
C 1254 4155 1267 4186 1523 4186 
L 2240 4186 
C 2771 4186 3750 3874 3750 2141 
C 3750 1242 3488 879 3366 707 
C 3213 510 2848 166 2240 166 
L 1523 166 
z
" transform="scale(0.015625)"/>
      <path id="CMR17-73" d="M 1978 2697 
C 1978 2813 1971 2819 1933 2819 
C 1907 2819 1901 2813 1824 2717 
C 1805 2691 1747 2626 1728 2601 
C 1523 2819 1235 2819 1126 2819 
C 416 2819 160 2447 160 2076 
C 160 1498 813 1365 998 1325 
C 1402 1243 1542 1217 1677 1101 
C 1760 1025 1901 884 1901 654 
C 1901 384 1747 38 1158 38 
C 602 38 403 460 288 1021 
C 269 1110 269 1117 218 1117 
C 166 1117 160 1110 160 983 
L 160 63 
C 160 -51 166 -58 205 -58 
C 237 -58 243 -51 275 0 
C 314 57 410 211 448 276 
C 576 103 800 -64 1158 -64 
C 1792 -64 2131 283 2131 784 
C 2131 1112 1958 1285 1875 1362 
C 1683 1561 1459 1606 1190 1657 
C 838 1735 390 1825 390 2217 
C 390 2383 480 2737 1126 2737 
C 1811 2737 1850 2094 1862 1888 
C 1869 1856 1901 1849 1920 1849 
C 1978 1849 1978 1869 1978 1978 
L 1978 2697 
z
" transform="scale(0.015625)"/>
      <path id="CMR17-74" d="M 966 2560 
L 1862 2560 
L 1862 2725 
L 966 2725 
L 966 3904 
L 851 3904 
C 838 3245 614 2668 70 2668 
L 70 2560 
L 627 2560 
L 627 771 
C 627 650 627 -64 1370 -64 
C 1747 -64 1965 306 1965 777 
L 1965 1140 
L 1850 1140 
L 1850 783 
C 1850 344 1677 51 1408 51 
C 1222 51 966 178 966 758 
L 966 2560 
z
" transform="scale(0.015625)"/>
      <path id="CMR17-75" d="M 1882 2693 
L 1882 2528 
C 2259 2528 2317 2489 2317 2186 
L 2317 1032 
C 2317 500 2029 38 1555 38 
C 1030 38 986 348 986 678 
L 986 2763 
L 211 2693 
L 211 2528 
C 467 2528 640 2528 646 2274 
L 646 1058 
C 646 633 646 361 813 183 
C 896 101 1056 -64 1517 -64 
C 2061 -64 2272 377 2323 506 
L 2330 506 
L 2330 -63 
L 3091 -63 
L 3091 128 
C 2714 128 2656 166 2656 473 
L 2656 2763 
L 1882 2693 
z
" transform="scale(0.015625)"/>
      <path id="CMR17-63" d="M 2234 2240 
C 2112 2240 1933 2240 1933 2017 
C 1933 1838 2080 1787 2163 1787 
C 2208 1787 2394 1807 2394 2024 
C 2394 2467 1958 2803 1466 2803 
C 787 2803 211 2178 211 1363 
C 211 516 813 -64 1466 -64 
C 2259 -64 2458 677 2458 748 
C 2458 774 2451 793 2406 793 
C 2362 793 2355 787 2330 703 
C 2163 180 1798 51 1523 51 
C 1114 51 621 427 621 1369 
C 621 2338 1094 2688 1472 2688 
C 1722 2688 2093 2573 2234 2240 
z
" transform="scale(0.015625)"/>
      <path id="CMR17-13" d="M 2221 4091 
C 2298 4161 2317 4174 2317 4244 
C 2317 4339 2234 4416 2144 4416 
C 2067 4416 2042 4384 1978 4308 
L 1254 3390 
C 1210 3333 1210 3327 1210 3320 
C 1210 3314 1267 3256 1280 3244 
L 2221 4091 
z
" transform="scale(0.015625)"/>
      <path id="CMR17-6e" d="M 2656 1933 
C 2656 2259 2592 2790 1837 2790 
C 1331 2790 1069 2400 973 2144 
L 966 2144 
L 966 2790 
L 211 2720 
L 211 2554 
C 589 2554 646 2515 646 2208 
L 646 428 
C 646 184 621 153 211 153 
L 211 -13 
C 365 0 646 0 813 0 
C 979 0 1267 0 1421 -13 
L 1421 153 
C 1011 153 986 178 986 428 
L 986 1658 
C 986 2247 1344 2688 1792 2688 
C 2266 2688 2317 2266 2317 1958 
L 2317 428 
C 2317 184 2291 153 1882 153 
L 1882 -13 
C 2035 0 2317 0 2483 0 
C 2650 0 2938 0 3091 -13 
L 3091 153 
C 2682 153 2656 178 2656 428 
L 2656 1933 
z
" transform="scale(0.015625)"/>
      <path id="CMR17-65" d="M 2438 1472 
C 2464 1498 2464 1511 2464 1576 
C 2464 2238 2118 2816 1389 2816 
C 710 2816 173 2169 173 1383 
C 173 551 781 -64 1459 -64 
C 2176 -64 2458 607 2458 740 
C 2458 784 2419 784 2406 784 
C 2362 784 2355 771 2330 696 
C 2189 265 1837 51 1504 51 
C 1229 51 954 203 781 480 
C 582 803 582 1176 582 1472 
L 2438 1472 
z
M 589 1568 
C 634 2505 1126 2714 1382 2714 
C 1818 2714 2112 2297 2118 1568 
L 589 1568 
z
" transform="scale(0.015625)"/>
      <path id="CMR17-10" d="M 979 2763 
L 243 2693 
L 243 2528 
C 602 2528 653 2489 653 2186 
L 653 425 
C 653 184 627 153 218 153 
L 218 -13 
C 371 0 646 0 806 0 
C 960 0 1222 0 1370 -13 
L 1370 153 
C 992 153 979 191 979 419 
L 979 2763 
z
" transform="scale(0.015625)"/>
      <path id="CMR17-6d" d="M 4326 1933 
C 4326 2252 4269 2790 3507 2790 
C 3072 2790 2771 2496 2656 2151 
L 2650 2151 
C 2573 2676 2195 2790 1837 2790 
C 1331 2790 1069 2400 973 2144 
L 966 2144 
L 966 2790 
L 211 2720 
L 211 2554 
C 589 2554 646 2515 646 2208 
L 646 428 
C 646 184 621 153 211 153 
L 211 -13 
C 365 0 646 0 813 0 
C 979 0 1267 0 1421 -13 
L 1421 153 
C 1011 153 986 178 986 428 
L 986 1658 
C 986 2247 1344 2688 1792 2688 
C 2266 2688 2317 2266 2317 1958 
L 2317 428 
C 2317 184 2291 153 1882 153 
L 1882 -13 
C 2035 0 2317 0 2483 0 
C 2650 0 2938 0 3091 -13 
L 3091 153 
C 2682 153 2656 178 2656 428 
L 2656 1658 
C 2656 2247 3014 2688 3462 2688 
C 3936 2688 3987 2266 3987 1958 
L 3987 428 
C 3987 184 3962 153 3552 153 
L 3552 -13 
C 3706 0 3987 0 4154 0 
C 4320 0 4608 0 4762 -13 
L 4762 153 
C 4352 153 4326 178 4326 428 
L 4326 1933 
z
" transform="scale(0.015625)"/>
     </defs>
     <use xlink:href="#CMR17-44" transform="scale(0.996264)"/>
     <use xlink:href="#CMR17-69" transform="translate(70.393556 0) scale(0.996264)"/>
     <use xlink:href="#CMR17-73" transform="translate(95.264614 0) scale(0.996264)"/>
     <use xlink:href="#CMR17-74" transform="translate(131.065952 0) scale(0.996264)"/>
     <use xlink:href="#CMR17-72" transform="translate(166.34672 0) scale(0.996264)"/>
     <use xlink:href="#CMR17-69" transform="translate(201.627488 0) scale(0.996264)"/>
     <use xlink:href="#CMR17-62" transform="translate(226.498546 0) scale(0.996264)"/>
     <use xlink:href="#CMR17-75" transform="translate(277.393916 0) scale(0.996264)"/>
     <use xlink:href="#CMR17-63" transform="translate(328.289286 0) scale(0.996264)"/>
     <use xlink:href="#CMR17-69" transform="translate(368.774946 0) scale(0.996264)"/>
     <use xlink:href="#CMR17-13" transform="translate(393.646005 0) scale(0.996264)"/>
     <use xlink:href="#CMR17-6f" transform="translate(393.646005 0) scale(0.996264)"/>
     <use xlink:href="#CMR17-6e" transform="translate(439.336482 0) scale(0.996264)"/>
     <use xlink:href="#CMR17-64" transform="translate(520.307818 0) scale(0.996264)"/>
     <use xlink:href="#CMR17-65" transform="translate(571.203188 0) scale(0.996264)"/>
     <use xlink:href="#CMR17-67" transform="translate(641.764814 0) scale(0.996264)"/>
     <use xlink:href="#CMR17-72" transform="translate(687.455292 0) scale(0.996264)"/>
     <use xlink:href="#CMR17-61" transform="translate(722.736059 0) scale(0.996264)"/>
     <use xlink:href="#CMR17-64" transform="translate(768.426536 0) scale(0.996264)"/>
     <use xlink:href="#CMR17-6f" transform="translate(819.321906 0) scale(0.996264)"/>
     <use xlink:href="#CMR17-73" transform="translate(865.012383 0) scale(0.996264)"/>
     <use xlink:href="#CMR17-28" transform="translate(930.889687 0) scale(0.996264)"/>
     <use xlink:href="#CMR17-65" transform="translate(966.170455 0) scale(0.996264)"/>
     <use xlink:href="#CMR17-73" transform="translate(1006.656116 0) scale(0.996264)"/>
     <use xlink:href="#CMR17-63" transform="translate(1042.457453 0) scale(0.996264)"/>
     <use xlink:href="#CMR17-61" transform="translate(1082.943114 0) scale(0.996264)"/>
     <use xlink:href="#CMR17-6c" transform="translate(1128.633591 0) scale(0.996264)"/>
     <use xlink:href="#CMR17-61" transform="translate(1153.504649 0) scale(0.996264)"/>
     <use xlink:href="#CMR17-6c" transform="translate(1229.271093 0) scale(0.996264)"/>
     <use xlink:href="#CMR17-6f" transform="translate(1254.142151 0) scale(0.996264)"/>
     <use xlink:href="#CMR17-67" transform="translate(1299.832628 0) scale(0.996264)"/>
     <use xlink:href="#CMR17-61" transform="translate(1345.523105 0) scale(0.996264)"/>
     <use xlink:href="#CMR17-72" transform="translate(1391.213583 0) scale(0.996264)"/>
     <use xlink:href="#CMR17-13" transform="translate(1416.084641 0) scale(0.996264)"/>
     <use xlink:href="#CMR17-10" transform="translate(1426.49435 0) scale(0.996264)"/>
     <use xlink:href="#CMR17-74" transform="translate(1451.365409 0) scale(0.996264)"/>
     <use xlink:href="#CMR17-6d" transform="translate(1486.646177 0) scale(0.996264)"/>
     <use xlink:href="#CMR17-69" transform="translate(1563.565767 0) scale(0.996264)"/>
     <use xlink:href="#CMR17-63" transform="translate(1588.436825 0) scale(0.996264)"/>
     <use xlink:href="#CMR17-61" transform="translate(1628.922486 0) scale(0.996264)"/>
     <use xlink:href="#CMR17-29" transform="translate(1674.612963 0) scale(0.996264)"/>
    </g>
   </g>
   <g id="legend_1">
    <g id="line2d_73">
     <path d="M 172.573237 31.066376 
L 182.573237 31.066376 
L 192.573237 31.066376 
" style="fill: none; stroke-dasharray: 3.7,1.6; stroke-dashoffset: 0; stroke: #3b4285"/>
    </g>
    <g id="text_8">
     <!-- Ajuste lineal -->
     <g transform="translate(200.573237 34.566376) scale(0.1 -0.1)">
      <defs>
       <path id="CMR17-41" d="M 2323 4378 
C 2291 4461 2278 4480 2214 4480 
C 2150 4480 2138 4461 2106 4378 
L 749 566 
C 627 223 371 153 147 153 
L 147 -13 
C 262 0 518 0 640 0 
C 800 0 1056 0 1210 -13 
L 1210 153 
C 909 153 864 361 864 439 
C 864 497 877 530 890 569 
L 1229 1536 
L 2906 1536 
L 3290 442 
C 3322 365 3322 352 3322 327 
C 3322 153 3046 153 2925 153 
L 2925 0 
C 3110 0 3443 0 3642 0 
C 3808 0 4128 0 4282 -13 
L 4282 153 
C 3942 153 3827 153 3744 387 
L 2323 4378 
z
M 2067 3893 
L 2848 1702 
L 1286 1702 
L 2067 3893 
z
" transform="scale(0.015625)"/>
       <path id="CMR17-6a" d="M 1165 3963 
C 1165 4103 1050 4224 902 4224 
C 762 4224 640 4110 640 3963 
C 640 3823 755 3702 902 3702 
C 1043 3702 1165 3817 1165 3963 
z
M 365 2754 
L 365 2588 
C 787 2588 838 2543 838 2235 
L 838 -359 
C 838 -678 781 -1178 403 -1178 
C 358 -1178 186 -1178 45 -1082 
C 90 -1075 250 -1031 250 -851 
C 250 -729 166 -621 19 -621 
C -122 -621 -211 -717 -211 -858 
C -211 -1114 70 -1280 397 -1280 
C 838 -1280 1165 -877 1165 -332 
L 1165 2825 
L 365 2754 
z
" transform="scale(0.015625)"/>
      </defs>
      <use xlink:href="#CMR17-41" transform="scale(0.996264)"/>
      <use xlink:href="#CMR17-6a" transform="translate(69.07243 0) scale(0.996264)"/>
      <use xlink:href="#CMR17-75" transform="translate(96.545942 0) scale(0.996264)"/>
      <use xlink:href="#CMR17-73" transform="translate(147.441312 0) scale(0.996264)"/>
      <use xlink:href="#CMR17-74" transform="translate(183.24265 0) scale(0.996264)"/>
      <use xlink:href="#CMR17-65" transform="translate(218.523417 0) scale(0.996264)"/>
      <use xlink:href="#CMR17-6c" transform="translate(289.085044 0) scale(0.996264)"/>
      <use xlink:href="#CMR17-69" transform="translate(313.956103 0) scale(0.996264)"/>
      <use xlink:href="#CMR17-6e" transform="translate(338.827161 0) scale(0.996264)"/>
      <use xlink:href="#CMR17-65" transform="translate(389.722531 0) scale(0.996264)"/>
      <use xlink:href="#CMR17-61" transform="translate(430.208191 0) scale(0.996264)"/>
      <use xlink:href="#CMR17-6c" transform="translate(475.898669 0) scale(0.996264)"/>
     </g>
    </g>
   </g>
  </g>
 </g>
 <defs>
  <clipPath id="p48ef6c9b84">
   <rect x="41.223213" y="18.566376" width="223.2" height="221.76"/>
  </clipPath>
 </defs>
</svg>
