<?xml version="1.0" encoding="utf-8" standalone="no"?>
<!DOCTYPE svg PUBLIC "-//W3C//DTD SVG 1.1//EN"
  "http://www.w3.org/Graphics/SVG/1.1/DTD/svg11.dtd">
<svg xmlns:xlink="http://www.w3.org/1999/xlink" width="146.7pt" height="145.8pt" viewBox="0 0 146.7 145.8" xmlns="http://www.w3.org/2000/svg" version="1.1">
 <metadata>
  <rdf:RDF xmlns:dc="http://purl.org/dc/elements/1.1/" xmlns:cc="http://creativecommons.org/ns#" xmlns:rdf="http://www.w3.org/1999/02/22-rdf-syntax-ns#">
   <cc:Work>
    <dc:type rdf:resource="http://purl.org/dc/dcmitype/StillImage"/>
    <dc:date>2025-05-06T00:28:02.193042</dc:date>
    <dc:format>image/svg+xml</dc:format>
    <dc:creator>
     <cc:Agent>
      <dc:title>Matplotlib v3.10.1, https://matplotlib.org/</dc:title>
     </cc:Agent>
    </dc:creator>
   </cc:Work>
  </rdf:RDF>
 </metadata>
 <defs>
  <style type="text/css">*{stroke-linejoin: round; stroke-linecap: butt}</style>
 </defs>
 <g id="figure_1">
  <g id="patch_1">
   <path d="M 0 145.8 
L 146.7 145.8 
L 146.7 0 
L 0 0 
z
" style="fill: #ffffff"/>
  </g>
  <g id="axes_1">
   <g id="LineCollection_1">
    <path d="M 41.5747 114.630139 
L 36.496723 94.707403 
" clip-path="url(#p5091409850)" style="fill: none; stroke: #7976b8; stroke-opacity: 0.6; stroke-width: 0.4"/>
    <path d="M 55.68011 79.198427 
L 36.496723 94.707403 
" clip-path="url(#p5091409850)" style="fill: none; stroke: #7976b8; stroke-opacity: 0.6; stroke-width: 0.4"/>
    <path d="M 112.714999 132.778243 
L 101.59302 101.283039 
" clip-path="url(#p5091409850)" style="fill: none; stroke: #7976b8; stroke-opacity: 0.6; stroke-width: 0.4"/>
    <path d="M 14.834913 70.3431 
L 36.496723 94.707403 
" clip-path="url(#p5091409850)" style="fill: none; stroke: #7976b8; stroke-opacity: 0.6; stroke-width: 0.4"/>
   </g>
   <g id="PathCollection_1">
    <defs>
     <path id="mff9b4dbee9" d="M 0 1.936492 
C 0.513564 1.936492 1.006162 1.732451 1.369306 1.369306 
C 1.732451 1.006162 1.936492 0.513564 1.936492 0 
C 1.936492 -0.513564 1.732451 -1.006162 1.369306 -1.369306 
C 1.006162 -1.732451 0.513564 -1.936492 0 -1.936492 
C -0.513564 -1.936492 -1.006162 -1.732451 -1.369306 -1.369306 
C -1.732451 -1.006162 -1.936492 -0.513564 -1.936492 0 
C -1.936492 0.513564 -1.732451 1.006162 -1.369306 1.369306 
C -1.006162 1.732451 -0.513564 1.936492 0 1.936492 
z
" style="stroke: #201f3d; stroke-width: 0.1"/>
    </defs>
    <g clip-path="url(#p5091409850)">
     <use xlink:href="#mff9b4dbee9" x="55.68011" y="79.198427" style="fill: #201f3d; stroke: #201f3d; stroke-width: 0.1"/>
     <use xlink:href="#mff9b4dbee9" x="14.834913" y="70.3431" style="fill: #201f3d; stroke: #201f3d; stroke-width: 0.1"/>
     <use xlink:href="#mff9b4dbee9" x="54.715565" y="119.810025" style="fill: #201f3d; stroke: #201f3d; stroke-width: 0.1"/>
     <use xlink:href="#mff9b4dbee9" x="64.193792" y="57.707285" style="fill: #201f3d; stroke: #201f3d; stroke-width: 0.1"/>
     <use xlink:href="#mff9b4dbee9" x="41.5747" y="114.630139" style="fill: #201f3d; stroke: #201f3d; stroke-width: 0.1"/>
     <use xlink:href="#mff9b4dbee9" x="101.59302" y="101.283039" style="fill: #201f3d; stroke: #201f3d; stroke-width: 0.1"/>
     <use xlink:href="#mff9b4dbee9" x="36.496723" y="94.707403" style="fill: #201f3d; stroke: #201f3d; stroke-width: 0.1"/>
     <use xlink:href="#mff9b4dbee9" x="136.759091" y="9.9" style="fill: #201f3d; stroke: #201f3d; stroke-width: 0.1"/>
     <use xlink:href="#mff9b4dbee9" x="41.458823" y="120.344679" style="fill: #201f3d; stroke: #201f3d; stroke-width: 0.1"/>
     <use xlink:href="#mff9b4dbee9" x="112.714999" y="132.778243" style="fill: #201f3d; stroke: #201f3d; stroke-width: 0.1"/>
    </g>
   </g>
  </g>
 </g>
 <defs>
  <clipPath id="p5091409850">
   <rect x="3.6" y="3.6" width="139.5" height="138.6"/>
  </clipPath>
 </defs>
</svg>
