<?xml version="1.0" encoding="utf-8" standalone="no"?>
<!DOCTYPE svg PUBLIC "-//W3C//DTD SVG 1.1//EN"
  "http://www.w3.org/Graphics/SVG/1.1/DTD/svg11.dtd">
<svg xmlns:xlink="http://www.w3.org/1999/xlink" width="160.052265pt" height="177.988034pt" viewBox="0 0 160.052265 177.988034" xmlns="http://www.w3.org/2000/svg" version="1.1">
 <metadata>
  <rdf:RDF xmlns:dc="http://purl.org/dc/elements/1.1/" xmlns:cc="http://creativecommons.org/ns#" xmlns:rdf="http://www.w3.org/1999/02/22-rdf-syntax-ns#">
   <cc:Work>
    <dc:type rdf:resource="http://purl.org/dc/dcmitype/StillImage"/>
    <dc:date>2025-05-06T12:33:49.683518</dc:date>
    <dc:format>image/svg+xml</dc:format>
    <dc:creator>
     <cc:Agent>
      <dc:title>Matplotlib v3.10.1, https://matplotlib.org/</dc:title>
     </cc:Agent>
    </dc:creator>
   </cc:Work>
  </rdf:RDF>
 </metadata>
 <defs>
  <style type="text/css">*{stroke-linejoin: round; stroke-linecap: butt}</style>
 </defs>
 <g id="figure_1">
  <g id="patch_1">
   <path d="M 0 177.988034 
L 160.052265 177.988034 
L 160.052265 -0 
L 0 -0 
z
" style="fill: #ffffff"/>
  </g>
  <g id="axes_1">
   <g id="LineCollection_1">
    <path d="M 100.057383 125.052377 
L 94.40541 86.965379 
" clip-path="url(#pa01721d097)" style="fill: none; stroke: #cccccc; stroke-opacity: 0.4; stroke-width: 0.3"/>
    <path d="M 100.057383 125.052377 
L 111.504913 159.820015 
" clip-path="url(#pa01721d097)" style="fill: none; stroke: #cccccc; stroke-opacity: 0.4; stroke-width: 0.3"/>
    <path d="M 100.057383 125.052377 
L 74.853386 115.038312 
" clip-path="url(#pa01721d097)" style="fill: none; stroke: #cccccc; stroke-opacity: 0.4; stroke-width: 0.3"/>
    <path d="M 100.057383 125.052377 
L 65.440303 110.202081 
" clip-path="url(#pa01721d097)" style="fill: none; stroke: #cccccc; stroke-opacity: 0.4; stroke-width: 0.3"/>
    <path d="M 100.057383 125.052377 
L 106.790786 85.851187 
" clip-path="url(#pa01721d097)" style="fill: none; stroke: #cccccc; stroke-opacity: 0.4; stroke-width: 0.3"/>
    <path d="M 100.057383 125.052377 
L 79.89708 146.185942 
" clip-path="url(#pa01721d097)" style="fill: none; stroke: #cccccc; stroke-opacity: 0.4; stroke-width: 0.3"/>
    <path d="M 100.057383 125.052377 
L 114.619859 104.423157 
" clip-path="url(#pa01721d097)" style="fill: none; stroke: #cccccc; stroke-opacity: 0.4; stroke-width: 0.3"/>
    <path d="M 100.057383 125.052377 
L 92.498046 162.360762 
" clip-path="url(#pa01721d097)" style="fill: none; stroke: #cccccc; stroke-opacity: 0.4; stroke-width: 0.3"/>
    <path d="M 100.057383 125.052377 
L 131.201481 118.717353 
" clip-path="url(#pa01721d097)" style="fill: none; stroke: #cccccc; stroke-opacity: 0.4; stroke-width: 0.3"/>
    <path d="M 100.057383 125.052377 
L 121.285457 151.183024 
" clip-path="url(#pa01721d097)" style="fill: none; stroke: #cccccc; stroke-opacity: 0.4; stroke-width: 0.3"/>
    <path d="M 94.40541 86.965379 
L 74.853386 115.038312 
" clip-path="url(#pa01721d097)" style="fill: none; stroke: #cccccc; stroke-opacity: 0.4; stroke-width: 0.3"/>
    <path d="M 94.40541 86.965379 
L 70.604938 85.582823 
" clip-path="url(#pa01721d097)" style="fill: none; stroke: #cccccc; stroke-opacity: 0.4; stroke-width: 0.3"/>
    <path d="M 94.40541 86.965379 
L 108.446183 59.405334 
" clip-path="url(#pa01721d097)" style="fill: none; stroke: #cccccc; stroke-opacity: 0.4; stroke-width: 0.3"/>
    <path d="M 94.40541 86.965379 
L 86.899211 60.448941 
" clip-path="url(#pa01721d097)" style="fill: none; stroke: #cccccc; stroke-opacity: 0.4; stroke-width: 0.3"/>
    <path d="M 94.40541 86.965379 
L 118.596622 83.225193 
" clip-path="url(#pa01721d097)" style="fill: none; stroke: #cccccc; stroke-opacity: 0.4; stroke-width: 0.3"/>
    <path d="M 111.504913 159.820015 
L 107.300541 142.178064 
" clip-path="url(#pa01721d097)" style="fill: none; stroke: #cccccc; stroke-opacity: 0.4; stroke-width: 0.3"/>
    <path d="M 74.853386 115.038312 
L 65.440303 110.202081 
" clip-path="url(#pa01721d097)" style="fill: none; stroke: #cccccc; stroke-opacity: 0.4; stroke-width: 0.3"/>
    <path d="M 74.853386 115.038312 
L 87.04654 85.807439 
" clip-path="url(#pa01721d097)" style="fill: none; stroke: #cccccc; stroke-opacity: 0.4; stroke-width: 0.3"/>
    <path d="M 74.853386 115.038312 
L 107.300541 142.178064 
" clip-path="url(#pa01721d097)" style="fill: none; stroke: #cccccc; stroke-opacity: 0.4; stroke-width: 0.3"/>
    <path d="M 74.853386 115.038312 
L 43.968231 120.791469 
" clip-path="url(#pa01721d097)" style="fill: none; stroke: #cccccc; stroke-opacity: 0.4; stroke-width: 0.3"/>
    <path d="M 74.853386 115.038312 
L 88.497502 144.168483 
" clip-path="url(#pa01721d097)" style="fill: none; stroke: #cccccc; stroke-opacity: 0.4; stroke-width: 0.3"/>
    <path d="M 74.853386 115.038312 
L 79.89708 146.185942 
" clip-path="url(#pa01721d097)" style="fill: none; stroke: #cccccc; stroke-opacity: 0.4; stroke-width: 0.3"/>
    <path d="M 74.853386 115.038312 
L 65.398329 79.211464 
" clip-path="url(#pa01721d097)" style="fill: none; stroke: #cccccc; stroke-opacity: 0.4; stroke-width: 0.3"/>
    <path d="M 74.853386 115.038312 
L 102.06699 107.93371 
" clip-path="url(#pa01721d097)" style="fill: none; stroke: #cccccc; stroke-opacity: 0.4; stroke-width: 0.3"/>
    <path d="M 74.853386 115.038312 
L 83.089545 125.698881 
" clip-path="url(#pa01721d097)" style="fill: none; stroke: #cccccc; stroke-opacity: 0.4; stroke-width: 0.3"/>
    <path d="M 74.853386 115.038312 
L 49.392023 137.641429 
" clip-path="url(#pa01721d097)" style="fill: none; stroke: #cccccc; stroke-opacity: 0.4; stroke-width: 0.3"/>
    <path d="M 74.853386 115.038312 
L 44.073162 93.83522 
" clip-path="url(#pa01721d097)" style="fill: none; stroke: #cccccc; stroke-opacity: 0.4; stroke-width: 0.3"/>
    <path d="M 74.853386 115.038312 
L 48.068168 104.293049 
" clip-path="url(#pa01721d097)" style="fill: none; stroke: #cccccc; stroke-opacity: 0.4; stroke-width: 0.3"/>
    <path d="M 65.440303 110.202081 
L 87.04654 85.807439 
" clip-path="url(#pa01721d097)" style="fill: none; stroke: #cccccc; stroke-opacity: 0.4; stroke-width: 0.3"/>
    <path d="M 65.440303 110.202081 
L 43.968231 120.791469 
" clip-path="url(#pa01721d097)" style="fill: none; stroke: #cccccc; stroke-opacity: 0.4; stroke-width: 0.3"/>
    <path d="M 65.440303 110.202081 
L 35.052339 106.688496 
" clip-path="url(#pa01721d097)" style="fill: none; stroke: #cccccc; stroke-opacity: 0.4; stroke-width: 0.3"/>
    <path d="M 87.04654 85.807439 
L 106.790786 85.851187 
" clip-path="url(#pa01721d097)" style="fill: none; stroke: #cccccc; stroke-opacity: 0.4; stroke-width: 0.3"/>
    <path d="M 87.04654 85.807439 
L 65.398329 79.211464 
" clip-path="url(#pa01721d097)" style="fill: none; stroke: #cccccc; stroke-opacity: 0.4; stroke-width: 0.3"/>
    <path d="M 87.04654 85.807439 
L 102.06699 107.93371 
" clip-path="url(#pa01721d097)" style="fill: none; stroke: #cccccc; stroke-opacity: 0.4; stroke-width: 0.3"/>
    <path d="M 87.04654 85.807439 
L 114.619859 104.423157 
" clip-path="url(#pa01721d097)" style="fill: none; stroke: #cccccc; stroke-opacity: 0.4; stroke-width: 0.3"/>
    <path d="M 87.04654 85.807439 
L 70.604938 85.582823 
" clip-path="url(#pa01721d097)" style="fill: none; stroke: #cccccc; stroke-opacity: 0.4; stroke-width: 0.3"/>
    <path d="M 87.04654 85.807439 
L 86.899211 60.448941 
" clip-path="url(#pa01721d097)" style="fill: none; stroke: #cccccc; stroke-opacity: 0.4; stroke-width: 0.3"/>
    <path d="M 87.04654 85.807439 
L 96.598201 47.815307 
" clip-path="url(#pa01721d097)" style="fill: none; stroke: #cccccc; stroke-opacity: 0.4; stroke-width: 0.3"/>
    <path d="M 107.300541 142.178064 
L 88.497502 144.168483 
" clip-path="url(#pa01721d097)" style="fill: none; stroke: #cccccc; stroke-opacity: 0.4; stroke-width: 0.3"/>
    <path d="M 107.300541 142.178064 
L 137.670761 141.4238 
" clip-path="url(#pa01721d097)" style="fill: none; stroke: #cccccc; stroke-opacity: 0.4; stroke-width: 0.3"/>
    <path d="M 107.300541 142.178064 
L 121.285457 151.183024 
" clip-path="url(#pa01721d097)" style="fill: none; stroke: #cccccc; stroke-opacity: 0.4; stroke-width: 0.3"/>
    <path d="M 106.790786 85.851187 
L 108.446183 59.405334 
" clip-path="url(#pa01721d097)" style="fill: none; stroke: #cccccc; stroke-opacity: 0.4; stroke-width: 0.3"/>
    <path d="M 43.968231 120.791469 
L 35.052339 106.688496 
" clip-path="url(#pa01721d097)" style="fill: none; stroke: #cccccc; stroke-opacity: 0.4; stroke-width: 0.3"/>
    <path d="M 43.968231 120.791469 
L 49.392023 137.641429 
" clip-path="url(#pa01721d097)" style="fill: none; stroke: #cccccc; stroke-opacity: 0.4; stroke-width: 0.3"/>
    <path d="M 43.968231 120.791469 
L 22.381504 116.170385 
" clip-path="url(#pa01721d097)" style="fill: none; stroke: #cccccc; stroke-opacity: 0.4; stroke-width: 0.3"/>
    <path d="M 79.89708 146.185942 
L 92.498046 162.360762 
" clip-path="url(#pa01721d097)" style="fill: none; stroke: #cccccc; stroke-opacity: 0.4; stroke-width: 0.3"/>
    <path d="M 102.06699 107.93371 
L 83.089545 125.698881 
" clip-path="url(#pa01721d097)" style="fill: none; stroke: #cccccc; stroke-opacity: 0.4; stroke-width: 0.3"/>
    <path d="M 102.06699 107.93371 
L 129.380483 127.064995 
" clip-path="url(#pa01721d097)" style="fill: none; stroke: #cccccc; stroke-opacity: 0.4; stroke-width: 0.3"/>
    <path d="M 102.06699 107.93371 
L 118.596622 83.225193 
" clip-path="url(#pa01721d097)" style="fill: none; stroke: #cccccc; stroke-opacity: 0.4; stroke-width: 0.3"/>
    <path d="M 114.619859 104.423157 
L 131.201481 118.717353 
" clip-path="url(#pa01721d097)" style="fill: none; stroke: #cccccc; stroke-opacity: 0.4; stroke-width: 0.3"/>
    <path d="M 35.052339 106.688496 
L 44.073162 93.83522 
" clip-path="url(#pa01721d097)" style="fill: none; stroke: #cccccc; stroke-opacity: 0.4; stroke-width: 0.3"/>
    <path d="M 131.201481 118.717353 
L 137.670761 141.4238 
" clip-path="url(#pa01721d097)" style="fill: none; stroke: #cccccc; stroke-opacity: 0.4; stroke-width: 0.3"/>
    <path d="M 137.670761 141.4238 
L 129.380483 127.064995 
" clip-path="url(#pa01721d097)" style="fill: none; stroke: #cccccc; stroke-opacity: 0.4; stroke-width: 0.3"/>
    <path d="M 70.604938 85.582823 
L 48.068168 104.293049 
" clip-path="url(#pa01721d097)" style="fill: none; stroke: #cccccc; stroke-opacity: 0.4; stroke-width: 0.3"/>
    <path d="M 48.068168 104.293049 
L 22.381504 116.170385 
" clip-path="url(#pa01721d097)" style="fill: none; stroke: #cccccc; stroke-opacity: 0.4; stroke-width: 0.3"/>
    <path d="M 108.446183 59.405334 
L 96.598201 47.815307 
" clip-path="url(#pa01721d097)" style="fill: none; stroke: #cccccc; stroke-opacity: 0.4; stroke-width: 0.3"/>
   </g>
   <g id="PathCollection_1">
    <defs>
     <path id="C0_0_833795d912" d="M 0 1.936492 
C 0.513564 1.936492 1.006162 1.732451 1.369306 1.369306 
C 1.732451 1.006162 1.936492 0.513564 1.936492 -0 
C 1.936492 -0.513564 1.732451 -1.006162 1.369306 -1.369306 
C 1.006162 -1.732451 0.513564 -1.936492 0 -1.936492 
C -0.513564 -1.936492 -1.006162 -1.732451 -1.369306 -1.369306 
C -1.732451 -1.006162 -1.936492 -0.513564 -1.936492 0 
C -1.936492 0.513564 -1.732451 1.006162 -1.369306 1.369306 
C -1.006162 1.732451 -0.513564 1.936492 0 1.936492 
z
"/>
    </defs>
    <g clip-path="url(#pa01721d097)">
     <use xlink:href="#C0_0_833795d912" x="100.057383" y="125.052377" style="fill: #9b9aca; stroke: #9b9aca; stroke-width: 0.1"/>
    </g>
    <g clip-path="url(#pa01721d097)">
     <use xlink:href="#C0_0_833795d912" x="94.40541" y="86.965379" style="fill: #9b9aca; stroke: #9b9aca; stroke-width: 0.1"/>
    </g>
    <g clip-path="url(#pa01721d097)">
     <use xlink:href="#C0_0_833795d912" x="111.504913" y="159.820015" style="fill: #9b9aca; stroke: #9b9aca; stroke-width: 0.1"/>
    </g>
    <g clip-path="url(#pa01721d097)">
     <use xlink:href="#C0_0_833795d912" x="74.853386" y="115.038312" style="fill: #dedeee; stroke: #dedeee; stroke-width: 0.1"/>
    </g>
    <g clip-path="url(#pa01721d097)">
     <use xlink:href="#C0_0_833795d912" x="65.440303" y="110.202081" style="fill: #dedeee; stroke: #dedeee; stroke-width: 0.1"/>
    </g>
    <g clip-path="url(#pa01721d097)">
     <use xlink:href="#C0_0_833795d912" x="87.04654" y="85.807439" style="fill: #dedeee; stroke: #dedeee; stroke-width: 0.1"/>
    </g>
    <g clip-path="url(#pa01721d097)">
     <use xlink:href="#C0_0_833795d912" x="107.300541" y="142.178064" style="fill: #dedeee; stroke: #dedeee; stroke-width: 0.1"/>
    </g>
    <g clip-path="url(#pa01721d097)">
     <use xlink:href="#C0_0_833795d912" x="106.790786" y="85.851187" style="fill: #9b9aca; stroke: #9b9aca; stroke-width: 0.1"/>
    </g>
    <g clip-path="url(#pa01721d097)">
     <use xlink:href="#C0_0_833795d912" x="43.968231" y="120.791469" style="fill: #201f3d; stroke: #201f3d; stroke-width: 0.1"/>
    </g>
    <g clip-path="url(#pa01721d097)">
     <use xlink:href="#C0_0_833795d912" x="88.497502" y="144.168483" style="fill: #dedeee; stroke: #dedeee; stroke-width: 0.1"/>
    </g>
    <g clip-path="url(#pa01721d097)">
     <use xlink:href="#C0_0_833795d912" x="79.89708" y="146.185942" style="fill: #9b9aca; stroke: #9b9aca; stroke-width: 0.1"/>
    </g>
    <g clip-path="url(#pa01721d097)">
     <use xlink:href="#C0_0_833795d912" x="65.398329" y="79.211464" style="fill: #dedeee; stroke: #dedeee; stroke-width: 0.1"/>
    </g>
    <g clip-path="url(#pa01721d097)">
     <use xlink:href="#C0_0_833795d912" x="102.06699" y="107.93371" style="fill: #dedeee; stroke: #dedeee; stroke-width: 0.1"/>
    </g>
    <g clip-path="url(#pa01721d097)">
     <use xlink:href="#C0_0_833795d912" x="114.619859" y="104.423157" style="fill: #9b9aca; stroke: #9b9aca; stroke-width: 0.1"/>
    </g>
    <g clip-path="url(#pa01721d097)">
     <use xlink:href="#C0_0_833795d912" x="92.498046" y="162.360762" style="fill: #9b9aca; stroke: #9b9aca; stroke-width: 0.1"/>
    </g>
    <g clip-path="url(#pa01721d097)">
     <use xlink:href="#C0_0_833795d912" x="83.089545" y="125.698881" style="fill: #dedeee; stroke: #dedeee; stroke-width: 0.1"/>
    </g>
    <g clip-path="url(#pa01721d097)">
     <use xlink:href="#C0_0_833795d912" x="35.052339" y="106.688496" style="fill: #201f3d; stroke: #201f3d; stroke-width: 0.1"/>
    </g>
    <g clip-path="url(#pa01721d097)">
     <use xlink:href="#C0_0_833795d912" x="131.201481" y="118.717353" style="fill: #9b9aca; stroke: #9b9aca; stroke-width: 0.1"/>
    </g>
    <g clip-path="url(#pa01721d097)">
     <use xlink:href="#C0_0_833795d912" x="49.392023" y="137.641429" style="fill: #201f3d; stroke: #201f3d; stroke-width: 0.1"/>
    </g>
    <g clip-path="url(#pa01721d097)">
     <use xlink:href="#C0_0_833795d912" x="137.670761" y="141.4238" style="fill: #9b9aca; stroke: #9b9aca; stroke-width: 0.1"/>
    </g>
    <g clip-path="url(#pa01721d097)">
     <use xlink:href="#C0_0_833795d912" x="121.285457" y="151.183024" style="fill: #9b9aca; stroke: #9b9aca; stroke-width: 0.1"/>
    </g>
    <g clip-path="url(#pa01721d097)">
     <use xlink:href="#C0_0_833795d912" x="44.073162" y="93.83522" style="fill: #dedeee; stroke: #dedeee; stroke-width: 0.1"/>
    </g>
    <g clip-path="url(#pa01721d097)">
     <use xlink:href="#C0_0_833795d912" x="70.604938" y="85.582823" style="fill: #dedeee; stroke: #dedeee; stroke-width: 0.1"/>
    </g>
    <g clip-path="url(#pa01721d097)">
     <use xlink:href="#C0_0_833795d912" x="129.380483" y="127.064995" style="fill: #9b9aca; stroke: #9b9aca; stroke-width: 0.1"/>
    </g>
    <g clip-path="url(#pa01721d097)">
     <use xlink:href="#C0_0_833795d912" x="48.068168" y="104.293049" style="fill: #dedeee; stroke: #dedeee; stroke-width: 0.1"/>
    </g>
    <g clip-path="url(#pa01721d097)">
     <use xlink:href="#C0_0_833795d912" x="108.446183" y="59.405334" style="fill: #dedeee; stroke: #dedeee; stroke-width: 0.1"/>
    </g>
    <g clip-path="url(#pa01721d097)">
     <use xlink:href="#C0_0_833795d912" x="86.899211" y="60.448941" style="fill: #dedeee; stroke: #dedeee; stroke-width: 0.1"/>
    </g>
    <g clip-path="url(#pa01721d097)">
     <use xlink:href="#C0_0_833795d912" x="96.598201" y="47.815307" style="fill: #dedeee; stroke: #dedeee; stroke-width: 0.1"/>
    </g>
    <g clip-path="url(#pa01721d097)">
     <use xlink:href="#C0_0_833795d912" x="118.596622" y="83.225193" style="fill: #dedeee; stroke: #dedeee; stroke-width: 0.1"/>
    </g>
    <g clip-path="url(#pa01721d097)">
     <use xlink:href="#C0_0_833795d912" x="22.381504" y="116.170385" style="fill: #dedeee; stroke: #dedeee; stroke-width: 0.1"/>
    </g>
   </g>
   <g id="text_1">
    <!-- Red de México -->
    <g transform="translate(50.807949 10.084396) scale(0.096 -0.096)">
     <defs>
      <path id="NimbusRomNo9L-Regu-52" d="M 4218 121 
C 3974 140 3846 205 3661 424 
L 2342 2061 
C 2771 2143 2963 2219 3174 2388 
C 3379 2553 3501 2818 3501 3113 
C 3501 3385 3418 3618 3251 3801 
C 3008 4059 2477 4224 1875 4224 
L 109 4224 
L 109 4102 
C 589 4051 653 3981 653 3528 
L 653 765 
C 653 236 589 159 109 121 
L 109 0 
L 1882 0 
L 1882 134 
C 1389 134 1306 219 1306 692 
L 1306 1984 
L 1664 1984 
L 3187 0 
L 4218 0 
L 4218 121 
z
M 1306 3762 
C 1306 3937 1376 3987 1632 3987 
C 2432 3987 2803 3716 2803 3123 
C 2803 2807 2669 2542 2438 2423 
C 2144 2258 1920 2221 1306 2221 
L 1306 3762 
z
" transform="scale(0.015625)"/>
      <path id="NimbusRomNo9L-Regu-65" d="M 2611 1053 
C 2304 564 2029 378 1619 378 
C 1254 378 979 564 794 930 
C 678 1174 634 1386 621 1779 
L 2592 1779 
C 2541 2193 2477 2377 2317 2581 
C 2125 2811 1830 2944 1498 2944 
C 1178 2944 877 2829 634 2611 
C 333 2349 160 1894 160 1370 
C 160 486 621 -64 1357 -64 
C 1965 -64 2445 315 2714 1008 
L 2611 1053 
z
M 634 1984 
C 704 2479 922 2714 1312 2714 
C 1702 2714 1856 2535 1939 1984 
L 634 1984 
z
" transform="scale(0.015625)"/>
      <path id="NimbusRomNo9L-Regu-64" d="M 2202 -64 
L 3142 269 
L 3142 365 
C 3027 365 3014 365 2995 365 
C 2765 365 2714 435 2714 731 
L 2714 4364 
L 2682 4377 
C 2374 4268 2150 4204 1741 4096 
L 1741 3994 
C 1792 4000 1830 4000 1882 4000 
C 2118 4000 2176 3936 2176 3672 
L 2176 2669 
C 1933 2874 1760 2944 1504 2944 
C 768 2944 173 2221 173 1312 
C 173 493 653 -64 1357 -64 
C 1715 -64 1958 64 2176 365 
L 2176 -45 
L 2202 -64 
z
M 2176 653 
C 2176 608 2131 531 2067 461 
C 1952 333 1792 269 1606 269 
C 1075 269 723 781 723 1568 
C 723 2291 1037 2765 1523 2765 
C 1862 2765 2176 2464 2176 2125 
L 2176 653 
z
" transform="scale(0.015625)"/>
      <path id="NimbusRomNo9L-Regu-4d" d="M 4314 3667 
L 4314 751 
C 4314 217 4237 134 3731 134 
L 3731 0 
L 5523 0 
L 5523 134 
C 5056 134 4966 223 4966 681 
L 4966 3536 
C 4966 3993 5050 4077 5523 4115 
L 5523 4237 
L 4250 4237 
L 2835 1004 
L 1357 4237 
L 90 4237 
L 90 4096 
C 614 4096 698 4019 698 3550 
L 698 943 
C 698 282 608 159 77 121 
L 77 0 
L 1581 0 
L 1581 134 
C 1088 134 979 282 979 931 
L 979 3520 
L 2586 0 
L 2675 0 
L 4314 3667 
z
" transform="scale(0.015625)"/>
      <path id="NimbusRomNo9L-Regu-b4" d="M 851 3264 
L 1837 3882 
C 1971 3964 2029 4047 2029 4148 
C 2029 4275 1946 4352 1805 4352 
C 1709 4352 1651 4320 1536 4206 
L 595 3264 
L 851 3264 
z
" transform="scale(0.015625)"/>
      <path id="NimbusRomNo9L-Regu-78" d="M 1779 0 
L 3066 0 
L 3066 96 
C 2867 96 2739 198 2541 480 
L 1722 1735 
L 2253 2502 
C 2374 2675 2566 2778 2771 2778 
L 2771 2880 
L 1760 2880 
L 1760 2778 
C 1952 2778 2016 2740 2016 2649 
C 2016 2571 1939 2430 1779 2229 
C 1747 2191 1670 2075 1587 1946 
L 1498 2074 
C 1318 2342 1203 2560 1203 2643 
C 1203 2733 1286 2778 1478 2778 
L 1478 2880 
L 154 2880 
L 154 2778 
L 211 2778 
C 403 2778 506 2695 704 2396 
L 1306 1479 
L 576 422 
C 384 160 320 115 109 96 
L 109 0 
L 1037 0 
L 1037 96 
C 858 96 781 128 781 211 
C 781 250 826 346 909 474 
L 1414 1261 
L 1997 365 
C 2022 326 2035 288 2035 250 
C 2035 123 1990 96 1779 96 
L 1779 0 
z
" transform="scale(0.015625)"/>
      <path id="NimbusRomNo9L-Regu-69" d="M 1120 2929 
L 128 2579 
L 128 2484 
L 179 2490 
C 256 2502 339 2509 397 2509 
C 550 2509 608 2406 608 2125 
L 608 640 
C 608 179 544 109 102 109 
L 102 0 
L 1619 0 
L 1619 96 
C 1197 128 1146 191 1146 650 
L 1146 2910 
L 1120 2929 
z
M 819 4352 
C 646 4352 499 4205 499 4026 
C 499 3847 640 3699 819 3699 
C 1005 3699 1152 3840 1152 4026 
C 1152 4205 1005 4352 819 4352 
z
" transform="scale(0.015625)"/>
      <path id="NimbusRomNo9L-Regu-63" d="M 2547 998 
C 2240 550 2010 397 1645 397 
C 1062 397 653 909 653 1645 
C 653 2304 1005 2758 1523 2758 
C 1754 2758 1837 2688 1901 2451 
L 1939 2310 
C 1990 2131 2106 2016 2240 2016 
C 2406 2016 2547 2138 2547 2285 
C 2547 2643 2099 2944 1562 2944 
C 1248 2944 922 2816 659 2586 
C 339 2304 160 1869 160 1363 
C 160 531 666 -64 1376 -64 
C 1664 -64 1920 38 2150 237 
C 2323 390 2445 563 2637 941 
L 2547 998 
z
" transform="scale(0.015625)"/>
      <path id="NimbusRomNo9L-Regu-6f" d="M 1600 2944 
C 768 2944 186 2330 186 1446 
C 186 582 781 -64 1587 -64 
C 2394 -64 3008 614 3008 1498 
C 3008 2336 2419 2944 1600 2944 
z
M 1517 2765 
C 2054 2765 2432 2150 2432 1274 
C 2432 550 2144 115 1664 115 
C 1414 115 1178 269 1043 525 
C 864 858 762 1306 762 1760 
C 762 2368 1062 2765 1517 2765 
z
" transform="scale(0.015625)"/>
     </defs>
     <use xlink:href="#NimbusRomNo9L-Regu-52" transform="scale(0.996264)"/>
     <use xlink:href="#NimbusRomNo9L-Regu-65" transform="translate(66.450031 0) scale(0.996264)"/>
     <use xlink:href="#NimbusRomNo9L-Regu-64" transform="translate(110.6836 0) scale(0.996264)"/>
     <use xlink:href="#NimbusRomNo9L-Regu-64" transform="translate(185.403401 0) scale(0.996264)"/>
     <use xlink:href="#NimbusRomNo9L-Regu-65" transform="translate(235.216601 0) scale(0.996264)"/>
     <use xlink:href="#NimbusRomNo9L-Regu-4d" transform="translate(304.35677 0) scale(0.996264)"/>
     <use xlink:href="#NimbusRomNo9L-Regu-b4" transform="translate(398.452854 0.498056) scale(0.996264)"/>
     <use xlink:href="#NimbusRomNo9L-Regu-65" transform="translate(392.923677 0) scale(0.996264)"/>
     <use xlink:href="#NimbusRomNo9L-Regu-78" transform="translate(437.157245 0) scale(0.996264)"/>
     <use xlink:href="#NimbusRomNo9L-Regu-69" transform="translate(486.970446 0) scale(0.996264)"/>
     <use xlink:href="#NimbusRomNo9L-Regu-63" transform="translate(514.665616 0) scale(0.996264)"/>
     <use xlink:href="#NimbusRomNo9L-Regu-6f" transform="translate(558.899184 0) scale(0.996264)"/>
    </g>
    <!-- Barabási-Albert_(m=2) - Homofilia: 0.8 -->
    <g transform="translate(3.6 19.936215) scale(0.096 -0.096)">
     <defs>
      <path id="NimbusRomNo9L-Regu-42" d="M 109 4237 
L 109 4096 
C 646 4096 723 4026 723 3548 
L 723 689 
C 723 212 640 128 109 128 
L 109 0 
L 2246 0 
C 2746 0 3200 136 3437 356 
C 3667 564 3795 855 3795 1165 
C 3795 1451 3680 1710 3482 1897 
C 3290 2072 3117 2150 2701 2253 
C 3034 2335 3168 2398 3322 2531 
C 3482 2671 3578 2903 3578 3163 
C 3578 3871 3008 4237 1901 4237 
L 109 4237 
z
M 1376 2112 
C 1997 2112 2291 2080 2522 1982 
C 2886 1827 3059 1568 3059 1159 
C 3059 809 2925 555 2669 406 
C 2464 290 2202 238 1779 238 
C 1466 238 1376 296 1376 504 
L 1376 2112 
z
M 1376 2368 
L 1376 3812 
C 1376 3944 1421 4001 1517 4001 
L 1798 4001 
C 2534 4001 2925 3699 2925 3137 
C 2925 2646 2586 2368 1984 2368 
L 1376 2368 
z
" transform="scale(0.015625)"/>
      <path id="NimbusRomNo9L-Regu-61" d="M 2829 423 
C 2720 333 2643 301 2547 301 
C 2400 301 2355 390 2355 672 
L 2355 1920 
C 2355 2253 2323 2438 2227 2592 
C 2086 2822 1811 2944 1434 2944 
C 832 2944 358 2630 358 2227 
C 358 2080 486 1952 634 1952 
C 787 1952 922 2080 922 2221 
C 922 2246 915 2278 909 2323 
C 896 2381 890 2432 890 2477 
C 890 2650 1094 2790 1350 2790 
C 1664 2790 1837 2605 1837 2259 
L 1837 1869 
C 851 1472 742 1421 467 1178 
C 326 1050 237 832 237 621 
C 237 218 518 -64 909 -64 
C 1190 -64 1453 70 1843 403 
C 1875 70 1990 -64 2253 -64 
C 2470 -64 2605 13 2829 256 
L 2829 423 
z
M 1837 783 
C 1837 584 1805 526 1670 449 
C 1517 359 1338 301 1203 301 
C 979 301 800 520 800 796 
L 800 822 
C 800 1201 1062 1433 1837 1715 
L 1837 783 
z
" transform="scale(0.015625)"/>
      <path id="NimbusRomNo9L-Regu-72" d="M 45 2496 
C 134 2515 192 2522 269 2522 
C 429 2522 486 2419 486 2138 
L 486 538 
C 486 218 442 173 32 96 
L 32 0 
L 1568 0 
L 1568 102 
C 1133 102 1024 199 1024 565 
L 1024 2013 
C 1024 2219 1299 2541 1472 2541 
C 1510 2541 1568 2509 1638 2445 
C 1741 2355 1811 2317 1894 2317 
C 2048 2317 2144 2426 2144 2605 
C 2144 2816 2010 2944 1792 2944 
C 1523 2944 1338 2797 1024 2343 
L 1024 2931 
L 992 2944 
C 653 2803 422 2721 45 2599 
L 45 2496 
z
" transform="scale(0.015625)"/>
      <path id="NimbusRomNo9L-Regu-62" d="M 979 4364 
L 947 4377 
C 678 4281 506 4230 205 4147 
L 19 4096 
L 19 3994 
C 58 4000 83 4000 128 4000 
C 384 4000 442 3942 442 3673 
L 442 347 
C 442 147 986 -64 1498 -64 
C 2342 -64 2995 640 2995 1555 
C 2995 2342 2509 2944 1869 2944 
C 1478 2944 1107 2714 979 2400 
L 979 4364 
z
M 979 2061 
C 979 2310 1280 2541 1613 2541 
C 2112 2541 2432 2042 2432 1261 
C 2432 550 2125 141 1600 141 
C 1267 141 979 288 979 448 
L 979 2061 
z
" transform="scale(0.015625)"/>
      <path id="NimbusRomNo9L-Regu-73" d="M 2016 2010 
L 1990 2880 
L 1920 2880 
L 1907 2867 
C 1850 2822 1843 2816 1818 2816 
C 1779 2816 1715 2829 1645 2861 
C 1504 2915 1363 2944 1197 2944 
C 691 2944 326 2616 326 2154 
C 326 1796 531 1539 1075 1231 
L 1446 1020 
C 1670 892 1779 737 1779 539 
C 1779 256 1574 77 1248 77 
C 1030 77 832 159 710 298 
C 576 455 518 600 435 960 
L 333 960 
L 333 -39 
L 416 -39 
C 461 33 486 48 563 48 
C 621 48 710 35 858 -2 
C 1037 -39 1210 -64 1325 -64 
C 1818 -64 2227 308 2227 757 
C 2227 1077 2074 1289 1690 1520 
L 998 1930 
C 819 2033 723 2194 723 2367 
C 723 2624 922 2803 1216 2803 
C 1581 2803 1773 2583 1920 2010 
L 2016 2010 
z
" transform="scale(0.015625)"/>
      <path id="NimbusRomNo9L-Regu-2d" d="M 250 1619 
L 250 1216 
L 1824 1216 
L 1824 1619 
L 250 1619 
z
" transform="scale(0.015625)"/>
      <path id="NimbusRomNo9L-Regu-41" d="M 4518 128 
C 4230 128 4166 192 3942 667 
L 2349 4320 
L 2221 4320 
L 890 1168 
C 480 231 403 128 96 128 
L 96 0 
L 1363 0 
L 1363 128 
C 1056 128 928 212 928 393 
C 928 470 947 560 979 645 
L 1274 1401 
L 2950 1401 
L 3213 778 
C 3290 602 3334 434 3334 342 
C 3334 180 3226 128 2886 128 
L 2886 0 
L 4518 0 
L 4518 128 
z
M 1382 1664 
L 2118 3416 
L 2861 1664 
L 1382 1664 
z
" transform="scale(0.015625)"/>
      <path id="NimbusRomNo9L-Regu-6c" d="M 122 4000 
L 160 4000 
C 230 4000 307 4000 358 4000 
C 563 4000 627 3910 627 3610 
L 627 557 
C 627 211 538 128 134 96 
L 134 0 
L 1645 0 
L 1645 109 
C 1242 109 1165 173 1165 528 
L 1165 4371 
L 1139 4384 
C 806 4275 563 4211 122 4103 
L 122 4000 
z
" transform="scale(0.015625)"/>
      <path id="NimbusRomNo9L-Regu-74" d="M 1632 2880 
L 986 2880 
L 986 3622 
C 986 3686 979 3706 941 3706 
C 896 3648 858 3590 813 3526 
C 570 3174 294 2867 192 2841 
C 122 2794 83 2748 83 2715 
C 83 2695 90 2682 109 2682 
L 448 2682 
L 448 751 
C 448 212 640 -64 1018 -64 
C 1331 -64 1574 90 1786 423 
L 1702 493 
C 1568 333 1459 269 1318 269 
C 1082 269 986 443 986 847 
L 986 2682 
L 1632 2682 
L 1632 2880 
z
" transform="scale(0.015625)"/>
      <path id="NimbusRomNo9L-Regu-28" d="M 1888 4326 
C 1414 4019 1222 3853 986 3558 
C 531 3002 307 2362 307 1613 
C 307 800 544 173 1107 -480 
C 1370 -787 1536 -928 1869 -1133 
L 1946 -1030 
C 1434 -627 1254 -403 1082 77 
C 928 506 858 992 858 1632 
C 858 2304 941 2829 1114 3226 
C 1293 3622 1485 3853 1946 4224 
L 1888 4326 
z
" transform="scale(0.015625)"/>
      <path id="NimbusRomNo9L-Regu-6d" d="M 122 2547 
C 205 2566 256 2573 326 2573 
C 493 2573 550 2470 550 2162 
L 550 539 
C 550 192 461 96 102 96 
L 102 0 
L 1523 0 
L 1523 96 
C 1184 96 1088 166 1088 418 
L 1088 2234 
C 1088 2246 1139 2310 1184 2355 
C 1344 2502 1619 2611 1843 2611 
C 2125 2611 2266 2385 2266 1932 
L 2266 528 
C 2266 167 2195 96 1830 96 
L 1830 0 
L 3264 0 
L 3264 96 
C 2899 96 2803 205 2803 603 
L 2803 2221 
C 2995 2496 3206 2611 3501 2611 
C 3866 2611 3981 2438 3981 1907 
L 3981 557 
C 3981 192 3930 141 3558 96 
L 3558 0 
L 4960 0 
L 4960 96 
L 4794 115 
C 4602 115 4518 230 4518 480 
L 4518 1802 
C 4518 2559 4269 2944 3776 2944 
C 3405 2944 3078 2778 2733 2407 
C 2618 2771 2400 2944 2054 2944 
C 1773 2944 1594 2854 1062 2451 
L 1062 2931 
L 1018 2944 
C 691 2822 474 2752 122 2656 
L 122 2547 
z
" transform="scale(0.015625)"/>
      <path id="NimbusRomNo9L-Regu-3d" d="M 3418 2470 
L 192 2470 
L 192 2048 
L 3418 2048 
L 3418 2470 
z
M 3418 1190 
L 192 1190 
L 192 768 
L 3418 768 
L 3418 1190 
z
" transform="scale(0.015625)"/>
      <path id="NimbusRomNo9L-Regu-32" d="M 3040 875 
L 2957 907 
C 2720 544 2637 486 2349 486 
L 819 486 
L 1894 1609 
C 2464 2202 2714 2687 2714 3185 
C 2714 3823 2195 4313 1530 4313 
C 1178 4313 845 4173 608 3918 
C 403 3700 307 3496 198 3043 
L 333 3011 
C 589 3636 819 3840 1261 3840 
C 1798 3840 2163 3476 2163 2940 
C 2163 2443 1869 1850 1331 1282 
L 192 77 
L 192 0 
L 2688 0 
L 3040 875 
z
" transform="scale(0.015625)"/>
      <path id="NimbusRomNo9L-Regu-29" d="M 243 -1133 
C 717 -826 909 -659 1146 -365 
C 1600 192 1824 832 1824 1581 
C 1824 2400 1587 3021 1024 3674 
C 762 3981 595 4122 262 4326 
L 186 4224 
C 698 3821 870 3597 1050 3117 
C 1203 2688 1274 2202 1274 1562 
C 1274 896 1190 365 1018 -26 
C 838 -429 646 -659 186 -1030 
L 243 -1133 
z
" transform="scale(0.015625)"/>
      <path id="NimbusRomNo9L-Regu-48" d="M 1338 2304 
L 1338 3533 
C 1338 3990 1408 4059 1901 4104 
L 1901 4224 
L 122 4224 
L 122 4104 
C 614 4059 685 3989 685 3527 
L 685 749 
C 685 210 621 134 122 134 
L 122 0 
L 1901 0 
L 1901 121 
C 1421 159 1338 242 1338 699 
L 1338 2022 
L 3277 2022 
L 3277 757 
C 3277 211 3213 134 2714 134 
L 2714 0 
L 4493 0 
L 4493 121 
C 4013 159 3930 242 3930 696 
L 3930 3529 
C 3930 3989 4000 4059 4493 4104 
L 4493 4224 
L 2714 4224 
L 2714 4104 
C 3206 4059 3277 3990 3277 3533 
L 3277 2304 
L 1338 2304 
z
" transform="scale(0.015625)"/>
      <path id="NimbusRomNo9L-Regu-2" d="M 198 2669 
L 634 2669 
L 634 566 
C 634 148 563 64 205 64 
L 205 -38 
L 1613 -38 
L 1613 58 
C 1254 84 1171 175 1171 532 
L 1171 2669 
L 1722 2669 
C 2336 2669 2368 2650 2368 2305 
L 2368 591 
C 2368 149 2323 90 1926 58 
L 1926 -38 
L 3334 -38 
L 3334 58 
C 2976 90 2906 175 2906 590 
L 2906 2289 
C 2906 2431 2906 2581 2918 2924 
L 2893 2943 
C 2611 2899 2426 2880 2170 2880 
L 1165 2880 
L 1165 3151 
C 1165 3429 1184 3624 1216 3732 
C 1306 4003 1555 4192 1843 4192 
C 2022 4192 2144 4110 2298 3895 
C 2419 3726 2502 3663 2611 3663 
C 2746 3663 2842 3770 2842 3909 
C 2842 4175 2522 4352 2029 4352 
C 1542 4352 1171 4188 941 3878 
C 749 3619 678 3385 640 2880 
L 198 2880 
L 198 2669 
z
" transform="scale(0.015625)"/>
      <path id="NimbusRomNo9L-Regu-3a" d="M 870 2944 
C 678 2944 518 2777 518 2579 
C 518 2393 678 2233 864 2233 
C 1062 2233 1229 2393 1229 2579 
C 1229 2777 1062 2944 870 2944 
z
M 870 646 
C 678 646 518 480 518 281 
C 518 96 678 -64 864 -64 
C 1062 -64 1229 96 1229 281 
C 1229 480 1062 646 870 646 
z
" transform="scale(0.015625)"/>
      <path id="NimbusRomNo9L-Regu-30" d="M 1626 4352 
C 1274 4352 1005 4244 768 4020 
C 397 3661 154 2925 154 2176 
C 154 1479 365 730 666 372 
C 902 90 1229 -64 1600 -64 
C 1926 -64 2202 45 2432 269 
C 2803 621 3046 1364 3046 2138 
C 3046 3450 2464 4352 1626 4352 
z
M 1606 4186 
C 2144 4186 2432 3463 2432 2125 
C 2432 788 2150 103 1600 103 
C 1050 103 768 788 768 2119 
C 768 3476 1056 4186 1606 4186 
z
" transform="scale(0.015625)"/>
      <path id="NimbusRomNo9L-Regu-2e" d="M 800 646 
C 608 646 448 480 448 281 
C 448 96 608 -64 794 -64 
C 992 -64 1158 96 1158 281 
C 1158 480 992 646 800 646 
z
" transform="scale(0.015625)"/>
      <path id="NimbusRomNo9L-Regu-38" d="M 1856 2400 
C 2490 2740 2714 3008 2714 3444 
C 2714 3968 2253 4352 1613 4352 
C 915 4352 397 3924 397 3341 
C 397 2925 518 2740 1190 2151 
C 499 1626 358 1428 358 992 
C 358 372 864 -64 1587 -64 
C 2355 -64 2848 359 2848 1018 
C 2848 1511 2630 1824 1856 2400 
z
M 1741 1741 
C 2208 1408 2362 1178 2362 820 
C 2362 404 2074 116 1658 116 
C 1171 116 845 487 845 1044 
C 845 1453 986 1722 1357 2023 
L 1741 1741 
z
M 1670 2516 
C 1101 2887 870 3181 870 3540 
C 870 3911 1158 4173 1562 4173 
C 1997 4173 2272 3892 2272 3450 
C 2272 3085 2093 2797 1728 2554 
C 1696 2535 1696 2535 1670 2516 
z
" transform="scale(0.015625)"/>
     </defs>
     <use xlink:href="#NimbusRomNo9L-Regu-42" transform="scale(0.996264)"/>
     <use xlink:href="#NimbusRomNo9L-Regu-61" transform="translate(66.450031 0) scale(0.996264)"/>
     <use xlink:href="#NimbusRomNo9L-Regu-72" transform="translate(110.6836 0) scale(0.996264)"/>
     <use xlink:href="#NimbusRomNo9L-Regu-61" transform="translate(143.85883 0) scale(0.996264)"/>
     <use xlink:href="#NimbusRomNo9L-Regu-62" transform="translate(188.092398 0) scale(0.996264)"/>
     <use xlink:href="#NimbusRomNo9L-Regu-b4" transform="translate(243.434776 0.498056) scale(0.996264)"/>
     <use xlink:href="#NimbusRomNo9L-Regu-61" transform="translate(237.905599 0) scale(0.996264)"/>
     <use xlink:href="#NimbusRomNo9L-Regu-73" transform="translate(282.139167 0) scale(0.996264)"/>
     <use xlink:href="#NimbusRomNo9L-Regu-69" transform="translate(320.892874 0) scale(0.996264)"/>
     <use xlink:href="#NimbusRomNo9L-Regu-2d" transform="translate(348.588043 0) scale(0.996264)"/>
     <use xlink:href="#NimbusRomNo9L-Regu-41" transform="translate(381.763273 0) scale(0.996264)"/>
     <use xlink:href="#NimbusRomNo9L-Regu-6c" transform="translate(453.693258 0) scale(0.996264)"/>
     <use xlink:href="#NimbusRomNo9L-Regu-62" transform="translate(481.388427 0) scale(0.996264)"/>
     <use xlink:href="#NimbusRomNo9L-Regu-65" transform="translate(531.201628 0) scale(0.996264)"/>
     <use xlink:href="#NimbusRomNo9L-Regu-72" transform="translate(575.435197 0) scale(0.996264)"/>
     <use xlink:href="#NimbusRomNo9L-Regu-74" transform="translate(608.610426 0) scale(0.996264)"/>
     <use xlink:href="#NimbusRomNo9L-Regu-28" transform="translate(672.171161 0) scale(0.996264)"/>
     <use xlink:href="#NimbusRomNo9L-Regu-6d" transform="translate(705.346391 0) scale(0.996264)"/>
     <use xlink:href="#NimbusRomNo9L-Regu-3d" transform="translate(782.854761 0) scale(0.996264)"/>
     <use xlink:href="#NimbusRomNo9L-Regu-32" transform="translate(839.043011 0) scale(0.996264)"/>
     <use xlink:href="#NimbusRomNo9L-Regu-29" transform="translate(888.856212 0) scale(0.996264)"/>
     <use xlink:href="#NimbusRomNo9L-Regu-2d" transform="translate(946.938042 0) scale(0.996264)"/>
     <use xlink:href="#NimbusRomNo9L-Regu-48" transform="translate(1005.019872 0) scale(0.996264)"/>
     <use xlink:href="#NimbusRomNo9L-Regu-6f" transform="translate(1076.949857 0) scale(0.996264)"/>
     <use xlink:href="#NimbusRomNo9L-Regu-6d" transform="translate(1126.763057 0) scale(0.996264)"/>
     <use xlink:href="#NimbusRomNo9L-Regu-6f" transform="translate(1204.271427 0) scale(0.996264)"/>
     <use xlink:href="#NimbusRomNo9L-Regu-2" transform="translate(1254.084628 0) scale(0.996264)"/>
     <use xlink:href="#NimbusRomNo9L-Regu-6c" transform="translate(1309.476305 0) scale(0.996264)"/>
     <use xlink:href="#NimbusRomNo9L-Regu-69" transform="translate(1337.171474 0) scale(0.996264)"/>
     <use xlink:href="#NimbusRomNo9L-Regu-61" transform="translate(1364.866644 0) scale(0.996264)"/>
     <use xlink:href="#NimbusRomNo9L-Regu-3a" transform="translate(1409.100213 0) scale(0.996264)"/>
     <use xlink:href="#NimbusRomNo9L-Regu-30" transform="translate(1467.679414 0) scale(0.996264)"/>
     <use xlink:href="#NimbusRomNo9L-Regu-2e" transform="translate(1517.492615 0) scale(0.996264)"/>
     <use xlink:href="#NimbusRomNo9L-Regu-38" transform="translate(1542.399215 0) scale(0.996264)"/>
     <path d="M 642.282937 0 
L 672.171161 0 
L 672.171161 0.3985 
L 642.282937 0.3985 
L 642.282937 0 
z
"/>
    </g>
    <!-- Masa crítica: Nodos aleatorios (C,H) -->
    <g transform="translate(9.218997 29.788034) scale(0.096 -0.096)">
     <defs>
      <path id="NimbusRomNo9L-Regu-11" d="M 1120 2950 
L 128 2598 
L 128 2502 
L 179 2508 
C 256 2521 339 2528 397 2528 
C 550 2528 608 2424 608 2141 
L 608 644 
C 608 180 544 109 102 109 
L 102 0 
L 1619 0 
L 1619 96 
C 1197 128 1146 192 1146 654 
L 1146 2931 
L 1120 2950 
z
" transform="scale(0.015625)"/>
      <path id="NimbusRomNo9L-Regu-4e" d="M 3917 -64 
L 3917 3287 
C 3917 3669 3981 3905 4102 3987 
C 4192 4051 4282 4077 4525 4102 
L 4525 4224 
L 3021 4224 
L 3021 4102 
C 3264 4083 3354 4057 3450 4000 
C 3578 3911 3635 3681 3635 3286 
L 3635 1136 
L 1171 4224 
L 77 4224 
L 77 4102 
C 352 4102 442 4051 698 3751 
L 698 938 
C 698 281 608 159 77 121 
L 77 0 
L 1581 0 
L 1581 134 
C 1088 134 979 281 979 928 
L 979 3439 
L 3808 -64 
L 3917 -64 
z
" transform="scale(0.015625)"/>
      <path id="NimbusRomNo9L-Regu-43" d="M 3968 2906 
L 3910 4352 
L 3776 4352 
C 3738 4218 3635 4141 3507 4141 
C 3450 4141 3354 4160 3258 4199 
C 2944 4301 2624 4352 2323 4352 
C 1798 4352 1267 4154 870 3802 
C 422 3405 179 2810 179 2106 
C 179 1511 371 960 698 596 
C 1082 180 1670 -64 2304 -64 
C 3027 -64 3661 231 4051 749 
L 3936 864 
C 3462 410 3040 218 2509 218 
C 2106 218 1747 346 1472 589 
C 1120 903 922 1479 922 2189 
C 922 3348 1517 4096 2445 4096 
C 2810 4096 3142 3962 3398 3706 
C 3603 3501 3699 3322 3821 2906 
L 3968 2906 
z
" transform="scale(0.015625)"/>
      <path id="NimbusRomNo9L-Regu-2c" d="M 531 -889 
C 960 -678 1248 -288 1248 96 
C 1248 416 1024 666 736 666 
C 512 666 358 519 358 301 
C 358 96 506 -25 736 -25 
C 774 -25 819 -19 858 -13 
C 902 0 902 0 909 0 
C 960 0 998 -38 998 -89 
C 998 -294 819 -531 474 -768 
L 531 -889 
z
" transform="scale(0.015625)"/>
     </defs>
     <use xlink:href="#NimbusRomNo9L-Regu-4d" transform="scale(0.996264)"/>
     <use xlink:href="#NimbusRomNo9L-Regu-61" transform="translate(88.566907 0) scale(0.996264)"/>
     <use xlink:href="#NimbusRomNo9L-Regu-73" transform="translate(132.800475 0) scale(0.996264)"/>
     <use xlink:href="#NimbusRomNo9L-Regu-61" transform="translate(171.554182 0) scale(0.996264)"/>
     <use xlink:href="#NimbusRomNo9L-Regu-63" transform="translate(240.694351 0) scale(0.996264)"/>
     <use xlink:href="#NimbusRomNo9L-Regu-72" transform="translate(284.927919 0) scale(0.996264)"/>
     <use xlink:href="#NimbusRomNo9L-Regu-b4" transform="translate(315.363119 0.498056) scale(0.996264)"/>
     <use xlink:href="#NimbusRomNo9L-Regu-11" transform="translate(318.103149 0) scale(0.996264)"/>
     <use xlink:href="#NimbusRomNo9L-Regu-74" transform="translate(345.798319 0) scale(0.996264)"/>
     <use xlink:href="#NimbusRomNo9L-Regu-69" transform="translate(373.493488 0) scale(0.996264)"/>
     <use xlink:href="#NimbusRomNo9L-Regu-63" transform="translate(401.188658 0) scale(0.996264)"/>
     <use xlink:href="#NimbusRomNo9L-Regu-61" transform="translate(445.422226 0) scale(0.996264)"/>
     <use xlink:href="#NimbusRomNo9L-Regu-3a" transform="translate(489.655795 0) scale(0.996264)"/>
     <use xlink:href="#NimbusRomNo9L-Regu-4e" transform="translate(548.234997 0) scale(0.996264)"/>
     <use xlink:href="#NimbusRomNo9L-Regu-6f" transform="translate(620.164982 0) scale(0.996264)"/>
     <use xlink:href="#NimbusRomNo9L-Regu-64" transform="translate(669.978182 0) scale(0.996264)"/>
     <use xlink:href="#NimbusRomNo9L-Regu-6f" transform="translate(719.791383 0) scale(0.996264)"/>
     <use xlink:href="#NimbusRomNo9L-Regu-73" transform="translate(769.604583 0) scale(0.996264)"/>
     <use xlink:href="#NimbusRomNo9L-Regu-61" transform="translate(833.26489 0) scale(0.996264)"/>
     <use xlink:href="#NimbusRomNo9L-Regu-6c" transform="translate(877.498459 0) scale(0.996264)"/>
     <use xlink:href="#NimbusRomNo9L-Regu-65" transform="translate(905.193628 0) scale(0.996264)"/>
     <use xlink:href="#NimbusRomNo9L-Regu-61" transform="translate(949.427197 0) scale(0.996264)"/>
     <use xlink:href="#NimbusRomNo9L-Regu-74" transform="translate(993.660766 0) scale(0.996264)"/>
     <use xlink:href="#NimbusRomNo9L-Regu-6f" transform="translate(1021.355935 0) scale(0.996264)"/>
     <use xlink:href="#NimbusRomNo9L-Regu-72" transform="translate(1071.169136 0) scale(0.996264)"/>
     <use xlink:href="#NimbusRomNo9L-Regu-69" transform="translate(1104.344365 0) scale(0.996264)"/>
     <use xlink:href="#NimbusRomNo9L-Regu-6f" transform="translate(1132.039535 0) scale(0.996264)"/>
     <use xlink:href="#NimbusRomNo9L-Regu-73" transform="translate(1181.852735 0) scale(0.996264)"/>
     <use xlink:href="#NimbusRomNo9L-Regu-28" transform="translate(1245.513042 0) scale(0.996264)"/>
     <use xlink:href="#NimbusRomNo9L-Regu-43" transform="translate(1278.688272 0) scale(0.996264)"/>
     <use xlink:href="#NimbusRomNo9L-Regu-2c" transform="translate(1345.138303 0) scale(0.996264)"/>
     <use xlink:href="#NimbusRomNo9L-Regu-48" transform="translate(1370.044903 0) scale(0.996264)"/>
     <use xlink:href="#NimbusRomNo9L-Regu-29" transform="translate(1441.974888 0) scale(0.996264)"/>
    </g>
   </g>
  </g>
 </g>
 <defs>
  <clipPath id="pa01721d097">
   <rect x="10.276132" y="35.788034" width="139.5" height="138.6"/>
  </clipPath>
 </defs>
</svg>
