<?xml version="1.0" encoding="utf-8" standalone="no"?>
<!DOCTYPE svg PUBLIC "-//W3C//DTD SVG 1.1//EN"
  "http://www.w3.org/Graphics/SVG/1.1/DTD/svg11.dtd">
<svg xmlns:xlink="http://www.w3.org/1999/xlink" width="172.586642pt" height="188.617154pt" viewBox="0 0 172.586642 188.617154" xmlns="http://www.w3.org/2000/svg" version="1.1">
 <metadata>
  <rdf:RDF xmlns:dc="http://purl.org/dc/elements/1.1/" xmlns:cc="http://creativecommons.org/ns#" xmlns:rdf="http://www.w3.org/1999/02/22-rdf-syntax-ns#">
   <cc:Work>
    <dc:type rdf:resource="http://purl.org/dc/dcmitype/StillImage"/>
    <dc:date>2025-06-27T12:18:58.852694</dc:date>
    <dc:format>image/svg+xml</dc:format>
    <dc:creator>
     <cc:Agent>
      <dc:title>Matplotlib v3.10.1, https://matplotlib.org/</dc:title>
     </cc:Agent>
    </dc:creator>
   </cc:Work>
  </rdf:RDF>
 </metadata>
 <defs>
  <style type="text/css">*{stroke-linejoin: round; stroke-linecap: butt}</style>
 </defs>
 <g id="figure_1">
  <g id="patch_1">
   <path d="M 0 188.617154 
L 172.586642 188.617154 
L 172.586642 0 
L 0 0 
z
" style="fill: #ffffff"/>
  </g>
  <g id="axes_1">
   <g id="patch_2">
    <path d="M 17.277745 174.388034 
L 156.777745 174.388034 
L 156.777745 35.788034 
L 17.277745 35.788034 
z
" style="fill: #ffffff"/>
   </g>
   <g id="matplotlib.axis_1">
    <g id="xtick_1">
     <g id="line2d_1">
      <path d="M 17.277745 174.388034 
L 17.277745 35.788034 
" clip-path="url(#ped70c3f30a)" style="fill: none; stroke-dasharray: 1.85,0.8; stroke-dashoffset: 0; stroke: #b0b0b0; stroke-opacity: 0.6; stroke-width: 0.5"/>
     </g>
     <g id="line2d_2">
      <defs>
       <path id="meb227bf393" d="M 0 0 
L 0 -3 
" style="stroke: #000000; stroke-width: 0.5"/>
      </defs>
      <g>
       <use xlink:href="#meb227bf393" x="17.277745" y="174.388034" style="stroke: #000000; stroke-width: 0.5"/>
      </g>
     </g>
     <g id="line2d_3">
      <defs>
       <path id="md695170ec9" d="M 0 0 
L 0 3 
" style="stroke: #000000; stroke-width: 0.5"/>
      </defs>
      <g>
       <use xlink:href="#md695170ec9" x="17.277745" y="35.788034" style="stroke: #000000; stroke-width: 0.5"/>
      </g>
     </g>
     <g id="text_1">
      <!-- $\mathdefault{0}$ -->
      <g transform="translate(15.285217 183.29169) scale(0.08 -0.08)">
       <defs>
        <path id="NimbusRomNo9L-Regu-30" d="M 1626 4352 
C 1274 4352 1005 4244 768 4020 
C 397 3661 154 2925 154 2176 
C 154 1479 365 730 666 372 
C 902 90 1229 -64 1600 -64 
C 1926 -64 2202 45 2432 269 
C 2803 621 3046 1364 3046 2138 
C 3046 3450 2464 4352 1626 4352 
z
M 1606 4186 
C 2144 4186 2432 3463 2432 2125 
C 2432 788 2150 103 1600 103 
C 1050 103 768 788 768 2119 
C 768 3476 1056 4186 1606 4186 
z
" transform="scale(0.015625)"/>
       </defs>
       <use xlink:href="#NimbusRomNo9L-Regu-30" transform="scale(0.996264)"/>
      </g>
     </g>
    </g>
    <g id="xtick_2">
     <g id="line2d_4">
      <path d="M 45.233657 174.388034 
L 45.233657 35.788034 
" clip-path="url(#ped70c3f30a)" style="fill: none; stroke-dasharray: 1.85,0.8; stroke-dashoffset: 0; stroke: #b0b0b0; stroke-opacity: 0.6; stroke-width: 0.5"/>
     </g>
     <g id="line2d_5">
      <g>
       <use xlink:href="#meb227bf393" x="45.233657" y="174.388034" style="stroke: #000000; stroke-width: 0.5"/>
      </g>
     </g>
     <g id="line2d_6">
      <g>
       <use xlink:href="#md695170ec9" x="45.233657" y="35.788034" style="stroke: #000000; stroke-width: 0.5"/>
      </g>
     </g>
     <g id="text_2">
      <!-- $\mathdefault{100}$ -->
      <g transform="translate(39.256073 183.29169) scale(0.08 -0.08)">
       <defs>
        <path id="NimbusRomNo9L-Regu-31" d="M 1862 4339 
L 710 3757 
L 710 3667 
C 787 3699 858 3725 883 3738 
C 998 3783 1107 3808 1171 3808 
C 1306 3808 1363 3711 1363 3505 
L 1363 592 
C 1363 379 1312 232 1210 173 
C 1114 116 1024 96 755 96 
L 755 0 
L 2522 0 
L 2522 96 
C 2016 96 1914 160 1914 470 
L 1914 4327 
L 1862 4339 
z
" transform="scale(0.015625)"/>
       </defs>
       <use xlink:href="#NimbusRomNo9L-Regu-31" transform="scale(0.996264)"/>
       <use xlink:href="#NimbusRomNo9L-Regu-30" transform="translate(49.8132 0) scale(0.996264)"/>
       <use xlink:href="#NimbusRomNo9L-Regu-30" transform="translate(99.626401 0) scale(0.996264)"/>
      </g>
     </g>
    </g>
    <g id="xtick_3">
     <g id="line2d_7">
      <path d="M 73.189569 174.388034 
L 73.189569 35.788034 
" clip-path="url(#ped70c3f30a)" style="fill: none; stroke-dasharray: 1.85,0.8; stroke-dashoffset: 0; stroke: #b0b0b0; stroke-opacity: 0.6; stroke-width: 0.5"/>
     </g>
     <g id="line2d_8">
      <g>
       <use xlink:href="#meb227bf393" x="73.189569" y="174.388034" style="stroke: #000000; stroke-width: 0.5"/>
      </g>
     </g>
     <g id="line2d_9">
      <g>
       <use xlink:href="#md695170ec9" x="73.189569" y="35.788034" style="stroke: #000000; stroke-width: 0.5"/>
      </g>
     </g>
     <g id="text_3">
      <!-- $\mathdefault{200}$ -->
      <g transform="translate(67.211985 183.29169) scale(0.08 -0.08)">
       <defs>
        <path id="NimbusRomNo9L-Regu-32" d="M 3040 875 
L 2957 907 
C 2720 544 2637 486 2349 486 
L 819 486 
L 1894 1609 
C 2464 2202 2714 2687 2714 3185 
C 2714 3823 2195 4313 1530 4313 
C 1178 4313 845 4173 608 3918 
C 403 3700 307 3496 198 3043 
L 333 3011 
C 589 3636 819 3840 1261 3840 
C 1798 3840 2163 3476 2163 2940 
C 2163 2443 1869 1850 1331 1282 
L 192 77 
L 192 0 
L 2688 0 
L 3040 875 
z
" transform="scale(0.015625)"/>
       </defs>
       <use xlink:href="#NimbusRomNo9L-Regu-32" transform="scale(0.996264)"/>
       <use xlink:href="#NimbusRomNo9L-Regu-30" transform="translate(49.8132 0) scale(0.996264)"/>
       <use xlink:href="#NimbusRomNo9L-Regu-30" transform="translate(99.626401 0) scale(0.996264)"/>
      </g>
     </g>
    </g>
    <g id="xtick_4">
     <g id="line2d_10">
      <path d="M 101.145481 174.388034 
L 101.145481 35.788034 
" clip-path="url(#ped70c3f30a)" style="fill: none; stroke-dasharray: 1.85,0.8; stroke-dashoffset: 0; stroke: #b0b0b0; stroke-opacity: 0.6; stroke-width: 0.5"/>
     </g>
     <g id="line2d_11">
      <g>
       <use xlink:href="#meb227bf393" x="101.145481" y="174.388034" style="stroke: #000000; stroke-width: 0.5"/>
      </g>
     </g>
     <g id="line2d_12">
      <g>
       <use xlink:href="#md695170ec9" x="101.145481" y="35.788034" style="stroke: #000000; stroke-width: 0.5"/>
      </g>
     </g>
     <g id="text_4">
      <!-- $\mathdefault{300}$ -->
      <g transform="translate(95.167897 183.29169) scale(0.08 -0.08)">
       <defs>
        <path id="NimbusRomNo9L-Regu-33" d="M 979 2138 
C 1357 2138 1504 2125 1658 2068 
C 2054 1927 2304 1562 2304 1120 
C 2304 583 1939 167 1466 167 
C 1293 167 1165 212 928 365 
C 736 480 627 525 518 525 
C 371 525 275 436 275 301 
C 275 77 550 -64 998 -64 
C 1491 -64 1997 103 2298 365 
C 2598 628 2765 999 2765 1428 
C 2765 1754 2662 2055 2477 2253 
C 2349 2394 2227 2471 1946 2592 
C 2387 2893 2547 3130 2547 3476 
C 2547 3994 2138 4352 1549 4352 
C 1229 4352 947 4244 717 4039 
C 525 3866 429 3699 288 3315 
L 384 3290 
C 646 3757 934 3968 1338 3968 
C 1754 3968 2042 3687 2042 3284 
C 2042 3053 1946 2823 1786 2663 
C 1594 2471 1414 2375 979 2221 
L 979 2138 
z
" transform="scale(0.015625)"/>
       </defs>
       <use xlink:href="#NimbusRomNo9L-Regu-33" transform="scale(0.996264)"/>
       <use xlink:href="#NimbusRomNo9L-Regu-30" transform="translate(49.8132 0) scale(0.996264)"/>
       <use xlink:href="#NimbusRomNo9L-Regu-30" transform="translate(99.626401 0) scale(0.996264)"/>
      </g>
     </g>
    </g>
    <g id="xtick_5">
     <g id="line2d_13">
      <path d="M 129.101393 174.388034 
L 129.101393 35.788034 
" clip-path="url(#ped70c3f30a)" style="fill: none; stroke-dasharray: 1.85,0.8; stroke-dashoffset: 0; stroke: #b0b0b0; stroke-opacity: 0.6; stroke-width: 0.5"/>
     </g>
     <g id="line2d_14">
      <g>
       <use xlink:href="#meb227bf393" x="129.101393" y="174.388034" style="stroke: #000000; stroke-width: 0.5"/>
      </g>
     </g>
     <g id="line2d_15">
      <g>
       <use xlink:href="#md695170ec9" x="129.101393" y="35.788034" style="stroke: #000000; stroke-width: 0.5"/>
      </g>
     </g>
     <g id="text_5">
      <!-- $\mathdefault{400}$ -->
      <g transform="translate(123.123809 183.29169) scale(0.08 -0.08)">
       <defs>
        <path id="NimbusRomNo9L-Regu-34" d="M 3021 1497 
L 2368 1497 
L 2368 4352 
L 2086 4352 
L 77 1497 
L 77 1088 
L 1875 1088 
L 1875 32 
L 2368 32 
L 2368 1088 
L 3021 1088 
L 3021 1497 
z
M 1869 1497 
L 333 1497 
L 1869 3698 
L 1869 1497 
z
" transform="scale(0.015625)"/>
       </defs>
       <use xlink:href="#NimbusRomNo9L-Regu-34" transform="scale(0.996264)"/>
       <use xlink:href="#NimbusRomNo9L-Regu-30" transform="translate(49.8132 0) scale(0.996264)"/>
       <use xlink:href="#NimbusRomNo9L-Regu-30" transform="translate(99.626401 0) scale(0.996264)"/>
      </g>
     </g>
    </g>
    <g id="xtick_6">
     <g id="line2d_16">
      <defs>
       <path id="m741d82bb2a" d="M 0 0 
L 0 -1.5 
" style="stroke: #000000; stroke-width: 0.5"/>
      </defs>
      <g>
       <use xlink:href="#m741d82bb2a" x="22.868928" y="174.388034" style="stroke: #000000; stroke-width: 0.5"/>
      </g>
     </g>
     <g id="line2d_17">
      <defs>
       <path id="mffa95ca1a2" d="M 0 0 
L 0 1.5 
" style="stroke: #000000; stroke-width: 0.5"/>
      </defs>
      <g>
       <use xlink:href="#mffa95ca1a2" x="22.868928" y="35.788034" style="stroke: #000000; stroke-width: 0.5"/>
      </g>
     </g>
    </g>
    <g id="xtick_7">
     <g id="line2d_18">
      <g>
       <use xlink:href="#m741d82bb2a" x="28.46011" y="174.388034" style="stroke: #000000; stroke-width: 0.5"/>
      </g>
     </g>
     <g id="line2d_19">
      <g>
       <use xlink:href="#mffa95ca1a2" x="28.46011" y="35.788034" style="stroke: #000000; stroke-width: 0.5"/>
      </g>
     </g>
    </g>
    <g id="xtick_8">
     <g id="line2d_20">
      <g>
       <use xlink:href="#m741d82bb2a" x="34.051292" y="174.388034" style="stroke: #000000; stroke-width: 0.5"/>
      </g>
     </g>
     <g id="line2d_21">
      <g>
       <use xlink:href="#mffa95ca1a2" x="34.051292" y="35.788034" style="stroke: #000000; stroke-width: 0.5"/>
      </g>
     </g>
    </g>
    <g id="xtick_9">
     <g id="line2d_22">
      <g>
       <use xlink:href="#m741d82bb2a" x="39.642475" y="174.388034" style="stroke: #000000; stroke-width: 0.5"/>
      </g>
     </g>
     <g id="line2d_23">
      <g>
       <use xlink:href="#mffa95ca1a2" x="39.642475" y="35.788034" style="stroke: #000000; stroke-width: 0.5"/>
      </g>
     </g>
    </g>
    <g id="xtick_10">
     <g id="line2d_24">
      <g>
       <use xlink:href="#m741d82bb2a" x="50.82484" y="174.388034" style="stroke: #000000; stroke-width: 0.5"/>
      </g>
     </g>
     <g id="line2d_25">
      <g>
       <use xlink:href="#mffa95ca1a2" x="50.82484" y="35.788034" style="stroke: #000000; stroke-width: 0.5"/>
      </g>
     </g>
    </g>
    <g id="xtick_11">
     <g id="line2d_26">
      <g>
       <use xlink:href="#m741d82bb2a" x="56.416022" y="174.388034" style="stroke: #000000; stroke-width: 0.5"/>
      </g>
     </g>
     <g id="line2d_27">
      <g>
       <use xlink:href="#mffa95ca1a2" x="56.416022" y="35.788034" style="stroke: #000000; stroke-width: 0.5"/>
      </g>
     </g>
    </g>
    <g id="xtick_12">
     <g id="line2d_28">
      <g>
       <use xlink:href="#m741d82bb2a" x="62.007204" y="174.388034" style="stroke: #000000; stroke-width: 0.5"/>
      </g>
     </g>
     <g id="line2d_29">
      <g>
       <use xlink:href="#mffa95ca1a2" x="62.007204" y="35.788034" style="stroke: #000000; stroke-width: 0.5"/>
      </g>
     </g>
    </g>
    <g id="xtick_13">
     <g id="line2d_30">
      <g>
       <use xlink:href="#m741d82bb2a" x="67.598387" y="174.388034" style="stroke: #000000; stroke-width: 0.5"/>
      </g>
     </g>
     <g id="line2d_31">
      <g>
       <use xlink:href="#mffa95ca1a2" x="67.598387" y="35.788034" style="stroke: #000000; stroke-width: 0.5"/>
      </g>
     </g>
    </g>
    <g id="xtick_14">
     <g id="line2d_32">
      <g>
       <use xlink:href="#m741d82bb2a" x="78.780751" y="174.388034" style="stroke: #000000; stroke-width: 0.5"/>
      </g>
     </g>
     <g id="line2d_33">
      <g>
       <use xlink:href="#mffa95ca1a2" x="78.780751" y="35.788034" style="stroke: #000000; stroke-width: 0.5"/>
      </g>
     </g>
    </g>
    <g id="xtick_15">
     <g id="line2d_34">
      <g>
       <use xlink:href="#m741d82bb2a" x="84.371934" y="174.388034" style="stroke: #000000; stroke-width: 0.5"/>
      </g>
     </g>
     <g id="line2d_35">
      <g>
       <use xlink:href="#mffa95ca1a2" x="84.371934" y="35.788034" style="stroke: #000000; stroke-width: 0.5"/>
      </g>
     </g>
    </g>
    <g id="xtick_16">
     <g id="line2d_36">
      <g>
       <use xlink:href="#m741d82bb2a" x="89.963116" y="174.388034" style="stroke: #000000; stroke-width: 0.5"/>
      </g>
     </g>
     <g id="line2d_37">
      <g>
       <use xlink:href="#mffa95ca1a2" x="89.963116" y="35.788034" style="stroke: #000000; stroke-width: 0.5"/>
      </g>
     </g>
    </g>
    <g id="xtick_17">
     <g id="line2d_38">
      <g>
       <use xlink:href="#m741d82bb2a" x="95.554298" y="174.388034" style="stroke: #000000; stroke-width: 0.5"/>
      </g>
     </g>
     <g id="line2d_39">
      <g>
       <use xlink:href="#mffa95ca1a2" x="95.554298" y="35.788034" style="stroke: #000000; stroke-width: 0.5"/>
      </g>
     </g>
    </g>
    <g id="xtick_18">
     <g id="line2d_40">
      <g>
       <use xlink:href="#m741d82bb2a" x="106.736663" y="174.388034" style="stroke: #000000; stroke-width: 0.5"/>
      </g>
     </g>
     <g id="line2d_41">
      <g>
       <use xlink:href="#mffa95ca1a2" x="106.736663" y="35.788034" style="stroke: #000000; stroke-width: 0.5"/>
      </g>
     </g>
    </g>
    <g id="xtick_19">
     <g id="line2d_42">
      <g>
       <use xlink:href="#m741d82bb2a" x="112.327846" y="174.388034" style="stroke: #000000; stroke-width: 0.5"/>
      </g>
     </g>
     <g id="line2d_43">
      <g>
       <use xlink:href="#mffa95ca1a2" x="112.327846" y="35.788034" style="stroke: #000000; stroke-width: 0.5"/>
      </g>
     </g>
    </g>
    <g id="xtick_20">
     <g id="line2d_44">
      <g>
       <use xlink:href="#m741d82bb2a" x="117.919028" y="174.388034" style="stroke: #000000; stroke-width: 0.5"/>
      </g>
     </g>
     <g id="line2d_45">
      <g>
       <use xlink:href="#mffa95ca1a2" x="117.919028" y="35.788034" style="stroke: #000000; stroke-width: 0.5"/>
      </g>
     </g>
    </g>
    <g id="xtick_21">
     <g id="line2d_46">
      <g>
       <use xlink:href="#m741d82bb2a" x="123.51021" y="174.388034" style="stroke: #000000; stroke-width: 0.5"/>
      </g>
     </g>
     <g id="line2d_47">
      <g>
       <use xlink:href="#mffa95ca1a2" x="123.51021" y="35.788034" style="stroke: #000000; stroke-width: 0.5"/>
      </g>
     </g>
    </g>
    <g id="xtick_22">
     <g id="line2d_48">
      <g>
       <use xlink:href="#m741d82bb2a" x="134.692575" y="174.388034" style="stroke: #000000; stroke-width: 0.5"/>
      </g>
     </g>
     <g id="line2d_49">
      <g>
       <use xlink:href="#mffa95ca1a2" x="134.692575" y="35.788034" style="stroke: #000000; stroke-width: 0.5"/>
      </g>
     </g>
    </g>
    <g id="xtick_23">
     <g id="line2d_50">
      <g>
       <use xlink:href="#m741d82bb2a" x="140.283757" y="174.388034" style="stroke: #000000; stroke-width: 0.5"/>
      </g>
     </g>
     <g id="line2d_51">
      <g>
       <use xlink:href="#mffa95ca1a2" x="140.283757" y="35.788034" style="stroke: #000000; stroke-width: 0.5"/>
      </g>
     </g>
    </g>
    <g id="xtick_24">
     <g id="line2d_52">
      <g>
       <use xlink:href="#m741d82bb2a" x="145.87494" y="174.388034" style="stroke: #000000; stroke-width: 0.5"/>
      </g>
     </g>
     <g id="line2d_53">
      <g>
       <use xlink:href="#mffa95ca1a2" x="145.87494" y="35.788034" style="stroke: #000000; stroke-width: 0.5"/>
      </g>
     </g>
    </g>
    <g id="xtick_25">
     <g id="line2d_54">
      <g>
       <use xlink:href="#m741d82bb2a" x="151.466122" y="174.388034" style="stroke: #000000; stroke-width: 0.5"/>
      </g>
     </g>
     <g id="line2d_55">
      <g>
       <use xlink:href="#mffa95ca1a2" x="151.466122" y="35.788034" style="stroke: #000000; stroke-width: 0.5"/>
      </g>
     </g>
    </g>
   </g>
   <g id="matplotlib.axis_2">
    <g id="ytick_1">
     <g id="line2d_56">
      <path d="M 17.277745 174.388034 
L 156.777745 174.388034 
" clip-path="url(#ped70c3f30a)" style="fill: none; stroke-dasharray: 1.85,0.8; stroke-dashoffset: 0; stroke: #b0b0b0; stroke-opacity: 0.6; stroke-width: 0.5"/>
     </g>
     <g id="line2d_57">
      <defs>
       <path id="mfe80fdc9e9" d="M 0 0 
L 3 0 
" style="stroke: #000000; stroke-width: 0.5"/>
      </defs>
      <g>
       <use xlink:href="#mfe80fdc9e9" x="17.277745" y="174.388034" style="stroke: #000000; stroke-width: 0.5"/>
      </g>
     </g>
     <g id="line2d_58">
      <defs>
       <path id="m8d3cf11553" d="M 0 0 
L -3 0 
" style="stroke: #000000; stroke-width: 0.5"/>
      </defs>
      <g>
       <use xlink:href="#m8d3cf11553" x="156.777745" y="174.388034" style="stroke: #000000; stroke-width: 0.5"/>
      </g>
     </g>
     <g id="text_6">
      <!-- $\mathdefault{0.0}$ -->
      <g transform="translate(3.6 177.089862) scale(0.08 -0.08)">
       <defs>
        <path id="CMMI10-3a" d="M 1229 338 
C 1229 522 1075 675 890 675 
C 704 675 550 522 550 338 
C 550 153 704 0 890 0 
C 1075 0 1229 153 1229 338 
z
" transform="scale(0.015625)"/>
       </defs>
       <use xlink:href="#NimbusRomNo9L-Regu-30" transform="scale(0.996264)"/>
       <use xlink:href="#CMMI10-3a" transform="translate(49.8132 0) scale(0.996264)"/>
       <use xlink:href="#NimbusRomNo9L-Regu-30" transform="translate(77.408707 0) scale(0.996264)"/>
      </g>
     </g>
    </g>
    <g id="ytick_2">
     <g id="line2d_59">
      <path d="M 17.277745 146.668034 
L 156.777745 146.668034 
" clip-path="url(#ped70c3f30a)" style="fill: none; stroke-dasharray: 1.85,0.8; stroke-dashoffset: 0; stroke: #b0b0b0; stroke-opacity: 0.6; stroke-width: 0.5"/>
     </g>
     <g id="line2d_60">
      <g>
       <use xlink:href="#mfe80fdc9e9" x="17.277745" y="146.668034" style="stroke: #000000; stroke-width: 0.5"/>
      </g>
     </g>
     <g id="line2d_61">
      <g>
       <use xlink:href="#m8d3cf11553" x="156.777745" y="146.668034" style="stroke: #000000; stroke-width: 0.5"/>
      </g>
     </g>
     <g id="text_7">
      <!-- $\mathdefault{0.2}$ -->
      <g transform="translate(3.6 149.369862) scale(0.08 -0.08)">
       <use xlink:href="#NimbusRomNo9L-Regu-30" transform="scale(0.996264)"/>
       <use xlink:href="#CMMI10-3a" transform="translate(49.8132 0) scale(0.996264)"/>
       <use xlink:href="#NimbusRomNo9L-Regu-32" transform="translate(77.408707 0) scale(0.996264)"/>
      </g>
     </g>
    </g>
    <g id="ytick_3">
     <g id="line2d_62">
      <path d="M 17.277745 118.948034 
L 156.777745 118.948034 
" clip-path="url(#ped70c3f30a)" style="fill: none; stroke-dasharray: 1.85,0.8; stroke-dashoffset: 0; stroke: #b0b0b0; stroke-opacity: 0.6; stroke-width: 0.5"/>
     </g>
     <g id="line2d_63">
      <g>
       <use xlink:href="#mfe80fdc9e9" x="17.277745" y="118.948034" style="stroke: #000000; stroke-width: 0.5"/>
      </g>
     </g>
     <g id="line2d_64">
      <g>
       <use xlink:href="#m8d3cf11553" x="156.777745" y="118.948034" style="stroke: #000000; stroke-width: 0.5"/>
      </g>
     </g>
     <g id="text_8">
      <!-- $\mathdefault{0.4}$ -->
      <g transform="translate(3.6 121.649862) scale(0.08 -0.08)">
       <use xlink:href="#NimbusRomNo9L-Regu-30" transform="scale(0.996264)"/>
       <use xlink:href="#CMMI10-3a" transform="translate(49.8132 0) scale(0.996264)"/>
       <use xlink:href="#NimbusRomNo9L-Regu-34" transform="translate(77.408707 0) scale(0.996264)"/>
      </g>
     </g>
    </g>
    <g id="ytick_4">
     <g id="line2d_65">
      <path d="M 17.277745 91.228034 
L 156.777745 91.228034 
" clip-path="url(#ped70c3f30a)" style="fill: none; stroke-dasharray: 1.85,0.8; stroke-dashoffset: 0; stroke: #b0b0b0; stroke-opacity: 0.6; stroke-width: 0.5"/>
     </g>
     <g id="line2d_66">
      <g>
       <use xlink:href="#mfe80fdc9e9" x="17.277745" y="91.228034" style="stroke: #000000; stroke-width: 0.5"/>
      </g>
     </g>
     <g id="line2d_67">
      <g>
       <use xlink:href="#m8d3cf11553" x="156.777745" y="91.228034" style="stroke: #000000; stroke-width: 0.5"/>
      </g>
     </g>
     <g id="text_9">
      <!-- $\mathdefault{0.6}$ -->
      <g transform="translate(3.6 93.929862) scale(0.08 -0.08)">
       <defs>
        <path id="NimbusRomNo9L-Regu-36" d="M 2854 4391 
C 2125 4327 1754 4205 1286 3879 
C 595 3386 218 2656 218 1802 
C 218 1248 390 688 666 370 
C 909 89 1254 -64 1651 -64 
C 2445 -64 2995 541 2995 1421 
C 2995 2236 2528 2752 1792 2752 
C 1510 2752 1376 2707 973 2464 
C 1146 3431 1862 4122 2867 4288 
L 2854 4391 
z
M 1549 2458 
C 2099 2458 2419 2000 2419 1204 
C 2419 504 2170 116 1722 116 
C 1158 116 813 714 813 1700 
C 813 2025 864 2203 992 2299 
C 1126 2400 1325 2458 1549 2458 
z
" transform="scale(0.015625)"/>
       </defs>
       <use xlink:href="#NimbusRomNo9L-Regu-30" transform="scale(0.996264)"/>
       <use xlink:href="#CMMI10-3a" transform="translate(49.8132 0) scale(0.996264)"/>
       <use xlink:href="#NimbusRomNo9L-Regu-36" transform="translate(77.408707 0) scale(0.996264)"/>
      </g>
     </g>
    </g>
    <g id="ytick_5">
     <g id="line2d_68">
      <path d="M 17.277745 63.508034 
L 156.777745 63.508034 
" clip-path="url(#ped70c3f30a)" style="fill: none; stroke-dasharray: 1.85,0.8; stroke-dashoffset: 0; stroke: #b0b0b0; stroke-opacity: 0.6; stroke-width: 0.5"/>
     </g>
     <g id="line2d_69">
      <g>
       <use xlink:href="#mfe80fdc9e9" x="17.277745" y="63.508034" style="stroke: #000000; stroke-width: 0.5"/>
      </g>
     </g>
     <g id="line2d_70">
      <g>
       <use xlink:href="#m8d3cf11553" x="156.777745" y="63.508034" style="stroke: #000000; stroke-width: 0.5"/>
      </g>
     </g>
     <g id="text_10">
      <!-- $\mathdefault{0.8}$ -->
      <g transform="translate(3.6 66.209862) scale(0.08 -0.08)">
       <defs>
        <path id="NimbusRomNo9L-Regu-38" d="M 1856 2400 
C 2490 2740 2714 3008 2714 3444 
C 2714 3968 2253 4352 1613 4352 
C 915 4352 397 3924 397 3341 
C 397 2925 518 2740 1190 2151 
C 499 1626 358 1428 358 992 
C 358 372 864 -64 1587 -64 
C 2355 -64 2848 359 2848 1018 
C 2848 1511 2630 1824 1856 2400 
z
M 1741 1741 
C 2208 1408 2362 1178 2362 820 
C 2362 404 2074 116 1658 116 
C 1171 116 845 487 845 1044 
C 845 1453 986 1722 1357 2023 
L 1741 1741 
z
M 1670 2516 
C 1101 2887 870 3181 870 3540 
C 870 3911 1158 4173 1562 4173 
C 1997 4173 2272 3892 2272 3450 
C 2272 3085 2093 2797 1728 2554 
C 1696 2535 1696 2535 1670 2516 
z
" transform="scale(0.015625)"/>
       </defs>
       <use xlink:href="#NimbusRomNo9L-Regu-30" transform="scale(0.996264)"/>
       <use xlink:href="#CMMI10-3a" transform="translate(49.8132 0) scale(0.996264)"/>
       <use xlink:href="#NimbusRomNo9L-Regu-38" transform="translate(77.408707 0) scale(0.996264)"/>
      </g>
     </g>
    </g>
    <g id="ytick_6">
     <g id="line2d_71">
      <path d="M 17.277745 35.788034 
L 156.777745 35.788034 
" clip-path="url(#ped70c3f30a)" style="fill: none; stroke-dasharray: 1.85,0.8; stroke-dashoffset: 0; stroke: #b0b0b0; stroke-opacity: 0.6; stroke-width: 0.5"/>
     </g>
     <g id="line2d_72">
      <g>
       <use xlink:href="#mfe80fdc9e9" x="17.277745" y="35.788034" style="stroke: #000000; stroke-width: 0.5"/>
      </g>
     </g>
     <g id="line2d_73">
      <g>
       <use xlink:href="#m8d3cf11553" x="156.777745" y="35.788034" style="stroke: #000000; stroke-width: 0.5"/>
      </g>
     </g>
     <g id="text_11">
      <!-- $\mathdefault{1.0}$ -->
      <g transform="translate(3.6 38.489862) scale(0.08 -0.08)">
       <use xlink:href="#NimbusRomNo9L-Regu-31" transform="scale(0.996264)"/>
       <use xlink:href="#CMMI10-3a" transform="translate(49.8132 0) scale(0.996264)"/>
       <use xlink:href="#NimbusRomNo9L-Regu-30" transform="translate(77.408707 0) scale(0.996264)"/>
      </g>
     </g>
    </g>
    <g id="ytick_7">
     <g id="line2d_74">
      <defs>
       <path id="ma83d8a72bd" d="M 0 0 
L 1.5 0 
" style="stroke: #000000; stroke-width: 0.5"/>
      </defs>
      <g>
       <use xlink:href="#ma83d8a72bd" x="17.277745" y="167.458034" style="stroke: #000000; stroke-width: 0.5"/>
      </g>
     </g>
     <g id="line2d_75">
      <defs>
       <path id="mdcc780b0ad" d="M 0 0 
L -1.5 0 
" style="stroke: #000000; stroke-width: 0.5"/>
      </defs>
      <g>
       <use xlink:href="#mdcc780b0ad" x="156.777745" y="167.458034" style="stroke: #000000; stroke-width: 0.5"/>
      </g>
     </g>
    </g>
    <g id="ytick_8">
     <g id="line2d_76">
      <g>
       <use xlink:href="#ma83d8a72bd" x="17.277745" y="160.528034" style="stroke: #000000; stroke-width: 0.5"/>
      </g>
     </g>
     <g id="line2d_77">
      <g>
       <use xlink:href="#mdcc780b0ad" x="156.777745" y="160.528034" style="stroke: #000000; stroke-width: 0.5"/>
      </g>
     </g>
    </g>
    <g id="ytick_9">
     <g id="line2d_78">
      <g>
       <use xlink:href="#ma83d8a72bd" x="17.277745" y="153.598034" style="stroke: #000000; stroke-width: 0.5"/>
      </g>
     </g>
     <g id="line2d_79">
      <g>
       <use xlink:href="#mdcc780b0ad" x="156.777745" y="153.598034" style="stroke: #000000; stroke-width: 0.5"/>
      </g>
     </g>
    </g>
    <g id="ytick_10">
     <g id="line2d_80">
      <g>
       <use xlink:href="#ma83d8a72bd" x="17.277745" y="139.738034" style="stroke: #000000; stroke-width: 0.5"/>
      </g>
     </g>
     <g id="line2d_81">
      <g>
       <use xlink:href="#mdcc780b0ad" x="156.777745" y="139.738034" style="stroke: #000000; stroke-width: 0.5"/>
      </g>
     </g>
    </g>
    <g id="ytick_11">
     <g id="line2d_82">
      <g>
       <use xlink:href="#ma83d8a72bd" x="17.277745" y="132.808034" style="stroke: #000000; stroke-width: 0.5"/>
      </g>
     </g>
     <g id="line2d_83">
      <g>
       <use xlink:href="#mdcc780b0ad" x="156.777745" y="132.808034" style="stroke: #000000; stroke-width: 0.5"/>
      </g>
     </g>
    </g>
    <g id="ytick_12">
     <g id="line2d_84">
      <g>
       <use xlink:href="#ma83d8a72bd" x="17.277745" y="125.878034" style="stroke: #000000; stroke-width: 0.5"/>
      </g>
     </g>
     <g id="line2d_85">
      <g>
       <use xlink:href="#mdcc780b0ad" x="156.777745" y="125.878034" style="stroke: #000000; stroke-width: 0.5"/>
      </g>
     </g>
    </g>
    <g id="ytick_13">
     <g id="line2d_86">
      <g>
       <use xlink:href="#ma83d8a72bd" x="17.277745" y="112.018034" style="stroke: #000000; stroke-width: 0.5"/>
      </g>
     </g>
     <g id="line2d_87">
      <g>
       <use xlink:href="#mdcc780b0ad" x="156.777745" y="112.018034" style="stroke: #000000; stroke-width: 0.5"/>
      </g>
     </g>
    </g>
    <g id="ytick_14">
     <g id="line2d_88">
      <g>
       <use xlink:href="#ma83d8a72bd" x="17.277745" y="105.088034" style="stroke: #000000; stroke-width: 0.5"/>
      </g>
     </g>
     <g id="line2d_89">
      <g>
       <use xlink:href="#mdcc780b0ad" x="156.777745" y="105.088034" style="stroke: #000000; stroke-width: 0.5"/>
      </g>
     </g>
    </g>
    <g id="ytick_15">
     <g id="line2d_90">
      <g>
       <use xlink:href="#ma83d8a72bd" x="17.277745" y="98.158034" style="stroke: #000000; stroke-width: 0.5"/>
      </g>
     </g>
     <g id="line2d_91">
      <g>
       <use xlink:href="#mdcc780b0ad" x="156.777745" y="98.158034" style="stroke: #000000; stroke-width: 0.5"/>
      </g>
     </g>
    </g>
    <g id="ytick_16">
     <g id="line2d_92">
      <g>
       <use xlink:href="#ma83d8a72bd" x="17.277745" y="84.298034" style="stroke: #000000; stroke-width: 0.5"/>
      </g>
     </g>
     <g id="line2d_93">
      <g>
       <use xlink:href="#mdcc780b0ad" x="156.777745" y="84.298034" style="stroke: #000000; stroke-width: 0.5"/>
      </g>
     </g>
    </g>
    <g id="ytick_17">
     <g id="line2d_94">
      <g>
       <use xlink:href="#ma83d8a72bd" x="17.277745" y="77.368034" style="stroke: #000000; stroke-width: 0.5"/>
      </g>
     </g>
     <g id="line2d_95">
      <g>
       <use xlink:href="#mdcc780b0ad" x="156.777745" y="77.368034" style="stroke: #000000; stroke-width: 0.5"/>
      </g>
     </g>
    </g>
    <g id="ytick_18">
     <g id="line2d_96">
      <g>
       <use xlink:href="#ma83d8a72bd" x="17.277745" y="70.438034" style="stroke: #000000; stroke-width: 0.5"/>
      </g>
     </g>
     <g id="line2d_97">
      <g>
       <use xlink:href="#mdcc780b0ad" x="156.777745" y="70.438034" style="stroke: #000000; stroke-width: 0.5"/>
      </g>
     </g>
    </g>
    <g id="ytick_19">
     <g id="line2d_98">
      <g>
       <use xlink:href="#ma83d8a72bd" x="17.277745" y="56.578034" style="stroke: #000000; stroke-width: 0.5"/>
      </g>
     </g>
     <g id="line2d_99">
      <g>
       <use xlink:href="#mdcc780b0ad" x="156.777745" y="56.578034" style="stroke: #000000; stroke-width: 0.5"/>
      </g>
     </g>
    </g>
    <g id="ytick_20">
     <g id="line2d_100">
      <g>
       <use xlink:href="#ma83d8a72bd" x="17.277745" y="49.648034" style="stroke: #000000; stroke-width: 0.5"/>
      </g>
     </g>
     <g id="line2d_101">
      <g>
       <use xlink:href="#mdcc780b0ad" x="156.777745" y="49.648034" style="stroke: #000000; stroke-width: 0.5"/>
      </g>
     </g>
    </g>
    <g id="ytick_21">
     <g id="line2d_102">
      <g>
       <use xlink:href="#ma83d8a72bd" x="17.277745" y="42.718034" style="stroke: #000000; stroke-width: 0.5"/>
      </g>
     </g>
     <g id="line2d_103">
      <g>
       <use xlink:href="#mdcc780b0ad" x="156.777745" y="42.718034" style="stroke: #000000; stroke-width: 0.5"/>
      </g>
     </g>
    </g>
   </g>
   <g id="line2d_104">
    <path d="M 17.277745 112.849634 
L 17.557304 111.186434 
L 19.514218 94.415834 
L 19.793777 92.336834 
L 20.073337 91.921034 
L 20.632455 88.594634 
L 20.912014 85.961234 
L 21.191573 87.070034 
L 21.471132 86.515634 
L 21.750691 86.654234 
L 22.309809 84.436634 
L 22.589369 84.852434 
L 22.868928 84.575234 
L 23.148487 84.991034 
L 23.428046 85.129634 
L 23.707605 84.159434 
L 23.987164 83.743634 
L 24.266723 84.575234 
L 24.825842 84.852434 
L 25.105401 84.713834 
L 25.38496 84.159434 
L 25.664519 84.159434 
L 25.944078 84.713834 
L 26.223637 84.991034 
L 26.782755 83.743634 
L 27.062314 83.882234 
L 27.341874 83.466434 
L 27.621433 84.159434 
L 27.900992 84.436634 
L 28.180551 83.882234 
L 28.46011 83.882234 
L 28.739669 84.852434 
L 29.019228 83.882234 
L 29.578347 84.298034 
L 29.857906 83.743634 
L 30.137465 83.605034 
L 30.417024 84.575234 
L 30.696583 84.575234 
L 31.255701 83.050634 
L 31.53526 84.298034 
L 31.814819 84.298034 
L 32.094379 84.852434 
L 32.373938 84.575234 
L 32.653497 83.882234 
L 32.933056 83.743634 
L 33.212615 83.327834 
L 33.771733 84.436634 
L 34.051292 83.882234 
L 34.330852 84.298034 
L 34.610411 84.436634 
L 34.88997 84.713834 
L 35.169529 83.882234 
L 35.449088 85.406834 
L 35.728647 84.436634 
L 36.008206 84.991034 
L 36.567324 83.327834 
L 36.846884 83.466434 
L 37.406002 85.406834 
L 37.685561 85.129634 
L 37.96512 84.575234 
L 38.244679 84.436634 
L 38.524238 85.129634 
L 38.803797 84.991034 
L 39.083357 84.713834 
L 39.642475 82.773434 
L 39.922034 82.912034 
L 40.201593 84.020834 
L 40.481152 84.159434 
L 40.760711 84.575234 
L 41.04027 83.882234 
L 41.319829 84.159434 
L 41.599389 83.605034 
L 41.878948 83.882234 
L 42.158507 83.882234 
L 42.438066 84.436634 
L 42.717625 83.466434 
L 42.997184 83.605034 
L 43.276743 83.882234 
L 43.835862 84.991034 
L 44.115421 84.159434 
L 44.39498 84.852434 
L 44.674539 84.575234 
L 44.954098 84.713834 
L 45.513216 85.129634 
L 45.792775 84.159434 
L 46.072334 84.991034 
L 46.351894 84.852434 
L 46.631453 83.189234 
L 46.911012 83.327834 
L 47.190571 83.605034 
L 47.749689 84.713834 
L 48.029248 84.713834 
L 48.308807 84.852434 
L 49.147485 84.436634 
L 49.427044 84.436634 
L 50.265721 84.020834 
L 50.54528 84.991034 
L 50.82484 84.991034 
L 51.104399 83.050634 
L 51.383958 84.020834 
L 51.663517 84.159434 
L 51.943076 83.743634 
L 52.222635 84.991034 
L 52.502194 84.852434 
L 52.781753 84.159434 
L 53.061312 83.050634 
L 53.340872 83.466434 
L 53.620431 83.327834 
L 54.179549 84.298034 
L 54.459108 83.189234 
L 54.738667 84.020834 
L 55.018226 83.743634 
L 55.297785 82.634834 
L 55.577345 84.852434 
L 55.856904 84.159434 
L 56.136463 85.268234 
L 56.416022 83.605034 
L 56.695581 84.298034 
L 56.97514 84.436634 
L 57.254699 83.882234 
L 57.534258 84.575234 
L 57.813817 84.298034 
L 58.093377 83.189234 
L 58.652495 83.882234 
L 58.932054 83.743634 
L 59.211613 84.020834 
L 59.491172 84.575234 
L 59.770731 83.466434 
L 60.05029 84.575234 
L 60.32985 84.852434 
L 60.609409 85.406834 
L 61.168527 83.882234 
L 61.448086 83.605034 
L 61.727645 84.159434 
L 62.007204 83.327834 
L 62.286763 84.020834 
L 63.405 85.268234 
L 63.684559 84.713834 
L 63.964118 84.852434 
L 64.243677 83.882234 
L 64.802795 84.575234 
L 65.082355 84.020834 
L 65.361914 84.159434 
L 65.641473 83.327834 
L 65.921032 84.298034 
L 66.200591 84.159434 
L 66.48015 83.743634 
L 66.759709 84.159434 
L 67.039268 83.882234 
L 67.598387 84.298034 
L 67.877946 84.020834 
L 68.157505 84.852434 
L 68.437064 84.852434 
L 68.716623 85.545434 
L 68.996182 84.575234 
L 69.275741 84.713834 
L 69.5553 84.991034 
L 69.83486 84.020834 
L 70.114419 83.743634 
L 70.393978 84.298034 
L 70.673537 85.129634 
L 70.953096 84.575234 
L 71.232655 84.713834 
L 71.512214 83.743634 
L 71.791773 84.298034 
L 72.071332 84.159434 
L 72.350892 83.743634 
L 72.630451 84.020834 
L 72.91001 82.912034 
L 73.189569 83.189234 
L 73.469128 84.020834 
L 73.748687 83.882234 
L 74.028246 84.298034 
L 74.307805 83.466434 
L 74.587365 83.743634 
L 74.866924 84.298034 
L 75.146483 83.882234 
L 75.426042 84.298034 
L 75.705601 83.327834 
L 75.98516 83.882234 
L 76.264719 83.743634 
L 76.544278 84.159434 
L 76.823838 84.020834 
L 77.103397 84.575234 
L 77.382956 83.466434 
L 77.662515 83.605034 
L 77.942074 84.436634 
L 78.221633 83.743634 
L 78.501192 84.575234 
L 78.780751 83.882234 
L 79.06031 83.882234 
L 79.33987 84.575234 
L 79.619429 84.852434 
L 79.898988 84.298034 
L 80.178547 83.327834 
L 80.458106 84.991034 
L 80.737665 84.436634 
L 81.017224 84.991034 
L 81.296783 84.159434 
L 81.576343 84.852434 
L 81.855902 84.991034 
L 82.135461 85.406834 
L 82.694579 83.743634 
L 82.974138 84.436634 
L 83.533256 83.605034 
L 83.812815 84.159434 
L 84.092375 84.020834 
L 84.371934 84.991034 
L 84.651493 83.327834 
L 84.931052 84.020834 
L 85.210611 84.020834 
L 85.49017 84.852434 
L 85.769729 84.575234 
L 86.049288 83.743634 
L 86.328848 83.605034 
L 86.608407 84.020834 
L 86.887966 84.020834 
L 87.167525 84.713834 
L 87.726643 84.020834 
L 88.006202 84.852434 
L 88.285761 82.773434 
L 88.56532 83.605034 
L 88.84488 83.605034 
L 89.124439 83.466434 
L 89.403998 84.991034 
L 89.683557 84.436634 
L 89.963116 84.298034 
L 90.242675 85.129634 
L 90.522234 84.436634 
L 90.801793 84.298034 
L 91.081353 84.020834 
L 91.360912 84.159434 
L 91.640471 84.020834 
L 91.92003 84.159434 
L 92.199589 85.129634 
L 92.758707 83.466434 
L 93.038266 84.298034 
L 93.317825 84.436634 
L 93.597385 85.129634 
L 93.876944 84.991034 
L 94.156503 85.684034 
L 94.436062 84.713834 
L 94.715621 85.545434 
L 94.99518 84.020834 
L 95.274739 84.159434 
L 95.554298 84.159434 
L 95.833858 84.713834 
L 96.113417 84.298034 
L 96.392976 84.575234 
L 96.672535 84.575234 
L 96.952094 84.020834 
L 97.231653 83.189234 
L 97.511212 84.159434 
L 97.790771 84.298034 
L 98.07033 84.298034 
L 98.34989 83.743634 
L 98.629449 82.634834 
L 98.909008 83.605034 
L 99.188567 82.219034 
L 99.747685 84.436634 
L 100.027244 83.189234 
L 100.586363 84.159434 
L 100.865922 84.713834 
L 101.145481 84.020834 
L 101.42504 84.159434 
L 101.704599 83.605034 
L 101.984158 83.466434 
L 102.263717 84.575234 
L 102.543276 83.466434 
L 102.822836 83.743634 
L 103.102395 84.298034 
L 103.381954 84.298034 
L 103.661513 84.020834 
L 103.941072 84.159434 
L 104.220631 83.882234 
L 104.50019 84.436634 
L 104.779749 82.912034 
L 105.338868 84.436634 
L 105.618427 83.882234 
L 105.897986 83.743634 
L 106.177545 84.159434 
L 106.457104 84.159434 
L 106.736663 84.575234 
L 107.016222 83.189234 
L 107.295781 82.634834 
L 107.575341 84.575234 
L 108.134459 83.050634 
L 108.693577 84.298034 
L 108.973136 83.327834 
L 109.252695 82.912034 
L 109.532254 84.159434 
L 109.811813 84.852434 
L 110.370932 83.327834 
L 110.650491 83.466434 
L 110.93005 84.298034 
L 111.489168 83.605034 
L 111.768727 83.050634 
L 112.048286 84.159434 
L 112.327846 82.357634 
L 112.607405 83.327834 
L 112.886964 83.882234 
L 113.166523 83.050634 
L 113.446082 83.743634 
L 113.725641 83.466434 
L 114.0052 83.882234 
L 114.284759 82.773434 
L 114.564318 83.050634 
L 114.843878 83.882234 
L 115.402996 83.466434 
L 115.682555 84.991034 
L 115.962114 84.298034 
L 116.241673 84.159434 
L 116.521232 84.575234 
L 116.800791 83.466434 
L 117.080351 84.020834 
L 117.639469 84.575234 
L 117.919028 84.020834 
L 118.198587 84.991034 
L 118.478146 84.713834 
L 118.757705 84.020834 
L 119.037264 84.298034 
L 119.596383 83.743634 
L 119.875942 83.050634 
L 120.155501 83.882234 
L 120.43506 83.743634 
L 120.714619 84.020834 
L 120.994178 85.268234 
L 121.273737 83.882234 
L 121.553296 84.852434 
L 121.832856 83.327834 
L 122.112415 84.713834 
L 122.391974 84.713834 
L 122.671533 84.852434 
L 123.230651 83.882234 
L 123.51021 84.575234 
L 123.789769 83.743634 
L 124.069328 84.020834 
L 124.348888 83.743634 
L 124.908006 84.020834 
L 125.187565 83.327834 
L 125.467124 84.298034 
L 125.746683 82.912034 
L 126.026242 84.436634 
L 126.585361 84.159434 
L 126.86492 83.882234 
L 127.424038 84.852434 
L 127.703597 85.961234 
L 127.983156 85.684034 
L 128.262715 84.852434 
L 128.542274 84.852434 
L 128.821833 85.406834 
L 129.101393 84.298034 
L 129.660511 84.713834 
L 129.94007 83.743634 
L 130.219629 83.327834 
L 130.499188 83.743634 
L 130.778747 83.743634 
L 131.058306 84.020834 
L 131.337866 83.882234 
L 131.617425 83.466434 
L 131.896984 83.743634 
L 132.456102 83.466434 
L 132.735661 83.466434 
L 133.01522 84.852434 
L 133.294779 83.882234 
L 133.574339 84.991034 
L 134.133457 84.298034 
L 134.413016 84.852434 
L 134.692575 84.436634 
L 134.972134 83.466434 
L 135.251693 83.327834 
L 135.531252 82.912034 
L 135.810811 84.436634 
L 136.090371 83.466434 
L 136.36993 84.575234 
L 136.649489 84.436634 
L 136.929048 84.713834 
L 137.208607 84.575234 
L 137.488166 83.743634 
L 137.767725 84.020834 
L 138.047284 83.466434 
L 138.326844 85.268234 
L 138.606403 84.436634 
L 138.885962 83.189234 
L 139.165521 83.327834 
L 139.44508 83.605034 
L 139.724639 85.129634 
L 140.004198 84.713834 
L 140.283757 84.991034 
L 140.563316 83.882234 
L 140.842876 83.743634 
L 141.122435 83.743634 
L 141.401994 84.298034 
L 141.681553 83.743634 
L 141.961112 83.466434 
L 142.240671 84.298034 
L 142.52023 84.713834 
L 142.799789 84.713834 
L 143.079349 83.605034 
L 143.358908 84.159434 
L 143.638467 83.882234 
L 143.918026 84.159434 
L 144.197585 85.129634 
L 144.756703 83.882234 
L 145.315821 83.605034 
L 145.595381 83.605034 
L 145.87494 85.545434 
L 146.434058 84.159434 
L 146.713617 83.743634 
L 146.993176 85.129634 
L 147.272735 84.991034 
L 147.552294 84.713834 
L 147.831854 83.743634 
L 148.390972 84.991034 
L 148.670531 84.713834 
L 148.95009 84.991034 
L 149.229649 84.298034 
L 150.068326 83.605034 
L 150.347886 83.605034 
L 150.627445 85.129634 
L 150.907004 83.743634 
L 151.186563 84.436634 
L 151.466122 84.713834 
L 151.745681 83.743634 
L 152.02524 83.466434 
L 152.304799 84.852434 
L 152.863918 84.298034 
L 153.143477 83.189234 
L 153.423036 83.605034 
L 153.702595 84.713834 
L 153.982154 84.575234 
L 154.261713 84.298034 
L 154.541272 84.713834 
L 154.820831 84.159434 
L 155.100391 84.298034 
L 155.37995 84.159434 
L 155.659509 84.991034 
L 155.939068 84.852434 
L 156.218627 83.189234 
L 156.498186 84.159434 
L 156.777745 84.575234 
L 156.777745 84.575234 
" clip-path="url(#ped70c3f30a)" style="fill: none; stroke: #dedeee; stroke-linecap: square"/>
   </g>
   <g id="line2d_105">
    <path d="M 17.277745 174.388034 
L 156.777745 174.388034 
L 156.777745 174.388034 
" clip-path="url(#ped70c3f30a)" style="fill: none; stroke-dasharray: 3.7,1.6; stroke-dashoffset: 0; stroke: #9b9aca"/>
   </g>
   <g id="line2d_106">
    <path d="M 17.277745 129.204434 
L 18.116423 136.966034 
L 18.395982 139.599434 
L 18.675541 140.015234 
L 18.9551 144.173234 
L 19.514218 146.390834 
L 19.793777 148.747034 
L 20.073337 149.717234 
L 20.632455 152.905034 
L 20.912014 154.706834 
L 21.191573 154.429634 
L 21.471132 155.399834 
L 21.750691 155.399834 
L 22.03025 156.370034 
L 22.309809 156.370034 
L 22.589369 157.340234 
L 23.148487 156.647234 
L 23.428046 156.231434 
L 23.707605 156.785834 
L 23.987164 156.231434 
L 24.546282 156.508634 
L 25.105401 157.478834 
L 26.223637 156.231434 
L 26.782755 156.924434 
L 27.062314 156.647234 
L 27.341874 156.647234 
L 27.621433 156.231434 
L 28.180551 156.508634 
L 28.46011 156.508634 
L 28.739669 156.924434 
L 29.298787 156.924434 
L 29.578347 156.370034 
L 29.857906 156.092834 
L 30.137465 156.924434 
L 30.417024 156.924434 
L 30.696583 157.063034 
L 30.976142 156.785834 
L 31.53526 157.201634 
L 31.814819 157.063034 
L 32.094379 157.201634 
L 32.373938 156.924434 
L 32.653497 156.924434 
L 32.933056 157.201634 
L 33.492174 156.647234 
L 33.771733 157.063034 
L 34.051292 156.924434 
L 34.330852 157.201634 
L 34.610411 156.647234 
L 34.88997 156.370034 
L 35.169529 156.508634 
L 35.449088 156.370034 
L 36.008206 156.785834 
L 36.287765 156.924434 
L 36.567324 157.201634 
L 36.846884 157.063034 
L 37.126443 157.478834 
L 37.406002 156.924434 
L 37.685561 156.924434 
L 37.96512 156.785834 
L 38.244679 156.924434 
L 38.524238 156.785834 
L 39.362916 156.785834 
L 39.642475 157.063034 
L 40.201593 156.785834 
L 40.481152 157.063034 
L 40.760711 156.924434 
L 41.04027 157.201634 
L 41.319829 156.370034 
L 41.599389 156.508634 
L 41.878948 157.201634 
L 42.438066 156.370034 
L 42.717625 156.924434 
L 42.997184 156.785834 
L 43.276743 156.924434 
L 43.556302 157.478834 
L 43.835862 157.201634 
L 44.115421 156.508634 
L 44.39498 156.508634 
L 44.954098 157.063034 
L 45.233657 156.785834 
L 45.513216 157.201634 
L 45.792775 157.063034 
L 46.072334 157.063034 
L 46.351894 156.924434 
L 46.631453 156.924434 
L 46.911012 157.063034 
L 47.190571 157.340234 
L 47.47013 157.063034 
L 47.749689 157.201634 
L 48.029248 156.370034 
L 48.308807 156.785834 
L 48.588367 156.508634 
L 48.867926 157.063034 
L 49.147485 156.924434 
L 49.706603 156.508634 
L 49.986162 156.785834 
L 50.54528 156.508634 
L 50.82484 156.785834 
L 51.104399 156.508634 
L 51.383958 156.647234 
L 51.663517 156.092834 
L 51.943076 157.201634 
L 52.222635 157.340234 
L 52.502194 156.508634 
L 52.781753 156.508634 
L 53.061312 156.370034 
L 53.340872 156.647234 
L 53.620431 157.340234 
L 53.89999 156.508634 
L 54.179549 157.063034 
L 54.459108 157.063034 
L 54.738667 157.201634 
L 55.018226 157.201634 
L 55.297785 156.924434 
L 55.577345 156.370034 
L 56.136463 157.340234 
L 56.695581 156.370034 
L 56.97514 156.092834 
L 57.254699 156.785834 
L 57.534258 156.370034 
L 57.813817 157.063034 
L 58.372936 156.647234 
L 58.652495 156.647234 
L 58.932054 156.785834 
L 59.211613 156.647234 
L 59.770731 157.063034 
L 60.05029 156.370034 
L 60.32985 156.370034 
L 60.609409 156.647234 
L 60.888968 156.370034 
L 61.168527 157.201634 
L 61.448086 156.647234 
L 61.727645 156.924434 
L 62.007204 157.478834 
L 62.566322 156.231434 
L 62.845882 156.924434 
L 63.125441 156.231434 
L 63.405 157.201634 
L 63.684559 156.370034 
L 63.964118 156.647234 
L 64.243677 156.508634 
L 64.523236 156.924434 
L 65.082355 156.647234 
L 65.361914 157.340234 
L 65.921032 156.647234 
L 66.200591 156.231434 
L 66.48015 156.508634 
L 66.759709 157.063034 
L 67.318827 156.370034 
L 67.598387 156.785834 
L 67.877946 156.924434 
L 68.157505 156.785834 
L 68.437064 156.924434 
L 69.5553 156.370034 
L 69.83486 156.508634 
L 70.114419 156.924434 
L 70.393978 156.231434 
L 70.673537 156.647234 
L 70.953096 156.231434 
L 71.232655 156.647234 
L 71.512214 156.785834 
L 72.071332 157.478834 
L 72.350892 157.340234 
L 72.630451 156.647234 
L 72.91001 156.785834 
L 73.189569 157.201634 
L 73.469128 156.647234 
L 74.028246 157.201634 
L 74.307805 156.508634 
L 74.587365 156.785834 
L 74.866924 156.508634 
L 75.146483 157.201634 
L 75.426042 156.231434 
L 75.705601 157.201634 
L 75.98516 155.954234 
L 76.264719 156.924434 
L 76.544278 157.063034 
L 77.103397 156.508634 
L 77.662515 157.201634 
L 77.942074 157.201634 
L 78.221633 156.647234 
L 78.501192 156.370034 
L 78.780751 156.370034 
L 79.06031 157.063034 
L 79.33987 156.231434 
L 79.619429 156.785834 
L 79.898988 156.508634 
L 80.178547 156.924434 
L 80.458106 156.924434 
L 80.737665 157.201634 
L 81.017224 156.508634 
L 81.296783 157.201634 
L 81.576343 156.508634 
L 81.855902 156.785834 
L 82.135461 155.954234 
L 82.41502 156.785834 
L 82.694579 156.647234 
L 83.253697 156.924434 
L 83.533256 156.647234 
L 83.812815 156.785834 
L 84.092375 156.785834 
L 84.651493 157.063034 
L 84.931052 156.508634 
L 85.210611 156.647234 
L 85.49017 157.063034 
L 85.769729 156.508634 
L 86.328848 156.924434 
L 86.608407 156.924434 
L 86.887966 156.231434 
L 87.167525 155.954234 
L 87.447084 156.508634 
L 88.006202 156.785834 
L 88.285761 157.340234 
L 88.56532 156.647234 
L 88.84488 156.924434 
L 89.124439 156.785834 
L 89.403998 157.201634 
L 89.683557 156.647234 
L 90.242675 156.231434 
L 91.081353 156.924434 
L 91.360912 156.370034 
L 91.640471 157.340234 
L 91.92003 156.647234 
L 92.199589 156.508634 
L 92.479148 156.508634 
L 92.758707 157.063034 
L 93.038266 156.508634 
L 93.317825 156.370034 
L 93.876944 156.370034 
L 94.436062 156.785834 
L 94.715621 156.785834 
L 94.99518 156.370034 
L 95.274739 156.508634 
L 95.554298 157.201634 
L 96.113417 156.647234 
L 96.392976 156.785834 
L 96.952094 157.340234 
L 97.790771 156.647234 
L 98.07033 156.647234 
L 98.34989 156.924434 
L 98.629449 156.924434 
L 99.188567 156.647234 
L 99.747685 157.063034 
L 100.027244 156.647234 
L 100.306803 156.647234 
L 100.586363 156.508634 
L 100.865922 156.508634 
L 101.42504 156.785834 
L 101.704599 157.617434 
L 101.984158 156.647234 
L 102.263717 156.647234 
L 102.543276 156.231434 
L 103.102395 156.785834 
L 103.381954 156.231434 
L 103.661513 156.924434 
L 103.941072 157.201634 
L 104.220631 156.508634 
L 104.50019 156.508634 
L 104.779749 157.201634 
L 105.059308 157.201634 
L 105.338868 156.647234 
L 105.618427 156.785834 
L 106.457104 156.785834 
L 106.736663 156.647234 
L 107.016222 156.785834 
L 107.295781 157.478834 
L 107.8549 156.370034 
L 108.134459 156.092834 
L 108.693577 157.063034 
L 108.973136 156.785834 
L 109.252695 156.924434 
L 109.532254 156.647234 
L 109.811813 156.785834 
L 110.091373 156.785834 
L 110.370932 156.508634 
L 110.650491 156.785834 
L 110.93005 156.647234 
L 111.209609 157.201634 
L 111.489168 156.647234 
L 111.768727 156.924434 
L 112.048286 156.785834 
L 112.607405 156.785834 
L 112.886964 156.370034 
L 113.166523 156.785834 
L 113.446082 157.617434 
L 113.725641 156.647234 
L 114.564318 157.063034 
L 114.843878 156.092834 
L 115.123437 156.508634 
L 115.402996 156.231434 
L 115.962114 156.508634 
L 116.241673 156.785834 
L 116.800791 156.508634 
L 117.080351 156.647234 
L 117.35991 156.924434 
L 117.639469 156.508634 
L 117.919028 157.063034 
L 118.198587 156.508634 
L 118.478146 156.370034 
L 118.757705 156.647234 
L 119.037264 156.647234 
L 119.316823 156.785834 
L 119.596383 156.785834 
L 119.875942 157.340234 
L 120.155501 156.508634 
L 120.43506 156.785834 
L 120.714619 156.370034 
L 120.994178 156.370034 
L 121.273737 156.647234 
L 121.553296 156.370034 
L 121.832856 156.370034 
L 122.112415 157.063034 
L 122.391974 156.231434 
L 122.671533 156.370034 
L 122.951092 156.785834 
L 123.230651 156.508634 
L 123.51021 157.063034 
L 123.789769 156.647234 
L 124.348888 156.924434 
L 124.628447 156.231434 
L 124.908006 156.785834 
L 125.187565 156.647234 
L 125.467124 157.201634 
L 125.746683 156.647234 
L 126.026242 156.924434 
L 126.585361 156.924434 
L 126.86492 156.647234 
L 127.144479 156.785834 
L 127.424038 156.370034 
L 127.983156 156.785834 
L 128.821833 156.092834 
L 129.101393 157.063034 
L 129.380952 156.647234 
L 129.660511 157.063034 
L 129.94007 156.785834 
L 130.219629 156.785834 
L 130.499188 156.508634 
L 130.778747 156.924434 
L 131.337866 156.647234 
L 131.617425 157.063034 
L 131.896984 156.647234 
L 132.176543 157.063034 
L 132.456102 156.508634 
L 133.01522 156.785834 
L 133.294779 156.231434 
L 133.853898 156.231434 
L 134.133457 156.785834 
L 134.413016 156.924434 
L 134.692575 156.785834 
L 134.972134 156.924434 
L 135.251693 156.785834 
L 135.810811 157.201634 
L 136.36993 156.647234 
L 136.649489 157.063034 
L 136.929048 156.924434 
L 137.208607 156.508634 
L 137.488166 156.370034 
L 138.606403 156.924434 
L 138.885962 156.231434 
L 139.44508 157.201634 
L 139.724639 156.647234 
L 140.004198 156.785834 
L 140.283757 156.785834 
L 140.563316 156.647234 
L 140.842876 156.924434 
L 141.122435 156.647234 
L 141.401994 156.924434 
L 141.681553 156.924434 
L 141.961112 156.785834 
L 142.240671 157.201634 
L 142.52023 156.231434 
L 142.799789 157.063034 
L 143.079349 157.340234 
L 143.358908 157.201634 
L 143.638467 156.370034 
L 143.918026 156.785834 
L 144.197585 156.785834 
L 144.477144 157.201634 
L 144.756703 156.508634 
L 145.036262 156.647234 
L 145.315821 156.647234 
L 145.595381 156.508634 
L 145.87494 156.924434 
L 146.154499 156.924434 
L 146.434058 156.508634 
L 146.713617 156.508634 
L 146.993176 156.785834 
L 147.272735 156.508634 
L 147.552294 156.924434 
L 147.831854 157.063034 
L 148.111413 156.647234 
L 148.390972 157.063034 
L 148.95009 156.647234 
L 149.509208 157.340234 
L 150.347886 156.508634 
L 150.627445 156.647234 
L 150.907004 156.924434 
L 151.186563 156.647234 
L 151.466122 157.063034 
L 151.745681 157.063034 
L 152.02524 156.508634 
L 152.304799 156.785834 
L 152.584359 157.617434 
L 152.863918 157.063034 
L 153.143477 157.340234 
L 153.423036 157.063034 
L 153.702595 157.063034 
L 153.982154 156.508634 
L 154.261713 156.508634 
L 154.541272 156.924434 
L 154.820831 156.924434 
L 155.37995 156.508634 
L 155.659509 157.478834 
L 155.939068 157.063034 
L 156.218627 157.063034 
L 156.498186 156.647234 
L 156.777745 157.063034 
L 156.777745 157.063034 
" clip-path="url(#ped70c3f30a)" style="fill: none; stroke-dasharray: 1,1.65; stroke-dashoffset: 0; stroke: #7976b8"/>
   </g>
   <g id="line2d_107">
    <path d="M 17.277745 142.510034 
L 17.836864 141.401234 
L 18.116423 141.262634 
L 18.675541 142.371434 
L 18.9551 141.817034 
L 19.234659 143.618834 
L 19.514218 143.757434 
L 19.793777 143.480234 
L 20.073337 142.925834 
L 20.352896 142.925834 
L 20.632455 143.064434 
L 20.912014 143.896034 
L 21.191573 143.064434 
L 21.471132 142.648634 
L 21.750691 142.510034 
L 22.03025 142.925834 
L 22.309809 143.757434 
L 22.589369 142.371434 
L 22.868928 142.925834 
L 23.148487 142.925834 
L 23.707605 143.618834 
L 23.987164 144.589034 
L 24.266723 143.618834 
L 24.546282 143.341634 
L 24.825842 142.648634 
L 25.105401 142.371434 
L 25.38496 143.203034 
L 25.664519 143.480234 
L 25.944078 143.341634 
L 26.223637 143.341634 
L 27.341874 144.450434 
L 27.900992 143.757434 
L 28.180551 144.173234 
L 28.46011 144.173234 
L 28.739669 142.787234 
L 29.019228 143.757434 
L 29.298787 143.480234 
L 29.578347 143.896034 
L 29.857906 144.727634 
L 30.696583 142.925834 
L 30.976142 143.896034 
L 31.255701 144.450434 
L 31.53526 143.064434 
L 31.814819 143.203034 
L 32.094379 142.510034 
L 32.653497 143.757434 
L 32.933056 143.618834 
L 33.212615 144.311834 
L 33.492174 143.896034 
L 33.771733 143.064434 
L 34.051292 143.757434 
L 34.330852 143.064434 
L 34.610411 143.480234 
L 34.88997 143.480234 
L 35.169529 144.173234 
L 35.449088 142.787234 
L 35.728647 143.480234 
L 36.008206 142.787234 
L 36.567324 144.034634 
L 36.846884 144.034634 
L 37.126443 142.648634 
L 37.406002 142.232834 
L 37.685561 142.510034 
L 37.96512 143.203034 
L 38.244679 143.203034 
L 38.524238 142.648634 
L 38.803797 142.787234 
L 39.083357 143.064434 
L 39.642475 144.727634 
L 39.922034 144.727634 
L 40.201593 143.757434 
L 40.760711 143.064434 
L 41.599389 144.450434 
L 41.878948 143.480234 
L 42.158507 143.896034 
L 42.438066 143.757434 
L 42.717625 144.173234 
L 42.997184 144.173234 
L 43.276743 143.757434 
L 43.556302 142.648634 
L 43.835862 142.371434 
L 44.115421 143.896034 
L 44.39498 143.203034 
L 44.674539 143.203034 
L 44.954098 142.787234 
L 45.233657 142.787234 
L 45.513216 142.232834 
L 45.792775 143.341634 
L 46.072334 142.510034 
L 46.351894 142.787234 
L 46.631453 144.450434 
L 46.911012 144.173234 
L 47.190571 143.618834 
L 47.47013 143.341634 
L 47.749689 142.648634 
L 48.029248 143.480234 
L 48.308807 142.925834 
L 48.588367 143.341634 
L 48.867926 142.925834 
L 49.706603 143.757434 
L 49.986162 143.618834 
L 50.265721 143.896034 
L 50.54528 143.064434 
L 50.82484 142.787234 
L 51.104399 145.004834 
L 51.383958 143.896034 
L 51.663517 144.311834 
L 51.943076 143.618834 
L 52.222635 142.232834 
L 53.061312 145.143434 
L 53.620431 143.896034 
L 53.89999 144.311834 
L 54.179549 143.203034 
L 54.459108 144.311834 
L 54.738667 143.341634 
L 55.018226 143.618834 
L 55.297785 145.004834 
L 55.577345 143.341634 
L 55.856904 143.618834 
L 56.136463 141.955634 
L 56.416022 144.173234 
L 56.695581 143.896034 
L 56.97514 144.034634 
L 57.254699 143.896034 
L 57.813817 143.203034 
L 58.093377 144.589034 
L 58.652495 144.034634 
L 58.932054 144.034634 
L 59.211613 143.896034 
L 59.491172 143.064434 
L 59.770731 144.034634 
L 60.32985 143.341634 
L 60.609409 142.510034 
L 60.888968 143.618834 
L 61.168527 143.480234 
L 61.448086 144.311834 
L 61.727645 143.480234 
L 62.007204 143.757434 
L 62.286763 143.618834 
L 62.566322 144.034634 
L 62.845882 143.203034 
L 63.125441 143.618834 
L 63.405 142.094234 
L 63.684559 143.480234 
L 63.964118 143.064434 
L 64.243677 144.173234 
L 64.523236 143.480234 
L 64.802795 143.203034 
L 65.082355 143.896034 
L 65.361914 143.064434 
L 65.641473 144.173234 
L 65.921032 143.618834 
L 66.200591 144.173234 
L 66.48015 144.311834 
L 66.759709 143.341634 
L 67.039268 143.896034 
L 67.318827 144.034634 
L 67.598387 143.480234 
L 67.877946 143.618834 
L 68.157505 142.925834 
L 68.437064 142.787234 
L 68.716623 142.232834 
L 68.996182 143.341634 
L 69.275741 143.341634 
L 69.5553 143.203034 
L 69.83486 144.034634 
L 70.114419 143.896034 
L 70.393978 144.034634 
L 70.673537 142.787234 
L 70.953096 143.757434 
L 71.232655 143.203034 
L 71.512214 144.034634 
L 71.791773 143.203034 
L 72.071332 142.925834 
L 72.630451 143.896034 
L 72.91001 144.866234 
L 73.189569 144.173234 
L 73.748687 143.757434 
L 74.028246 143.064434 
L 74.307805 144.589034 
L 74.587365 144.034634 
L 75.146483 143.480234 
L 75.426042 144.034634 
L 75.705601 144.034634 
L 75.98516 144.727634 
L 76.544278 143.341634 
L 76.823838 143.757434 
L 77.103397 143.480234 
L 77.382956 144.173234 
L 77.662515 143.757434 
L 77.942074 142.925834 
L 78.221633 144.173234 
L 78.501192 143.618834 
L 78.780751 144.311834 
L 79.06031 143.618834 
L 79.33987 143.757434 
L 79.619429 142.925834 
L 80.178547 144.311834 
L 80.458106 142.648634 
L 81.017224 143.064434 
L 81.296783 143.203034 
L 81.576343 143.203034 
L 81.855902 142.787234 
L 82.135461 143.203034 
L 82.41502 143.341634 
L 82.694579 144.173234 
L 82.974138 143.341634 
L 83.253697 143.618834 
L 83.533256 144.311834 
L 83.812815 143.618834 
L 84.092375 143.757434 
L 84.371934 142.648634 
L 84.651493 144.173234 
L 85.210611 143.896034 
L 85.49017 142.648634 
L 86.049288 144.034634 
L 86.328848 144.034634 
L 86.608407 143.618834 
L 86.887966 144.311834 
L 87.447084 143.618834 
L 87.726643 143.896034 
L 88.006202 142.925834 
L 88.285761 144.450434 
L 88.56532 144.311834 
L 88.84488 144.034634 
L 89.124439 144.311834 
L 89.403998 142.371434 
L 89.683557 143.480234 
L 89.963116 143.896034 
L 90.242675 143.203034 
L 90.522234 143.618834 
L 90.801793 143.480234 
L 91.081353 143.618834 
L 91.360912 144.034634 
L 91.640471 143.203034 
L 91.92003 143.757434 
L 92.199589 142.925834 
L 92.479148 143.757434 
L 92.758707 144.034634 
L 93.038266 143.757434 
L 93.317825 143.757434 
L 93.597385 143.064434 
L 93.876944 143.203034 
L 94.156503 142.232834 
L 94.436062 143.064434 
L 94.715621 142.232834 
L 94.99518 144.173234 
L 95.274739 143.896034 
L 95.554298 143.203034 
L 95.833858 142.925834 
L 96.113417 143.618834 
L 96.672535 142.925834 
L 96.952094 143.203034 
L 97.231653 144.311834 
L 97.511212 143.757434 
L 97.790771 143.618834 
L 98.07033 143.618834 
L 98.34989 143.896034 
L 98.629449 145.004834 
L 98.909008 144.173234 
L 99.188567 145.697834 
L 99.747685 143.064434 
L 100.027244 144.727634 
L 100.865922 143.341634 
L 101.145481 143.896034 
L 101.704599 143.341634 
L 101.984158 144.450434 
L 102.263717 143.341634 
L 102.543276 144.866234 
L 102.822836 144.311834 
L 103.102395 143.480234 
L 103.381954 144.034634 
L 103.941072 143.203034 
L 104.220631 144.173234 
L 104.50019 143.618834 
L 104.779749 144.450434 
L 105.059308 143.757434 
L 105.338868 143.480234 
L 105.618427 143.896034 
L 105.897986 144.034634 
L 106.177545 143.618834 
L 106.457104 143.618834 
L 106.736663 143.341634 
L 107.016222 144.589034 
L 107.295781 144.450434 
L 107.575341 143.203034 
L 108.134459 145.420634 
L 108.693577 143.203034 
L 108.973136 144.450434 
L 109.252695 144.727634 
L 109.811813 142.925834 
L 110.370932 144.727634 
L 110.650491 144.311834 
L 110.93005 143.618834 
L 111.209609 143.341634 
L 111.489168 144.311834 
L 111.768727 144.589034 
L 112.048286 143.618834 
L 112.327846 145.420634 
L 112.607405 144.450434 
L 112.886964 144.311834 
L 113.166523 144.727634 
L 113.446082 143.203034 
L 113.725641 144.450434 
L 114.0052 143.896034 
L 114.284759 144.866234 
L 114.564318 144.450434 
L 114.843878 144.589034 
L 115.123437 144.450434 
L 115.402996 144.866234 
L 115.682555 143.203034 
L 115.962114 143.757434 
L 116.241673 143.618834 
L 116.521232 143.341634 
L 116.800791 144.589034 
L 117.35991 143.341634 
L 117.639469 143.480234 
L 117.919028 143.480234 
L 118.198587 143.064434 
L 118.757705 143.896034 
L 119.037264 143.618834 
L 119.316823 143.757434 
L 119.875942 144.173234 
L 120.155501 144.173234 
L 120.43506 144.034634 
L 120.714619 144.173234 
L 120.994178 142.925834 
L 121.273737 144.034634 
L 121.553296 143.341634 
L 121.832856 144.866234 
L 122.112415 142.787234 
L 122.391974 143.618834 
L 122.671533 143.341634 
L 122.951092 143.480234 
L 123.230651 144.173234 
L 123.51021 142.925834 
L 123.789769 144.173234 
L 124.069328 143.757434 
L 124.348888 143.896034 
L 124.628447 144.450434 
L 124.908006 143.757434 
L 125.187565 144.589034 
L 125.467124 143.064434 
L 125.746683 145.004834 
L 126.026242 143.203034 
L 126.585361 143.480234 
L 126.86492 144.034634 
L 127.144479 143.341634 
L 127.424038 143.341634 
L 127.703597 141.955634 
L 127.983156 142.094234 
L 128.262715 143.203034 
L 128.542274 143.341634 
L 128.821833 143.064434 
L 129.380952 143.341634 
L 129.660511 142.787234 
L 129.94007 144.034634 
L 130.219629 144.450434 
L 130.499188 144.311834 
L 130.778747 143.896034 
L 131.058306 143.757434 
L 131.337866 144.034634 
L 131.617425 144.034634 
L 131.896984 144.173234 
L 132.176543 143.896034 
L 132.456102 144.589034 
L 132.735661 144.450434 
L 133.01522 142.925834 
L 133.294779 144.450434 
L 133.574339 143.341634 
L 133.853898 143.757434 
L 134.133457 143.480234 
L 134.413016 142.787234 
L 134.692575 143.341634 
L 134.972134 144.173234 
L 135.531252 144.589034 
L 135.810811 142.925834 
L 136.090371 144.173234 
L 136.36993 143.341634 
L 136.929048 142.925834 
L 137.208607 143.480234 
L 137.488166 144.450434 
L 137.767725 144.034634 
L 138.047284 144.450434 
L 138.326844 142.510034 
L 138.606403 143.203034 
L 138.885962 145.143434 
L 139.165521 144.589034 
L 139.724639 142.787234 
L 140.004198 143.064434 
L 140.283757 142.787234 
L 140.563316 144.034634 
L 140.842876 143.896034 
L 141.122435 144.173234 
L 141.401994 143.341634 
L 141.961112 144.311834 
L 142.240671 143.064434 
L 142.52023 143.618834 
L 142.799789 142.787234 
L 143.079349 143.618834 
L 143.358908 143.203034 
L 143.638467 144.311834 
L 144.197585 142.648634 
L 144.477144 142.925834 
L 144.756703 144.173234 
L 145.036262 144.173234 
L 145.595381 144.450434 
L 145.87494 142.094234 
L 146.713617 144.311834 
L 146.993176 142.648634 
L 147.272735 143.064434 
L 147.552294 142.925834 
L 147.831854 143.757434 
L 148.111413 143.618834 
L 148.390972 142.510034 
L 148.670531 143.064434 
L 148.95009 142.925834 
L 149.229649 143.203034 
L 149.509208 143.203034 
L 149.788767 143.896034 
L 150.347886 144.450434 
L 150.627445 142.787234 
L 150.907004 143.896034 
L 151.186563 143.480234 
L 151.466122 142.787234 
L 152.02524 144.589034 
L 152.304799 142.925834 
L 152.584359 142.371434 
L 153.143477 144.034634 
L 153.423036 143.896034 
L 153.702595 142.787234 
L 153.982154 143.480234 
L 154.261713 143.757434 
L 154.541272 142.925834 
L 154.820831 143.480234 
L 155.100391 143.618834 
L 155.37995 143.896034 
L 155.659509 142.094234 
L 155.939068 142.648634 
L 156.218627 144.311834 
L 156.498186 143.757434 
L 156.777745 142.925834 
L 156.777745 142.925834 
" clip-path="url(#ped70c3f30a)" style="fill: none; stroke-dasharray: 6.4,1.6,1,1.6; stroke-dashoffset: 0; stroke: #201f3d"/>
   </g>
   <g id="patch_3">
    <path d="M 17.277745 174.388034 
L 17.277745 35.788034 
" style="fill: none; stroke: #000000; stroke-width: 0.5; stroke-linejoin: miter; stroke-linecap: square"/>
   </g>
   <g id="patch_4">
    <path d="M 156.777745 174.388034 
L 156.777745 35.788034 
" style="fill: none; stroke: #000000; stroke-width: 0.5; stroke-linejoin: miter; stroke-linecap: square"/>
   </g>
   <g id="patch_5">
    <path d="M 17.277745 174.388034 
L 156.777745 174.388034 
" style="fill: none; stroke: #000000; stroke-width: 0.5; stroke-linejoin: miter; stroke-linecap: square"/>
   </g>
   <g id="patch_6">
    <path d="M 17.277745 35.788034 
L 156.777745 35.788034 
" style="fill: none; stroke: #000000; stroke-width: 0.5; stroke-linejoin: miter; stroke-linecap: square"/>
   </g>
   <g id="text_12">
    <!-- Evolucin de Mxico -->
    <g transform="translate(45.950074 10.084396) scale(0.096 -0.096)">
     <defs>
      <path id="NimbusRomNo9L-Regu-45" d="M 3821 1078 
L 3642 1078 
C 3322 389 3046 237 2131 237 
L 1958 237 
C 1645 237 1376 269 1331 315 
C 1299 334 1286 404 1286 514 
L 1286 2106 
L 2272 2106 
C 2797 2106 2893 2020 2976 1472 
L 3123 1472 
L 3123 2957 
L 2976 2957 
C 2931 2703 2906 2610 2835 2523 
C 2752 2417 2573 2368 2272 2368 
L 1286 2368 
L 1286 3766 
C 1286 3943 1325 3981 1498 3981 
L 2362 3981 
C 3085 3981 3226 3886 3334 3314 
L 3494 3314 
L 3475 4224 
L 77 4224 
L 77 4102 
C 550 4064 634 3974 634 3525 
L 634 679 
C 634 230 544 134 77 134 
L 77 0 
L 3533 0 
L 3821 1078 
z
" transform="scale(0.015625)"/>
      <path id="NimbusRomNo9L-Regu-76" d="M 3053 2854 
L 2163 2854 
L 2163 2758 
C 2368 2739 2464 2675 2464 2552 
C 2464 2488 2451 2424 2426 2359 
L 1792 695 
L 1139 2340 
C 1101 2431 1082 2520 1082 2578 
C 1082 2694 1152 2739 1376 2758 
L 1376 2854 
L 122 2854 
L 122 2752 
C 365 2752 410 2688 704 2024 
L 1472 175 
C 1485 137 1504 91 1523 40 
C 1562 -76 1600 -128 1638 -128 
C 1677 -128 1722 -44 1818 193 
L 2637 2257 
C 2822 2694 2861 2739 3053 2758 
L 3053 2854 
z
" transform="scale(0.015625)"/>
      <path id="NimbusRomNo9L-Regu-6f" d="M 1600 2944 
C 768 2944 186 2330 186 1446 
C 186 582 781 -64 1587 -64 
C 2394 -64 3008 614 3008 1498 
C 3008 2336 2419 2944 1600 2944 
z
M 1517 2765 
C 2054 2765 2432 2150 2432 1274 
C 2432 550 2144 115 1664 115 
C 1414 115 1178 269 1043 525 
C 864 858 762 1306 762 1760 
C 762 2368 1062 2765 1517 2765 
z
" transform="scale(0.015625)"/>
      <path id="NimbusRomNo9L-Regu-6c" d="M 122 4000 
L 160 4000 
C 230 4000 307 4000 358 4000 
C 563 4000 627 3910 627 3610 
L 627 557 
C 627 211 538 128 134 96 
L 134 0 
L 1645 0 
L 1645 109 
C 1242 109 1165 173 1165 528 
L 1165 4371 
L 1139 4384 
C 806 4275 563 4211 122 4103 
L 122 4000 
z
" transform="scale(0.015625)"/>
      <path id="NimbusRomNo9L-Regu-75" d="M 3066 320 
L 3034 320 
C 2739 320 2669 390 2669 685 
L 2669 2880 
L 1658 2880 
L 1658 2758 
C 2054 2758 2131 2694 2131 2375 
L 2131 875 
C 2131 697 2099 607 2010 537 
C 1837 397 1638 320 1446 320 
C 1197 320 992 537 992 805 
L 992 2880 
L 58 2880 
L 58 2778 
C 365 2778 454 2682 454 2387 
L 454 770 
C 454 263 762 -64 1229 -64 
C 1466 -64 1715 38 1888 211 
L 2163 486 
L 2163 -45 
L 2189 -58 
C 2509 70 2739 141 3066 230 
L 3066 320 
z
" transform="scale(0.015625)"/>
      <path id="NimbusRomNo9L-Regu-63" d="M 2547 998 
C 2240 550 2010 397 1645 397 
C 1062 397 653 909 653 1645 
C 653 2304 1005 2758 1523 2758 
C 1754 2758 1837 2688 1901 2451 
L 1939 2310 
C 1990 2131 2106 2016 2240 2016 
C 2406 2016 2547 2138 2547 2285 
C 2547 2643 2099 2944 1562 2944 
C 1248 2944 922 2816 659 2586 
C 339 2304 160 1869 160 1363 
C 160 531 666 -64 1376 -64 
C 1664 -64 1920 38 2150 237 
C 2323 390 2445 563 2637 941 
L 2547 998 
z
" transform="scale(0.015625)"/>
      <path id="NimbusRomNo9L-Regu-69" d="M 1120 2929 
L 128 2579 
L 128 2484 
L 179 2490 
C 256 2502 339 2509 397 2509 
C 550 2509 608 2406 608 2125 
L 608 640 
C 608 179 544 109 102 109 
L 102 0 
L 1619 0 
L 1619 96 
C 1197 128 1146 191 1146 650 
L 1146 2910 
L 1120 2929 
z
M 819 4352 
C 646 4352 499 4205 499 4026 
C 499 3847 640 3699 819 3699 
C 1005 3699 1152 3840 1152 4026 
C 1152 4205 1005 4352 819 4352 
z
" transform="scale(0.015625)"/>
      <path id="NimbusRomNo9L-Regu-b4" d="M 851 3264 
L 1837 3882 
C 1971 3964 2029 4047 2029 4148 
C 2029 4275 1946 4352 1805 4352 
C 1709 4352 1651 4320 1536 4206 
L 595 3264 
L 851 3264 
z
" transform="scale(0.015625)"/>
      <path id="NimbusRomNo9L-Regu-6e" d="M 102 2579 
C 141 2598 205 2605 275 2605 
C 454 2605 512 2509 512 2195 
L 512 608 
C 512 243 442 154 115 128 
L 115 32 
L 1472 32 
L 1472 128 
C 1146 154 1050 230 1050 461 
L 1050 2259 
C 1357 2547 1498 2624 1709 2624 
C 2022 2624 2176 2426 2176 2003 
L 2176 666 
C 2176 262 2093 154 1773 128 
L 1773 32 
L 3104 32 
L 3104 128 
C 2790 160 2714 237 2714 550 
L 2714 2016 
C 2714 2618 2432 2976 1958 2976 
C 1664 2976 1466 2867 1030 2458 
L 1030 2963 
L 986 2976 
C 672 2861 454 2790 102 2688 
L 102 2579 
z
" transform="scale(0.015625)"/>
      <path id="NimbusRomNo9L-Regu-64" d="M 2202 -64 
L 3142 269 
L 3142 365 
C 3027 365 3014 365 2995 365 
C 2765 365 2714 435 2714 731 
L 2714 4364 
L 2682 4377 
C 2374 4268 2150 4204 1741 4096 
L 1741 3994 
C 1792 4000 1830 4000 1882 4000 
C 2118 4000 2176 3936 2176 3672 
L 2176 2669 
C 1933 2874 1760 2944 1504 2944 
C 768 2944 173 2221 173 1312 
C 173 493 653 -64 1357 -64 
C 1715 -64 1958 64 2176 365 
L 2176 -45 
L 2202 -64 
z
M 2176 653 
C 2176 608 2131 531 2067 461 
C 1952 333 1792 269 1606 269 
C 1075 269 723 781 723 1568 
C 723 2291 1037 2765 1523 2765 
C 1862 2765 2176 2464 2176 2125 
L 2176 653 
z
" transform="scale(0.015625)"/>
      <path id="NimbusRomNo9L-Regu-65" d="M 2611 1053 
C 2304 564 2029 378 1619 378 
C 1254 378 979 564 794 930 
C 678 1174 634 1386 621 1779 
L 2592 1779 
C 2541 2193 2477 2377 2317 2581 
C 2125 2811 1830 2944 1498 2944 
C 1178 2944 877 2829 634 2611 
C 333 2349 160 1894 160 1370 
C 160 486 621 -64 1357 -64 
C 1965 -64 2445 315 2714 1008 
L 2611 1053 
z
M 634 1984 
C 704 2479 922 2714 1312 2714 
C 1702 2714 1856 2535 1939 1984 
L 634 1984 
z
" transform="scale(0.015625)"/>
      <path id="NimbusRomNo9L-Regu-4d" d="M 4314 3667 
L 4314 751 
C 4314 217 4237 134 3731 134 
L 3731 0 
L 5523 0 
L 5523 134 
C 5056 134 4966 223 4966 681 
L 4966 3536 
C 4966 3993 5050 4077 5523 4115 
L 5523 4237 
L 4250 4237 
L 2835 1004 
L 1357 4237 
L 90 4237 
L 90 4096 
C 614 4096 698 4019 698 3550 
L 698 943 
C 698 282 608 159 77 121 
L 77 0 
L 1581 0 
L 1581 134 
C 1088 134 979 282 979 931 
L 979 3520 
L 2586 0 
L 2675 0 
L 4314 3667 
z
" transform="scale(0.015625)"/>
      <path id="NimbusRomNo9L-Regu-78" d="M 1779 0 
L 3066 0 
L 3066 96 
C 2867 96 2739 198 2541 480 
L 1722 1735 
L 2253 2502 
C 2374 2675 2566 2778 2771 2778 
L 2771 2880 
L 1760 2880 
L 1760 2778 
C 1952 2778 2016 2740 2016 2649 
C 2016 2571 1939 2430 1779 2229 
C 1747 2191 1670 2075 1587 1946 
L 1498 2074 
C 1318 2342 1203 2560 1203 2643 
C 1203 2733 1286 2778 1478 2778 
L 1478 2880 
L 154 2880 
L 154 2778 
L 211 2778 
C 403 2778 506 2695 704 2396 
L 1306 1479 
L 576 422 
C 384 160 320 115 109 96 
L 109 0 
L 1037 0 
L 1037 96 
C 858 96 781 128 781 211 
C 781 250 826 346 909 474 
L 1414 1261 
L 1997 365 
C 2022 326 2035 288 2035 250 
C 2035 123 1990 96 1779 96 
L 1779 0 
z
" transform="scale(0.015625)"/>
     </defs>
     <use xlink:href="#NimbusRomNo9L-Regu-45" transform="scale(0.996264)"/>
     <use xlink:href="#NimbusRomNo9L-Regu-76" transform="translate(60.871631 0) scale(0.996264)"/>
     <use xlink:href="#NimbusRomNo9L-Regu-6f" transform="translate(108.69282 0) scale(0.996264)"/>
     <use xlink:href="#NimbusRomNo9L-Regu-6c" transform="translate(158.506021 0) scale(0.996264)"/>
     <use xlink:href="#NimbusRomNo9L-Regu-75" transform="translate(186.20119 0) scale(0.996264)"/>
     <use xlink:href="#NimbusRomNo9L-Regu-63" transform="translate(236.014391 0) scale(0.996264)"/>
     <use xlink:href="#NimbusRomNo9L-Regu-69" transform="translate(280.247959 0) scale(0.996264)"/>
     <use xlink:href="#NimbusRomNo9L-Regu-b4" transform="translate(316.262122 0.498056) scale(0.996264)"/>
     <use xlink:href="#NimbusRomNo9L-Regu-6f" transform="translate(307.943129 0) scale(0.996264)"/>
     <use xlink:href="#NimbusRomNo9L-Regu-6e" transform="translate(357.756329 0) scale(0.996264)"/>
     <use xlink:href="#NimbusRomNo9L-Regu-64" transform="translate(432.47613 0) scale(0.996264)"/>
     <use xlink:href="#NimbusRomNo9L-Regu-65" transform="translate(482.289331 0) scale(0.996264)"/>
     <use xlink:href="#NimbusRomNo9L-Regu-4d" transform="translate(551.4295 0) scale(0.996264)"/>
     <use xlink:href="#NimbusRomNo9L-Regu-b4" transform="translate(645.525583 0.498056) scale(0.996264)"/>
     <use xlink:href="#NimbusRomNo9L-Regu-65" transform="translate(639.996406 0) scale(0.996264)"/>
     <use xlink:href="#NimbusRomNo9L-Regu-78" transform="translate(684.229975 0) scale(0.996264)"/>
     <use xlink:href="#NimbusRomNo9L-Regu-69" transform="translate(734.043175 0) scale(0.996264)"/>
     <use xlink:href="#NimbusRomNo9L-Regu-63" transform="translate(761.738345 0) scale(0.996264)"/>
     <use xlink:href="#NimbusRomNo9L-Regu-6f" transform="translate(805.971914 0) scale(0.996264)"/>
    </g>
    <!-- Barabsi-Albert (m=1) - Homofilia: 0\%  -->
    <g transform="translate(10.730744 19.936215) scale(0.096 -0.096)">
     <defs>
      <path id="NimbusRomNo9L-Regu-42" d="M 109 4237 
L 109 4096 
C 646 4096 723 4026 723 3548 
L 723 689 
C 723 212 640 128 109 128 
L 109 0 
L 2246 0 
C 2746 0 3200 136 3437 356 
C 3667 564 3795 855 3795 1165 
C 3795 1451 3680 1710 3482 1897 
C 3290 2072 3117 2150 2701 2253 
C 3034 2335 3168 2398 3322 2531 
C 3482 2671 3578 2903 3578 3163 
C 3578 3871 3008 4237 1901 4237 
L 109 4237 
z
M 1376 2112 
C 1997 2112 2291 2080 2522 1982 
C 2886 1827 3059 1568 3059 1159 
C 3059 809 2925 555 2669 406 
C 2464 290 2202 238 1779 238 
C 1466 238 1376 296 1376 504 
L 1376 2112 
z
M 1376 2368 
L 1376 3812 
C 1376 3944 1421 4001 1517 4001 
L 1798 4001 
C 2534 4001 2925 3699 2925 3137 
C 2925 2646 2586 2368 1984 2368 
L 1376 2368 
z
" transform="scale(0.015625)"/>
      <path id="NimbusRomNo9L-Regu-61" d="M 2829 423 
C 2720 333 2643 301 2547 301 
C 2400 301 2355 390 2355 672 
L 2355 1920 
C 2355 2253 2323 2438 2227 2592 
C 2086 2822 1811 2944 1434 2944 
C 832 2944 358 2630 358 2227 
C 358 2080 486 1952 634 1952 
C 787 1952 922 2080 922 2221 
C 922 2246 915 2278 909 2323 
C 896 2381 890 2432 890 2477 
C 890 2650 1094 2790 1350 2790 
C 1664 2790 1837 2605 1837 2259 
L 1837 1869 
C 851 1472 742 1421 467 1178 
C 326 1050 237 832 237 621 
C 237 218 518 -64 909 -64 
C 1190 -64 1453 70 1843 403 
C 1875 70 1990 -64 2253 -64 
C 2470 -64 2605 13 2829 256 
L 2829 423 
z
M 1837 783 
C 1837 584 1805 526 1670 449 
C 1517 359 1338 301 1203 301 
C 979 301 800 520 800 796 
L 800 822 
C 800 1201 1062 1433 1837 1715 
L 1837 783 
z
" transform="scale(0.015625)"/>
      <path id="NimbusRomNo9L-Regu-72" d="M 45 2496 
C 134 2515 192 2522 269 2522 
C 429 2522 486 2419 486 2138 
L 486 538 
C 486 218 442 173 32 96 
L 32 0 
L 1568 0 
L 1568 102 
C 1133 102 1024 199 1024 565 
L 1024 2013 
C 1024 2219 1299 2541 1472 2541 
C 1510 2541 1568 2509 1638 2445 
C 1741 2355 1811 2317 1894 2317 
C 2048 2317 2144 2426 2144 2605 
C 2144 2816 2010 2944 1792 2944 
C 1523 2944 1338 2797 1024 2343 
L 1024 2931 
L 992 2944 
C 653 2803 422 2721 45 2599 
L 45 2496 
z
" transform="scale(0.015625)"/>
      <path id="NimbusRomNo9L-Regu-62" d="M 979 4364 
L 947 4377 
C 678 4281 506 4230 205 4147 
L 19 4096 
L 19 3994 
C 58 4000 83 4000 128 4000 
C 384 4000 442 3942 442 3673 
L 442 347 
C 442 147 986 -64 1498 -64 
C 2342 -64 2995 640 2995 1555 
C 2995 2342 2509 2944 1869 2944 
C 1478 2944 1107 2714 979 2400 
L 979 4364 
z
M 979 2061 
C 979 2310 1280 2541 1613 2541 
C 2112 2541 2432 2042 2432 1261 
C 2432 550 2125 141 1600 141 
C 1267 141 979 288 979 448 
L 979 2061 
z
" transform="scale(0.015625)"/>
      <path id="NimbusRomNo9L-Regu-73" d="M 2016 2010 
L 1990 2880 
L 1920 2880 
L 1907 2867 
C 1850 2822 1843 2816 1818 2816 
C 1779 2816 1715 2829 1645 2861 
C 1504 2915 1363 2944 1197 2944 
C 691 2944 326 2616 326 2154 
C 326 1796 531 1539 1075 1231 
L 1446 1020 
C 1670 892 1779 737 1779 539 
C 1779 256 1574 77 1248 77 
C 1030 77 832 159 710 298 
C 576 455 518 600 435 960 
L 333 960 
L 333 -39 
L 416 -39 
C 461 33 486 48 563 48 
C 621 48 710 35 858 -2 
C 1037 -39 1210 -64 1325 -64 
C 1818 -64 2227 308 2227 757 
C 2227 1077 2074 1289 1690 1520 
L 998 1930 
C 819 2033 723 2194 723 2367 
C 723 2624 922 2803 1216 2803 
C 1581 2803 1773 2583 1920 2010 
L 2016 2010 
z
" transform="scale(0.015625)"/>
      <path id="NimbusRomNo9L-Regu-2d" d="M 250 1619 
L 250 1216 
L 1824 1216 
L 1824 1619 
L 250 1619 
z
" transform="scale(0.015625)"/>
      <path id="NimbusRomNo9L-Regu-41" d="M 4518 128 
C 4230 128 4166 192 3942 667 
L 2349 4320 
L 2221 4320 
L 890 1168 
C 480 231 403 128 96 128 
L 96 0 
L 1363 0 
L 1363 128 
C 1056 128 928 212 928 393 
C 928 470 947 560 979 645 
L 1274 1401 
L 2950 1401 
L 3213 778 
C 3290 602 3334 434 3334 342 
C 3334 180 3226 128 2886 128 
L 2886 0 
L 4518 0 
L 4518 128 
z
M 1382 1664 
L 2118 3416 
L 2861 1664 
L 1382 1664 
z
" transform="scale(0.015625)"/>
      <path id="NimbusRomNo9L-Regu-74" d="M 1632 2880 
L 986 2880 
L 986 3622 
C 986 3686 979 3706 941 3706 
C 896 3648 858 3590 813 3526 
C 570 3174 294 2867 192 2841 
C 122 2794 83 2748 83 2715 
C 83 2695 90 2682 109 2682 
L 448 2682 
L 448 751 
C 448 212 640 -64 1018 -64 
C 1331 -64 1574 90 1786 423 
L 1702 493 
C 1568 333 1459 269 1318 269 
C 1082 269 986 443 986 847 
L 986 2682 
L 1632 2682 
L 1632 2880 
z
" transform="scale(0.015625)"/>
      <path id="NimbusRomNo9L-Regu-28" d="M 1888 4326 
C 1414 4019 1222 3853 986 3558 
C 531 3002 307 2362 307 1613 
C 307 800 544 173 1107 -480 
C 1370 -787 1536 -928 1869 -1133 
L 1946 -1030 
C 1434 -627 1254 -403 1082 77 
C 928 506 858 992 858 1632 
C 858 2304 941 2829 1114 3226 
C 1293 3622 1485 3853 1946 4224 
L 1888 4326 
z
" transform="scale(0.015625)"/>
      <path id="NimbusRomNo9L-Regu-6d" d="M 122 2547 
C 205 2566 256 2573 326 2573 
C 493 2573 550 2470 550 2162 
L 550 539 
C 550 192 461 96 102 96 
L 102 0 
L 1523 0 
L 1523 96 
C 1184 96 1088 166 1088 418 
L 1088 2234 
C 1088 2246 1139 2310 1184 2355 
C 1344 2502 1619 2611 1843 2611 
C 2125 2611 2266 2385 2266 1932 
L 2266 528 
C 2266 167 2195 96 1830 96 
L 1830 0 
L 3264 0 
L 3264 96 
C 2899 96 2803 205 2803 603 
L 2803 2221 
C 2995 2496 3206 2611 3501 2611 
C 3866 2611 3981 2438 3981 1907 
L 3981 557 
C 3981 192 3930 141 3558 96 
L 3558 0 
L 4960 0 
L 4960 96 
L 4794 115 
C 4602 115 4518 230 4518 480 
L 4518 1802 
C 4518 2559 4269 2944 3776 2944 
C 3405 2944 3078 2778 2733 2407 
C 2618 2771 2400 2944 2054 2944 
C 1773 2944 1594 2854 1062 2451 
L 1062 2931 
L 1018 2944 
C 691 2822 474 2752 122 2656 
L 122 2547 
z
" transform="scale(0.015625)"/>
      <path id="NimbusRomNo9L-Regu-3d" d="M 3418 2470 
L 192 2470 
L 192 2048 
L 3418 2048 
L 3418 2470 
z
M 3418 1190 
L 192 1190 
L 192 768 
L 3418 768 
L 3418 1190 
z
" transform="scale(0.015625)"/>
      <path id="NimbusRomNo9L-Regu-29" d="M 243 -1133 
C 717 -826 909 -659 1146 -365 
C 1600 192 1824 832 1824 1581 
C 1824 2400 1587 3021 1024 3674 
C 762 3981 595 4122 262 4326 
L 186 4224 
C 698 3821 870 3597 1050 3117 
C 1203 2688 1274 2202 1274 1562 
C 1274 896 1190 365 1018 -26 
C 838 -429 646 -659 186 -1030 
L 243 -1133 
z
" transform="scale(0.015625)"/>
      <path id="NimbusRomNo9L-Regu-48" d="M 1338 2304 
L 1338 3533 
C 1338 3990 1408 4059 1901 4104 
L 1901 4224 
L 122 4224 
L 122 4104 
C 614 4059 685 3989 685 3527 
L 685 749 
C 685 210 621 134 122 134 
L 122 0 
L 1901 0 
L 1901 121 
C 1421 159 1338 242 1338 699 
L 1338 2022 
L 3277 2022 
L 3277 757 
C 3277 211 3213 134 2714 134 
L 2714 0 
L 4493 0 
L 4493 121 
C 4013 159 3930 242 3930 696 
L 3930 3529 
C 3930 3989 4000 4059 4493 4104 
L 4493 4224 
L 2714 4224 
L 2714 4104 
C 3206 4059 3277 3990 3277 3533 
L 3277 2304 
L 1338 2304 
z
" transform="scale(0.015625)"/>
      <path id="NimbusRomNo9L-Regu-2" d="M 198 2669 
L 634 2669 
L 634 566 
C 634 148 563 64 205 64 
L 205 -38 
L 1613 -38 
L 1613 58 
C 1254 84 1171 175 1171 532 
L 1171 2669 
L 1722 2669 
C 2336 2669 2368 2650 2368 2305 
L 2368 591 
C 2368 149 2323 90 1926 58 
L 1926 -38 
L 3334 -38 
L 3334 58 
C 2976 90 2906 175 2906 590 
L 2906 2289 
C 2906 2431 2906 2581 2918 2924 
L 2893 2943 
C 2611 2899 2426 2880 2170 2880 
L 1165 2880 
L 1165 3151 
C 1165 3429 1184 3624 1216 3732 
C 1306 4003 1555 4192 1843 4192 
C 2022 4192 2144 4110 2298 3895 
C 2419 3726 2502 3663 2611 3663 
C 2746 3663 2842 3770 2842 3909 
C 2842 4175 2522 4352 2029 4352 
C 1542 4352 1171 4188 941 3878 
C 749 3619 678 3385 640 2880 
L 198 2880 
L 198 2669 
z
" transform="scale(0.015625)"/>
      <path id="NimbusRomNo9L-Regu-3a" d="M 870 2944 
C 678 2944 518 2777 518 2579 
C 518 2393 678 2233 864 2233 
C 1062 2233 1229 2393 1229 2579 
C 1229 2777 1062 2944 870 2944 
z
M 870 646 
C 678 646 518 480 518 281 
C 518 96 678 -64 864 -64 
C 1062 -64 1229 96 1229 281 
C 1229 480 1062 646 870 646 
z
" transform="scale(0.015625)"/>
      <path id="NimbusRomNo9L-Regu-25" d="M 4282 2368 
C 3558 2368 2874 1622 2874 824 
C 2874 325 3181 0 3642 0 
C 3930 0 4166 102 4390 325 
C 4730 670 4941 1187 4941 1686 
C 4941 2120 4698 2368 4282 2368 
z
M 4326 2164 
C 4570 2164 4774 1934 4774 1654 
C 4774 1290 4614 856 4371 556 
C 4166 301 3981 192 3750 192 
C 3520 192 3360 357 3360 601 
C 3360 939 3539 1462 3776 1793 
C 3949 2048 4128 2164 4326 2164 
z
M 4058 4320 
L 3808 4320 
C 3462 4008 3206 3904 2810 3904 
C 2554 3904 2406 3946 2253 4064 
C 2086 4194 2003 4224 1805 4224 
C 1075 4224 390 3468 390 2662 
C 390 2217 730 1856 1146 1856 
C 1421 1856 1709 1984 1920 2209 
C 2253 2549 2458 3056 2458 3526 
C 2458 3615 2445 3693 2413 3808 
C 2528 3763 2643 3744 2829 3744 
C 3110 3744 3277 3788 3533 3931 
L 1286 -96 
L 1594 -96 
L 4058 4320 
z
M 2240 3829 
C 2278 3702 2298 3607 2298 3518 
C 2298 2802 1773 2073 1254 2073 
C 1030 2073 877 2231 877 2460 
C 877 2726 1005 3157 1178 3474 
C 1363 3816 1606 4032 1805 4032 
C 1837 4032 1850 4025 1888 3993 
C 1978 3911 2054 3879 2240 3829 
z
" transform="scale(0.015625)"/>
     </defs>
     <use xlink:href="#NimbusRomNo9L-Regu-42" transform="scale(0.996264)"/>
     <use xlink:href="#NimbusRomNo9L-Regu-61" transform="translate(66.450031 0) scale(0.996264)"/>
     <use xlink:href="#NimbusRomNo9L-Regu-72" transform="translate(110.6836 0) scale(0.996264)"/>
     <use xlink:href="#NimbusRomNo9L-Regu-61" transform="translate(143.85883 0) scale(0.996264)"/>
     <use xlink:href="#NimbusRomNo9L-Regu-62" transform="translate(188.092398 0) scale(0.996264)"/>
     <use xlink:href="#NimbusRomNo9L-Regu-b4" transform="translate(243.434776 0.498056) scale(0.996264)"/>
     <use xlink:href="#NimbusRomNo9L-Regu-61" transform="translate(237.905599 0) scale(0.996264)"/>
     <use xlink:href="#NimbusRomNo9L-Regu-73" transform="translate(282.139167 0) scale(0.996264)"/>
     <use xlink:href="#NimbusRomNo9L-Regu-69" transform="translate(320.892874 0) scale(0.996264)"/>
     <use xlink:href="#NimbusRomNo9L-Regu-2d" transform="translate(348.588043 0) scale(0.996264)"/>
     <use xlink:href="#NimbusRomNo9L-Regu-41" transform="translate(381.763273 0) scale(0.996264)"/>
     <use xlink:href="#NimbusRomNo9L-Regu-6c" transform="translate(453.693258 0) scale(0.996264)"/>
     <use xlink:href="#NimbusRomNo9L-Regu-62" transform="translate(481.388427 0) scale(0.996264)"/>
     <use xlink:href="#NimbusRomNo9L-Regu-65" transform="translate(531.201628 0) scale(0.996264)"/>
     <use xlink:href="#NimbusRomNo9L-Regu-72" transform="translate(575.435197 0) scale(0.996264)"/>
     <use xlink:href="#NimbusRomNo9L-Regu-74" transform="translate(608.610426 0) scale(0.996264)"/>
     <use xlink:href="#NimbusRomNo9L-Regu-28" transform="translate(661.212196 0) scale(0.996264)"/>
     <use xlink:href="#NimbusRomNo9L-Regu-6d" transform="translate(694.387426 0) scale(0.996264)"/>
     <use xlink:href="#NimbusRomNo9L-Regu-3d" transform="translate(771.895796 0) scale(0.996264)"/>
     <use xlink:href="#NimbusRomNo9L-Regu-31" transform="translate(828.084046 0) scale(0.996264)"/>
     <use xlink:href="#NimbusRomNo9L-Regu-29" transform="translate(877.897247 0) scale(0.996264)"/>
     <use xlink:href="#NimbusRomNo9L-Regu-2d" transform="translate(935.979077 0) scale(0.996264)"/>
     <use xlink:href="#NimbusRomNo9L-Regu-48" transform="translate(994.060907 0) scale(0.996264)"/>
     <use xlink:href="#NimbusRomNo9L-Regu-6f" transform="translate(1065.990892 0) scale(0.996264)"/>
     <use xlink:href="#NimbusRomNo9L-Regu-6d" transform="translate(1115.804092 0) scale(0.996264)"/>
     <use xlink:href="#NimbusRomNo9L-Regu-6f" transform="translate(1193.312462 0) scale(0.996264)"/>
     <use xlink:href="#NimbusRomNo9L-Regu-2" transform="translate(1243.125663 0) scale(0.996264)"/>
     <use xlink:href="#NimbusRomNo9L-Regu-6c" transform="translate(1298.51734 0) scale(0.996264)"/>
     <use xlink:href="#NimbusRomNo9L-Regu-69" transform="translate(1326.212509 0) scale(0.996264)"/>
     <use xlink:href="#NimbusRomNo9L-Regu-61" transform="translate(1353.907679 0) scale(0.996264)"/>
     <use xlink:href="#NimbusRomNo9L-Regu-3a" transform="translate(1398.141248 0) scale(0.996264)"/>
     <use xlink:href="#NimbusRomNo9L-Regu-30" transform="translate(1456.72045 0) scale(0.996264)"/>
     <use xlink:href="#NimbusRomNo9L-Regu-25" transform="translate(1506.53365 0) scale(0.996264)"/>
    </g>
    <!-- Masa crtica: 80\% - Nodos centrales (H,C) -->
    <g transform="translate(5.068848 29.788034) scale(0.096 -0.096)">
     <defs>
      <path id="NimbusRomNo9L-Regu-11" d="M 1120 2950 
L 128 2598 
L 128 2502 
L 179 2508 
C 256 2521 339 2528 397 2528 
C 550 2528 608 2424 608 2141 
L 608 644 
C 608 180 544 109 102 109 
L 102 0 
L 1619 0 
L 1619 96 
C 1197 128 1146 192 1146 654 
L 1146 2931 
L 1120 2950 
z
" transform="scale(0.015625)"/>
      <path id="NimbusRomNo9L-Regu-4e" d="M 3917 -64 
L 3917 3287 
C 3917 3669 3981 3905 4102 3987 
C 4192 4051 4282 4077 4525 4102 
L 4525 4224 
L 3021 4224 
L 3021 4102 
C 3264 4083 3354 4057 3450 4000 
C 3578 3911 3635 3681 3635 3286 
L 3635 1136 
L 1171 4224 
L 77 4224 
L 77 4102 
C 352 4102 442 4051 698 3751 
L 698 938 
C 698 281 608 159 77 121 
L 77 0 
L 1581 0 
L 1581 134 
C 1088 134 979 281 979 928 
L 979 3439 
L 3808 -64 
L 3917 -64 
z
" transform="scale(0.015625)"/>
      <path id="NimbusRomNo9L-Regu-2c" d="M 531 -889 
C 960 -678 1248 -288 1248 96 
C 1248 416 1024 666 736 666 
C 512 666 358 519 358 301 
C 358 96 506 -25 736 -25 
C 774 -25 819 -19 858 -13 
C 902 0 902 0 909 0 
C 960 0 998 -38 998 -89 
C 998 -294 819 -531 474 -768 
L 531 -889 
z
" transform="scale(0.015625)"/>
      <path id="NimbusRomNo9L-Regu-43" d="M 3968 2906 
L 3910 4352 
L 3776 4352 
C 3738 4218 3635 4141 3507 4141 
C 3450 4141 3354 4160 3258 4199 
C 2944 4301 2624 4352 2323 4352 
C 1798 4352 1267 4154 870 3802 
C 422 3405 179 2810 179 2106 
C 179 1511 371 960 698 596 
C 1082 180 1670 -64 2304 -64 
C 3027 -64 3661 231 4051 749 
L 3936 864 
C 3462 410 3040 218 2509 218 
C 2106 218 1747 346 1472 589 
C 1120 903 922 1479 922 2189 
C 922 3348 1517 4096 2445 4096 
C 2810 4096 3142 3962 3398 3706 
C 3603 3501 3699 3322 3821 2906 
L 3968 2906 
z
" transform="scale(0.015625)"/>
     </defs>
     <use xlink:href="#NimbusRomNo9L-Regu-4d" transform="scale(0.996264)"/>
     <use xlink:href="#NimbusRomNo9L-Regu-61" transform="translate(88.566907 0) scale(0.996264)"/>
     <use xlink:href="#NimbusRomNo9L-Regu-73" transform="translate(132.800475 0) scale(0.996264)"/>
     <use xlink:href="#NimbusRomNo9L-Regu-61" transform="translate(171.554182 0) scale(0.996264)"/>
     <use xlink:href="#NimbusRomNo9L-Regu-63" transform="translate(240.694351 0) scale(0.996264)"/>
     <use xlink:href="#NimbusRomNo9L-Regu-72" transform="translate(284.927919 0) scale(0.996264)"/>
     <use xlink:href="#NimbusRomNo9L-Regu-b4" transform="translate(315.363119 0.498056) scale(0.996264)"/>
     <use xlink:href="#NimbusRomNo9L-Regu-11" transform="translate(318.103149 0) scale(0.996264)"/>
     <use xlink:href="#NimbusRomNo9L-Regu-74" transform="translate(345.798319 0) scale(0.996264)"/>
     <use xlink:href="#NimbusRomNo9L-Regu-69" transform="translate(373.493488 0) scale(0.996264)"/>
     <use xlink:href="#NimbusRomNo9L-Regu-63" transform="translate(401.188658 0) scale(0.996264)"/>
     <use xlink:href="#NimbusRomNo9L-Regu-61" transform="translate(445.422226 0) scale(0.996264)"/>
     <use xlink:href="#NimbusRomNo9L-Regu-3a" transform="translate(489.655795 0) scale(0.996264)"/>
     <use xlink:href="#NimbusRomNo9L-Regu-38" transform="translate(548.234997 0) scale(0.996264)"/>
     <use xlink:href="#NimbusRomNo9L-Regu-30" transform="translate(598.048198 0) scale(0.996264)"/>
     <use xlink:href="#NimbusRomNo9L-Regu-25" transform="translate(647.861398 0) scale(0.996264)"/>
     <use xlink:href="#NimbusRomNo9L-Regu-2d" transform="translate(755.756429 0) scale(0.996264)"/>
     <use xlink:href="#NimbusRomNo9L-Regu-4e" transform="translate(813.838259 0) scale(0.996264)"/>
     <use xlink:href="#NimbusRomNo9L-Regu-6f" transform="translate(885.768243 0) scale(0.996264)"/>
     <use xlink:href="#NimbusRomNo9L-Regu-64" transform="translate(935.581444 0) scale(0.996264)"/>
     <use xlink:href="#NimbusRomNo9L-Regu-6f" transform="translate(985.394644 0) scale(0.996264)"/>
     <use xlink:href="#NimbusRomNo9L-Regu-73" transform="translate(1035.207845 0) scale(0.996264)"/>
     <use xlink:href="#NimbusRomNo9L-Regu-63" transform="translate(1098.868151 0) scale(0.996264)"/>
     <use xlink:href="#NimbusRomNo9L-Regu-65" transform="translate(1143.10172 0) scale(0.996264)"/>
     <use xlink:href="#NimbusRomNo9L-Regu-6e" transform="translate(1187.335289 0) scale(0.996264)"/>
     <use xlink:href="#NimbusRomNo9L-Regu-74" transform="translate(1237.148489 0) scale(0.996264)"/>
     <use xlink:href="#NimbusRomNo9L-Regu-72" transform="translate(1264.843659 0) scale(0.996264)"/>
     <use xlink:href="#NimbusRomNo9L-Regu-61" transform="translate(1298.018889 0) scale(0.996264)"/>
     <use xlink:href="#NimbusRomNo9L-Regu-6c" transform="translate(1342.252457 0) scale(0.996264)"/>
     <use xlink:href="#NimbusRomNo9L-Regu-65" transform="translate(1369.947627 0) scale(0.996264)"/>
     <use xlink:href="#NimbusRomNo9L-Regu-73" transform="translate(1414.181196 0) scale(0.996264)"/>
     <use xlink:href="#NimbusRomNo9L-Regu-28" transform="translate(1477.841502 0) scale(0.996264)"/>
     <use xlink:href="#NimbusRomNo9L-Regu-48" transform="translate(1511.016732 0) scale(0.996264)"/>
     <use xlink:href="#NimbusRomNo9L-Regu-2c" transform="translate(1582.946717 0) scale(0.996264)"/>
     <use xlink:href="#NimbusRomNo9L-Regu-43" transform="translate(1607.853317 0) scale(0.996264)"/>
     <use xlink:href="#NimbusRomNo9L-Regu-29" transform="translate(1674.303348 0) scale(0.996264)"/>
    </g>
   </g>
   <g id="legend_1">
    <g id="line2d_108">
     <path d="M 87.486675 44.538034 
L 94.486675 44.538034 
L 101.486675 44.538034 
" style="fill: none; stroke: #dedeee; stroke-linecap: square"/>
    </g>
    <g id="text_13">
     <!-- (C) C. Coop -->
     <g transform="translate(107.086675 46.988034) scale(0.07 -0.07)">
      <defs>
       <path id="NimbusRomNo9L-Regu-2e" d="M 800 646 
C 608 646 448 480 448 281 
C 448 96 608 -64 794 -64 
C 992 -64 1158 96 1158 281 
C 1158 480 992 646 800 646 
z
" transform="scale(0.015625)"/>
       <path id="NimbusRomNo9L-Regu-70" d="M 58 2516 
C 115 2522 160 2522 218 2522 
C 435 2522 480 2458 480 2155 
L 480 -855 
C 480 -1189 410 -1261 32 -1299 
L 32 -1408 
L 1581 -1408 
L 1581 -1293 
C 1101 -1293 1018 -1222 1018 -816 
L 1018 199 
C 1242 -13 1395 -77 1664 -77 
C 2419 -77 3008 643 3008 1575 
C 3008 2372 2560 2944 1939 2944 
C 1581 2944 1299 2784 1018 2438 
L 1018 2931 
L 979 2944 
C 634 2810 410 2726 58 2618 
L 58 2516 
z
M 1018 2136 
C 1018 2329 1376 2560 1670 2560 
C 2144 2560 2458 2071 2458 1324 
C 2458 611 2144 128 1683 128 
C 1382 128 1018 359 1018 552 
L 1018 2136 
z
" transform="scale(0.015625)"/>
      </defs>
      <use xlink:href="#NimbusRomNo9L-Regu-28" transform="scale(0.996264)"/>
      <use xlink:href="#NimbusRomNo9L-Regu-43" transform="translate(33.17523 0) scale(0.996264)"/>
      <use xlink:href="#NimbusRomNo9L-Regu-29" transform="translate(99.625261 0) scale(0.996264)"/>
      <use xlink:href="#NimbusRomNo9L-Regu-43" transform="translate(157.707091 0) scale(0.996264)"/>
      <use xlink:href="#NimbusRomNo9L-Regu-2e" transform="translate(224.157122 0) scale(0.996264)"/>
      <use xlink:href="#NimbusRomNo9L-Regu-43" transform="translate(273.970322 0) scale(0.996264)"/>
      <use xlink:href="#NimbusRomNo9L-Regu-6f" transform="translate(340.420354 0) scale(0.996264)"/>
      <use xlink:href="#NimbusRomNo9L-Regu-6f" transform="translate(390.233554 0) scale(0.996264)"/>
      <use xlink:href="#NimbusRomNo9L-Regu-70" transform="translate(440.046755 0) scale(0.996264)"/>
     </g>
    </g>
    <g id="line2d_109">
     <path d="M 87.486675 54.447815 
L 94.486675 54.447815 
L 101.486675 54.447815 
" style="fill: none; stroke-dasharray: 3.7,1.6; stroke-dashoffset: 0; stroke: #9b9aca"/>
    </g>
    <g id="text_14">
     <!-- (D) C. no Coop -->
     <g transform="translate(107.086675 56.897815) scale(0.07 -0.07)">
      <defs>
       <path id="NimbusRomNo9L-Regu-44" d="M 666 679 
C 666 217 589 134 102 134 
L 102 0 
L 1920 0 
C 2662 0 3334 210 3731 568 
C 4147 944 4384 1512 4384 2131 
C 4384 2706 4192 3203 3840 3554 
C 3405 3994 2707 4224 1830 4224 
L 102 4224 
L 102 4102 
C 608 4057 666 4000 666 3525 
L 666 679 
z
M 1318 3738 
C 1318 3936 1389 3987 1651 3987 
C 2202 3987 2618 3885 2925 3668 
C 3424 3323 3686 2775 3686 2087 
C 3686 1334 3424 798 2906 498 
C 2579 314 2208 237 1651 237 
C 1395 237 1318 294 1318 498 
L 1318 3738 
z
" transform="scale(0.015625)"/>
      </defs>
      <use xlink:href="#NimbusRomNo9L-Regu-28" transform="scale(0.996264)"/>
      <use xlink:href="#NimbusRomNo9L-Regu-44" transform="translate(33.17523 0) scale(0.996264)"/>
      <use xlink:href="#NimbusRomNo9L-Regu-29" transform="translate(105.105215 0) scale(0.996264)"/>
      <use xlink:href="#NimbusRomNo9L-Regu-43" transform="translate(163.187045 0) scale(0.996264)"/>
      <use xlink:href="#NimbusRomNo9L-Regu-2e" transform="translate(229.637076 0) scale(0.996264)"/>
      <use xlink:href="#NimbusRomNo9L-Regu-6e" transform="translate(279.450276 0) scale(0.996264)"/>
      <use xlink:href="#NimbusRomNo9L-Regu-6f" transform="translate(329.263477 0) scale(0.996264)"/>
      <use xlink:href="#NimbusRomNo9L-Regu-43" transform="translate(403.983277 0) scale(0.996264)"/>
      <use xlink:href="#NimbusRomNo9L-Regu-6f" transform="translate(470.433309 0) scale(0.996264)"/>
      <use xlink:href="#NimbusRomNo9L-Regu-6f" transform="translate(520.246509 0) scale(0.996264)"/>
      <use xlink:href="#NimbusRomNo9L-Regu-70" transform="translate(570.05971 0) scale(0.996264)"/>
     </g>
    </g>
    <g id="line2d_110">
     <path d="M 87.486675 64.357595 
L 94.486675 64.357595 
L 101.486675 64.357595 
" style="fill: none; stroke-dasharray: 1,1.65; stroke-dashoffset: 0; stroke: #7976b8"/>
    </g>
    <g id="text_15">
     <!-- (H) P. Honrado -->
     <g transform="translate(107.086675 66.807595) scale(0.07 -0.07)">
      <defs>
       <path id="NimbusRomNo9L-Regu-50" d="M 1293 1875 
C 1459 1856 1568 1856 1734 1856 
C 2234 1856 2579 1919 2854 2072 
C 3238 2274 3469 2660 3469 3078 
C 3469 3344 3379 3584 3206 3768 
C 2950 4047 2394 4224 1792 4224 
L 102 4224 
L 102 4102 
C 576 4051 640 3987 640 3528 
L 640 766 
C 640 230 589 166 102 122 
L 102 0 
L 1894 0 
L 1894 128 
C 1389 128 1293 218 1293 693 
L 1293 1875 
z
M 1293 3772 
C 1293 3943 1338 3987 1510 3987 
C 2374 3987 2771 3690 2771 3040 
C 2771 2428 2394 2112 1658 2112 
C 1530 2112 1440 2119 1293 2131 
L 1293 3772 
z
" transform="scale(0.015625)"/>
      </defs>
      <use xlink:href="#NimbusRomNo9L-Regu-28" transform="scale(0.996264)"/>
      <use xlink:href="#NimbusRomNo9L-Regu-48" transform="translate(33.17523 0) scale(0.996264)"/>
      <use xlink:href="#NimbusRomNo9L-Regu-29" transform="translate(105.105215 0) scale(0.996264)"/>
      <use xlink:href="#NimbusRomNo9L-Regu-50" transform="translate(163.187045 0) scale(0.996264)"/>
      <use xlink:href="#NimbusRomNo9L-Regu-2e" transform="translate(207.520276 0) scale(0.996264)"/>
      <use xlink:href="#NimbusRomNo9L-Regu-48" transform="translate(257.333477 0) scale(0.996264)"/>
      <use xlink:href="#NimbusRomNo9L-Regu-6f" transform="translate(329.263461 0) scale(0.996264)"/>
      <use xlink:href="#NimbusRomNo9L-Regu-6e" transform="translate(379.076662 0) scale(0.996264)"/>
      <use xlink:href="#NimbusRomNo9L-Regu-72" transform="translate(428.889862 0) scale(0.996264)"/>
      <use xlink:href="#NimbusRomNo9L-Regu-61" transform="translate(462.065092 0) scale(0.996264)"/>
      <use xlink:href="#NimbusRomNo9L-Regu-64" transform="translate(506.298661 0) scale(0.996264)"/>
      <use xlink:href="#NimbusRomNo9L-Regu-6f" transform="translate(556.111861 0) scale(0.996264)"/>
     </g>
    </g>
    <g id="line2d_111">
     <path d="M 87.486675 74.267375 
L 94.486675 74.267375 
L 101.486675 74.267375 
" style="fill: none; stroke-dasharray: 6.4,1.6,1,1.6; stroke-dashoffset: 0; stroke: #201f3d"/>
    </g>
    <g id="text_16">
     <!-- (K) P. Corrupto -->
     <g transform="translate(107.086675 76.717375) scale(0.07 -0.07)">
      <defs>
       <path id="NimbusRomNo9L-Regu-4b" d="M 2643 4109 
C 2720 4096 2784 4096 2810 4096 
C 3002 4096 3078 4045 3078 3917 
C 3078 3775 2931 3583 2579 3257 
L 1446 2224 
L 1446 3534 
C 1446 4000 1517 4071 2035 4109 
L 2035 4231 
L 218 4231 
L 218 4109 
C 717 4071 794 3988 794 3531 
L 794 750 
C 794 217 723 134 218 134 
L 218 0 
L 2022 0 
L 2022 134 
C 1523 134 1446 211 1446 683 
L 1446 1891 
L 1613 2026 
L 2291 1355 
C 2778 876 3123 422 3123 269 
C 3123 179 3034 134 2854 134 
C 2822 134 2752 134 2675 121 
L 2675 0 
L 4627 0 
L 4627 134 
C 4294 134 4205 198 3622 816 
L 2131 2409 
L 3347 3611 
C 3782 4026 3885 4077 4320 4109 
L 4320 4231 
L 2643 4231 
L 2643 4109 
z
" transform="scale(0.015625)"/>
      </defs>
      <use xlink:href="#NimbusRomNo9L-Regu-28" transform="scale(0.996264)"/>
      <use xlink:href="#NimbusRomNo9L-Regu-4b" transform="translate(33.17523 0) scale(0.996264)"/>
      <use xlink:href="#NimbusRomNo9L-Regu-29" transform="translate(105.105215 0) scale(0.996264)"/>
      <use xlink:href="#NimbusRomNo9L-Regu-50" transform="translate(163.187045 0) scale(0.996264)"/>
      <use xlink:href="#NimbusRomNo9L-Regu-2e" transform="translate(207.520276 0) scale(0.996264)"/>
      <use xlink:href="#NimbusRomNo9L-Regu-43" transform="translate(257.333477 0) scale(0.996264)"/>
      <use xlink:href="#NimbusRomNo9L-Regu-6f" transform="translate(323.783508 0) scale(0.996264)"/>
      <use xlink:href="#NimbusRomNo9L-Regu-72" transform="translate(373.596708 0) scale(0.996264)"/>
      <use xlink:href="#NimbusRomNo9L-Regu-72" transform="translate(406.771938 0) scale(0.996264)"/>
      <use xlink:href="#NimbusRomNo9L-Regu-75" transform="translate(439.947168 0) scale(0.996264)"/>
      <use xlink:href="#NimbusRomNo9L-Regu-70" transform="translate(489.760368 0) scale(0.996264)"/>
      <use xlink:href="#NimbusRomNo9L-Regu-74" transform="translate(539.573569 0) scale(0.996264)"/>
      <use xlink:href="#NimbusRomNo9L-Regu-6f" transform="translate(567.268738 0) scale(0.996264)"/>
     </g>
    </g>
   </g>
  </g>
 </g>
 <defs>
  <clipPath id="ped70c3f30a">
   <rect x="17.277745" y="35.788034" width="139.5" height="138.6"/>
  </clipPath>
 </defs>
</svg>
