<?xml version="1.0" encoding="utf-8" standalone="no"?>
<!DOCTYPE svg PUBLIC "-//W3C//DTD SVG 1.1//EN"
  "http://www.w3.org/Graphics/SVG/1.1/DTD/svg11.dtd">
<svg xmlns:xlink="http://www.w3.org/1999/xlink" width="208.195877pt" height="227.466273pt" viewBox="0 0 208.195877 227.466273" xmlns="http://www.w3.org/2000/svg" version="1.1">
 <metadata>
  <rdf:RDF xmlns:dc="http://purl.org/dc/elements/1.1/" xmlns:cc="http://creativecommons.org/ns#" xmlns:rdf="http://www.w3.org/1999/02/22-rdf-syntax-ns#">
   <cc:Work>
    <dc:type rdf:resource="http://purl.org/dc/dcmitype/StillImage"/>
    <dc:date>2025-07-06T23:29:58.036670</dc:date>
    <dc:format>image/svg+xml</dc:format>
    <dc:creator>
     <cc:Agent>
      <dc:title>Matplotlib v3.10.1, https://matplotlib.org/</dc:title>
     </cc:Agent>
    </dc:creator>
   </cc:Work>
  </rdf:RDF>
 </metadata>
 <defs>
  <style type="text/css">*{stroke-linejoin: round; stroke-linecap: butt}</style>
 </defs>
 <g id="figure_1">
  <g id="patch_1">
   <path d="M 0 227.466273 
L 208.195877 227.466273 
L 208.195877 -0 
L 0 -0 
z
" style="fill: #ffffff"/>
  </g>
  <g id="axes_1">
   <g id="patch_2">
    <path d="M 28.406864 202.108034 
L 195.806864 202.108034 
L 195.806864 35.788034 
L 28.406864 35.788034 
z
" style="fill: #ffffff"/>
   </g>
   <g id="matplotlib.axis_1">
    <g id="xtick_1">
     <g id="line2d_1">
      <path d="M 28.406864 202.108034 
L 28.406864 35.788034 
" clip-path="url(#p6db5fc7301)" style="fill: none; stroke-dasharray: 1.85,0.8; stroke-dashoffset: 0; stroke: #b0b0b0; stroke-opacity: 0.6; stroke-width: 0.5"/>
     </g>
     <g id="line2d_2">
      <defs>
       <path id="md862d76e04" d="M 0 0 
L 0 -3 
" style="stroke: #000000; stroke-width: 0.5"/>
      </defs>
      <g>
       <use xlink:href="#md862d76e04" x="28.406864" y="202.108034" style="stroke: #000000; stroke-width: 0.5"/>
      </g>
     </g>
     <g id="line2d_3">
      <defs>
       <path id="m9afd1b951f" d="M 0 0 
L 0 3 
" style="stroke: #000000; stroke-width: 0.5"/>
      </defs>
      <g>
       <use xlink:href="#m9afd1b951f" x="28.406864" y="35.788034" style="stroke: #000000; stroke-width: 0.5"/>
      </g>
     </g>
     <g id="text_1">
      <!-- $\mathdefault{0}$ -->
      <g transform="translate(26.414336 211.01169) scale(0.08 -0.08)">
       <defs>
        <path id="NimbusRomNo9L-Regu-30" d="M 1626 4352 
C 1274 4352 1005 4244 768 4020 
C 397 3661 154 2925 154 2176 
C 154 1479 365 730 666 372 
C 902 90 1229 -64 1600 -64 
C 1926 -64 2202 45 2432 269 
C 2803 621 3046 1364 3046 2138 
C 3046 3450 2464 4352 1626 4352 
z
M 1606 4186 
C 2144 4186 2432 3463 2432 2125 
C 2432 788 2150 103 1600 103 
C 1050 103 768 788 768 2119 
C 768 3476 1056 4186 1606 4186 
z
" transform="scale(0.015625)"/>
       </defs>
       <use xlink:href="#NimbusRomNo9L-Regu-30" transform="scale(0.996264)"/>
      </g>
     </g>
    </g>
    <g id="xtick_2">
     <g id="line2d_4">
      <path d="M 61.886864 202.108034 
L 61.886864 35.788034 
" clip-path="url(#p6db5fc7301)" style="fill: none; stroke-dasharray: 1.85,0.8; stroke-dashoffset: 0; stroke: #b0b0b0; stroke-opacity: 0.6; stroke-width: 0.5"/>
     </g>
     <g id="line2d_5">
      <g>
       <use xlink:href="#md862d76e04" x="61.886864" y="202.108034" style="stroke: #000000; stroke-width: 0.5"/>
      </g>
     </g>
     <g id="line2d_6">
      <g>
       <use xlink:href="#m9afd1b951f" x="61.886864" y="35.788034" style="stroke: #000000; stroke-width: 0.5"/>
      </g>
     </g>
     <g id="text_2">
      <!-- $\mathdefault{100}$ -->
      <g transform="translate(55.90928 211.01169) scale(0.08 -0.08)">
       <defs>
        <path id="NimbusRomNo9L-Regu-31" d="M 1862 4339 
L 710 3757 
L 710 3667 
C 787 3699 858 3725 883 3738 
C 998 3783 1107 3808 1171 3808 
C 1306 3808 1363 3711 1363 3505 
L 1363 592 
C 1363 379 1312 232 1210 173 
C 1114 116 1024 96 755 96 
L 755 0 
L 2522 0 
L 2522 96 
C 2016 96 1914 160 1914 470 
L 1914 4327 
L 1862 4339 
z
" transform="scale(0.015625)"/>
       </defs>
       <use xlink:href="#NimbusRomNo9L-Regu-31" transform="scale(0.996264)"/>
       <use xlink:href="#NimbusRomNo9L-Regu-30" transform="translate(49.8132 0) scale(0.996264)"/>
       <use xlink:href="#NimbusRomNo9L-Regu-30" transform="translate(99.626401 0) scale(0.996264)"/>
      </g>
     </g>
    </g>
    <g id="xtick_3">
     <g id="line2d_7">
      <path d="M 95.366864 202.108034 
L 95.366864 35.788034 
" clip-path="url(#p6db5fc7301)" style="fill: none; stroke-dasharray: 1.85,0.8; stroke-dashoffset: 0; stroke: #b0b0b0; stroke-opacity: 0.6; stroke-width: 0.5"/>
     </g>
     <g id="line2d_8">
      <g>
       <use xlink:href="#md862d76e04" x="95.366864" y="202.108034" style="stroke: #000000; stroke-width: 0.5"/>
      </g>
     </g>
     <g id="line2d_9">
      <g>
       <use xlink:href="#m9afd1b951f" x="95.366864" y="35.788034" style="stroke: #000000; stroke-width: 0.5"/>
      </g>
     </g>
     <g id="text_3">
      <!-- $\mathdefault{200}$ -->
      <g transform="translate(89.38928 211.01169) scale(0.08 -0.08)">
       <defs>
        <path id="NimbusRomNo9L-Regu-32" d="M 3040 875 
L 2957 907 
C 2720 544 2637 486 2349 486 
L 819 486 
L 1894 1609 
C 2464 2202 2714 2687 2714 3185 
C 2714 3823 2195 4313 1530 4313 
C 1178 4313 845 4173 608 3918 
C 403 3700 307 3496 198 3043 
L 333 3011 
C 589 3636 819 3840 1261 3840 
C 1798 3840 2163 3476 2163 2940 
C 2163 2443 1869 1850 1331 1282 
L 192 77 
L 192 0 
L 2688 0 
L 3040 875 
z
" transform="scale(0.015625)"/>
       </defs>
       <use xlink:href="#NimbusRomNo9L-Regu-32" transform="scale(0.996264)"/>
       <use xlink:href="#NimbusRomNo9L-Regu-30" transform="translate(49.8132 0) scale(0.996264)"/>
       <use xlink:href="#NimbusRomNo9L-Regu-30" transform="translate(99.626401 0) scale(0.996264)"/>
      </g>
     </g>
    </g>
    <g id="xtick_4">
     <g id="line2d_10">
      <path d="M 128.846864 202.108034 
L 128.846864 35.788034 
" clip-path="url(#p6db5fc7301)" style="fill: none; stroke-dasharray: 1.85,0.8; stroke-dashoffset: 0; stroke: #b0b0b0; stroke-opacity: 0.6; stroke-width: 0.5"/>
     </g>
     <g id="line2d_11">
      <g>
       <use xlink:href="#md862d76e04" x="128.846864" y="202.108034" style="stroke: #000000; stroke-width: 0.5"/>
      </g>
     </g>
     <g id="line2d_12">
      <g>
       <use xlink:href="#m9afd1b951f" x="128.846864" y="35.788034" style="stroke: #000000; stroke-width: 0.5"/>
      </g>
     </g>
     <g id="text_4">
      <!-- $\mathdefault{300}$ -->
      <g transform="translate(122.86928 211.01169) scale(0.08 -0.08)">
       <defs>
        <path id="NimbusRomNo9L-Regu-33" d="M 979 2138 
C 1357 2138 1504 2125 1658 2068 
C 2054 1927 2304 1562 2304 1120 
C 2304 583 1939 167 1466 167 
C 1293 167 1165 212 928 365 
C 736 480 627 525 518 525 
C 371 525 275 436 275 301 
C 275 77 550 -64 998 -64 
C 1491 -64 1997 103 2298 365 
C 2598 628 2765 999 2765 1428 
C 2765 1754 2662 2055 2477 2253 
C 2349 2394 2227 2471 1946 2592 
C 2387 2893 2547 3130 2547 3476 
C 2547 3994 2138 4352 1549 4352 
C 1229 4352 947 4244 717 4039 
C 525 3866 429 3699 288 3315 
L 384 3290 
C 646 3757 934 3968 1338 3968 
C 1754 3968 2042 3687 2042 3284 
C 2042 3053 1946 2823 1786 2663 
C 1594 2471 1414 2375 979 2221 
L 979 2138 
z
" transform="scale(0.015625)"/>
       </defs>
       <use xlink:href="#NimbusRomNo9L-Regu-33" transform="scale(0.996264)"/>
       <use xlink:href="#NimbusRomNo9L-Regu-30" transform="translate(49.8132 0) scale(0.996264)"/>
       <use xlink:href="#NimbusRomNo9L-Regu-30" transform="translate(99.626401 0) scale(0.996264)"/>
      </g>
     </g>
    </g>
    <g id="xtick_5">
     <g id="line2d_13">
      <path d="M 162.326864 202.108034 
L 162.326864 35.788034 
" clip-path="url(#p6db5fc7301)" style="fill: none; stroke-dasharray: 1.85,0.8; stroke-dashoffset: 0; stroke: #b0b0b0; stroke-opacity: 0.6; stroke-width: 0.5"/>
     </g>
     <g id="line2d_14">
      <g>
       <use xlink:href="#md862d76e04" x="162.326864" y="202.108034" style="stroke: #000000; stroke-width: 0.5"/>
      </g>
     </g>
     <g id="line2d_15">
      <g>
       <use xlink:href="#m9afd1b951f" x="162.326864" y="35.788034" style="stroke: #000000; stroke-width: 0.5"/>
      </g>
     </g>
     <g id="text_5">
      <!-- $\mathdefault{400}$ -->
      <g transform="translate(156.34928 211.01169) scale(0.08 -0.08)">
       <defs>
        <path id="NimbusRomNo9L-Regu-34" d="M 3021 1497 
L 2368 1497 
L 2368 4352 
L 2086 4352 
L 77 1497 
L 77 1088 
L 1875 1088 
L 1875 32 
L 2368 32 
L 2368 1088 
L 3021 1088 
L 3021 1497 
z
M 1869 1497 
L 333 1497 
L 1869 3698 
L 1869 1497 
z
" transform="scale(0.015625)"/>
       </defs>
       <use xlink:href="#NimbusRomNo9L-Regu-34" transform="scale(0.996264)"/>
       <use xlink:href="#NimbusRomNo9L-Regu-30" transform="translate(49.8132 0) scale(0.996264)"/>
       <use xlink:href="#NimbusRomNo9L-Regu-30" transform="translate(99.626401 0) scale(0.996264)"/>
      </g>
     </g>
    </g>
    <g id="xtick_6">
     <g id="line2d_16">
      <path d="M 195.806864 202.108034 
L 195.806864 35.788034 
" clip-path="url(#p6db5fc7301)" style="fill: none; stroke-dasharray: 1.85,0.8; stroke-dashoffset: 0; stroke: #b0b0b0; stroke-opacity: 0.6; stroke-width: 0.5"/>
     </g>
     <g id="line2d_17">
      <g>
       <use xlink:href="#md862d76e04" x="195.806864" y="202.108034" style="stroke: #000000; stroke-width: 0.5"/>
      </g>
     </g>
     <g id="line2d_18">
      <g>
       <use xlink:href="#m9afd1b951f" x="195.806864" y="35.788034" style="stroke: #000000; stroke-width: 0.5"/>
      </g>
     </g>
     <g id="text_6">
      <!-- $\mathdefault{500}$ -->
      <g transform="translate(189.82928 211.01169) scale(0.08 -0.08)">
       <defs>
        <path id="NimbusRomNo9L-Regu-35" d="M 1158 3776 
L 2413 3776 
C 2515 3776 2541 3789 2560 3834 
L 2803 4403 
L 2746 4448 
C 2650 4314 2586 4282 2451 4282 
L 1114 4282 
L 416 2759 
C 410 2746 410 2740 410 2727 
C 410 2695 435 2676 486 2676 
C 691 2676 947 2631 1210 2547 
C 1946 2309 2285 1910 2285 1274 
C 2285 656 1894 173 1395 173 
C 1267 173 1158 218 966 360 
C 762 508 614 572 480 572 
C 294 572 205 495 205 334 
C 205 90 506 -64 986 -64 
C 1523 -64 1984 110 2304 438 
C 2598 728 2733 1094 2733 1583 
C 2733 2046 2611 2342 2291 2663 
C 2010 2947 1645 3094 890 3229 
L 1158 3776 
z
" transform="scale(0.015625)"/>
       </defs>
       <use xlink:href="#NimbusRomNo9L-Regu-35" transform="scale(0.996264)"/>
       <use xlink:href="#NimbusRomNo9L-Regu-30" transform="translate(49.8132 0) scale(0.996264)"/>
       <use xlink:href="#NimbusRomNo9L-Regu-30" transform="translate(99.626401 0) scale(0.996264)"/>
      </g>
     </g>
    </g>
    <g id="xtick_7">
     <g id="line2d_19">
      <defs>
       <path id="mdca1105e5d" d="M 0 0 
L 0 -1.5 
" style="stroke: #000000; stroke-width: 0.5"/>
      </defs>
      <g>
       <use xlink:href="#mdca1105e5d" x="35.102864" y="202.108034" style="stroke: #000000; stroke-width: 0.5"/>
      </g>
     </g>
     <g id="line2d_20">
      <defs>
       <path id="md5677505dc" d="M 0 0 
L 0 1.5 
" style="stroke: #000000; stroke-width: 0.5"/>
      </defs>
      <g>
       <use xlink:href="#md5677505dc" x="35.102864" y="35.788034" style="stroke: #000000; stroke-width: 0.5"/>
      </g>
     </g>
    </g>
    <g id="xtick_8">
     <g id="line2d_21">
      <g>
       <use xlink:href="#mdca1105e5d" x="41.798864" y="202.108034" style="stroke: #000000; stroke-width: 0.5"/>
      </g>
     </g>
     <g id="line2d_22">
      <g>
       <use xlink:href="#md5677505dc" x="41.798864" y="35.788034" style="stroke: #000000; stroke-width: 0.5"/>
      </g>
     </g>
    </g>
    <g id="xtick_9">
     <g id="line2d_23">
      <g>
       <use xlink:href="#mdca1105e5d" x="48.494864" y="202.108034" style="stroke: #000000; stroke-width: 0.5"/>
      </g>
     </g>
     <g id="line2d_24">
      <g>
       <use xlink:href="#md5677505dc" x="48.494864" y="35.788034" style="stroke: #000000; stroke-width: 0.5"/>
      </g>
     </g>
    </g>
    <g id="xtick_10">
     <g id="line2d_25">
      <g>
       <use xlink:href="#mdca1105e5d" x="55.190864" y="202.108034" style="stroke: #000000; stroke-width: 0.5"/>
      </g>
     </g>
     <g id="line2d_26">
      <g>
       <use xlink:href="#md5677505dc" x="55.190864" y="35.788034" style="stroke: #000000; stroke-width: 0.5"/>
      </g>
     </g>
    </g>
    <g id="xtick_11">
     <g id="line2d_27">
      <g>
       <use xlink:href="#mdca1105e5d" x="68.582864" y="202.108034" style="stroke: #000000; stroke-width: 0.5"/>
      </g>
     </g>
     <g id="line2d_28">
      <g>
       <use xlink:href="#md5677505dc" x="68.582864" y="35.788034" style="stroke: #000000; stroke-width: 0.5"/>
      </g>
     </g>
    </g>
    <g id="xtick_12">
     <g id="line2d_29">
      <g>
       <use xlink:href="#mdca1105e5d" x="75.278864" y="202.108034" style="stroke: #000000; stroke-width: 0.5"/>
      </g>
     </g>
     <g id="line2d_30">
      <g>
       <use xlink:href="#md5677505dc" x="75.278864" y="35.788034" style="stroke: #000000; stroke-width: 0.5"/>
      </g>
     </g>
    </g>
    <g id="xtick_13">
     <g id="line2d_31">
      <g>
       <use xlink:href="#mdca1105e5d" x="81.974864" y="202.108034" style="stroke: #000000; stroke-width: 0.5"/>
      </g>
     </g>
     <g id="line2d_32">
      <g>
       <use xlink:href="#md5677505dc" x="81.974864" y="35.788034" style="stroke: #000000; stroke-width: 0.5"/>
      </g>
     </g>
    </g>
    <g id="xtick_14">
     <g id="line2d_33">
      <g>
       <use xlink:href="#mdca1105e5d" x="88.670864" y="202.108034" style="stroke: #000000; stroke-width: 0.5"/>
      </g>
     </g>
     <g id="line2d_34">
      <g>
       <use xlink:href="#md5677505dc" x="88.670864" y="35.788034" style="stroke: #000000; stroke-width: 0.5"/>
      </g>
     </g>
    </g>
    <g id="xtick_15">
     <g id="line2d_35">
      <g>
       <use xlink:href="#mdca1105e5d" x="102.062864" y="202.108034" style="stroke: #000000; stroke-width: 0.5"/>
      </g>
     </g>
     <g id="line2d_36">
      <g>
       <use xlink:href="#md5677505dc" x="102.062864" y="35.788034" style="stroke: #000000; stroke-width: 0.5"/>
      </g>
     </g>
    </g>
    <g id="xtick_16">
     <g id="line2d_37">
      <g>
       <use xlink:href="#mdca1105e5d" x="108.758864" y="202.108034" style="stroke: #000000; stroke-width: 0.5"/>
      </g>
     </g>
     <g id="line2d_38">
      <g>
       <use xlink:href="#md5677505dc" x="108.758864" y="35.788034" style="stroke: #000000; stroke-width: 0.5"/>
      </g>
     </g>
    </g>
    <g id="xtick_17">
     <g id="line2d_39">
      <g>
       <use xlink:href="#mdca1105e5d" x="115.454864" y="202.108034" style="stroke: #000000; stroke-width: 0.5"/>
      </g>
     </g>
     <g id="line2d_40">
      <g>
       <use xlink:href="#md5677505dc" x="115.454864" y="35.788034" style="stroke: #000000; stroke-width: 0.5"/>
      </g>
     </g>
    </g>
    <g id="xtick_18">
     <g id="line2d_41">
      <g>
       <use xlink:href="#mdca1105e5d" x="122.150864" y="202.108034" style="stroke: #000000; stroke-width: 0.5"/>
      </g>
     </g>
     <g id="line2d_42">
      <g>
       <use xlink:href="#md5677505dc" x="122.150864" y="35.788034" style="stroke: #000000; stroke-width: 0.5"/>
      </g>
     </g>
    </g>
    <g id="xtick_19">
     <g id="line2d_43">
      <g>
       <use xlink:href="#mdca1105e5d" x="135.542864" y="202.108034" style="stroke: #000000; stroke-width: 0.5"/>
      </g>
     </g>
     <g id="line2d_44">
      <g>
       <use xlink:href="#md5677505dc" x="135.542864" y="35.788034" style="stroke: #000000; stroke-width: 0.5"/>
      </g>
     </g>
    </g>
    <g id="xtick_20">
     <g id="line2d_45">
      <g>
       <use xlink:href="#mdca1105e5d" x="142.238864" y="202.108034" style="stroke: #000000; stroke-width: 0.5"/>
      </g>
     </g>
     <g id="line2d_46">
      <g>
       <use xlink:href="#md5677505dc" x="142.238864" y="35.788034" style="stroke: #000000; stroke-width: 0.5"/>
      </g>
     </g>
    </g>
    <g id="xtick_21">
     <g id="line2d_47">
      <g>
       <use xlink:href="#mdca1105e5d" x="148.934864" y="202.108034" style="stroke: #000000; stroke-width: 0.5"/>
      </g>
     </g>
     <g id="line2d_48">
      <g>
       <use xlink:href="#md5677505dc" x="148.934864" y="35.788034" style="stroke: #000000; stroke-width: 0.5"/>
      </g>
     </g>
    </g>
    <g id="xtick_22">
     <g id="line2d_49">
      <g>
       <use xlink:href="#mdca1105e5d" x="155.630864" y="202.108034" style="stroke: #000000; stroke-width: 0.5"/>
      </g>
     </g>
     <g id="line2d_50">
      <g>
       <use xlink:href="#md5677505dc" x="155.630864" y="35.788034" style="stroke: #000000; stroke-width: 0.5"/>
      </g>
     </g>
    </g>
    <g id="xtick_23">
     <g id="line2d_51">
      <g>
       <use xlink:href="#mdca1105e5d" x="169.022864" y="202.108034" style="stroke: #000000; stroke-width: 0.5"/>
      </g>
     </g>
     <g id="line2d_52">
      <g>
       <use xlink:href="#md5677505dc" x="169.022864" y="35.788034" style="stroke: #000000; stroke-width: 0.5"/>
      </g>
     </g>
    </g>
    <g id="xtick_24">
     <g id="line2d_53">
      <g>
       <use xlink:href="#mdca1105e5d" x="175.718864" y="202.108034" style="stroke: #000000; stroke-width: 0.5"/>
      </g>
     </g>
     <g id="line2d_54">
      <g>
       <use xlink:href="#md5677505dc" x="175.718864" y="35.788034" style="stroke: #000000; stroke-width: 0.5"/>
      </g>
     </g>
    </g>
    <g id="xtick_25">
     <g id="line2d_55">
      <g>
       <use xlink:href="#mdca1105e5d" x="182.414864" y="202.108034" style="stroke: #000000; stroke-width: 0.5"/>
      </g>
     </g>
     <g id="line2d_56">
      <g>
       <use xlink:href="#md5677505dc" x="182.414864" y="35.788034" style="stroke: #000000; stroke-width: 0.5"/>
      </g>
     </g>
    </g>
    <g id="xtick_26">
     <g id="line2d_57">
      <g>
       <use xlink:href="#mdca1105e5d" x="189.110864" y="202.108034" style="stroke: #000000; stroke-width: 0.5"/>
      </g>
     </g>
     <g id="line2d_58">
      <g>
       <use xlink:href="#md5677505dc" x="189.110864" y="35.788034" style="stroke: #000000; stroke-width: 0.5"/>
      </g>
     </g>
    </g>
    <g id="text_7">
     <!-- Iteraciones -->
     <g transform="translate(94.624655 222.14081) scale(0.08 -0.08)">
      <defs>
       <path id="NimbusRomNo9L-Regu-49" d="M 736 689 
C 736 206 653 128 115 128 
L 115 0 
L 2016 0 
L 2016 128 
C 1491 128 1389 217 1389 688 
L 1389 3542 
C 1389 4012 1478 4096 2016 4096 
L 2016 4231 
L 115 4231 
L 115 4096 
C 659 4096 736 4026 736 3548 
L 736 689 
z
" transform="scale(0.015625)"/>
       <path id="NimbusRomNo9L-Regu-74" d="M 1632 2880 
L 986 2880 
L 986 3622 
C 986 3686 979 3706 941 3706 
C 896 3648 858 3590 813 3526 
C 570 3174 294 2867 192 2841 
C 122 2794 83 2748 83 2715 
C 83 2695 90 2682 109 2682 
L 448 2682 
L 448 751 
C 448 212 640 -64 1018 -64 
C 1331 -64 1574 90 1786 423 
L 1702 493 
C 1568 333 1459 269 1318 269 
C 1082 269 986 443 986 847 
L 986 2682 
L 1632 2682 
L 1632 2880 
z
" transform="scale(0.015625)"/>
       <path id="NimbusRomNo9L-Regu-65" d="M 2611 1053 
C 2304 564 2029 378 1619 378 
C 1254 378 979 564 794 930 
C 678 1174 634 1386 621 1779 
L 2592 1779 
C 2541 2193 2477 2377 2317 2581 
C 2125 2811 1830 2944 1498 2944 
C 1178 2944 877 2829 634 2611 
C 333 2349 160 1894 160 1370 
C 160 486 621 -64 1357 -64 
C 1965 -64 2445 315 2714 1008 
L 2611 1053 
z
M 634 1984 
C 704 2479 922 2714 1312 2714 
C 1702 2714 1856 2535 1939 1984 
L 634 1984 
z
" transform="scale(0.015625)"/>
       <path id="NimbusRomNo9L-Regu-72" d="M 45 2496 
C 134 2515 192 2522 269 2522 
C 429 2522 486 2419 486 2138 
L 486 538 
C 486 218 442 173 32 96 
L 32 0 
L 1568 0 
L 1568 102 
C 1133 102 1024 199 1024 565 
L 1024 2013 
C 1024 2219 1299 2541 1472 2541 
C 1510 2541 1568 2509 1638 2445 
C 1741 2355 1811 2317 1894 2317 
C 2048 2317 2144 2426 2144 2605 
C 2144 2816 2010 2944 1792 2944 
C 1523 2944 1338 2797 1024 2343 
L 1024 2931 
L 992 2944 
C 653 2803 422 2721 45 2599 
L 45 2496 
z
" transform="scale(0.015625)"/>
       <path id="NimbusRomNo9L-Regu-61" d="M 2829 423 
C 2720 333 2643 301 2547 301 
C 2400 301 2355 390 2355 672 
L 2355 1920 
C 2355 2253 2323 2438 2227 2592 
C 2086 2822 1811 2944 1434 2944 
C 832 2944 358 2630 358 2227 
C 358 2080 486 1952 634 1952 
C 787 1952 922 2080 922 2221 
C 922 2246 915 2278 909 2323 
C 896 2381 890 2432 890 2477 
C 890 2650 1094 2790 1350 2790 
C 1664 2790 1837 2605 1837 2259 
L 1837 1869 
C 851 1472 742 1421 467 1178 
C 326 1050 237 832 237 621 
C 237 218 518 -64 909 -64 
C 1190 -64 1453 70 1843 403 
C 1875 70 1990 -64 2253 -64 
C 2470 -64 2605 13 2829 256 
L 2829 423 
z
M 1837 783 
C 1837 584 1805 526 1670 449 
C 1517 359 1338 301 1203 301 
C 979 301 800 520 800 796 
L 800 822 
C 800 1201 1062 1433 1837 1715 
L 1837 783 
z
" transform="scale(0.015625)"/>
       <path id="NimbusRomNo9L-Regu-63" d="M 2547 998 
C 2240 550 2010 397 1645 397 
C 1062 397 653 909 653 1645 
C 653 2304 1005 2758 1523 2758 
C 1754 2758 1837 2688 1901 2451 
L 1939 2310 
C 1990 2131 2106 2016 2240 2016 
C 2406 2016 2547 2138 2547 2285 
C 2547 2643 2099 2944 1562 2944 
C 1248 2944 922 2816 659 2586 
C 339 2304 160 1869 160 1363 
C 160 531 666 -64 1376 -64 
C 1664 -64 1920 38 2150 237 
C 2323 390 2445 563 2637 941 
L 2547 998 
z
" transform="scale(0.015625)"/>
       <path id="NimbusRomNo9L-Regu-69" d="M 1120 2929 
L 128 2579 
L 128 2484 
L 179 2490 
C 256 2502 339 2509 397 2509 
C 550 2509 608 2406 608 2125 
L 608 640 
C 608 179 544 109 102 109 
L 102 0 
L 1619 0 
L 1619 96 
C 1197 128 1146 191 1146 650 
L 1146 2910 
L 1120 2929 
z
M 819 4352 
C 646 4352 499 4205 499 4026 
C 499 3847 640 3699 819 3699 
C 1005 3699 1152 3840 1152 4026 
C 1152 4205 1005 4352 819 4352 
z
" transform="scale(0.015625)"/>
       <path id="NimbusRomNo9L-Regu-6f" d="M 1600 2944 
C 768 2944 186 2330 186 1446 
C 186 582 781 -64 1587 -64 
C 2394 -64 3008 614 3008 1498 
C 3008 2336 2419 2944 1600 2944 
z
M 1517 2765 
C 2054 2765 2432 2150 2432 1274 
C 2432 550 2144 115 1664 115 
C 1414 115 1178 269 1043 525 
C 864 858 762 1306 762 1760 
C 762 2368 1062 2765 1517 2765 
z
" transform="scale(0.015625)"/>
       <path id="NimbusRomNo9L-Regu-6e" d="M 102 2579 
C 141 2598 205 2605 275 2605 
C 454 2605 512 2509 512 2195 
L 512 608 
C 512 243 442 154 115 128 
L 115 32 
L 1472 32 
L 1472 128 
C 1146 154 1050 230 1050 461 
L 1050 2259 
C 1357 2547 1498 2624 1709 2624 
C 2022 2624 2176 2426 2176 2003 
L 2176 666 
C 2176 262 2093 154 1773 128 
L 1773 32 
L 3104 32 
L 3104 128 
C 2790 160 2714 237 2714 550 
L 2714 2016 
C 2714 2618 2432 2976 1958 2976 
C 1664 2976 1466 2867 1030 2458 
L 1030 2963 
L 986 2976 
C 672 2861 454 2790 102 2688 
L 102 2579 
z
" transform="scale(0.015625)"/>
       <path id="NimbusRomNo9L-Regu-73" d="M 2016 2010 
L 1990 2880 
L 1920 2880 
L 1907 2867 
C 1850 2822 1843 2816 1818 2816 
C 1779 2816 1715 2829 1645 2861 
C 1504 2915 1363 2944 1197 2944 
C 691 2944 326 2616 326 2154 
C 326 1796 531 1539 1075 1231 
L 1446 1020 
C 1670 892 1779 737 1779 539 
C 1779 256 1574 77 1248 77 
C 1030 77 832 159 710 298 
C 576 455 518 600 435 960 
L 333 960 
L 333 -39 
L 416 -39 
C 461 33 486 48 563 48 
C 621 48 710 35 858 -2 
C 1037 -39 1210 -64 1325 -64 
C 1818 -64 2227 308 2227 757 
C 2227 1077 2074 1289 1690 1520 
L 998 1930 
C 819 2033 723 2194 723 2367 
C 723 2624 922 2803 1216 2803 
C 1581 2803 1773 2583 1920 2010 
L 2016 2010 
z
" transform="scale(0.015625)"/>
      </defs>
      <use xlink:href="#NimbusRomNo9L-Regu-49" transform="scale(0.996264)"/>
      <use xlink:href="#NimbusRomNo9L-Regu-74" transform="translate(33.17523 0) scale(0.996264)"/>
      <use xlink:href="#NimbusRomNo9L-Regu-65" transform="translate(60.870399 0) scale(0.996264)"/>
      <use xlink:href="#NimbusRomNo9L-Regu-72" transform="translate(105.103968 0) scale(0.996264)"/>
      <use xlink:href="#NimbusRomNo9L-Regu-61" transform="translate(138.279198 0) scale(0.996264)"/>
      <use xlink:href="#NimbusRomNo9L-Regu-63" transform="translate(182.512766 0) scale(0.996264)"/>
      <use xlink:href="#NimbusRomNo9L-Regu-69" transform="translate(226.746335 0) scale(0.996264)"/>
      <use xlink:href="#NimbusRomNo9L-Regu-6f" transform="translate(254.441505 0) scale(0.996264)"/>
      <use xlink:href="#NimbusRomNo9L-Regu-6e" transform="translate(304.254705 0) scale(0.996264)"/>
      <use xlink:href="#NimbusRomNo9L-Regu-65" transform="translate(354.067906 0) scale(0.996264)"/>
      <use xlink:href="#NimbusRomNo9L-Regu-73" transform="translate(398.301474 0) scale(0.996264)"/>
     </g>
    </g>
   </g>
   <g id="matplotlib.axis_2">
    <g id="ytick_1">
     <g id="line2d_59">
      <path d="M 28.406864 202.108034 
L 195.806864 202.108034 
" clip-path="url(#p6db5fc7301)" style="fill: none; stroke-dasharray: 1.85,0.8; stroke-dashoffset: 0; stroke: #b0b0b0; stroke-opacity: 0.6; stroke-width: 0.5"/>
     </g>
     <g id="line2d_60">
      <defs>
       <path id="mdf3d454a74" d="M 0 0 
L 3 0 
" style="stroke: #000000; stroke-width: 0.5"/>
      </defs>
      <g>
       <use xlink:href="#mdf3d454a74" x="28.406864" y="202.108034" style="stroke: #000000; stroke-width: 0.5"/>
      </g>
     </g>
     <g id="line2d_61">
      <defs>
       <path id="md434fa0f68" d="M 0 0 
L -3 0 
" style="stroke: #000000; stroke-width: 0.5"/>
      </defs>
      <g>
       <use xlink:href="#md434fa0f68" x="195.806864" y="202.108034" style="stroke: #000000; stroke-width: 0.5"/>
      </g>
     </g>
     <g id="text_8">
      <!-- $\mathdefault{0.0}$ -->
      <g transform="translate(14.729119 204.809862) scale(0.08 -0.08)">
       <defs>
        <path id="CMMI10-3a" d="M 1229 338 
C 1229 522 1075 675 890 675 
C 704 675 550 522 550 338 
C 550 153 704 0 890 0 
C 1075 0 1229 153 1229 338 
z
" transform="scale(0.015625)"/>
       </defs>
       <use xlink:href="#NimbusRomNo9L-Regu-30" transform="scale(0.996264)"/>
       <use xlink:href="#CMMI10-3a" transform="translate(49.8132 0) scale(0.996264)"/>
       <use xlink:href="#NimbusRomNo9L-Regu-30" transform="translate(77.408707 0) scale(0.996264)"/>
      </g>
     </g>
    </g>
    <g id="ytick_2">
     <g id="line2d_62">
      <path d="M 28.406864 168.844034 
L 195.806864 168.844034 
" clip-path="url(#p6db5fc7301)" style="fill: none; stroke-dasharray: 1.85,0.8; stroke-dashoffset: 0; stroke: #b0b0b0; stroke-opacity: 0.6; stroke-width: 0.5"/>
     </g>
     <g id="line2d_63">
      <g>
       <use xlink:href="#mdf3d454a74" x="28.406864" y="168.844034" style="stroke: #000000; stroke-width: 0.5"/>
      </g>
     </g>
     <g id="line2d_64">
      <g>
       <use xlink:href="#md434fa0f68" x="195.806864" y="168.844034" style="stroke: #000000; stroke-width: 0.5"/>
      </g>
     </g>
     <g id="text_9">
      <!-- $\mathdefault{0.2}$ -->
      <g transform="translate(14.729119 171.545862) scale(0.08 -0.08)">
       <use xlink:href="#NimbusRomNo9L-Regu-30" transform="scale(0.996264)"/>
       <use xlink:href="#CMMI10-3a" transform="translate(49.8132 0) scale(0.996264)"/>
       <use xlink:href="#NimbusRomNo9L-Regu-32" transform="translate(77.408707 0) scale(0.996264)"/>
      </g>
     </g>
    </g>
    <g id="ytick_3">
     <g id="line2d_65">
      <path d="M 28.406864 135.580034 
L 195.806864 135.580034 
" clip-path="url(#p6db5fc7301)" style="fill: none; stroke-dasharray: 1.85,0.8; stroke-dashoffset: 0; stroke: #b0b0b0; stroke-opacity: 0.6; stroke-width: 0.5"/>
     </g>
     <g id="line2d_66">
      <g>
       <use xlink:href="#mdf3d454a74" x="28.406864" y="135.580034" style="stroke: #000000; stroke-width: 0.5"/>
      </g>
     </g>
     <g id="line2d_67">
      <g>
       <use xlink:href="#md434fa0f68" x="195.806864" y="135.580034" style="stroke: #000000; stroke-width: 0.5"/>
      </g>
     </g>
     <g id="text_10">
      <!-- $\mathdefault{0.4}$ -->
      <g transform="translate(14.729119 138.281862) scale(0.08 -0.08)">
       <use xlink:href="#NimbusRomNo9L-Regu-30" transform="scale(0.996264)"/>
       <use xlink:href="#CMMI10-3a" transform="translate(49.8132 0) scale(0.996264)"/>
       <use xlink:href="#NimbusRomNo9L-Regu-34" transform="translate(77.408707 0) scale(0.996264)"/>
      </g>
     </g>
    </g>
    <g id="ytick_4">
     <g id="line2d_68">
      <path d="M 28.406864 102.316034 
L 195.806864 102.316034 
" clip-path="url(#p6db5fc7301)" style="fill: none; stroke-dasharray: 1.85,0.8; stroke-dashoffset: 0; stroke: #b0b0b0; stroke-opacity: 0.6; stroke-width: 0.5"/>
     </g>
     <g id="line2d_69">
      <g>
       <use xlink:href="#mdf3d454a74" x="28.406864" y="102.316034" style="stroke: #000000; stroke-width: 0.5"/>
      </g>
     </g>
     <g id="line2d_70">
      <g>
       <use xlink:href="#md434fa0f68" x="195.806864" y="102.316034" style="stroke: #000000; stroke-width: 0.5"/>
      </g>
     </g>
     <g id="text_11">
      <!-- $\mathdefault{0.6}$ -->
      <g transform="translate(14.729119 105.017862) scale(0.08 -0.08)">
       <defs>
        <path id="NimbusRomNo9L-Regu-36" d="M 2854 4391 
C 2125 4327 1754 4205 1286 3879 
C 595 3386 218 2656 218 1802 
C 218 1248 390 688 666 370 
C 909 89 1254 -64 1651 -64 
C 2445 -64 2995 541 2995 1421 
C 2995 2236 2528 2752 1792 2752 
C 1510 2752 1376 2707 973 2464 
C 1146 3431 1862 4122 2867 4288 
L 2854 4391 
z
M 1549 2458 
C 2099 2458 2419 2000 2419 1204 
C 2419 504 2170 116 1722 116 
C 1158 116 813 714 813 1700 
C 813 2025 864 2203 992 2299 
C 1126 2400 1325 2458 1549 2458 
z
" transform="scale(0.015625)"/>
       </defs>
       <use xlink:href="#NimbusRomNo9L-Regu-30" transform="scale(0.996264)"/>
       <use xlink:href="#CMMI10-3a" transform="translate(49.8132 0) scale(0.996264)"/>
       <use xlink:href="#NimbusRomNo9L-Regu-36" transform="translate(77.408707 0) scale(0.996264)"/>
      </g>
     </g>
    </g>
    <g id="ytick_5">
     <g id="line2d_71">
      <path d="M 28.406864 69.052034 
L 195.806864 69.052034 
" clip-path="url(#p6db5fc7301)" style="fill: none; stroke-dasharray: 1.85,0.8; stroke-dashoffset: 0; stroke: #b0b0b0; stroke-opacity: 0.6; stroke-width: 0.5"/>
     </g>
     <g id="line2d_72">
      <g>
       <use xlink:href="#mdf3d454a74" x="28.406864" y="69.052034" style="stroke: #000000; stroke-width: 0.5"/>
      </g>
     </g>
     <g id="line2d_73">
      <g>
       <use xlink:href="#md434fa0f68" x="195.806864" y="69.052034" style="stroke: #000000; stroke-width: 0.5"/>
      </g>
     </g>
     <g id="text_12">
      <!-- $\mathdefault{0.8}$ -->
      <g transform="translate(14.729119 71.753862) scale(0.08 -0.08)">
       <defs>
        <path id="NimbusRomNo9L-Regu-38" d="M 1856 2400 
C 2490 2740 2714 3008 2714 3444 
C 2714 3968 2253 4352 1613 4352 
C 915 4352 397 3924 397 3341 
C 397 2925 518 2740 1190 2151 
C 499 1626 358 1428 358 992 
C 358 372 864 -64 1587 -64 
C 2355 -64 2848 359 2848 1018 
C 2848 1511 2630 1824 1856 2400 
z
M 1741 1741 
C 2208 1408 2362 1178 2362 820 
C 2362 404 2074 116 1658 116 
C 1171 116 845 487 845 1044 
C 845 1453 986 1722 1357 2023 
L 1741 1741 
z
M 1670 2516 
C 1101 2887 870 3181 870 3540 
C 870 3911 1158 4173 1562 4173 
C 1997 4173 2272 3892 2272 3450 
C 2272 3085 2093 2797 1728 2554 
C 1696 2535 1696 2535 1670 2516 
z
" transform="scale(0.015625)"/>
       </defs>
       <use xlink:href="#NimbusRomNo9L-Regu-30" transform="scale(0.996264)"/>
       <use xlink:href="#CMMI10-3a" transform="translate(49.8132 0) scale(0.996264)"/>
       <use xlink:href="#NimbusRomNo9L-Regu-38" transform="translate(77.408707 0) scale(0.996264)"/>
      </g>
     </g>
    </g>
    <g id="ytick_6">
     <g id="line2d_74">
      <path d="M 28.406864 35.788034 
L 195.806864 35.788034 
" clip-path="url(#p6db5fc7301)" style="fill: none; stroke-dasharray: 1.85,0.8; stroke-dashoffset: 0; stroke: #b0b0b0; stroke-opacity: 0.6; stroke-width: 0.5"/>
     </g>
     <g id="line2d_75">
      <g>
       <use xlink:href="#mdf3d454a74" x="28.406864" y="35.788034" style="stroke: #000000; stroke-width: 0.5"/>
      </g>
     </g>
     <g id="line2d_76">
      <g>
       <use xlink:href="#md434fa0f68" x="195.806864" y="35.788034" style="stroke: #000000; stroke-width: 0.5"/>
      </g>
     </g>
     <g id="text_13">
      <!-- $\mathdefault{1.0}$ -->
      <g transform="translate(14.729119 38.489862) scale(0.08 -0.08)">
       <use xlink:href="#NimbusRomNo9L-Regu-31" transform="scale(0.996264)"/>
       <use xlink:href="#CMMI10-3a" transform="translate(49.8132 0) scale(0.996264)"/>
       <use xlink:href="#NimbusRomNo9L-Regu-30" transform="translate(77.408707 0) scale(0.996264)"/>
      </g>
     </g>
    </g>
    <g id="ytick_7">
     <g id="line2d_77">
      <defs>
       <path id="m5519fd234e" d="M 0 0 
L 1.5 0 
" style="stroke: #000000; stroke-width: 0.5"/>
      </defs>
      <g>
       <use xlink:href="#m5519fd234e" x="28.406864" y="193.792034" style="stroke: #000000; stroke-width: 0.5"/>
      </g>
     </g>
     <g id="line2d_78">
      <defs>
       <path id="mf26569756d" d="M 0 0 
L -1.5 0 
" style="stroke: #000000; stroke-width: 0.5"/>
      </defs>
      <g>
       <use xlink:href="#mf26569756d" x="195.806864" y="193.792034" style="stroke: #000000; stroke-width: 0.5"/>
      </g>
     </g>
    </g>
    <g id="ytick_8">
     <g id="line2d_79">
      <g>
       <use xlink:href="#m5519fd234e" x="28.406864" y="185.476034" style="stroke: #000000; stroke-width: 0.5"/>
      </g>
     </g>
     <g id="line2d_80">
      <g>
       <use xlink:href="#mf26569756d" x="195.806864" y="185.476034" style="stroke: #000000; stroke-width: 0.5"/>
      </g>
     </g>
    </g>
    <g id="ytick_9">
     <g id="line2d_81">
      <g>
       <use xlink:href="#m5519fd234e" x="28.406864" y="177.160034" style="stroke: #000000; stroke-width: 0.5"/>
      </g>
     </g>
     <g id="line2d_82">
      <g>
       <use xlink:href="#mf26569756d" x="195.806864" y="177.160034" style="stroke: #000000; stroke-width: 0.5"/>
      </g>
     </g>
    </g>
    <g id="ytick_10">
     <g id="line2d_83">
      <g>
       <use xlink:href="#m5519fd234e" x="28.406864" y="160.528034" style="stroke: #000000; stroke-width: 0.5"/>
      </g>
     </g>
     <g id="line2d_84">
      <g>
       <use xlink:href="#mf26569756d" x="195.806864" y="160.528034" style="stroke: #000000; stroke-width: 0.5"/>
      </g>
     </g>
    </g>
    <g id="ytick_11">
     <g id="line2d_85">
      <g>
       <use xlink:href="#m5519fd234e" x="28.406864" y="152.212034" style="stroke: #000000; stroke-width: 0.5"/>
      </g>
     </g>
     <g id="line2d_86">
      <g>
       <use xlink:href="#mf26569756d" x="195.806864" y="152.212034" style="stroke: #000000; stroke-width: 0.5"/>
      </g>
     </g>
    </g>
    <g id="ytick_12">
     <g id="line2d_87">
      <g>
       <use xlink:href="#m5519fd234e" x="28.406864" y="143.896034" style="stroke: #000000; stroke-width: 0.5"/>
      </g>
     </g>
     <g id="line2d_88">
      <g>
       <use xlink:href="#mf26569756d" x="195.806864" y="143.896034" style="stroke: #000000; stroke-width: 0.5"/>
      </g>
     </g>
    </g>
    <g id="ytick_13">
     <g id="line2d_89">
      <g>
       <use xlink:href="#m5519fd234e" x="28.406864" y="127.264034" style="stroke: #000000; stroke-width: 0.5"/>
      </g>
     </g>
     <g id="line2d_90">
      <g>
       <use xlink:href="#mf26569756d" x="195.806864" y="127.264034" style="stroke: #000000; stroke-width: 0.5"/>
      </g>
     </g>
    </g>
    <g id="ytick_14">
     <g id="line2d_91">
      <g>
       <use xlink:href="#m5519fd234e" x="28.406864" y="118.948034" style="stroke: #000000; stroke-width: 0.5"/>
      </g>
     </g>
     <g id="line2d_92">
      <g>
       <use xlink:href="#mf26569756d" x="195.806864" y="118.948034" style="stroke: #000000; stroke-width: 0.5"/>
      </g>
     </g>
    </g>
    <g id="ytick_15">
     <g id="line2d_93">
      <g>
       <use xlink:href="#m5519fd234e" x="28.406864" y="110.632034" style="stroke: #000000; stroke-width: 0.5"/>
      </g>
     </g>
     <g id="line2d_94">
      <g>
       <use xlink:href="#mf26569756d" x="195.806864" y="110.632034" style="stroke: #000000; stroke-width: 0.5"/>
      </g>
     </g>
    </g>
    <g id="ytick_16">
     <g id="line2d_95">
      <g>
       <use xlink:href="#m5519fd234e" x="28.406864" y="94.000034" style="stroke: #000000; stroke-width: 0.5"/>
      </g>
     </g>
     <g id="line2d_96">
      <g>
       <use xlink:href="#mf26569756d" x="195.806864" y="94.000034" style="stroke: #000000; stroke-width: 0.5"/>
      </g>
     </g>
    </g>
    <g id="ytick_17">
     <g id="line2d_97">
      <g>
       <use xlink:href="#m5519fd234e" x="28.406864" y="85.684034" style="stroke: #000000; stroke-width: 0.5"/>
      </g>
     </g>
     <g id="line2d_98">
      <g>
       <use xlink:href="#mf26569756d" x="195.806864" y="85.684034" style="stroke: #000000; stroke-width: 0.5"/>
      </g>
     </g>
    </g>
    <g id="ytick_18">
     <g id="line2d_99">
      <g>
       <use xlink:href="#m5519fd234e" x="28.406864" y="77.368034" style="stroke: #000000; stroke-width: 0.5"/>
      </g>
     </g>
     <g id="line2d_100">
      <g>
       <use xlink:href="#mf26569756d" x="195.806864" y="77.368034" style="stroke: #000000; stroke-width: 0.5"/>
      </g>
     </g>
    </g>
    <g id="ytick_19">
     <g id="line2d_101">
      <g>
       <use xlink:href="#m5519fd234e" x="28.406864" y="60.736034" style="stroke: #000000; stroke-width: 0.5"/>
      </g>
     </g>
     <g id="line2d_102">
      <g>
       <use xlink:href="#mf26569756d" x="195.806864" y="60.736034" style="stroke: #000000; stroke-width: 0.5"/>
      </g>
     </g>
    </g>
    <g id="ytick_20">
     <g id="line2d_103">
      <g>
       <use xlink:href="#m5519fd234e" x="28.406864" y="52.420034" style="stroke: #000000; stroke-width: 0.5"/>
      </g>
     </g>
     <g id="line2d_104">
      <g>
       <use xlink:href="#mf26569756d" x="195.806864" y="52.420034" style="stroke: #000000; stroke-width: 0.5"/>
      </g>
     </g>
    </g>
    <g id="ytick_21">
     <g id="line2d_105">
      <g>
       <use xlink:href="#m5519fd234e" x="28.406864" y="44.104034" style="stroke: #000000; stroke-width: 0.5"/>
      </g>
     </g>
     <g id="line2d_106">
      <g>
       <use xlink:href="#mf26569756d" x="195.806864" y="44.104034" style="stroke: #000000; stroke-width: 0.5"/>
      </g>
     </g>
    </g>
    <g id="text_14">
     <!-- Porcentaje -->
     <g transform="translate(9.003656 135.768753) rotate(-90) scale(0.08 -0.08)">
      <defs>
       <path id="NimbusRomNo9L-Regu-50" d="M 1293 1875 
C 1459 1856 1568 1856 1734 1856 
C 2234 1856 2579 1919 2854 2072 
C 3238 2274 3469 2660 3469 3078 
C 3469 3344 3379 3584 3206 3768 
C 2950 4047 2394 4224 1792 4224 
L 102 4224 
L 102 4102 
C 576 4051 640 3987 640 3528 
L 640 766 
C 640 230 589 166 102 122 
L 102 0 
L 1894 0 
L 1894 128 
C 1389 128 1293 218 1293 693 
L 1293 1875 
z
M 1293 3772 
C 1293 3943 1338 3987 1510 3987 
C 2374 3987 2771 3690 2771 3040 
C 2771 2428 2394 2112 1658 2112 
C 1530 2112 1440 2119 1293 2131 
L 1293 3772 
z
" transform="scale(0.015625)"/>
       <path id="NimbusRomNo9L-Regu-6a" d="M 1235 2907 
L 1203 2926 
C 826 2779 582 2697 205 2581 
L 205 2479 
L 237 2485 
C 333 2498 429 2498 493 2498 
C 640 2498 698 2389 698 2115 
L 698 -304 
C 698 -788 678 -948 608 -1075 
C 570 -1139 480 -1191 390 -1191 
C 294 -1191 230 -1146 122 -1011 
C 6 -864 -83 -807 -186 -807 
C -333 -807 -448 -915 -448 -1056 
C -448 -1261 -192 -1408 154 -1408 
C 858 -1408 1235 -923 1235 -15 
L 1235 2907 
z
M 909 4352 
C 736 4352 589 4205 589 4026 
C 589 3847 730 3699 909 3699 
C 1094 3699 1242 3840 1242 4026 
C 1242 4205 1094 4352 909 4352 
z
" transform="scale(0.015625)"/>
      </defs>
      <use xlink:href="#NimbusRomNo9L-Regu-50" transform="scale(0.996264)"/>
      <use xlink:href="#NimbusRomNo9L-Regu-6f" transform="translate(55.391677 0) scale(0.996264)"/>
      <use xlink:href="#NimbusRomNo9L-Regu-72" transform="translate(105.204877 0) scale(0.996264)"/>
      <use xlink:href="#NimbusRomNo9L-Regu-63" transform="translate(138.380107 0) scale(0.996264)"/>
      <use xlink:href="#NimbusRomNo9L-Regu-65" transform="translate(182.613676 0) scale(0.996264)"/>
      <use xlink:href="#NimbusRomNo9L-Regu-6e" transform="translate(226.847245 0) scale(0.996264)"/>
      <use xlink:href="#NimbusRomNo9L-Regu-74" transform="translate(276.660445 0) scale(0.996264)"/>
      <use xlink:href="#NimbusRomNo9L-Regu-61" transform="translate(304.355615 0) scale(0.996264)"/>
      <use xlink:href="#NimbusRomNo9L-Regu-6a" transform="translate(348.589183 0) scale(0.996264)"/>
      <use xlink:href="#NimbusRomNo9L-Regu-65" transform="translate(376.284353 0) scale(0.996264)"/>
     </g>
    </g>
   </g>
   <g id="line2d_107">
    <path d="M 28.406864 197.950034 
L 28.741664 196.619474 
L 29.411264 195.621554 
L 30.080864 195.288914 
L 30.415664 195.288914 
L 30.750464 195.455234 
L 31.085264 195.787874 
L 31.420064 195.787874 
L 31.754864 195.122594 
L 32.089664 195.787874 
L 32.424464 195.621554 
L 32.759264 196.120514 
L 33.094064 196.286834 
L 33.763664 195.621554 
L 34.098464 195.621554 
L 34.433264 196.120514 
L 34.768064 195.787874 
L 35.437664 195.455234 
L 36.107264 195.787874 
L 36.442064 195.621554 
L 36.776864 195.288914 
L 37.111664 195.621554 
L 37.446464 195.455234 
L 37.781264 195.621554 
L 38.116064 195.455234 
L 38.450864 195.954194 
L 38.785664 195.787874 
L 39.120464 195.787874 
L 39.455264 195.621554 
L 39.790064 194.956274 
L 40.124864 194.623634 
L 40.459664 194.623634 
L 40.794464 195.621554 
L 41.129264 195.954194 
L 41.464064 196.453154 
L 42.468464 195.954194 
L 42.803264 196.286834 
L 43.138064 196.120514 
L 43.472864 195.621554 
L 43.807664 195.787874 
L 44.142464 195.621554 
L 44.477264 195.787874 
L 44.812064 195.288914 
L 45.146864 195.288914 
L 45.481664 194.789954 
L 46.486064 194.789954 
L 46.820864 195.122594 
L 47.155664 194.789954 
L 47.490464 194.789954 
L 47.825264 194.623634 
L 48.160064 194.956274 
L 48.494864 194.290994 
L 49.164464 195.455234 
L 49.499264 195.787874 
L 49.834064 195.954194 
L 50.838464 195.455234 
L 51.173264 195.455234 
L 51.508064 195.122594 
L 52.177664 195.787874 
L 52.512464 195.787874 
L 52.847264 195.621554 
L 53.182064 195.122594 
L 53.516864 195.288914 
L 53.851664 194.956274 
L 54.186464 195.288914 
L 54.521264 195.455234 
L 54.856064 195.455234 
L 55.190864 195.122594 
L 55.525664 195.288914 
L 56.195264 196.286834 
L 56.530064 195.455234 
L 56.864864 194.956274 
L 57.199664 195.122594 
L 57.534464 195.122594 
L 57.869264 195.288914 
L 58.873664 194.789954 
L 59.543264 195.122594 
L 59.878064 195.455234 
L 60.212864 195.288914 
L 60.547664 195.621554 
L 60.882464 195.455234 
L 61.217264 195.455234 
L 61.552064 195.122594 
L 61.886864 194.124674 
L 62.221664 194.124674 
L 62.556464 193.958354 
L 62.891264 193.293074 
L 63.560864 191.463554 
L 63.895664 189.634034 
L 64.230464 189.966674 
L 64.565264 190.798274 
L 65.234864 190.132994 
L 65.569664 189.301394 
L 65.904464 188.802434 
L 66.908864 190.465634 
L 67.243664 190.299314 
L 67.578464 190.299314 
L 67.913264 189.800354 
L 68.248064 190.465634 
L 68.917664 190.132994 
L 69.252464 190.465634 
L 69.587264 190.631954 
L 69.922064 189.800354 
L 70.591664 189.467714 
L 70.926464 188.968754 
L 71.261264 188.968754 
L 71.930864 188.303474 
L 72.265664 188.968754 
L 72.600464 187.471874 
L 72.935264 188.636114 
L 73.604864 188.968754 
L 74.274464 189.634034 
L 74.609264 188.968754 
L 74.944064 189.301394 
L 75.278864 189.301394 
L 75.613664 188.968754 
L 75.948464 189.800354 
L 76.283264 189.800354 
L 76.618064 190.299314 
L 76.952864 190.299314 
L 77.622464 188.968754 
L 77.957264 189.800354 
L 78.292064 190.132994 
L 78.626864 190.631954 
L 78.961664 192.960434 
L 79.296464 193.958354 
L 79.631264 194.290994 
L 79.966064 194.290994 
L 80.635664 192.627794 
L 80.970464 192.461474 
L 81.640064 193.126754 
L 81.974864 193.293074 
L 82.309664 192.461474 
L 82.979264 194.623634 
L 83.314064 193.792034 
L 83.648864 193.958354 
L 83.983664 192.960434 
L 84.318464 192.794114 
L 84.653264 193.459394 
L 84.988064 193.459394 
L 85.657664 193.792034 
L 85.992464 193.293074 
L 86.327264 193.459394 
L 86.662064 193.126754 
L 86.996864 192.461474 
L 87.666464 192.128834 
L 88.001264 192.128834 
L 88.336064 191.796194 
L 88.670864 192.627794 
L 89.005664 192.627794 
L 89.340464 192.461474 
L 89.675264 193.126754 
L 90.010064 192.794114 
L 90.344864 193.293074 
L 90.679664 193.293074 
L 91.014464 194.124674 
L 91.349264 194.457314 
L 91.684064 194.124674 
L 92.018864 193.958354 
L 92.353664 194.457314 
L 92.688464 193.958354 
L 93.358064 193.958354 
L 93.692864 194.124674 
L 94.027664 193.792034 
L 94.362464 193.958354 
L 94.697264 194.290994 
L 95.032064 194.457314 
L 95.366864 194.290994 
L 95.701664 194.290994 
L 96.036464 194.789954 
L 96.371264 194.789954 
L 96.706064 194.124674 
L 97.040864 193.958354 
L 97.375664 194.124674 
L 98.045264 193.293074 
L 98.380064 193.293074 
L 98.714864 193.459394 
L 99.049664 193.293074 
L 99.384464 193.293074 
L 99.719264 193.625714 
L 101.058464 193.625714 
L 101.393264 194.124674 
L 101.728064 194.124674 
L 102.062864 193.459394 
L 102.397664 193.126754 
L 102.732464 193.126754 
L 103.402064 193.792034 
L 103.736864 193.625714 
L 104.071664 193.792034 
L 104.406464 194.124674 
L 104.741264 193.625714 
L 105.076064 193.625714 
L 105.410864 193.459394 
L 105.745664 193.126754 
L 106.080464 192.960434 
L 106.415264 193.126754 
L 107.084864 193.126754 
L 107.419664 193.459394 
L 107.754464 193.958354 
L 108.089264 193.126754 
L 108.424064 193.459394 
L 109.093664 193.459394 
L 109.428464 193.625714 
L 109.763264 194.124674 
L 110.098064 193.792034 
L 110.432864 193.625714 
L 110.767664 193.293074 
L 111.102464 193.293074 
L 111.437264 193.792034 
L 112.441664 194.290994 
L 112.776464 194.789954 
L 113.111264 194.623634 
L 113.780864 193.459394 
L 114.115664 193.459394 
L 114.450464 193.625714 
L 114.785264 193.625714 
L 115.120064 193.293074 
L 115.789664 193.625714 
L 116.459264 193.625714 
L 116.794064 193.958354 
L 117.128864 193.792034 
L 117.798464 194.623634 
L 118.133264 194.623634 
L 118.468064 194.789954 
L 118.802864 195.122594 
L 119.807264 195.122594 
L 120.142064 194.956274 
L 121.146464 194.956274 
L 121.481264 195.122594 
L 121.816064 195.122594 
L 122.485664 194.457314 
L 122.820464 194.457314 
L 123.824864 193.459394 
L 124.159664 193.459394 
L 124.494464 194.290994 
L 124.829264 193.958354 
L 125.164064 193.792034 
L 125.498864 193.958354 
L 125.833664 194.290994 
L 126.168464 193.958354 
L 126.503264 194.290994 
L 126.838064 194.457314 
L 127.172864 194.789954 
L 127.507664 194.457314 
L 127.842464 193.792034 
L 128.177264 193.792034 
L 128.512064 194.290994 
L 128.846864 194.290994 
L 129.181664 194.124674 
L 129.516464 194.124674 
L 129.851264 193.958354 
L 130.186064 193.625714 
L 130.520864 193.792034 
L 130.855664 193.792034 
L 131.190464 193.126754 
L 131.860064 193.792034 
L 132.194864 193.958354 
L 132.529664 193.958354 
L 132.864464 194.290994 
L 133.199264 194.789954 
L 133.534064 194.956274 
L 133.868864 194.956274 
L 134.203664 194.290994 
L 134.538464 194.124674 
L 135.542864 194.124674 
L 135.877664 194.623634 
L 136.212464 194.457314 
L 136.547264 194.457314 
L 136.882064 194.623634 
L 137.216864 194.290994 
L 137.886464 194.956274 
L 138.221264 195.122594 
L 138.556064 195.122594 
L 138.890864 194.290994 
L 139.225664 194.457314 
L 139.560464 194.457314 
L 139.895264 194.290994 
L 140.230064 193.625714 
L 140.564864 193.293074 
L 141.234464 194.623634 
L 141.569264 194.623634 
L 141.904064 194.124674 
L 143.243264 194.124674 
L 143.578064 193.958354 
L 143.912864 193.625714 
L 144.247664 193.459394 
L 144.917264 193.459394 
L 145.252064 193.625714 
L 145.586864 194.124674 
L 145.921664 193.958354 
L 146.256464 194.124674 
L 146.591264 193.958354 
L 146.926064 194.124674 
L 147.260864 194.124674 
L 147.595664 193.792034 
L 147.930464 193.958354 
L 148.265264 193.958354 
L 148.600064 194.290994 
L 149.269664 195.122594 
L 149.604464 195.122594 
L 149.939264 195.288914 
L 150.274064 195.122594 
L 150.608864 194.290994 
L 151.278464 193.958354 
L 151.613264 194.457314 
L 151.948064 194.623634 
L 152.282864 194.457314 
L 152.617664 194.124674 
L 152.952464 194.457314 
L 153.287264 194.457314 
L 153.622064 194.290994 
L 153.956864 193.958354 
L 154.291664 193.459394 
L 154.626464 193.625714 
L 154.961264 194.124674 
L 155.296064 193.792034 
L 155.630864 193.958354 
L 156.300464 193.958354 
L 156.635264 194.290994 
L 156.970064 194.457314 
L 157.304864 194.290994 
L 158.309264 194.789954 
L 158.644064 194.789954 
L 158.978864 194.623634 
L 159.313664 193.958354 
L 159.648464 194.124674 
L 160.987664 194.124674 
L 161.322464 193.792034 
L 161.657264 193.958354 
L 161.992064 194.290994 
L 162.326864 194.457314 
L 162.661664 194.290994 
L 162.996464 194.623634 
L 163.331264 194.457314 
L 163.666064 194.623634 
L 164.000864 194.623634 
L 164.335664 194.457314 
L 164.670464 193.792034 
L 165.005264 193.625714 
L 165.340064 193.625714 
L 165.674864 193.792034 
L 166.344464 193.792034 
L 166.679264 194.124674 
L 167.014064 193.958354 
L 167.683664 194.290994 
L 168.018464 194.290994 
L 168.353264 194.457314 
L 168.688064 194.290994 
L 169.022864 194.290994 
L 169.357664 194.124674 
L 169.692464 194.290994 
L 170.027264 194.789954 
L 170.362064 194.457314 
L 170.696864 194.956274 
L 171.031664 194.956274 
L 171.366464 195.122594 
L 171.701264 195.122594 
L 172.036064 194.956274 
L 172.370864 195.122594 
L 173.040464 194.789954 
L 175.049264 194.789954 
L 175.384064 194.956274 
L 175.718864 194.789954 
L 176.053664 194.457314 
L 176.388464 194.290994 
L 176.723264 194.290994 
L 177.058064 194.457314 
L 177.392864 195.288914 
L 177.727664 195.122594 
L 178.732064 195.122594 
L 179.736464 193.792034 
L 180.071264 194.290994 
L 180.406064 194.124674 
L 180.740864 193.792034 
L 181.075664 193.792034 
L 182.080064 193.293074 
L 182.414864 192.960434 
L 182.749664 193.126754 
L 183.084464 193.792034 
L 183.419264 193.625714 
L 183.754064 193.126754 
L 184.088864 193.459394 
L 184.423664 193.459394 
L 184.758464 193.293074 
L 185.093264 193.293074 
L 185.428064 193.459394 
L 185.762864 194.124674 
L 186.097664 194.290994 
L 186.432464 194.124674 
L 187.102064 194.124674 
L 187.436864 193.958354 
L 187.771664 194.124674 
L 188.106464 194.124674 
L 188.441264 194.457314 
L 188.776064 194.623634 
L 189.110864 193.792034 
L 189.445664 193.459394 
L 189.780464 193.459394 
L 190.115264 193.625714 
L 190.450064 193.625714 
L 190.784864 193.792034 
L 191.119664 193.293074 
L 191.789264 193.293074 
L 192.124064 193.459394 
L 192.458864 193.293074 
L 192.793664 193.293074 
L 193.128464 193.126754 
L 193.463264 193.126754 
L 193.798064 193.293074 
L 194.132864 193.293074 
L 194.467664 193.459394 
L 194.802464 194.124674 
L 195.137264 194.290994 
L 195.472064 194.623634 
L 195.806864 194.789954 
L 195.806864 194.789954 
" clip-path="url(#p6db5fc7301)" style="fill: none; stroke: #dedeee; stroke-linecap: square"/>
   </g>
   <g id="line2d_108">
    <path d="M 28.406864 202.108034 
L 195.806864 202.108034 
L 195.806864 202.108034 
" clip-path="url(#p6db5fc7301)" style="fill: none; stroke-dasharray: 3.7,1.6; stroke-dashoffset: 0; stroke: #9b9aca"/>
   </g>
   <g id="line2d_109">
    <path d="M 28.406864 197.950034 
L 28.741664 196.619474 
L 29.076464 194.789954 
L 29.411264 193.958354 
L 29.746064 193.792034 
L 30.080864 193.293074 
L 30.415664 192.295154 
L 31.085264 189.135074 
L 31.420064 185.974994 
L 31.754864 186.141314 
L 32.759264 181.983314 
L 33.094064 180.819074 
L 33.428864 176.827394 
L 34.433264 173.002034 
L 34.768064 171.671474 
L 35.102864 171.172514 
L 35.772464 170.839874 
L 36.107264 168.511394 
L 36.776864 167.180834 
L 37.111664 166.848194 
L 37.446464 165.517634 
L 38.785664 162.856514 
L 39.455264 159.530114 
L 39.790064 158.864834 
L 40.124864 158.532194 
L 40.459664 158.033234 
L 41.129264 154.540514 
L 41.464064 150.715154 
L 41.798864 150.715154 
L 42.133664 150.216194 
L 42.803264 146.889794 
L 43.138064 145.891874 
L 43.807664 142.731794 
L 44.142464 141.567554 
L 44.477264 140.902274 
L 45.146864 141.234914 
L 45.481664 141.567554 
L 46.151264 141.900194 
L 46.486064 141.733874 
L 46.820864 141.234914 
L 47.155664 141.401234 
L 47.825264 141.401234 
L 48.494864 141.733874 
L 48.829664 141.234914 
L 49.164464 141.068594 
L 49.499264 140.735954 
L 50.168864 140.735954 
L 50.503664 140.403314 
L 52.512464 140.403314 
L 52.847264 140.569634 
L 53.182064 141.068594 
L 55.525664 141.068594 
L 55.860464 140.902274 
L 56.195264 140.569634 
L 56.530064 141.068594 
L 58.204064 141.068594 
L 58.538864 140.735954 
L 59.208464 139.738034 
L 59.543264 138.906434 
L 59.878064 136.577954 
L 60.547664 134.415794 
L 60.882464 134.415794 
L 61.217264 133.916834 
L 61.552064 132.586274 
L 61.886864 132.918914 
L 62.221664 132.752594 
L 62.556464 131.422034 
L 62.891264 131.089394 
L 63.560864 131.089394 
L 64.230464 129.925154 
L 64.565264 129.259874 
L 64.900064 128.927234 
L 65.234864 128.927234 
L 65.569664 128.760914 
L 66.574064 127.097714 
L 66.908864 126.099794 
L 67.243664 125.933474 
L 68.248064 124.602914 
L 69.587264 124.602914 
L 69.922064 124.769234 
L 70.256864 125.434514 
L 70.591664 125.767154 
L 71.596064 125.767154 
L 71.930864 126.099794 
L 72.265664 125.933474 
L 72.600464 126.099794 
L 73.270064 125.767154 
L 73.604864 125.434514 
L 74.274464 123.272354 
L 74.609264 123.604994 
L 75.278864 123.272354 
L 75.613664 122.773394 
L 76.283264 120.611234 
L 76.618064 119.779634 
L 76.952864 119.779634 
L 77.287664 120.112274 
L 77.622464 119.945954 
L 77.957264 117.617474 
L 78.292064 117.284834 
L 78.626864 115.954274 
L 78.961664 113.459474 
L 79.296464 112.627874 
L 79.966064 107.970914 
L 80.300864 106.640354 
L 80.635664 107.305634 
L 80.970464 107.471954 
L 81.305264 107.471954 
L 81.640064 107.139314 
L 81.974864 106.640354 
L 82.309664 106.806674 
L 82.644464 105.975074 
L 82.979264 104.478194 
L 83.314064 104.644514 
L 83.983664 105.808754 
L 84.318464 105.642434 
L 84.653264 104.644514 
L 84.988064 104.311874 
L 85.322864 104.478194 
L 85.657664 104.478194 
L 85.992464 104.644514 
L 86.996864 105.642434 
L 87.666464 105.975074 
L 88.001264 105.975074 
L 88.336064 106.141394 
L 89.005664 105.309794 
L 89.340464 105.309794 
L 89.675264 104.478194 
L 90.010064 104.145554 
L 90.344864 104.145554 
L 90.679664 103.812914 
L 91.014464 103.147634 
L 91.349264 102.814994 
L 91.684064 103.147634 
L 92.018864 102.981314 
L 92.353664 101.983394 
L 93.023264 102.316034 
L 93.358064 101.650754 
L 93.692864 101.650754 
L 94.027664 102.149714 
L 95.032064 101.650754 
L 95.366864 101.817074 
L 95.701664 101.484434 
L 96.036464 101.318114 
L 96.371264 101.318114 
L 96.706064 101.983394 
L 97.040864 101.983394 
L 97.375664 101.817074 
L 98.045264 102.482354 
L 98.380064 102.316034 
L 98.714864 102.316034 
L 99.049664 102.149714 
L 99.384464 101.817074 
L 99.719264 101.650754 
L 100.054064 101.318114 
L 100.388864 101.650754 
L 101.058464 101.650754 
L 101.393264 101.151794 
L 101.728064 101.151794 
L 102.062864 101.650754 
L 102.732464 101.650754 
L 103.402064 100.652834 
L 103.736864 100.819154 
L 104.071664 100.486514 
L 104.406464 100.320194 
L 104.741264 100.652834 
L 105.076064 100.652834 
L 105.745664 100.985474 
L 106.080464 100.486514 
L 106.415264 98.989634 
L 106.750064 98.656994 
L 107.084864 98.656994 
L 107.754464 97.659074 
L 108.089264 98.158034 
L 108.424064 98.158034 
L 108.758864 97.825394 
L 109.093664 98.158034 
L 109.428464 97.991714 
L 109.763264 97.492754 
L 110.098064 97.825394 
L 110.432864 97.825394 
L 110.767664 98.324354 
L 111.102464 98.324354 
L 111.437264 97.659074 
L 111.772064 97.659074 
L 112.106864 97.492754 
L 112.441664 96.993794 
L 113.111264 96.661154 
L 113.446064 97.659074 
L 113.780864 98.158034 
L 114.115664 98.158034 
L 114.450464 97.825394 
L 115.120064 98.158034 
L 115.454864 97.991714 
L 116.124464 97.991714 
L 117.463664 97.326434 
L 117.798464 96.661154 
L 118.133264 96.827474 
L 118.468064 96.494834 
L 118.802864 96.328514 
L 119.472464 96.328514 
L 119.807264 96.494834 
L 120.811664 96.494834 
L 121.146464 96.661154 
L 121.481264 96.328514 
L 121.816064 96.328514 
L 122.150864 96.494834 
L 122.485664 96.993794 
L 122.820464 97.160114 
L 123.155264 97.492754 
L 123.490064 97.659074 
L 123.824864 98.158034 
L 124.159664 97.825394 
L 124.494464 97.326434 
L 124.829264 97.492754 
L 125.164064 97.825394 
L 125.498864 97.492754 
L 125.833664 97.326434 
L 126.168464 97.492754 
L 126.838064 97.160114 
L 127.172864 96.661154 
L 127.842464 97.825394 
L 128.177264 97.492754 
L 128.512064 97.326434 
L 129.181664 97.326434 
L 129.851264 97.659074 
L 130.186064 97.659074 
L 130.520864 97.825394 
L 130.855664 97.825394 
L 131.190464 98.324354 
L 131.525264 98.158034 
L 131.860064 97.659074 
L 132.194864 97.492754 
L 132.529664 97.492754 
L 132.864464 97.326434 
L 133.199264 96.827474 
L 133.868864 96.494834 
L 134.203664 97.326434 
L 134.538464 97.492754 
L 135.208064 97.492754 
L 135.542864 97.326434 
L 135.877664 96.993794 
L 136.212464 97.160114 
L 136.547264 96.993794 
L 136.882064 96.993794 
L 137.216864 97.326434 
L 137.551664 96.827474 
L 138.221264 96.494834 
L 138.556064 96.494834 
L 138.890864 97.160114 
L 139.560464 97.160114 
L 139.895264 97.326434 
L 140.230064 97.991714 
L 140.564864 98.324354 
L 141.234464 96.827474 
L 141.569264 96.993794 
L 141.904064 97.492754 
L 143.243264 97.492754 
L 144.582464 98.158034 
L 144.917264 98.158034 
L 145.252064 97.991714 
L 145.586864 97.492754 
L 146.256464 97.492754 
L 146.591264 97.659074 
L 146.926064 97.492754 
L 147.260864 97.492754 
L 147.595664 97.659074 
L 148.265264 97.659074 
L 148.600064 97.326434 
L 148.934864 96.661154 
L 149.269664 96.328514 
L 149.939264 96.328514 
L 150.274064 96.494834 
L 150.608864 97.326434 
L 150.943664 97.492754 
L 152.282864 96.827474 
L 152.617664 97.160114 
L 152.952464 96.993794 
L 153.956864 97.492754 
L 154.291664 97.825394 
L 154.626464 97.825394 
L 154.961264 97.492754 
L 155.296064 97.659074 
L 155.630864 97.492754 
L 155.965664 97.659074 
L 156.300464 97.659074 
L 156.970064 96.993794 
L 157.974464 96.993794 
L 158.309264 96.661154 
L 158.978864 96.993794 
L 159.313664 97.492754 
L 159.648464 97.492754 
L 159.983264 97.326434 
L 160.318064 97.492754 
L 160.987664 97.492754 
L 161.322464 97.659074 
L 161.657264 97.659074 
L 161.992064 97.326434 
L 162.326864 97.160114 
L 162.661664 97.160114 
L 162.996464 96.661154 
L 163.331264 96.993794 
L 164.335664 96.993794 
L 164.670464 97.659074 
L 165.005264 97.825394 
L 166.344464 97.825394 
L 166.679264 97.492754 
L 167.348864 97.492754 
L 167.683664 97.326434 
L 168.018464 97.326434 
L 168.353264 97.160114 
L 168.688064 97.326434 
L 169.022864 97.326434 
L 169.357664 97.492754 
L 169.692464 97.160114 
L 170.027264 96.661154 
L 170.362064 96.993794 
L 170.696864 96.494834 
L 171.031664 96.661154 
L 171.366464 96.328514 
L 171.701264 96.494834 
L 172.036064 96.494834 
L 172.370864 96.328514 
L 173.375264 96.827474 
L 174.044864 96.827474 
L 174.379664 96.661154 
L 175.384064 96.661154 
L 175.718864 96.494834 
L 176.053664 97.160114 
L 176.388464 97.326434 
L 176.723264 96.993794 
L 177.058064 96.827474 
L 177.392864 96.328514 
L 177.727664 96.494834 
L 178.732064 96.494834 
L 179.066864 96.993794 
L 179.401664 97.160114 
L 179.736464 97.659074 
L 180.071264 97.326434 
L 180.406064 97.326434 
L 180.740864 97.825394 
L 181.075664 97.659074 
L 181.410464 97.991714 
L 181.745264 98.158034 
L 182.080064 98.158034 
L 182.414864 98.656994 
L 182.749664 98.490674 
L 183.084464 97.659074 
L 183.754064 98.324354 
L 184.088864 98.158034 
L 185.093264 98.158034 
L 185.428064 97.991714 
L 185.762864 97.492754 
L 186.097664 97.326434 
L 186.432464 97.492754 
L 187.436864 97.492754 
L 188.106464 97.160114 
L 188.441264 97.160114 
L 188.776064 96.827474 
L 189.445664 98.158034 
L 189.780464 98.158034 
L 190.784864 97.659074 
L 191.119664 98.158034 
L 191.789264 98.158034 
L 192.124064 97.991714 
L 192.458864 98.158034 
L 192.793664 98.158034 
L 193.128464 98.490674 
L 193.463264 98.490674 
L 194.132864 98.158034 
L 194.467664 98.158034 
L 194.802464 97.492754 
L 195.137264 97.160114 
L 195.472064 96.993794 
L 195.806864 96.661154 
L 195.806864 96.661154 
" clip-path="url(#p6db5fc7301)" style="fill: none; stroke-dasharray: 1,1.65; stroke-dashoffset: 0; stroke: #7976b8"/>
   </g>
   <g id="line2d_110">
    <path d="M 28.406864 44.104034 
L 29.076464 49.093634 
L 29.411264 50.424194 
L 29.746064 50.756834 
L 30.080864 51.422114 
L 30.415664 52.420034 
L 31.085264 55.081154 
L 31.420064 58.241234 
L 31.754864 58.740194 
L 32.089664 59.571794 
L 32.759264 61.900274 
L 33.094064 62.898194 
L 33.428864 67.222514 
L 34.098464 70.049954 
L 34.433264 70.881554 
L 34.768064 72.544754 
L 35.102864 73.210034 
L 35.437664 73.542674 
L 35.772464 73.542674 
L 36.107264 75.704834 
L 36.776864 77.534354 
L 37.111664 77.534354 
L 37.446464 79.031234 
L 37.781264 79.530194 
L 38.116064 80.361794 
L 38.450864 80.361794 
L 38.785664 81.359714 
L 39.455264 84.852434 
L 39.790064 86.182994 
L 40.794464 88.012514 
L 41.129264 89.509394 
L 41.464064 92.835794 
L 41.798864 93.002114 
L 42.133664 93.667394 
L 42.468464 95.829554 
L 43.138064 97.991714 
L 43.472864 100.153874 
L 44.142464 102.814994 
L 44.812064 103.646594 
L 45.146864 103.480274 
L 45.481664 103.646594 
L 46.151264 103.313954 
L 47.155664 103.812914 
L 47.490464 103.812914 
L 47.825264 103.979234 
L 48.160064 103.480274 
L 48.494864 103.979234 
L 48.829664 103.812914 
L 49.164464 103.480274 
L 49.499264 103.480274 
L 49.834064 103.313954 
L 50.168864 103.480274 
L 50.503664 103.979234 
L 50.838464 104.145554 
L 51.173264 104.145554 
L 51.508064 104.478194 
L 52.177664 103.812914 
L 53.182064 103.812914 
L 53.516864 103.646594 
L 53.851664 103.979234 
L 54.186464 103.646594 
L 54.521264 103.480274 
L 54.856064 103.480274 
L 55.190864 103.812914 
L 55.525664 103.646594 
L 55.860464 103.313954 
L 56.195264 103.147634 
L 56.530064 103.480274 
L 56.864864 103.979234 
L 57.199664 103.812914 
L 57.534464 103.812914 
L 57.869264 103.646594 
L 58.204064 103.812914 
L 59.543264 105.975074 
L 59.878064 107.970914 
L 60.547664 109.966754 
L 60.882464 110.133074 
L 61.217264 110.632034 
L 61.552064 112.295234 
L 61.886864 112.960514 
L 62.221664 113.126834 
L 62.891264 115.621634 
L 63.560864 117.451154 
L 63.895664 119.779634 
L 64.230464 120.112274 
L 64.565264 119.945954 
L 64.900064 120.611234 
L 65.234864 120.943874 
L 65.904464 122.939714 
L 66.239264 123.106034 
L 66.574064 122.939714 
L 67.578464 124.270274 
L 67.913264 125.268194 
L 68.248064 124.935554 
L 68.917664 125.268194 
L 69.252464 124.935554 
L 69.587264 124.769234 
L 69.922064 125.434514 
L 70.256864 124.935554 
L 70.591664 124.769234 
L 70.926464 125.268194 
L 71.261264 125.268194 
L 71.596064 125.600834 
L 71.930864 125.600834 
L 72.265664 125.101874 
L 72.600464 126.432434 
L 72.935264 125.434514 
L 73.270064 125.434514 
L 73.604864 125.600834 
L 74.609264 127.430354 
L 74.944064 127.264034 
L 75.278864 127.430354 
L 75.613664 128.261954 
L 75.948464 128.594594 
L 76.283264 129.592514 
L 76.618064 129.925154 
L 76.952864 129.925154 
L 77.287664 130.257794 
L 77.622464 131.089394 
L 77.957264 132.586274 
L 78.292064 132.586274 
L 78.626864 133.417874 
L 78.961664 133.584194 
L 79.296464 133.417874 
L 80.300864 139.904354 
L 80.635664 140.070674 
L 80.970464 140.070674 
L 81.305264 139.738034 
L 81.640064 139.738034 
L 81.974864 140.070674 
L 82.309664 140.735954 
L 82.644464 140.403314 
L 83.314064 141.567554 
L 83.648864 140.902274 
L 84.988064 142.232834 
L 85.322864 141.900194 
L 85.657664 141.733874 
L 85.992464 142.066514 
L 86.327264 141.567554 
L 86.662064 141.567554 
L 86.996864 141.900194 
L 88.001264 141.900194 
L 88.336064 142.066514 
L 88.670864 141.733874 
L 89.005664 142.066514 
L 89.675264 142.399154 
L 90.010064 143.064434 
L 90.344864 142.565474 
L 90.679664 142.898114 
L 91.014464 142.731794 
L 91.684064 142.731794 
L 92.018864 143.064434 
L 92.688464 143.896034 
L 93.023264 143.729714 
L 93.358064 144.394994 
L 94.027664 144.062354 
L 94.362464 144.062354 
L 94.697264 143.896034 
L 95.366864 143.896034 
L 95.701664 144.228674 
L 96.036464 143.896034 
L 96.706064 143.896034 
L 97.040864 144.062354 
L 97.375664 144.062354 
L 97.710464 144.228674 
L 98.045264 144.228674 
L 98.380064 144.394994 
L 98.714864 144.228674 
L 99.384464 144.893954 
L 99.719264 144.727634 
L 100.054064 145.060274 
L 100.388864 144.727634 
L 101.728064 144.727634 
L 102.062864 144.893954 
L 102.397664 145.226594 
L 102.732464 145.226594 
L 103.402064 145.559234 
L 103.736864 145.559234 
L 104.071664 145.725554 
L 104.406464 145.559234 
L 104.741264 145.725554 
L 105.410864 145.725554 
L 105.745664 145.891874 
L 106.080464 146.557154 
L 106.415264 147.887714 
L 106.750064 148.220354 
L 107.084864 148.220354 
L 107.419664 148.386674 
L 107.754464 148.386674 
L 108.089264 148.719314 
L 108.424064 148.386674 
L 108.758864 148.719314 
L 109.093664 148.386674 
L 110.098064 148.386674 
L 110.432864 148.552994 
L 110.767664 148.386674 
L 111.102464 148.386674 
L 111.437264 148.552994 
L 111.772064 148.386674 
L 112.106864 148.386674 
L 112.441664 148.719314 
L 112.776464 148.386674 
L 113.111264 148.719314 
L 113.446064 148.386674 
L 114.115664 148.386674 
L 114.450464 148.552994 
L 114.785264 148.386674 
L 115.120064 148.552994 
L 115.454864 148.552994 
L 115.789664 148.386674 
L 116.124464 148.386674 
L 116.459264 148.552994 
L 116.794064 148.386674 
L 117.128864 148.719314 
L 117.463664 148.386674 
L 117.798464 148.719314 
L 118.133264 148.552994 
L 118.468064 148.719314 
L 118.802864 148.552994 
L 119.472464 148.552994 
L 119.807264 148.386674 
L 120.142064 148.552994 
L 120.811664 148.552994 
L 121.146464 148.386674 
L 121.481264 148.552994 
L 121.816064 148.552994 
L 122.150864 148.719314 
L 122.820464 148.386674 
L 123.155264 148.386674 
L 123.490064 148.552994 
L 123.824864 148.386674 
L 124.159664 148.719314 
L 124.494464 148.386674 
L 124.829264 148.552994 
L 125.164064 148.386674 
L 125.498864 148.552994 
L 125.833664 148.386674 
L 126.168464 148.552994 
L 126.503264 148.386674 
L 126.838064 148.386674 
L 127.172864 148.552994 
L 127.507664 148.386674 
L 127.842464 148.386674 
L 128.177264 148.719314 
L 128.512064 148.386674 
L 128.846864 148.386674 
L 129.181664 148.552994 
L 129.516464 148.386674 
L 129.851264 148.386674 
L 130.186064 148.719314 
L 130.520864 148.386674 
L 130.855664 148.386674 
L 131.190464 148.552994 
L 131.525264 148.386674 
L 131.860064 148.552994 
L 132.529664 148.552994 
L 132.864464 148.386674 
L 133.534064 148.386674 
L 133.868864 148.552994 
L 134.203664 148.386674 
L 135.208064 148.386674 
L 135.542864 148.552994 
L 135.877664 148.386674 
L 136.212464 148.386674 
L 136.547264 148.552994 
L 136.882064 148.386674 
L 137.216864 148.386674 
L 137.551664 148.552994 
L 137.886464 148.386674 
L 138.556064 148.386674 
L 138.890864 148.552994 
L 139.225664 148.386674 
L 140.899664 148.386674 
L 141.234464 148.552994 
L 141.569264 148.386674 
L 143.578064 148.386674 
L 143.912864 148.552994 
L 144.247664 148.552994 
L 144.582464 148.386674 
L 145.586864 148.386674 
L 145.921664 148.552994 
L 146.256464 148.386674 
L 147.260864 148.386674 
L 147.595664 148.552994 
L 147.930464 148.386674 
L 148.600064 148.386674 
L 148.934864 148.552994 
L 149.604464 148.552994 
L 149.939264 148.386674 
L 150.943664 148.386674 
L 151.278464 148.719314 
L 151.613264 148.386674 
L 151.948064 148.386674 
L 152.282864 148.719314 
L 152.617664 148.719314 
L 153.287264 148.386674 
L 153.622064 148.386674 
L 154.291664 148.719314 
L 154.961264 148.386674 
L 155.296064 148.552994 
L 155.630864 148.552994 
L 155.965664 148.386674 
L 156.635264 148.386674 
L 157.304864 148.719314 
L 157.974464 148.386674 
L 158.309264 148.552994 
L 158.644064 148.386674 
L 158.978864 148.386674 
L 159.313664 148.552994 
L 159.648464 148.386674 
L 159.983264 148.552994 
L 160.318064 148.386674 
L 160.987664 148.386674 
L 161.322464 148.552994 
L 161.657264 148.386674 
L 162.326864 148.386674 
L 162.996464 148.719314 
L 163.666064 148.386674 
L 164.000864 148.386674 
L 164.335664 148.552994 
L 165.340064 148.552994 
L 165.674864 148.386674 
L 166.679264 148.386674 
L 167.014064 148.552994 
L 167.348864 148.386674 
L 169.357664 148.386674 
L 169.692464 148.552994 
L 170.696864 148.552994 
L 171.031664 148.386674 
L 171.366464 148.552994 
L 171.701264 148.386674 
L 172.036064 148.552994 
L 173.040464 148.552994 
L 173.375264 148.386674 
L 174.044864 148.386674 
L 174.379664 148.552994 
L 175.049264 148.552994 
L 175.384064 148.386674 
L 175.718864 148.719314 
L 176.053664 148.386674 
L 176.388464 148.386674 
L 176.723264 148.719314 
L 177.058064 148.719314 
L 177.392864 148.386674 
L 179.066864 148.386674 
L 179.401664 148.719314 
L 180.071264 148.386674 
L 180.406064 148.552994 
L 180.740864 148.386674 
L 181.075664 148.552994 
L 181.410464 148.386674 
L 181.745264 148.386674 
L 182.080064 148.552994 
L 182.414864 148.386674 
L 182.749664 148.386674 
L 183.084464 148.552994 
L 183.419264 148.386674 
L 183.754064 148.552994 
L 184.088864 148.386674 
L 184.423664 148.386674 
L 184.758464 148.552994 
L 185.428064 148.552994 
L 185.762864 148.386674 
L 187.102064 148.386674 
L 187.436864 148.552994 
L 187.771664 148.552994 
L 188.106464 148.719314 
L 188.441264 148.386674 
L 189.110864 148.719314 
L 189.445664 148.386674 
L 190.115264 148.386674 
L 190.450064 148.552994 
L 192.793664 148.552994 
L 193.128464 148.386674 
L 193.798064 148.386674 
L 194.132864 148.552994 
L 194.467664 148.386674 
L 194.802464 148.386674 
L 195.137264 148.552994 
L 195.472064 148.386674 
L 195.806864 148.552994 
L 195.806864 148.552994 
" clip-path="url(#p6db5fc7301)" style="fill: none; stroke-dasharray: 6.4,1.6,1,1.6; stroke-dashoffset: 0; stroke: #201f3d"/>
   </g>
   <g id="patch_3">
    <path d="M 28.406864 202.108034 
L 28.406864 35.788034 
" style="fill: none; stroke: #000000; stroke-width: 0.5; stroke-linejoin: miter; stroke-linecap: square"/>
   </g>
   <g id="patch_4">
    <path d="M 195.806864 202.108034 
L 195.806864 35.788034 
" style="fill: none; stroke: #000000; stroke-width: 0.5; stroke-linejoin: miter; stroke-linecap: square"/>
   </g>
   <g id="patch_5">
    <path d="M 28.406864 202.108034 
L 195.806864 202.108034 
" style="fill: none; stroke: #000000; stroke-width: 0.5; stroke-linejoin: miter; stroke-linecap: square"/>
   </g>
   <g id="patch_6">
    <path d="M 28.406864 35.788034 
L 195.806864 35.788034 
" style="fill: none; stroke: #000000; stroke-width: 0.5; stroke-linejoin: miter; stroke-linecap: square"/>
   </g>
   <g id="text_15">
    <!-- Evolucin de Dinamarca - Red: Barabsi-Albert  -->
    <g transform="translate(19.617852 10.084396) scale(0.096 -0.096)">
     <defs>
      <path id="NimbusRomNo9L-Regu-45" d="M 3821 1078 
L 3642 1078 
C 3322 389 3046 237 2131 237 
L 1958 237 
C 1645 237 1376 269 1331 315 
C 1299 334 1286 404 1286 514 
L 1286 2106 
L 2272 2106 
C 2797 2106 2893 2020 2976 1472 
L 3123 1472 
L 3123 2957 
L 2976 2957 
C 2931 2703 2906 2610 2835 2523 
C 2752 2417 2573 2368 2272 2368 
L 1286 2368 
L 1286 3766 
C 1286 3943 1325 3981 1498 3981 
L 2362 3981 
C 3085 3981 3226 3886 3334 3314 
L 3494 3314 
L 3475 4224 
L 77 4224 
L 77 4102 
C 550 4064 634 3974 634 3525 
L 634 679 
C 634 230 544 134 77 134 
L 77 0 
L 3533 0 
L 3821 1078 
z
" transform="scale(0.015625)"/>
      <path id="NimbusRomNo9L-Regu-76" d="M 3053 2854 
L 2163 2854 
L 2163 2758 
C 2368 2739 2464 2675 2464 2552 
C 2464 2488 2451 2424 2426 2359 
L 1792 695 
L 1139 2340 
C 1101 2431 1082 2520 1082 2578 
C 1082 2694 1152 2739 1376 2758 
L 1376 2854 
L 122 2854 
L 122 2752 
C 365 2752 410 2688 704 2024 
L 1472 175 
C 1485 137 1504 91 1523 40 
C 1562 -76 1600 -128 1638 -128 
C 1677 -128 1722 -44 1818 193 
L 2637 2257 
C 2822 2694 2861 2739 3053 2758 
L 3053 2854 
z
" transform="scale(0.015625)"/>
      <path id="NimbusRomNo9L-Regu-6c" d="M 122 4000 
L 160 4000 
C 230 4000 307 4000 358 4000 
C 563 4000 627 3910 627 3610 
L 627 557 
C 627 211 538 128 134 96 
L 134 0 
L 1645 0 
L 1645 109 
C 1242 109 1165 173 1165 528 
L 1165 4371 
L 1139 4384 
C 806 4275 563 4211 122 4103 
L 122 4000 
z
" transform="scale(0.015625)"/>
      <path id="NimbusRomNo9L-Regu-75" d="M 3066 320 
L 3034 320 
C 2739 320 2669 390 2669 685 
L 2669 2880 
L 1658 2880 
L 1658 2758 
C 2054 2758 2131 2694 2131 2375 
L 2131 875 
C 2131 697 2099 607 2010 537 
C 1837 397 1638 320 1446 320 
C 1197 320 992 537 992 805 
L 992 2880 
L 58 2880 
L 58 2778 
C 365 2778 454 2682 454 2387 
L 454 770 
C 454 263 762 -64 1229 -64 
C 1466 -64 1715 38 1888 211 
L 2163 486 
L 2163 -45 
L 2189 -58 
C 2509 70 2739 141 3066 230 
L 3066 320 
z
" transform="scale(0.015625)"/>
      <path id="NimbusRomNo9L-Regu-b4" d="M 851 3264 
L 1837 3882 
C 1971 3964 2029 4047 2029 4148 
C 2029 4275 1946 4352 1805 4352 
C 1709 4352 1651 4320 1536 4206 
L 595 3264 
L 851 3264 
z
" transform="scale(0.015625)"/>
      <path id="NimbusRomNo9L-Regu-64" d="M 2202 -64 
L 3142 269 
L 3142 365 
C 3027 365 3014 365 2995 365 
C 2765 365 2714 435 2714 731 
L 2714 4364 
L 2682 4377 
C 2374 4268 2150 4204 1741 4096 
L 1741 3994 
C 1792 4000 1830 4000 1882 4000 
C 2118 4000 2176 3936 2176 3672 
L 2176 2669 
C 1933 2874 1760 2944 1504 2944 
C 768 2944 173 2221 173 1312 
C 173 493 653 -64 1357 -64 
C 1715 -64 1958 64 2176 365 
L 2176 -45 
L 2202 -64 
z
M 2176 653 
C 2176 608 2131 531 2067 461 
C 1952 333 1792 269 1606 269 
C 1075 269 723 781 723 1568 
C 723 2291 1037 2765 1523 2765 
C 1862 2765 2176 2464 2176 2125 
L 2176 653 
z
" transform="scale(0.015625)"/>
      <path id="NimbusRomNo9L-Regu-44" d="M 666 679 
C 666 217 589 134 102 134 
L 102 0 
L 1920 0 
C 2662 0 3334 210 3731 568 
C 4147 944 4384 1512 4384 2131 
C 4384 2706 4192 3203 3840 3554 
C 3405 3994 2707 4224 1830 4224 
L 102 4224 
L 102 4102 
C 608 4057 666 4000 666 3525 
L 666 679 
z
M 1318 3738 
C 1318 3936 1389 3987 1651 3987 
C 2202 3987 2618 3885 2925 3668 
C 3424 3323 3686 2775 3686 2087 
C 3686 1334 3424 798 2906 498 
C 2579 314 2208 237 1651 237 
C 1395 237 1318 294 1318 498 
L 1318 3738 
z
" transform="scale(0.015625)"/>
      <path id="NimbusRomNo9L-Regu-6d" d="M 122 2547 
C 205 2566 256 2573 326 2573 
C 493 2573 550 2470 550 2162 
L 550 539 
C 550 192 461 96 102 96 
L 102 0 
L 1523 0 
L 1523 96 
C 1184 96 1088 166 1088 418 
L 1088 2234 
C 1088 2246 1139 2310 1184 2355 
C 1344 2502 1619 2611 1843 2611 
C 2125 2611 2266 2385 2266 1932 
L 2266 528 
C 2266 167 2195 96 1830 96 
L 1830 0 
L 3264 0 
L 3264 96 
C 2899 96 2803 205 2803 603 
L 2803 2221 
C 2995 2496 3206 2611 3501 2611 
C 3866 2611 3981 2438 3981 1907 
L 3981 557 
C 3981 192 3930 141 3558 96 
L 3558 0 
L 4960 0 
L 4960 96 
L 4794 115 
C 4602 115 4518 230 4518 480 
L 4518 1802 
C 4518 2559 4269 2944 3776 2944 
C 3405 2944 3078 2778 2733 2407 
C 2618 2771 2400 2944 2054 2944 
C 1773 2944 1594 2854 1062 2451 
L 1062 2931 
L 1018 2944 
C 691 2822 474 2752 122 2656 
L 122 2547 
z
" transform="scale(0.015625)"/>
      <path id="NimbusRomNo9L-Regu-2d" d="M 250 1619 
L 250 1216 
L 1824 1216 
L 1824 1619 
L 250 1619 
z
" transform="scale(0.015625)"/>
      <path id="NimbusRomNo9L-Regu-52" d="M 4218 121 
C 3974 140 3846 205 3661 424 
L 2342 2061 
C 2771 2143 2963 2219 3174 2388 
C 3379 2553 3501 2818 3501 3113 
C 3501 3385 3418 3618 3251 3801 
C 3008 4059 2477 4224 1875 4224 
L 109 4224 
L 109 4102 
C 589 4051 653 3981 653 3528 
L 653 765 
C 653 236 589 159 109 121 
L 109 0 
L 1882 0 
L 1882 134 
C 1389 134 1306 219 1306 692 
L 1306 1984 
L 1664 1984 
L 3187 0 
L 4218 0 
L 4218 121 
z
M 1306 3762 
C 1306 3937 1376 3987 1632 3987 
C 2432 3987 2803 3716 2803 3123 
C 2803 2807 2669 2542 2438 2423 
C 2144 2258 1920 2221 1306 2221 
L 1306 3762 
z
" transform="scale(0.015625)"/>
      <path id="NimbusRomNo9L-Regu-3a" d="M 870 2944 
C 678 2944 518 2777 518 2579 
C 518 2393 678 2233 864 2233 
C 1062 2233 1229 2393 1229 2579 
C 1229 2777 1062 2944 870 2944 
z
M 870 646 
C 678 646 518 480 518 281 
C 518 96 678 -64 864 -64 
C 1062 -64 1229 96 1229 281 
C 1229 480 1062 646 870 646 
z
" transform="scale(0.015625)"/>
      <path id="NimbusRomNo9L-Regu-42" d="M 109 4237 
L 109 4096 
C 646 4096 723 4026 723 3548 
L 723 689 
C 723 212 640 128 109 128 
L 109 0 
L 2246 0 
C 2746 0 3200 136 3437 356 
C 3667 564 3795 855 3795 1165 
C 3795 1451 3680 1710 3482 1897 
C 3290 2072 3117 2150 2701 2253 
C 3034 2335 3168 2398 3322 2531 
C 3482 2671 3578 2903 3578 3163 
C 3578 3871 3008 4237 1901 4237 
L 109 4237 
z
M 1376 2112 
C 1997 2112 2291 2080 2522 1982 
C 2886 1827 3059 1568 3059 1159 
C 3059 809 2925 555 2669 406 
C 2464 290 2202 238 1779 238 
C 1466 238 1376 296 1376 504 
L 1376 2112 
z
M 1376 2368 
L 1376 3812 
C 1376 3944 1421 4001 1517 4001 
L 1798 4001 
C 2534 4001 2925 3699 2925 3137 
C 2925 2646 2586 2368 1984 2368 
L 1376 2368 
z
" transform="scale(0.015625)"/>
      <path id="NimbusRomNo9L-Regu-62" d="M 979 4364 
L 947 4377 
C 678 4281 506 4230 205 4147 
L 19 4096 
L 19 3994 
C 58 4000 83 4000 128 4000 
C 384 4000 442 3942 442 3673 
L 442 347 
C 442 147 986 -64 1498 -64 
C 2342 -64 2995 640 2995 1555 
C 2995 2342 2509 2944 1869 2944 
C 1478 2944 1107 2714 979 2400 
L 979 4364 
z
M 979 2061 
C 979 2310 1280 2541 1613 2541 
C 2112 2541 2432 2042 2432 1261 
C 2432 550 2125 141 1600 141 
C 1267 141 979 288 979 448 
L 979 2061 
z
" transform="scale(0.015625)"/>
      <path id="NimbusRomNo9L-Regu-41" d="M 4518 128 
C 4230 128 4166 192 3942 667 
L 2349 4320 
L 2221 4320 
L 890 1168 
C 480 231 403 128 96 128 
L 96 0 
L 1363 0 
L 1363 128 
C 1056 128 928 212 928 393 
C 928 470 947 560 979 645 
L 1274 1401 
L 2950 1401 
L 3213 778 
C 3290 602 3334 434 3334 342 
C 3334 180 3226 128 2886 128 
L 2886 0 
L 4518 0 
L 4518 128 
z
M 1382 1664 
L 2118 3416 
L 2861 1664 
L 1382 1664 
z
" transform="scale(0.015625)"/>
     </defs>
     <use xlink:href="#NimbusRomNo9L-Regu-45" transform="scale(0.996264)"/>
     <use xlink:href="#NimbusRomNo9L-Regu-76" transform="translate(60.871631 0) scale(0.996264)"/>
     <use xlink:href="#NimbusRomNo9L-Regu-6f" transform="translate(108.69282 0) scale(0.996264)"/>
     <use xlink:href="#NimbusRomNo9L-Regu-6c" transform="translate(158.506021 0) scale(0.996264)"/>
     <use xlink:href="#NimbusRomNo9L-Regu-75" transform="translate(186.20119 0) scale(0.996264)"/>
     <use xlink:href="#NimbusRomNo9L-Regu-63" transform="translate(236.014391 0) scale(0.996264)"/>
     <use xlink:href="#NimbusRomNo9L-Regu-69" transform="translate(280.247959 0) scale(0.996264)"/>
     <use xlink:href="#NimbusRomNo9L-Regu-b4" transform="translate(316.262122 0.498056) scale(0.996264)"/>
     <use xlink:href="#NimbusRomNo9L-Regu-6f" transform="translate(307.943129 0) scale(0.996264)"/>
     <use xlink:href="#NimbusRomNo9L-Regu-6e" transform="translate(357.756329 0) scale(0.996264)"/>
     <use xlink:href="#NimbusRomNo9L-Regu-64" transform="translate(432.47613 0) scale(0.996264)"/>
     <use xlink:href="#NimbusRomNo9L-Regu-65" transform="translate(482.289331 0) scale(0.996264)"/>
     <use xlink:href="#NimbusRomNo9L-Regu-44" transform="translate(551.4295 0) scale(0.996264)"/>
     <use xlink:href="#NimbusRomNo9L-Regu-69" transform="translate(623.359484 0) scale(0.996264)"/>
     <use xlink:href="#NimbusRomNo9L-Regu-6e" transform="translate(651.054654 0) scale(0.996264)"/>
     <use xlink:href="#NimbusRomNo9L-Regu-61" transform="translate(700.867855 0) scale(0.996264)"/>
     <use xlink:href="#NimbusRomNo9L-Regu-6d" transform="translate(745.101423 0) scale(0.996264)"/>
     <use xlink:href="#NimbusRomNo9L-Regu-61" transform="translate(822.609793 0) scale(0.996264)"/>
     <use xlink:href="#NimbusRomNo9L-Regu-72" transform="translate(866.843362 0) scale(0.996264)"/>
     <use xlink:href="#NimbusRomNo9L-Regu-63" transform="translate(900.018592 0) scale(0.996264)"/>
     <use xlink:href="#NimbusRomNo9L-Regu-61" transform="translate(944.25216 0) scale(0.996264)"/>
     <use xlink:href="#NimbusRomNo9L-Regu-2d" transform="translate(1013.392329 0) scale(0.996264)"/>
     <use xlink:href="#NimbusRomNo9L-Regu-52" transform="translate(1071.474159 0) scale(0.996264)"/>
     <use xlink:href="#NimbusRomNo9L-Regu-65" transform="translate(1137.924191 0) scale(0.996264)"/>
     <use xlink:href="#NimbusRomNo9L-Regu-64" transform="translate(1182.157759 0) scale(0.996264)"/>
     <use xlink:href="#NimbusRomNo9L-Regu-3a" transform="translate(1231.97096 0) scale(0.996264)"/>
     <use xlink:href="#NimbusRomNo9L-Regu-42" transform="translate(1290.550162 0) scale(0.996264)"/>
     <use xlink:href="#NimbusRomNo9L-Regu-61" transform="translate(1357.000193 0) scale(0.996264)"/>
     <use xlink:href="#NimbusRomNo9L-Regu-72" transform="translate(1401.233761 0) scale(0.996264)"/>
     <use xlink:href="#NimbusRomNo9L-Regu-61" transform="translate(1434.408991 0) scale(0.996264)"/>
     <use xlink:href="#NimbusRomNo9L-Regu-62" transform="translate(1478.64256 0) scale(0.996264)"/>
     <use xlink:href="#NimbusRomNo9L-Regu-b4" transform="translate(1533.984937 0.498056) scale(0.996264)"/>
     <use xlink:href="#NimbusRomNo9L-Regu-61" transform="translate(1528.45576 0) scale(0.996264)"/>
     <use xlink:href="#NimbusRomNo9L-Regu-73" transform="translate(1572.689329 0) scale(0.996264)"/>
     <use xlink:href="#NimbusRomNo9L-Regu-69" transform="translate(1611.443035 0) scale(0.996264)"/>
     <use xlink:href="#NimbusRomNo9L-Regu-2d" transform="translate(1639.138205 0) scale(0.996264)"/>
     <use xlink:href="#NimbusRomNo9L-Regu-41" transform="translate(1672.313435 0) scale(0.996264)"/>
     <use xlink:href="#NimbusRomNo9L-Regu-6c" transform="translate(1744.243419 0) scale(0.996264)"/>
     <use xlink:href="#NimbusRomNo9L-Regu-62" transform="translate(1771.938589 0) scale(0.996264)"/>
     <use xlink:href="#NimbusRomNo9L-Regu-65" transform="translate(1821.75179 0) scale(0.996264)"/>
     <use xlink:href="#NimbusRomNo9L-Regu-72" transform="translate(1865.985358 0) scale(0.996264)"/>
     <use xlink:href="#NimbusRomNo9L-Regu-74" transform="translate(1899.160588 0) scale(0.996264)"/>
    </g>
    <!--  Masa crtica: 95\% - Nodos centrales (K) -->
    <g transform="translate(34.533081 19.936215) scale(0.096 -0.096)">
     <defs>
      <path id="NimbusRomNo9L-Regu-4d" d="M 4314 3667 
L 4314 751 
C 4314 217 4237 134 3731 134 
L 3731 0 
L 5523 0 
L 5523 134 
C 5056 134 4966 223 4966 681 
L 4966 3536 
C 4966 3993 5050 4077 5523 4115 
L 5523 4237 
L 4250 4237 
L 2835 1004 
L 1357 4237 
L 90 4237 
L 90 4096 
C 614 4096 698 4019 698 3550 
L 698 943 
C 698 282 608 159 77 121 
L 77 0 
L 1581 0 
L 1581 134 
C 1088 134 979 282 979 931 
L 979 3520 
L 2586 0 
L 2675 0 
L 4314 3667 
z
" transform="scale(0.015625)"/>
      <path id="NimbusRomNo9L-Regu-11" d="M 1120 2950 
L 128 2598 
L 128 2502 
L 179 2508 
C 256 2521 339 2528 397 2528 
C 550 2528 608 2424 608 2141 
L 608 644 
C 608 180 544 109 102 109 
L 102 0 
L 1619 0 
L 1619 96 
C 1197 128 1146 192 1146 654 
L 1146 2931 
L 1120 2950 
z
" transform="scale(0.015625)"/>
      <path id="NimbusRomNo9L-Regu-39" d="M 378 -123 
C 1094 -40 1446 82 1882 396 
C 2547 882 2938 1676 2938 2539 
C 2938 3593 2349 4339 1523 4339 
C 762 4339 192 3694 192 2832 
C 192 2053 653 1536 1344 1536 
C 1696 1536 1965 1638 2304 1900 
C 2042 856 1331 172 358 5 
L 378 -123 
z
M 2317 2290 
C 2317 2162 2291 2104 2221 2047 
C 2042 1894 1805 1811 1574 1811 
C 1088 1811 781 2290 781 3050 
C 781 3413 883 3796 1018 3963 
C 1126 4090 1286 4160 1472 4160 
C 2029 4160 2317 3611 2317 2539 
L 2317 2290 
z
" transform="scale(0.015625)"/>
      <path id="NimbusRomNo9L-Regu-25" d="M 4282 2368 
C 3558 2368 2874 1622 2874 824 
C 2874 325 3181 0 3642 0 
C 3930 0 4166 102 4390 325 
C 4730 670 4941 1187 4941 1686 
C 4941 2120 4698 2368 4282 2368 
z
M 4326 2164 
C 4570 2164 4774 1934 4774 1654 
C 4774 1290 4614 856 4371 556 
C 4166 301 3981 192 3750 192 
C 3520 192 3360 357 3360 601 
C 3360 939 3539 1462 3776 1793 
C 3949 2048 4128 2164 4326 2164 
z
M 4058 4320 
L 3808 4320 
C 3462 4008 3206 3904 2810 3904 
C 2554 3904 2406 3946 2253 4064 
C 2086 4194 2003 4224 1805 4224 
C 1075 4224 390 3468 390 2662 
C 390 2217 730 1856 1146 1856 
C 1421 1856 1709 1984 1920 2209 
C 2253 2549 2458 3056 2458 3526 
C 2458 3615 2445 3693 2413 3808 
C 2528 3763 2643 3744 2829 3744 
C 3110 3744 3277 3788 3533 3931 
L 1286 -96 
L 1594 -96 
L 4058 4320 
z
M 2240 3829 
C 2278 3702 2298 3607 2298 3518 
C 2298 2802 1773 2073 1254 2073 
C 1030 2073 877 2231 877 2460 
C 877 2726 1005 3157 1178 3474 
C 1363 3816 1606 4032 1805 4032 
C 1837 4032 1850 4025 1888 3993 
C 1978 3911 2054 3879 2240 3829 
z
" transform="scale(0.015625)"/>
      <path id="NimbusRomNo9L-Regu-4e" d="M 3917 -64 
L 3917 3287 
C 3917 3669 3981 3905 4102 3987 
C 4192 4051 4282 4077 4525 4102 
L 4525 4224 
L 3021 4224 
L 3021 4102 
C 3264 4083 3354 4057 3450 4000 
C 3578 3911 3635 3681 3635 3286 
L 3635 1136 
L 1171 4224 
L 77 4224 
L 77 4102 
C 352 4102 442 4051 698 3751 
L 698 938 
C 698 281 608 159 77 121 
L 77 0 
L 1581 0 
L 1581 134 
C 1088 134 979 281 979 928 
L 979 3439 
L 3808 -64 
L 3917 -64 
z
" transform="scale(0.015625)"/>
      <path id="NimbusRomNo9L-Regu-28" d="M 1888 4326 
C 1414 4019 1222 3853 986 3558 
C 531 3002 307 2362 307 1613 
C 307 800 544 173 1107 -480 
C 1370 -787 1536 -928 1869 -1133 
L 1946 -1030 
C 1434 -627 1254 -403 1082 77 
C 928 506 858 992 858 1632 
C 858 2304 941 2829 1114 3226 
C 1293 3622 1485 3853 1946 4224 
L 1888 4326 
z
" transform="scale(0.015625)"/>
      <path id="NimbusRomNo9L-Regu-4b" d="M 2643 4109 
C 2720 4096 2784 4096 2810 4096 
C 3002 4096 3078 4045 3078 3917 
C 3078 3775 2931 3583 2579 3257 
L 1446 2224 
L 1446 3534 
C 1446 4000 1517 4071 2035 4109 
L 2035 4231 
L 218 4231 
L 218 4109 
C 717 4071 794 3988 794 3531 
L 794 750 
C 794 217 723 134 218 134 
L 218 0 
L 2022 0 
L 2022 134 
C 1523 134 1446 211 1446 683 
L 1446 1891 
L 1613 2026 
L 2291 1355 
C 2778 876 3123 422 3123 269 
C 3123 179 3034 134 2854 134 
C 2822 134 2752 134 2675 121 
L 2675 0 
L 4627 0 
L 4627 134 
C 4294 134 4205 198 3622 816 
L 2131 2409 
L 3347 3611 
C 3782 4026 3885 4077 4320 4109 
L 4320 4231 
L 2643 4231 
L 2643 4109 
z
" transform="scale(0.015625)"/>
      <path id="NimbusRomNo9L-Regu-29" d="M 243 -1133 
C 717 -826 909 -659 1146 -365 
C 1600 192 1824 832 1824 1581 
C 1824 2400 1587 3021 1024 3674 
C 762 3981 595 4122 262 4326 
L 186 4224 
C 698 3821 870 3597 1050 3117 
C 1203 2688 1274 2202 1274 1562 
C 1274 896 1190 365 1018 -26 
C 838 -429 646 -659 186 -1030 
L 243 -1133 
z
" transform="scale(0.015625)"/>
     </defs>
     <use xlink:href="#NimbusRomNo9L-Regu-4d" transform="scale(0.996264)"/>
     <use xlink:href="#NimbusRomNo9L-Regu-61" transform="translate(88.566907 0) scale(0.996264)"/>
     <use xlink:href="#NimbusRomNo9L-Regu-73" transform="translate(132.800475 0) scale(0.996264)"/>
     <use xlink:href="#NimbusRomNo9L-Regu-61" transform="translate(171.554182 0) scale(0.996264)"/>
     <use xlink:href="#NimbusRomNo9L-Regu-63" transform="translate(240.694351 0) scale(0.996264)"/>
     <use xlink:href="#NimbusRomNo9L-Regu-72" transform="translate(284.927919 0) scale(0.996264)"/>
     <use xlink:href="#NimbusRomNo9L-Regu-b4" transform="translate(315.363119 0.498056) scale(0.996264)"/>
     <use xlink:href="#NimbusRomNo9L-Regu-11" transform="translate(318.103149 0) scale(0.996264)"/>
     <use xlink:href="#NimbusRomNo9L-Regu-74" transform="translate(345.798319 0) scale(0.996264)"/>
     <use xlink:href="#NimbusRomNo9L-Regu-69" transform="translate(373.493488 0) scale(0.996264)"/>
     <use xlink:href="#NimbusRomNo9L-Regu-63" transform="translate(401.188658 0) scale(0.996264)"/>
     <use xlink:href="#NimbusRomNo9L-Regu-61" transform="translate(445.422226 0) scale(0.996264)"/>
     <use xlink:href="#NimbusRomNo9L-Regu-3a" transform="translate(489.655795 0) scale(0.996264)"/>
     <use xlink:href="#NimbusRomNo9L-Regu-39" transform="translate(548.234997 0) scale(0.996264)"/>
     <use xlink:href="#NimbusRomNo9L-Regu-35" transform="translate(598.048198 0) scale(0.996264)"/>
     <use xlink:href="#NimbusRomNo9L-Regu-25" transform="translate(647.861398 0) scale(0.996264)"/>
     <use xlink:href="#NimbusRomNo9L-Regu-2d" transform="translate(755.756429 0) scale(0.996264)"/>
     <use xlink:href="#NimbusRomNo9L-Regu-4e" transform="translate(813.838259 0) scale(0.996264)"/>
     <use xlink:href="#NimbusRomNo9L-Regu-6f" transform="translate(885.768243 0) scale(0.996264)"/>
     <use xlink:href="#NimbusRomNo9L-Regu-64" transform="translate(935.581444 0) scale(0.996264)"/>
     <use xlink:href="#NimbusRomNo9L-Regu-6f" transform="translate(985.394644 0) scale(0.996264)"/>
     <use xlink:href="#NimbusRomNo9L-Regu-73" transform="translate(1035.207845 0) scale(0.996264)"/>
     <use xlink:href="#NimbusRomNo9L-Regu-63" transform="translate(1098.868151 0) scale(0.996264)"/>
     <use xlink:href="#NimbusRomNo9L-Regu-65" transform="translate(1143.10172 0) scale(0.996264)"/>
     <use xlink:href="#NimbusRomNo9L-Regu-6e" transform="translate(1187.335289 0) scale(0.996264)"/>
     <use xlink:href="#NimbusRomNo9L-Regu-74" transform="translate(1237.148489 0) scale(0.996264)"/>
     <use xlink:href="#NimbusRomNo9L-Regu-72" transform="translate(1264.843659 0) scale(0.996264)"/>
     <use xlink:href="#NimbusRomNo9L-Regu-61" transform="translate(1298.018889 0) scale(0.996264)"/>
     <use xlink:href="#NimbusRomNo9L-Regu-6c" transform="translate(1342.252457 0) scale(0.996264)"/>
     <use xlink:href="#NimbusRomNo9L-Regu-65" transform="translate(1369.947627 0) scale(0.996264)"/>
     <use xlink:href="#NimbusRomNo9L-Regu-73" transform="translate(1414.181196 0) scale(0.996264)"/>
     <use xlink:href="#NimbusRomNo9L-Regu-28" transform="translate(1477.841502 0) scale(0.996264)"/>
     <use xlink:href="#NimbusRomNo9L-Regu-4b" transform="translate(1511.016732 0) scale(0.996264)"/>
     <use xlink:href="#NimbusRomNo9L-Regu-29" transform="translate(1582.946717 0) scale(0.996264)"/>
    </g>
    <!--  Homofilia: 0\% -->
    <g transform="translate(83.524747 29.788034) scale(0.096 -0.096)">
     <defs>
      <path id="NimbusRomNo9L-Regu-48" d="M 1338 2304 
L 1338 3533 
C 1338 3990 1408 4059 1901 4104 
L 1901 4224 
L 122 4224 
L 122 4104 
C 614 4059 685 3989 685 3527 
L 685 749 
C 685 210 621 134 122 134 
L 122 0 
L 1901 0 
L 1901 121 
C 1421 159 1338 242 1338 699 
L 1338 2022 
L 3277 2022 
L 3277 757 
C 3277 211 3213 134 2714 134 
L 2714 0 
L 4493 0 
L 4493 121 
C 4013 159 3930 242 3930 696 
L 3930 3529 
C 3930 3989 4000 4059 4493 4104 
L 4493 4224 
L 2714 4224 
L 2714 4104 
C 3206 4059 3277 3990 3277 3533 
L 3277 2304 
L 1338 2304 
z
" transform="scale(0.015625)"/>
      <path id="NimbusRomNo9L-Regu-2" d="M 198 2669 
L 634 2669 
L 634 566 
C 634 148 563 64 205 64 
L 205 -38 
L 1613 -38 
L 1613 58 
C 1254 84 1171 175 1171 532 
L 1171 2669 
L 1722 2669 
C 2336 2669 2368 2650 2368 2305 
L 2368 591 
C 2368 149 2323 90 1926 58 
L 1926 -38 
L 3334 -38 
L 3334 58 
C 2976 90 2906 175 2906 590 
L 2906 2289 
C 2906 2431 2906 2581 2918 2924 
L 2893 2943 
C 2611 2899 2426 2880 2170 2880 
L 1165 2880 
L 1165 3151 
C 1165 3429 1184 3624 1216 3732 
C 1306 4003 1555 4192 1843 4192 
C 2022 4192 2144 4110 2298 3895 
C 2419 3726 2502 3663 2611 3663 
C 2746 3663 2842 3770 2842 3909 
C 2842 4175 2522 4352 2029 4352 
C 1542 4352 1171 4188 941 3878 
C 749 3619 678 3385 640 2880 
L 198 2880 
L 198 2669 
z
" transform="scale(0.015625)"/>
     </defs>
     <use xlink:href="#NimbusRomNo9L-Regu-48" transform="scale(0.996264)"/>
     <use xlink:href="#NimbusRomNo9L-Regu-6f" transform="translate(71.929985 0) scale(0.996264)"/>
     <use xlink:href="#NimbusRomNo9L-Regu-6d" transform="translate(121.743185 0) scale(0.996264)"/>
     <use xlink:href="#NimbusRomNo9L-Regu-6f" transform="translate(199.251555 0) scale(0.996264)"/>
     <use xlink:href="#NimbusRomNo9L-Regu-2" transform="translate(249.064756 0) scale(0.996264)"/>
     <use xlink:href="#NimbusRomNo9L-Regu-6c" transform="translate(304.456433 0) scale(0.996264)"/>
     <use xlink:href="#NimbusRomNo9L-Regu-69" transform="translate(332.151603 0) scale(0.996264)"/>
     <use xlink:href="#NimbusRomNo9L-Regu-61" transform="translate(359.846772 0) scale(0.996264)"/>
     <use xlink:href="#NimbusRomNo9L-Regu-3a" transform="translate(404.080341 0) scale(0.996264)"/>
     <use xlink:href="#NimbusRomNo9L-Regu-30" transform="translate(462.659543 0) scale(0.996264)"/>
     <use xlink:href="#NimbusRomNo9L-Regu-25" transform="translate(512.472743 0) scale(0.996264)"/>
    </g>
   </g>
   <g id="legend_1">
    <g id="line2d_111">
     <path d="M 137.938854 44.538034 
L 144.938854 44.538034 
L 151.938854 44.538034 
" style="fill: none; stroke: #dedeee; stroke-linecap: square"/>
    </g>
    <g id="text_16">
     <!-- C. Coop -->
     <g transform="translate(157.538854 46.988034) scale(0.07 -0.07)">
      <defs>
       <path id="NimbusRomNo9L-Regu-43" d="M 3968 2906 
L 3910 4352 
L 3776 4352 
C 3738 4218 3635 4141 3507 4141 
C 3450 4141 3354 4160 3258 4199 
C 2944 4301 2624 4352 2323 4352 
C 1798 4352 1267 4154 870 3802 
C 422 3405 179 2810 179 2106 
C 179 1511 371 960 698 596 
C 1082 180 1670 -64 2304 -64 
C 3027 -64 3661 231 4051 749 
L 3936 864 
C 3462 410 3040 218 2509 218 
C 2106 218 1747 346 1472 589 
C 1120 903 922 1479 922 2189 
C 922 3348 1517 4096 2445 4096 
C 2810 4096 3142 3962 3398 3706 
C 3603 3501 3699 3322 3821 2906 
L 3968 2906 
z
" transform="scale(0.015625)"/>
       <path id="NimbusRomNo9L-Regu-2e" d="M 800 646 
C 608 646 448 480 448 281 
C 448 96 608 -64 794 -64 
C 992 -64 1158 96 1158 281 
C 1158 480 992 646 800 646 
z
" transform="scale(0.015625)"/>
       <path id="NimbusRomNo9L-Regu-70" d="M 58 2516 
C 115 2522 160 2522 218 2522 
C 435 2522 480 2458 480 2155 
L 480 -855 
C 480 -1189 410 -1261 32 -1299 
L 32 -1408 
L 1581 -1408 
L 1581 -1293 
C 1101 -1293 1018 -1222 1018 -816 
L 1018 199 
C 1242 -13 1395 -77 1664 -77 
C 2419 -77 3008 643 3008 1575 
C 3008 2372 2560 2944 1939 2944 
C 1581 2944 1299 2784 1018 2438 
L 1018 2931 
L 979 2944 
C 634 2810 410 2726 58 2618 
L 58 2516 
z
M 1018 2136 
C 1018 2329 1376 2560 1670 2560 
C 2144 2560 2458 2071 2458 1324 
C 2458 611 2144 128 1683 128 
C 1382 128 1018 359 1018 552 
L 1018 2136 
z
" transform="scale(0.015625)"/>
      </defs>
      <use xlink:href="#NimbusRomNo9L-Regu-43" transform="scale(0.996264)"/>
      <use xlink:href="#NimbusRomNo9L-Regu-2e" transform="translate(66.450031 0) scale(0.996264)"/>
      <use xlink:href="#NimbusRomNo9L-Regu-43" transform="translate(116.263232 0) scale(0.996264)"/>
      <use xlink:href="#NimbusRomNo9L-Regu-6f" transform="translate(182.713263 0) scale(0.996264)"/>
      <use xlink:href="#NimbusRomNo9L-Regu-6f" transform="translate(232.526463 0) scale(0.996264)"/>
      <use xlink:href="#NimbusRomNo9L-Regu-70" transform="translate(282.339664 0) scale(0.996264)"/>
     </g>
    </g>
    <g id="line2d_112">
     <path d="M 137.938854 54.447815 
L 144.938854 54.447815 
L 151.938854 54.447815 
" style="fill: none; stroke-dasharray: 3.7,1.6; stroke-dashoffset: 0; stroke: #9b9aca"/>
    </g>
    <g id="text_17">
     <!-- C. no Coop -->
     <g transform="translate(157.538854 56.897815) scale(0.07 -0.07)">
      <use xlink:href="#NimbusRomNo9L-Regu-43" transform="scale(0.996264)"/>
      <use xlink:href="#NimbusRomNo9L-Regu-2e" transform="translate(66.450031 0) scale(0.996264)"/>
      <use xlink:href="#NimbusRomNo9L-Regu-6e" transform="translate(116.263232 0) scale(0.996264)"/>
      <use xlink:href="#NimbusRomNo9L-Regu-6f" transform="translate(166.076432 0) scale(0.996264)"/>
      <use xlink:href="#NimbusRomNo9L-Regu-43" transform="translate(240.796233 0) scale(0.996264)"/>
      <use xlink:href="#NimbusRomNo9L-Regu-6f" transform="translate(307.246264 0) scale(0.996264)"/>
      <use xlink:href="#NimbusRomNo9L-Regu-6f" transform="translate(357.059465 0) scale(0.996264)"/>
      <use xlink:href="#NimbusRomNo9L-Regu-70" transform="translate(406.872665 0) scale(0.996264)"/>
     </g>
    </g>
    <g id="line2d_113">
     <path d="M 137.938854 64.357595 
L 144.938854 64.357595 
L 151.938854 64.357595 
" style="fill: none; stroke-dasharray: 1,1.65; stroke-dashoffset: 0; stroke: #7976b8"/>
    </g>
    <g id="text_18">
     <!-- P. Honrado -->
     <g transform="translate(157.538854 66.807595) scale(0.07 -0.07)">
      <use xlink:href="#NimbusRomNo9L-Regu-50" transform="scale(0.996264)"/>
      <use xlink:href="#NimbusRomNo9L-Regu-2e" transform="translate(44.333232 0) scale(0.996264)"/>
      <use xlink:href="#NimbusRomNo9L-Regu-48" transform="translate(94.146432 0) scale(0.996264)"/>
      <use xlink:href="#NimbusRomNo9L-Regu-6f" transform="translate(166.076417 0) scale(0.996264)"/>
      <use xlink:href="#NimbusRomNo9L-Regu-6e" transform="translate(215.889617 0) scale(0.996264)"/>
      <use xlink:href="#NimbusRomNo9L-Regu-72" transform="translate(265.702818 0) scale(0.996264)"/>
      <use xlink:href="#NimbusRomNo9L-Regu-61" transform="translate(298.878048 0) scale(0.996264)"/>
      <use xlink:href="#NimbusRomNo9L-Regu-64" transform="translate(343.111616 0) scale(0.996264)"/>
      <use xlink:href="#NimbusRomNo9L-Regu-6f" transform="translate(392.924817 0) scale(0.996264)"/>
     </g>
    </g>
    <g id="line2d_114">
     <path d="M 137.938854 74.267375 
L 144.938854 74.267375 
L 151.938854 74.267375 
" style="fill: none; stroke-dasharray: 6.4,1.6,1,1.6; stroke-dashoffset: 0; stroke: #201f3d"/>
    </g>
    <g id="text_19">
     <!-- P. Corrupto -->
     <g transform="translate(157.538854 76.717375) scale(0.07 -0.07)">
      <use xlink:href="#NimbusRomNo9L-Regu-50" transform="scale(0.996264)"/>
      <use xlink:href="#NimbusRomNo9L-Regu-2e" transform="translate(44.333232 0) scale(0.996264)"/>
      <use xlink:href="#NimbusRomNo9L-Regu-43" transform="translate(94.146432 0) scale(0.996264)"/>
      <use xlink:href="#NimbusRomNo9L-Regu-6f" transform="translate(160.596463 0) scale(0.996264)"/>
      <use xlink:href="#NimbusRomNo9L-Regu-72" transform="translate(210.409664 0) scale(0.996264)"/>
      <use xlink:href="#NimbusRomNo9L-Regu-72" transform="translate(243.584893 0) scale(0.996264)"/>
      <use xlink:href="#NimbusRomNo9L-Regu-75" transform="translate(276.760123 0) scale(0.996264)"/>
      <use xlink:href="#NimbusRomNo9L-Regu-70" transform="translate(326.573324 0) scale(0.996264)"/>
      <use xlink:href="#NimbusRomNo9L-Regu-74" transform="translate(376.386524 0) scale(0.996264)"/>
      <use xlink:href="#NimbusRomNo9L-Regu-6f" transform="translate(404.081694 0) scale(0.996264)"/>
     </g>
    </g>
   </g>
  </g>
 </g>
 <defs>
  <clipPath id="p6db5fc7301">
   <rect x="28.406864" y="35.788034" width="167.4" height="166.32"/>
  </clipPath>
 </defs>
</svg>
