<?xml version="1.0" encoding="utf-8" standalone="no"?>
<!DOCTYPE svg PUBLIC "-//W3C//DTD SVG 1.1//EN"
  "http://www.w3.org/Graphics/SVG/1.1/DTD/svg11.dtd">
<svg xmlns:xlink="http://www.w3.org/1999/xlink" width="178.023082pt" height="188.674525pt" viewBox="0 0 178.023082 188.674525" xmlns="http://www.w3.org/2000/svg" version="1.1">
 <metadata>
  <rdf:RDF xmlns:dc="http://purl.org/dc/elements/1.1/" xmlns:cc="http://creativecommons.org/ns#" xmlns:rdf="http://www.w3.org/1999/02/22-rdf-syntax-ns#">
   <cc:Work>
    <dc:type rdf:resource="http://purl.org/dc/dcmitype/StillImage"/>
    <dc:date>2025-06-27T12:19:29.617233</dc:date>
    <dc:format>image/svg+xml</dc:format>
    <dc:creator>
     <cc:Agent>
      <dc:title>Matplotlib v3.10.1, https://matplotlib.org/</dc:title>
     </cc:Agent>
    </dc:creator>
   </cc:Work>
  </rdf:RDF>
 </metadata>
 <defs>
  <style type="text/css">*{stroke-linejoin: round; stroke-linecap: butt}</style>
 </defs>
 <g id="figure_1">
  <g id="patch_1">
   <path d="M 0 188.674525 
L 178.023082 188.674525 
L 178.023082 0 
L 0 0 
z
" style="fill: #ffffff"/>
  </g>
  <g id="axes_1">
   <g id="patch_2">
    <path d="M 19.261541 174.445406 
L 158.761541 174.445406 
L 158.761541 35.845406 
L 19.261541 35.845406 
z
" style="fill: #ffffff"/>
   </g>
   <g id="matplotlib.axis_1">
    <g id="xtick_1">
     <g id="line2d_1">
      <path d="M 19.261541 174.445406 
L 19.261541 35.845406 
" clip-path="url(#p282f5ccd2c)" style="fill: none; stroke-dasharray: 1.85,0.8; stroke-dashoffset: 0; stroke: #b0b0b0; stroke-opacity: 0.6; stroke-width: 0.5"/>
     </g>
     <g id="line2d_2">
      <defs>
       <path id="mc5429ef7cd" d="M 0 0 
L 0 -3 
" style="stroke: #000000; stroke-width: 0.5"/>
      </defs>
      <g>
       <use xlink:href="#mc5429ef7cd" x="19.261541" y="174.445406" style="stroke: #000000; stroke-width: 0.5"/>
      </g>
     </g>
     <g id="line2d_3">
      <defs>
       <path id="m4eb6414cc8" d="M 0 0 
L 0 3 
" style="stroke: #000000; stroke-width: 0.5"/>
      </defs>
      <g>
       <use xlink:href="#m4eb6414cc8" x="19.261541" y="35.845406" style="stroke: #000000; stroke-width: 0.5"/>
      </g>
     </g>
     <g id="text_1">
      <!-- $\mathdefault{0}$ -->
      <g transform="translate(17.269013 183.349062) scale(0.08 -0.08)">
       <defs>
        <path id="NimbusRomNo9L-Regu-30" d="M 1626 4352 
C 1274 4352 1005 4244 768 4020 
C 397 3661 154 2925 154 2176 
C 154 1479 365 730 666 372 
C 902 90 1229 -64 1600 -64 
C 1926 -64 2202 45 2432 269 
C 2803 621 3046 1364 3046 2138 
C 3046 3450 2464 4352 1626 4352 
z
M 1606 4186 
C 2144 4186 2432 3463 2432 2125 
C 2432 788 2150 103 1600 103 
C 1050 103 768 788 768 2119 
C 768 3476 1056 4186 1606 4186 
z
" transform="scale(0.015625)"/>
       </defs>
       <use xlink:href="#NimbusRomNo9L-Regu-30" transform="scale(0.996264)"/>
      </g>
     </g>
    </g>
    <g id="xtick_2">
     <g id="line2d_4">
      <path d="M 47.217453 174.445406 
L 47.217453 35.845406 
" clip-path="url(#p282f5ccd2c)" style="fill: none; stroke-dasharray: 1.85,0.8; stroke-dashoffset: 0; stroke: #b0b0b0; stroke-opacity: 0.6; stroke-width: 0.5"/>
     </g>
     <g id="line2d_5">
      <g>
       <use xlink:href="#mc5429ef7cd" x="47.217453" y="174.445406" style="stroke: #000000; stroke-width: 0.5"/>
      </g>
     </g>
     <g id="line2d_6">
      <g>
       <use xlink:href="#m4eb6414cc8" x="47.217453" y="35.845406" style="stroke: #000000; stroke-width: 0.5"/>
      </g>
     </g>
     <g id="text_2">
      <!-- $\mathdefault{100}$ -->
      <g transform="translate(41.239869 183.349062) scale(0.08 -0.08)">
       <defs>
        <path id="NimbusRomNo9L-Regu-31" d="M 1862 4339 
L 710 3757 
L 710 3667 
C 787 3699 858 3725 883 3738 
C 998 3783 1107 3808 1171 3808 
C 1306 3808 1363 3711 1363 3505 
L 1363 592 
C 1363 379 1312 232 1210 173 
C 1114 116 1024 96 755 96 
L 755 0 
L 2522 0 
L 2522 96 
C 2016 96 1914 160 1914 470 
L 1914 4327 
L 1862 4339 
z
" transform="scale(0.015625)"/>
       </defs>
       <use xlink:href="#NimbusRomNo9L-Regu-31" transform="scale(0.996264)"/>
       <use xlink:href="#NimbusRomNo9L-Regu-30" transform="translate(49.8132 0) scale(0.996264)"/>
       <use xlink:href="#NimbusRomNo9L-Regu-30" transform="translate(99.626401 0) scale(0.996264)"/>
      </g>
     </g>
    </g>
    <g id="xtick_3">
     <g id="line2d_7">
      <path d="M 75.173365 174.445406 
L 75.173365 35.845406 
" clip-path="url(#p282f5ccd2c)" style="fill: none; stroke-dasharray: 1.85,0.8; stroke-dashoffset: 0; stroke: #b0b0b0; stroke-opacity: 0.6; stroke-width: 0.5"/>
     </g>
     <g id="line2d_8">
      <g>
       <use xlink:href="#mc5429ef7cd" x="75.173365" y="174.445406" style="stroke: #000000; stroke-width: 0.5"/>
      </g>
     </g>
     <g id="line2d_9">
      <g>
       <use xlink:href="#m4eb6414cc8" x="75.173365" y="35.845406" style="stroke: #000000; stroke-width: 0.5"/>
      </g>
     </g>
     <g id="text_3">
      <!-- $\mathdefault{200}$ -->
      <g transform="translate(69.195781 183.349062) scale(0.08 -0.08)">
       <defs>
        <path id="NimbusRomNo9L-Regu-32" d="M 3040 875 
L 2957 907 
C 2720 544 2637 486 2349 486 
L 819 486 
L 1894 1609 
C 2464 2202 2714 2687 2714 3185 
C 2714 3823 2195 4313 1530 4313 
C 1178 4313 845 4173 608 3918 
C 403 3700 307 3496 198 3043 
L 333 3011 
C 589 3636 819 3840 1261 3840 
C 1798 3840 2163 3476 2163 2940 
C 2163 2443 1869 1850 1331 1282 
L 192 77 
L 192 0 
L 2688 0 
L 3040 875 
z
" transform="scale(0.015625)"/>
       </defs>
       <use xlink:href="#NimbusRomNo9L-Regu-32" transform="scale(0.996264)"/>
       <use xlink:href="#NimbusRomNo9L-Regu-30" transform="translate(49.8132 0) scale(0.996264)"/>
       <use xlink:href="#NimbusRomNo9L-Regu-30" transform="translate(99.626401 0) scale(0.996264)"/>
      </g>
     </g>
    </g>
    <g id="xtick_4">
     <g id="line2d_10">
      <path d="M 103.129277 174.445406 
L 103.129277 35.845406 
" clip-path="url(#p282f5ccd2c)" style="fill: none; stroke-dasharray: 1.85,0.8; stroke-dashoffset: 0; stroke: #b0b0b0; stroke-opacity: 0.6; stroke-width: 0.5"/>
     </g>
     <g id="line2d_11">
      <g>
       <use xlink:href="#mc5429ef7cd" x="103.129277" y="174.445406" style="stroke: #000000; stroke-width: 0.5"/>
      </g>
     </g>
     <g id="line2d_12">
      <g>
       <use xlink:href="#m4eb6414cc8" x="103.129277" y="35.845406" style="stroke: #000000; stroke-width: 0.5"/>
      </g>
     </g>
     <g id="text_4">
      <!-- $\mathdefault{300}$ -->
      <g transform="translate(97.151693 183.349062) scale(0.08 -0.08)">
       <defs>
        <path id="NimbusRomNo9L-Regu-33" d="M 979 2138 
C 1357 2138 1504 2125 1658 2068 
C 2054 1927 2304 1562 2304 1120 
C 2304 583 1939 167 1466 167 
C 1293 167 1165 212 928 365 
C 736 480 627 525 518 525 
C 371 525 275 436 275 301 
C 275 77 550 -64 998 -64 
C 1491 -64 1997 103 2298 365 
C 2598 628 2765 999 2765 1428 
C 2765 1754 2662 2055 2477 2253 
C 2349 2394 2227 2471 1946 2592 
C 2387 2893 2547 3130 2547 3476 
C 2547 3994 2138 4352 1549 4352 
C 1229 4352 947 4244 717 4039 
C 525 3866 429 3699 288 3315 
L 384 3290 
C 646 3757 934 3968 1338 3968 
C 1754 3968 2042 3687 2042 3284 
C 2042 3053 1946 2823 1786 2663 
C 1594 2471 1414 2375 979 2221 
L 979 2138 
z
" transform="scale(0.015625)"/>
       </defs>
       <use xlink:href="#NimbusRomNo9L-Regu-33" transform="scale(0.996264)"/>
       <use xlink:href="#NimbusRomNo9L-Regu-30" transform="translate(49.8132 0) scale(0.996264)"/>
       <use xlink:href="#NimbusRomNo9L-Regu-30" transform="translate(99.626401 0) scale(0.996264)"/>
      </g>
     </g>
    </g>
    <g id="xtick_5">
     <g id="line2d_13">
      <path d="M 131.085188 174.445406 
L 131.085188 35.845406 
" clip-path="url(#p282f5ccd2c)" style="fill: none; stroke-dasharray: 1.85,0.8; stroke-dashoffset: 0; stroke: #b0b0b0; stroke-opacity: 0.6; stroke-width: 0.5"/>
     </g>
     <g id="line2d_14">
      <g>
       <use xlink:href="#mc5429ef7cd" x="131.085188" y="174.445406" style="stroke: #000000; stroke-width: 0.5"/>
      </g>
     </g>
     <g id="line2d_15">
      <g>
       <use xlink:href="#m4eb6414cc8" x="131.085188" y="35.845406" style="stroke: #000000; stroke-width: 0.5"/>
      </g>
     </g>
     <g id="text_5">
      <!-- $\mathdefault{400}$ -->
      <g transform="translate(125.107604 183.349062) scale(0.08 -0.08)">
       <defs>
        <path id="NimbusRomNo9L-Regu-34" d="M 3021 1497 
L 2368 1497 
L 2368 4352 
L 2086 4352 
L 77 1497 
L 77 1088 
L 1875 1088 
L 1875 32 
L 2368 32 
L 2368 1088 
L 3021 1088 
L 3021 1497 
z
M 1869 1497 
L 333 1497 
L 1869 3698 
L 1869 1497 
z
" transform="scale(0.015625)"/>
       </defs>
       <use xlink:href="#NimbusRomNo9L-Regu-34" transform="scale(0.996264)"/>
       <use xlink:href="#NimbusRomNo9L-Regu-30" transform="translate(49.8132 0) scale(0.996264)"/>
       <use xlink:href="#NimbusRomNo9L-Regu-30" transform="translate(99.626401 0) scale(0.996264)"/>
      </g>
     </g>
    </g>
    <g id="xtick_6">
     <g id="line2d_16">
      <defs>
       <path id="m112542defb" d="M 0 0 
L 0 -1.5 
" style="stroke: #000000; stroke-width: 0.5"/>
      </defs>
      <g>
       <use xlink:href="#m112542defb" x="24.852723" y="174.445406" style="stroke: #000000; stroke-width: 0.5"/>
      </g>
     </g>
     <g id="line2d_17">
      <defs>
       <path id="m32c4cee1c9" d="M 0 0 
L 0 1.5 
" style="stroke: #000000; stroke-width: 0.5"/>
      </defs>
      <g>
       <use xlink:href="#m32c4cee1c9" x="24.852723" y="35.845406" style="stroke: #000000; stroke-width: 0.5"/>
      </g>
     </g>
    </g>
    <g id="xtick_7">
     <g id="line2d_18">
      <g>
       <use xlink:href="#m112542defb" x="30.443906" y="174.445406" style="stroke: #000000; stroke-width: 0.5"/>
      </g>
     </g>
     <g id="line2d_19">
      <g>
       <use xlink:href="#m32c4cee1c9" x="30.443906" y="35.845406" style="stroke: #000000; stroke-width: 0.5"/>
      </g>
     </g>
    </g>
    <g id="xtick_8">
     <g id="line2d_20">
      <g>
       <use xlink:href="#m112542defb" x="36.035088" y="174.445406" style="stroke: #000000; stroke-width: 0.5"/>
      </g>
     </g>
     <g id="line2d_21">
      <g>
       <use xlink:href="#m32c4cee1c9" x="36.035088" y="35.845406" style="stroke: #000000; stroke-width: 0.5"/>
      </g>
     </g>
    </g>
    <g id="xtick_9">
     <g id="line2d_22">
      <g>
       <use xlink:href="#m112542defb" x="41.626271" y="174.445406" style="stroke: #000000; stroke-width: 0.5"/>
      </g>
     </g>
     <g id="line2d_23">
      <g>
       <use xlink:href="#m32c4cee1c9" x="41.626271" y="35.845406" style="stroke: #000000; stroke-width: 0.5"/>
      </g>
     </g>
    </g>
    <g id="xtick_10">
     <g id="line2d_24">
      <g>
       <use xlink:href="#m112542defb" x="52.808635" y="174.445406" style="stroke: #000000; stroke-width: 0.5"/>
      </g>
     </g>
     <g id="line2d_25">
      <g>
       <use xlink:href="#m32c4cee1c9" x="52.808635" y="35.845406" style="stroke: #000000; stroke-width: 0.5"/>
      </g>
     </g>
    </g>
    <g id="xtick_11">
     <g id="line2d_26">
      <g>
       <use xlink:href="#m112542defb" x="58.399818" y="174.445406" style="stroke: #000000; stroke-width: 0.5"/>
      </g>
     </g>
     <g id="line2d_27">
      <g>
       <use xlink:href="#m32c4cee1c9" x="58.399818" y="35.845406" style="stroke: #000000; stroke-width: 0.5"/>
      </g>
     </g>
    </g>
    <g id="xtick_12">
     <g id="line2d_28">
      <g>
       <use xlink:href="#m112542defb" x="63.991" y="174.445406" style="stroke: #000000; stroke-width: 0.5"/>
      </g>
     </g>
     <g id="line2d_29">
      <g>
       <use xlink:href="#m32c4cee1c9" x="63.991" y="35.845406" style="stroke: #000000; stroke-width: 0.5"/>
      </g>
     </g>
    </g>
    <g id="xtick_13">
     <g id="line2d_30">
      <g>
       <use xlink:href="#m112542defb" x="69.582182" y="174.445406" style="stroke: #000000; stroke-width: 0.5"/>
      </g>
     </g>
     <g id="line2d_31">
      <g>
       <use xlink:href="#m32c4cee1c9" x="69.582182" y="35.845406" style="stroke: #000000; stroke-width: 0.5"/>
      </g>
     </g>
    </g>
    <g id="xtick_14">
     <g id="line2d_32">
      <g>
       <use xlink:href="#m112542defb" x="80.764547" y="174.445406" style="stroke: #000000; stroke-width: 0.5"/>
      </g>
     </g>
     <g id="line2d_33">
      <g>
       <use xlink:href="#m32c4cee1c9" x="80.764547" y="35.845406" style="stroke: #000000; stroke-width: 0.5"/>
      </g>
     </g>
    </g>
    <g id="xtick_15">
     <g id="line2d_34">
      <g>
       <use xlink:href="#m112542defb" x="86.35573" y="174.445406" style="stroke: #000000; stroke-width: 0.5"/>
      </g>
     </g>
     <g id="line2d_35">
      <g>
       <use xlink:href="#m32c4cee1c9" x="86.35573" y="35.845406" style="stroke: #000000; stroke-width: 0.5"/>
      </g>
     </g>
    </g>
    <g id="xtick_16">
     <g id="line2d_36">
      <g>
       <use xlink:href="#m112542defb" x="91.946912" y="174.445406" style="stroke: #000000; stroke-width: 0.5"/>
      </g>
     </g>
     <g id="line2d_37">
      <g>
       <use xlink:href="#m32c4cee1c9" x="91.946912" y="35.845406" style="stroke: #000000; stroke-width: 0.5"/>
      </g>
     </g>
    </g>
    <g id="xtick_17">
     <g id="line2d_38">
      <g>
       <use xlink:href="#m112542defb" x="97.538094" y="174.445406" style="stroke: #000000; stroke-width: 0.5"/>
      </g>
     </g>
     <g id="line2d_39">
      <g>
       <use xlink:href="#m32c4cee1c9" x="97.538094" y="35.845406" style="stroke: #000000; stroke-width: 0.5"/>
      </g>
     </g>
    </g>
    <g id="xtick_18">
     <g id="line2d_40">
      <g>
       <use xlink:href="#m112542defb" x="108.720459" y="174.445406" style="stroke: #000000; stroke-width: 0.5"/>
      </g>
     </g>
     <g id="line2d_41">
      <g>
       <use xlink:href="#m32c4cee1c9" x="108.720459" y="35.845406" style="stroke: #000000; stroke-width: 0.5"/>
      </g>
     </g>
    </g>
    <g id="xtick_19">
     <g id="line2d_42">
      <g>
       <use xlink:href="#m112542defb" x="114.311641" y="174.445406" style="stroke: #000000; stroke-width: 0.5"/>
      </g>
     </g>
     <g id="line2d_43">
      <g>
       <use xlink:href="#m32c4cee1c9" x="114.311641" y="35.845406" style="stroke: #000000; stroke-width: 0.5"/>
      </g>
     </g>
    </g>
    <g id="xtick_20">
     <g id="line2d_44">
      <g>
       <use xlink:href="#m112542defb" x="119.902824" y="174.445406" style="stroke: #000000; stroke-width: 0.5"/>
      </g>
     </g>
     <g id="line2d_45">
      <g>
       <use xlink:href="#m32c4cee1c9" x="119.902824" y="35.845406" style="stroke: #000000; stroke-width: 0.5"/>
      </g>
     </g>
    </g>
    <g id="xtick_21">
     <g id="line2d_46">
      <g>
       <use xlink:href="#m112542defb" x="125.494006" y="174.445406" style="stroke: #000000; stroke-width: 0.5"/>
      </g>
     </g>
     <g id="line2d_47">
      <g>
       <use xlink:href="#m32c4cee1c9" x="125.494006" y="35.845406" style="stroke: #000000; stroke-width: 0.5"/>
      </g>
     </g>
    </g>
    <g id="xtick_22">
     <g id="line2d_48">
      <g>
       <use xlink:href="#m112542defb" x="136.676371" y="174.445406" style="stroke: #000000; stroke-width: 0.5"/>
      </g>
     </g>
     <g id="line2d_49">
      <g>
       <use xlink:href="#m32c4cee1c9" x="136.676371" y="35.845406" style="stroke: #000000; stroke-width: 0.5"/>
      </g>
     </g>
    </g>
    <g id="xtick_23">
     <g id="line2d_50">
      <g>
       <use xlink:href="#m112542defb" x="142.267553" y="174.445406" style="stroke: #000000; stroke-width: 0.5"/>
      </g>
     </g>
     <g id="line2d_51">
      <g>
       <use xlink:href="#m32c4cee1c9" x="142.267553" y="35.845406" style="stroke: #000000; stroke-width: 0.5"/>
      </g>
     </g>
    </g>
    <g id="xtick_24">
     <g id="line2d_52">
      <g>
       <use xlink:href="#m112542defb" x="147.858736" y="174.445406" style="stroke: #000000; stroke-width: 0.5"/>
      </g>
     </g>
     <g id="line2d_53">
      <g>
       <use xlink:href="#m32c4cee1c9" x="147.858736" y="35.845406" style="stroke: #000000; stroke-width: 0.5"/>
      </g>
     </g>
    </g>
    <g id="xtick_25">
     <g id="line2d_54">
      <g>
       <use xlink:href="#m112542defb" x="153.449918" y="174.445406" style="stroke: #000000; stroke-width: 0.5"/>
      </g>
     </g>
     <g id="line2d_55">
      <g>
       <use xlink:href="#m32c4cee1c9" x="153.449918" y="35.845406" style="stroke: #000000; stroke-width: 0.5"/>
      </g>
     </g>
    </g>
   </g>
   <g id="matplotlib.axis_2">
    <g id="ytick_1">
     <g id="line2d_56">
      <path d="M 19.261541 174.445406 
L 158.761541 174.445406 
" clip-path="url(#p282f5ccd2c)" style="fill: none; stroke-dasharray: 1.85,0.8; stroke-dashoffset: 0; stroke: #b0b0b0; stroke-opacity: 0.6; stroke-width: 0.5"/>
     </g>
     <g id="line2d_57">
      <defs>
       <path id="ma9db9b6bb1" d="M 0 0 
L 3 0 
" style="stroke: #000000; stroke-width: 0.5"/>
      </defs>
      <g>
       <use xlink:href="#ma9db9b6bb1" x="19.261541" y="174.445406" style="stroke: #000000; stroke-width: 0.5"/>
      </g>
     </g>
     <g id="line2d_58">
      <defs>
       <path id="m1b13f5f379" d="M 0 0 
L -3 0 
" style="stroke: #000000; stroke-width: 0.5"/>
      </defs>
      <g>
       <use xlink:href="#m1b13f5f379" x="158.761541" y="174.445406" style="stroke: #000000; stroke-width: 0.5"/>
      </g>
     </g>
     <g id="text_6">
      <!-- $\mathdefault{0.0}$ -->
      <g transform="translate(5.583796 177.147234) scale(0.08 -0.08)">
       <defs>
        <path id="CMMI10-3a" d="M 1229 338 
C 1229 522 1075 675 890 675 
C 704 675 550 522 550 338 
C 550 153 704 0 890 0 
C 1075 0 1229 153 1229 338 
z
" transform="scale(0.015625)"/>
       </defs>
       <use xlink:href="#NimbusRomNo9L-Regu-30" transform="scale(0.996264)"/>
       <use xlink:href="#CMMI10-3a" transform="translate(49.8132 0) scale(0.996264)"/>
       <use xlink:href="#NimbusRomNo9L-Regu-30" transform="translate(77.408707 0) scale(0.996264)"/>
      </g>
     </g>
    </g>
    <g id="ytick_2">
     <g id="line2d_59">
      <path d="M 19.261541 146.725406 
L 158.761541 146.725406 
" clip-path="url(#p282f5ccd2c)" style="fill: none; stroke-dasharray: 1.85,0.8; stroke-dashoffset: 0; stroke: #b0b0b0; stroke-opacity: 0.6; stroke-width: 0.5"/>
     </g>
     <g id="line2d_60">
      <g>
       <use xlink:href="#ma9db9b6bb1" x="19.261541" y="146.725406" style="stroke: #000000; stroke-width: 0.5"/>
      </g>
     </g>
     <g id="line2d_61">
      <g>
       <use xlink:href="#m1b13f5f379" x="158.761541" y="146.725406" style="stroke: #000000; stroke-width: 0.5"/>
      </g>
     </g>
     <g id="text_7">
      <!-- $\mathdefault{0.2}$ -->
      <g transform="translate(5.583796 149.427234) scale(0.08 -0.08)">
       <use xlink:href="#NimbusRomNo9L-Regu-30" transform="scale(0.996264)"/>
       <use xlink:href="#CMMI10-3a" transform="translate(49.8132 0) scale(0.996264)"/>
       <use xlink:href="#NimbusRomNo9L-Regu-32" transform="translate(77.408707 0) scale(0.996264)"/>
      </g>
     </g>
    </g>
    <g id="ytick_3">
     <g id="line2d_62">
      <path d="M 19.261541 119.005406 
L 158.761541 119.005406 
" clip-path="url(#p282f5ccd2c)" style="fill: none; stroke-dasharray: 1.85,0.8; stroke-dashoffset: 0; stroke: #b0b0b0; stroke-opacity: 0.6; stroke-width: 0.5"/>
     </g>
     <g id="line2d_63">
      <g>
       <use xlink:href="#ma9db9b6bb1" x="19.261541" y="119.005406" style="stroke: #000000; stroke-width: 0.5"/>
      </g>
     </g>
     <g id="line2d_64">
      <g>
       <use xlink:href="#m1b13f5f379" x="158.761541" y="119.005406" style="stroke: #000000; stroke-width: 0.5"/>
      </g>
     </g>
     <g id="text_8">
      <!-- $\mathdefault{0.4}$ -->
      <g transform="translate(5.583796 121.707234) scale(0.08 -0.08)">
       <use xlink:href="#NimbusRomNo9L-Regu-30" transform="scale(0.996264)"/>
       <use xlink:href="#CMMI10-3a" transform="translate(49.8132 0) scale(0.996264)"/>
       <use xlink:href="#NimbusRomNo9L-Regu-34" transform="translate(77.408707 0) scale(0.996264)"/>
      </g>
     </g>
    </g>
    <g id="ytick_4">
     <g id="line2d_65">
      <path d="M 19.261541 91.285406 
L 158.761541 91.285406 
" clip-path="url(#p282f5ccd2c)" style="fill: none; stroke-dasharray: 1.85,0.8; stroke-dashoffset: 0; stroke: #b0b0b0; stroke-opacity: 0.6; stroke-width: 0.5"/>
     </g>
     <g id="line2d_66">
      <g>
       <use xlink:href="#ma9db9b6bb1" x="19.261541" y="91.285406" style="stroke: #000000; stroke-width: 0.5"/>
      </g>
     </g>
     <g id="line2d_67">
      <g>
       <use xlink:href="#m1b13f5f379" x="158.761541" y="91.285406" style="stroke: #000000; stroke-width: 0.5"/>
      </g>
     </g>
     <g id="text_9">
      <!-- $\mathdefault{0.6}$ -->
      <g transform="translate(5.583796 93.987234) scale(0.08 -0.08)">
       <defs>
        <path id="NimbusRomNo9L-Regu-36" d="M 2854 4391 
C 2125 4327 1754 4205 1286 3879 
C 595 3386 218 2656 218 1802 
C 218 1248 390 688 666 370 
C 909 89 1254 -64 1651 -64 
C 2445 -64 2995 541 2995 1421 
C 2995 2236 2528 2752 1792 2752 
C 1510 2752 1376 2707 973 2464 
C 1146 3431 1862 4122 2867 4288 
L 2854 4391 
z
M 1549 2458 
C 2099 2458 2419 2000 2419 1204 
C 2419 504 2170 116 1722 116 
C 1158 116 813 714 813 1700 
C 813 2025 864 2203 992 2299 
C 1126 2400 1325 2458 1549 2458 
z
" transform="scale(0.015625)"/>
       </defs>
       <use xlink:href="#NimbusRomNo9L-Regu-30" transform="scale(0.996264)"/>
       <use xlink:href="#CMMI10-3a" transform="translate(49.8132 0) scale(0.996264)"/>
       <use xlink:href="#NimbusRomNo9L-Regu-36" transform="translate(77.408707 0) scale(0.996264)"/>
      </g>
     </g>
    </g>
    <g id="ytick_5">
     <g id="line2d_68">
      <path d="M 19.261541 63.565406 
L 158.761541 63.565406 
" clip-path="url(#p282f5ccd2c)" style="fill: none; stroke-dasharray: 1.85,0.8; stroke-dashoffset: 0; stroke: #b0b0b0; stroke-opacity: 0.6; stroke-width: 0.5"/>
     </g>
     <g id="line2d_69">
      <g>
       <use xlink:href="#ma9db9b6bb1" x="19.261541" y="63.565406" style="stroke: #000000; stroke-width: 0.5"/>
      </g>
     </g>
     <g id="line2d_70">
      <g>
       <use xlink:href="#m1b13f5f379" x="158.761541" y="63.565406" style="stroke: #000000; stroke-width: 0.5"/>
      </g>
     </g>
     <g id="text_10">
      <!-- $\mathdefault{0.8}$ -->
      <g transform="translate(5.583796 66.267234) scale(0.08 -0.08)">
       <defs>
        <path id="NimbusRomNo9L-Regu-38" d="M 1856 2400 
C 2490 2740 2714 3008 2714 3444 
C 2714 3968 2253 4352 1613 4352 
C 915 4352 397 3924 397 3341 
C 397 2925 518 2740 1190 2151 
C 499 1626 358 1428 358 992 
C 358 372 864 -64 1587 -64 
C 2355 -64 2848 359 2848 1018 
C 2848 1511 2630 1824 1856 2400 
z
M 1741 1741 
C 2208 1408 2362 1178 2362 820 
C 2362 404 2074 116 1658 116 
C 1171 116 845 487 845 1044 
C 845 1453 986 1722 1357 2023 
L 1741 1741 
z
M 1670 2516 
C 1101 2887 870 3181 870 3540 
C 870 3911 1158 4173 1562 4173 
C 1997 4173 2272 3892 2272 3450 
C 2272 3085 2093 2797 1728 2554 
C 1696 2535 1696 2535 1670 2516 
z
" transform="scale(0.015625)"/>
       </defs>
       <use xlink:href="#NimbusRomNo9L-Regu-30" transform="scale(0.996264)"/>
       <use xlink:href="#CMMI10-3a" transform="translate(49.8132 0) scale(0.996264)"/>
       <use xlink:href="#NimbusRomNo9L-Regu-38" transform="translate(77.408707 0) scale(0.996264)"/>
      </g>
     </g>
    </g>
    <g id="ytick_6">
     <g id="line2d_71">
      <path d="M 19.261541 35.845406 
L 158.761541 35.845406 
" clip-path="url(#p282f5ccd2c)" style="fill: none; stroke-dasharray: 1.85,0.8; stroke-dashoffset: 0; stroke: #b0b0b0; stroke-opacity: 0.6; stroke-width: 0.5"/>
     </g>
     <g id="line2d_72">
      <g>
       <use xlink:href="#ma9db9b6bb1" x="19.261541" y="35.845406" style="stroke: #000000; stroke-width: 0.5"/>
      </g>
     </g>
     <g id="line2d_73">
      <g>
       <use xlink:href="#m1b13f5f379" x="158.761541" y="35.845406" style="stroke: #000000; stroke-width: 0.5"/>
      </g>
     </g>
     <g id="text_11">
      <!-- $\mathdefault{1.0}$ -->
      <g transform="translate(5.583796 38.547234) scale(0.08 -0.08)">
       <use xlink:href="#NimbusRomNo9L-Regu-31" transform="scale(0.996264)"/>
       <use xlink:href="#CMMI10-3a" transform="translate(49.8132 0) scale(0.996264)"/>
       <use xlink:href="#NimbusRomNo9L-Regu-30" transform="translate(77.408707 0) scale(0.996264)"/>
      </g>
     </g>
    </g>
    <g id="ytick_7">
     <g id="line2d_74">
      <defs>
       <path id="m9c9366fd26" d="M 0 0 
L 1.5 0 
" style="stroke: #000000; stroke-width: 0.5"/>
      </defs>
      <g>
       <use xlink:href="#m9c9366fd26" x="19.261541" y="167.515406" style="stroke: #000000; stroke-width: 0.5"/>
      </g>
     </g>
     <g id="line2d_75">
      <defs>
       <path id="m4345503c3e" d="M 0 0 
L -1.5 0 
" style="stroke: #000000; stroke-width: 0.5"/>
      </defs>
      <g>
       <use xlink:href="#m4345503c3e" x="158.761541" y="167.515406" style="stroke: #000000; stroke-width: 0.5"/>
      </g>
     </g>
    </g>
    <g id="ytick_8">
     <g id="line2d_76">
      <g>
       <use xlink:href="#m9c9366fd26" x="19.261541" y="160.585406" style="stroke: #000000; stroke-width: 0.5"/>
      </g>
     </g>
     <g id="line2d_77">
      <g>
       <use xlink:href="#m4345503c3e" x="158.761541" y="160.585406" style="stroke: #000000; stroke-width: 0.5"/>
      </g>
     </g>
    </g>
    <g id="ytick_9">
     <g id="line2d_78">
      <g>
       <use xlink:href="#m9c9366fd26" x="19.261541" y="153.655406" style="stroke: #000000; stroke-width: 0.5"/>
      </g>
     </g>
     <g id="line2d_79">
      <g>
       <use xlink:href="#m4345503c3e" x="158.761541" y="153.655406" style="stroke: #000000; stroke-width: 0.5"/>
      </g>
     </g>
    </g>
    <g id="ytick_10">
     <g id="line2d_80">
      <g>
       <use xlink:href="#m9c9366fd26" x="19.261541" y="139.795406" style="stroke: #000000; stroke-width: 0.5"/>
      </g>
     </g>
     <g id="line2d_81">
      <g>
       <use xlink:href="#m4345503c3e" x="158.761541" y="139.795406" style="stroke: #000000; stroke-width: 0.5"/>
      </g>
     </g>
    </g>
    <g id="ytick_11">
     <g id="line2d_82">
      <g>
       <use xlink:href="#m9c9366fd26" x="19.261541" y="132.865406" style="stroke: #000000; stroke-width: 0.5"/>
      </g>
     </g>
     <g id="line2d_83">
      <g>
       <use xlink:href="#m4345503c3e" x="158.761541" y="132.865406" style="stroke: #000000; stroke-width: 0.5"/>
      </g>
     </g>
    </g>
    <g id="ytick_12">
     <g id="line2d_84">
      <g>
       <use xlink:href="#m9c9366fd26" x="19.261541" y="125.935406" style="stroke: #000000; stroke-width: 0.5"/>
      </g>
     </g>
     <g id="line2d_85">
      <g>
       <use xlink:href="#m4345503c3e" x="158.761541" y="125.935406" style="stroke: #000000; stroke-width: 0.5"/>
      </g>
     </g>
    </g>
    <g id="ytick_13">
     <g id="line2d_86">
      <g>
       <use xlink:href="#m9c9366fd26" x="19.261541" y="112.075406" style="stroke: #000000; stroke-width: 0.5"/>
      </g>
     </g>
     <g id="line2d_87">
      <g>
       <use xlink:href="#m4345503c3e" x="158.761541" y="112.075406" style="stroke: #000000; stroke-width: 0.5"/>
      </g>
     </g>
    </g>
    <g id="ytick_14">
     <g id="line2d_88">
      <g>
       <use xlink:href="#m9c9366fd26" x="19.261541" y="105.145406" style="stroke: #000000; stroke-width: 0.5"/>
      </g>
     </g>
     <g id="line2d_89">
      <g>
       <use xlink:href="#m4345503c3e" x="158.761541" y="105.145406" style="stroke: #000000; stroke-width: 0.5"/>
      </g>
     </g>
    </g>
    <g id="ytick_15">
     <g id="line2d_90">
      <g>
       <use xlink:href="#m9c9366fd26" x="19.261541" y="98.215406" style="stroke: #000000; stroke-width: 0.5"/>
      </g>
     </g>
     <g id="line2d_91">
      <g>
       <use xlink:href="#m4345503c3e" x="158.761541" y="98.215406" style="stroke: #000000; stroke-width: 0.5"/>
      </g>
     </g>
    </g>
    <g id="ytick_16">
     <g id="line2d_92">
      <g>
       <use xlink:href="#m9c9366fd26" x="19.261541" y="84.355406" style="stroke: #000000; stroke-width: 0.5"/>
      </g>
     </g>
     <g id="line2d_93">
      <g>
       <use xlink:href="#m4345503c3e" x="158.761541" y="84.355406" style="stroke: #000000; stroke-width: 0.5"/>
      </g>
     </g>
    </g>
    <g id="ytick_17">
     <g id="line2d_94">
      <g>
       <use xlink:href="#m9c9366fd26" x="19.261541" y="77.425406" style="stroke: #000000; stroke-width: 0.5"/>
      </g>
     </g>
     <g id="line2d_95">
      <g>
       <use xlink:href="#m4345503c3e" x="158.761541" y="77.425406" style="stroke: #000000; stroke-width: 0.5"/>
      </g>
     </g>
    </g>
    <g id="ytick_18">
     <g id="line2d_96">
      <g>
       <use xlink:href="#m9c9366fd26" x="19.261541" y="70.495406" style="stroke: #000000; stroke-width: 0.5"/>
      </g>
     </g>
     <g id="line2d_97">
      <g>
       <use xlink:href="#m4345503c3e" x="158.761541" y="70.495406" style="stroke: #000000; stroke-width: 0.5"/>
      </g>
     </g>
    </g>
    <g id="ytick_19">
     <g id="line2d_98">
      <g>
       <use xlink:href="#m9c9366fd26" x="19.261541" y="56.635406" style="stroke: #000000; stroke-width: 0.5"/>
      </g>
     </g>
     <g id="line2d_99">
      <g>
       <use xlink:href="#m4345503c3e" x="158.761541" y="56.635406" style="stroke: #000000; stroke-width: 0.5"/>
      </g>
     </g>
    </g>
    <g id="ytick_20">
     <g id="line2d_100">
      <g>
       <use xlink:href="#m9c9366fd26" x="19.261541" y="49.705406" style="stroke: #000000; stroke-width: 0.5"/>
      </g>
     </g>
     <g id="line2d_101">
      <g>
       <use xlink:href="#m4345503c3e" x="158.761541" y="49.705406" style="stroke: #000000; stroke-width: 0.5"/>
      </g>
     </g>
    </g>
    <g id="ytick_21">
     <g id="line2d_102">
      <g>
       <use xlink:href="#m9c9366fd26" x="19.261541" y="42.775406" style="stroke: #000000; stroke-width: 0.5"/>
      </g>
     </g>
     <g id="line2d_103">
      <g>
       <use xlink:href="#m4345503c3e" x="158.761541" y="42.775406" style="stroke: #000000; stroke-width: 0.5"/>
      </g>
     </g>
    </g>
   </g>
   <g id="line2d_104">
    <path d="M 19.261541 124.688006 
L 19.5411 120.945806 
L 20.100218 117.203606 
L 20.379778 115.956206 
L 20.659337 114.015806 
L 20.938896 111.243806 
L 21.218455 96.552206 
L 21.777573 90.592406 
L 22.057132 90.176606 
L 22.616251 88.097606 
L 22.89581 86.295806 
L 23.454928 79.643006 
L 23.734487 79.781606 
L 24.014046 78.672806 
L 24.293605 78.118406 
L 24.573164 76.455206 
L 25.132283 75.485006 
L 25.411842 75.485006 
L 25.691401 74.792006 
L 25.97096 74.930606 
L 26.250519 73.544606 
L 26.530078 73.267406 
L 27.089196 71.604206 
L 27.368756 70.772606 
L 27.648315 70.911206 
L 27.927874 70.634006 
L 28.207433 71.049806 
L 28.766551 69.248006 
L 29.04611 70.079606 
L 29.605229 67.862006 
L 29.884788 67.307606 
L 30.164347 67.307606 
L 30.443906 66.891806 
L 30.723465 67.030406 
L 31.003024 67.030406 
L 31.841701 68.277806 
L 32.40082 67.584806 
L 32.680379 68.277806 
L 32.959938 67.169006 
L 33.519056 68.555006 
L 33.798615 68.000606 
L 34.357734 68.000606 
L 34.637293 67.723406 
L 34.916852 68.000606 
L 35.196411 68.000606 
L 35.47597 67.862006 
L 35.755529 68.693606 
L 36.035088 68.555006 
L 36.314647 67.723406 
L 36.594206 67.307606 
L 36.873766 67.169006 
L 37.153325 66.753206 
L 37.432884 66.753206 
L 38.271561 67.584806 
L 38.55112 67.169006 
L 38.830679 67.307606 
L 39.110239 66.891806 
L 39.389798 67.307606 
L 39.669357 66.891806 
L 39.948916 67.584806 
L 40.228475 67.307606 
L 40.508034 67.307606 
L 40.787593 67.723406 
L 41.346711 67.307606 
L 41.626271 67.169006 
L 41.90583 67.862006 
L 42.185389 68.000606 
L 42.464948 68.277806 
L 42.744507 67.862006 
L 43.024066 67.169006 
L 43.303625 67.446206 
L 43.862744 66.753206 
L 44.421862 68.277806 
L 44.701421 67.862006 
L 44.98098 67.862006 
L 45.260539 68.277806 
L 45.540098 67.584806 
L 45.819657 68.693606 
L 46.099216 68.139206 
L 46.378776 68.000606 
L 46.658335 67.723406 
L 46.937894 66.891806 
L 47.217453 67.169006 
L 47.497012 66.337406 
L 48.335689 67.307606 
L 48.615249 67.169006 
L 48.894808 67.169006 
L 49.174367 67.307606 
L 49.453926 68.277806 
L 49.733485 67.169006 
L 50.013044 67.862006 
L 50.572162 67.030406 
L 50.851721 66.891806 
L 51.41084 67.446206 
L 51.690399 67.446206 
L 51.969958 66.891806 
L 52.249517 66.891806 
L 52.529076 67.446206 
L 53.088194 67.723406 
L 53.367754 67.446206 
L 53.647313 67.584806 
L 53.926872 67.307606 
L 54.206431 67.862006 
L 54.48599 67.723406 
L 54.765549 67.862006 
L 55.045108 67.723406 
L 55.324667 68.277806 
L 55.883786 67.584806 
L 56.163345 68.000606 
L 56.442904 67.446206 
L 56.722463 67.862006 
L 57.002022 67.307606 
L 57.281581 67.862006 
L 57.56114 67.862006 
L 57.840699 66.891806 
L 58.120259 66.614606 
L 58.399818 67.307606 
L 58.679377 67.446206 
L 58.958936 66.753206 
L 59.238495 67.307606 
L 59.518054 66.753206 
L 59.797613 66.614606 
L 60.356732 66.198806 
L 60.636291 66.337406 
L 60.91585 66.891806 
L 61.474968 66.476006 
L 62.034086 66.753206 
L 62.313645 66.337406 
L 62.593204 67.169006 
L 62.872764 66.614606 
L 63.152323 66.891806 
L 63.431882 66.891806 
L 63.711441 66.753206 
L 64.270559 67.723406 
L 64.550118 67.584806 
L 64.829677 67.169006 
L 65.388796 67.723406 
L 65.668355 67.723406 
L 65.947914 67.169006 
L 66.227473 67.169006 
L 66.507032 67.030406 
L 66.786591 67.169006 
L 67.06615 67.169006 
L 67.345709 66.476006 
L 67.625269 66.891806 
L 67.904828 66.891806 
L 68.184387 66.614606 
L 68.463946 67.030406 
L 68.743505 67.030406 
L 69.023064 67.446206 
L 69.302623 66.753206 
L 69.582182 67.307606 
L 70.42086 66.476006 
L 70.979978 67.030406 
L 71.259537 67.723406 
L 71.818655 66.753206 
L 72.098214 67.030406 
L 72.377774 67.584806 
L 72.657333 66.891806 
L 73.216451 67.446206 
L 73.49601 67.446206 
L 73.775569 66.614606 
L 74.055128 66.753206 
L 74.334687 67.307606 
L 74.614247 66.891806 
L 74.893806 66.891806 
L 75.173365 67.584806 
L 75.452924 67.169006 
L 75.732483 67.169006 
L 76.012042 67.030406 
L 76.291601 66.476006 
L 76.57116 66.891806 
L 76.850719 67.030406 
L 77.130279 66.614606 
L 77.409838 66.891806 
L 77.689397 66.753206 
L 78.248515 66.753206 
L 78.528074 67.307606 
L 78.807633 66.753206 
L 79.087192 67.307606 
L 79.366752 67.446206 
L 79.646311 67.030406 
L 80.205429 67.862006 
L 80.484988 67.307606 
L 80.764547 68.139206 
L 81.044106 68.000606 
L 81.323665 68.000606 
L 81.882784 67.584806 
L 82.162343 68.000606 
L 82.441902 67.446206 
L 82.721461 68.416406 
L 83.00102 67.584806 
L 83.280579 68.000606 
L 83.560138 67.584806 
L 83.839697 68.139206 
L 84.119257 67.446206 
L 84.678375 66.891806 
L 84.957934 67.307606 
L 85.237493 67.169006 
L 85.517052 66.891806 
L 85.796611 67.169006 
L 86.07617 66.891806 
L 86.35573 67.030406 
L 86.635289 66.891806 
L 87.194407 68.277806 
L 87.473966 67.723406 
L 87.753525 67.723406 
L 88.033084 68.139206 
L 88.592202 66.753206 
L 89.151321 67.307606 
L 89.43088 66.891806 
L 89.710439 67.307606 
L 89.989998 67.307606 
L 90.828675 66.614606 
L 91.387794 66.337406 
L 91.667353 66.337406 
L 91.946912 66.753206 
L 92.226471 66.614606 
L 92.785589 67.862006 
L 93.065148 67.723406 
L 93.344707 68.416406 
L 93.624267 68.000606 
L 93.903826 67.169006 
L 94.183385 67.307606 
L 94.462944 66.476006 
L 94.742503 66.891806 
L 95.022062 66.476006 
L 95.301621 66.476006 
L 95.58118 66.337406 
L 95.86074 65.783006 
L 96.140299 67.169006 
L 96.419858 66.614606 
L 96.978976 66.337406 
L 97.258535 66.614606 
L 97.538094 66.337406 
L 97.817653 66.337406 
L 98.097212 65.783006 
L 98.656331 66.753206 
L 99.215449 67.030406 
L 99.495008 66.614606 
L 99.774567 67.030406 
L 100.333685 66.614606 
L 100.613245 67.030406 
L 100.892804 66.614606 
L 101.172363 67.169006 
L 101.451922 67.169006 
L 101.731481 66.753206 
L 102.01104 66.753206 
L 102.290599 66.198806 
L 102.570158 65.921606 
L 102.849717 66.614606 
L 103.129277 66.337406 
L 103.408836 66.476006 
L 103.688395 65.783006 
L 104.247513 66.891806 
L 104.806631 66.891806 
L 105.08619 67.030406 
L 105.645309 65.921606 
L 105.924868 66.753206 
L 106.204427 66.753206 
L 106.483986 67.446206 
L 107.043104 67.169006 
L 107.602222 68.139206 
L 107.881782 67.862006 
L 108.161341 66.614606 
L 108.4409 66.337406 
L 108.720459 67.169006 
L 109.000018 66.614606 
L 109.279577 66.891806 
L 109.559136 67.446206 
L 109.838695 66.614606 
L 110.118255 67.030406 
L 110.397814 66.891806 
L 110.677373 66.891806 
L 110.956932 66.198806 
L 111.236491 66.337406 
L 111.51605 67.030406 
L 111.795609 66.198806 
L 112.075168 66.198806 
L 112.354728 66.753206 
L 112.913846 67.030406 
L 113.193405 66.337406 
L 113.472964 67.169006 
L 113.752523 67.584806 
L 114.032082 67.723406 
L 114.311641 67.723406 
L 114.5912 68.555006 
L 114.87076 68.000606 
L 115.150319 68.000606 
L 115.429878 67.030406 
L 115.709437 68.277806 
L 115.988996 68.277806 
L 116.268555 67.862006 
L 116.548114 67.030406 
L 116.827673 66.891806 
L 117.107233 67.584806 
L 117.386792 67.446206 
L 117.666351 67.446206 
L 118.225469 68.139206 
L 118.505028 68.000606 
L 118.784587 66.614606 
L 119.064146 68.277806 
L 119.343705 67.446206 
L 119.623265 67.723406 
L 119.902824 67.169006 
L 120.182383 67.723406 
L 120.461942 67.584806 
L 120.741501 68.139206 
L 121.02106 67.723406 
L 121.580178 68.139206 
L 121.859738 68.139206 
L 122.698415 66.476006 
L 122.977974 66.891806 
L 123.257533 66.476006 
L 123.537092 66.337406 
L 123.816651 66.753206 
L 124.09621 66.614606 
L 124.655329 68.000606 
L 124.934888 67.446206 
L 125.214447 67.862006 
L 125.494006 67.584806 
L 125.773565 68.000606 
L 126.053124 67.030406 
L 126.332683 67.862006 
L 126.891802 68.277806 
L 127.171361 67.446206 
L 127.45092 67.723406 
L 127.730479 67.446206 
L 128.010038 67.584806 
L 128.289597 68.000606 
L 128.848715 67.446206 
L 129.407834 68.277806 
L 129.687393 68.139206 
L 129.966952 68.277806 
L 130.52607 67.584806 
L 130.805629 67.584806 
L 131.085188 67.030406 
L 131.364748 67.446206 
L 131.923866 67.446206 
L 132.203425 67.307606 
L 132.482984 67.307606 
L 132.762543 67.169006 
L 133.042102 67.862006 
L 133.321661 68.139206 
L 133.60122 67.723406 
L 133.88078 68.139206 
L 134.160339 67.584806 
L 134.439898 68.000606 
L 134.719457 68.000606 
L 134.999016 67.307606 
L 135.278575 67.584806 
L 135.837693 66.476006 
L 136.117253 66.198806 
L 136.396812 66.198806 
L 136.676371 67.169006 
L 136.95593 66.198806 
L 137.235489 66.337406 
L 137.515048 67.030406 
L 137.794607 66.614606 
L 138.353726 67.584806 
L 138.912844 67.030406 
L 139.192403 67.030406 
L 139.471962 67.307606 
L 139.751521 67.862006 
L 140.310639 68.139206 
L 140.590198 67.584806 
L 140.869758 67.446206 
L 141.149317 67.862006 
L 141.708435 66.891806 
L 142.267553 66.337406 
L 142.826671 66.337406 
L 143.106231 66.891806 
L 143.38579 66.198806 
L 143.665349 66.198806 
L 143.944908 66.614606 
L 144.224467 66.060206 
L 144.504026 66.614606 
L 144.783585 66.891806 
L 145.063144 66.060206 
L 145.342703 66.614606 
L 145.622263 66.060206 
L 145.901822 66.891806 
L 146.181381 66.753206 
L 146.46094 66.753206 
L 146.740499 66.198806 
L 147.020058 66.337406 
L 147.299617 67.169006 
L 147.579176 66.891806 
L 147.858736 67.723406 
L 148.138295 67.446206 
L 148.417854 67.446206 
L 148.697413 68.000606 
L 148.976972 68.139206 
L 149.256531 67.446206 
L 149.53609 67.723406 
L 149.815649 67.446206 
L 150.095208 68.000606 
L 150.374768 68.000606 
L 150.654327 68.277806 
L 150.933886 68.000606 
L 151.493004 68.416406 
L 151.772563 67.169006 
L 152.052122 67.862006 
L 152.331681 67.030406 
L 152.8908 68.139206 
L 153.170359 67.723406 
L 153.449918 67.862006 
L 153.729477 67.723406 
L 154.009036 67.307606 
L 154.288595 67.446206 
L 154.568154 67.169006 
L 154.847713 67.862006 
L 155.127273 67.169006 
L 155.406832 67.030406 
L 155.686391 67.307606 
L 155.96595 66.476006 
L 156.245509 67.307606 
L 156.525068 67.446206 
L 156.804627 67.307606 
L 157.084186 66.476006 
L 157.363746 66.614606 
L 157.643305 66.476006 
L 157.922864 66.614606 
L 158.202423 66.614606 
L 158.481982 66.060206 
L 158.761541 66.060206 
L 158.761541 66.060206 
" clip-path="url(#p282f5ccd2c)" style="fill: none; stroke: #dedeee; stroke-linecap: square"/>
   </g>
   <g id="line2d_105">
    <path d="M 19.261541 174.445406 
L 158.761541 174.445406 
L 158.761541 174.445406 
" clip-path="url(#p282f5ccd2c)" style="fill: none; stroke-dasharray: 3.7,1.6; stroke-dashoffset: 0; stroke: #9b9aca"/>
   </g>
   <g id="line2d_106">
    <path d="M 19.261541 121.916006 
L 19.5411 122.470406 
L 20.659337 125.519606 
L 21.218455 130.093406 
L 21.777573 135.083006 
L 22.057132 136.330406 
L 22.336691 136.884806 
L 23.454928 141.735806 
L 24.014046 142.706006 
L 24.293605 143.814806 
L 24.573164 145.478006 
L 25.132283 146.864006 
L 25.411842 146.309606 
L 25.691401 146.725406 
L 26.250519 148.111406 
L 26.809637 149.358806 
L 27.089196 150.744806 
L 27.648315 151.576406 
L 27.927874 151.576406 
L 28.207433 151.160606 
L 28.486992 151.437806 
L 28.766551 152.546606 
L 29.04611 152.408006 
L 29.605229 154.487006 
L 30.164347 154.487006 
L 30.443906 154.902806 
L 30.723465 154.902806 
L 31.003024 155.041406 
L 31.841701 154.209806 
L 32.121261 154.209806 
L 32.40082 154.348406 
L 32.680379 154.209806 
L 32.959938 154.487006 
L 33.519056 153.932606 
L 33.798615 154.209806 
L 34.078174 153.932606 
L 34.357734 154.209806 
L 34.637293 154.071206 
L 34.916852 154.209806 
L 35.196411 154.209806 
L 35.47597 153.932606 
L 35.755529 153.932606 
L 36.035088 153.655406 
L 36.314647 154.348406 
L 36.594206 154.348406 
L 36.873766 155.180006 
L 37.153325 154.902806 
L 37.432884 155.180006 
L 37.992002 154.902806 
L 38.271561 154.348406 
L 38.55112 154.487006 
L 38.830679 154.348406 
L 39.110239 154.902806 
L 39.669357 154.902806 
L 39.948916 154.764206 
L 40.508034 155.041406 
L 40.787593 154.764206 
L 41.067152 154.764206 
L 41.626271 154.487006 
L 41.90583 154.487006 
L 42.185389 153.932606 
L 42.464948 153.794006 
L 43.024066 154.487006 
L 43.303625 154.764206 
L 43.583184 154.764206 
L 43.862744 154.625606 
L 44.142303 154.209806 
L 44.421862 154.071206 
L 44.701421 154.071206 
L 44.98098 153.516806 
L 45.540098 154.625606 
L 45.819657 154.209806 
L 46.378776 153.932606 
L 46.937894 154.902806 
L 47.217453 155.041406 
L 47.497012 155.318606 
L 47.776571 155.180006 
L 48.05613 155.457206 
L 48.335689 154.764206 
L 48.615249 154.764206 
L 49.174367 154.209806 
L 49.453926 154.487006 
L 50.013044 154.487006 
L 50.292603 154.625606 
L 51.131281 154.625606 
L 51.690399 154.209806 
L 52.249517 154.764206 
L 52.529076 154.071206 
L 52.808635 154.348406 
L 53.088194 153.932606 
L 53.367754 154.348406 
L 53.647313 154.071206 
L 53.926872 154.071206 
L 54.206431 153.932606 
L 54.765549 154.348406 
L 55.604227 153.932606 
L 55.883786 154.348406 
L 56.163345 154.209806 
L 56.442904 154.625606 
L 56.722463 154.209806 
L 57.002022 154.348406 
L 57.281581 154.209806 
L 58.120259 155.041406 
L 58.399818 154.625606 
L 58.679377 154.487006 
L 58.958936 155.041406 
L 59.238495 154.902806 
L 59.518054 154.902806 
L 60.356732 155.734406 
L 60.91585 155.734406 
L 61.195409 155.457206 
L 61.474968 155.873006 
L 62.313645 155.041406 
L 62.593204 155.180006 
L 62.872764 155.457206 
L 63.152323 155.041406 
L 63.711441 155.318606 
L 64.270559 154.487006 
L 64.550118 154.625606 
L 64.829677 154.625606 
L 65.388796 154.071206 
L 65.668355 154.487006 
L 66.507032 154.902806 
L 67.06615 154.902806 
L 67.904828 155.318606 
L 68.463946 154.764206 
L 68.743505 154.902806 
L 69.023064 154.625606 
L 69.582182 154.902806 
L 69.861742 155.180006 
L 70.42086 155.180006 
L 70.700419 154.902806 
L 70.979978 154.902806 
L 71.259537 154.487006 
L 71.539096 154.764206 
L 72.098214 154.764206 
L 72.377774 154.902806 
L 72.657333 154.764206 
L 72.936892 154.902806 
L 73.216451 154.764206 
L 73.775569 154.764206 
L 74.055128 155.041406 
L 74.334687 154.902806 
L 74.614247 155.041406 
L 75.173365 154.764206 
L 75.452924 155.180006 
L 75.732483 155.318606 
L 76.012042 155.180006 
L 76.291601 154.902806 
L 76.57116 154.902806 
L 76.850719 155.041406 
L 77.130279 154.902806 
L 77.409838 155.180006 
L 77.689397 154.764206 
L 77.968956 154.764206 
L 78.248515 154.902806 
L 78.528074 154.902806 
L 78.807633 154.625606 
L 79.087192 154.625606 
L 79.366752 154.209806 
L 79.646311 154.487006 
L 80.205429 153.932606 
L 80.484988 154.209806 
L 80.764547 153.794006 
L 81.044106 153.655406 
L 81.323665 154.209806 
L 81.603224 154.209806 
L 81.882784 154.487006 
L 82.162343 154.348406 
L 82.721461 154.348406 
L 83.00102 154.209806 
L 83.280579 154.209806 
L 83.560138 154.071206 
L 83.839697 154.209806 
L 84.398816 154.902806 
L 84.678375 155.180006 
L 85.237493 154.902806 
L 85.517052 154.625606 
L 85.796611 155.180006 
L 86.07617 154.764206 
L 86.914848 154.348406 
L 87.194407 153.932606 
L 87.473966 154.348406 
L 88.033084 153.932606 
L 88.592202 154.764206 
L 88.871762 154.902806 
L 89.151321 154.625606 
L 89.43088 155.041406 
L 89.989998 155.041406 
L 90.269557 155.180006 
L 90.828675 155.180006 
L 91.108235 155.457206 
L 91.387794 156.150206 
L 92.785589 154.209806 
L 93.065148 154.348406 
L 93.344707 153.794006 
L 94.183385 154.764206 
L 94.462944 155.180006 
L 94.742503 155.041406 
L 95.022062 155.457206 
L 95.301621 155.457206 
L 95.58118 155.318606 
L 95.86074 155.873006 
L 96.140299 155.318606 
L 96.419858 155.457206 
L 96.978976 155.873006 
L 97.258535 155.457206 
L 97.538094 155.595806 
L 97.817653 156.150206 
L 98.097212 156.011606 
L 98.376772 155.318606 
L 99.215449 154.487006 
L 99.495008 154.902806 
L 100.333685 155.318606 
L 100.613245 154.902806 
L 100.892804 154.902806 
L 101.172363 154.487006 
L 101.451922 155.041406 
L 102.01104 155.595806 
L 102.290599 156.150206 
L 102.849717 155.734406 
L 103.129277 155.873006 
L 103.408836 155.873006 
L 103.688395 156.011606 
L 104.247513 155.318606 
L 104.527072 155.318606 
L 105.08619 155.041406 
L 105.36575 155.457206 
L 105.645309 155.595806 
L 105.924868 155.318606 
L 106.483986 154.348406 
L 106.763545 153.932606 
L 107.043104 154.625606 
L 107.322663 154.348406 
L 107.602222 153.794006 
L 107.881782 154.487006 
L 108.4409 155.041406 
L 108.720459 154.902806 
L 109.000018 155.180006 
L 109.279577 154.764206 
L 109.559136 154.902806 
L 109.838695 154.764206 
L 110.118255 154.902806 
L 110.397814 155.734406 
L 110.677373 155.457206 
L 110.956932 155.457206 
L 111.236491 155.595806 
L 111.51605 154.902806 
L 111.795609 155.457206 
L 112.075168 155.595806 
L 112.354728 155.457206 
L 112.913846 154.902806 
L 113.193405 155.318606 
L 113.472964 155.041406 
L 113.752523 154.487006 
L 114.032082 154.348406 
L 114.311641 153.794006 
L 114.5912 153.655406 
L 114.87076 154.209806 
L 115.150319 153.794006 
L 115.429878 154.071206 
L 115.709437 153.932606 
L 115.988996 154.071206 
L 116.268555 154.071206 
L 116.548114 154.487006 
L 116.827673 154.625606 
L 117.107233 154.625606 
L 117.386792 154.209806 
L 117.666351 154.487006 
L 118.225469 154.209806 
L 118.505028 154.209806 
L 118.784587 154.625606 
L 119.064146 154.487006 
L 119.343705 154.209806 
L 119.623265 154.209806 
L 119.902824 154.487006 
L 120.182383 154.209806 
L 120.461942 154.348406 
L 120.741501 154.071206 
L 121.02106 153.516806 
L 121.580178 154.071206 
L 121.859738 153.932606 
L 122.139297 154.348406 
L 122.418856 154.487006 
L 122.698415 155.041406 
L 122.977974 155.180006 
L 123.257533 154.902806 
L 124.09621 155.318606 
L 124.655329 154.071206 
L 124.934888 154.348406 
L 125.494006 154.071206 
L 125.773565 153.794006 
L 126.053124 154.209806 
L 126.332683 154.209806 
L 126.612243 154.071206 
L 126.891802 154.348406 
L 127.171361 154.348406 
L 127.45092 154.625606 
L 128.010038 153.794006 
L 128.289597 154.209806 
L 128.848715 153.932606 
L 129.128275 154.209806 
L 129.687393 153.655406 
L 129.966952 154.071206 
L 130.246511 154.071206 
L 130.52607 153.932606 
L 131.085188 154.487006 
L 131.364748 154.487006 
L 131.644307 154.625606 
L 131.923866 154.071206 
L 132.203425 154.487006 
L 132.482984 154.625606 
L 133.042102 153.932606 
L 133.321661 153.655406 
L 133.60122 154.071206 
L 133.88078 154.071206 
L 134.160339 153.932606 
L 134.439898 154.071206 
L 134.999016 154.625606 
L 135.278575 154.348406 
L 135.558134 155.041406 
L 136.117253 155.734406 
L 136.396812 155.457206 
L 136.676371 154.902806 
L 136.95593 155.595806 
L 137.235489 155.734406 
L 137.515048 155.180006 
L 137.794607 155.041406 
L 138.074166 154.625606 
L 138.353726 154.764206 
L 138.633285 154.625606 
L 138.912844 154.348406 
L 139.192403 154.764206 
L 140.310639 153.794006 
L 140.590198 154.209806 
L 140.869758 154.209806 
L 141.149317 154.487006 
L 141.428876 154.487006 
L 141.987994 155.180006 
L 142.267553 155.041406 
L 142.547112 155.180006 
L 142.826671 155.041406 
L 143.38579 156.150206 
L 143.665349 156.011606 
L 144.224467 155.180006 
L 144.504026 156.011606 
L 144.783585 155.734406 
L 145.063144 155.873006 
L 145.342703 155.457206 
L 145.622263 155.873006 
L 146.181381 155.180006 
L 146.46094 155.734406 
L 146.740499 155.318606 
L 147.020058 155.734406 
L 147.299617 155.318606 
L 147.579176 155.318606 
L 147.858736 154.625606 
L 148.138295 154.625606 
L 148.417854 154.348406 
L 148.697413 154.487006 
L 148.976972 153.932606 
L 149.256531 153.932606 
L 149.815649 154.487006 
L 150.374768 153.932606 
L 150.654327 154.209806 
L 151.213445 153.794006 
L 151.493004 153.932606 
L 151.772563 154.348406 
L 152.052122 154.209806 
L 152.331681 154.625606 
L 152.8908 153.932606 
L 153.449918 154.348406 
L 153.729477 154.071206 
L 154.568154 154.764206 
L 154.847713 154.625606 
L 155.127273 154.348406 
L 155.406832 154.348406 
L 155.96595 154.764206 
L 156.525068 154.348406 
L 157.084186 155.318606 
L 157.922864 154.902806 
L 158.202423 155.041406 
L 158.481982 155.595806 
L 158.761541 155.734406 
L 158.761541 155.734406 
" clip-path="url(#p282f5ccd2c)" style="fill: none; stroke-dasharray: 1,1.65; stroke-dashoffset: 0; stroke: #7976b8"/>
   </g>
   <g id="line2d_107">
    <path d="M 19.261541 138.132206 
L 19.5411 141.320006 
L 20.100218 143.676206 
L 20.379778 144.092006 
L 20.938896 146.032406 
L 21.218455 158.090606 
L 21.498014 157.813406 
L 21.777573 159.060806 
L 22.057132 158.229206 
L 22.336691 158.645006 
L 22.616251 158.506406 
L 23.175369 160.585406 
L 23.454928 163.357406 
L 23.734487 162.664406 
L 24.014046 163.357406 
L 24.293605 162.803006 
L 24.573164 162.803006 
L 25.132283 162.387206 
L 25.411842 162.941606 
L 25.691401 163.218806 
L 25.97096 162.248606 
L 26.250519 163.080206 
L 26.530078 162.803006 
L 26.809637 162.803006 
L 27.089196 162.387206 
L 27.368756 162.803006 
L 27.648315 162.248606 
L 27.927874 162.525806 
L 28.207433 162.525806 
L 28.486992 163.218806 
L 28.766551 162.941606 
L 29.04611 162.248606 
L 29.325669 162.387206 
L 29.605229 162.387206 
L 29.884788 162.941606 
L 30.443906 162.941606 
L 31.282583 162.525806 
L 31.562142 162.525806 
L 31.841701 162.248606 
L 32.40082 162.803006 
L 32.680379 162.248606 
L 32.959938 163.080206 
L 33.519056 162.248606 
L 34.078174 162.803006 
L 34.357734 162.525806 
L 34.637293 162.941606 
L 34.916852 162.525806 
L 35.196411 162.525806 
L 35.47597 162.941606 
L 35.755529 162.110006 
L 36.035088 162.525806 
L 36.314647 162.664406 
L 36.594206 163.080206 
L 36.873766 162.387206 
L 37.153325 163.080206 
L 37.992002 162.387206 
L 38.55112 163.080206 
L 38.830679 163.080206 
L 39.110239 162.941606 
L 39.389798 162.525806 
L 39.669357 162.941606 
L 39.948916 162.387206 
L 40.228475 162.525806 
L 40.787593 162.248606 
L 41.626271 163.080206 
L 41.90583 162.387206 
L 42.185389 162.803006 
L 42.464948 162.664406 
L 42.744507 162.664406 
L 43.024066 163.080206 
L 43.303625 162.525806 
L 43.862744 163.357406 
L 44.421862 162.387206 
L 44.98098 163.357406 
L 45.260539 162.248606 
L 45.540098 162.525806 
L 45.819657 161.832806 
L 46.099216 162.525806 
L 46.378776 162.803006 
L 46.658335 162.525806 
L 46.937894 162.941606 
L 47.217453 162.525806 
L 47.497012 163.080206 
L 47.776571 162.941606 
L 48.05613 162.248606 
L 48.335689 162.664406 
L 48.615249 162.803006 
L 49.174367 163.218806 
L 49.453926 161.971406 
L 49.733485 163.080206 
L 50.013044 162.387206 
L 50.851721 163.218806 
L 51.131281 162.941606 
L 51.41084 162.941606 
L 51.690399 163.080206 
L 51.969958 163.357406 
L 52.249517 163.080206 
L 52.529076 163.218806 
L 52.808635 162.803006 
L 53.088194 163.080206 
L 53.367754 162.941606 
L 53.647313 163.080206 
L 53.926872 163.357406 
L 54.206431 162.941606 
L 54.48599 162.803006 
L 54.765549 162.525806 
L 55.045108 162.803006 
L 55.324667 162.387206 
L 55.604227 162.803006 
L 55.883786 162.803006 
L 56.163345 162.525806 
L 56.442904 162.664406 
L 56.722463 162.664406 
L 57.002022 163.080206 
L 57.56114 162.387206 
L 57.840699 163.218806 
L 58.120259 163.080206 
L 58.399818 162.803006 
L 58.679377 162.803006 
L 58.958936 162.941606 
L 59.238495 162.525806 
L 59.518054 163.080206 
L 59.797613 162.941606 
L 60.077172 163.080206 
L 60.91585 162.110006 
L 61.195409 162.664406 
L 61.474968 162.387206 
L 62.034086 162.664406 
L 62.313645 163.357406 
L 62.593204 162.387206 
L 63.152323 162.803006 
L 63.431882 162.664406 
L 63.991 162.664406 
L 64.270559 162.525806 
L 64.550118 162.525806 
L 64.829677 162.941606 
L 65.388796 162.941606 
L 65.668355 162.525806 
L 65.947914 162.941606 
L 66.227473 162.803006 
L 66.507032 162.803006 
L 66.786591 162.664406 
L 67.06615 162.664406 
L 67.345709 163.218806 
L 67.625269 162.664406 
L 67.904828 162.525806 
L 68.184387 163.080206 
L 69.023064 162.664406 
L 69.302623 163.218806 
L 69.582182 162.525806 
L 69.861742 162.525806 
L 70.141301 162.664406 
L 70.42086 163.080206 
L 70.700419 163.080206 
L 71.259537 162.525806 
L 71.539096 162.664406 
L 71.818655 163.218806 
L 72.098214 162.941606 
L 72.377774 162.248606 
L 72.657333 163.080206 
L 72.936892 162.664406 
L 73.216451 162.525806 
L 73.49601 162.525806 
L 73.775569 163.357406 
L 74.334687 162.525806 
L 74.893806 162.941606 
L 75.173365 162.387206 
L 75.452924 162.387206 
L 75.732483 162.248606 
L 76.012042 162.525806 
L 76.291601 163.357406 
L 76.850719 162.664406 
L 77.130279 163.218806 
L 77.409838 162.664406 
L 77.689397 163.218806 
L 77.968956 163.218806 
L 78.248515 163.080206 
L 78.528074 162.525806 
L 78.807633 163.357406 
L 79.087192 162.803006 
L 79.646311 163.218806 
L 80.205429 162.941606 
L 80.484988 163.218806 
L 80.764547 162.803006 
L 81.044106 163.080206 
L 81.323665 162.525806 
L 81.603224 162.803006 
L 81.882784 162.664406 
L 82.162343 162.387206 
L 82.441902 162.941606 
L 82.721461 161.971406 
L 83.00102 162.941606 
L 83.280579 162.525806 
L 83.560138 163.080206 
L 83.839697 162.387206 
L 84.119257 162.664406 
L 84.678375 162.664406 
L 84.957934 162.387206 
L 85.237493 162.664406 
L 85.517052 163.218806 
L 85.796611 162.387206 
L 86.07617 163.080206 
L 86.35573 163.080206 
L 86.635289 163.357406 
L 86.914848 162.664406 
L 87.194407 162.525806 
L 87.473966 162.664406 
L 87.753525 162.941606 
L 88.033084 162.664406 
L 88.312643 163.080206 
L 88.592202 163.218806 
L 88.871762 162.803006 
L 89.43088 162.803006 
L 89.710439 162.387206 
L 89.989998 162.387206 
L 90.269557 162.525806 
L 90.549116 162.941606 
L 90.828675 162.941606 
L 91.108235 162.803006 
L 91.387794 162.248606 
L 91.667353 162.664406 
L 91.946912 162.525806 
L 92.226471 163.357406 
L 92.50603 163.218806 
L 92.785589 162.664406 
L 93.065148 162.664406 
L 93.344707 162.525806 
L 93.624267 162.664406 
L 93.903826 163.080206 
L 94.183385 162.664406 
L 94.462944 163.080206 
L 94.742503 162.803006 
L 95.301621 162.803006 
L 95.58118 163.080206 
L 95.86074 163.080206 
L 96.140299 162.248606 
L 96.419858 162.664406 
L 96.699417 162.525806 
L 96.978976 162.525806 
L 97.538094 162.803006 
L 97.817653 162.248606 
L 98.097212 162.941606 
L 98.376772 163.080206 
L 98.656331 162.941606 
L 98.93589 163.218806 
L 99.495008 163.218806 
L 99.774567 162.664406 
L 100.054126 162.803006 
L 100.613245 162.803006 
L 100.892804 163.218806 
L 101.172363 163.080206 
L 101.451922 162.525806 
L 101.731481 162.664406 
L 102.01104 162.387206 
L 102.290599 162.387206 
L 102.570158 162.941606 
L 102.849717 162.387206 
L 103.129277 162.525806 
L 103.408836 162.387206 
L 103.688395 162.941606 
L 104.247513 162.525806 
L 104.527072 162.525806 
L 104.806631 162.664406 
L 105.08619 162.664406 
L 105.645309 163.218806 
L 105.924868 162.664406 
L 106.204427 163.218806 
L 106.483986 162.941606 
L 106.763545 163.496006 
L 107.043104 162.941606 
L 107.322663 162.664406 
L 107.602222 162.803006 
L 107.881782 162.387206 
L 108.161341 163.357406 
L 108.4409 163.357406 
L 108.720459 162.664406 
L 109.279577 163.080206 
L 109.559136 162.387206 
L 109.838695 163.357406 
L 110.397814 162.110006 
L 110.677373 162.387206 
L 110.956932 163.080206 
L 111.236491 162.803006 
L 111.51605 162.803006 
L 111.795609 163.080206 
L 112.075168 162.941606 
L 112.354728 162.525806 
L 112.913846 162.803006 
L 113.193405 163.080206 
L 113.472964 162.525806 
L 113.752523 162.664406 
L 114.032082 162.664406 
L 114.311641 163.218806 
L 114.5912 162.525806 
L 114.87076 162.525806 
L 115.150319 162.941606 
L 115.429878 163.634606 
L 115.709437 162.525806 
L 115.988996 162.387206 
L 116.548114 163.218806 
L 116.827673 163.218806 
L 117.107233 162.525806 
L 117.386792 163.080206 
L 118.225469 162.387206 
L 118.505028 162.525806 
L 118.784587 163.496006 
L 119.064146 161.971406 
L 119.343705 163.080206 
L 119.623265 162.803006 
L 119.902824 163.080206 
L 120.182383 162.803006 
L 120.461942 162.803006 
L 120.741501 162.525806 
L 121.02106 163.496006 
L 121.580178 162.525806 
L 122.139297 162.803006 
L 122.418856 163.357406 
L 122.698415 163.218806 
L 122.977974 162.664406 
L 123.257533 163.357406 
L 123.537092 163.357406 
L 123.816651 162.803006 
L 124.09621 162.803006 
L 124.37577 162.525806 
L 124.655329 162.664406 
L 124.934888 162.941606 
L 125.214447 162.664406 
L 125.494006 163.080206 
L 125.773565 162.941606 
L 126.053124 163.496006 
L 126.332683 162.664406 
L 126.612243 162.525806 
L 126.891802 162.110006 
L 127.171361 162.941606 
L 127.45092 162.387206 
L 127.730479 163.080206 
L 128.010038 163.357406 
L 128.289597 162.525806 
L 128.848715 163.357406 
L 129.128275 162.664406 
L 129.407834 162.525806 
L 129.687393 162.941606 
L 129.966952 162.387206 
L 130.52607 163.218806 
L 130.805629 162.941606 
L 131.085188 163.218806 
L 131.364748 162.803006 
L 131.644307 162.664406 
L 131.923866 163.218806 
L 132.482984 162.803006 
L 132.762543 163.357406 
L 133.042102 162.941606 
L 133.60122 162.941606 
L 133.88078 162.525806 
L 134.160339 163.218806 
L 134.439898 162.664406 
L 134.719457 162.387206 
L 134.999016 162.803006 
L 135.558134 162.803006 
L 135.837693 162.941606 
L 136.117253 162.803006 
L 136.396812 163.080206 
L 136.676371 162.664406 
L 136.95593 162.941606 
L 137.515048 162.525806 
L 137.794607 163.080206 
L 138.074166 162.941606 
L 138.353726 162.387206 
L 138.912844 163.357406 
L 139.192403 162.941606 
L 139.471962 162.941606 
L 139.751521 162.664406 
L 140.03108 162.803006 
L 140.310639 162.803006 
L 140.869758 163.080206 
L 141.149317 162.387206 
L 141.428876 162.941606 
L 141.987994 162.941606 
L 142.267553 163.357406 
L 142.547112 163.218806 
L 142.826671 163.357406 
L 143.106231 162.110006 
L 143.665349 162.525806 
L 143.944908 162.525806 
L 144.224467 163.496006 
L 144.504026 162.110006 
L 144.783585 162.110006 
L 145.063144 162.803006 
L 145.342703 162.664406 
L 145.622263 162.803006 
L 145.901822 162.387206 
L 146.181381 162.803006 
L 146.46094 162.248606 
L 146.740499 163.218806 
L 147.299617 162.248606 
L 147.579176 162.525806 
L 147.858736 162.387206 
L 148.417854 162.941606 
L 148.697413 162.248606 
L 148.976972 162.664406 
L 149.256531 163.357406 
L 149.53609 162.803006 
L 149.815649 162.803006 
L 150.095208 162.525806 
L 150.374768 162.803006 
L 150.654327 162.248606 
L 150.933886 162.803006 
L 151.213445 162.664406 
L 151.493004 162.387206 
L 151.772563 163.218806 
L 152.052122 162.664406 
L 152.331681 163.080206 
L 152.611241 162.941606 
L 152.8908 162.664406 
L 153.170359 162.803006 
L 153.449918 162.525806 
L 153.729477 162.941606 
L 154.009036 163.080206 
L 154.288595 162.525806 
L 154.568154 162.803006 
L 154.847713 162.248606 
L 155.127273 163.218806 
L 155.406832 163.357406 
L 155.686391 162.803006 
L 155.96595 163.496006 
L 156.245509 162.941606 
L 156.525068 162.941606 
L 156.804627 162.664406 
L 157.084186 162.941606 
L 157.363746 162.941606 
L 157.643305 163.218806 
L 157.922864 163.218806 
L 158.202423 163.080206 
L 158.481982 163.080206 
L 158.761541 162.941606 
L 158.761541 162.941606 
" clip-path="url(#p282f5ccd2c)" style="fill: none; stroke-dasharray: 6.4,1.6,1,1.6; stroke-dashoffset: 0; stroke: #201f3d"/>
   </g>
   <g id="patch_3">
    <path d="M 19.261541 174.445406 
L 19.261541 35.845406 
" style="fill: none; stroke: #000000; stroke-width: 0.5; stroke-linejoin: miter; stroke-linecap: square"/>
   </g>
   <g id="patch_4">
    <path d="M 158.761541 174.445406 
L 158.761541 35.845406 
" style="fill: none; stroke: #000000; stroke-width: 0.5; stroke-linejoin: miter; stroke-linecap: square"/>
   </g>
   <g id="patch_5">
    <path d="M 19.261541 174.445406 
L 158.761541 174.445406 
" style="fill: none; stroke: #000000; stroke-width: 0.5; stroke-linejoin: miter; stroke-linecap: square"/>
   </g>
   <g id="patch_6">
    <path d="M 19.261541 35.845406 
L 158.761541 35.845406 
" style="fill: none; stroke: #000000; stroke-width: 0.5; stroke-linejoin: miter; stroke-linecap: square"/>
   </g>
   <g id="text_12">
    <!-- Evolucin de Mxico -->
    <g transform="translate(47.93387 10.084396) scale(0.096 -0.096)">
     <defs>
      <path id="NimbusRomNo9L-Regu-45" d="M 3821 1078 
L 3642 1078 
C 3322 389 3046 237 2131 237 
L 1958 237 
C 1645 237 1376 269 1331 315 
C 1299 334 1286 404 1286 514 
L 1286 2106 
L 2272 2106 
C 2797 2106 2893 2020 2976 1472 
L 3123 1472 
L 3123 2957 
L 2976 2957 
C 2931 2703 2906 2610 2835 2523 
C 2752 2417 2573 2368 2272 2368 
L 1286 2368 
L 1286 3766 
C 1286 3943 1325 3981 1498 3981 
L 2362 3981 
C 3085 3981 3226 3886 3334 3314 
L 3494 3314 
L 3475 4224 
L 77 4224 
L 77 4102 
C 550 4064 634 3974 634 3525 
L 634 679 
C 634 230 544 134 77 134 
L 77 0 
L 3533 0 
L 3821 1078 
z
" transform="scale(0.015625)"/>
      <path id="NimbusRomNo9L-Regu-76" d="M 3053 2854 
L 2163 2854 
L 2163 2758 
C 2368 2739 2464 2675 2464 2552 
C 2464 2488 2451 2424 2426 2359 
L 1792 695 
L 1139 2340 
C 1101 2431 1082 2520 1082 2578 
C 1082 2694 1152 2739 1376 2758 
L 1376 2854 
L 122 2854 
L 122 2752 
C 365 2752 410 2688 704 2024 
L 1472 175 
C 1485 137 1504 91 1523 40 
C 1562 -76 1600 -128 1638 -128 
C 1677 -128 1722 -44 1818 193 
L 2637 2257 
C 2822 2694 2861 2739 3053 2758 
L 3053 2854 
z
" transform="scale(0.015625)"/>
      <path id="NimbusRomNo9L-Regu-6f" d="M 1600 2944 
C 768 2944 186 2330 186 1446 
C 186 582 781 -64 1587 -64 
C 2394 -64 3008 614 3008 1498 
C 3008 2336 2419 2944 1600 2944 
z
M 1517 2765 
C 2054 2765 2432 2150 2432 1274 
C 2432 550 2144 115 1664 115 
C 1414 115 1178 269 1043 525 
C 864 858 762 1306 762 1760 
C 762 2368 1062 2765 1517 2765 
z
" transform="scale(0.015625)"/>
      <path id="NimbusRomNo9L-Regu-6c" d="M 122 4000 
L 160 4000 
C 230 4000 307 4000 358 4000 
C 563 4000 627 3910 627 3610 
L 627 557 
C 627 211 538 128 134 96 
L 134 0 
L 1645 0 
L 1645 109 
C 1242 109 1165 173 1165 528 
L 1165 4371 
L 1139 4384 
C 806 4275 563 4211 122 4103 
L 122 4000 
z
" transform="scale(0.015625)"/>
      <path id="NimbusRomNo9L-Regu-75" d="M 3066 320 
L 3034 320 
C 2739 320 2669 390 2669 685 
L 2669 2880 
L 1658 2880 
L 1658 2758 
C 2054 2758 2131 2694 2131 2375 
L 2131 875 
C 2131 697 2099 607 2010 537 
C 1837 397 1638 320 1446 320 
C 1197 320 992 537 992 805 
L 992 2880 
L 58 2880 
L 58 2778 
C 365 2778 454 2682 454 2387 
L 454 770 
C 454 263 762 -64 1229 -64 
C 1466 -64 1715 38 1888 211 
L 2163 486 
L 2163 -45 
L 2189 -58 
C 2509 70 2739 141 3066 230 
L 3066 320 
z
" transform="scale(0.015625)"/>
      <path id="NimbusRomNo9L-Regu-63" d="M 2547 998 
C 2240 550 2010 397 1645 397 
C 1062 397 653 909 653 1645 
C 653 2304 1005 2758 1523 2758 
C 1754 2758 1837 2688 1901 2451 
L 1939 2310 
C 1990 2131 2106 2016 2240 2016 
C 2406 2016 2547 2138 2547 2285 
C 2547 2643 2099 2944 1562 2944 
C 1248 2944 922 2816 659 2586 
C 339 2304 160 1869 160 1363 
C 160 531 666 -64 1376 -64 
C 1664 -64 1920 38 2150 237 
C 2323 390 2445 563 2637 941 
L 2547 998 
z
" transform="scale(0.015625)"/>
      <path id="NimbusRomNo9L-Regu-69" d="M 1120 2929 
L 128 2579 
L 128 2484 
L 179 2490 
C 256 2502 339 2509 397 2509 
C 550 2509 608 2406 608 2125 
L 608 640 
C 608 179 544 109 102 109 
L 102 0 
L 1619 0 
L 1619 96 
C 1197 128 1146 191 1146 650 
L 1146 2910 
L 1120 2929 
z
M 819 4352 
C 646 4352 499 4205 499 4026 
C 499 3847 640 3699 819 3699 
C 1005 3699 1152 3840 1152 4026 
C 1152 4205 1005 4352 819 4352 
z
" transform="scale(0.015625)"/>
      <path id="NimbusRomNo9L-Regu-b4" d="M 851 3264 
L 1837 3882 
C 1971 3964 2029 4047 2029 4148 
C 2029 4275 1946 4352 1805 4352 
C 1709 4352 1651 4320 1536 4206 
L 595 3264 
L 851 3264 
z
" transform="scale(0.015625)"/>
      <path id="NimbusRomNo9L-Regu-6e" d="M 102 2579 
C 141 2598 205 2605 275 2605 
C 454 2605 512 2509 512 2195 
L 512 608 
C 512 243 442 154 115 128 
L 115 32 
L 1472 32 
L 1472 128 
C 1146 154 1050 230 1050 461 
L 1050 2259 
C 1357 2547 1498 2624 1709 2624 
C 2022 2624 2176 2426 2176 2003 
L 2176 666 
C 2176 262 2093 154 1773 128 
L 1773 32 
L 3104 32 
L 3104 128 
C 2790 160 2714 237 2714 550 
L 2714 2016 
C 2714 2618 2432 2976 1958 2976 
C 1664 2976 1466 2867 1030 2458 
L 1030 2963 
L 986 2976 
C 672 2861 454 2790 102 2688 
L 102 2579 
z
" transform="scale(0.015625)"/>
      <path id="NimbusRomNo9L-Regu-64" d="M 2202 -64 
L 3142 269 
L 3142 365 
C 3027 365 3014 365 2995 365 
C 2765 365 2714 435 2714 731 
L 2714 4364 
L 2682 4377 
C 2374 4268 2150 4204 1741 4096 
L 1741 3994 
C 1792 4000 1830 4000 1882 4000 
C 2118 4000 2176 3936 2176 3672 
L 2176 2669 
C 1933 2874 1760 2944 1504 2944 
C 768 2944 173 2221 173 1312 
C 173 493 653 -64 1357 -64 
C 1715 -64 1958 64 2176 365 
L 2176 -45 
L 2202 -64 
z
M 2176 653 
C 2176 608 2131 531 2067 461 
C 1952 333 1792 269 1606 269 
C 1075 269 723 781 723 1568 
C 723 2291 1037 2765 1523 2765 
C 1862 2765 2176 2464 2176 2125 
L 2176 653 
z
" transform="scale(0.015625)"/>
      <path id="NimbusRomNo9L-Regu-65" d="M 2611 1053 
C 2304 564 2029 378 1619 378 
C 1254 378 979 564 794 930 
C 678 1174 634 1386 621 1779 
L 2592 1779 
C 2541 2193 2477 2377 2317 2581 
C 2125 2811 1830 2944 1498 2944 
C 1178 2944 877 2829 634 2611 
C 333 2349 160 1894 160 1370 
C 160 486 621 -64 1357 -64 
C 1965 -64 2445 315 2714 1008 
L 2611 1053 
z
M 634 1984 
C 704 2479 922 2714 1312 2714 
C 1702 2714 1856 2535 1939 1984 
L 634 1984 
z
" transform="scale(0.015625)"/>
      <path id="NimbusRomNo9L-Regu-4d" d="M 4314 3667 
L 4314 751 
C 4314 217 4237 134 3731 134 
L 3731 0 
L 5523 0 
L 5523 134 
C 5056 134 4966 223 4966 681 
L 4966 3536 
C 4966 3993 5050 4077 5523 4115 
L 5523 4237 
L 4250 4237 
L 2835 1004 
L 1357 4237 
L 90 4237 
L 90 4096 
C 614 4096 698 4019 698 3550 
L 698 943 
C 698 282 608 159 77 121 
L 77 0 
L 1581 0 
L 1581 134 
C 1088 134 979 282 979 931 
L 979 3520 
L 2586 0 
L 2675 0 
L 4314 3667 
z
" transform="scale(0.015625)"/>
      <path id="NimbusRomNo9L-Regu-78" d="M 1779 0 
L 3066 0 
L 3066 96 
C 2867 96 2739 198 2541 480 
L 1722 1735 
L 2253 2502 
C 2374 2675 2566 2778 2771 2778 
L 2771 2880 
L 1760 2880 
L 1760 2778 
C 1952 2778 2016 2740 2016 2649 
C 2016 2571 1939 2430 1779 2229 
C 1747 2191 1670 2075 1587 1946 
L 1498 2074 
C 1318 2342 1203 2560 1203 2643 
C 1203 2733 1286 2778 1478 2778 
L 1478 2880 
L 154 2880 
L 154 2778 
L 211 2778 
C 403 2778 506 2695 704 2396 
L 1306 1479 
L 576 422 
C 384 160 320 115 109 96 
L 109 0 
L 1037 0 
L 1037 96 
C 858 96 781 128 781 211 
C 781 250 826 346 909 474 
L 1414 1261 
L 1997 365 
C 2022 326 2035 288 2035 250 
C 2035 123 1990 96 1779 96 
L 1779 0 
z
" transform="scale(0.015625)"/>
     </defs>
     <use xlink:href="#NimbusRomNo9L-Regu-45" transform="scale(0.996264)"/>
     <use xlink:href="#NimbusRomNo9L-Regu-76" transform="translate(60.871631 0) scale(0.996264)"/>
     <use xlink:href="#NimbusRomNo9L-Regu-6f" transform="translate(108.69282 0) scale(0.996264)"/>
     <use xlink:href="#NimbusRomNo9L-Regu-6c" transform="translate(158.506021 0) scale(0.996264)"/>
     <use xlink:href="#NimbusRomNo9L-Regu-75" transform="translate(186.20119 0) scale(0.996264)"/>
     <use xlink:href="#NimbusRomNo9L-Regu-63" transform="translate(236.014391 0) scale(0.996264)"/>
     <use xlink:href="#NimbusRomNo9L-Regu-69" transform="translate(280.247959 0) scale(0.996264)"/>
     <use xlink:href="#NimbusRomNo9L-Regu-b4" transform="translate(316.262122 0.498056) scale(0.996264)"/>
     <use xlink:href="#NimbusRomNo9L-Regu-6f" transform="translate(307.943129 0) scale(0.996264)"/>
     <use xlink:href="#NimbusRomNo9L-Regu-6e" transform="translate(357.756329 0) scale(0.996264)"/>
     <use xlink:href="#NimbusRomNo9L-Regu-64" transform="translate(432.47613 0) scale(0.996264)"/>
     <use xlink:href="#NimbusRomNo9L-Regu-65" transform="translate(482.289331 0) scale(0.996264)"/>
     <use xlink:href="#NimbusRomNo9L-Regu-4d" transform="translate(551.4295 0) scale(0.996264)"/>
     <use xlink:href="#NimbusRomNo9L-Regu-b4" transform="translate(645.525583 0.498056) scale(0.996264)"/>
     <use xlink:href="#NimbusRomNo9L-Regu-65" transform="translate(639.996406 0) scale(0.996264)"/>
     <use xlink:href="#NimbusRomNo9L-Regu-78" transform="translate(684.229975 0) scale(0.996264)"/>
     <use xlink:href="#NimbusRomNo9L-Regu-69" transform="translate(734.043175 0) scale(0.996264)"/>
     <use xlink:href="#NimbusRomNo9L-Regu-63" transform="translate(761.738345 0) scale(0.996264)"/>
     <use xlink:href="#NimbusRomNo9L-Regu-6f" transform="translate(805.971914 0) scale(0.996264)"/>
    </g>
    <!-- Barabsi-Albert (m=1) - Homofilia: 0\%  -->
    <g transform="translate(12.71454 19.936215) scale(0.096 -0.096)">
     <defs>
      <path id="NimbusRomNo9L-Regu-42" d="M 109 4237 
L 109 4096 
C 646 4096 723 4026 723 3548 
L 723 689 
C 723 212 640 128 109 128 
L 109 0 
L 2246 0 
C 2746 0 3200 136 3437 356 
C 3667 564 3795 855 3795 1165 
C 3795 1451 3680 1710 3482 1897 
C 3290 2072 3117 2150 2701 2253 
C 3034 2335 3168 2398 3322 2531 
C 3482 2671 3578 2903 3578 3163 
C 3578 3871 3008 4237 1901 4237 
L 109 4237 
z
M 1376 2112 
C 1997 2112 2291 2080 2522 1982 
C 2886 1827 3059 1568 3059 1159 
C 3059 809 2925 555 2669 406 
C 2464 290 2202 238 1779 238 
C 1466 238 1376 296 1376 504 
L 1376 2112 
z
M 1376 2368 
L 1376 3812 
C 1376 3944 1421 4001 1517 4001 
L 1798 4001 
C 2534 4001 2925 3699 2925 3137 
C 2925 2646 2586 2368 1984 2368 
L 1376 2368 
z
" transform="scale(0.015625)"/>
      <path id="NimbusRomNo9L-Regu-61" d="M 2829 423 
C 2720 333 2643 301 2547 301 
C 2400 301 2355 390 2355 672 
L 2355 1920 
C 2355 2253 2323 2438 2227 2592 
C 2086 2822 1811 2944 1434 2944 
C 832 2944 358 2630 358 2227 
C 358 2080 486 1952 634 1952 
C 787 1952 922 2080 922 2221 
C 922 2246 915 2278 909 2323 
C 896 2381 890 2432 890 2477 
C 890 2650 1094 2790 1350 2790 
C 1664 2790 1837 2605 1837 2259 
L 1837 1869 
C 851 1472 742 1421 467 1178 
C 326 1050 237 832 237 621 
C 237 218 518 -64 909 -64 
C 1190 -64 1453 70 1843 403 
C 1875 70 1990 -64 2253 -64 
C 2470 -64 2605 13 2829 256 
L 2829 423 
z
M 1837 783 
C 1837 584 1805 526 1670 449 
C 1517 359 1338 301 1203 301 
C 979 301 800 520 800 796 
L 800 822 
C 800 1201 1062 1433 1837 1715 
L 1837 783 
z
" transform="scale(0.015625)"/>
      <path id="NimbusRomNo9L-Regu-72" d="M 45 2496 
C 134 2515 192 2522 269 2522 
C 429 2522 486 2419 486 2138 
L 486 538 
C 486 218 442 173 32 96 
L 32 0 
L 1568 0 
L 1568 102 
C 1133 102 1024 199 1024 565 
L 1024 2013 
C 1024 2219 1299 2541 1472 2541 
C 1510 2541 1568 2509 1638 2445 
C 1741 2355 1811 2317 1894 2317 
C 2048 2317 2144 2426 2144 2605 
C 2144 2816 2010 2944 1792 2944 
C 1523 2944 1338 2797 1024 2343 
L 1024 2931 
L 992 2944 
C 653 2803 422 2721 45 2599 
L 45 2496 
z
" transform="scale(0.015625)"/>
      <path id="NimbusRomNo9L-Regu-62" d="M 979 4364 
L 947 4377 
C 678 4281 506 4230 205 4147 
L 19 4096 
L 19 3994 
C 58 4000 83 4000 128 4000 
C 384 4000 442 3942 442 3673 
L 442 347 
C 442 147 986 -64 1498 -64 
C 2342 -64 2995 640 2995 1555 
C 2995 2342 2509 2944 1869 2944 
C 1478 2944 1107 2714 979 2400 
L 979 4364 
z
M 979 2061 
C 979 2310 1280 2541 1613 2541 
C 2112 2541 2432 2042 2432 1261 
C 2432 550 2125 141 1600 141 
C 1267 141 979 288 979 448 
L 979 2061 
z
" transform="scale(0.015625)"/>
      <path id="NimbusRomNo9L-Regu-73" d="M 2016 2010 
L 1990 2880 
L 1920 2880 
L 1907 2867 
C 1850 2822 1843 2816 1818 2816 
C 1779 2816 1715 2829 1645 2861 
C 1504 2915 1363 2944 1197 2944 
C 691 2944 326 2616 326 2154 
C 326 1796 531 1539 1075 1231 
L 1446 1020 
C 1670 892 1779 737 1779 539 
C 1779 256 1574 77 1248 77 
C 1030 77 832 159 710 298 
C 576 455 518 600 435 960 
L 333 960 
L 333 -39 
L 416 -39 
C 461 33 486 48 563 48 
C 621 48 710 35 858 -2 
C 1037 -39 1210 -64 1325 -64 
C 1818 -64 2227 308 2227 757 
C 2227 1077 2074 1289 1690 1520 
L 998 1930 
C 819 2033 723 2194 723 2367 
C 723 2624 922 2803 1216 2803 
C 1581 2803 1773 2583 1920 2010 
L 2016 2010 
z
" transform="scale(0.015625)"/>
      <path id="NimbusRomNo9L-Regu-2d" d="M 250 1619 
L 250 1216 
L 1824 1216 
L 1824 1619 
L 250 1619 
z
" transform="scale(0.015625)"/>
      <path id="NimbusRomNo9L-Regu-41" d="M 4518 128 
C 4230 128 4166 192 3942 667 
L 2349 4320 
L 2221 4320 
L 890 1168 
C 480 231 403 128 96 128 
L 96 0 
L 1363 0 
L 1363 128 
C 1056 128 928 212 928 393 
C 928 470 947 560 979 645 
L 1274 1401 
L 2950 1401 
L 3213 778 
C 3290 602 3334 434 3334 342 
C 3334 180 3226 128 2886 128 
L 2886 0 
L 4518 0 
L 4518 128 
z
M 1382 1664 
L 2118 3416 
L 2861 1664 
L 1382 1664 
z
" transform="scale(0.015625)"/>
      <path id="NimbusRomNo9L-Regu-74" d="M 1632 2880 
L 986 2880 
L 986 3622 
C 986 3686 979 3706 941 3706 
C 896 3648 858 3590 813 3526 
C 570 3174 294 2867 192 2841 
C 122 2794 83 2748 83 2715 
C 83 2695 90 2682 109 2682 
L 448 2682 
L 448 751 
C 448 212 640 -64 1018 -64 
C 1331 -64 1574 90 1786 423 
L 1702 493 
C 1568 333 1459 269 1318 269 
C 1082 269 986 443 986 847 
L 986 2682 
L 1632 2682 
L 1632 2880 
z
" transform="scale(0.015625)"/>
      <path id="NimbusRomNo9L-Regu-28" d="M 1888 4326 
C 1414 4019 1222 3853 986 3558 
C 531 3002 307 2362 307 1613 
C 307 800 544 173 1107 -480 
C 1370 -787 1536 -928 1869 -1133 
L 1946 -1030 
C 1434 -627 1254 -403 1082 77 
C 928 506 858 992 858 1632 
C 858 2304 941 2829 1114 3226 
C 1293 3622 1485 3853 1946 4224 
L 1888 4326 
z
" transform="scale(0.015625)"/>
      <path id="NimbusRomNo9L-Regu-6d" d="M 122 2547 
C 205 2566 256 2573 326 2573 
C 493 2573 550 2470 550 2162 
L 550 539 
C 550 192 461 96 102 96 
L 102 0 
L 1523 0 
L 1523 96 
C 1184 96 1088 166 1088 418 
L 1088 2234 
C 1088 2246 1139 2310 1184 2355 
C 1344 2502 1619 2611 1843 2611 
C 2125 2611 2266 2385 2266 1932 
L 2266 528 
C 2266 167 2195 96 1830 96 
L 1830 0 
L 3264 0 
L 3264 96 
C 2899 96 2803 205 2803 603 
L 2803 2221 
C 2995 2496 3206 2611 3501 2611 
C 3866 2611 3981 2438 3981 1907 
L 3981 557 
C 3981 192 3930 141 3558 96 
L 3558 0 
L 4960 0 
L 4960 96 
L 4794 115 
C 4602 115 4518 230 4518 480 
L 4518 1802 
C 4518 2559 4269 2944 3776 2944 
C 3405 2944 3078 2778 2733 2407 
C 2618 2771 2400 2944 2054 2944 
C 1773 2944 1594 2854 1062 2451 
L 1062 2931 
L 1018 2944 
C 691 2822 474 2752 122 2656 
L 122 2547 
z
" transform="scale(0.015625)"/>
      <path id="NimbusRomNo9L-Regu-3d" d="M 3418 2470 
L 192 2470 
L 192 2048 
L 3418 2048 
L 3418 2470 
z
M 3418 1190 
L 192 1190 
L 192 768 
L 3418 768 
L 3418 1190 
z
" transform="scale(0.015625)"/>
      <path id="NimbusRomNo9L-Regu-29" d="M 243 -1133 
C 717 -826 909 -659 1146 -365 
C 1600 192 1824 832 1824 1581 
C 1824 2400 1587 3021 1024 3674 
C 762 3981 595 4122 262 4326 
L 186 4224 
C 698 3821 870 3597 1050 3117 
C 1203 2688 1274 2202 1274 1562 
C 1274 896 1190 365 1018 -26 
C 838 -429 646 -659 186 -1030 
L 243 -1133 
z
" transform="scale(0.015625)"/>
      <path id="NimbusRomNo9L-Regu-48" d="M 1338 2304 
L 1338 3533 
C 1338 3990 1408 4059 1901 4104 
L 1901 4224 
L 122 4224 
L 122 4104 
C 614 4059 685 3989 685 3527 
L 685 749 
C 685 210 621 134 122 134 
L 122 0 
L 1901 0 
L 1901 121 
C 1421 159 1338 242 1338 699 
L 1338 2022 
L 3277 2022 
L 3277 757 
C 3277 211 3213 134 2714 134 
L 2714 0 
L 4493 0 
L 4493 121 
C 4013 159 3930 242 3930 696 
L 3930 3529 
C 3930 3989 4000 4059 4493 4104 
L 4493 4224 
L 2714 4224 
L 2714 4104 
C 3206 4059 3277 3990 3277 3533 
L 3277 2304 
L 1338 2304 
z
" transform="scale(0.015625)"/>
      <path id="NimbusRomNo9L-Regu-2" d="M 198 2669 
L 634 2669 
L 634 566 
C 634 148 563 64 205 64 
L 205 -38 
L 1613 -38 
L 1613 58 
C 1254 84 1171 175 1171 532 
L 1171 2669 
L 1722 2669 
C 2336 2669 2368 2650 2368 2305 
L 2368 591 
C 2368 149 2323 90 1926 58 
L 1926 -38 
L 3334 -38 
L 3334 58 
C 2976 90 2906 175 2906 590 
L 2906 2289 
C 2906 2431 2906 2581 2918 2924 
L 2893 2943 
C 2611 2899 2426 2880 2170 2880 
L 1165 2880 
L 1165 3151 
C 1165 3429 1184 3624 1216 3732 
C 1306 4003 1555 4192 1843 4192 
C 2022 4192 2144 4110 2298 3895 
C 2419 3726 2502 3663 2611 3663 
C 2746 3663 2842 3770 2842 3909 
C 2842 4175 2522 4352 2029 4352 
C 1542 4352 1171 4188 941 3878 
C 749 3619 678 3385 640 2880 
L 198 2880 
L 198 2669 
z
" transform="scale(0.015625)"/>
      <path id="NimbusRomNo9L-Regu-3a" d="M 870 2944 
C 678 2944 518 2777 518 2579 
C 518 2393 678 2233 864 2233 
C 1062 2233 1229 2393 1229 2579 
C 1229 2777 1062 2944 870 2944 
z
M 870 646 
C 678 646 518 480 518 281 
C 518 96 678 -64 864 -64 
C 1062 -64 1229 96 1229 281 
C 1229 480 1062 646 870 646 
z
" transform="scale(0.015625)"/>
      <path id="NimbusRomNo9L-Regu-25" d="M 4282 2368 
C 3558 2368 2874 1622 2874 824 
C 2874 325 3181 0 3642 0 
C 3930 0 4166 102 4390 325 
C 4730 670 4941 1187 4941 1686 
C 4941 2120 4698 2368 4282 2368 
z
M 4326 2164 
C 4570 2164 4774 1934 4774 1654 
C 4774 1290 4614 856 4371 556 
C 4166 301 3981 192 3750 192 
C 3520 192 3360 357 3360 601 
C 3360 939 3539 1462 3776 1793 
C 3949 2048 4128 2164 4326 2164 
z
M 4058 4320 
L 3808 4320 
C 3462 4008 3206 3904 2810 3904 
C 2554 3904 2406 3946 2253 4064 
C 2086 4194 2003 4224 1805 4224 
C 1075 4224 390 3468 390 2662 
C 390 2217 730 1856 1146 1856 
C 1421 1856 1709 1984 1920 2209 
C 2253 2549 2458 3056 2458 3526 
C 2458 3615 2445 3693 2413 3808 
C 2528 3763 2643 3744 2829 3744 
C 3110 3744 3277 3788 3533 3931 
L 1286 -96 
L 1594 -96 
L 4058 4320 
z
M 2240 3829 
C 2278 3702 2298 3607 2298 3518 
C 2298 2802 1773 2073 1254 2073 
C 1030 2073 877 2231 877 2460 
C 877 2726 1005 3157 1178 3474 
C 1363 3816 1606 4032 1805 4032 
C 1837 4032 1850 4025 1888 3993 
C 1978 3911 2054 3879 2240 3829 
z
" transform="scale(0.015625)"/>
     </defs>
     <use xlink:href="#NimbusRomNo9L-Regu-42" transform="scale(0.996264)"/>
     <use xlink:href="#NimbusRomNo9L-Regu-61" transform="translate(66.450031 0) scale(0.996264)"/>
     <use xlink:href="#NimbusRomNo9L-Regu-72" transform="translate(110.6836 0) scale(0.996264)"/>
     <use xlink:href="#NimbusRomNo9L-Regu-61" transform="translate(143.85883 0) scale(0.996264)"/>
     <use xlink:href="#NimbusRomNo9L-Regu-62" transform="translate(188.092398 0) scale(0.996264)"/>
     <use xlink:href="#NimbusRomNo9L-Regu-b4" transform="translate(243.434776 0.498056) scale(0.996264)"/>
     <use xlink:href="#NimbusRomNo9L-Regu-61" transform="translate(237.905599 0) scale(0.996264)"/>
     <use xlink:href="#NimbusRomNo9L-Regu-73" transform="translate(282.139167 0) scale(0.996264)"/>
     <use xlink:href="#NimbusRomNo9L-Regu-69" transform="translate(320.892874 0) scale(0.996264)"/>
     <use xlink:href="#NimbusRomNo9L-Regu-2d" transform="translate(348.588043 0) scale(0.996264)"/>
     <use xlink:href="#NimbusRomNo9L-Regu-41" transform="translate(381.763273 0) scale(0.996264)"/>
     <use xlink:href="#NimbusRomNo9L-Regu-6c" transform="translate(453.693258 0) scale(0.996264)"/>
     <use xlink:href="#NimbusRomNo9L-Regu-62" transform="translate(481.388427 0) scale(0.996264)"/>
     <use xlink:href="#NimbusRomNo9L-Regu-65" transform="translate(531.201628 0) scale(0.996264)"/>
     <use xlink:href="#NimbusRomNo9L-Regu-72" transform="translate(575.435197 0) scale(0.996264)"/>
     <use xlink:href="#NimbusRomNo9L-Regu-74" transform="translate(608.610426 0) scale(0.996264)"/>
     <use xlink:href="#NimbusRomNo9L-Regu-28" transform="translate(661.212196 0) scale(0.996264)"/>
     <use xlink:href="#NimbusRomNo9L-Regu-6d" transform="translate(694.387426 0) scale(0.996264)"/>
     <use xlink:href="#NimbusRomNo9L-Regu-3d" transform="translate(771.895796 0) scale(0.996264)"/>
     <use xlink:href="#NimbusRomNo9L-Regu-31" transform="translate(828.084046 0) scale(0.996264)"/>
     <use xlink:href="#NimbusRomNo9L-Regu-29" transform="translate(877.897247 0) scale(0.996264)"/>
     <use xlink:href="#NimbusRomNo9L-Regu-2d" transform="translate(935.979077 0) scale(0.996264)"/>
     <use xlink:href="#NimbusRomNo9L-Regu-48" transform="translate(994.060907 0) scale(0.996264)"/>
     <use xlink:href="#NimbusRomNo9L-Regu-6f" transform="translate(1065.990892 0) scale(0.996264)"/>
     <use xlink:href="#NimbusRomNo9L-Regu-6d" transform="translate(1115.804092 0) scale(0.996264)"/>
     <use xlink:href="#NimbusRomNo9L-Regu-6f" transform="translate(1193.312462 0) scale(0.996264)"/>
     <use xlink:href="#NimbusRomNo9L-Regu-2" transform="translate(1243.125663 0) scale(0.996264)"/>
     <use xlink:href="#NimbusRomNo9L-Regu-6c" transform="translate(1298.51734 0) scale(0.996264)"/>
     <use xlink:href="#NimbusRomNo9L-Regu-69" transform="translate(1326.212509 0) scale(0.996264)"/>
     <use xlink:href="#NimbusRomNo9L-Regu-61" transform="translate(1353.907679 0) scale(0.996264)"/>
     <use xlink:href="#NimbusRomNo9L-Regu-3a" transform="translate(1398.141248 0) scale(0.996264)"/>
     <use xlink:href="#NimbusRomNo9L-Regu-30" transform="translate(1456.72045 0) scale(0.996264)"/>
     <use xlink:href="#NimbusRomNo9L-Regu-25" transform="translate(1506.53365 0) scale(0.996264)"/>
    </g>
    <!-- Masa crtica: 80\% - Nodos perifericos (H,C) -->
    <g transform="translate(3.6 29.845406) scale(0.096 -0.096)">
     <defs>
      <path id="NimbusRomNo9L-Regu-11" d="M 1120 2950 
L 128 2598 
L 128 2502 
L 179 2508 
C 256 2521 339 2528 397 2528 
C 550 2528 608 2424 608 2141 
L 608 644 
C 608 180 544 109 102 109 
L 102 0 
L 1619 0 
L 1619 96 
C 1197 128 1146 192 1146 654 
L 1146 2931 
L 1120 2950 
z
" transform="scale(0.015625)"/>
      <path id="NimbusRomNo9L-Regu-4e" d="M 3917 -64 
L 3917 3287 
C 3917 3669 3981 3905 4102 3987 
C 4192 4051 4282 4077 4525 4102 
L 4525 4224 
L 3021 4224 
L 3021 4102 
C 3264 4083 3354 4057 3450 4000 
C 3578 3911 3635 3681 3635 3286 
L 3635 1136 
L 1171 4224 
L 77 4224 
L 77 4102 
C 352 4102 442 4051 698 3751 
L 698 938 
C 698 281 608 159 77 121 
L 77 0 
L 1581 0 
L 1581 134 
C 1088 134 979 281 979 928 
L 979 3439 
L 3808 -64 
L 3917 -64 
z
" transform="scale(0.015625)"/>
      <path id="NimbusRomNo9L-Regu-70" d="M 58 2516 
C 115 2522 160 2522 218 2522 
C 435 2522 480 2458 480 2155 
L 480 -855 
C 480 -1189 410 -1261 32 -1299 
L 32 -1408 
L 1581 -1408 
L 1581 -1293 
C 1101 -1293 1018 -1222 1018 -816 
L 1018 199 
C 1242 -13 1395 -77 1664 -77 
C 2419 -77 3008 643 3008 1575 
C 3008 2372 2560 2944 1939 2944 
C 1581 2944 1299 2784 1018 2438 
L 1018 2931 
L 979 2944 
C 634 2810 410 2726 58 2618 
L 58 2516 
z
M 1018 2136 
C 1018 2329 1376 2560 1670 2560 
C 2144 2560 2458 2071 2458 1324 
C 2458 611 2144 128 1683 128 
C 1382 128 1018 359 1018 552 
L 1018 2136 
z
" transform="scale(0.015625)"/>
      <path id="NimbusRomNo9L-Regu-66" d="M 1978 2880 
L 1190 2880 
L 1190 3611 
C 1190 3978 1312 4173 1555 4173 
C 1690 4173 1779 4110 1894 3927 
C 1997 3763 2074 3700 2182 3700 
C 2330 3700 2451 3814 2451 3959 
C 2451 4188 2170 4352 1786 4352 
C 1389 4352 1050 4181 883 3891 
C 717 3613 666 3385 659 2880 
L 134 2880 
L 134 2675 
L 659 2675 
L 659 656 
C 659 185 589 109 128 109 
L 128 0 
L 1792 0 
L 1792 109 
C 1267 109 1197 180 1197 661 
L 1197 2675 
L 1978 2675 
L 1978 2880 
z
" transform="scale(0.015625)"/>
      <path id="NimbusRomNo9L-Regu-2c" d="M 531 -889 
C 960 -678 1248 -288 1248 96 
C 1248 416 1024 666 736 666 
C 512 666 358 519 358 301 
C 358 96 506 -25 736 -25 
C 774 -25 819 -19 858 -13 
C 902 0 902 0 909 0 
C 960 0 998 -38 998 -89 
C 998 -294 819 -531 474 -768 
L 531 -889 
z
" transform="scale(0.015625)"/>
      <path id="NimbusRomNo9L-Regu-43" d="M 3968 2906 
L 3910 4352 
L 3776 4352 
C 3738 4218 3635 4141 3507 4141 
C 3450 4141 3354 4160 3258 4199 
C 2944 4301 2624 4352 2323 4352 
C 1798 4352 1267 4154 870 3802 
C 422 3405 179 2810 179 2106 
C 179 1511 371 960 698 596 
C 1082 180 1670 -64 2304 -64 
C 3027 -64 3661 231 4051 749 
L 3936 864 
C 3462 410 3040 218 2509 218 
C 2106 218 1747 346 1472 589 
C 1120 903 922 1479 922 2189 
C 922 3348 1517 4096 2445 4096 
C 2810 4096 3142 3962 3398 3706 
C 3603 3501 3699 3322 3821 2906 
L 3968 2906 
z
" transform="scale(0.015625)"/>
     </defs>
     <use xlink:href="#NimbusRomNo9L-Regu-4d" transform="scale(0.996264)"/>
     <use xlink:href="#NimbusRomNo9L-Regu-61" transform="translate(88.566907 0) scale(0.996264)"/>
     <use xlink:href="#NimbusRomNo9L-Regu-73" transform="translate(132.800475 0) scale(0.996264)"/>
     <use xlink:href="#NimbusRomNo9L-Regu-61" transform="translate(171.554182 0) scale(0.996264)"/>
     <use xlink:href="#NimbusRomNo9L-Regu-63" transform="translate(240.694351 0) scale(0.996264)"/>
     <use xlink:href="#NimbusRomNo9L-Regu-72" transform="translate(284.927919 0) scale(0.996264)"/>
     <use xlink:href="#NimbusRomNo9L-Regu-b4" transform="translate(315.363119 0.498056) scale(0.996264)"/>
     <use xlink:href="#NimbusRomNo9L-Regu-11" transform="translate(318.103149 0) scale(0.996264)"/>
     <use xlink:href="#NimbusRomNo9L-Regu-74" transform="translate(345.798319 0) scale(0.996264)"/>
     <use xlink:href="#NimbusRomNo9L-Regu-69" transform="translate(373.493488 0) scale(0.996264)"/>
     <use xlink:href="#NimbusRomNo9L-Regu-63" transform="translate(401.188658 0) scale(0.996264)"/>
     <use xlink:href="#NimbusRomNo9L-Regu-61" transform="translate(445.422226 0) scale(0.996264)"/>
     <use xlink:href="#NimbusRomNo9L-Regu-3a" transform="translate(489.655795 0) scale(0.996264)"/>
     <use xlink:href="#NimbusRomNo9L-Regu-38" transform="translate(548.234997 0) scale(0.996264)"/>
     <use xlink:href="#NimbusRomNo9L-Regu-30" transform="translate(598.048198 0) scale(0.996264)"/>
     <use xlink:href="#NimbusRomNo9L-Regu-25" transform="translate(647.861398 0) scale(0.996264)"/>
     <use xlink:href="#NimbusRomNo9L-Regu-2d" transform="translate(755.756429 0) scale(0.996264)"/>
     <use xlink:href="#NimbusRomNo9L-Regu-4e" transform="translate(813.838259 0) scale(0.996264)"/>
     <use xlink:href="#NimbusRomNo9L-Regu-6f" transform="translate(885.768243 0) scale(0.996264)"/>
     <use xlink:href="#NimbusRomNo9L-Regu-64" transform="translate(935.581444 0) scale(0.996264)"/>
     <use xlink:href="#NimbusRomNo9L-Regu-6f" transform="translate(985.394644 0) scale(0.996264)"/>
     <use xlink:href="#NimbusRomNo9L-Regu-73" transform="translate(1035.207845 0) scale(0.996264)"/>
     <use xlink:href="#NimbusRomNo9L-Regu-70" transform="translate(1098.868151 0) scale(0.996264)"/>
     <use xlink:href="#NimbusRomNo9L-Regu-65" transform="translate(1148.681352 0) scale(0.996264)"/>
     <use xlink:href="#NimbusRomNo9L-Regu-72" transform="translate(1192.91492 0) scale(0.996264)"/>
     <use xlink:href="#NimbusRomNo9L-Regu-69" transform="translate(1226.09015 0) scale(0.996264)"/>
     <use xlink:href="#NimbusRomNo9L-Regu-66" transform="translate(1253.78532 0) scale(0.996264)"/>
     <use xlink:href="#NimbusRomNo9L-Regu-65" transform="translate(1286.96055 0) scale(0.996264)"/>
     <use xlink:href="#NimbusRomNo9L-Regu-72" transform="translate(1331.194118 0) scale(0.996264)"/>
     <use xlink:href="#NimbusRomNo9L-Regu-69" transform="translate(1364.369348 0) scale(0.996264)"/>
     <use xlink:href="#NimbusRomNo9L-Regu-63" transform="translate(1392.064518 0) scale(0.996264)"/>
     <use xlink:href="#NimbusRomNo9L-Regu-6f" transform="translate(1436.298086 0) scale(0.996264)"/>
     <use xlink:href="#NimbusRomNo9L-Regu-73" transform="translate(1486.111287 0) scale(0.996264)"/>
     <use xlink:href="#NimbusRomNo9L-Regu-28" transform="translate(1549.771593 0) scale(0.996264)"/>
     <use xlink:href="#NimbusRomNo9L-Regu-48" transform="translate(1582.946823 0) scale(0.996264)"/>
     <use xlink:href="#NimbusRomNo9L-Regu-2c" transform="translate(1654.876808 0) scale(0.996264)"/>
     <use xlink:href="#NimbusRomNo9L-Regu-43" transform="translate(1679.783408 0) scale(0.996264)"/>
     <use xlink:href="#NimbusRomNo9L-Regu-29" transform="translate(1746.233439 0) scale(0.996264)"/>
    </g>
   </g>
   <g id="legend_1">
    <g id="line2d_108">
     <path d="M 89.47047 89.525846 
L 96.47047 89.525846 
L 103.47047 89.525846 
" style="fill: none; stroke: #dedeee; stroke-linecap: square"/>
    </g>
    <g id="text_13">
     <!-- (C) C. Coop -->
     <g transform="translate(109.07047 91.975846) scale(0.07 -0.07)">
      <defs>
       <path id="NimbusRomNo9L-Regu-2e" d="M 800 646 
C 608 646 448 480 448 281 
C 448 96 608 -64 794 -64 
C 992 -64 1158 96 1158 281 
C 1158 480 992 646 800 646 
z
" transform="scale(0.015625)"/>
      </defs>
      <use xlink:href="#NimbusRomNo9L-Regu-28" transform="scale(0.996264)"/>
      <use xlink:href="#NimbusRomNo9L-Regu-43" transform="translate(33.17523 0) scale(0.996264)"/>
      <use xlink:href="#NimbusRomNo9L-Regu-29" transform="translate(99.625261 0) scale(0.996264)"/>
      <use xlink:href="#NimbusRomNo9L-Regu-43" transform="translate(157.707091 0) scale(0.996264)"/>
      <use xlink:href="#NimbusRomNo9L-Regu-2e" transform="translate(224.157122 0) scale(0.996264)"/>
      <use xlink:href="#NimbusRomNo9L-Regu-43" transform="translate(273.970322 0) scale(0.996264)"/>
      <use xlink:href="#NimbusRomNo9L-Regu-6f" transform="translate(340.420354 0) scale(0.996264)"/>
      <use xlink:href="#NimbusRomNo9L-Regu-6f" transform="translate(390.233554 0) scale(0.996264)"/>
      <use xlink:href="#NimbusRomNo9L-Regu-70" transform="translate(440.046755 0) scale(0.996264)"/>
     </g>
    </g>
    <g id="line2d_109">
     <path d="M 89.47047 99.435626 
L 96.47047 99.435626 
L 103.47047 99.435626 
" style="fill: none; stroke-dasharray: 3.7,1.6; stroke-dashoffset: 0; stroke: #9b9aca"/>
    </g>
    <g id="text_14">
     <!-- (D) C. no Coop -->
     <g transform="translate(109.07047 101.885626) scale(0.07 -0.07)">
      <defs>
       <path id="NimbusRomNo9L-Regu-44" d="M 666 679 
C 666 217 589 134 102 134 
L 102 0 
L 1920 0 
C 2662 0 3334 210 3731 568 
C 4147 944 4384 1512 4384 2131 
C 4384 2706 4192 3203 3840 3554 
C 3405 3994 2707 4224 1830 4224 
L 102 4224 
L 102 4102 
C 608 4057 666 4000 666 3525 
L 666 679 
z
M 1318 3738 
C 1318 3936 1389 3987 1651 3987 
C 2202 3987 2618 3885 2925 3668 
C 3424 3323 3686 2775 3686 2087 
C 3686 1334 3424 798 2906 498 
C 2579 314 2208 237 1651 237 
C 1395 237 1318 294 1318 498 
L 1318 3738 
z
" transform="scale(0.015625)"/>
      </defs>
      <use xlink:href="#NimbusRomNo9L-Regu-28" transform="scale(0.996264)"/>
      <use xlink:href="#NimbusRomNo9L-Regu-44" transform="translate(33.17523 0) scale(0.996264)"/>
      <use xlink:href="#NimbusRomNo9L-Regu-29" transform="translate(105.105215 0) scale(0.996264)"/>
      <use xlink:href="#NimbusRomNo9L-Regu-43" transform="translate(163.187045 0) scale(0.996264)"/>
      <use xlink:href="#NimbusRomNo9L-Regu-2e" transform="translate(229.637076 0) scale(0.996264)"/>
      <use xlink:href="#NimbusRomNo9L-Regu-6e" transform="translate(279.450276 0) scale(0.996264)"/>
      <use xlink:href="#NimbusRomNo9L-Regu-6f" transform="translate(329.263477 0) scale(0.996264)"/>
      <use xlink:href="#NimbusRomNo9L-Regu-43" transform="translate(403.983277 0) scale(0.996264)"/>
      <use xlink:href="#NimbusRomNo9L-Regu-6f" transform="translate(470.433309 0) scale(0.996264)"/>
      <use xlink:href="#NimbusRomNo9L-Regu-6f" transform="translate(520.246509 0) scale(0.996264)"/>
      <use xlink:href="#NimbusRomNo9L-Regu-70" transform="translate(570.05971 0) scale(0.996264)"/>
     </g>
    </g>
    <g id="line2d_110">
     <path d="M 89.47047 109.345406 
L 96.47047 109.345406 
L 103.47047 109.345406 
" style="fill: none; stroke-dasharray: 1,1.65; stroke-dashoffset: 0; stroke: #7976b8"/>
    </g>
    <g id="text_15">
     <!-- (H) P. Honrado -->
     <g transform="translate(109.07047 111.795406) scale(0.07 -0.07)">
      <defs>
       <path id="NimbusRomNo9L-Regu-50" d="M 1293 1875 
C 1459 1856 1568 1856 1734 1856 
C 2234 1856 2579 1919 2854 2072 
C 3238 2274 3469 2660 3469 3078 
C 3469 3344 3379 3584 3206 3768 
C 2950 4047 2394 4224 1792 4224 
L 102 4224 
L 102 4102 
C 576 4051 640 3987 640 3528 
L 640 766 
C 640 230 589 166 102 122 
L 102 0 
L 1894 0 
L 1894 128 
C 1389 128 1293 218 1293 693 
L 1293 1875 
z
M 1293 3772 
C 1293 3943 1338 3987 1510 3987 
C 2374 3987 2771 3690 2771 3040 
C 2771 2428 2394 2112 1658 2112 
C 1530 2112 1440 2119 1293 2131 
L 1293 3772 
z
" transform="scale(0.015625)"/>
      </defs>
      <use xlink:href="#NimbusRomNo9L-Regu-28" transform="scale(0.996264)"/>
      <use xlink:href="#NimbusRomNo9L-Regu-48" transform="translate(33.17523 0) scale(0.996264)"/>
      <use xlink:href="#NimbusRomNo9L-Regu-29" transform="translate(105.105215 0) scale(0.996264)"/>
      <use xlink:href="#NimbusRomNo9L-Regu-50" transform="translate(163.187045 0) scale(0.996264)"/>
      <use xlink:href="#NimbusRomNo9L-Regu-2e" transform="translate(207.520276 0) scale(0.996264)"/>
      <use xlink:href="#NimbusRomNo9L-Regu-48" transform="translate(257.333477 0) scale(0.996264)"/>
      <use xlink:href="#NimbusRomNo9L-Regu-6f" transform="translate(329.263461 0) scale(0.996264)"/>
      <use xlink:href="#NimbusRomNo9L-Regu-6e" transform="translate(379.076662 0) scale(0.996264)"/>
      <use xlink:href="#NimbusRomNo9L-Regu-72" transform="translate(428.889862 0) scale(0.996264)"/>
      <use xlink:href="#NimbusRomNo9L-Regu-61" transform="translate(462.065092 0) scale(0.996264)"/>
      <use xlink:href="#NimbusRomNo9L-Regu-64" transform="translate(506.298661 0) scale(0.996264)"/>
      <use xlink:href="#NimbusRomNo9L-Regu-6f" transform="translate(556.111861 0) scale(0.996264)"/>
     </g>
    </g>
    <g id="line2d_111">
     <path d="M 89.47047 119.255186 
L 96.47047 119.255186 
L 103.47047 119.255186 
" style="fill: none; stroke-dasharray: 6.4,1.6,1,1.6; stroke-dashoffset: 0; stroke: #201f3d"/>
    </g>
    <g id="text_16">
     <!-- (K) P. Corrupto -->
     <g transform="translate(109.07047 121.705186) scale(0.07 -0.07)">
      <defs>
       <path id="NimbusRomNo9L-Regu-4b" d="M 2643 4109 
C 2720 4096 2784 4096 2810 4096 
C 3002 4096 3078 4045 3078 3917 
C 3078 3775 2931 3583 2579 3257 
L 1446 2224 
L 1446 3534 
C 1446 4000 1517 4071 2035 4109 
L 2035 4231 
L 218 4231 
L 218 4109 
C 717 4071 794 3988 794 3531 
L 794 750 
C 794 217 723 134 218 134 
L 218 0 
L 2022 0 
L 2022 134 
C 1523 134 1446 211 1446 683 
L 1446 1891 
L 1613 2026 
L 2291 1355 
C 2778 876 3123 422 3123 269 
C 3123 179 3034 134 2854 134 
C 2822 134 2752 134 2675 121 
L 2675 0 
L 4627 0 
L 4627 134 
C 4294 134 4205 198 3622 816 
L 2131 2409 
L 3347 3611 
C 3782 4026 3885 4077 4320 4109 
L 4320 4231 
L 2643 4231 
L 2643 4109 
z
" transform="scale(0.015625)"/>
      </defs>
      <use xlink:href="#NimbusRomNo9L-Regu-28" transform="scale(0.996264)"/>
      <use xlink:href="#NimbusRomNo9L-Regu-4b" transform="translate(33.17523 0) scale(0.996264)"/>
      <use xlink:href="#NimbusRomNo9L-Regu-29" transform="translate(105.105215 0) scale(0.996264)"/>
      <use xlink:href="#NimbusRomNo9L-Regu-50" transform="translate(163.187045 0) scale(0.996264)"/>
      <use xlink:href="#NimbusRomNo9L-Regu-2e" transform="translate(207.520276 0) scale(0.996264)"/>
      <use xlink:href="#NimbusRomNo9L-Regu-43" transform="translate(257.333477 0) scale(0.996264)"/>
      <use xlink:href="#NimbusRomNo9L-Regu-6f" transform="translate(323.783508 0) scale(0.996264)"/>
      <use xlink:href="#NimbusRomNo9L-Regu-72" transform="translate(373.596708 0) scale(0.996264)"/>
      <use xlink:href="#NimbusRomNo9L-Regu-72" transform="translate(406.771938 0) scale(0.996264)"/>
      <use xlink:href="#NimbusRomNo9L-Regu-75" transform="translate(439.947168 0) scale(0.996264)"/>
      <use xlink:href="#NimbusRomNo9L-Regu-70" transform="translate(489.760368 0) scale(0.996264)"/>
      <use xlink:href="#NimbusRomNo9L-Regu-74" transform="translate(539.573569 0) scale(0.996264)"/>
      <use xlink:href="#NimbusRomNo9L-Regu-6f" transform="translate(567.268738 0) scale(0.996264)"/>
     </g>
    </g>
   </g>
  </g>
 </g>
 <defs>
  <clipPath id="p282f5ccd2c">
   <rect x="19.261541" y="35.845406" width="139.5" height="138.6"/>
  </clipPath>
 </defs>
</svg>
