<?xml version="1.0" encoding="utf-8" standalone="no"?>
<!DOCTYPE svg PUBLIC "-//W3C//DTD SVG 1.1//EN"
  "http://www.w3.org/Graphics/SVG/1.1/DTD/svg11.dtd">
<svg xmlns:xlink="http://www.w3.org/1999/xlink" width="178.023082pt" height="188.674525pt" viewBox="0 0 178.023082 188.674525" xmlns="http://www.w3.org/2000/svg" version="1.1">
 <metadata>
  <rdf:RDF xmlns:dc="http://purl.org/dc/elements/1.1/" xmlns:cc="http://creativecommons.org/ns#" xmlns:rdf="http://www.w3.org/1999/02/22-rdf-syntax-ns#">
   <cc:Work>
    <dc:type rdf:resource="http://purl.org/dc/dcmitype/StillImage"/>
    <dc:date>2025-06-27T12:23:45.602090</dc:date>
    <dc:format>image/svg+xml</dc:format>
    <dc:creator>
     <cc:Agent>
      <dc:title>Matplotlib v3.10.1, https://matplotlib.org/</dc:title>
     </cc:Agent>
    </dc:creator>
   </cc:Work>
  </rdf:RDF>
 </metadata>
 <defs>
  <style type="text/css">*{stroke-linejoin: round; stroke-linecap: butt}</style>
 </defs>
 <g id="figure_1">
  <g id="patch_1">
   <path d="M 0 188.674525 
L 178.023082 188.674525 
L 178.023082 0 
L 0 0 
z
" style="fill: #ffffff"/>
  </g>
  <g id="axes_1">
   <g id="patch_2">
    <path d="M 19.261541 174.445406 
L 158.761541 174.445406 
L 158.761541 35.845406 
L 19.261541 35.845406 
z
" style="fill: #ffffff"/>
   </g>
   <g id="matplotlib.axis_1">
    <g id="xtick_1">
     <g id="line2d_1">
      <path d="M 19.261541 174.445406 
L 19.261541 35.845406 
" clip-path="url(#p2e75e7fbeb)" style="fill: none; stroke-dasharray: 1.85,0.8; stroke-dashoffset: 0; stroke: #b0b0b0; stroke-opacity: 0.6; stroke-width: 0.5"/>
     </g>
     <g id="line2d_2">
      <defs>
       <path id="m7243746b6f" d="M 0 0 
L 0 -3 
" style="stroke: #000000; stroke-width: 0.5"/>
      </defs>
      <g>
       <use xlink:href="#m7243746b6f" x="19.261541" y="174.445406" style="stroke: #000000; stroke-width: 0.5"/>
      </g>
     </g>
     <g id="line2d_3">
      <defs>
       <path id="md84752bf92" d="M 0 0 
L 0 3 
" style="stroke: #000000; stroke-width: 0.5"/>
      </defs>
      <g>
       <use xlink:href="#md84752bf92" x="19.261541" y="35.845406" style="stroke: #000000; stroke-width: 0.5"/>
      </g>
     </g>
     <g id="text_1">
      <!-- $\mathdefault{0}$ -->
      <g transform="translate(17.269013 183.349062) scale(0.08 -0.08)">
       <defs>
        <path id="NimbusRomNo9L-Regu-30" d="M 1626 4352 
C 1274 4352 1005 4244 768 4020 
C 397 3661 154 2925 154 2176 
C 154 1479 365 730 666 372 
C 902 90 1229 -64 1600 -64 
C 1926 -64 2202 45 2432 269 
C 2803 621 3046 1364 3046 2138 
C 3046 3450 2464 4352 1626 4352 
z
M 1606 4186 
C 2144 4186 2432 3463 2432 2125 
C 2432 788 2150 103 1600 103 
C 1050 103 768 788 768 2119 
C 768 3476 1056 4186 1606 4186 
z
" transform="scale(0.015625)"/>
       </defs>
       <use xlink:href="#NimbusRomNo9L-Regu-30" transform="scale(0.996264)"/>
      </g>
     </g>
    </g>
    <g id="xtick_2">
     <g id="line2d_4">
      <path d="M 47.217453 174.445406 
L 47.217453 35.845406 
" clip-path="url(#p2e75e7fbeb)" style="fill: none; stroke-dasharray: 1.85,0.8; stroke-dashoffset: 0; stroke: #b0b0b0; stroke-opacity: 0.6; stroke-width: 0.5"/>
     </g>
     <g id="line2d_5">
      <g>
       <use xlink:href="#m7243746b6f" x="47.217453" y="174.445406" style="stroke: #000000; stroke-width: 0.5"/>
      </g>
     </g>
     <g id="line2d_6">
      <g>
       <use xlink:href="#md84752bf92" x="47.217453" y="35.845406" style="stroke: #000000; stroke-width: 0.5"/>
      </g>
     </g>
     <g id="text_2">
      <!-- $\mathdefault{100}$ -->
      <g transform="translate(41.239869 183.349062) scale(0.08 -0.08)">
       <defs>
        <path id="NimbusRomNo9L-Regu-31" d="M 1862 4339 
L 710 3757 
L 710 3667 
C 787 3699 858 3725 883 3738 
C 998 3783 1107 3808 1171 3808 
C 1306 3808 1363 3711 1363 3505 
L 1363 592 
C 1363 379 1312 232 1210 173 
C 1114 116 1024 96 755 96 
L 755 0 
L 2522 0 
L 2522 96 
C 2016 96 1914 160 1914 470 
L 1914 4327 
L 1862 4339 
z
" transform="scale(0.015625)"/>
       </defs>
       <use xlink:href="#NimbusRomNo9L-Regu-31" transform="scale(0.996264)"/>
       <use xlink:href="#NimbusRomNo9L-Regu-30" transform="translate(49.8132 0) scale(0.996264)"/>
       <use xlink:href="#NimbusRomNo9L-Regu-30" transform="translate(99.626401 0) scale(0.996264)"/>
      </g>
     </g>
    </g>
    <g id="xtick_3">
     <g id="line2d_7">
      <path d="M 75.173365 174.445406 
L 75.173365 35.845406 
" clip-path="url(#p2e75e7fbeb)" style="fill: none; stroke-dasharray: 1.85,0.8; stroke-dashoffset: 0; stroke: #b0b0b0; stroke-opacity: 0.6; stroke-width: 0.5"/>
     </g>
     <g id="line2d_8">
      <g>
       <use xlink:href="#m7243746b6f" x="75.173365" y="174.445406" style="stroke: #000000; stroke-width: 0.5"/>
      </g>
     </g>
     <g id="line2d_9">
      <g>
       <use xlink:href="#md84752bf92" x="75.173365" y="35.845406" style="stroke: #000000; stroke-width: 0.5"/>
      </g>
     </g>
     <g id="text_3">
      <!-- $\mathdefault{200}$ -->
      <g transform="translate(69.195781 183.349062) scale(0.08 -0.08)">
       <defs>
        <path id="NimbusRomNo9L-Regu-32" d="M 3040 875 
L 2957 907 
C 2720 544 2637 486 2349 486 
L 819 486 
L 1894 1609 
C 2464 2202 2714 2687 2714 3185 
C 2714 3823 2195 4313 1530 4313 
C 1178 4313 845 4173 608 3918 
C 403 3700 307 3496 198 3043 
L 333 3011 
C 589 3636 819 3840 1261 3840 
C 1798 3840 2163 3476 2163 2940 
C 2163 2443 1869 1850 1331 1282 
L 192 77 
L 192 0 
L 2688 0 
L 3040 875 
z
" transform="scale(0.015625)"/>
       </defs>
       <use xlink:href="#NimbusRomNo9L-Regu-32" transform="scale(0.996264)"/>
       <use xlink:href="#NimbusRomNo9L-Regu-30" transform="translate(49.8132 0) scale(0.996264)"/>
       <use xlink:href="#NimbusRomNo9L-Regu-30" transform="translate(99.626401 0) scale(0.996264)"/>
      </g>
     </g>
    </g>
    <g id="xtick_4">
     <g id="line2d_10">
      <path d="M 103.129277 174.445406 
L 103.129277 35.845406 
" clip-path="url(#p2e75e7fbeb)" style="fill: none; stroke-dasharray: 1.85,0.8; stroke-dashoffset: 0; stroke: #b0b0b0; stroke-opacity: 0.6; stroke-width: 0.5"/>
     </g>
     <g id="line2d_11">
      <g>
       <use xlink:href="#m7243746b6f" x="103.129277" y="174.445406" style="stroke: #000000; stroke-width: 0.5"/>
      </g>
     </g>
     <g id="line2d_12">
      <g>
       <use xlink:href="#md84752bf92" x="103.129277" y="35.845406" style="stroke: #000000; stroke-width: 0.5"/>
      </g>
     </g>
     <g id="text_4">
      <!-- $\mathdefault{300}$ -->
      <g transform="translate(97.151693 183.349062) scale(0.08 -0.08)">
       <defs>
        <path id="NimbusRomNo9L-Regu-33" d="M 979 2138 
C 1357 2138 1504 2125 1658 2068 
C 2054 1927 2304 1562 2304 1120 
C 2304 583 1939 167 1466 167 
C 1293 167 1165 212 928 365 
C 736 480 627 525 518 525 
C 371 525 275 436 275 301 
C 275 77 550 -64 998 -64 
C 1491 -64 1997 103 2298 365 
C 2598 628 2765 999 2765 1428 
C 2765 1754 2662 2055 2477 2253 
C 2349 2394 2227 2471 1946 2592 
C 2387 2893 2547 3130 2547 3476 
C 2547 3994 2138 4352 1549 4352 
C 1229 4352 947 4244 717 4039 
C 525 3866 429 3699 288 3315 
L 384 3290 
C 646 3757 934 3968 1338 3968 
C 1754 3968 2042 3687 2042 3284 
C 2042 3053 1946 2823 1786 2663 
C 1594 2471 1414 2375 979 2221 
L 979 2138 
z
" transform="scale(0.015625)"/>
       </defs>
       <use xlink:href="#NimbusRomNo9L-Regu-33" transform="scale(0.996264)"/>
       <use xlink:href="#NimbusRomNo9L-Regu-30" transform="translate(49.8132 0) scale(0.996264)"/>
       <use xlink:href="#NimbusRomNo9L-Regu-30" transform="translate(99.626401 0) scale(0.996264)"/>
      </g>
     </g>
    </g>
    <g id="xtick_5">
     <g id="line2d_13">
      <path d="M 131.085188 174.445406 
L 131.085188 35.845406 
" clip-path="url(#p2e75e7fbeb)" style="fill: none; stroke-dasharray: 1.85,0.8; stroke-dashoffset: 0; stroke: #b0b0b0; stroke-opacity: 0.6; stroke-width: 0.5"/>
     </g>
     <g id="line2d_14">
      <g>
       <use xlink:href="#m7243746b6f" x="131.085188" y="174.445406" style="stroke: #000000; stroke-width: 0.5"/>
      </g>
     </g>
     <g id="line2d_15">
      <g>
       <use xlink:href="#md84752bf92" x="131.085188" y="35.845406" style="stroke: #000000; stroke-width: 0.5"/>
      </g>
     </g>
     <g id="text_5">
      <!-- $\mathdefault{400}$ -->
      <g transform="translate(125.107604 183.349062) scale(0.08 -0.08)">
       <defs>
        <path id="NimbusRomNo9L-Regu-34" d="M 3021 1497 
L 2368 1497 
L 2368 4352 
L 2086 4352 
L 77 1497 
L 77 1088 
L 1875 1088 
L 1875 32 
L 2368 32 
L 2368 1088 
L 3021 1088 
L 3021 1497 
z
M 1869 1497 
L 333 1497 
L 1869 3698 
L 1869 1497 
z
" transform="scale(0.015625)"/>
       </defs>
       <use xlink:href="#NimbusRomNo9L-Regu-34" transform="scale(0.996264)"/>
       <use xlink:href="#NimbusRomNo9L-Regu-30" transform="translate(49.8132 0) scale(0.996264)"/>
       <use xlink:href="#NimbusRomNo9L-Regu-30" transform="translate(99.626401 0) scale(0.996264)"/>
      </g>
     </g>
    </g>
    <g id="xtick_6">
     <g id="line2d_16">
      <defs>
       <path id="mdbf80c08a9" d="M 0 0 
L 0 -1.5 
" style="stroke: #000000; stroke-width: 0.5"/>
      </defs>
      <g>
       <use xlink:href="#mdbf80c08a9" x="24.852723" y="174.445406" style="stroke: #000000; stroke-width: 0.5"/>
      </g>
     </g>
     <g id="line2d_17">
      <defs>
       <path id="ma20fe7f9da" d="M 0 0 
L 0 1.5 
" style="stroke: #000000; stroke-width: 0.5"/>
      </defs>
      <g>
       <use xlink:href="#ma20fe7f9da" x="24.852723" y="35.845406" style="stroke: #000000; stroke-width: 0.5"/>
      </g>
     </g>
    </g>
    <g id="xtick_7">
     <g id="line2d_18">
      <g>
       <use xlink:href="#mdbf80c08a9" x="30.443906" y="174.445406" style="stroke: #000000; stroke-width: 0.5"/>
      </g>
     </g>
     <g id="line2d_19">
      <g>
       <use xlink:href="#ma20fe7f9da" x="30.443906" y="35.845406" style="stroke: #000000; stroke-width: 0.5"/>
      </g>
     </g>
    </g>
    <g id="xtick_8">
     <g id="line2d_20">
      <g>
       <use xlink:href="#mdbf80c08a9" x="36.035088" y="174.445406" style="stroke: #000000; stroke-width: 0.5"/>
      </g>
     </g>
     <g id="line2d_21">
      <g>
       <use xlink:href="#ma20fe7f9da" x="36.035088" y="35.845406" style="stroke: #000000; stroke-width: 0.5"/>
      </g>
     </g>
    </g>
    <g id="xtick_9">
     <g id="line2d_22">
      <g>
       <use xlink:href="#mdbf80c08a9" x="41.626271" y="174.445406" style="stroke: #000000; stroke-width: 0.5"/>
      </g>
     </g>
     <g id="line2d_23">
      <g>
       <use xlink:href="#ma20fe7f9da" x="41.626271" y="35.845406" style="stroke: #000000; stroke-width: 0.5"/>
      </g>
     </g>
    </g>
    <g id="xtick_10">
     <g id="line2d_24">
      <g>
       <use xlink:href="#mdbf80c08a9" x="52.808635" y="174.445406" style="stroke: #000000; stroke-width: 0.5"/>
      </g>
     </g>
     <g id="line2d_25">
      <g>
       <use xlink:href="#ma20fe7f9da" x="52.808635" y="35.845406" style="stroke: #000000; stroke-width: 0.5"/>
      </g>
     </g>
    </g>
    <g id="xtick_11">
     <g id="line2d_26">
      <g>
       <use xlink:href="#mdbf80c08a9" x="58.399818" y="174.445406" style="stroke: #000000; stroke-width: 0.5"/>
      </g>
     </g>
     <g id="line2d_27">
      <g>
       <use xlink:href="#ma20fe7f9da" x="58.399818" y="35.845406" style="stroke: #000000; stroke-width: 0.5"/>
      </g>
     </g>
    </g>
    <g id="xtick_12">
     <g id="line2d_28">
      <g>
       <use xlink:href="#mdbf80c08a9" x="63.991" y="174.445406" style="stroke: #000000; stroke-width: 0.5"/>
      </g>
     </g>
     <g id="line2d_29">
      <g>
       <use xlink:href="#ma20fe7f9da" x="63.991" y="35.845406" style="stroke: #000000; stroke-width: 0.5"/>
      </g>
     </g>
    </g>
    <g id="xtick_13">
     <g id="line2d_30">
      <g>
       <use xlink:href="#mdbf80c08a9" x="69.582182" y="174.445406" style="stroke: #000000; stroke-width: 0.5"/>
      </g>
     </g>
     <g id="line2d_31">
      <g>
       <use xlink:href="#ma20fe7f9da" x="69.582182" y="35.845406" style="stroke: #000000; stroke-width: 0.5"/>
      </g>
     </g>
    </g>
    <g id="xtick_14">
     <g id="line2d_32">
      <g>
       <use xlink:href="#mdbf80c08a9" x="80.764547" y="174.445406" style="stroke: #000000; stroke-width: 0.5"/>
      </g>
     </g>
     <g id="line2d_33">
      <g>
       <use xlink:href="#ma20fe7f9da" x="80.764547" y="35.845406" style="stroke: #000000; stroke-width: 0.5"/>
      </g>
     </g>
    </g>
    <g id="xtick_15">
     <g id="line2d_34">
      <g>
       <use xlink:href="#mdbf80c08a9" x="86.35573" y="174.445406" style="stroke: #000000; stroke-width: 0.5"/>
      </g>
     </g>
     <g id="line2d_35">
      <g>
       <use xlink:href="#ma20fe7f9da" x="86.35573" y="35.845406" style="stroke: #000000; stroke-width: 0.5"/>
      </g>
     </g>
    </g>
    <g id="xtick_16">
     <g id="line2d_36">
      <g>
       <use xlink:href="#mdbf80c08a9" x="91.946912" y="174.445406" style="stroke: #000000; stroke-width: 0.5"/>
      </g>
     </g>
     <g id="line2d_37">
      <g>
       <use xlink:href="#ma20fe7f9da" x="91.946912" y="35.845406" style="stroke: #000000; stroke-width: 0.5"/>
      </g>
     </g>
    </g>
    <g id="xtick_17">
     <g id="line2d_38">
      <g>
       <use xlink:href="#mdbf80c08a9" x="97.538094" y="174.445406" style="stroke: #000000; stroke-width: 0.5"/>
      </g>
     </g>
     <g id="line2d_39">
      <g>
       <use xlink:href="#ma20fe7f9da" x="97.538094" y="35.845406" style="stroke: #000000; stroke-width: 0.5"/>
      </g>
     </g>
    </g>
    <g id="xtick_18">
     <g id="line2d_40">
      <g>
       <use xlink:href="#mdbf80c08a9" x="108.720459" y="174.445406" style="stroke: #000000; stroke-width: 0.5"/>
      </g>
     </g>
     <g id="line2d_41">
      <g>
       <use xlink:href="#ma20fe7f9da" x="108.720459" y="35.845406" style="stroke: #000000; stroke-width: 0.5"/>
      </g>
     </g>
    </g>
    <g id="xtick_19">
     <g id="line2d_42">
      <g>
       <use xlink:href="#mdbf80c08a9" x="114.311641" y="174.445406" style="stroke: #000000; stroke-width: 0.5"/>
      </g>
     </g>
     <g id="line2d_43">
      <g>
       <use xlink:href="#ma20fe7f9da" x="114.311641" y="35.845406" style="stroke: #000000; stroke-width: 0.5"/>
      </g>
     </g>
    </g>
    <g id="xtick_20">
     <g id="line2d_44">
      <g>
       <use xlink:href="#mdbf80c08a9" x="119.902824" y="174.445406" style="stroke: #000000; stroke-width: 0.5"/>
      </g>
     </g>
     <g id="line2d_45">
      <g>
       <use xlink:href="#ma20fe7f9da" x="119.902824" y="35.845406" style="stroke: #000000; stroke-width: 0.5"/>
      </g>
     </g>
    </g>
    <g id="xtick_21">
     <g id="line2d_46">
      <g>
       <use xlink:href="#mdbf80c08a9" x="125.494006" y="174.445406" style="stroke: #000000; stroke-width: 0.5"/>
      </g>
     </g>
     <g id="line2d_47">
      <g>
       <use xlink:href="#ma20fe7f9da" x="125.494006" y="35.845406" style="stroke: #000000; stroke-width: 0.5"/>
      </g>
     </g>
    </g>
    <g id="xtick_22">
     <g id="line2d_48">
      <g>
       <use xlink:href="#mdbf80c08a9" x="136.676371" y="174.445406" style="stroke: #000000; stroke-width: 0.5"/>
      </g>
     </g>
     <g id="line2d_49">
      <g>
       <use xlink:href="#ma20fe7f9da" x="136.676371" y="35.845406" style="stroke: #000000; stroke-width: 0.5"/>
      </g>
     </g>
    </g>
    <g id="xtick_23">
     <g id="line2d_50">
      <g>
       <use xlink:href="#mdbf80c08a9" x="142.267553" y="174.445406" style="stroke: #000000; stroke-width: 0.5"/>
      </g>
     </g>
     <g id="line2d_51">
      <g>
       <use xlink:href="#ma20fe7f9da" x="142.267553" y="35.845406" style="stroke: #000000; stroke-width: 0.5"/>
      </g>
     </g>
    </g>
    <g id="xtick_24">
     <g id="line2d_52">
      <g>
       <use xlink:href="#mdbf80c08a9" x="147.858736" y="174.445406" style="stroke: #000000; stroke-width: 0.5"/>
      </g>
     </g>
     <g id="line2d_53">
      <g>
       <use xlink:href="#ma20fe7f9da" x="147.858736" y="35.845406" style="stroke: #000000; stroke-width: 0.5"/>
      </g>
     </g>
    </g>
    <g id="xtick_25">
     <g id="line2d_54">
      <g>
       <use xlink:href="#mdbf80c08a9" x="153.449918" y="174.445406" style="stroke: #000000; stroke-width: 0.5"/>
      </g>
     </g>
     <g id="line2d_55">
      <g>
       <use xlink:href="#ma20fe7f9da" x="153.449918" y="35.845406" style="stroke: #000000; stroke-width: 0.5"/>
      </g>
     </g>
    </g>
   </g>
   <g id="matplotlib.axis_2">
    <g id="ytick_1">
     <g id="line2d_56">
      <path d="M 19.261541 174.445406 
L 158.761541 174.445406 
" clip-path="url(#p2e75e7fbeb)" style="fill: none; stroke-dasharray: 1.85,0.8; stroke-dashoffset: 0; stroke: #b0b0b0; stroke-opacity: 0.6; stroke-width: 0.5"/>
     </g>
     <g id="line2d_57">
      <defs>
       <path id="m620df1abe0" d="M 0 0 
L 3 0 
" style="stroke: #000000; stroke-width: 0.5"/>
      </defs>
      <g>
       <use xlink:href="#m620df1abe0" x="19.261541" y="174.445406" style="stroke: #000000; stroke-width: 0.5"/>
      </g>
     </g>
     <g id="line2d_58">
      <defs>
       <path id="md4dc51fa63" d="M 0 0 
L -3 0 
" style="stroke: #000000; stroke-width: 0.5"/>
      </defs>
      <g>
       <use xlink:href="#md4dc51fa63" x="158.761541" y="174.445406" style="stroke: #000000; stroke-width: 0.5"/>
      </g>
     </g>
     <g id="text_6">
      <!-- $\mathdefault{0.0}$ -->
      <g transform="translate(5.583796 177.147234) scale(0.08 -0.08)">
       <defs>
        <path id="CMMI10-3a" d="M 1229 338 
C 1229 522 1075 675 890 675 
C 704 675 550 522 550 338 
C 550 153 704 0 890 0 
C 1075 0 1229 153 1229 338 
z
" transform="scale(0.015625)"/>
       </defs>
       <use xlink:href="#NimbusRomNo9L-Regu-30" transform="scale(0.996264)"/>
       <use xlink:href="#CMMI10-3a" transform="translate(49.8132 0) scale(0.996264)"/>
       <use xlink:href="#NimbusRomNo9L-Regu-30" transform="translate(77.408707 0) scale(0.996264)"/>
      </g>
     </g>
    </g>
    <g id="ytick_2">
     <g id="line2d_59">
      <path d="M 19.261541 146.725406 
L 158.761541 146.725406 
" clip-path="url(#p2e75e7fbeb)" style="fill: none; stroke-dasharray: 1.85,0.8; stroke-dashoffset: 0; stroke: #b0b0b0; stroke-opacity: 0.6; stroke-width: 0.5"/>
     </g>
     <g id="line2d_60">
      <g>
       <use xlink:href="#m620df1abe0" x="19.261541" y="146.725406" style="stroke: #000000; stroke-width: 0.5"/>
      </g>
     </g>
     <g id="line2d_61">
      <g>
       <use xlink:href="#md4dc51fa63" x="158.761541" y="146.725406" style="stroke: #000000; stroke-width: 0.5"/>
      </g>
     </g>
     <g id="text_7">
      <!-- $\mathdefault{0.2}$ -->
      <g transform="translate(5.583796 149.427234) scale(0.08 -0.08)">
       <use xlink:href="#NimbusRomNo9L-Regu-30" transform="scale(0.996264)"/>
       <use xlink:href="#CMMI10-3a" transform="translate(49.8132 0) scale(0.996264)"/>
       <use xlink:href="#NimbusRomNo9L-Regu-32" transform="translate(77.408707 0) scale(0.996264)"/>
      </g>
     </g>
    </g>
    <g id="ytick_3">
     <g id="line2d_62">
      <path d="M 19.261541 119.005406 
L 158.761541 119.005406 
" clip-path="url(#p2e75e7fbeb)" style="fill: none; stroke-dasharray: 1.85,0.8; stroke-dashoffset: 0; stroke: #b0b0b0; stroke-opacity: 0.6; stroke-width: 0.5"/>
     </g>
     <g id="line2d_63">
      <g>
       <use xlink:href="#m620df1abe0" x="19.261541" y="119.005406" style="stroke: #000000; stroke-width: 0.5"/>
      </g>
     </g>
     <g id="line2d_64">
      <g>
       <use xlink:href="#md4dc51fa63" x="158.761541" y="119.005406" style="stroke: #000000; stroke-width: 0.5"/>
      </g>
     </g>
     <g id="text_8">
      <!-- $\mathdefault{0.4}$ -->
      <g transform="translate(5.583796 121.707234) scale(0.08 -0.08)">
       <use xlink:href="#NimbusRomNo9L-Regu-30" transform="scale(0.996264)"/>
       <use xlink:href="#CMMI10-3a" transform="translate(49.8132 0) scale(0.996264)"/>
       <use xlink:href="#NimbusRomNo9L-Regu-34" transform="translate(77.408707 0) scale(0.996264)"/>
      </g>
     </g>
    </g>
    <g id="ytick_4">
     <g id="line2d_65">
      <path d="M 19.261541 91.285406 
L 158.761541 91.285406 
" clip-path="url(#p2e75e7fbeb)" style="fill: none; stroke-dasharray: 1.85,0.8; stroke-dashoffset: 0; stroke: #b0b0b0; stroke-opacity: 0.6; stroke-width: 0.5"/>
     </g>
     <g id="line2d_66">
      <g>
       <use xlink:href="#m620df1abe0" x="19.261541" y="91.285406" style="stroke: #000000; stroke-width: 0.5"/>
      </g>
     </g>
     <g id="line2d_67">
      <g>
       <use xlink:href="#md4dc51fa63" x="158.761541" y="91.285406" style="stroke: #000000; stroke-width: 0.5"/>
      </g>
     </g>
     <g id="text_9">
      <!-- $\mathdefault{0.6}$ -->
      <g transform="translate(5.583796 93.987234) scale(0.08 -0.08)">
       <defs>
        <path id="NimbusRomNo9L-Regu-36" d="M 2854 4391 
C 2125 4327 1754 4205 1286 3879 
C 595 3386 218 2656 218 1802 
C 218 1248 390 688 666 370 
C 909 89 1254 -64 1651 -64 
C 2445 -64 2995 541 2995 1421 
C 2995 2236 2528 2752 1792 2752 
C 1510 2752 1376 2707 973 2464 
C 1146 3431 1862 4122 2867 4288 
L 2854 4391 
z
M 1549 2458 
C 2099 2458 2419 2000 2419 1204 
C 2419 504 2170 116 1722 116 
C 1158 116 813 714 813 1700 
C 813 2025 864 2203 992 2299 
C 1126 2400 1325 2458 1549 2458 
z
" transform="scale(0.015625)"/>
       </defs>
       <use xlink:href="#NimbusRomNo9L-Regu-30" transform="scale(0.996264)"/>
       <use xlink:href="#CMMI10-3a" transform="translate(49.8132 0) scale(0.996264)"/>
       <use xlink:href="#NimbusRomNo9L-Regu-36" transform="translate(77.408707 0) scale(0.996264)"/>
      </g>
     </g>
    </g>
    <g id="ytick_5">
     <g id="line2d_68">
      <path d="M 19.261541 63.565406 
L 158.761541 63.565406 
" clip-path="url(#p2e75e7fbeb)" style="fill: none; stroke-dasharray: 1.85,0.8; stroke-dashoffset: 0; stroke: #b0b0b0; stroke-opacity: 0.6; stroke-width: 0.5"/>
     </g>
     <g id="line2d_69">
      <g>
       <use xlink:href="#m620df1abe0" x="19.261541" y="63.565406" style="stroke: #000000; stroke-width: 0.5"/>
      </g>
     </g>
     <g id="line2d_70">
      <g>
       <use xlink:href="#md4dc51fa63" x="158.761541" y="63.565406" style="stroke: #000000; stroke-width: 0.5"/>
      </g>
     </g>
     <g id="text_10">
      <!-- $\mathdefault{0.8}$ -->
      <g transform="translate(5.583796 66.267234) scale(0.08 -0.08)">
       <defs>
        <path id="NimbusRomNo9L-Regu-38" d="M 1856 2400 
C 2490 2740 2714 3008 2714 3444 
C 2714 3968 2253 4352 1613 4352 
C 915 4352 397 3924 397 3341 
C 397 2925 518 2740 1190 2151 
C 499 1626 358 1428 358 992 
C 358 372 864 -64 1587 -64 
C 2355 -64 2848 359 2848 1018 
C 2848 1511 2630 1824 1856 2400 
z
M 1741 1741 
C 2208 1408 2362 1178 2362 820 
C 2362 404 2074 116 1658 116 
C 1171 116 845 487 845 1044 
C 845 1453 986 1722 1357 2023 
L 1741 1741 
z
M 1670 2516 
C 1101 2887 870 3181 870 3540 
C 870 3911 1158 4173 1562 4173 
C 1997 4173 2272 3892 2272 3450 
C 2272 3085 2093 2797 1728 2554 
C 1696 2535 1696 2535 1670 2516 
z
" transform="scale(0.015625)"/>
       </defs>
       <use xlink:href="#NimbusRomNo9L-Regu-30" transform="scale(0.996264)"/>
       <use xlink:href="#CMMI10-3a" transform="translate(49.8132 0) scale(0.996264)"/>
       <use xlink:href="#NimbusRomNo9L-Regu-38" transform="translate(77.408707 0) scale(0.996264)"/>
      </g>
     </g>
    </g>
    <g id="ytick_6">
     <g id="line2d_71">
      <path d="M 19.261541 35.845406 
L 158.761541 35.845406 
" clip-path="url(#p2e75e7fbeb)" style="fill: none; stroke-dasharray: 1.85,0.8; stroke-dashoffset: 0; stroke: #b0b0b0; stroke-opacity: 0.6; stroke-width: 0.5"/>
     </g>
     <g id="line2d_72">
      <g>
       <use xlink:href="#m620df1abe0" x="19.261541" y="35.845406" style="stroke: #000000; stroke-width: 0.5"/>
      </g>
     </g>
     <g id="line2d_73">
      <g>
       <use xlink:href="#md4dc51fa63" x="158.761541" y="35.845406" style="stroke: #000000; stroke-width: 0.5"/>
      </g>
     </g>
     <g id="text_11">
      <!-- $\mathdefault{1.0}$ -->
      <g transform="translate(5.583796 38.547234) scale(0.08 -0.08)">
       <use xlink:href="#NimbusRomNo9L-Regu-31" transform="scale(0.996264)"/>
       <use xlink:href="#CMMI10-3a" transform="translate(49.8132 0) scale(0.996264)"/>
       <use xlink:href="#NimbusRomNo9L-Regu-30" transform="translate(77.408707 0) scale(0.996264)"/>
      </g>
     </g>
    </g>
    <g id="ytick_7">
     <g id="line2d_74">
      <defs>
       <path id="mf3cb775bc2" d="M 0 0 
L 1.5 0 
" style="stroke: #000000; stroke-width: 0.5"/>
      </defs>
      <g>
       <use xlink:href="#mf3cb775bc2" x="19.261541" y="167.515406" style="stroke: #000000; stroke-width: 0.5"/>
      </g>
     </g>
     <g id="line2d_75">
      <defs>
       <path id="m336504456d" d="M 0 0 
L -1.5 0 
" style="stroke: #000000; stroke-width: 0.5"/>
      </defs>
      <g>
       <use xlink:href="#m336504456d" x="158.761541" y="167.515406" style="stroke: #000000; stroke-width: 0.5"/>
      </g>
     </g>
    </g>
    <g id="ytick_8">
     <g id="line2d_76">
      <g>
       <use xlink:href="#mf3cb775bc2" x="19.261541" y="160.585406" style="stroke: #000000; stroke-width: 0.5"/>
      </g>
     </g>
     <g id="line2d_77">
      <g>
       <use xlink:href="#m336504456d" x="158.761541" y="160.585406" style="stroke: #000000; stroke-width: 0.5"/>
      </g>
     </g>
    </g>
    <g id="ytick_9">
     <g id="line2d_78">
      <g>
       <use xlink:href="#mf3cb775bc2" x="19.261541" y="153.655406" style="stroke: #000000; stroke-width: 0.5"/>
      </g>
     </g>
     <g id="line2d_79">
      <g>
       <use xlink:href="#m336504456d" x="158.761541" y="153.655406" style="stroke: #000000; stroke-width: 0.5"/>
      </g>
     </g>
    </g>
    <g id="ytick_10">
     <g id="line2d_80">
      <g>
       <use xlink:href="#mf3cb775bc2" x="19.261541" y="139.795406" style="stroke: #000000; stroke-width: 0.5"/>
      </g>
     </g>
     <g id="line2d_81">
      <g>
       <use xlink:href="#m336504456d" x="158.761541" y="139.795406" style="stroke: #000000; stroke-width: 0.5"/>
      </g>
     </g>
    </g>
    <g id="ytick_11">
     <g id="line2d_82">
      <g>
       <use xlink:href="#mf3cb775bc2" x="19.261541" y="132.865406" style="stroke: #000000; stroke-width: 0.5"/>
      </g>
     </g>
     <g id="line2d_83">
      <g>
       <use xlink:href="#m336504456d" x="158.761541" y="132.865406" style="stroke: #000000; stroke-width: 0.5"/>
      </g>
     </g>
    </g>
    <g id="ytick_12">
     <g id="line2d_84">
      <g>
       <use xlink:href="#mf3cb775bc2" x="19.261541" y="125.935406" style="stroke: #000000; stroke-width: 0.5"/>
      </g>
     </g>
     <g id="line2d_85">
      <g>
       <use xlink:href="#m336504456d" x="158.761541" y="125.935406" style="stroke: #000000; stroke-width: 0.5"/>
      </g>
     </g>
    </g>
    <g id="ytick_13">
     <g id="line2d_86">
      <g>
       <use xlink:href="#mf3cb775bc2" x="19.261541" y="112.075406" style="stroke: #000000; stroke-width: 0.5"/>
      </g>
     </g>
     <g id="line2d_87">
      <g>
       <use xlink:href="#m336504456d" x="158.761541" y="112.075406" style="stroke: #000000; stroke-width: 0.5"/>
      </g>
     </g>
    </g>
    <g id="ytick_14">
     <g id="line2d_88">
      <g>
       <use xlink:href="#mf3cb775bc2" x="19.261541" y="105.145406" style="stroke: #000000; stroke-width: 0.5"/>
      </g>
     </g>
     <g id="line2d_89">
      <g>
       <use xlink:href="#m336504456d" x="158.761541" y="105.145406" style="stroke: #000000; stroke-width: 0.5"/>
      </g>
     </g>
    </g>
    <g id="ytick_15">
     <g id="line2d_90">
      <g>
       <use xlink:href="#mf3cb775bc2" x="19.261541" y="98.215406" style="stroke: #000000; stroke-width: 0.5"/>
      </g>
     </g>
     <g id="line2d_91">
      <g>
       <use xlink:href="#m336504456d" x="158.761541" y="98.215406" style="stroke: #000000; stroke-width: 0.5"/>
      </g>
     </g>
    </g>
    <g id="ytick_16">
     <g id="line2d_92">
      <g>
       <use xlink:href="#mf3cb775bc2" x="19.261541" y="84.355406" style="stroke: #000000; stroke-width: 0.5"/>
      </g>
     </g>
     <g id="line2d_93">
      <g>
       <use xlink:href="#m336504456d" x="158.761541" y="84.355406" style="stroke: #000000; stroke-width: 0.5"/>
      </g>
     </g>
    </g>
    <g id="ytick_17">
     <g id="line2d_94">
      <g>
       <use xlink:href="#mf3cb775bc2" x="19.261541" y="77.425406" style="stroke: #000000; stroke-width: 0.5"/>
      </g>
     </g>
     <g id="line2d_95">
      <g>
       <use xlink:href="#m336504456d" x="158.761541" y="77.425406" style="stroke: #000000; stroke-width: 0.5"/>
      </g>
     </g>
    </g>
    <g id="ytick_18">
     <g id="line2d_96">
      <g>
       <use xlink:href="#mf3cb775bc2" x="19.261541" y="70.495406" style="stroke: #000000; stroke-width: 0.5"/>
      </g>
     </g>
     <g id="line2d_97">
      <g>
       <use xlink:href="#m336504456d" x="158.761541" y="70.495406" style="stroke: #000000; stroke-width: 0.5"/>
      </g>
     </g>
    </g>
    <g id="ytick_19">
     <g id="line2d_98">
      <g>
       <use xlink:href="#mf3cb775bc2" x="19.261541" y="56.635406" style="stroke: #000000; stroke-width: 0.5"/>
      </g>
     </g>
     <g id="line2d_99">
      <g>
       <use xlink:href="#m336504456d" x="158.761541" y="56.635406" style="stroke: #000000; stroke-width: 0.5"/>
      </g>
     </g>
    </g>
    <g id="ytick_20">
     <g id="line2d_100">
      <g>
       <use xlink:href="#mf3cb775bc2" x="19.261541" y="49.705406" style="stroke: #000000; stroke-width: 0.5"/>
      </g>
     </g>
     <g id="line2d_101">
      <g>
       <use xlink:href="#m336504456d" x="158.761541" y="49.705406" style="stroke: #000000; stroke-width: 0.5"/>
      </g>
     </g>
    </g>
    <g id="ytick_21">
     <g id="line2d_102">
      <g>
       <use xlink:href="#mf3cb775bc2" x="19.261541" y="42.775406" style="stroke: #000000; stroke-width: 0.5"/>
      </g>
     </g>
     <g id="line2d_103">
      <g>
       <use xlink:href="#m336504456d" x="158.761541" y="42.775406" style="stroke: #000000; stroke-width: 0.5"/>
      </g>
     </g>
    </g>
   </g>
   <g id="line2d_104">
    <path d="M 19.261541 102.650606 
L 19.5411 93.087206 
L 19.820659 89.899406 
L 20.379778 89.899406 
L 20.659337 90.315206 
L 20.938896 87.404606 
L 21.498014 85.187006 
L 21.777573 86.434406 
L 22.057132 86.711606 
L 22.336691 88.236206 
L 22.89581 89.206406 
L 23.175369 91.285406 
L 23.454928 92.117006 
L 23.734487 91.701206 
L 24.014046 92.117006 
L 24.293605 91.424006 
L 24.573164 91.839806 
L 24.852723 93.780206 
L 25.132283 94.611806 
L 25.411842 94.473206 
L 25.691401 95.027606 
L 25.97096 95.304806 
L 26.250519 94.611806 
L 26.530078 95.166206 
L 26.809637 94.196006 
L 27.089196 95.027606 
L 27.368756 95.027606 
L 27.648315 94.196006 
L 27.927874 94.473206 
L 28.207433 94.473206 
L 28.486992 94.750406 
L 28.766551 93.087206 
L 29.04611 92.948606 
L 29.325669 93.503006 
L 29.605229 94.750406 
L 29.884788 95.443406 
L 30.443906 94.473206 
L 30.723465 95.304806 
L 31.003024 94.334606 
L 31.282583 94.057406 
L 31.562142 91.285406 
L 32.121261 89.899406 
L 32.40082 90.038006 
L 32.680379 89.483606 
L 32.959938 89.345006 
L 33.239497 89.483606 
L 33.798615 88.374806 
L 34.357734 89.483606 
L 34.637293 93.225806 
L 34.916852 94.750406 
L 35.196411 92.671406 
L 35.47597 92.671406 
L 35.755529 90.453806 
L 36.035088 91.008206 
L 36.314647 90.869606 
L 36.594206 91.008206 
L 36.873766 90.453806 
L 37.153325 90.869606 
L 37.432884 91.839806 
L 37.712443 93.641606 
L 37.992002 94.196006 
L 38.271561 94.057406 
L 38.55112 96.968006 
L 39.110239 99.462806 
L 39.389798 100.017206 
L 40.228475 100.848806 
L 40.508034 100.848806 
L 40.787593 99.878606 
L 41.067152 99.601406 
L 41.346711 99.601406 
L 41.90583 97.106606 
L 42.185389 97.383806 
L 42.464948 97.245206 
L 42.744507 97.383806 
L 43.024066 97.383806 
L 43.303625 97.106606 
L 43.583184 97.799606 
L 43.862744 95.027606 
L 44.142303 95.027606 
L 44.421862 94.750406 
L 44.701421 92.948606 
L 45.260539 86.711606 
L 45.540098 83.662406 
L 46.099216 80.613206 
L 46.378776 79.643006 
L 46.937894 78.950006 
L 47.217453 77.702606 
L 47.497012 75.762206 
L 47.776571 75.762206 
L 48.05613 74.653406 
L 48.335689 74.930606 
L 48.615249 75.485006 
L 48.894808 74.376206 
L 49.174367 74.930606 
L 49.453926 74.376206 
L 49.733485 74.376206 
L 50.572162 77.979806 
L 50.851721 77.425406 
L 51.41084 78.257006 
L 51.690399 79.227206 
L 52.808635 74.792006 
L 53.088194 74.653406 
L 53.367754 74.376206 
L 53.647313 73.267406 
L 53.926872 73.267406 
L 54.206431 73.821806 
L 54.48599 73.267406 
L 54.765549 73.406006 
L 55.045108 73.128806 
L 55.324667 74.099006 
L 55.604227 73.267406 
L 55.883786 73.128806 
L 56.163345 73.544606 
L 56.442904 72.435806 
L 56.722463 73.406006 
L 57.281581 72.158606 
L 57.56114 73.267406 
L 57.840699 73.267406 
L 58.120259 72.574406 
L 58.399818 72.435806 
L 58.679377 73.128806 
L 58.958936 72.435806 
L 59.238495 72.713006 
L 59.518054 72.297206 
L 59.797613 72.713006 
L 60.077172 72.574406 
L 60.356732 72.990206 
L 60.636291 72.851606 
L 60.91585 74.376206 
L 61.195409 74.376206 
L 61.474968 74.237606 
L 61.754527 74.792006 
L 62.034086 73.128806 
L 62.593204 72.435806 
L 63.152323 72.851606 
L 63.431882 72.990206 
L 63.711441 72.990206 
L 63.991 72.851606 
L 64.270559 72.990206 
L 64.550118 72.851606 
L 64.829677 72.574406 
L 65.109237 72.574406 
L 65.388796 72.990206 
L 65.668355 72.713006 
L 65.947914 73.128806 
L 66.227473 73.267406 
L 66.507032 72.851606 
L 66.786591 72.851606 
L 67.06615 72.435806 
L 67.625269 72.713006 
L 67.904828 72.158606 
L 68.463946 76.455206 
L 69.023064 80.474606 
L 69.302623 80.613206 
L 69.582182 80.890406 
L 70.141301 77.286806 
L 70.42086 75.485006 
L 70.700419 75.623606 
L 70.979978 75.485006 
L 71.259537 75.623606 
L 71.818655 75.346406 
L 72.098214 76.178006 
L 72.377774 76.316606 
L 72.657333 76.039406 
L 72.936892 76.039406 
L 73.216451 75.346406 
L 73.49601 75.762206 
L 73.775569 74.930606 
L 74.055128 76.455206 
L 74.334687 77.009606 
L 74.614247 77.841206 
L 74.893806 77.702606 
L 75.173365 75.623606 
L 75.732483 74.930606 
L 76.012042 74.792006 
L 76.291601 75.346406 
L 76.57116 74.930606 
L 77.130279 73.544606 
L 77.409838 73.267406 
L 77.689397 72.713006 
L 78.248515 75.900806 
L 79.087192 77.425406 
L 79.366752 77.009606 
L 79.646311 77.009606 
L 79.92587 77.702606 
L 80.205429 77.702606 
L 80.764547 78.672806 
L 81.044106 80.058806 
L 81.323665 79.781606 
L 81.603224 79.781606 
L 81.882784 80.197406 
L 82.441902 80.474606 
L 83.00102 80.197406 
L 83.560138 77.425406 
L 83.839697 77.148206 
L 84.398816 77.148206 
L 84.678375 77.009606 
L 84.957934 77.286806 
L 85.237493 76.871006 
L 85.517052 76.178006 
L 85.796611 77.009606 
L 86.07617 74.237606 
L 86.35573 73.267406 
L 86.635289 73.544606 
L 87.194407 72.158606 
L 87.753525 72.574406 
L 88.033084 72.713006 
L 88.312643 72.435806 
L 88.592202 72.713006 
L 88.871762 73.267406 
L 89.151321 72.435806 
L 89.43088 72.297206 
L 89.710439 72.713006 
L 90.269557 72.297206 
L 90.549116 73.406006 
L 90.828675 73.128806 
L 91.108235 72.435806 
L 91.387794 72.158606 
L 91.667353 72.158606 
L 91.946912 73.128806 
L 92.226471 71.742806 
L 92.50603 72.713006 
L 92.785589 72.297206 
L 93.065148 72.851606 
L 93.344707 73.128806 
L 93.624267 72.990206 
L 93.903826 72.435806 
L 94.462944 72.713006 
L 94.742503 73.821806 
L 95.022062 72.574406 
L 95.301621 72.158606 
L 95.58118 72.020006 
L 95.86074 72.990206 
L 96.140299 72.574406 
L 96.699417 73.267406 
L 96.978976 72.713006 
L 97.258535 73.683206 
L 97.538094 72.435806 
L 97.817653 72.297206 
L 98.376772 72.713006 
L 99.495008 72.713006 
L 99.774567 72.851606 
L 100.054126 72.851606 
L 100.613245 72.574406 
L 100.892804 72.713006 
L 101.172363 72.574406 
L 101.451922 72.020006 
L 101.731481 72.297206 
L 102.290599 72.297206 
L 102.570158 72.990206 
L 102.849717 73.128806 
L 103.129277 72.851606 
L 103.408836 73.128806 
L 103.688395 72.020006 
L 103.967954 72.990206 
L 104.527072 73.683206 
L 104.806631 73.406006 
L 105.08619 73.406006 
L 105.36575 73.544606 
L 105.645309 74.099006 
L 105.924868 73.960406 
L 106.204427 74.376206 
L 106.483986 74.237606 
L 107.322663 75.069206 
L 107.602222 73.544606 
L 107.881782 73.544606 
L 108.161341 74.653406 
L 108.4409 72.297206 
L 108.720459 73.544606 
L 109.000018 72.297206 
L 109.279577 72.158606 
L 109.838695 72.851606 
L 110.397814 73.544606 
L 110.956932 72.574406 
L 111.236491 72.435806 
L 111.51605 72.851606 
L 111.795609 72.851606 
L 112.075168 73.128806 
L 112.354728 71.465606 
L 112.634287 72.990206 
L 113.193405 72.990206 
L 113.472964 74.099006 
L 113.752523 74.376206 
L 114.032082 74.237606 
L 114.311641 74.514806 
L 114.5912 75.762206 
L 114.87076 76.039406 
L 115.709437 79.227206 
L 116.268555 79.227206 
L 116.827673 77.979806 
L 117.107233 78.672806 
L 117.386792 78.257006 
L 117.666351 78.395606 
L 117.94591 78.672806 
L 118.225469 78.672806 
L 118.505028 78.257006 
L 118.784587 78.534206 
L 119.064146 79.088606 
L 119.343705 79.088606 
L 119.623265 78.811406 
L 119.902824 76.871006 
L 120.461942 75.207806 
L 120.741501 75.485006 
L 121.02106 74.930606 
L 121.300619 73.960406 
L 121.580178 74.099006 
L 121.859738 74.099006 
L 122.139297 76.039406 
L 122.418856 76.178006 
L 122.698415 76.455206 
L 122.977974 78.395606 
L 123.257533 78.534206 
L 123.816651 78.118406 
L 124.37577 78.118406 
L 124.655329 77.841206 
L 124.934888 76.871006 
L 125.214447 77.564006 
L 125.494006 77.286806 
L 126.053124 76.039406 
L 126.332683 76.039406 
L 126.891802 75.623606 
L 127.45092 75.346406 
L 127.730479 75.069206 
L 128.010038 76.039406 
L 128.289597 75.900806 
L 128.569156 75.900806 
L 128.848715 75.207806 
L 129.128275 75.069206 
L 129.407834 75.069206 
L 129.687393 72.713006 
L 129.966952 72.158606 
L 130.246511 72.020006 
L 130.52607 72.158606 
L 130.805629 72.158606 
L 131.364748 73.544606 
L 131.923866 73.544606 
L 132.203425 74.099006 
L 132.482984 74.099006 
L 132.762543 76.039406 
L 133.042102 76.316606 
L 133.60122 77.841206 
L 133.88078 79.365806 
L 134.160339 78.811406 
L 134.439898 76.871006 
L 134.999016 76.039406 
L 135.278575 76.178006 
L 135.558134 75.207806 
L 135.837693 76.455206 
L 136.117253 76.871006 
L 136.396812 77.009606 
L 136.676371 76.732406 
L 136.95593 77.425406 
L 137.235489 76.039406 
L 137.515048 76.593806 
L 137.794607 76.871006 
L 138.074166 76.039406 
L 138.353726 76.178006 
L 138.633285 76.178006 
L 138.912844 75.900806 
L 139.192403 75.207806 
L 139.471962 75.207806 
L 139.751521 73.960406 
L 140.03108 73.960406 
L 140.310639 74.376206 
L 140.590198 73.821806 
L 140.869758 74.099006 
L 141.149317 74.653406 
L 141.987994 73.960406 
L 142.267553 74.930606 
L 142.547112 74.653406 
L 142.826671 75.207806 
L 143.106231 76.732406 
L 143.665349 73.821806 
L 143.944908 74.099006 
L 144.224467 72.851606 
L 144.504026 72.851606 
L 144.783585 72.574406 
L 145.063144 72.574406 
L 145.342703 72.713006 
L 145.901822 77.425406 
L 146.181381 77.425406 
L 146.46094 77.564006 
L 147.020058 77.564006 
L 147.299617 76.039406 
L 147.579176 75.346406 
L 147.858736 75.623606 
L 148.138295 74.237606 
L 148.417854 74.514806 
L 148.697413 75.485006 
L 148.976972 74.792006 
L 149.256531 74.792006 
L 149.53609 76.593806 
L 149.815649 77.564006 
L 150.374768 75.069206 
L 150.654327 74.237606 
L 150.933886 72.990206 
L 151.493004 73.267406 
L 151.772563 72.020006 
L 152.052122 73.128806 
L 152.331681 72.158606 
L 152.611241 72.990206 
L 152.8908 73.128806 
L 153.449918 72.713006 
L 153.729477 72.990206 
L 154.009036 72.574406 
L 154.568154 73.406006 
L 154.847713 72.574406 
L 155.127273 72.713006 
L 155.406832 73.267406 
L 155.686391 72.713006 
L 155.96595 72.990206 
L 156.245509 74.376206 
L 156.525068 73.406006 
L 156.804627 73.683206 
L 157.084186 74.376206 
L 158.202423 80.890406 
L 158.481982 81.444806 
L 158.761541 81.444806 
L 158.761541 81.444806 
" clip-path="url(#p2e75e7fbeb)" style="fill: none; stroke: #dedeee; stroke-linecap: square"/>
   </g>
   <g id="line2d_105">
    <path d="M 19.261541 174.445406 
L 158.761541 174.445406 
L 158.761541 174.445406 
" clip-path="url(#p2e75e7fbeb)" style="fill: none; stroke-dasharray: 3.7,1.6; stroke-dashoffset: 0; stroke: #9b9aca"/>
   </g>
   <g id="line2d_106">
    <path d="M 19.261541 121.638806 
L 19.5411 130.647806 
L 19.820659 132.865406 
L 20.100218 133.142606 
L 20.379778 133.004006 
L 20.659337 131.756606 
L 21.498014 134.112806 
L 21.777573 132.311006 
L 22.057132 132.033806 
L 22.336691 130.925006 
L 22.616251 130.509206 
L 23.454928 127.044206 
L 23.734487 126.628406 
L 24.293605 127.182806 
L 24.573164 126.905606 
L 24.852723 124.826606 
L 25.132283 124.688006 
L 25.691401 123.579206 
L 26.250519 123.856406 
L 26.530078 123.717806 
L 26.809637 124.133606 
L 27.089196 124.133606 
L 27.648315 124.549406 
L 27.927874 124.410806 
L 28.207433 124.410806 
L 28.486992 124.272206 
L 28.766551 126.212606 
L 29.04611 126.351206 
L 29.605229 123.856406 
L 29.884788 123.579206 
L 30.164347 124.133606 
L 30.443906 124.272206 
L 30.723465 123.856406 
L 31.003024 124.965206 
L 31.282583 125.381006 
L 31.841701 128.430206 
L 32.121261 128.846006 
L 32.40082 128.846006 
L 32.680379 129.400406 
L 32.959938 129.123206 
L 33.239497 129.677606 
L 33.798615 130.093406 
L 34.078174 129.954806 
L 34.357734 128.984606 
L 34.916852 124.410806 
L 35.196411 126.212606 
L 35.47597 126.489806 
L 35.755529 127.875806 
L 36.035088 127.598606 
L 36.314647 127.875806 
L 36.594206 127.875806 
L 36.873766 128.430206 
L 37.153325 128.291606 
L 37.432884 127.460006 
L 37.712443 125.658206 
L 37.992002 125.381006 
L 38.271561 124.410806 
L 38.55112 121.500206 
L 38.830679 121.084406 
L 39.389798 118.035206 
L 39.669357 118.173806 
L 39.948916 117.896606 
L 40.228475 118.312406 
L 40.508034 118.312406 
L 40.787593 119.005406 
L 41.067152 119.005406 
L 41.346711 119.144006 
L 41.626271 119.837006 
L 41.90583 122.054606 
L 42.185389 121.361606 
L 42.464948 121.500206 
L 42.744507 121.361606 
L 43.303625 122.054606 
L 43.583184 121.777406 
L 43.862744 123.440606 
L 44.142303 124.133606 
L 44.421862 123.856406 
L 44.98098 127.460006 
L 45.260539 132.449606 
L 46.099216 138.132206 
L 46.378776 138.686606 
L 46.658335 139.656806 
L 46.937894 140.211206 
L 47.217453 141.042806 
L 47.497012 143.121806 
L 48.615249 144.092006 
L 48.894808 144.230606 
L 49.174367 143.953406 
L 49.453926 144.230606 
L 49.733485 144.230606 
L 50.013044 142.567406 
L 50.292603 141.874406 
L 50.572162 140.765606 
L 50.851721 140.627006 
L 51.131281 141.042806 
L 51.41084 140.349806 
L 51.690399 139.241006 
L 51.969958 140.211206 
L 52.249517 142.290206 
L 52.529076 142.567406 
L 52.808635 143.676206 
L 53.367754 144.646406 
L 53.647313 145.616606 
L 54.206431 145.616606 
L 54.48599 145.755206 
L 54.765549 145.478006 
L 55.324667 145.478006 
L 55.604227 145.339406 
L 55.883786 145.755206 
L 56.163345 145.755206 
L 56.442904 145.893806 
L 56.722463 145.755206 
L 57.002022 145.755206 
L 57.281581 146.309606 
L 57.840699 146.032406 
L 58.399818 146.309606 
L 58.679377 145.893806 
L 58.958936 145.893806 
L 59.238495 146.032406 
L 59.518054 146.309606 
L 59.797613 146.309606 
L 60.077172 146.171006 
L 60.356732 145.478006 
L 60.636291 145.478006 
L 60.91585 144.507806 
L 61.195409 144.092006 
L 61.474968 144.646406 
L 61.754527 144.230606 
L 62.034086 145.478006 
L 62.313645 146.171006 
L 62.593204 146.032406 
L 62.872764 146.032406 
L 63.431882 146.309606 
L 63.711441 146.171006 
L 63.991 146.309606 
L 64.270559 146.032406 
L 64.550118 146.171006 
L 64.829677 145.893806 
L 65.109237 145.893806 
L 65.388796 146.171006 
L 65.947914 145.893806 
L 66.227473 146.032406 
L 66.786591 146.032406 
L 67.06615 146.171006 
L 67.345709 146.448206 
L 67.625269 146.309606 
L 67.904828 146.448206 
L 68.463946 141.874406 
L 69.023064 138.686606 
L 69.302623 137.716406 
L 69.582182 137.993606 
L 70.42086 142.844606 
L 70.700419 143.260406 
L 70.979978 143.399006 
L 71.259537 143.121806 
L 71.539096 143.537606 
L 71.818655 143.399006 
L 72.098214 143.121806 
L 72.377774 142.567406 
L 72.936892 142.567406 
L 73.49601 142.983206 
L 73.775569 143.676206 
L 74.055128 142.567406 
L 74.334687 142.151606 
L 74.893806 140.904206 
L 75.173365 142.844606 
L 75.452924 143.814806 
L 75.732483 144.230606 
L 76.012042 144.230606 
L 76.291601 143.953406 
L 76.57116 144.092006 
L 76.850719 144.646406 
L 77.130279 144.923606 
L 77.409838 145.616606 
L 77.689397 145.755206 
L 77.968956 143.814806 
L 78.807633 142.013006 
L 79.366752 141.597206 
L 79.646311 141.597206 
L 80.205429 141.042806 
L 80.484988 139.934006 
L 80.764547 139.934006 
L 81.044106 139.102406 
L 81.323665 138.825206 
L 81.603224 138.825206 
L 82.162343 138.548006 
L 82.441902 138.132206 
L 83.00102 138.686606 
L 83.280579 140.488406 
L 83.560138 141.181406 
L 83.839697 141.458606 
L 84.119257 141.458606 
L 84.398816 141.874406 
L 84.678375 142.013006 
L 84.957934 141.735806 
L 85.517052 142.151606 
L 85.796611 142.013006 
L 86.07617 144.369206 
L 86.635289 145.200806 
L 86.914848 146.032406 
L 87.194407 146.171006 
L 87.473966 146.586806 
L 87.753525 146.309606 
L 88.312643 146.586806 
L 88.592202 146.032406 
L 88.871762 146.171006 
L 89.151321 146.171006 
L 89.43088 146.309606 
L 89.710439 146.309606 
L 89.989998 146.448206 
L 90.269557 146.448206 
L 90.828675 146.032406 
L 91.108235 146.032406 
L 91.387794 146.448206 
L 91.667353 146.032406 
L 91.946912 146.309606 
L 92.226471 146.032406 
L 92.50603 146.032406 
L 92.785589 146.586806 
L 93.065148 146.448206 
L 93.344707 145.893806 
L 93.624267 146.032406 
L 93.903826 146.032406 
L 94.183385 146.309606 
L 94.462944 146.171006 
L 94.742503 145.893806 
L 95.022062 146.032406 
L 95.301621 146.309606 
L 95.86074 146.309606 
L 96.419858 145.893806 
L 96.699417 146.032406 
L 96.978976 146.309606 
L 97.258535 145.755206 
L 97.538094 145.893806 
L 97.817653 146.171006 
L 98.097212 146.171006 
L 98.376772 146.032406 
L 98.656331 146.171006 
L 99.215449 145.893806 
L 99.495008 146.032406 
L 99.774567 146.032406 
L 100.054126 146.309606 
L 100.333685 145.893806 
L 100.892804 146.309606 
L 101.172363 146.171006 
L 101.731481 146.725406 
L 102.01104 146.448206 
L 102.290599 146.586806 
L 102.570158 146.171006 
L 102.849717 146.448206 
L 103.129277 146.448206 
L 103.967954 146.032406 
L 104.247513 145.478006 
L 104.527072 145.200806 
L 104.806631 145.200806 
L 105.08619 145.062206 
L 105.36575 145.062206 
L 105.924868 144.230606 
L 106.204427 144.507806 
L 106.483986 144.092006 
L 107.043104 144.092006 
L 107.322663 144.230606 
L 107.602222 145.062206 
L 107.881782 145.478006 
L 108.161341 144.230606 
L 108.4409 146.032406 
L 108.720459 146.171006 
L 109.000018 146.725406 
L 109.559136 145.893806 
L 109.838695 145.893806 
L 110.118255 145.755206 
L 110.677373 146.171006 
L 110.956932 145.893806 
L 111.236491 146.171006 
L 111.51605 145.616606 
L 111.795609 146.309606 
L 112.075168 146.448206 
L 112.354728 146.309606 
L 112.634287 146.309606 
L 112.913846 146.032406 
L 113.752523 144.369206 
L 114.032082 144.369206 
L 114.311641 144.507806 
L 114.5912 142.567406 
L 114.87076 142.428806 
L 115.150319 141.320006 
L 115.429878 140.904206 
L 115.709437 139.656806 
L 115.988996 139.656806 
L 116.268555 140.072606 
L 116.548114 140.765606 
L 116.827673 140.211206 
L 117.107233 140.349806 
L 117.386792 140.349806 
L 117.666351 140.488406 
L 117.94591 140.211206 
L 118.505028 140.488406 
L 118.784587 140.072606 
L 119.064146 140.072606 
L 119.343705 139.934006 
L 119.623265 139.934006 
L 119.902824 141.735806 
L 120.741501 143.676206 
L 121.02106 143.814806 
L 121.580178 145.200806 
L 121.859738 144.646406 
L 122.139297 142.706006 
L 122.418856 142.844606 
L 122.698415 141.874406 
L 122.977974 140.488406 
L 123.537092 140.072606 
L 123.816651 140.765606 
L 124.09621 140.488406 
L 124.37577 140.904206 
L 124.655329 140.765606 
L 124.934888 141.597206 
L 125.214447 141.320006 
L 126.053124 142.983206 
L 126.891802 143.399006 
L 127.45092 143.399006 
L 128.010038 142.844606 
L 128.289597 143.121806 
L 128.569156 142.983206 
L 129.407834 144.092006 
L 129.687393 146.032406 
L 129.966952 146.309606 
L 130.246511 146.171006 
L 130.52607 145.893806 
L 130.805629 146.032406 
L 131.085188 146.309606 
L 131.644307 145.755206 
L 131.923866 145.200806 
L 132.203425 145.062206 
L 132.482984 144.507806 
L 132.762543 142.428806 
L 133.042102 142.428806 
L 133.88078 140.072606 
L 134.160339 140.349806 
L 134.439898 142.013006 
L 134.999016 142.706006 
L 135.558134 143.676206 
L 135.837693 142.013006 
L 136.117253 142.290206 
L 136.396812 141.874406 
L 136.676371 141.874406 
L 136.95593 141.320006 
L 137.235489 142.567406 
L 137.515048 142.567406 
L 137.794607 142.151606 
L 138.074166 142.151606 
L 138.633285 142.844606 
L 138.912844 142.844606 
L 139.192403 142.706006 
L 139.471962 143.676206 
L 140.03108 144.646406 
L 140.310639 144.230606 
L 140.590198 144.785006 
L 140.869758 144.369206 
L 141.149317 144.507806 
L 141.428876 144.369206 
L 141.708435 144.369206 
L 141.987994 144.507806 
L 142.547112 144.230606 
L 142.826671 143.953406 
L 143.106231 142.706006 
L 143.665349 144.923606 
L 144.224467 145.478006 
L 144.504026 146.171006 
L 144.783585 145.755206 
L 145.063144 146.032406 
L 145.342703 145.755206 
L 145.901822 141.874406 
L 146.181381 141.181406 
L 146.46094 141.320006 
L 147.020058 141.320006 
L 147.299617 143.121806 
L 147.579176 143.814806 
L 147.858736 143.537606 
L 148.138295 143.814806 
L 148.417854 144.369206 
L 148.697413 144.092006 
L 148.976972 144.092006 
L 149.256531 144.230606 
L 149.53609 142.013006 
L 149.815649 141.320006 
L 150.095208 143.121806 
L 150.374768 143.537606 
L 150.654327 144.230606 
L 150.933886 145.616606 
L 151.213445 145.755206 
L 151.493004 145.755206 
L 151.772563 146.309606 
L 152.052122 145.893806 
L 152.331681 146.171006 
L 152.8908 145.893806 
L 153.170359 146.032406 
L 153.449918 146.032406 
L 154.009036 145.755206 
L 154.288595 145.893806 
L 154.568154 145.755206 
L 154.847713 146.171006 
L 155.127273 145.893806 
L 155.406832 146.032406 
L 155.686391 146.032406 
L 155.96595 145.339406 
L 156.245509 145.200806 
L 156.525068 144.785006 
L 156.804627 145.062206 
L 157.084186 144.785006 
L 157.643305 140.765606 
L 157.922864 138.548006 
L 158.481982 137.439206 
L 158.761541 137.162006 
L 158.761541 137.162006 
" clip-path="url(#p2e75e7fbeb)" style="fill: none; stroke-dasharray: 1,1.65; stroke-dashoffset: 0; stroke: #7976b8"/>
   </g>
   <g id="line2d_107">
    <path d="M 19.261541 160.446806 
L 19.5411 161.001206 
L 19.820659 161.971406 
L 20.100218 161.694206 
L 20.379778 161.832806 
L 20.659337 162.664406 
L 20.938896 164.882006 
L 21.218455 165.575006 
L 21.498014 165.436406 
L 21.777573 165.990806 
L 22.057132 165.990806 
L 22.336691 165.575006 
L 22.616251 165.436406 
L 22.89581 166.129406 
L 23.175369 165.575006 
L 23.454928 165.575006 
L 23.734487 166.406606 
L 24.014046 165.713606 
L 24.293605 166.129406 
L 24.573164 165.990806 
L 24.852723 166.129406 
L 25.132283 165.436406 
L 25.411842 166.129406 
L 25.691401 166.129406 
L 25.97096 165.713606 
L 26.250519 166.268006 
L 26.530078 165.852206 
L 26.809637 166.406606 
L 27.089196 165.575006 
L 27.368756 165.297806 
L 27.648315 165.990806 
L 27.927874 165.852206 
L 28.207433 165.852206 
L 28.486992 165.713606 
L 28.766551 165.436406 
L 29.04611 165.436406 
L 29.325669 165.990806 
L 29.605229 166.129406 
L 29.884788 165.713606 
L 30.164347 165.713606 
L 30.443906 165.990806 
L 30.723465 165.575006 
L 31.282583 165.297806 
L 31.562142 166.268006 
L 31.841701 165.852206 
L 32.121261 165.990806 
L 32.40082 165.852206 
L 32.680379 165.852206 
L 32.959938 166.268006 
L 33.239497 165.575006 
L 33.798615 166.268006 
L 34.078174 165.852206 
L 34.357734 166.268006 
L 34.637293 165.159206 
L 35.196411 165.852206 
L 35.47597 165.575006 
L 35.755529 166.406606 
L 36.314647 165.990806 
L 36.594206 165.852206 
L 36.873766 165.852206 
L 37.432884 165.436406 
L 37.712443 165.436406 
L 37.992002 165.159206 
L 38.271561 166.268006 
L 38.55112 166.268006 
L 38.830679 165.159206 
L 39.389798 166.683806 
L 39.669357 166.268006 
L 39.948916 166.129406 
L 40.228475 165.575006 
L 40.508034 165.575006 
L 41.067152 166.129406 
L 41.346711 165.990806 
L 41.626271 166.545206 
L 41.90583 165.575006 
L 42.185389 165.990806 
L 42.744507 165.990806 
L 43.583184 165.159206 
L 43.862744 166.268006 
L 44.142303 165.575006 
L 44.421862 166.129406 
L 44.701421 165.713606 
L 44.98098 166.961006 
L 45.260539 165.575006 
L 45.540098 166.545206 
L 45.819657 165.990806 
L 46.099216 165.990806 
L 46.378776 166.406606 
L 46.658335 165.713606 
L 46.937894 165.575006 
L 47.217453 165.990806 
L 47.497012 165.852206 
L 47.776571 165.575006 
L 48.05613 166.268006 
L 48.335689 165.852206 
L 48.615249 165.159206 
L 48.894808 166.129406 
L 49.174367 165.852206 
L 49.453926 166.129406 
L 49.733485 166.129406 
L 50.013044 166.406606 
L 50.292603 165.713606 
L 50.572162 165.990806 
L 50.851721 166.683806 
L 51.131281 165.852206 
L 51.690399 166.268006 
L 51.969958 166.406606 
L 52.249517 165.575006 
L 52.808635 166.268006 
L 53.367754 165.713606 
L 53.647313 165.852206 
L 53.926872 165.852206 
L 54.206431 165.297806 
L 54.48599 165.713606 
L 54.765549 165.852206 
L 55.045108 166.129406 
L 55.324667 165.159206 
L 55.604227 166.129406 
L 56.163345 165.436406 
L 56.442904 166.406606 
L 56.722463 165.575006 
L 57.002022 166.268006 
L 57.281581 166.268006 
L 57.56114 165.297806 
L 57.840699 165.436406 
L 58.120259 165.990806 
L 58.399818 165.990806 
L 58.679377 165.713606 
L 58.958936 166.406606 
L 59.238495 165.990806 
L 59.518054 166.129406 
L 59.797613 165.713606 
L 60.636291 166.406606 
L 60.91585 165.852206 
L 61.195409 166.268006 
L 61.474968 165.852206 
L 61.754527 165.713606 
L 62.034086 166.129406 
L 62.313645 165.852206 
L 62.593204 166.268006 
L 63.431882 165.436406 
L 63.711441 165.575006 
L 63.991 165.575006 
L 64.270559 165.713606 
L 64.550118 165.713606 
L 64.829677 166.268006 
L 65.109237 166.268006 
L 65.388796 165.575006 
L 65.668355 165.990806 
L 66.227473 165.436406 
L 66.507032 165.852206 
L 66.786591 165.852206 
L 67.06615 166.129406 
L 67.345709 165.713606 
L 67.625269 165.713606 
L 67.904828 166.129406 
L 68.184387 166.129406 
L 68.463946 166.406606 
L 68.743505 166.268006 
L 69.023064 165.575006 
L 69.302623 166.406606 
L 69.582182 165.852206 
L 69.861742 166.406606 
L 70.42086 166.406606 
L 70.700419 165.852206 
L 70.979978 165.852206 
L 71.259537 165.990806 
L 71.539096 165.713606 
L 71.818655 165.990806 
L 72.098214 165.436406 
L 72.657333 166.129406 
L 72.936892 166.129406 
L 73.216451 166.545206 
L 73.49601 165.990806 
L 73.775569 166.129406 
L 74.055128 165.713606 
L 74.614247 165.436406 
L 74.893806 166.129406 
L 75.173365 166.268006 
L 75.452924 165.713606 
L 75.732483 165.575006 
L 76.012042 165.713606 
L 76.291601 165.436406 
L 77.130279 166.268006 
L 77.409838 165.852206 
L 77.689397 166.268006 
L 77.968956 166.268006 
L 78.248515 165.713606 
L 78.528074 165.852206 
L 78.807633 165.852206 
L 79.087192 165.575006 
L 79.366752 166.129406 
L 79.646311 166.129406 
L 79.92587 165.713606 
L 80.205429 165.990806 
L 80.484988 166.683806 
L 81.044106 165.575006 
L 81.323665 166.129406 
L 81.603224 166.129406 
L 81.882784 165.852206 
L 82.162343 165.852206 
L 82.441902 166.129406 
L 83.280579 165.713606 
L 83.560138 166.129406 
L 84.119257 166.129406 
L 84.398816 165.713606 
L 84.957934 165.713606 
L 85.237493 165.852206 
L 85.517052 166.406606 
L 85.796611 165.713606 
L 86.35573 166.683806 
L 86.635289 165.990806 
L 86.914848 165.852206 
L 87.194407 166.406606 
L 87.473966 165.713606 
L 87.753525 165.852206 
L 88.033084 165.575006 
L 88.312643 165.713606 
L 88.592202 165.990806 
L 88.871762 165.297806 
L 89.151321 166.129406 
L 89.43088 166.129406 
L 89.710439 165.713606 
L 90.269557 165.990806 
L 90.549116 165.159206 
L 90.828675 165.575006 
L 91.108235 166.268006 
L 91.387794 166.129406 
L 91.667353 166.545206 
L 91.946912 165.297806 
L 92.226471 166.961006 
L 92.50603 165.990806 
L 92.785589 165.852206 
L 93.065148 165.436406 
L 93.344707 165.713606 
L 93.624267 165.713606 
L 93.903826 166.268006 
L 94.183385 165.852206 
L 94.462944 165.852206 
L 94.742503 165.020606 
L 95.022062 166.129406 
L 95.58118 166.406606 
L 95.86074 165.436406 
L 96.140299 166.129406 
L 96.699417 165.436406 
L 96.978976 165.713606 
L 97.258535 165.297806 
L 97.538094 166.406606 
L 97.817653 166.268006 
L 98.097212 165.990806 
L 98.376772 165.990806 
L 98.656331 165.852206 
L 99.215449 166.129406 
L 99.774567 165.852206 
L 100.054126 165.575006 
L 100.333685 166.129406 
L 100.613245 165.990806 
L 100.892804 165.713606 
L 101.451922 166.268006 
L 101.731481 165.713606 
L 102.01104 165.990806 
L 102.290599 165.852206 
L 102.849717 165.159206 
L 103.129277 165.436406 
L 103.408836 165.297806 
L 103.688395 166.545206 
L 103.967954 165.713606 
L 104.247513 165.852206 
L 104.527072 165.852206 
L 105.08619 166.268006 
L 105.645309 165.990806 
L 105.924868 166.545206 
L 106.204427 165.852206 
L 106.483986 166.406606 
L 107.322663 165.436406 
L 107.602222 166.129406 
L 107.881782 165.713606 
L 108.161341 165.852206 
L 108.4409 166.406606 
L 108.720459 165.020606 
L 109.279577 166.268006 
L 109.559136 166.406606 
L 110.397814 165.159206 
L 110.677373 165.575006 
L 110.956932 166.268006 
L 111.236491 166.129406 
L 111.51605 166.268006 
L 112.075168 165.159206 
L 112.354728 166.961006 
L 112.634287 165.436406 
L 112.913846 165.713606 
L 113.193405 166.268006 
L 113.472964 165.713606 
L 114.032082 166.129406 
L 114.311641 165.713606 
L 114.5912 166.406606 
L 114.87076 166.268006 
L 115.150319 166.406606 
L 115.429878 165.852206 
L 115.988996 165.852206 
L 116.268555 165.436406 
L 116.548114 165.297806 
L 116.827673 166.545206 
L 117.107233 165.713606 
L 117.386792 166.129406 
L 117.666351 165.852206 
L 117.94591 165.852206 
L 118.225469 165.713606 
L 118.784587 166.129406 
L 119.064146 165.575006 
L 119.343705 165.713606 
L 119.902824 166.129406 
L 120.182383 166.268006 
L 120.461942 166.129406 
L 120.741501 165.575006 
L 121.300619 166.268006 
L 121.580178 165.436406 
L 121.859738 165.990806 
L 122.139297 165.990806 
L 122.418856 165.713606 
L 122.698415 166.406606 
L 122.977974 165.852206 
L 123.257533 165.990806 
L 123.537092 166.406606 
L 123.816651 165.852206 
L 124.09621 166.129406 
L 124.37577 165.713606 
L 124.655329 166.129406 
L 124.934888 166.268006 
L 125.494006 165.575006 
L 125.773565 165.713606 
L 126.053124 165.713606 
L 126.332683 165.575006 
L 126.612243 165.713606 
L 126.891802 165.713606 
L 127.45092 165.990806 
L 127.730479 166.545206 
L 128.010038 165.852206 
L 128.289597 165.713606 
L 128.569156 165.852206 
L 128.848715 166.129406 
L 129.128275 165.713606 
L 129.407834 165.575006 
L 129.966952 166.268006 
L 130.52607 166.683806 
L 130.805629 166.545206 
L 131.085188 165.575006 
L 131.364748 165.159206 
L 131.644307 165.436406 
L 131.923866 165.990806 
L 132.203425 165.575006 
L 132.482984 166.129406 
L 132.762543 166.268006 
L 133.88078 165.297806 
L 134.719457 165.990806 
L 134.999016 165.990806 
L 135.278575 165.297806 
L 135.837693 166.268006 
L 136.117253 165.575006 
L 136.676371 166.129406 
L 136.95593 165.990806 
L 137.235489 166.129406 
L 137.515048 165.575006 
L 137.794607 165.713606 
L 138.074166 166.545206 
L 138.353726 165.990806 
L 138.633285 165.713606 
L 138.912844 165.990806 
L 139.192403 166.822406 
L 139.471962 165.852206 
L 139.751521 166.545206 
L 140.03108 166.129406 
L 140.590198 166.129406 
L 140.869758 166.268006 
L 141.149317 165.575006 
L 141.708435 166.268006 
L 141.987994 166.268006 
L 142.267553 165.436406 
L 142.547112 165.852206 
L 143.106231 165.297806 
L 143.665349 165.990806 
L 143.944908 165.436406 
L 144.224467 166.406606 
L 144.504026 165.713606 
L 144.783585 166.406606 
L 145.063144 166.129406 
L 145.342703 166.268006 
L 145.622263 166.129406 
L 145.901822 165.436406 
L 146.181381 166.129406 
L 146.46094 165.852206 
L 147.020058 165.852206 
L 147.299617 165.575006 
L 147.858736 165.575006 
L 148.138295 166.683806 
L 148.697413 165.159206 
L 148.976972 165.852206 
L 149.256531 165.713606 
L 149.53609 166.129406 
L 150.095208 165.436406 
L 150.374768 166.129406 
L 150.654327 166.268006 
L 150.933886 166.129406 
L 151.493004 165.713606 
L 151.772563 166.406606 
L 152.052122 165.713606 
L 152.331681 166.406606 
L 152.611241 165.713606 
L 152.8908 165.713606 
L 153.449918 165.990806 
L 153.729477 165.852206 
L 154.009036 166.406606 
L 154.288595 165.852206 
L 154.568154 165.575006 
L 154.847713 165.990806 
L 155.127273 166.129406 
L 155.406832 165.436406 
L 155.96595 166.406606 
L 156.245509 165.159206 
L 156.525068 166.545206 
L 157.084186 165.575006 
L 157.363746 166.268006 
L 157.643305 165.990806 
L 157.922864 166.129406 
L 158.202423 165.852206 
L 158.481982 165.852206 
L 158.761541 166.129406 
L 158.761541 166.129406 
" clip-path="url(#p2e75e7fbeb)" style="fill: none; stroke-dasharray: 6.4,1.6,1,1.6; stroke-dashoffset: 0; stroke: #201f3d"/>
   </g>
   <g id="patch_3">
    <path d="M 19.261541 174.445406 
L 19.261541 35.845406 
" style="fill: none; stroke: #000000; stroke-width: 0.5; stroke-linejoin: miter; stroke-linecap: square"/>
   </g>
   <g id="patch_4">
    <path d="M 158.761541 174.445406 
L 158.761541 35.845406 
" style="fill: none; stroke: #000000; stroke-width: 0.5; stroke-linejoin: miter; stroke-linecap: square"/>
   </g>
   <g id="patch_5">
    <path d="M 19.261541 174.445406 
L 158.761541 174.445406 
" style="fill: none; stroke: #000000; stroke-width: 0.5; stroke-linejoin: miter; stroke-linecap: square"/>
   </g>
   <g id="patch_6">
    <path d="M 19.261541 35.845406 
L 158.761541 35.845406 
" style="fill: none; stroke: #000000; stroke-width: 0.5; stroke-linejoin: miter; stroke-linecap: square"/>
   </g>
   <g id="text_12">
    <!-- Evolucin de Mxico -->
    <g transform="translate(47.93387 10.084396) scale(0.096 -0.096)">
     <defs>
      <path id="NimbusRomNo9L-Regu-45" d="M 3821 1078 
L 3642 1078 
C 3322 389 3046 237 2131 237 
L 1958 237 
C 1645 237 1376 269 1331 315 
C 1299 334 1286 404 1286 514 
L 1286 2106 
L 2272 2106 
C 2797 2106 2893 2020 2976 1472 
L 3123 1472 
L 3123 2957 
L 2976 2957 
C 2931 2703 2906 2610 2835 2523 
C 2752 2417 2573 2368 2272 2368 
L 1286 2368 
L 1286 3766 
C 1286 3943 1325 3981 1498 3981 
L 2362 3981 
C 3085 3981 3226 3886 3334 3314 
L 3494 3314 
L 3475 4224 
L 77 4224 
L 77 4102 
C 550 4064 634 3974 634 3525 
L 634 679 
C 634 230 544 134 77 134 
L 77 0 
L 3533 0 
L 3821 1078 
z
" transform="scale(0.015625)"/>
      <path id="NimbusRomNo9L-Regu-76" d="M 3053 2854 
L 2163 2854 
L 2163 2758 
C 2368 2739 2464 2675 2464 2552 
C 2464 2488 2451 2424 2426 2359 
L 1792 695 
L 1139 2340 
C 1101 2431 1082 2520 1082 2578 
C 1082 2694 1152 2739 1376 2758 
L 1376 2854 
L 122 2854 
L 122 2752 
C 365 2752 410 2688 704 2024 
L 1472 175 
C 1485 137 1504 91 1523 40 
C 1562 -76 1600 -128 1638 -128 
C 1677 -128 1722 -44 1818 193 
L 2637 2257 
C 2822 2694 2861 2739 3053 2758 
L 3053 2854 
z
" transform="scale(0.015625)"/>
      <path id="NimbusRomNo9L-Regu-6f" d="M 1600 2944 
C 768 2944 186 2330 186 1446 
C 186 582 781 -64 1587 -64 
C 2394 -64 3008 614 3008 1498 
C 3008 2336 2419 2944 1600 2944 
z
M 1517 2765 
C 2054 2765 2432 2150 2432 1274 
C 2432 550 2144 115 1664 115 
C 1414 115 1178 269 1043 525 
C 864 858 762 1306 762 1760 
C 762 2368 1062 2765 1517 2765 
z
" transform="scale(0.015625)"/>
      <path id="NimbusRomNo9L-Regu-6c" d="M 122 4000 
L 160 4000 
C 230 4000 307 4000 358 4000 
C 563 4000 627 3910 627 3610 
L 627 557 
C 627 211 538 128 134 96 
L 134 0 
L 1645 0 
L 1645 109 
C 1242 109 1165 173 1165 528 
L 1165 4371 
L 1139 4384 
C 806 4275 563 4211 122 4103 
L 122 4000 
z
" transform="scale(0.015625)"/>
      <path id="NimbusRomNo9L-Regu-75" d="M 3066 320 
L 3034 320 
C 2739 320 2669 390 2669 685 
L 2669 2880 
L 1658 2880 
L 1658 2758 
C 2054 2758 2131 2694 2131 2375 
L 2131 875 
C 2131 697 2099 607 2010 537 
C 1837 397 1638 320 1446 320 
C 1197 320 992 537 992 805 
L 992 2880 
L 58 2880 
L 58 2778 
C 365 2778 454 2682 454 2387 
L 454 770 
C 454 263 762 -64 1229 -64 
C 1466 -64 1715 38 1888 211 
L 2163 486 
L 2163 -45 
L 2189 -58 
C 2509 70 2739 141 3066 230 
L 3066 320 
z
" transform="scale(0.015625)"/>
      <path id="NimbusRomNo9L-Regu-63" d="M 2547 998 
C 2240 550 2010 397 1645 397 
C 1062 397 653 909 653 1645 
C 653 2304 1005 2758 1523 2758 
C 1754 2758 1837 2688 1901 2451 
L 1939 2310 
C 1990 2131 2106 2016 2240 2016 
C 2406 2016 2547 2138 2547 2285 
C 2547 2643 2099 2944 1562 2944 
C 1248 2944 922 2816 659 2586 
C 339 2304 160 1869 160 1363 
C 160 531 666 -64 1376 -64 
C 1664 -64 1920 38 2150 237 
C 2323 390 2445 563 2637 941 
L 2547 998 
z
" transform="scale(0.015625)"/>
      <path id="NimbusRomNo9L-Regu-69" d="M 1120 2929 
L 128 2579 
L 128 2484 
L 179 2490 
C 256 2502 339 2509 397 2509 
C 550 2509 608 2406 608 2125 
L 608 640 
C 608 179 544 109 102 109 
L 102 0 
L 1619 0 
L 1619 96 
C 1197 128 1146 191 1146 650 
L 1146 2910 
L 1120 2929 
z
M 819 4352 
C 646 4352 499 4205 499 4026 
C 499 3847 640 3699 819 3699 
C 1005 3699 1152 3840 1152 4026 
C 1152 4205 1005 4352 819 4352 
z
" transform="scale(0.015625)"/>
      <path id="NimbusRomNo9L-Regu-b4" d="M 851 3264 
L 1837 3882 
C 1971 3964 2029 4047 2029 4148 
C 2029 4275 1946 4352 1805 4352 
C 1709 4352 1651 4320 1536 4206 
L 595 3264 
L 851 3264 
z
" transform="scale(0.015625)"/>
      <path id="NimbusRomNo9L-Regu-6e" d="M 102 2579 
C 141 2598 205 2605 275 2605 
C 454 2605 512 2509 512 2195 
L 512 608 
C 512 243 442 154 115 128 
L 115 32 
L 1472 32 
L 1472 128 
C 1146 154 1050 230 1050 461 
L 1050 2259 
C 1357 2547 1498 2624 1709 2624 
C 2022 2624 2176 2426 2176 2003 
L 2176 666 
C 2176 262 2093 154 1773 128 
L 1773 32 
L 3104 32 
L 3104 128 
C 2790 160 2714 237 2714 550 
L 2714 2016 
C 2714 2618 2432 2976 1958 2976 
C 1664 2976 1466 2867 1030 2458 
L 1030 2963 
L 986 2976 
C 672 2861 454 2790 102 2688 
L 102 2579 
z
" transform="scale(0.015625)"/>
      <path id="NimbusRomNo9L-Regu-64" d="M 2202 -64 
L 3142 269 
L 3142 365 
C 3027 365 3014 365 2995 365 
C 2765 365 2714 435 2714 731 
L 2714 4364 
L 2682 4377 
C 2374 4268 2150 4204 1741 4096 
L 1741 3994 
C 1792 4000 1830 4000 1882 4000 
C 2118 4000 2176 3936 2176 3672 
L 2176 2669 
C 1933 2874 1760 2944 1504 2944 
C 768 2944 173 2221 173 1312 
C 173 493 653 -64 1357 -64 
C 1715 -64 1958 64 2176 365 
L 2176 -45 
L 2202 -64 
z
M 2176 653 
C 2176 608 2131 531 2067 461 
C 1952 333 1792 269 1606 269 
C 1075 269 723 781 723 1568 
C 723 2291 1037 2765 1523 2765 
C 1862 2765 2176 2464 2176 2125 
L 2176 653 
z
" transform="scale(0.015625)"/>
      <path id="NimbusRomNo9L-Regu-65" d="M 2611 1053 
C 2304 564 2029 378 1619 378 
C 1254 378 979 564 794 930 
C 678 1174 634 1386 621 1779 
L 2592 1779 
C 2541 2193 2477 2377 2317 2581 
C 2125 2811 1830 2944 1498 2944 
C 1178 2944 877 2829 634 2611 
C 333 2349 160 1894 160 1370 
C 160 486 621 -64 1357 -64 
C 1965 -64 2445 315 2714 1008 
L 2611 1053 
z
M 634 1984 
C 704 2479 922 2714 1312 2714 
C 1702 2714 1856 2535 1939 1984 
L 634 1984 
z
" transform="scale(0.015625)"/>
      <path id="NimbusRomNo9L-Regu-4d" d="M 4314 3667 
L 4314 751 
C 4314 217 4237 134 3731 134 
L 3731 0 
L 5523 0 
L 5523 134 
C 5056 134 4966 223 4966 681 
L 4966 3536 
C 4966 3993 5050 4077 5523 4115 
L 5523 4237 
L 4250 4237 
L 2835 1004 
L 1357 4237 
L 90 4237 
L 90 4096 
C 614 4096 698 4019 698 3550 
L 698 943 
C 698 282 608 159 77 121 
L 77 0 
L 1581 0 
L 1581 134 
C 1088 134 979 282 979 931 
L 979 3520 
L 2586 0 
L 2675 0 
L 4314 3667 
z
" transform="scale(0.015625)"/>
      <path id="NimbusRomNo9L-Regu-78" d="M 1779 0 
L 3066 0 
L 3066 96 
C 2867 96 2739 198 2541 480 
L 1722 1735 
L 2253 2502 
C 2374 2675 2566 2778 2771 2778 
L 2771 2880 
L 1760 2880 
L 1760 2778 
C 1952 2778 2016 2740 2016 2649 
C 2016 2571 1939 2430 1779 2229 
C 1747 2191 1670 2075 1587 1946 
L 1498 2074 
C 1318 2342 1203 2560 1203 2643 
C 1203 2733 1286 2778 1478 2778 
L 1478 2880 
L 154 2880 
L 154 2778 
L 211 2778 
C 403 2778 506 2695 704 2396 
L 1306 1479 
L 576 422 
C 384 160 320 115 109 96 
L 109 0 
L 1037 0 
L 1037 96 
C 858 96 781 128 781 211 
C 781 250 826 346 909 474 
L 1414 1261 
L 1997 365 
C 2022 326 2035 288 2035 250 
C 2035 123 1990 96 1779 96 
L 1779 0 
z
" transform="scale(0.015625)"/>
     </defs>
     <use xlink:href="#NimbusRomNo9L-Regu-45" transform="scale(0.996264)"/>
     <use xlink:href="#NimbusRomNo9L-Regu-76" transform="translate(60.871631 0) scale(0.996264)"/>
     <use xlink:href="#NimbusRomNo9L-Regu-6f" transform="translate(108.69282 0) scale(0.996264)"/>
     <use xlink:href="#NimbusRomNo9L-Regu-6c" transform="translate(158.506021 0) scale(0.996264)"/>
     <use xlink:href="#NimbusRomNo9L-Regu-75" transform="translate(186.20119 0) scale(0.996264)"/>
     <use xlink:href="#NimbusRomNo9L-Regu-63" transform="translate(236.014391 0) scale(0.996264)"/>
     <use xlink:href="#NimbusRomNo9L-Regu-69" transform="translate(280.247959 0) scale(0.996264)"/>
     <use xlink:href="#NimbusRomNo9L-Regu-b4" transform="translate(316.262122 0.498056) scale(0.996264)"/>
     <use xlink:href="#NimbusRomNo9L-Regu-6f" transform="translate(307.943129 0) scale(0.996264)"/>
     <use xlink:href="#NimbusRomNo9L-Regu-6e" transform="translate(357.756329 0) scale(0.996264)"/>
     <use xlink:href="#NimbusRomNo9L-Regu-64" transform="translate(432.47613 0) scale(0.996264)"/>
     <use xlink:href="#NimbusRomNo9L-Regu-65" transform="translate(482.289331 0) scale(0.996264)"/>
     <use xlink:href="#NimbusRomNo9L-Regu-4d" transform="translate(551.4295 0) scale(0.996264)"/>
     <use xlink:href="#NimbusRomNo9L-Regu-b4" transform="translate(645.525583 0.498056) scale(0.996264)"/>
     <use xlink:href="#NimbusRomNo9L-Regu-65" transform="translate(639.996406 0) scale(0.996264)"/>
     <use xlink:href="#NimbusRomNo9L-Regu-78" transform="translate(684.229975 0) scale(0.996264)"/>
     <use xlink:href="#NimbusRomNo9L-Regu-69" transform="translate(734.043175 0) scale(0.996264)"/>
     <use xlink:href="#NimbusRomNo9L-Regu-63" transform="translate(761.738345 0) scale(0.996264)"/>
     <use xlink:href="#NimbusRomNo9L-Regu-6f" transform="translate(805.971914 0) scale(0.996264)"/>
    </g>
    <!-- Barabsi-Albert (m=1) - Homofilia: 0\%  -->
    <g transform="translate(12.71454 19.936215) scale(0.096 -0.096)">
     <defs>
      <path id="NimbusRomNo9L-Regu-42" d="M 109 4237 
L 109 4096 
C 646 4096 723 4026 723 3548 
L 723 689 
C 723 212 640 128 109 128 
L 109 0 
L 2246 0 
C 2746 0 3200 136 3437 356 
C 3667 564 3795 855 3795 1165 
C 3795 1451 3680 1710 3482 1897 
C 3290 2072 3117 2150 2701 2253 
C 3034 2335 3168 2398 3322 2531 
C 3482 2671 3578 2903 3578 3163 
C 3578 3871 3008 4237 1901 4237 
L 109 4237 
z
M 1376 2112 
C 1997 2112 2291 2080 2522 1982 
C 2886 1827 3059 1568 3059 1159 
C 3059 809 2925 555 2669 406 
C 2464 290 2202 238 1779 238 
C 1466 238 1376 296 1376 504 
L 1376 2112 
z
M 1376 2368 
L 1376 3812 
C 1376 3944 1421 4001 1517 4001 
L 1798 4001 
C 2534 4001 2925 3699 2925 3137 
C 2925 2646 2586 2368 1984 2368 
L 1376 2368 
z
" transform="scale(0.015625)"/>
      <path id="NimbusRomNo9L-Regu-61" d="M 2829 423 
C 2720 333 2643 301 2547 301 
C 2400 301 2355 390 2355 672 
L 2355 1920 
C 2355 2253 2323 2438 2227 2592 
C 2086 2822 1811 2944 1434 2944 
C 832 2944 358 2630 358 2227 
C 358 2080 486 1952 634 1952 
C 787 1952 922 2080 922 2221 
C 922 2246 915 2278 909 2323 
C 896 2381 890 2432 890 2477 
C 890 2650 1094 2790 1350 2790 
C 1664 2790 1837 2605 1837 2259 
L 1837 1869 
C 851 1472 742 1421 467 1178 
C 326 1050 237 832 237 621 
C 237 218 518 -64 909 -64 
C 1190 -64 1453 70 1843 403 
C 1875 70 1990 -64 2253 -64 
C 2470 -64 2605 13 2829 256 
L 2829 423 
z
M 1837 783 
C 1837 584 1805 526 1670 449 
C 1517 359 1338 301 1203 301 
C 979 301 800 520 800 796 
L 800 822 
C 800 1201 1062 1433 1837 1715 
L 1837 783 
z
" transform="scale(0.015625)"/>
      <path id="NimbusRomNo9L-Regu-72" d="M 45 2496 
C 134 2515 192 2522 269 2522 
C 429 2522 486 2419 486 2138 
L 486 538 
C 486 218 442 173 32 96 
L 32 0 
L 1568 0 
L 1568 102 
C 1133 102 1024 199 1024 565 
L 1024 2013 
C 1024 2219 1299 2541 1472 2541 
C 1510 2541 1568 2509 1638 2445 
C 1741 2355 1811 2317 1894 2317 
C 2048 2317 2144 2426 2144 2605 
C 2144 2816 2010 2944 1792 2944 
C 1523 2944 1338 2797 1024 2343 
L 1024 2931 
L 992 2944 
C 653 2803 422 2721 45 2599 
L 45 2496 
z
" transform="scale(0.015625)"/>
      <path id="NimbusRomNo9L-Regu-62" d="M 979 4364 
L 947 4377 
C 678 4281 506 4230 205 4147 
L 19 4096 
L 19 3994 
C 58 4000 83 4000 128 4000 
C 384 4000 442 3942 442 3673 
L 442 347 
C 442 147 986 -64 1498 -64 
C 2342 -64 2995 640 2995 1555 
C 2995 2342 2509 2944 1869 2944 
C 1478 2944 1107 2714 979 2400 
L 979 4364 
z
M 979 2061 
C 979 2310 1280 2541 1613 2541 
C 2112 2541 2432 2042 2432 1261 
C 2432 550 2125 141 1600 141 
C 1267 141 979 288 979 448 
L 979 2061 
z
" transform="scale(0.015625)"/>
      <path id="NimbusRomNo9L-Regu-73" d="M 2016 2010 
L 1990 2880 
L 1920 2880 
L 1907 2867 
C 1850 2822 1843 2816 1818 2816 
C 1779 2816 1715 2829 1645 2861 
C 1504 2915 1363 2944 1197 2944 
C 691 2944 326 2616 326 2154 
C 326 1796 531 1539 1075 1231 
L 1446 1020 
C 1670 892 1779 737 1779 539 
C 1779 256 1574 77 1248 77 
C 1030 77 832 159 710 298 
C 576 455 518 600 435 960 
L 333 960 
L 333 -39 
L 416 -39 
C 461 33 486 48 563 48 
C 621 48 710 35 858 -2 
C 1037 -39 1210 -64 1325 -64 
C 1818 -64 2227 308 2227 757 
C 2227 1077 2074 1289 1690 1520 
L 998 1930 
C 819 2033 723 2194 723 2367 
C 723 2624 922 2803 1216 2803 
C 1581 2803 1773 2583 1920 2010 
L 2016 2010 
z
" transform="scale(0.015625)"/>
      <path id="NimbusRomNo9L-Regu-2d" d="M 250 1619 
L 250 1216 
L 1824 1216 
L 1824 1619 
L 250 1619 
z
" transform="scale(0.015625)"/>
      <path id="NimbusRomNo9L-Regu-41" d="M 4518 128 
C 4230 128 4166 192 3942 667 
L 2349 4320 
L 2221 4320 
L 890 1168 
C 480 231 403 128 96 128 
L 96 0 
L 1363 0 
L 1363 128 
C 1056 128 928 212 928 393 
C 928 470 947 560 979 645 
L 1274 1401 
L 2950 1401 
L 3213 778 
C 3290 602 3334 434 3334 342 
C 3334 180 3226 128 2886 128 
L 2886 0 
L 4518 0 
L 4518 128 
z
M 1382 1664 
L 2118 3416 
L 2861 1664 
L 1382 1664 
z
" transform="scale(0.015625)"/>
      <path id="NimbusRomNo9L-Regu-74" d="M 1632 2880 
L 986 2880 
L 986 3622 
C 986 3686 979 3706 941 3706 
C 896 3648 858 3590 813 3526 
C 570 3174 294 2867 192 2841 
C 122 2794 83 2748 83 2715 
C 83 2695 90 2682 109 2682 
L 448 2682 
L 448 751 
C 448 212 640 -64 1018 -64 
C 1331 -64 1574 90 1786 423 
L 1702 493 
C 1568 333 1459 269 1318 269 
C 1082 269 986 443 986 847 
L 986 2682 
L 1632 2682 
L 1632 2880 
z
" transform="scale(0.015625)"/>
      <path id="NimbusRomNo9L-Regu-28" d="M 1888 4326 
C 1414 4019 1222 3853 986 3558 
C 531 3002 307 2362 307 1613 
C 307 800 544 173 1107 -480 
C 1370 -787 1536 -928 1869 -1133 
L 1946 -1030 
C 1434 -627 1254 -403 1082 77 
C 928 506 858 992 858 1632 
C 858 2304 941 2829 1114 3226 
C 1293 3622 1485 3853 1946 4224 
L 1888 4326 
z
" transform="scale(0.015625)"/>
      <path id="NimbusRomNo9L-Regu-6d" d="M 122 2547 
C 205 2566 256 2573 326 2573 
C 493 2573 550 2470 550 2162 
L 550 539 
C 550 192 461 96 102 96 
L 102 0 
L 1523 0 
L 1523 96 
C 1184 96 1088 166 1088 418 
L 1088 2234 
C 1088 2246 1139 2310 1184 2355 
C 1344 2502 1619 2611 1843 2611 
C 2125 2611 2266 2385 2266 1932 
L 2266 528 
C 2266 167 2195 96 1830 96 
L 1830 0 
L 3264 0 
L 3264 96 
C 2899 96 2803 205 2803 603 
L 2803 2221 
C 2995 2496 3206 2611 3501 2611 
C 3866 2611 3981 2438 3981 1907 
L 3981 557 
C 3981 192 3930 141 3558 96 
L 3558 0 
L 4960 0 
L 4960 96 
L 4794 115 
C 4602 115 4518 230 4518 480 
L 4518 1802 
C 4518 2559 4269 2944 3776 2944 
C 3405 2944 3078 2778 2733 2407 
C 2618 2771 2400 2944 2054 2944 
C 1773 2944 1594 2854 1062 2451 
L 1062 2931 
L 1018 2944 
C 691 2822 474 2752 122 2656 
L 122 2547 
z
" transform="scale(0.015625)"/>
      <path id="NimbusRomNo9L-Regu-3d" d="M 3418 2470 
L 192 2470 
L 192 2048 
L 3418 2048 
L 3418 2470 
z
M 3418 1190 
L 192 1190 
L 192 768 
L 3418 768 
L 3418 1190 
z
" transform="scale(0.015625)"/>
      <path id="NimbusRomNo9L-Regu-29" d="M 243 -1133 
C 717 -826 909 -659 1146 -365 
C 1600 192 1824 832 1824 1581 
C 1824 2400 1587 3021 1024 3674 
C 762 3981 595 4122 262 4326 
L 186 4224 
C 698 3821 870 3597 1050 3117 
C 1203 2688 1274 2202 1274 1562 
C 1274 896 1190 365 1018 -26 
C 838 -429 646 -659 186 -1030 
L 243 -1133 
z
" transform="scale(0.015625)"/>
      <path id="NimbusRomNo9L-Regu-48" d="M 1338 2304 
L 1338 3533 
C 1338 3990 1408 4059 1901 4104 
L 1901 4224 
L 122 4224 
L 122 4104 
C 614 4059 685 3989 685 3527 
L 685 749 
C 685 210 621 134 122 134 
L 122 0 
L 1901 0 
L 1901 121 
C 1421 159 1338 242 1338 699 
L 1338 2022 
L 3277 2022 
L 3277 757 
C 3277 211 3213 134 2714 134 
L 2714 0 
L 4493 0 
L 4493 121 
C 4013 159 3930 242 3930 696 
L 3930 3529 
C 3930 3989 4000 4059 4493 4104 
L 4493 4224 
L 2714 4224 
L 2714 4104 
C 3206 4059 3277 3990 3277 3533 
L 3277 2304 
L 1338 2304 
z
" transform="scale(0.015625)"/>
      <path id="NimbusRomNo9L-Regu-2" d="M 198 2669 
L 634 2669 
L 634 566 
C 634 148 563 64 205 64 
L 205 -38 
L 1613 -38 
L 1613 58 
C 1254 84 1171 175 1171 532 
L 1171 2669 
L 1722 2669 
C 2336 2669 2368 2650 2368 2305 
L 2368 591 
C 2368 149 2323 90 1926 58 
L 1926 -38 
L 3334 -38 
L 3334 58 
C 2976 90 2906 175 2906 590 
L 2906 2289 
C 2906 2431 2906 2581 2918 2924 
L 2893 2943 
C 2611 2899 2426 2880 2170 2880 
L 1165 2880 
L 1165 3151 
C 1165 3429 1184 3624 1216 3732 
C 1306 4003 1555 4192 1843 4192 
C 2022 4192 2144 4110 2298 3895 
C 2419 3726 2502 3663 2611 3663 
C 2746 3663 2842 3770 2842 3909 
C 2842 4175 2522 4352 2029 4352 
C 1542 4352 1171 4188 941 3878 
C 749 3619 678 3385 640 2880 
L 198 2880 
L 198 2669 
z
" transform="scale(0.015625)"/>
      <path id="NimbusRomNo9L-Regu-3a" d="M 870 2944 
C 678 2944 518 2777 518 2579 
C 518 2393 678 2233 864 2233 
C 1062 2233 1229 2393 1229 2579 
C 1229 2777 1062 2944 870 2944 
z
M 870 646 
C 678 646 518 480 518 281 
C 518 96 678 -64 864 -64 
C 1062 -64 1229 96 1229 281 
C 1229 480 1062 646 870 646 
z
" transform="scale(0.015625)"/>
      <path id="NimbusRomNo9L-Regu-25" d="M 4282 2368 
C 3558 2368 2874 1622 2874 824 
C 2874 325 3181 0 3642 0 
C 3930 0 4166 102 4390 325 
C 4730 670 4941 1187 4941 1686 
C 4941 2120 4698 2368 4282 2368 
z
M 4326 2164 
C 4570 2164 4774 1934 4774 1654 
C 4774 1290 4614 856 4371 556 
C 4166 301 3981 192 3750 192 
C 3520 192 3360 357 3360 601 
C 3360 939 3539 1462 3776 1793 
C 3949 2048 4128 2164 4326 2164 
z
M 4058 4320 
L 3808 4320 
C 3462 4008 3206 3904 2810 3904 
C 2554 3904 2406 3946 2253 4064 
C 2086 4194 2003 4224 1805 4224 
C 1075 4224 390 3468 390 2662 
C 390 2217 730 1856 1146 1856 
C 1421 1856 1709 1984 1920 2209 
C 2253 2549 2458 3056 2458 3526 
C 2458 3615 2445 3693 2413 3808 
C 2528 3763 2643 3744 2829 3744 
C 3110 3744 3277 3788 3533 3931 
L 1286 -96 
L 1594 -96 
L 4058 4320 
z
M 2240 3829 
C 2278 3702 2298 3607 2298 3518 
C 2298 2802 1773 2073 1254 2073 
C 1030 2073 877 2231 877 2460 
C 877 2726 1005 3157 1178 3474 
C 1363 3816 1606 4032 1805 4032 
C 1837 4032 1850 4025 1888 3993 
C 1978 3911 2054 3879 2240 3829 
z
" transform="scale(0.015625)"/>
     </defs>
     <use xlink:href="#NimbusRomNo9L-Regu-42" transform="scale(0.996264)"/>
     <use xlink:href="#NimbusRomNo9L-Regu-61" transform="translate(66.450031 0) scale(0.996264)"/>
     <use xlink:href="#NimbusRomNo9L-Regu-72" transform="translate(110.6836 0) scale(0.996264)"/>
     <use xlink:href="#NimbusRomNo9L-Regu-61" transform="translate(143.85883 0) scale(0.996264)"/>
     <use xlink:href="#NimbusRomNo9L-Regu-62" transform="translate(188.092398 0) scale(0.996264)"/>
     <use xlink:href="#NimbusRomNo9L-Regu-b4" transform="translate(243.434776 0.498056) scale(0.996264)"/>
     <use xlink:href="#NimbusRomNo9L-Regu-61" transform="translate(237.905599 0) scale(0.996264)"/>
     <use xlink:href="#NimbusRomNo9L-Regu-73" transform="translate(282.139167 0) scale(0.996264)"/>
     <use xlink:href="#NimbusRomNo9L-Regu-69" transform="translate(320.892874 0) scale(0.996264)"/>
     <use xlink:href="#NimbusRomNo9L-Regu-2d" transform="translate(348.588043 0) scale(0.996264)"/>
     <use xlink:href="#NimbusRomNo9L-Regu-41" transform="translate(381.763273 0) scale(0.996264)"/>
     <use xlink:href="#NimbusRomNo9L-Regu-6c" transform="translate(453.693258 0) scale(0.996264)"/>
     <use xlink:href="#NimbusRomNo9L-Regu-62" transform="translate(481.388427 0) scale(0.996264)"/>
     <use xlink:href="#NimbusRomNo9L-Regu-65" transform="translate(531.201628 0) scale(0.996264)"/>
     <use xlink:href="#NimbusRomNo9L-Regu-72" transform="translate(575.435197 0) scale(0.996264)"/>
     <use xlink:href="#NimbusRomNo9L-Regu-74" transform="translate(608.610426 0) scale(0.996264)"/>
     <use xlink:href="#NimbusRomNo9L-Regu-28" transform="translate(661.212196 0) scale(0.996264)"/>
     <use xlink:href="#NimbusRomNo9L-Regu-6d" transform="translate(694.387426 0) scale(0.996264)"/>
     <use xlink:href="#NimbusRomNo9L-Regu-3d" transform="translate(771.895796 0) scale(0.996264)"/>
     <use xlink:href="#NimbusRomNo9L-Regu-31" transform="translate(828.084046 0) scale(0.996264)"/>
     <use xlink:href="#NimbusRomNo9L-Regu-29" transform="translate(877.897247 0) scale(0.996264)"/>
     <use xlink:href="#NimbusRomNo9L-Regu-2d" transform="translate(935.979077 0) scale(0.996264)"/>
     <use xlink:href="#NimbusRomNo9L-Regu-48" transform="translate(994.060907 0) scale(0.996264)"/>
     <use xlink:href="#NimbusRomNo9L-Regu-6f" transform="translate(1065.990892 0) scale(0.996264)"/>
     <use xlink:href="#NimbusRomNo9L-Regu-6d" transform="translate(1115.804092 0) scale(0.996264)"/>
     <use xlink:href="#NimbusRomNo9L-Regu-6f" transform="translate(1193.312462 0) scale(0.996264)"/>
     <use xlink:href="#NimbusRomNo9L-Regu-2" transform="translate(1243.125663 0) scale(0.996264)"/>
     <use xlink:href="#NimbusRomNo9L-Regu-6c" transform="translate(1298.51734 0) scale(0.996264)"/>
     <use xlink:href="#NimbusRomNo9L-Regu-69" transform="translate(1326.212509 0) scale(0.996264)"/>
     <use xlink:href="#NimbusRomNo9L-Regu-61" transform="translate(1353.907679 0) scale(0.996264)"/>
     <use xlink:href="#NimbusRomNo9L-Regu-3a" transform="translate(1398.141248 0) scale(0.996264)"/>
     <use xlink:href="#NimbusRomNo9L-Regu-30" transform="translate(1456.72045 0) scale(0.996264)"/>
     <use xlink:href="#NimbusRomNo9L-Regu-25" transform="translate(1506.53365 0) scale(0.996264)"/>
    </g>
    <!-- Masa crtica: 95\% - Nodos perifericos (H,C) -->
    <g transform="translate(3.6 29.845406) scale(0.096 -0.096)">
     <defs>
      <path id="NimbusRomNo9L-Regu-11" d="M 1120 2950 
L 128 2598 
L 128 2502 
L 179 2508 
C 256 2521 339 2528 397 2528 
C 550 2528 608 2424 608 2141 
L 608 644 
C 608 180 544 109 102 109 
L 102 0 
L 1619 0 
L 1619 96 
C 1197 128 1146 192 1146 654 
L 1146 2931 
L 1120 2950 
z
" transform="scale(0.015625)"/>
      <path id="NimbusRomNo9L-Regu-39" d="M 378 -123 
C 1094 -40 1446 82 1882 396 
C 2547 882 2938 1676 2938 2539 
C 2938 3593 2349 4339 1523 4339 
C 762 4339 192 3694 192 2832 
C 192 2053 653 1536 1344 1536 
C 1696 1536 1965 1638 2304 1900 
C 2042 856 1331 172 358 5 
L 378 -123 
z
M 2317 2290 
C 2317 2162 2291 2104 2221 2047 
C 2042 1894 1805 1811 1574 1811 
C 1088 1811 781 2290 781 3050 
C 781 3413 883 3796 1018 3963 
C 1126 4090 1286 4160 1472 4160 
C 2029 4160 2317 3611 2317 2539 
L 2317 2290 
z
" transform="scale(0.015625)"/>
      <path id="NimbusRomNo9L-Regu-35" d="M 1158 3776 
L 2413 3776 
C 2515 3776 2541 3789 2560 3834 
L 2803 4403 
L 2746 4448 
C 2650 4314 2586 4282 2451 4282 
L 1114 4282 
L 416 2759 
C 410 2746 410 2740 410 2727 
C 410 2695 435 2676 486 2676 
C 691 2676 947 2631 1210 2547 
C 1946 2309 2285 1910 2285 1274 
C 2285 656 1894 173 1395 173 
C 1267 173 1158 218 966 360 
C 762 508 614 572 480 572 
C 294 572 205 495 205 334 
C 205 90 506 -64 986 -64 
C 1523 -64 1984 110 2304 438 
C 2598 728 2733 1094 2733 1583 
C 2733 2046 2611 2342 2291 2663 
C 2010 2947 1645 3094 890 3229 
L 1158 3776 
z
" transform="scale(0.015625)"/>
      <path id="NimbusRomNo9L-Regu-4e" d="M 3917 -64 
L 3917 3287 
C 3917 3669 3981 3905 4102 3987 
C 4192 4051 4282 4077 4525 4102 
L 4525 4224 
L 3021 4224 
L 3021 4102 
C 3264 4083 3354 4057 3450 4000 
C 3578 3911 3635 3681 3635 3286 
L 3635 1136 
L 1171 4224 
L 77 4224 
L 77 4102 
C 352 4102 442 4051 698 3751 
L 698 938 
C 698 281 608 159 77 121 
L 77 0 
L 1581 0 
L 1581 134 
C 1088 134 979 281 979 928 
L 979 3439 
L 3808 -64 
L 3917 -64 
z
" transform="scale(0.015625)"/>
      <path id="NimbusRomNo9L-Regu-70" d="M 58 2516 
C 115 2522 160 2522 218 2522 
C 435 2522 480 2458 480 2155 
L 480 -855 
C 480 -1189 410 -1261 32 -1299 
L 32 -1408 
L 1581 -1408 
L 1581 -1293 
C 1101 -1293 1018 -1222 1018 -816 
L 1018 199 
C 1242 -13 1395 -77 1664 -77 
C 2419 -77 3008 643 3008 1575 
C 3008 2372 2560 2944 1939 2944 
C 1581 2944 1299 2784 1018 2438 
L 1018 2931 
L 979 2944 
C 634 2810 410 2726 58 2618 
L 58 2516 
z
M 1018 2136 
C 1018 2329 1376 2560 1670 2560 
C 2144 2560 2458 2071 2458 1324 
C 2458 611 2144 128 1683 128 
C 1382 128 1018 359 1018 552 
L 1018 2136 
z
" transform="scale(0.015625)"/>
      <path id="NimbusRomNo9L-Regu-66" d="M 1978 2880 
L 1190 2880 
L 1190 3611 
C 1190 3978 1312 4173 1555 4173 
C 1690 4173 1779 4110 1894 3927 
C 1997 3763 2074 3700 2182 3700 
C 2330 3700 2451 3814 2451 3959 
C 2451 4188 2170 4352 1786 4352 
C 1389 4352 1050 4181 883 3891 
C 717 3613 666 3385 659 2880 
L 134 2880 
L 134 2675 
L 659 2675 
L 659 656 
C 659 185 589 109 128 109 
L 128 0 
L 1792 0 
L 1792 109 
C 1267 109 1197 180 1197 661 
L 1197 2675 
L 1978 2675 
L 1978 2880 
z
" transform="scale(0.015625)"/>
      <path id="NimbusRomNo9L-Regu-2c" d="M 531 -889 
C 960 -678 1248 -288 1248 96 
C 1248 416 1024 666 736 666 
C 512 666 358 519 358 301 
C 358 96 506 -25 736 -25 
C 774 -25 819 -19 858 -13 
C 902 0 902 0 909 0 
C 960 0 998 -38 998 -89 
C 998 -294 819 -531 474 -768 
L 531 -889 
z
" transform="scale(0.015625)"/>
      <path id="NimbusRomNo9L-Regu-43" d="M 3968 2906 
L 3910 4352 
L 3776 4352 
C 3738 4218 3635 4141 3507 4141 
C 3450 4141 3354 4160 3258 4199 
C 2944 4301 2624 4352 2323 4352 
C 1798 4352 1267 4154 870 3802 
C 422 3405 179 2810 179 2106 
C 179 1511 371 960 698 596 
C 1082 180 1670 -64 2304 -64 
C 3027 -64 3661 231 4051 749 
L 3936 864 
C 3462 410 3040 218 2509 218 
C 2106 218 1747 346 1472 589 
C 1120 903 922 1479 922 2189 
C 922 3348 1517 4096 2445 4096 
C 2810 4096 3142 3962 3398 3706 
C 3603 3501 3699 3322 3821 2906 
L 3968 2906 
z
" transform="scale(0.015625)"/>
     </defs>
     <use xlink:href="#NimbusRomNo9L-Regu-4d" transform="scale(0.996264)"/>
     <use xlink:href="#NimbusRomNo9L-Regu-61" transform="translate(88.566907 0) scale(0.996264)"/>
     <use xlink:href="#NimbusRomNo9L-Regu-73" transform="translate(132.800475 0) scale(0.996264)"/>
     <use xlink:href="#NimbusRomNo9L-Regu-61" transform="translate(171.554182 0) scale(0.996264)"/>
     <use xlink:href="#NimbusRomNo9L-Regu-63" transform="translate(240.694351 0) scale(0.996264)"/>
     <use xlink:href="#NimbusRomNo9L-Regu-72" transform="translate(284.927919 0) scale(0.996264)"/>
     <use xlink:href="#NimbusRomNo9L-Regu-b4" transform="translate(315.363119 0.498056) scale(0.996264)"/>
     <use xlink:href="#NimbusRomNo9L-Regu-11" transform="translate(318.103149 0) scale(0.996264)"/>
     <use xlink:href="#NimbusRomNo9L-Regu-74" transform="translate(345.798319 0) scale(0.996264)"/>
     <use xlink:href="#NimbusRomNo9L-Regu-69" transform="translate(373.493488 0) scale(0.996264)"/>
     <use xlink:href="#NimbusRomNo9L-Regu-63" transform="translate(401.188658 0) scale(0.996264)"/>
     <use xlink:href="#NimbusRomNo9L-Regu-61" transform="translate(445.422226 0) scale(0.996264)"/>
     <use xlink:href="#NimbusRomNo9L-Regu-3a" transform="translate(489.655795 0) scale(0.996264)"/>
     <use xlink:href="#NimbusRomNo9L-Regu-39" transform="translate(548.234997 0) scale(0.996264)"/>
     <use xlink:href="#NimbusRomNo9L-Regu-35" transform="translate(598.048198 0) scale(0.996264)"/>
     <use xlink:href="#NimbusRomNo9L-Regu-25" transform="translate(647.861398 0) scale(0.996264)"/>
     <use xlink:href="#NimbusRomNo9L-Regu-2d" transform="translate(755.756429 0) scale(0.996264)"/>
     <use xlink:href="#NimbusRomNo9L-Regu-4e" transform="translate(813.838259 0) scale(0.996264)"/>
     <use xlink:href="#NimbusRomNo9L-Regu-6f" transform="translate(885.768243 0) scale(0.996264)"/>
     <use xlink:href="#NimbusRomNo9L-Regu-64" transform="translate(935.581444 0) scale(0.996264)"/>
     <use xlink:href="#NimbusRomNo9L-Regu-6f" transform="translate(985.394644 0) scale(0.996264)"/>
     <use xlink:href="#NimbusRomNo9L-Regu-73" transform="translate(1035.207845 0) scale(0.996264)"/>
     <use xlink:href="#NimbusRomNo9L-Regu-70" transform="translate(1098.868151 0) scale(0.996264)"/>
     <use xlink:href="#NimbusRomNo9L-Regu-65" transform="translate(1148.681352 0) scale(0.996264)"/>
     <use xlink:href="#NimbusRomNo9L-Regu-72" transform="translate(1192.91492 0) scale(0.996264)"/>
     <use xlink:href="#NimbusRomNo9L-Regu-69" transform="translate(1226.09015 0) scale(0.996264)"/>
     <use xlink:href="#NimbusRomNo9L-Regu-66" transform="translate(1253.78532 0) scale(0.996264)"/>
     <use xlink:href="#NimbusRomNo9L-Regu-65" transform="translate(1286.96055 0) scale(0.996264)"/>
     <use xlink:href="#NimbusRomNo9L-Regu-72" transform="translate(1331.194118 0) scale(0.996264)"/>
     <use xlink:href="#NimbusRomNo9L-Regu-69" transform="translate(1364.369348 0) scale(0.996264)"/>
     <use xlink:href="#NimbusRomNo9L-Regu-63" transform="translate(1392.064518 0) scale(0.996264)"/>
     <use xlink:href="#NimbusRomNo9L-Regu-6f" transform="translate(1436.298086 0) scale(0.996264)"/>
     <use xlink:href="#NimbusRomNo9L-Regu-73" transform="translate(1486.111287 0) scale(0.996264)"/>
     <use xlink:href="#NimbusRomNo9L-Regu-28" transform="translate(1549.771593 0) scale(0.996264)"/>
     <use xlink:href="#NimbusRomNo9L-Regu-48" transform="translate(1582.946823 0) scale(0.996264)"/>
     <use xlink:href="#NimbusRomNo9L-Regu-2c" transform="translate(1654.876808 0) scale(0.996264)"/>
     <use xlink:href="#NimbusRomNo9L-Regu-43" transform="translate(1679.783408 0) scale(0.996264)"/>
     <use xlink:href="#NimbusRomNo9L-Regu-29" transform="translate(1746.233439 0) scale(0.996264)"/>
    </g>
   </g>
   <g id="legend_1">
    <g id="line2d_108">
     <path d="M 89.47047 89.525846 
L 96.47047 89.525846 
L 103.47047 89.525846 
" style="fill: none; stroke: #dedeee; stroke-linecap: square"/>
    </g>
    <g id="text_13">
     <!-- (C) C. Coop -->
     <g transform="translate(109.07047 91.975846) scale(0.07 -0.07)">
      <defs>
       <path id="NimbusRomNo9L-Regu-2e" d="M 800 646 
C 608 646 448 480 448 281 
C 448 96 608 -64 794 -64 
C 992 -64 1158 96 1158 281 
C 1158 480 992 646 800 646 
z
" transform="scale(0.015625)"/>
      </defs>
      <use xlink:href="#NimbusRomNo9L-Regu-28" transform="scale(0.996264)"/>
      <use xlink:href="#NimbusRomNo9L-Regu-43" transform="translate(33.17523 0) scale(0.996264)"/>
      <use xlink:href="#NimbusRomNo9L-Regu-29" transform="translate(99.625261 0) scale(0.996264)"/>
      <use xlink:href="#NimbusRomNo9L-Regu-43" transform="translate(157.707091 0) scale(0.996264)"/>
      <use xlink:href="#NimbusRomNo9L-Regu-2e" transform="translate(224.157122 0) scale(0.996264)"/>
      <use xlink:href="#NimbusRomNo9L-Regu-43" transform="translate(273.970322 0) scale(0.996264)"/>
      <use xlink:href="#NimbusRomNo9L-Regu-6f" transform="translate(340.420354 0) scale(0.996264)"/>
      <use xlink:href="#NimbusRomNo9L-Regu-6f" transform="translate(390.233554 0) scale(0.996264)"/>
      <use xlink:href="#NimbusRomNo9L-Regu-70" transform="translate(440.046755 0) scale(0.996264)"/>
     </g>
    </g>
    <g id="line2d_109">
     <path d="M 89.47047 99.435626 
L 96.47047 99.435626 
L 103.47047 99.435626 
" style="fill: none; stroke-dasharray: 3.7,1.6; stroke-dashoffset: 0; stroke: #9b9aca"/>
    </g>
    <g id="text_14">
     <!-- (D) C. no Coop -->
     <g transform="translate(109.07047 101.885626) scale(0.07 -0.07)">
      <defs>
       <path id="NimbusRomNo9L-Regu-44" d="M 666 679 
C 666 217 589 134 102 134 
L 102 0 
L 1920 0 
C 2662 0 3334 210 3731 568 
C 4147 944 4384 1512 4384 2131 
C 4384 2706 4192 3203 3840 3554 
C 3405 3994 2707 4224 1830 4224 
L 102 4224 
L 102 4102 
C 608 4057 666 4000 666 3525 
L 666 679 
z
M 1318 3738 
C 1318 3936 1389 3987 1651 3987 
C 2202 3987 2618 3885 2925 3668 
C 3424 3323 3686 2775 3686 2087 
C 3686 1334 3424 798 2906 498 
C 2579 314 2208 237 1651 237 
C 1395 237 1318 294 1318 498 
L 1318 3738 
z
" transform="scale(0.015625)"/>
      </defs>
      <use xlink:href="#NimbusRomNo9L-Regu-28" transform="scale(0.996264)"/>
      <use xlink:href="#NimbusRomNo9L-Regu-44" transform="translate(33.17523 0) scale(0.996264)"/>
      <use xlink:href="#NimbusRomNo9L-Regu-29" transform="translate(105.105215 0) scale(0.996264)"/>
      <use xlink:href="#NimbusRomNo9L-Regu-43" transform="translate(163.187045 0) scale(0.996264)"/>
      <use xlink:href="#NimbusRomNo9L-Regu-2e" transform="translate(229.637076 0) scale(0.996264)"/>
      <use xlink:href="#NimbusRomNo9L-Regu-6e" transform="translate(279.450276 0) scale(0.996264)"/>
      <use xlink:href="#NimbusRomNo9L-Regu-6f" transform="translate(329.263477 0) scale(0.996264)"/>
      <use xlink:href="#NimbusRomNo9L-Regu-43" transform="translate(403.983277 0) scale(0.996264)"/>
      <use xlink:href="#NimbusRomNo9L-Regu-6f" transform="translate(470.433309 0) scale(0.996264)"/>
      <use xlink:href="#NimbusRomNo9L-Regu-6f" transform="translate(520.246509 0) scale(0.996264)"/>
      <use xlink:href="#NimbusRomNo9L-Regu-70" transform="translate(570.05971 0) scale(0.996264)"/>
     </g>
    </g>
    <g id="line2d_110">
     <path d="M 89.47047 109.345406 
L 96.47047 109.345406 
L 103.47047 109.345406 
" style="fill: none; stroke-dasharray: 1,1.65; stroke-dashoffset: 0; stroke: #7976b8"/>
    </g>
    <g id="text_15">
     <!-- (H) P. Honrado -->
     <g transform="translate(109.07047 111.795406) scale(0.07 -0.07)">
      <defs>
       <path id="NimbusRomNo9L-Regu-50" d="M 1293 1875 
C 1459 1856 1568 1856 1734 1856 
C 2234 1856 2579 1919 2854 2072 
C 3238 2274 3469 2660 3469 3078 
C 3469 3344 3379 3584 3206 3768 
C 2950 4047 2394 4224 1792 4224 
L 102 4224 
L 102 4102 
C 576 4051 640 3987 640 3528 
L 640 766 
C 640 230 589 166 102 122 
L 102 0 
L 1894 0 
L 1894 128 
C 1389 128 1293 218 1293 693 
L 1293 1875 
z
M 1293 3772 
C 1293 3943 1338 3987 1510 3987 
C 2374 3987 2771 3690 2771 3040 
C 2771 2428 2394 2112 1658 2112 
C 1530 2112 1440 2119 1293 2131 
L 1293 3772 
z
" transform="scale(0.015625)"/>
      </defs>
      <use xlink:href="#NimbusRomNo9L-Regu-28" transform="scale(0.996264)"/>
      <use xlink:href="#NimbusRomNo9L-Regu-48" transform="translate(33.17523 0) scale(0.996264)"/>
      <use xlink:href="#NimbusRomNo9L-Regu-29" transform="translate(105.105215 0) scale(0.996264)"/>
      <use xlink:href="#NimbusRomNo9L-Regu-50" transform="translate(163.187045 0) scale(0.996264)"/>
      <use xlink:href="#NimbusRomNo9L-Regu-2e" transform="translate(207.520276 0) scale(0.996264)"/>
      <use xlink:href="#NimbusRomNo9L-Regu-48" transform="translate(257.333477 0) scale(0.996264)"/>
      <use xlink:href="#NimbusRomNo9L-Regu-6f" transform="translate(329.263461 0) scale(0.996264)"/>
      <use xlink:href="#NimbusRomNo9L-Regu-6e" transform="translate(379.076662 0) scale(0.996264)"/>
      <use xlink:href="#NimbusRomNo9L-Regu-72" transform="translate(428.889862 0) scale(0.996264)"/>
      <use xlink:href="#NimbusRomNo9L-Regu-61" transform="translate(462.065092 0) scale(0.996264)"/>
      <use xlink:href="#NimbusRomNo9L-Regu-64" transform="translate(506.298661 0) scale(0.996264)"/>
      <use xlink:href="#NimbusRomNo9L-Regu-6f" transform="translate(556.111861 0) scale(0.996264)"/>
     </g>
    </g>
    <g id="line2d_111">
     <path d="M 89.47047 119.255186 
L 96.47047 119.255186 
L 103.47047 119.255186 
" style="fill: none; stroke-dasharray: 6.4,1.6,1,1.6; stroke-dashoffset: 0; stroke: #201f3d"/>
    </g>
    <g id="text_16">
     <!-- (K) P. Corrupto -->
     <g transform="translate(109.07047 121.705186) scale(0.07 -0.07)">
      <defs>
       <path id="NimbusRomNo9L-Regu-4b" d="M 2643 4109 
C 2720 4096 2784 4096 2810 4096 
C 3002 4096 3078 4045 3078 3917 
C 3078 3775 2931 3583 2579 3257 
L 1446 2224 
L 1446 3534 
C 1446 4000 1517 4071 2035 4109 
L 2035 4231 
L 218 4231 
L 218 4109 
C 717 4071 794 3988 794 3531 
L 794 750 
C 794 217 723 134 218 134 
L 218 0 
L 2022 0 
L 2022 134 
C 1523 134 1446 211 1446 683 
L 1446 1891 
L 1613 2026 
L 2291 1355 
C 2778 876 3123 422 3123 269 
C 3123 179 3034 134 2854 134 
C 2822 134 2752 134 2675 121 
L 2675 0 
L 4627 0 
L 4627 134 
C 4294 134 4205 198 3622 816 
L 2131 2409 
L 3347 3611 
C 3782 4026 3885 4077 4320 4109 
L 4320 4231 
L 2643 4231 
L 2643 4109 
z
" transform="scale(0.015625)"/>
      </defs>
      <use xlink:href="#NimbusRomNo9L-Regu-28" transform="scale(0.996264)"/>
      <use xlink:href="#NimbusRomNo9L-Regu-4b" transform="translate(33.17523 0) scale(0.996264)"/>
      <use xlink:href="#NimbusRomNo9L-Regu-29" transform="translate(105.105215 0) scale(0.996264)"/>
      <use xlink:href="#NimbusRomNo9L-Regu-50" transform="translate(163.187045 0) scale(0.996264)"/>
      <use xlink:href="#NimbusRomNo9L-Regu-2e" transform="translate(207.520276 0) scale(0.996264)"/>
      <use xlink:href="#NimbusRomNo9L-Regu-43" transform="translate(257.333477 0) scale(0.996264)"/>
      <use xlink:href="#NimbusRomNo9L-Regu-6f" transform="translate(323.783508 0) scale(0.996264)"/>
      <use xlink:href="#NimbusRomNo9L-Regu-72" transform="translate(373.596708 0) scale(0.996264)"/>
      <use xlink:href="#NimbusRomNo9L-Regu-72" transform="translate(406.771938 0) scale(0.996264)"/>
      <use xlink:href="#NimbusRomNo9L-Regu-75" transform="translate(439.947168 0) scale(0.996264)"/>
      <use xlink:href="#NimbusRomNo9L-Regu-70" transform="translate(489.760368 0) scale(0.996264)"/>
      <use xlink:href="#NimbusRomNo9L-Regu-74" transform="translate(539.573569 0) scale(0.996264)"/>
      <use xlink:href="#NimbusRomNo9L-Regu-6f" transform="translate(567.268738 0) scale(0.996264)"/>
     </g>
    </g>
   </g>
  </g>
 </g>
 <defs>
  <clipPath id="p2e75e7fbeb">
   <rect x="19.261541" y="35.845406" width="139.5" height="138.6"/>
  </clipPath>
 </defs>
</svg>
