<?xml version="1.0" encoding="utf-8" standalone="no"?>
<!DOCTYPE svg PUBLIC "-//W3C//DTD SVG 1.1//EN"
  "http://www.w3.org/Graphics/SVG/1.1/DTD/svg11.dtd">
<svg xmlns:xlink="http://www.w3.org/1999/xlink" width="178.023082pt" height="178.093216pt" viewBox="0 0 178.023082 178.093216" xmlns="http://www.w3.org/2000/svg" version="1.1">
 <metadata>
  <rdf:RDF xmlns:dc="http://purl.org/dc/elements/1.1/" xmlns:cc="http://creativecommons.org/ns#" xmlns:rdf="http://www.w3.org/1999/02/22-rdf-syntax-ns#">
   <cc:Work>
    <dc:type rdf:resource="http://purl.org/dc/dcmitype/StillImage"/>
    <dc:date>2025-06-14T04:37:28.974390</dc:date>
    <dc:format>image/svg+xml</dc:format>
    <dc:creator>
     <cc:Agent>
      <dc:title>Matplotlib v3.10.1, https://matplotlib.org/</dc:title>
     </cc:Agent>
    </dc:creator>
   </cc:Work>
  </rdf:RDF>
 </metadata>
 <defs>
  <style type="text/css">*{stroke-linejoin: round; stroke-linecap: butt}</style>
 </defs>
 <g id="figure_1">
  <g id="patch_1">
   <path d="M 0 178.093216 
L 178.023082 178.093216 
L 178.023082 -0 
L 0 -0 
z
" style="fill: #ffffff"/>
  </g>
  <g id="axes_1">
   <g id="LineCollection_1">
    <path d="M 85.325582 79.003861 
L 74.031976 100.263048 
" clip-path="url(#pbcda0fde64)" style="fill: none; stroke: #201f3d; stroke-opacity: 0.6; stroke-width: 0.4"/>
    <path d="M 85.325582 79.003861 
L 67.741627 63.182671 
" clip-path="url(#pbcda0fde64)" style="fill: none; stroke: #201f3d; stroke-opacity: 0.6; stroke-width: 0.4"/>
    <path d="M 85.325582 79.003861 
L 82.437109 64.555505 
" clip-path="url(#pbcda0fde64)" style="fill: none; stroke: #201f3d; stroke-opacity: 0.6; stroke-width: 0.4"/>
    <path d="M 85.325582 79.003861 
L 79.712264 76.040681 
" clip-path="url(#pbcda0fde64)" style="fill: none; stroke: #201f3d; stroke-opacity: 0.6; stroke-width: 0.4"/>
    <path d="M 85.325582 79.003861 
L 80.814659 74.198677 
" clip-path="url(#pbcda0fde64)" style="fill: none; stroke: #201f3d; stroke-opacity: 0.6; stroke-width: 0.4"/>
    <path d="M 85.325582 79.003861 
L 101.181946 66.218952 
" clip-path="url(#pbcda0fde64)" style="fill: none; stroke: #201f3d; stroke-opacity: 0.6; stroke-width: 0.4"/>
    <path d="M 85.325582 79.003861 
L 61.325431 84.792623 
" clip-path="url(#pbcda0fde64)" style="fill: none; stroke: #201f3d; stroke-opacity: 0.6; stroke-width: 0.4"/>
    <path d="M 85.325582 79.003861 
L 74.29631 110.175802 
" clip-path="url(#pbcda0fde64)" style="fill: none; stroke: #201f3d; stroke-opacity: 0.6; stroke-width: 0.4"/>
    <path d="M 85.325582 79.003861 
L 79.864657 70.909036 
" clip-path="url(#pbcda0fde64)" style="fill: none; stroke: #201f3d; stroke-opacity: 0.6; stroke-width: 0.4"/>
    <path d="M 85.325582 79.003861 
L 83.307007 84.111723 
" clip-path="url(#pbcda0fde64)" style="fill: none; stroke: #201f3d; stroke-opacity: 0.6; stroke-width: 0.4"/>
    <path d="M 85.325582 79.003861 
L 85.573725 75.578859 
" clip-path="url(#pbcda0fde64)" style="fill: none; stroke: #201f3d; stroke-opacity: 0.6; stroke-width: 0.4"/>
    <path d="M 85.325582 79.003861 
L 87.981162 83.657137 
" clip-path="url(#pbcda0fde64)" style="fill: none; stroke: #201f3d; stroke-opacity: 0.6; stroke-width: 0.4"/>
    <path d="M 85.325582 79.003861 
L 73.664305 77.855158 
" clip-path="url(#pbcda0fde64)" style="fill: none; stroke: #201f3d; stroke-opacity: 0.6; stroke-width: 0.4"/>
    <path d="M 85.325582 79.003861 
L 92.368723 76.78235 
" clip-path="url(#pbcda0fde64)" style="fill: none; stroke: #201f3d; stroke-opacity: 0.6; stroke-width: 0.4"/>
    <path d="M 85.325582 79.003861 
L 90.317665 66.41472 
" clip-path="url(#pbcda0fde64)" style="fill: none; stroke: #201f3d; stroke-opacity: 0.6; stroke-width: 0.4"/>
    <path d="M 85.325582 79.003861 
L 85.671974 81.66884 
" clip-path="url(#pbcda0fde64)" style="fill: none; stroke: #201f3d; stroke-opacity: 0.6; stroke-width: 0.4"/>
    <path d="M 85.325582 79.003861 
L 95.372332 74.617406 
" clip-path="url(#pbcda0fde64)" style="fill: none; stroke: #201f3d; stroke-opacity: 0.6; stroke-width: 0.4"/>
    <path d="M 85.325582 79.003861 
L 88.086906 70.946674 
" clip-path="url(#pbcda0fde64)" style="fill: none; stroke: #201f3d; stroke-opacity: 0.6; stroke-width: 0.4"/>
    <path d="M 85.325582 79.003861 
L 85.60167 70.321683 
" clip-path="url(#pbcda0fde64)" style="fill: none; stroke: #201f3d; stroke-opacity: 0.6; stroke-width: 0.4"/>
    <path d="M 85.325582 79.003861 
L 80.988535 80.872366 
" clip-path="url(#pbcda0fde64)" style="fill: none; stroke: #201f3d; stroke-opacity: 0.6; stroke-width: 0.4"/>
    <path d="M 85.325582 79.003861 
L 87.885958 68.432933 
" clip-path="url(#pbcda0fde64)" style="fill: none; stroke: #201f3d; stroke-opacity: 0.6; stroke-width: 0.4"/>
    <path d="M 85.325582 79.003861 
L 95.058757 69.001483 
" clip-path="url(#pbcda0fde64)" style="fill: none; stroke: #201f3d; stroke-opacity: 0.6; stroke-width: 0.4"/>
    <path d="M 85.325582 79.003861 
L 90.472149 79.142985 
" clip-path="url(#pbcda0fde64)" style="fill: none; stroke: #201f3d; stroke-opacity: 0.6; stroke-width: 0.4"/>
    <path d="M 85.325582 79.003861 
L 90.801242 69.737855 
" clip-path="url(#pbcda0fde64)" style="fill: none; stroke: #201f3d; stroke-opacity: 0.6; stroke-width: 0.4"/>
    <path d="M 85.325582 79.003861 
L 78.10373 72.654125 
" clip-path="url(#pbcda0fde64)" style="fill: none; stroke: #201f3d; stroke-opacity: 0.6; stroke-width: 0.4"/>
    <path d="M 85.325582 79.003861 
L 92.558177 73.157732 
" clip-path="url(#pbcda0fde64)" style="fill: none; stroke: #201f3d; stroke-opacity: 0.6; stroke-width: 0.4"/>
    <path d="M 85.325582 79.003861 
L 90.337749 76.834928 
" clip-path="url(#pbcda0fde64)" style="fill: none; stroke: #201f3d; stroke-opacity: 0.6; stroke-width: 0.4"/>
    <path d="M 85.325582 79.003861 
L 88.971941 75.425651 
" clip-path="url(#pbcda0fde64)" style="fill: none; stroke: #201f3d; stroke-opacity: 0.6; stroke-width: 0.4"/>
    <path d="M 85.325582 79.003861 
L 82.771369 81.148594 
" clip-path="url(#pbcda0fde64)" style="fill: none; stroke: #201f3d; stroke-opacity: 0.6; stroke-width: 0.4"/>
    <path d="M 85.325582 79.003861 
L 79.557022 66.318053 
" clip-path="url(#pbcda0fde64)" style="fill: none; stroke: #201f3d; stroke-opacity: 0.6; stroke-width: 0.4"/>
    <path d="M 85.325582 79.003861 
L 92.200127 80.464916 
" clip-path="url(#pbcda0fde64)" style="fill: none; stroke: #201f3d; stroke-opacity: 0.6; stroke-width: 0.4"/>
    <path d="M 85.325582 79.003861 
L 90.607102 70.728167 
" clip-path="url(#pbcda0fde64)" style="fill: none; stroke: #201f3d; stroke-opacity: 0.6; stroke-width: 0.4"/>
    <path d="M 85.325582 79.003861 
L 80.391963 83.296933 
" clip-path="url(#pbcda0fde64)" style="fill: none; stroke: #201f3d; stroke-opacity: 0.6; stroke-width: 0.4"/>
    <path d="M 85.325582 79.003861 
L 88.116052 80.306602 
" clip-path="url(#pbcda0fde64)" style="fill: none; stroke: #201f3d; stroke-opacity: 0.6; stroke-width: 0.4"/>
    <path d="M 85.325582 79.003861 
L 113.514402 81.436715 
" clip-path="url(#pbcda0fde64)" style="fill: none; stroke: #201f3d; stroke-opacity: 0.6; stroke-width: 0.4"/>
    <path d="M 85.325582 79.003861 
L 89.909339 81.498309 
" clip-path="url(#pbcda0fde64)" style="fill: none; stroke: #201f3d; stroke-opacity: 0.6; stroke-width: 0.4"/>
    <path d="M 85.325582 79.003861 
L 75.981492 80.771743 
" clip-path="url(#pbcda0fde64)" style="fill: none; stroke: #201f3d; stroke-opacity: 0.6; stroke-width: 0.4"/>
    <path d="M 85.325582 79.003861 
L 78.757236 80.903029 
" clip-path="url(#pbcda0fde64)" style="fill: none; stroke: #201f3d; stroke-opacity: 0.6; stroke-width: 0.4"/>
    <path d="M 85.325582 79.003861 
L 77.42951 78.514713 
" clip-path="url(#pbcda0fde64)" style="fill: none; stroke: #201f3d; stroke-opacity: 0.6; stroke-width: 0.4"/>
    <path d="M 85.325582 79.003861 
L 78.984349 72.02647 
" clip-path="url(#pbcda0fde64)" style="fill: none; stroke: #201f3d; stroke-opacity: 0.6; stroke-width: 0.4"/>
    <path d="M 85.325582 79.003861 
L 77.93245 76.486785 
" clip-path="url(#pbcda0fde64)" style="fill: none; stroke: #201f3d; stroke-opacity: 0.6; stroke-width: 0.4"/>
    <path d="M 85.325582 79.003861 
L 86.051701 83.369784 
" clip-path="url(#pbcda0fde64)" style="fill: none; stroke: #201f3d; stroke-opacity: 0.6; stroke-width: 0.4"/>
    <path d="M 85.325582 79.003861 
L 80.155239 77.541381 
" clip-path="url(#pbcda0fde64)" style="fill: none; stroke: #201f3d; stroke-opacity: 0.6; stroke-width: 0.4"/>
    <path d="M 85.325582 79.003861 
L 81.22752 79.581569 
" clip-path="url(#pbcda0fde64)" style="fill: none; stroke: #201f3d; stroke-opacity: 0.6; stroke-width: 0.4"/>
    <path d="M 85.325582 79.003861 
L 81.025268 75.340449 
" clip-path="url(#pbcda0fde64)" style="fill: none; stroke: #201f3d; stroke-opacity: 0.6; stroke-width: 0.4"/>
    <path d="M 85.325582 79.003861 
L 74.156802 75.091728 
" clip-path="url(#pbcda0fde64)" style="fill: none; stroke: #201f3d; stroke-opacity: 0.6; stroke-width: 0.4"/>
    <path d="M 85.325582 79.003861 
L 79.218368 81.971182 
" clip-path="url(#pbcda0fde64)" style="fill: none; stroke: #201f3d; stroke-opacity: 0.6; stroke-width: 0.4"/>
    <path d="M 85.325582 79.003861 
L 94.172889 74.229246 
" clip-path="url(#pbcda0fde64)" style="fill: none; stroke: #201f3d; stroke-opacity: 0.6; stroke-width: 0.4"/>
    <path d="M 85.325582 79.003861 
L 88.954139 78.831777 
" clip-path="url(#pbcda0fde64)" style="fill: none; stroke: #201f3d; stroke-opacity: 0.6; stroke-width: 0.4"/>
    <path d="M 85.325582 79.003861 
L 85.260666 74.02925 
" clip-path="url(#pbcda0fde64)" style="fill: none; stroke: #201f3d; stroke-opacity: 0.6; stroke-width: 0.4"/>
    <path d="M 85.325582 79.003861 
L 89.421714 74.014714 
" clip-path="url(#pbcda0fde64)" style="fill: none; stroke: #201f3d; stroke-opacity: 0.6; stroke-width: 0.4"/>
    <path d="M 85.325582 79.003861 
L 78.293253 79.868843 
" clip-path="url(#pbcda0fde64)" style="fill: none; stroke: #201f3d; stroke-opacity: 0.6; stroke-width: 0.4"/>
    <path d="M 85.325582 79.003861 
L 91.326668 75.600129 
" clip-path="url(#pbcda0fde64)" style="fill: none; stroke: #201f3d; stroke-opacity: 0.6; stroke-width: 0.4"/>
    <path d="M 85.325582 79.003861 
L 81.658998 78.060167 
" clip-path="url(#pbcda0fde64)" style="fill: none; stroke: #201f3d; stroke-opacity: 0.6; stroke-width: 0.4"/>
    <path d="M 85.325582 79.003861 
L 83.264447 72.614668 
" clip-path="url(#pbcda0fde64)" style="fill: none; stroke: #201f3d; stroke-opacity: 0.6; stroke-width: 0.4"/>
    <path d="M 85.325582 79.003861 
L 86.529036 73.410481 
" clip-path="url(#pbcda0fde64)" style="fill: none; stroke: #201f3d; stroke-opacity: 0.6; stroke-width: 0.4"/>
    <path d="M 85.325582 79.003861 
L 82.60503 74.451501 
" clip-path="url(#pbcda0fde64)" style="fill: none; stroke: #201f3d; stroke-opacity: 0.6; stroke-width: 0.4"/>
    <path d="M 85.325582 79.003861 
L 83.74518 75.244386 
" clip-path="url(#pbcda0fde64)" style="fill: none; stroke: #201f3d; stroke-opacity: 0.6; stroke-width: 0.4"/>
    <path d="M 85.325582 79.003861 
L 90.730463 80.504699 
" clip-path="url(#pbcda0fde64)" style="fill: none; stroke: #201f3d; stroke-opacity: 0.6; stroke-width: 0.4"/>
    <path d="M 85.325582 79.003861 
L 89.34113 75.520208 
" clip-path="url(#pbcda0fde64)" style="fill: none; stroke: #201f3d; stroke-opacity: 0.6; stroke-width: 0.4"/>
    <path d="M 85.325582 79.003861 
L 85.100879 72.925838 
" clip-path="url(#pbcda0fde64)" style="fill: none; stroke: #201f3d; stroke-opacity: 0.6; stroke-width: 0.4"/>
    <path d="M 85.325582 79.003861 
L 92.54342 77.910468 
" clip-path="url(#pbcda0fde64)" style="fill: none; stroke: #201f3d; stroke-opacity: 0.6; stroke-width: 0.4"/>
    <path d="M 85.325582 79.003861 
L 82.033806 83.590305 
" clip-path="url(#pbcda0fde64)" style="fill: none; stroke: #201f3d; stroke-opacity: 0.6; stroke-width: 0.4"/>
    <path d="M 85.325582 79.003861 
L 83.849217 82.628864 
" clip-path="url(#pbcda0fde64)" style="fill: none; stroke: #201f3d; stroke-opacity: 0.6; stroke-width: 0.4"/>
    <path d="M 85.325582 79.003861 
L 87.84001 73.961051 
" clip-path="url(#pbcda0fde64)" style="fill: none; stroke: #201f3d; stroke-opacity: 0.6; stroke-width: 0.4"/>
    <path d="M 85.325582 79.003861 
L 78.575998 77.443178 
" clip-path="url(#pbcda0fde64)" style="fill: none; stroke: #201f3d; stroke-opacity: 0.6; stroke-width: 0.4"/>
    <path d="M 85.325582 79.003861 
L 89.782542 82.856503 
" clip-path="url(#pbcda0fde64)" style="fill: none; stroke: #201f3d; stroke-opacity: 0.6; stroke-width: 0.4"/>
    <path d="M 85.325582 79.003861 
L 79.073044 74.995686 
" clip-path="url(#pbcda0fde64)" style="fill: none; stroke: #201f3d; stroke-opacity: 0.6; stroke-width: 0.4"/>
    <path d="M 85.325582 79.003861 
L 90.468013 77.379717 
" clip-path="url(#pbcda0fde64)" style="fill: none; stroke: #201f3d; stroke-opacity: 0.6; stroke-width: 0.4"/>
    <path d="M 85.325582 79.003861 
L 81.908766 73.282032 
" clip-path="url(#pbcda0fde64)" style="fill: none; stroke: #201f3d; stroke-opacity: 0.6; stroke-width: 0.4"/>
    <path d="M 85.325582 79.003861 
L 87.025587 77.331636 
" clip-path="url(#pbcda0fde64)" style="fill: none; stroke: #201f3d; stroke-opacity: 0.6; stroke-width: 0.4"/>
    <path d="M 85.325582 79.003861 
L 83.677127 76.992138 
" clip-path="url(#pbcda0fde64)" style="fill: none; stroke: #201f3d; stroke-opacity: 0.6; stroke-width: 0.4"/>
    <path d="M 85.325582 79.003861 
L 81.658353 76.366406 
" clip-path="url(#pbcda0fde64)" style="fill: none; stroke: #201f3d; stroke-opacity: 0.6; stroke-width: 0.4"/>
    <path d="M 85.325582 79.003861 
L 87.868376 82.17627 
" clip-path="url(#pbcda0fde64)" style="fill: none; stroke: #201f3d; stroke-opacity: 0.6; stroke-width: 0.4"/>
    <path d="M 85.325582 79.003861 
L 83.700328 73.445843 
" clip-path="url(#pbcda0fde64)" style="fill: none; stroke: #201f3d; stroke-opacity: 0.6; stroke-width: 0.4"/>
    <path d="M 85.325582 79.003861 
L 92.556649 79.053127 
" clip-path="url(#pbcda0fde64)" style="fill: none; stroke: #201f3d; stroke-opacity: 0.6; stroke-width: 0.4"/>
    <path d="M 85.325582 79.003861 
L 87.227304 75.555256 
" clip-path="url(#pbcda0fde64)" style="fill: none; stroke: #201f3d; stroke-opacity: 0.6; stroke-width: 0.4"/>
    <path d="M 85.325582 79.003861 
L 81.12958 82.301389 
" clip-path="url(#pbcda0fde64)" style="fill: none; stroke: #201f3d; stroke-opacity: 0.6; stroke-width: 0.4"/>
    <path d="M 85.325582 79.003861 
L 79.137494 78.847029 
" clip-path="url(#pbcda0fde64)" style="fill: none; stroke: #201f3d; stroke-opacity: 0.6; stroke-width: 0.4"/>
    <path d="M 85.325582 79.003861 
L 84.962541 84.200583 
" clip-path="url(#pbcda0fde64)" style="fill: none; stroke: #201f3d; stroke-opacity: 0.6; stroke-width: 0.4"/>
    <path d="M 74.031976 100.263048 
L 68.52701 97.421101 
" clip-path="url(#pbcda0fde64)" style="fill: none; stroke: #201f3d; stroke-opacity: 0.6; stroke-width: 0.4"/>
    <path d="M 74.031976 100.263048 
L 67.415105 98.525385 
" clip-path="url(#pbcda0fde64)" style="fill: none; stroke: #201f3d; stroke-opacity: 0.6; stroke-width: 0.4"/>
    <path d="M 74.031976 100.263048 
L 66.742256 99.754339 
" clip-path="url(#pbcda0fde64)" style="fill: none; stroke: #201f3d; stroke-opacity: 0.6; stroke-width: 0.4"/>
    <path d="M 74.031976 100.263048 
L 70.384147 99.824284 
" clip-path="url(#pbcda0fde64)" style="fill: none; stroke: #201f3d; stroke-opacity: 0.6; stroke-width: 0.4"/>
    <path d="M 74.031976 100.263048 
L 67.997737 101.9429 
" clip-path="url(#pbcda0fde64)" style="fill: none; stroke: #201f3d; stroke-opacity: 0.6; stroke-width: 0.4"/>
    <path d="M 74.031976 100.263048 
L 67.900654 100.661028 
" clip-path="url(#pbcda0fde64)" style="fill: none; stroke: #201f3d; stroke-opacity: 0.6; stroke-width: 0.4"/>
    <path d="M 74.031976 100.263048 
L 70.028313 98.304764 
" clip-path="url(#pbcda0fde64)" style="fill: none; stroke: #201f3d; stroke-opacity: 0.6; stroke-width: 0.4"/>
    <path d="M 74.031976 100.263048 
L 70.762447 97.190032 
" clip-path="url(#pbcda0fde64)" style="fill: none; stroke: #201f3d; stroke-opacity: 0.6; stroke-width: 0.4"/>
    <path d="M 74.031976 100.263048 
L 68.89028 99.171215 
" clip-path="url(#pbcda0fde64)" style="fill: none; stroke: #201f3d; stroke-opacity: 0.6; stroke-width: 0.4"/>
    <path d="M 74.031976 100.263048 
L 69.830662 101.230428 
" clip-path="url(#pbcda0fde64)" style="fill: none; stroke: #201f3d; stroke-opacity: 0.6; stroke-width: 0.4"/>
    <path d="M 67.741627 63.182671 
L 64.226213 57.288202 
" clip-path="url(#pbcda0fde64)" style="fill: none; stroke: #201f3d; stroke-opacity: 0.6; stroke-width: 0.4"/>
    <path d="M 67.741627 63.182671 
L 65.589641 56.995537 
" clip-path="url(#pbcda0fde64)" style="fill: none; stroke: #201f3d; stroke-opacity: 0.6; stroke-width: 0.4"/>
    <path d="M 67.741627 63.182671 
L 62.892612 59.0599 
" clip-path="url(#pbcda0fde64)" style="fill: none; stroke: #201f3d; stroke-opacity: 0.6; stroke-width: 0.4"/>
    <path d="M 67.741627 63.182671 
L 64.139911 58.324276 
" clip-path="url(#pbcda0fde64)" style="fill: none; stroke: #201f3d; stroke-opacity: 0.6; stroke-width: 0.4"/>
    <path d="M 114.862228 130.161919 
L 122.635336 138.113452 
" clip-path="url(#pbcda0fde64)" style="fill: none; stroke: #201f3d; stroke-opacity: 0.6; stroke-width: 0.4"/>
    <path d="M 114.862228 130.161919 
L 119.70853 130.21262 
" clip-path="url(#pbcda0fde64)" style="fill: none; stroke: #201f3d; stroke-opacity: 0.6; stroke-width: 0.4"/>
    <path d="M 114.862228 130.161919 
L 119.678451 128.749674 
" clip-path="url(#pbcda0fde64)" style="fill: none; stroke: #201f3d; stroke-opacity: 0.6; stroke-width: 0.4"/>
    <path d="M 114.862228 130.161919 
L 120.138349 131.819762 
" clip-path="url(#pbcda0fde64)" style="fill: none; stroke: #201f3d; stroke-opacity: 0.6; stroke-width: 0.4"/>
    <path d="M 114.862228 130.161919 
L 121.447855 131.283023 
" clip-path="url(#pbcda0fde64)" style="fill: none; stroke: #201f3d; stroke-opacity: 0.6; stroke-width: 0.4"/>
    <path d="M 114.862228 130.161919 
L 121.035344 129.26112 
" clip-path="url(#pbcda0fde64)" style="fill: none; stroke: #201f3d; stroke-opacity: 0.6; stroke-width: 0.4"/>
    <path d="M 114.862228 130.161919 
L 118.453877 134.838075 
" clip-path="url(#pbcda0fde64)" style="fill: none; stroke: #201f3d; stroke-opacity: 0.6; stroke-width: 0.4"/>
    <path d="M 114.862228 130.161919 
L 120.205207 132.923045 
" clip-path="url(#pbcda0fde64)" style="fill: none; stroke: #201f3d; stroke-opacity: 0.6; stroke-width: 0.4"/>
    <path d="M 114.862228 130.161919 
L 120.328145 134.066532 
" clip-path="url(#pbcda0fde64)" style="fill: none; stroke: #201f3d; stroke-opacity: 0.6; stroke-width: 0.4"/>
    <path d="M 114.862228 130.161919 
L 116.399958 134.490288 
" clip-path="url(#pbcda0fde64)" style="fill: none; stroke: #201f3d; stroke-opacity: 0.6; stroke-width: 0.4"/>
    <path d="M 145.27041 93.989915 
L 138.573343 94.928233 
" clip-path="url(#pbcda0fde64)" style="fill: none; stroke: #201f3d; stroke-opacity: 0.6; stroke-width: 0.4"/>
    <path d="M 82.437109 64.555505 
L 79.483488 58.503109 
" clip-path="url(#pbcda0fde64)" style="fill: none; stroke: #201f3d; stroke-opacity: 0.6; stroke-width: 0.4"/>
    <path d="M 82.437109 64.555505 
L 81.058597 58.059959 
" clip-path="url(#pbcda0fde64)" style="fill: none; stroke: #201f3d; stroke-opacity: 0.6; stroke-width: 0.4"/>
    <path d="M 69.083273 108.885245 
L 74.29631 110.175802 
" clip-path="url(#pbcda0fde64)" style="fill: none; stroke: #201f3d; stroke-opacity: 0.6; stroke-width: 0.4"/>
    <path d="M 118.757489 77.753102 
L 113.514402 81.436715 
" clip-path="url(#pbcda0fde64)" style="fill: none; stroke: #201f3d; stroke-opacity: 0.6; stroke-width: 0.4"/>
    <path d="M 138.573343 94.928233 
L 145.459369 96.4565 
" clip-path="url(#pbcda0fde64)" style="fill: none; stroke: #201f3d; stroke-opacity: 0.6; stroke-width: 0.4"/>
    <path d="M 138.573343 94.928233 
L 146.998585 94.084238 
" clip-path="url(#pbcda0fde64)" style="fill: none; stroke: #201f3d; stroke-opacity: 0.6; stroke-width: 0.4"/>
    <path d="M 138.573343 94.928233 
L 146.676018 92.6501 
" clip-path="url(#pbcda0fde64)" style="fill: none; stroke: #201f3d; stroke-opacity: 0.6; stroke-width: 0.4"/>
    <path d="M 138.573343 94.928233 
L 145.108589 95.907082 
" clip-path="url(#pbcda0fde64)" style="fill: none; stroke: #201f3d; stroke-opacity: 0.6; stroke-width: 0.4"/>
    <path d="M 138.573343 94.928233 
L 143.732518 92.584468 
" clip-path="url(#pbcda0fde64)" style="fill: none; stroke: #201f3d; stroke-opacity: 0.6; stroke-width: 0.4"/>
    <path d="M 138.573343 94.928233 
L 145.301834 91.70954 
" clip-path="url(#pbcda0fde64)" style="fill: none; stroke: #201f3d; stroke-opacity: 0.6; stroke-width: 0.4"/>
    <path d="M 138.573343 94.928233 
L 144.903756 94.746118 
" clip-path="url(#pbcda0fde64)" style="fill: none; stroke: #201f3d; stroke-opacity: 0.6; stroke-width: 0.4"/>
    <path d="M 138.573343 94.928233 
L 145.3215 92.904365 
" clip-path="url(#pbcda0fde64)" style="fill: none; stroke: #201f3d; stroke-opacity: 0.6; stroke-width: 0.4"/>
    <path d="M 138.573343 94.928233 
L 146.734643 95.32724 
" clip-path="url(#pbcda0fde64)" style="fill: none; stroke: #201f3d; stroke-opacity: 0.6; stroke-width: 0.4"/>
    <path d="M 138.573343 94.928233 
L 144.198664 91.185294 
" clip-path="url(#pbcda0fde64)" style="fill: none; stroke: #201f3d; stroke-opacity: 0.6; stroke-width: 0.4"/>
    <path d="M 126.15314 85.882687 
L 123.814199 87.654943 
" clip-path="url(#pbcda0fde64)" style="fill: none; stroke: #201f3d; stroke-opacity: 0.6; stroke-width: 0.4"/>
    <path d="M 126.15314 85.882687 
L 122.387758 85.965039 
" clip-path="url(#pbcda0fde64)" style="fill: none; stroke: #201f3d; stroke-opacity: 0.6; stroke-width: 0.4"/>
    <path d="M 101.181946 66.218952 
L 107.562615 61.421285 
" clip-path="url(#pbcda0fde64)" style="fill: none; stroke: #201f3d; stroke-opacity: 0.6; stroke-width: 0.4"/>
    <path d="M 101.181946 66.218952 
L 105.104808 59.934953 
" clip-path="url(#pbcda0fde64)" style="fill: none; stroke: #201f3d; stroke-opacity: 0.6; stroke-width: 0.4"/>
    <path d="M 101.181946 66.218952 
L 106.16653 60.968431 
" clip-path="url(#pbcda0fde64)" style="fill: none; stroke: #201f3d; stroke-opacity: 0.6; stroke-width: 0.4"/>
    <path d="M 101.181946 66.218952 
L 106.667802 60.056388 
" clip-path="url(#pbcda0fde64)" style="fill: none; stroke: #201f3d; stroke-opacity: 0.6; stroke-width: 0.4"/>
    <path d="M 61.325431 84.792623 
L 54.665744 83.289317 
" clip-path="url(#pbcda0fde64)" style="fill: none; stroke: #201f3d; stroke-opacity: 0.6; stroke-width: 0.4"/>
    <path d="M 61.325431 84.792623 
L 54.442246 84.730109 
" clip-path="url(#pbcda0fde64)" style="fill: none; stroke: #201f3d; stroke-opacity: 0.6; stroke-width: 0.4"/>
    <path d="M 74.29631 110.175802 
L 72.245524 114.70399 
" clip-path="url(#pbcda0fde64)" style="fill: none; stroke: #201f3d; stroke-opacity: 0.6; stroke-width: 0.4"/>
    <path d="M 74.29631 110.175802 
L 71.113002 112.501795 
" clip-path="url(#pbcda0fde64)" style="fill: none; stroke: #201f3d; stroke-opacity: 0.6; stroke-width: 0.4"/>
    <path d="M 74.29631 110.175802 
L 72.826802 113.559158 
" clip-path="url(#pbcda0fde64)" style="fill: none; stroke: #201f3d; stroke-opacity: 0.6; stroke-width: 0.4"/>
    <path d="M 74.29631 110.175802 
L 69.888661 113.105116 
" clip-path="url(#pbcda0fde64)" style="fill: none; stroke: #201f3d; stroke-opacity: 0.6; stroke-width: 0.4"/>
    <path d="M 74.29631 110.175802 
L 69.292518 111.273546 
" clip-path="url(#pbcda0fde64)" style="fill: none; stroke: #201f3d; stroke-opacity: 0.6; stroke-width: 0.4"/>
    <path d="M 97.81761 68.589892 
L 92.558177 73.157732 
" clip-path="url(#pbcda0fde64)" style="fill: none; stroke: #201f3d; stroke-opacity: 0.6; stroke-width: 0.4"/>
    <path d="M 79.864657 70.909036 
L 75.993052 65.327614 
" clip-path="url(#pbcda0fde64)" style="fill: none; stroke: #201f3d; stroke-opacity: 0.6; stroke-width: 0.4"/>
    <path d="M 120.138733 79.763499 
L 113.514402 81.436715 
" clip-path="url(#pbcda0fde64)" style="fill: none; stroke: #201f3d; stroke-opacity: 0.6; stroke-width: 0.4"/>
    <path d="M 73.664305 77.855158 
L 66.933002 77.477281 
" clip-path="url(#pbcda0fde64)" style="fill: none; stroke: #201f3d; stroke-opacity: 0.6; stroke-width: 0.4"/>
    <path d="M 73.664305 77.855158 
L 66.948297 75.958126 
" clip-path="url(#pbcda0fde64)" style="fill: none; stroke: #201f3d; stroke-opacity: 0.6; stroke-width: 0.4"/>
    <path d="M 100.198293 63.466775 
L 95.058757 69.001483 
" clip-path="url(#pbcda0fde64)" style="fill: none; stroke: #201f3d; stroke-opacity: 0.6; stroke-width: 0.4"/>
    <path d="M 38.557653 162.898088 
L 42.441921 158.242838 
" clip-path="url(#pbcda0fde64)" style="fill: none; stroke: #201f3d; stroke-opacity: 0.6; stroke-width: 0.4"/>
    <path d="M 90.317665 66.41472 
L 92.850955 59.698204 
" clip-path="url(#pbcda0fde64)" style="fill: none; stroke: #201f3d; stroke-opacity: 0.6; stroke-width: 0.4"/>
    <path d="M 90.317665 66.41472 
L 94.02377 59.692892 
" clip-path="url(#pbcda0fde64)" style="fill: none; stroke: #201f3d; stroke-opacity: 0.6; stroke-width: 0.4"/>
    <path d="M 90.317665 66.41472 
L 91.607285 59.548198 
" clip-path="url(#pbcda0fde64)" style="fill: none; stroke: #201f3d; stroke-opacity: 0.6; stroke-width: 0.4"/>
    <path d="M 98.840119 62.939157 
L 95.058757 69.001483 
" clip-path="url(#pbcda0fde64)" style="fill: none; stroke: #201f3d; stroke-opacity: 0.6; stroke-width: 0.4"/>
    <path d="M 95.372332 74.617406 
L 101.904646 70.781338 
" clip-path="url(#pbcda0fde64)" style="fill: none; stroke: #201f3d; stroke-opacity: 0.6; stroke-width: 0.4"/>
    <path d="M 88.086906 70.946674 
L 89.401809 64.694655 
" clip-path="url(#pbcda0fde64)" style="fill: none; stroke: #201f3d; stroke-opacity: 0.6; stroke-width: 0.4"/>
    <path d="M 85.60167 70.321683 
L 85.578893 63.89355 
" clip-path="url(#pbcda0fde64)" style="fill: none; stroke: #201f3d; stroke-opacity: 0.6; stroke-width: 0.4"/>
    <path d="M 100.039587 69.946205 
L 94.172889 74.229246 
" clip-path="url(#pbcda0fde64)" style="fill: none; stroke: #201f3d; stroke-opacity: 0.6; stroke-width: 0.4"/>
    <path d="M 93.96861 63.793637 
L 90.607102 70.728167 
" clip-path="url(#pbcda0fde64)" style="fill: none; stroke: #201f3d; stroke-opacity: 0.6; stroke-width: 0.4"/>
    <path d="M 91.258171 147.161406 
L 89.393125 153.914019 
" clip-path="url(#pbcda0fde64)" style="fill: none; stroke: #201f3d; stroke-opacity: 0.6; stroke-width: 0.4"/>
    <path d="M 127.55831 143.345063 
L 122.635336 138.113452 
" clip-path="url(#pbcda0fde64)" style="fill: none; stroke: #201f3d; stroke-opacity: 0.6; stroke-width: 0.4"/>
    <path d="M 68.097758 71.699644 
L 74.156802 75.091728 
" clip-path="url(#pbcda0fde64)" style="fill: none; stroke: #201f3d; stroke-opacity: 0.6; stroke-width: 0.4"/>
    <path d="M 122.635336 138.113452 
L 127.574376 142.8717 
" clip-path="url(#pbcda0fde64)" style="fill: none; stroke: #201f3d; stroke-opacity: 0.6; stroke-width: 0.4"/>
    <path d="M 87.885958 68.432933 
L 90.020785 62.120175 
" clip-path="url(#pbcda0fde64)" style="fill: none; stroke: #201f3d; stroke-opacity: 0.6; stroke-width: 0.4"/>
    <path d="M 87.885958 68.432933 
L 88.077999 61.655604 
" clip-path="url(#pbcda0fde64)" style="fill: none; stroke: #201f3d; stroke-opacity: 0.6; stroke-width: 0.4"/>
    <path d="M 95.058757 69.001483 
L 100.552005 63.495016 
" clip-path="url(#pbcda0fde64)" style="fill: none; stroke: #201f3d; stroke-opacity: 0.6; stroke-width: 0.4"/>
    <path d="M 90.801242 69.737855 
L 95.110673 64.487144 
" clip-path="url(#pbcda0fde64)" style="fill: none; stroke: #201f3d; stroke-opacity: 0.6; stroke-width: 0.4"/>
    <path d="M 90.801242 69.737855 
L 93.136243 64.046974 
" clip-path="url(#pbcda0fde64)" style="fill: none; stroke: #201f3d; stroke-opacity: 0.6; stroke-width: 0.4"/>
    <path d="M 78.10373 72.654125 
L 72.908003 68.042393 
" clip-path="url(#pbcda0fde64)" style="fill: none; stroke: #201f3d; stroke-opacity: 0.6; stroke-width: 0.4"/>
    <path d="M 74.763498 67.47831 
L 78.984349 72.02647 
" clip-path="url(#pbcda0fde64)" style="fill: none; stroke: #201f3d; stroke-opacity: 0.6; stroke-width: 0.4"/>
    <path d="M 79.557022 66.318053 
L 76.124293 60.564103 
" clip-path="url(#pbcda0fde64)" style="fill: none; stroke: #201f3d; stroke-opacity: 0.6; stroke-width: 0.4"/>
    <path d="M 66.395971 117.771499 
L 58.006599 116.863288 
" clip-path="url(#pbcda0fde64)" style="fill: none; stroke: #201f3d; stroke-opacity: 0.6; stroke-width: 0.4"/>
    <path d="M 66.395971 117.771499 
L 58.01724 117.959481 
" clip-path="url(#pbcda0fde64)" style="fill: none; stroke: #201f3d; stroke-opacity: 0.6; stroke-width: 0.4"/>
    <path d="M 113.514402 81.436715 
L 119.653753 78.597389 
" clip-path="url(#pbcda0fde64)" style="fill: none; stroke: #201f3d; stroke-opacity: 0.6; stroke-width: 0.4"/>
    <path d="M 75.981492 80.771743 
L 69.447453 81.068428 
" clip-path="url(#pbcda0fde64)" style="fill: none; stroke: #201f3d; stroke-opacity: 0.6; stroke-width: 0.4"/>
    <path d="M 118.460798 136.876169 
L 115.323258 131.362299 
" clip-path="url(#pbcda0fde64)" style="fill: none; stroke: #201f3d; stroke-opacity: 0.6; stroke-width: 0.4"/>
    <path d="M 74.156802 75.091728 
L 67.518134 73.059664 
" clip-path="url(#pbcda0fde64)" style="fill: none; stroke: #201f3d; stroke-opacity: 0.6; stroke-width: 0.4"/>
   </g>
   <g id="PathCollection_1">
    <defs>
     <path id="mf367a96d53" d="M 0 1.581139 
C 0.419323 1.581139 0.821528 1.41454 1.118034 1.118034 
C 1.41454 0.821528 1.581139 0.419323 1.581139 0 
C 1.581139 -0.419323 1.41454 -0.821528 1.118034 -1.118034 
C 0.821528 -1.41454 0.419323 -1.581139 0 -1.581139 
C -0.419323 -1.581139 -0.821528 -1.41454 -1.118034 -1.118034 
C -1.41454 -0.821528 -1.581139 -0.419323 -1.581139 0 
C -1.581139 0.419323 -1.41454 0.821528 -1.118034 1.118034 
C -0.821528 1.41454 -0.419323 1.581139 0 1.581139 
z
" style="stroke: #201f3d; stroke-width: 0.1"/>
    </defs>
    <g clip-path="url(#pbcda0fde64)">
     <use xlink:href="#mf367a96d53" x="124.680722" y="119.84247" style="fill: #201f3d; stroke: #201f3d; stroke-width: 0.1"/>
     <use xlink:href="#mf367a96d53" x="87.227304" y="75.555256" style="fill: #201f3d; stroke: #201f3d; stroke-width: 0.1"/>
     <use xlink:href="#mf367a96d53" x="92.850955" y="59.698204" style="fill: #201f3d; stroke: #201f3d; stroke-width: 0.1"/>
     <use xlink:href="#mf367a96d53" x="89.34113" y="75.520208" style="fill: #201f3d; stroke: #201f3d; stroke-width: 0.1"/>
     <use xlink:href="#mf367a96d53" x="66.395971" y="117.771499" style="fill: #201f3d; stroke: #201f3d; stroke-width: 0.1"/>
     <use xlink:href="#mf367a96d53" x="74.647011" y="164.596955" style="fill: #201f3d; stroke: #201f3d; stroke-width: 0.1"/>
     <use xlink:href="#mf367a96d53" x="92.558177" y="73.157732" style="fill: #201f3d; stroke: #201f3d; stroke-width: 0.1"/>
     <use xlink:href="#mf367a96d53" x="121.447855" y="131.283023" style="fill: #201f3d; stroke: #201f3d; stroke-width: 0.1"/>
     <use xlink:href="#mf367a96d53" x="90.337749" y="76.834928" style="fill: #201f3d; stroke: #201f3d; stroke-width: 0.1"/>
     <use xlink:href="#mf367a96d53" x="81.658353" y="76.366406" style="fill: #201f3d; stroke: #201f3d; stroke-width: 0.1"/>
     <use xlink:href="#mf367a96d53" x="79.218368" y="81.971182" style="fill: #201f3d; stroke: #201f3d; stroke-width: 0.1"/>
     <use xlink:href="#mf367a96d53" x="83.264447" y="72.614668" style="fill: #201f3d; stroke: #201f3d; stroke-width: 0.1"/>
     <use xlink:href="#mf367a96d53" x="118.453877" y="134.838075" style="fill: #201f3d; stroke: #201f3d; stroke-width: 0.1"/>
     <use xlink:href="#mf367a96d53" x="79.483488" y="58.503109" style="fill: #201f3d; stroke: #201f3d; stroke-width: 0.1"/>
     <use xlink:href="#mf367a96d53" x="119.678451" y="128.749674" style="fill: #201f3d; stroke: #201f3d; stroke-width: 0.1"/>
     <use xlink:href="#mf367a96d53" x="44.901025" y="124.929343" style="fill: #201f3d; stroke: #201f3d; stroke-width: 0.1"/>
     <use xlink:href="#mf367a96d53" x="82.60503" y="74.451501" style="fill: #201f3d; stroke: #201f3d; stroke-width: 0.1"/>
     <use xlink:href="#mf367a96d53" x="116.399958" y="134.490288" style="fill: #201f3d; stroke: #201f3d; stroke-width: 0.1"/>
     <use xlink:href="#mf367a96d53" x="46.053998" y="125.545813" style="fill: #201f3d; stroke: #201f3d; stroke-width: 0.1"/>
     <use xlink:href="#mf367a96d53" x="70.384147" y="99.824284" style="fill: #201f3d; stroke: #201f3d; stroke-width: 0.1"/>
     <use xlink:href="#mf367a96d53" x="122.387758" y="85.965039" style="fill: #201f3d; stroke: #201f3d; stroke-width: 0.1"/>
     <use xlink:href="#mf367a96d53" x="90.730463" y="80.504699" style="fill: #201f3d; stroke: #201f3d; stroke-width: 0.1"/>
     <use xlink:href="#mf367a96d53" x="66.742256" y="99.754339" style="fill: #201f3d; stroke: #201f3d; stroke-width: 0.1"/>
     <use xlink:href="#mf367a96d53" x="97.212486" y="154.442714" style="fill: #201f3d; stroke: #201f3d; stroke-width: 0.1"/>
     <use xlink:href="#mf367a96d53" x="93.96861" y="63.793637" style="fill: #201f3d; stroke: #201f3d; stroke-width: 0.1"/>
     <use xlink:href="#mf367a96d53" x="118.757489" y="77.753102" style="fill: #201f3d; stroke: #201f3d; stroke-width: 0.1"/>
     <use xlink:href="#mf367a96d53" x="69.447453" y="81.068428" style="fill: #201f3d; stroke: #201f3d; stroke-width: 0.1"/>
     <use xlink:href="#mf367a96d53" x="72.908003" y="68.042393" style="fill: #201f3d; stroke: #201f3d; stroke-width: 0.1"/>
     <use xlink:href="#mf367a96d53" x="75.993052" y="65.327614" style="fill: #201f3d; stroke: #201f3d; stroke-width: 0.1"/>
     <use xlink:href="#mf367a96d53" x="61.325431" y="84.792623" style="fill: #201f3d; stroke: #201f3d; stroke-width: 0.1"/>
     <use xlink:href="#mf367a96d53" x="89.393125" y="153.914019" style="fill: #201f3d; stroke: #201f3d; stroke-width: 0.1"/>
     <use xlink:href="#mf367a96d53" x="146.998585" y="94.084238" style="fill: #201f3d; stroke: #201f3d; stroke-width: 0.1"/>
     <use xlink:href="#mf367a96d53" x="68.52701" y="97.421101" style="fill: #201f3d; stroke: #201f3d; stroke-width: 0.1"/>
     <use xlink:href="#mf367a96d53" x="98.840119" y="62.939157" style="fill: #201f3d; stroke: #201f3d; stroke-width: 0.1"/>
     <use xlink:href="#mf367a96d53" x="87.981162" y="83.657137" style="fill: #201f3d; stroke: #201f3d; stroke-width: 0.1"/>
     <use xlink:href="#mf367a96d53" x="92.200127" y="80.464916" style="fill: #201f3d; stroke: #201f3d; stroke-width: 0.1"/>
     <use xlink:href="#mf367a96d53" x="145.27041" y="93.989915" style="fill: #201f3d; stroke: #201f3d; stroke-width: 0.1"/>
     <use xlink:href="#mf367a96d53" x="74.763498" y="67.47831" style="fill: #201f3d; stroke: #201f3d; stroke-width: 0.1"/>
     <use xlink:href="#mf367a96d53" x="67.518134" y="73.059664" style="fill: #201f3d; stroke: #201f3d; stroke-width: 0.1"/>
     <use xlink:href="#mf367a96d53" x="81.22752" y="79.581569" style="fill: #201f3d; stroke: #201f3d; stroke-width: 0.1"/>
     <use xlink:href="#mf367a96d53" x="86.051701" y="83.369784" style="fill: #201f3d; stroke: #201f3d; stroke-width: 0.1"/>
     <use xlink:href="#mf367a96d53" x="74.156802" y="75.091728" style="fill: #201f3d; stroke: #201f3d; stroke-width: 0.1"/>
     <use xlink:href="#mf367a96d53" x="84.962541" y="84.200583" style="fill: #201f3d; stroke: #201f3d; stroke-width: 0.1"/>
     <use xlink:href="#mf367a96d53" x="89.909339" y="81.498309" style="fill: #201f3d; stroke: #201f3d; stroke-width: 0.1"/>
     <use xlink:href="#mf367a96d53" x="123.814199" y="87.654943" style="fill: #201f3d; stroke: #201f3d; stroke-width: 0.1"/>
     <use xlink:href="#mf367a96d53" x="80.391963" y="83.296933" style="fill: #201f3d; stroke: #201f3d; stroke-width: 0.1"/>
     <use xlink:href="#mf367a96d53" x="70.028313" y="98.304764" style="fill: #201f3d; stroke: #201f3d; stroke-width: 0.1"/>
     <use xlink:href="#mf367a96d53" x="87.885958" y="68.432933" style="fill: #201f3d; stroke: #201f3d; stroke-width: 0.1"/>
     <use xlink:href="#mf367a96d53" x="42.441921" y="158.242838" style="fill: #201f3d; stroke: #201f3d; stroke-width: 0.1"/>
     <use xlink:href="#mf367a96d53" x="114.862228" y="130.161919" style="fill: #201f3d; stroke: #201f3d; stroke-width: 0.1"/>
     <use xlink:href="#mf367a96d53" x="118.460798" y="136.876169" style="fill: #201f3d; stroke: #201f3d; stroke-width: 0.1"/>
     <use xlink:href="#mf367a96d53" x="106.16653" y="60.968431" style="fill: #201f3d; stroke: #201f3d; stroke-width: 0.1"/>
     <use xlink:href="#mf367a96d53" x="90.607102" y="70.728167" style="fill: #201f3d; stroke: #201f3d; stroke-width: 0.1"/>
     <use xlink:href="#mf367a96d53" x="64.139911" y="58.324276" style="fill: #201f3d; stroke: #201f3d; stroke-width: 0.1"/>
     <use xlink:href="#mf367a96d53" x="81.058597" y="58.059959" style="fill: #201f3d; stroke: #201f3d; stroke-width: 0.1"/>
     <use xlink:href="#mf367a96d53" x="85.578893" y="63.89355" style="fill: #201f3d; stroke: #201f3d; stroke-width: 0.1"/>
     <use xlink:href="#mf367a96d53" x="88.086906" y="70.946674" style="fill: #201f3d; stroke: #201f3d; stroke-width: 0.1"/>
     <use xlink:href="#mf367a96d53" x="145.459369" y="96.4565" style="fill: #201f3d; stroke: #201f3d; stroke-width: 0.1"/>
     <use xlink:href="#mf367a96d53" x="75.406176" y="165.455342" style="fill: #201f3d; stroke: #201f3d; stroke-width: 0.1"/>
     <use xlink:href="#mf367a96d53" x="115.323258" y="131.362299" style="fill: #201f3d; stroke: #201f3d; stroke-width: 0.1"/>
     <use xlink:href="#mf367a96d53" x="54.442246" y="84.730109" style="fill: #201f3d; stroke: #201f3d; stroke-width: 0.1"/>
     <use xlink:href="#mf367a96d53" x="44.081353" y="122.878825" style="fill: #201f3d; stroke: #201f3d; stroke-width: 0.1"/>
     <use xlink:href="#mf367a96d53" x="85.260666" y="74.02925" style="fill: #201f3d; stroke: #201f3d; stroke-width: 0.1"/>
     <use xlink:href="#mf367a96d53" x="107.562615" y="61.421285" style="fill: #201f3d; stroke: #201f3d; stroke-width: 0.1"/>
     <use xlink:href="#mf367a96d53" x="122.635336" y="138.113452" style="fill: #201f3d; stroke: #201f3d; stroke-width: 0.1"/>
     <use xlink:href="#mf367a96d53" x="66.933002" y="77.477281" style="fill: #201f3d; stroke: #201f3d; stroke-width: 0.1"/>
     <use xlink:href="#mf367a96d53" x="113.514402" y="81.436715" style="fill: #201f3d; stroke: #201f3d; stroke-width: 0.1"/>
     <use xlink:href="#mf367a96d53" x="80.814659" y="74.198677" style="fill: #201f3d; stroke: #201f3d; stroke-width: 0.1"/>
     <use xlink:href="#mf367a96d53" x="54.665744" y="83.289317" style="fill: #201f3d; stroke: #201f3d; stroke-width: 0.1"/>
     <use xlink:href="#mf367a96d53" x="58.006599" y="116.863288" style="fill: #201f3d; stroke: #201f3d; stroke-width: 0.1"/>
     <use xlink:href="#mf367a96d53" x="79.712264" y="76.040681" style="fill: #201f3d; stroke: #201f3d; stroke-width: 0.1"/>
     <use xlink:href="#mf367a96d53" x="138.573343" y="94.928233" style="fill: #201f3d; stroke: #201f3d; stroke-width: 0.1"/>
     <use xlink:href="#mf367a96d53" x="90.468013" y="77.379717" style="fill: #201f3d; stroke: #201f3d; stroke-width: 0.1"/>
     <use xlink:href="#mf367a96d53" x="90.472149" y="79.142985" style="fill: #201f3d; stroke: #201f3d; stroke-width: 0.1"/>
     <use xlink:href="#mf367a96d53" x="106.667802" y="60.056388" style="fill: #201f3d; stroke: #201f3d; stroke-width: 0.1"/>
     <use xlink:href="#mf367a96d53" x="79.864657" y="70.909036" style="fill: #201f3d; stroke: #201f3d; stroke-width: 0.1"/>
     <use xlink:href="#mf367a96d53" x="91.607285" y="59.548198" style="fill: #201f3d; stroke: #201f3d; stroke-width: 0.1"/>
     <use xlink:href="#mf367a96d53" x="65.589641" y="56.995537" style="fill: #201f3d; stroke: #201f3d; stroke-width: 0.1"/>
     <use xlink:href="#mf367a96d53" x="119.70853" y="130.21262" style="fill: #201f3d; stroke: #201f3d; stroke-width: 0.1"/>
     <use xlink:href="#mf367a96d53" x="87.025587" y="77.331636" style="fill: #201f3d; stroke: #201f3d; stroke-width: 0.1"/>
     <use xlink:href="#mf367a96d53" x="95.372332" y="74.617406" style="fill: #201f3d; stroke: #201f3d; stroke-width: 0.1"/>
     <use xlink:href="#mf367a96d53" x="92.585081" y="42.193216" style="fill: #201f3d; stroke: #201f3d; stroke-width: 0.1"/>
     <use xlink:href="#mf367a96d53" x="83.700328" y="73.445843" style="fill: #201f3d; stroke: #201f3d; stroke-width: 0.1"/>
     <use xlink:href="#mf367a96d53" x="69.888661" y="113.105116" style="fill: #201f3d; stroke: #201f3d; stroke-width: 0.1"/>
     <use xlink:href="#mf367a96d53" x="75.981492" y="80.771743" style="fill: #201f3d; stroke: #201f3d; stroke-width: 0.1"/>
     <use xlink:href="#mf367a96d53" x="82.033806" y="83.590305" style="fill: #201f3d; stroke: #201f3d; stroke-width: 0.1"/>
     <use xlink:href="#mf367a96d53" x="83.307007" y="84.111723" style="fill: #201f3d; stroke: #201f3d; stroke-width: 0.1"/>
     <use xlink:href="#mf367a96d53" x="123.320615" y="118.881812" style="fill: #201f3d; stroke: #201f3d; stroke-width: 0.1"/>
     <use xlink:href="#mf367a96d53" x="123.913915" y="120.053815" style="fill: #201f3d; stroke: #201f3d; stroke-width: 0.1"/>
     <use xlink:href="#mf367a96d53" x="119.653753" y="78.597389" style="fill: #201f3d; stroke: #201f3d; stroke-width: 0.1"/>
     <use xlink:href="#mf367a96d53" x="101.181946" y="66.218952" style="fill: #201f3d; stroke: #201f3d; stroke-width: 0.1"/>
     <use xlink:href="#mf367a96d53" x="77.27848" y="164.813601" style="fill: #201f3d; stroke: #201f3d; stroke-width: 0.1"/>
     <use xlink:href="#mf367a96d53" x="94.02377" y="59.692892" style="fill: #201f3d; stroke: #201f3d; stroke-width: 0.1"/>
     <use xlink:href="#mf367a96d53" x="121.035344" y="129.26112" style="fill: #201f3d; stroke: #201f3d; stroke-width: 0.1"/>
     <use xlink:href="#mf367a96d53" x="68.097758" y="71.699644" style="fill: #201f3d; stroke: #201f3d; stroke-width: 0.1"/>
     <use xlink:href="#mf367a96d53" x="58.01724" y="117.959481" style="fill: #201f3d; stroke: #201f3d; stroke-width: 0.1"/>
     <use xlink:href="#mf367a96d53" x="77.42951" y="78.514713" style="fill: #201f3d; stroke: #201f3d; stroke-width: 0.1"/>
     <use xlink:href="#mf367a96d53" x="72.245524" y="114.70399" style="fill: #201f3d; stroke: #201f3d; stroke-width: 0.1"/>
     <use xlink:href="#mf367a96d53" x="44.86008" y="121.860264" style="fill: #201f3d; stroke: #201f3d; stroke-width: 0.1"/>
     <use xlink:href="#mf367a96d53" x="45.845546" y="124.225899" style="fill: #201f3d; stroke: #201f3d; stroke-width: 0.1"/>
     <use xlink:href="#mf367a96d53" x="88.971941" y="75.425651" style="fill: #201f3d; stroke: #201f3d; stroke-width: 0.1"/>
     <use xlink:href="#mf367a96d53" x="85.60167" y="70.321683" style="fill: #201f3d; stroke: #201f3d; stroke-width: 0.1"/>
     <use xlink:href="#mf367a96d53" x="64.226213" y="57.288202" style="fill: #201f3d; stroke: #201f3d; stroke-width: 0.1"/>
     <use xlink:href="#mf367a96d53" x="94.172889" y="74.229246" style="fill: #201f3d; stroke: #201f3d; stroke-width: 0.1"/>
     <use xlink:href="#mf367a96d53" x="124.749934" y="117.939109" style="fill: #201f3d; stroke: #201f3d; stroke-width: 0.1"/>
     <use xlink:href="#mf367a96d53" x="88.954139" y="78.831777" style="fill: #201f3d; stroke: #201f3d; stroke-width: 0.1"/>
     <use xlink:href="#mf367a96d53" x="87.868376" y="82.17627" style="fill: #201f3d; stroke: #201f3d; stroke-width: 0.1"/>
     <use xlink:href="#mf367a96d53" x="86.529036" y="73.410481" style="fill: #201f3d; stroke: #201f3d; stroke-width: 0.1"/>
     <use xlink:href="#mf367a96d53" x="126.15314" y="85.882687" style="fill: #201f3d; stroke: #201f3d; stroke-width: 0.1"/>
     <use xlink:href="#mf367a96d53" x="77.93245" y="76.486785" style="fill: #201f3d; stroke: #201f3d; stroke-width: 0.1"/>
     <use xlink:href="#mf367a96d53" x="83.74518" y="75.244386" style="fill: #201f3d; stroke: #201f3d; stroke-width: 0.1"/>
     <use xlink:href="#mf367a96d53" x="127.55831" y="143.345063" style="fill: #201f3d; stroke: #201f3d; stroke-width: 0.1"/>
     <use xlink:href="#mf367a96d53" x="78.10373" y="72.654125" style="fill: #201f3d; stroke: #201f3d; stroke-width: 0.1"/>
     <use xlink:href="#mf367a96d53" x="78.984349" y="72.02647" style="fill: #201f3d; stroke: #201f3d; stroke-width: 0.1"/>
     <use xlink:href="#mf367a96d53" x="95.058757" y="69.001483" style="fill: #201f3d; stroke: #201f3d; stroke-width: 0.1"/>
     <use xlink:href="#mf367a96d53" x="74.031976" y="100.263048" style="fill: #201f3d; stroke: #201f3d; stroke-width: 0.1"/>
     <use xlink:href="#mf367a96d53" x="85.100879" y="72.925838" style="fill: #201f3d; stroke: #201f3d; stroke-width: 0.1"/>
     <use xlink:href="#mf367a96d53" x="122.966374" y="120.520211" style="fill: #201f3d; stroke: #201f3d; stroke-width: 0.1"/>
     <use xlink:href="#mf367a96d53" x="78.757236" y="80.903029" style="fill: #201f3d; stroke: #201f3d; stroke-width: 0.1"/>
     <use xlink:href="#mf367a96d53" x="92.556649" y="79.053127" style="fill: #201f3d; stroke: #201f3d; stroke-width: 0.1"/>
     <use xlink:href="#mf367a96d53" x="68.89028" y="99.171215" style="fill: #201f3d; stroke: #201f3d; stroke-width: 0.1"/>
     <use xlink:href="#mf367a96d53" x="45.386684" y="122.745097" style="fill: #201f3d; stroke: #201f3d; stroke-width: 0.1"/>
     <use xlink:href="#mf367a96d53" x="67.900654" y="100.661028" style="fill: #201f3d; stroke: #201f3d; stroke-width: 0.1"/>
     <use xlink:href="#mf367a96d53" x="38.557653" y="162.898088" style="fill: #201f3d; stroke: #201f3d; stroke-width: 0.1"/>
     <use xlink:href="#mf367a96d53" x="89.421714" y="74.014714" style="fill: #201f3d; stroke: #201f3d; stroke-width: 0.1"/>
     <use xlink:href="#mf367a96d53" x="78.575998" y="77.443178" style="fill: #201f3d; stroke: #201f3d; stroke-width: 0.1"/>
     <use xlink:href="#mf367a96d53" x="91.258171" y="147.161406" style="fill: #201f3d; stroke: #201f3d; stroke-width: 0.1"/>
     <use xlink:href="#mf367a96d53" x="62.892612" y="59.0599" style="fill: #201f3d; stroke: #201f3d; stroke-width: 0.1"/>
     <use xlink:href="#mf367a96d53" x="92.368723" y="76.78235" style="fill: #201f3d; stroke: #201f3d; stroke-width: 0.1"/>
     <use xlink:href="#mf367a96d53" x="67.997737" y="101.9429" style="fill: #201f3d; stroke: #201f3d; stroke-width: 0.1"/>
     <use xlink:href="#mf367a96d53" x="144.903756" y="94.746118" style="fill: #201f3d; stroke: #201f3d; stroke-width: 0.1"/>
     <use xlink:href="#mf367a96d53" x="143.732518" y="92.584468" style="fill: #201f3d; stroke: #201f3d; stroke-width: 0.1"/>
     <use xlink:href="#mf367a96d53" x="144.198664" y="91.185294" style="fill: #201f3d; stroke: #201f3d; stroke-width: 0.1"/>
     <use xlink:href="#mf367a96d53" x="79.137494" y="78.847029" style="fill: #201f3d; stroke: #201f3d; stroke-width: 0.1"/>
     <use xlink:href="#mf367a96d53" x="70.762447" y="97.190032" style="fill: #201f3d; stroke: #201f3d; stroke-width: 0.1"/>
     <use xlink:href="#mf367a96d53" x="146.734643" y="95.32724" style="fill: #201f3d; stroke: #201f3d; stroke-width: 0.1"/>
     <use xlink:href="#mf367a96d53" x="80.155239" y="77.541381" style="fill: #201f3d; stroke: #201f3d; stroke-width: 0.1"/>
     <use xlink:href="#mf367a96d53" x="78.293253" y="79.868843" style="fill: #201f3d; stroke: #201f3d; stroke-width: 0.1"/>
     <use xlink:href="#mf367a96d53" x="93.136243" y="64.046974" style="fill: #201f3d; stroke: #201f3d; stroke-width: 0.1"/>
     <use xlink:href="#mf367a96d53" x="89.401809" y="64.694655" style="fill: #201f3d; stroke: #201f3d; stroke-width: 0.1"/>
     <use xlink:href="#mf367a96d53" x="77.291655" y="125.271422" style="fill: #201f3d; stroke: #201f3d; stroke-width: 0.1"/>
     <use xlink:href="#mf367a96d53" x="66.948297" y="75.958126" style="fill: #201f3d; stroke: #201f3d; stroke-width: 0.1"/>
     <use xlink:href="#mf367a96d53" x="81.12958" y="82.301389" style="fill: #201f3d; stroke: #201f3d; stroke-width: 0.1"/>
     <use xlink:href="#mf367a96d53" x="79.557022" y="66.318053" style="fill: #201f3d; stroke: #201f3d; stroke-width: 0.1"/>
     <use xlink:href="#mf367a96d53" x="69.292518" y="111.273546" style="fill: #201f3d; stroke: #201f3d; stroke-width: 0.1"/>
     <use xlink:href="#mf367a96d53" x="88.077999" y="61.655604" style="fill: #201f3d; stroke: #201f3d; stroke-width: 0.1"/>
     <use xlink:href="#mf367a96d53" x="82.771369" y="81.148594" style="fill: #201f3d; stroke: #201f3d; stroke-width: 0.1"/>
     <use xlink:href="#mf367a96d53" x="89.782542" y="82.856503" style="fill: #201f3d; stroke: #201f3d; stroke-width: 0.1"/>
     <use xlink:href="#mf367a96d53" x="67.415105" y="98.525385" style="fill: #201f3d; stroke: #201f3d; stroke-width: 0.1"/>
     <use xlink:href="#mf367a96d53" x="80.988535" y="80.872366" style="fill: #201f3d; stroke: #201f3d; stroke-width: 0.1"/>
     <use xlink:href="#mf367a96d53" x="145.3215" y="92.904365" style="fill: #201f3d; stroke: #201f3d; stroke-width: 0.1"/>
     <use xlink:href="#mf367a96d53" x="74.29631" y="110.175802" style="fill: #201f3d; stroke: #201f3d; stroke-width: 0.1"/>
     <use xlink:href="#mf367a96d53" x="81.908766" y="73.282032" style="fill: #201f3d; stroke: #201f3d; stroke-width: 0.1"/>
     <use xlink:href="#mf367a96d53" x="71.113002" y="112.501795" style="fill: #201f3d; stroke: #201f3d; stroke-width: 0.1"/>
     <use xlink:href="#mf367a96d53" x="100.039587" y="69.946205" style="fill: #201f3d; stroke: #201f3d; stroke-width: 0.1"/>
     <use xlink:href="#mf367a96d53" x="97.81761" y="68.589892" style="fill: #201f3d; stroke: #201f3d; stroke-width: 0.1"/>
     <use xlink:href="#mf367a96d53" x="83.849217" y="82.628864" style="fill: #201f3d; stroke: #201f3d; stroke-width: 0.1"/>
     <use xlink:href="#mf367a96d53" x="81.025268" y="75.340449" style="fill: #201f3d; stroke: #201f3d; stroke-width: 0.1"/>
     <use xlink:href="#mf367a96d53" x="85.573725" y="75.578859" style="fill: #201f3d; stroke: #201f3d; stroke-width: 0.1"/>
     <use xlink:href="#mf367a96d53" x="120.138733" y="79.763499" style="fill: #201f3d; stroke: #201f3d; stroke-width: 0.1"/>
     <use xlink:href="#mf367a96d53" x="79.073044" y="74.995686" style="fill: #201f3d; stroke: #201f3d; stroke-width: 0.1"/>
     <use xlink:href="#mf367a96d53" x="72.826802" y="113.559158" style="fill: #201f3d; stroke: #201f3d; stroke-width: 0.1"/>
     <use xlink:href="#mf367a96d53" x="90.317665" y="66.41472" style="fill: #201f3d; stroke: #201f3d; stroke-width: 0.1"/>
     <use xlink:href="#mf367a96d53" x="83.677127" y="76.992138" style="fill: #201f3d; stroke: #201f3d; stroke-width: 0.1"/>
     <use xlink:href="#mf367a96d53" x="69.830662" y="101.230428" style="fill: #201f3d; stroke: #201f3d; stroke-width: 0.1"/>
     <use xlink:href="#mf367a96d53" x="67.741627" y="63.182671" style="fill: #201f3d; stroke: #201f3d; stroke-width: 0.1"/>
     <use xlink:href="#mf367a96d53" x="91.326668" y="75.600129" style="fill: #201f3d; stroke: #201f3d; stroke-width: 0.1"/>
     <use xlink:href="#mf367a96d53" x="120.138349" y="131.819762" style="fill: #201f3d; stroke: #201f3d; stroke-width: 0.1"/>
     <use xlink:href="#mf367a96d53" x="73.664305" y="77.855158" style="fill: #201f3d; stroke: #201f3d; stroke-width: 0.1"/>
     <use xlink:href="#mf367a96d53" x="82.437109" y="64.555505" style="fill: #201f3d; stroke: #201f3d; stroke-width: 0.1"/>
     <use xlink:href="#mf367a96d53" x="92.54342" y="77.910468" style="fill: #201f3d; stroke: #201f3d; stroke-width: 0.1"/>
     <use xlink:href="#mf367a96d53" x="145.108589" y="95.907082" style="fill: #201f3d; stroke: #201f3d; stroke-width: 0.1"/>
     <use xlink:href="#mf367a96d53" x="81.658998" y="78.060167" style="fill: #201f3d; stroke: #201f3d; stroke-width: 0.1"/>
     <use xlink:href="#mf367a96d53" x="69.083273" y="108.885245" style="fill: #201f3d; stroke: #201f3d; stroke-width: 0.1"/>
     <use xlink:href="#mf367a96d53" x="87.121497" y="50.504976" style="fill: #201f3d; stroke: #201f3d; stroke-width: 0.1"/>
     <use xlink:href="#mf367a96d53" x="127.574376" y="142.8717" style="fill: #201f3d; stroke: #201f3d; stroke-width: 0.1"/>
     <use xlink:href="#mf367a96d53" x="101.904646" y="70.781338" style="fill: #201f3d; stroke: #201f3d; stroke-width: 0.1"/>
     <use xlink:href="#mf367a96d53" x="120.205207" y="132.923045" style="fill: #201f3d; stroke: #201f3d; stroke-width: 0.1"/>
     <use xlink:href="#mf367a96d53" x="88.116052" y="80.306602" style="fill: #201f3d; stroke: #201f3d; stroke-width: 0.1"/>
     <use xlink:href="#mf367a96d53" x="90.801242" y="69.737855" style="fill: #201f3d; stroke: #201f3d; stroke-width: 0.1"/>
     <use xlink:href="#mf367a96d53" x="76.124293" y="60.564103" style="fill: #201f3d; stroke: #201f3d; stroke-width: 0.1"/>
     <use xlink:href="#mf367a96d53" x="100.198293" y="63.466775" style="fill: #201f3d; stroke: #201f3d; stroke-width: 0.1"/>
     <use xlink:href="#mf367a96d53" x="85.325582" y="79.003861" style="fill: #201f3d; stroke: #201f3d; stroke-width: 0.1"/>
     <use xlink:href="#mf367a96d53" x="100.552005" y="63.495016" style="fill: #201f3d; stroke: #201f3d; stroke-width: 0.1"/>
     <use xlink:href="#mf367a96d53" x="87.84001" y="73.961051" style="fill: #201f3d; stroke: #201f3d; stroke-width: 0.1"/>
     <use xlink:href="#mf367a96d53" x="145.301834" y="91.70954" style="fill: #201f3d; stroke: #201f3d; stroke-width: 0.1"/>
     <use xlink:href="#mf367a96d53" x="73.586516" y="165.108124" style="fill: #201f3d; stroke: #201f3d; stroke-width: 0.1"/>
     <use xlink:href="#mf367a96d53" x="76.59938" y="165.37525" style="fill: #201f3d; stroke: #201f3d; stroke-width: 0.1"/>
     <use xlink:href="#mf367a96d53" x="105.104808" y="59.934953" style="fill: #201f3d; stroke: #201f3d; stroke-width: 0.1"/>
     <use xlink:href="#mf367a96d53" x="146.676018" y="92.6501" style="fill: #201f3d; stroke: #201f3d; stroke-width: 0.1"/>
     <use xlink:href="#mf367a96d53" x="25.60245" y="151.482408" style="fill: #201f3d; stroke: #201f3d; stroke-width: 0.1"/>
     <use xlink:href="#mf367a96d53" x="44.930486" y="123.700503" style="fill: #201f3d; stroke: #201f3d; stroke-width: 0.1"/>
     <use xlink:href="#mf367a96d53" x="90.020785" y="62.120175" style="fill: #201f3d; stroke: #201f3d; stroke-width: 0.1"/>
     <use xlink:href="#mf367a96d53" x="120.328145" y="134.066532" style="fill: #201f3d; stroke: #201f3d; stroke-width: 0.1"/>
     <use xlink:href="#mf367a96d53" x="95.110673" y="64.487144" style="fill: #201f3d; stroke: #201f3d; stroke-width: 0.1"/>
     <use xlink:href="#mf367a96d53" x="85.671974" y="81.66884" style="fill: #201f3d; stroke: #201f3d; stroke-width: 0.1"/>
    </g>
   </g>
   <g id="text_1">
    <!-- Red de nodos corruptos (K) de Mxico -->
    <g transform="translate(14.373579 10.132206) scale(0.096 -0.096)">
     <defs>
      <path id="NimbusRomNo9L-Regu-52" d="M 4218 121 
C 3974 140 3846 205 3661 424 
L 2342 2061 
C 2771 2143 2963 2219 3174 2388 
C 3379 2553 3501 2818 3501 3113 
C 3501 3385 3418 3618 3251 3801 
C 3008 4059 2477 4224 1875 4224 
L 109 4224 
L 109 4102 
C 589 4051 653 3981 653 3528 
L 653 765 
C 653 236 589 159 109 121 
L 109 0 
L 1882 0 
L 1882 134 
C 1389 134 1306 219 1306 692 
L 1306 1984 
L 1664 1984 
L 3187 0 
L 4218 0 
L 4218 121 
z
M 1306 3762 
C 1306 3937 1376 3987 1632 3987 
C 2432 3987 2803 3716 2803 3123 
C 2803 2807 2669 2542 2438 2423 
C 2144 2258 1920 2221 1306 2221 
L 1306 3762 
z
" transform="scale(0.015625)"/>
      <path id="NimbusRomNo9L-Regu-65" d="M 2611 1053 
C 2304 564 2029 378 1619 378 
C 1254 378 979 564 794 930 
C 678 1174 634 1386 621 1779 
L 2592 1779 
C 2541 2193 2477 2377 2317 2581 
C 2125 2811 1830 2944 1498 2944 
C 1178 2944 877 2829 634 2611 
C 333 2349 160 1894 160 1370 
C 160 486 621 -64 1357 -64 
C 1965 -64 2445 315 2714 1008 
L 2611 1053 
z
M 634 1984 
C 704 2479 922 2714 1312 2714 
C 1702 2714 1856 2535 1939 1984 
L 634 1984 
z
" transform="scale(0.015625)"/>
      <path id="NimbusRomNo9L-Regu-64" d="M 2202 -64 
L 3142 269 
L 3142 365 
C 3027 365 3014 365 2995 365 
C 2765 365 2714 435 2714 731 
L 2714 4364 
L 2682 4377 
C 2374 4268 2150 4204 1741 4096 
L 1741 3994 
C 1792 4000 1830 4000 1882 4000 
C 2118 4000 2176 3936 2176 3672 
L 2176 2669 
C 1933 2874 1760 2944 1504 2944 
C 768 2944 173 2221 173 1312 
C 173 493 653 -64 1357 -64 
C 1715 -64 1958 64 2176 365 
L 2176 -45 
L 2202 -64 
z
M 2176 653 
C 2176 608 2131 531 2067 461 
C 1952 333 1792 269 1606 269 
C 1075 269 723 781 723 1568 
C 723 2291 1037 2765 1523 2765 
C 1862 2765 2176 2464 2176 2125 
L 2176 653 
z
" transform="scale(0.015625)"/>
      <path id="NimbusRomNo9L-Regu-6e" d="M 102 2579 
C 141 2598 205 2605 275 2605 
C 454 2605 512 2509 512 2195 
L 512 608 
C 512 243 442 154 115 128 
L 115 32 
L 1472 32 
L 1472 128 
C 1146 154 1050 230 1050 461 
L 1050 2259 
C 1357 2547 1498 2624 1709 2624 
C 2022 2624 2176 2426 2176 2003 
L 2176 666 
C 2176 262 2093 154 1773 128 
L 1773 32 
L 3104 32 
L 3104 128 
C 2790 160 2714 237 2714 550 
L 2714 2016 
C 2714 2618 2432 2976 1958 2976 
C 1664 2976 1466 2867 1030 2458 
L 1030 2963 
L 986 2976 
C 672 2861 454 2790 102 2688 
L 102 2579 
z
" transform="scale(0.015625)"/>
      <path id="NimbusRomNo9L-Regu-6f" d="M 1600 2944 
C 768 2944 186 2330 186 1446 
C 186 582 781 -64 1587 -64 
C 2394 -64 3008 614 3008 1498 
C 3008 2336 2419 2944 1600 2944 
z
M 1517 2765 
C 2054 2765 2432 2150 2432 1274 
C 2432 550 2144 115 1664 115 
C 1414 115 1178 269 1043 525 
C 864 858 762 1306 762 1760 
C 762 2368 1062 2765 1517 2765 
z
" transform="scale(0.015625)"/>
      <path id="NimbusRomNo9L-Regu-73" d="M 2016 2010 
L 1990 2880 
L 1920 2880 
L 1907 2867 
C 1850 2822 1843 2816 1818 2816 
C 1779 2816 1715 2829 1645 2861 
C 1504 2915 1363 2944 1197 2944 
C 691 2944 326 2616 326 2154 
C 326 1796 531 1539 1075 1231 
L 1446 1020 
C 1670 892 1779 737 1779 539 
C 1779 256 1574 77 1248 77 
C 1030 77 832 159 710 298 
C 576 455 518 600 435 960 
L 333 960 
L 333 -39 
L 416 -39 
C 461 33 486 48 563 48 
C 621 48 710 35 858 -2 
C 1037 -39 1210 -64 1325 -64 
C 1818 -64 2227 308 2227 757 
C 2227 1077 2074 1289 1690 1520 
L 998 1930 
C 819 2033 723 2194 723 2367 
C 723 2624 922 2803 1216 2803 
C 1581 2803 1773 2583 1920 2010 
L 2016 2010 
z
" transform="scale(0.015625)"/>
      <path id="NimbusRomNo9L-Regu-63" d="M 2547 998 
C 2240 550 2010 397 1645 397 
C 1062 397 653 909 653 1645 
C 653 2304 1005 2758 1523 2758 
C 1754 2758 1837 2688 1901 2451 
L 1939 2310 
C 1990 2131 2106 2016 2240 2016 
C 2406 2016 2547 2138 2547 2285 
C 2547 2643 2099 2944 1562 2944 
C 1248 2944 922 2816 659 2586 
C 339 2304 160 1869 160 1363 
C 160 531 666 -64 1376 -64 
C 1664 -64 1920 38 2150 237 
C 2323 390 2445 563 2637 941 
L 2547 998 
z
" transform="scale(0.015625)"/>
      <path id="NimbusRomNo9L-Regu-72" d="M 45 2496 
C 134 2515 192 2522 269 2522 
C 429 2522 486 2419 486 2138 
L 486 538 
C 486 218 442 173 32 96 
L 32 0 
L 1568 0 
L 1568 102 
C 1133 102 1024 199 1024 565 
L 1024 2013 
C 1024 2219 1299 2541 1472 2541 
C 1510 2541 1568 2509 1638 2445 
C 1741 2355 1811 2317 1894 2317 
C 2048 2317 2144 2426 2144 2605 
C 2144 2816 2010 2944 1792 2944 
C 1523 2944 1338 2797 1024 2343 
L 1024 2931 
L 992 2944 
C 653 2803 422 2721 45 2599 
L 45 2496 
z
" transform="scale(0.015625)"/>
      <path id="NimbusRomNo9L-Regu-75" d="M 3066 320 
L 3034 320 
C 2739 320 2669 390 2669 685 
L 2669 2880 
L 1658 2880 
L 1658 2758 
C 2054 2758 2131 2694 2131 2375 
L 2131 875 
C 2131 697 2099 607 2010 537 
C 1837 397 1638 320 1446 320 
C 1197 320 992 537 992 805 
L 992 2880 
L 58 2880 
L 58 2778 
C 365 2778 454 2682 454 2387 
L 454 770 
C 454 263 762 -64 1229 -64 
C 1466 -64 1715 38 1888 211 
L 2163 486 
L 2163 -45 
L 2189 -58 
C 2509 70 2739 141 3066 230 
L 3066 320 
z
" transform="scale(0.015625)"/>
      <path id="NimbusRomNo9L-Regu-70" d="M 58 2516 
C 115 2522 160 2522 218 2522 
C 435 2522 480 2458 480 2155 
L 480 -855 
C 480 -1189 410 -1261 32 -1299 
L 32 -1408 
L 1581 -1408 
L 1581 -1293 
C 1101 -1293 1018 -1222 1018 -816 
L 1018 199 
C 1242 -13 1395 -77 1664 -77 
C 2419 -77 3008 643 3008 1575 
C 3008 2372 2560 2944 1939 2944 
C 1581 2944 1299 2784 1018 2438 
L 1018 2931 
L 979 2944 
C 634 2810 410 2726 58 2618 
L 58 2516 
z
M 1018 2136 
C 1018 2329 1376 2560 1670 2560 
C 2144 2560 2458 2071 2458 1324 
C 2458 611 2144 128 1683 128 
C 1382 128 1018 359 1018 552 
L 1018 2136 
z
" transform="scale(0.015625)"/>
      <path id="NimbusRomNo9L-Regu-74" d="M 1632 2880 
L 986 2880 
L 986 3622 
C 986 3686 979 3706 941 3706 
C 896 3648 858 3590 813 3526 
C 570 3174 294 2867 192 2841 
C 122 2794 83 2748 83 2715 
C 83 2695 90 2682 109 2682 
L 448 2682 
L 448 751 
C 448 212 640 -64 1018 -64 
C 1331 -64 1574 90 1786 423 
L 1702 493 
C 1568 333 1459 269 1318 269 
C 1082 269 986 443 986 847 
L 986 2682 
L 1632 2682 
L 1632 2880 
z
" transform="scale(0.015625)"/>
      <path id="NimbusRomNo9L-Regu-28" d="M 1888 4326 
C 1414 4019 1222 3853 986 3558 
C 531 3002 307 2362 307 1613 
C 307 800 544 173 1107 -480 
C 1370 -787 1536 -928 1869 -1133 
L 1946 -1030 
C 1434 -627 1254 -403 1082 77 
C 928 506 858 992 858 1632 
C 858 2304 941 2829 1114 3226 
C 1293 3622 1485 3853 1946 4224 
L 1888 4326 
z
" transform="scale(0.015625)"/>
      <path id="NimbusRomNo9L-Regu-4b" d="M 2643 4109 
C 2720 4096 2784 4096 2810 4096 
C 3002 4096 3078 4045 3078 3917 
C 3078 3775 2931 3583 2579 3257 
L 1446 2224 
L 1446 3534 
C 1446 4000 1517 4071 2035 4109 
L 2035 4231 
L 218 4231 
L 218 4109 
C 717 4071 794 3988 794 3531 
L 794 750 
C 794 217 723 134 218 134 
L 218 0 
L 2022 0 
L 2022 134 
C 1523 134 1446 211 1446 683 
L 1446 1891 
L 1613 2026 
L 2291 1355 
C 2778 876 3123 422 3123 269 
C 3123 179 3034 134 2854 134 
C 2822 134 2752 134 2675 121 
L 2675 0 
L 4627 0 
L 4627 134 
C 4294 134 4205 198 3622 816 
L 2131 2409 
L 3347 3611 
C 3782 4026 3885 4077 4320 4109 
L 4320 4231 
L 2643 4231 
L 2643 4109 
z
" transform="scale(0.015625)"/>
      <path id="NimbusRomNo9L-Regu-29" d="M 243 -1133 
C 717 -826 909 -659 1146 -365 
C 1600 192 1824 832 1824 1581 
C 1824 2400 1587 3021 1024 3674 
C 762 3981 595 4122 262 4326 
L 186 4224 
C 698 3821 870 3597 1050 3117 
C 1203 2688 1274 2202 1274 1562 
C 1274 896 1190 365 1018 -26 
C 838 -429 646 -659 186 -1030 
L 243 -1133 
z
" transform="scale(0.015625)"/>
      <path id="NimbusRomNo9L-Regu-4d" d="M 4314 3667 
L 4314 751 
C 4314 217 4237 134 3731 134 
L 3731 0 
L 5523 0 
L 5523 134 
C 5056 134 4966 223 4966 681 
L 4966 3536 
C 4966 3993 5050 4077 5523 4115 
L 5523 4237 
L 4250 4237 
L 2835 1004 
L 1357 4237 
L 90 4237 
L 90 4096 
C 614 4096 698 4019 698 3550 
L 698 943 
C 698 282 608 159 77 121 
L 77 0 
L 1581 0 
L 1581 134 
C 1088 134 979 282 979 931 
L 979 3520 
L 2586 0 
L 2675 0 
L 4314 3667 
z
" transform="scale(0.015625)"/>
      <path id="NimbusRomNo9L-Regu-b4" d="M 851 3264 
L 1837 3882 
C 1971 3964 2029 4047 2029 4148 
C 2029 4275 1946 4352 1805 4352 
C 1709 4352 1651 4320 1536 4206 
L 595 3264 
L 851 3264 
z
" transform="scale(0.015625)"/>
      <path id="NimbusRomNo9L-Regu-78" d="M 1779 0 
L 3066 0 
L 3066 96 
C 2867 96 2739 198 2541 480 
L 1722 1735 
L 2253 2502 
C 2374 2675 2566 2778 2771 2778 
L 2771 2880 
L 1760 2880 
L 1760 2778 
C 1952 2778 2016 2740 2016 2649 
C 2016 2571 1939 2430 1779 2229 
C 1747 2191 1670 2075 1587 1946 
L 1498 2074 
C 1318 2342 1203 2560 1203 2643 
C 1203 2733 1286 2778 1478 2778 
L 1478 2880 
L 154 2880 
L 154 2778 
L 211 2778 
C 403 2778 506 2695 704 2396 
L 1306 1479 
L 576 422 
C 384 160 320 115 109 96 
L 109 0 
L 1037 0 
L 1037 96 
C 858 96 781 128 781 211 
C 781 250 826 346 909 474 
L 1414 1261 
L 1997 365 
C 2022 326 2035 288 2035 250 
C 2035 123 1990 96 1779 96 
L 1779 0 
z
" transform="scale(0.015625)"/>
      <path id="NimbusRomNo9L-Regu-69" d="M 1120 2929 
L 128 2579 
L 128 2484 
L 179 2490 
C 256 2502 339 2509 397 2509 
C 550 2509 608 2406 608 2125 
L 608 640 
C 608 179 544 109 102 109 
L 102 0 
L 1619 0 
L 1619 96 
C 1197 128 1146 191 1146 650 
L 1146 2910 
L 1120 2929 
z
M 819 4352 
C 646 4352 499 4205 499 4026 
C 499 3847 640 3699 819 3699 
C 1005 3699 1152 3840 1152 4026 
C 1152 4205 1005 4352 819 4352 
z
" transform="scale(0.015625)"/>
     </defs>
     <use xlink:href="#NimbusRomNo9L-Regu-52" transform="scale(0.996264)"/>
     <use xlink:href="#NimbusRomNo9L-Regu-65" transform="translate(66.450031 0) scale(0.996264)"/>
     <use xlink:href="#NimbusRomNo9L-Regu-64" transform="translate(110.6836 0) scale(0.996264)"/>
     <use xlink:href="#NimbusRomNo9L-Regu-64" transform="translate(185.403401 0) scale(0.996264)"/>
     <use xlink:href="#NimbusRomNo9L-Regu-65" transform="translate(235.216601 0) scale(0.996264)"/>
     <use xlink:href="#NimbusRomNo9L-Regu-6e" transform="translate(304.35677 0) scale(0.996264)"/>
     <use xlink:href="#NimbusRomNo9L-Regu-6f" transform="translate(354.169971 0) scale(0.996264)"/>
     <use xlink:href="#NimbusRomNo9L-Regu-64" transform="translate(403.983171 0) scale(0.996264)"/>
     <use xlink:href="#NimbusRomNo9L-Regu-6f" transform="translate(453.796372 0) scale(0.996264)"/>
     <use xlink:href="#NimbusRomNo9L-Regu-73" transform="translate(503.609572 0) scale(0.996264)"/>
     <use xlink:href="#NimbusRomNo9L-Regu-63" transform="translate(567.269878 0) scale(0.996264)"/>
     <use xlink:href="#NimbusRomNo9L-Regu-6f" transform="translate(611.503447 0) scale(0.996264)"/>
     <use xlink:href="#NimbusRomNo9L-Regu-72" transform="translate(661.316648 0) scale(0.996264)"/>
     <use xlink:href="#NimbusRomNo9L-Regu-72" transform="translate(694.491877 0) scale(0.996264)"/>
     <use xlink:href="#NimbusRomNo9L-Regu-75" transform="translate(727.667107 0) scale(0.996264)"/>
     <use xlink:href="#NimbusRomNo9L-Regu-70" transform="translate(777.480308 0) scale(0.996264)"/>
     <use xlink:href="#NimbusRomNo9L-Regu-74" transform="translate(827.293508 0) scale(0.996264)"/>
     <use xlink:href="#NimbusRomNo9L-Regu-6f" transform="translate(854.988678 0) scale(0.996264)"/>
     <use xlink:href="#NimbusRomNo9L-Regu-73" transform="translate(904.801878 0) scale(0.996264)"/>
     <use xlink:href="#NimbusRomNo9L-Regu-28" transform="translate(968.462185 0) scale(0.996264)"/>
     <use xlink:href="#NimbusRomNo9L-Regu-4b" transform="translate(1001.637414 0) scale(0.996264)"/>
     <use xlink:href="#NimbusRomNo9L-Regu-29" transform="translate(1073.567399 0) scale(0.996264)"/>
     <use xlink:href="#NimbusRomNo9L-Regu-64" transform="translate(1131.649229 0) scale(0.996264)"/>
     <use xlink:href="#NimbusRomNo9L-Regu-65" transform="translate(1181.46243 0) scale(0.996264)"/>
     <use xlink:href="#NimbusRomNo9L-Regu-4d" transform="translate(1250.602599 0) scale(0.996264)"/>
     <use xlink:href="#NimbusRomNo9L-Regu-b4" transform="translate(1344.698682 0.498056) scale(0.996264)"/>
     <use xlink:href="#NimbusRomNo9L-Regu-65" transform="translate(1339.169505 0) scale(0.996264)"/>
     <use xlink:href="#NimbusRomNo9L-Regu-78" transform="translate(1383.403074 0) scale(0.996264)"/>
     <use xlink:href="#NimbusRomNo9L-Regu-69" transform="translate(1433.216275 0) scale(0.996264)"/>
     <use xlink:href="#NimbusRomNo9L-Regu-63" transform="translate(1460.911444 0) scale(0.996264)"/>
     <use xlink:href="#NimbusRomNo9L-Regu-6f" transform="translate(1505.145013 0) scale(0.996264)"/>
    </g>
    <!-- Barabsi-Albert_(m=1) - H: 0.0\%  -->
    <g transform="translate(24.832086 19.984025) scale(0.096 -0.096)">
     <defs>
      <path id="NimbusRomNo9L-Regu-42" d="M 109 4237 
L 109 4096 
C 646 4096 723 4026 723 3548 
L 723 689 
C 723 212 640 128 109 128 
L 109 0 
L 2246 0 
C 2746 0 3200 136 3437 356 
C 3667 564 3795 855 3795 1165 
C 3795 1451 3680 1710 3482 1897 
C 3290 2072 3117 2150 2701 2253 
C 3034 2335 3168 2398 3322 2531 
C 3482 2671 3578 2903 3578 3163 
C 3578 3871 3008 4237 1901 4237 
L 109 4237 
z
M 1376 2112 
C 1997 2112 2291 2080 2522 1982 
C 2886 1827 3059 1568 3059 1159 
C 3059 809 2925 555 2669 406 
C 2464 290 2202 238 1779 238 
C 1466 238 1376 296 1376 504 
L 1376 2112 
z
M 1376 2368 
L 1376 3812 
C 1376 3944 1421 4001 1517 4001 
L 1798 4001 
C 2534 4001 2925 3699 2925 3137 
C 2925 2646 2586 2368 1984 2368 
L 1376 2368 
z
" transform="scale(0.015625)"/>
      <path id="NimbusRomNo9L-Regu-61" d="M 2829 423 
C 2720 333 2643 301 2547 301 
C 2400 301 2355 390 2355 672 
L 2355 1920 
C 2355 2253 2323 2438 2227 2592 
C 2086 2822 1811 2944 1434 2944 
C 832 2944 358 2630 358 2227 
C 358 2080 486 1952 634 1952 
C 787 1952 922 2080 922 2221 
C 922 2246 915 2278 909 2323 
C 896 2381 890 2432 890 2477 
C 890 2650 1094 2790 1350 2790 
C 1664 2790 1837 2605 1837 2259 
L 1837 1869 
C 851 1472 742 1421 467 1178 
C 326 1050 237 832 237 621 
C 237 218 518 -64 909 -64 
C 1190 -64 1453 70 1843 403 
C 1875 70 1990 -64 2253 -64 
C 2470 -64 2605 13 2829 256 
L 2829 423 
z
M 1837 783 
C 1837 584 1805 526 1670 449 
C 1517 359 1338 301 1203 301 
C 979 301 800 520 800 796 
L 800 822 
C 800 1201 1062 1433 1837 1715 
L 1837 783 
z
" transform="scale(0.015625)"/>
      <path id="NimbusRomNo9L-Regu-62" d="M 979 4364 
L 947 4377 
C 678 4281 506 4230 205 4147 
L 19 4096 
L 19 3994 
C 58 4000 83 4000 128 4000 
C 384 4000 442 3942 442 3673 
L 442 347 
C 442 147 986 -64 1498 -64 
C 2342 -64 2995 640 2995 1555 
C 2995 2342 2509 2944 1869 2944 
C 1478 2944 1107 2714 979 2400 
L 979 4364 
z
M 979 2061 
C 979 2310 1280 2541 1613 2541 
C 2112 2541 2432 2042 2432 1261 
C 2432 550 2125 141 1600 141 
C 1267 141 979 288 979 448 
L 979 2061 
z
" transform="scale(0.015625)"/>
      <path id="NimbusRomNo9L-Regu-2d" d="M 250 1619 
L 250 1216 
L 1824 1216 
L 1824 1619 
L 250 1619 
z
" transform="scale(0.015625)"/>
      <path id="NimbusRomNo9L-Regu-41" d="M 4518 128 
C 4230 128 4166 192 3942 667 
L 2349 4320 
L 2221 4320 
L 890 1168 
C 480 231 403 128 96 128 
L 96 0 
L 1363 0 
L 1363 128 
C 1056 128 928 212 928 393 
C 928 470 947 560 979 645 
L 1274 1401 
L 2950 1401 
L 3213 778 
C 3290 602 3334 434 3334 342 
C 3334 180 3226 128 2886 128 
L 2886 0 
L 4518 0 
L 4518 128 
z
M 1382 1664 
L 2118 3416 
L 2861 1664 
L 1382 1664 
z
" transform="scale(0.015625)"/>
      <path id="NimbusRomNo9L-Regu-6c" d="M 122 4000 
L 160 4000 
C 230 4000 307 4000 358 4000 
C 563 4000 627 3910 627 3610 
L 627 557 
C 627 211 538 128 134 96 
L 134 0 
L 1645 0 
L 1645 109 
C 1242 109 1165 173 1165 528 
L 1165 4371 
L 1139 4384 
C 806 4275 563 4211 122 4103 
L 122 4000 
z
" transform="scale(0.015625)"/>
      <path id="NimbusRomNo9L-Regu-6d" d="M 122 2547 
C 205 2566 256 2573 326 2573 
C 493 2573 550 2470 550 2162 
L 550 539 
C 550 192 461 96 102 96 
L 102 0 
L 1523 0 
L 1523 96 
C 1184 96 1088 166 1088 418 
L 1088 2234 
C 1088 2246 1139 2310 1184 2355 
C 1344 2502 1619 2611 1843 2611 
C 2125 2611 2266 2385 2266 1932 
L 2266 528 
C 2266 167 2195 96 1830 96 
L 1830 0 
L 3264 0 
L 3264 96 
C 2899 96 2803 205 2803 603 
L 2803 2221 
C 2995 2496 3206 2611 3501 2611 
C 3866 2611 3981 2438 3981 1907 
L 3981 557 
C 3981 192 3930 141 3558 96 
L 3558 0 
L 4960 0 
L 4960 96 
L 4794 115 
C 4602 115 4518 230 4518 480 
L 4518 1802 
C 4518 2559 4269 2944 3776 2944 
C 3405 2944 3078 2778 2733 2407 
C 2618 2771 2400 2944 2054 2944 
C 1773 2944 1594 2854 1062 2451 
L 1062 2931 
L 1018 2944 
C 691 2822 474 2752 122 2656 
L 122 2547 
z
" transform="scale(0.015625)"/>
      <path id="NimbusRomNo9L-Regu-3d" d="M 3418 2470 
L 192 2470 
L 192 2048 
L 3418 2048 
L 3418 2470 
z
M 3418 1190 
L 192 1190 
L 192 768 
L 3418 768 
L 3418 1190 
z
" transform="scale(0.015625)"/>
      <path id="NimbusRomNo9L-Regu-31" d="M 1862 4339 
L 710 3757 
L 710 3667 
C 787 3699 858 3725 883 3738 
C 998 3783 1107 3808 1171 3808 
C 1306 3808 1363 3711 1363 3505 
L 1363 592 
C 1363 379 1312 232 1210 173 
C 1114 116 1024 96 755 96 
L 755 0 
L 2522 0 
L 2522 96 
C 2016 96 1914 160 1914 470 
L 1914 4327 
L 1862 4339 
z
" transform="scale(0.015625)"/>
      <path id="NimbusRomNo9L-Regu-48" d="M 1338 2304 
L 1338 3533 
C 1338 3990 1408 4059 1901 4104 
L 1901 4224 
L 122 4224 
L 122 4104 
C 614 4059 685 3989 685 3527 
L 685 749 
C 685 210 621 134 122 134 
L 122 0 
L 1901 0 
L 1901 121 
C 1421 159 1338 242 1338 699 
L 1338 2022 
L 3277 2022 
L 3277 757 
C 3277 211 3213 134 2714 134 
L 2714 0 
L 4493 0 
L 4493 121 
C 4013 159 3930 242 3930 696 
L 3930 3529 
C 3930 3989 4000 4059 4493 4104 
L 4493 4224 
L 2714 4224 
L 2714 4104 
C 3206 4059 3277 3990 3277 3533 
L 3277 2304 
L 1338 2304 
z
" transform="scale(0.015625)"/>
      <path id="NimbusRomNo9L-Regu-3a" d="M 870 2944 
C 678 2944 518 2777 518 2579 
C 518 2393 678 2233 864 2233 
C 1062 2233 1229 2393 1229 2579 
C 1229 2777 1062 2944 870 2944 
z
M 870 646 
C 678 646 518 480 518 281 
C 518 96 678 -64 864 -64 
C 1062 -64 1229 96 1229 281 
C 1229 480 1062 646 870 646 
z
" transform="scale(0.015625)"/>
      <path id="NimbusRomNo9L-Regu-30" d="M 1626 4352 
C 1274 4352 1005 4244 768 4020 
C 397 3661 154 2925 154 2176 
C 154 1479 365 730 666 372 
C 902 90 1229 -64 1600 -64 
C 1926 -64 2202 45 2432 269 
C 2803 621 3046 1364 3046 2138 
C 3046 3450 2464 4352 1626 4352 
z
M 1606 4186 
C 2144 4186 2432 3463 2432 2125 
C 2432 788 2150 103 1600 103 
C 1050 103 768 788 768 2119 
C 768 3476 1056 4186 1606 4186 
z
" transform="scale(0.015625)"/>
      <path id="NimbusRomNo9L-Regu-2e" d="M 800 646 
C 608 646 448 480 448 281 
C 448 96 608 -64 794 -64 
C 992 -64 1158 96 1158 281 
C 1158 480 992 646 800 646 
z
" transform="scale(0.015625)"/>
      <path id="NimbusRomNo9L-Regu-25" d="M 4282 2368 
C 3558 2368 2874 1622 2874 824 
C 2874 325 3181 0 3642 0 
C 3930 0 4166 102 4390 325 
C 4730 670 4941 1187 4941 1686 
C 4941 2120 4698 2368 4282 2368 
z
M 4326 2164 
C 4570 2164 4774 1934 4774 1654 
C 4774 1290 4614 856 4371 556 
C 4166 301 3981 192 3750 192 
C 3520 192 3360 357 3360 601 
C 3360 939 3539 1462 3776 1793 
C 3949 2048 4128 2164 4326 2164 
z
M 4058 4320 
L 3808 4320 
C 3462 4008 3206 3904 2810 3904 
C 2554 3904 2406 3946 2253 4064 
C 2086 4194 2003 4224 1805 4224 
C 1075 4224 390 3468 390 2662 
C 390 2217 730 1856 1146 1856 
C 1421 1856 1709 1984 1920 2209 
C 2253 2549 2458 3056 2458 3526 
C 2458 3615 2445 3693 2413 3808 
C 2528 3763 2643 3744 2829 3744 
C 3110 3744 3277 3788 3533 3931 
L 1286 -96 
L 1594 -96 
L 4058 4320 
z
M 2240 3829 
C 2278 3702 2298 3607 2298 3518 
C 2298 2802 1773 2073 1254 2073 
C 1030 2073 877 2231 877 2460 
C 877 2726 1005 3157 1178 3474 
C 1363 3816 1606 4032 1805 4032 
C 1837 4032 1850 4025 1888 3993 
C 1978 3911 2054 3879 2240 3829 
z
" transform="scale(0.015625)"/>
     </defs>
     <use xlink:href="#NimbusRomNo9L-Regu-42" transform="scale(0.996264)"/>
     <use xlink:href="#NimbusRomNo9L-Regu-61" transform="translate(66.450031 0) scale(0.996264)"/>
     <use xlink:href="#NimbusRomNo9L-Regu-72" transform="translate(110.6836 0) scale(0.996264)"/>
     <use xlink:href="#NimbusRomNo9L-Regu-61" transform="translate(143.85883 0) scale(0.996264)"/>
     <use xlink:href="#NimbusRomNo9L-Regu-62" transform="translate(188.092398 0) scale(0.996264)"/>
     <use xlink:href="#NimbusRomNo9L-Regu-b4" transform="translate(243.434776 0.498056) scale(0.996264)"/>
     <use xlink:href="#NimbusRomNo9L-Regu-61" transform="translate(237.905599 0) scale(0.996264)"/>
     <use xlink:href="#NimbusRomNo9L-Regu-73" transform="translate(282.139167 0) scale(0.996264)"/>
     <use xlink:href="#NimbusRomNo9L-Regu-69" transform="translate(320.892874 0) scale(0.996264)"/>
     <use xlink:href="#NimbusRomNo9L-Regu-2d" transform="translate(348.588043 0) scale(0.996264)"/>
     <use xlink:href="#NimbusRomNo9L-Regu-41" transform="translate(381.763273 0) scale(0.996264)"/>
     <use xlink:href="#NimbusRomNo9L-Regu-6c" transform="translate(453.693258 0) scale(0.996264)"/>
     <use xlink:href="#NimbusRomNo9L-Regu-62" transform="translate(481.388427 0) scale(0.996264)"/>
     <use xlink:href="#NimbusRomNo9L-Regu-65" transform="translate(531.201628 0) scale(0.996264)"/>
     <use xlink:href="#NimbusRomNo9L-Regu-72" transform="translate(575.435197 0) scale(0.996264)"/>
     <use xlink:href="#NimbusRomNo9L-Regu-74" transform="translate(608.610426 0) scale(0.996264)"/>
     <use xlink:href="#NimbusRomNo9L-Regu-28" transform="translate(672.171161 0) scale(0.996264)"/>
     <use xlink:href="#NimbusRomNo9L-Regu-6d" transform="translate(705.346391 0) scale(0.996264)"/>
     <use xlink:href="#NimbusRomNo9L-Regu-3d" transform="translate(782.854761 0) scale(0.996264)"/>
     <use xlink:href="#NimbusRomNo9L-Regu-31" transform="translate(839.043011 0) scale(0.996264)"/>
     <use xlink:href="#NimbusRomNo9L-Regu-29" transform="translate(888.856212 0) scale(0.996264)"/>
     <use xlink:href="#NimbusRomNo9L-Regu-2d" transform="translate(946.938042 0) scale(0.996264)"/>
     <use xlink:href="#NimbusRomNo9L-Regu-48" transform="translate(1005.019872 0) scale(0.996264)"/>
     <use xlink:href="#NimbusRomNo9L-Regu-3a" transform="translate(1076.949857 0) scale(0.996264)"/>
     <use xlink:href="#NimbusRomNo9L-Regu-30" transform="translate(1129.551626 0) scale(0.996264)"/>
     <use xlink:href="#NimbusRomNo9L-Regu-2e" transform="translate(1179.364827 0) scale(0.996264)"/>
     <use xlink:href="#NimbusRomNo9L-Regu-30" transform="translate(1204.271427 0) scale(0.996264)"/>
     <use xlink:href="#NimbusRomNo9L-Regu-25" transform="translate(1254.084628 0) scale(0.996264)"/>
     <path d="M 642.282937 0 
L 672.171161 0 
L 672.171161 0.3985 
L 642.282937 0.3985 
L 642.282937 0 
z
"/>
    </g>
    <!-- Masa crtica: 75\% - Nodos perifericos (H,C) -->
    <g transform="translate(3.6 29.893216) scale(0.096 -0.096)">
     <defs>
      <path id="NimbusRomNo9L-Regu-11" d="M 1120 2950 
L 128 2598 
L 128 2502 
L 179 2508 
C 256 2521 339 2528 397 2528 
C 550 2528 608 2424 608 2141 
L 608 644 
C 608 180 544 109 102 109 
L 102 0 
L 1619 0 
L 1619 96 
C 1197 128 1146 192 1146 654 
L 1146 2931 
L 1120 2950 
z
" transform="scale(0.015625)"/>
      <path id="NimbusRomNo9L-Regu-37" d="M 2874 4250 
L 506 4250 
L 128 3310 
L 237 3258 
C 512 3693 627 3776 979 3776 
L 2368 3776 
L 1101 -32 
L 1517 -32 
L 2874 4148 
L 2874 4250 
z
" transform="scale(0.015625)"/>
      <path id="NimbusRomNo9L-Regu-35" d="M 1158 3776 
L 2413 3776 
C 2515 3776 2541 3789 2560 3834 
L 2803 4403 
L 2746 4448 
C 2650 4314 2586 4282 2451 4282 
L 1114 4282 
L 416 2759 
C 410 2746 410 2740 410 2727 
C 410 2695 435 2676 486 2676 
C 691 2676 947 2631 1210 2547 
C 1946 2309 2285 1910 2285 1274 
C 2285 656 1894 173 1395 173 
C 1267 173 1158 218 966 360 
C 762 508 614 572 480 572 
C 294 572 205 495 205 334 
C 205 90 506 -64 986 -64 
C 1523 -64 1984 110 2304 438 
C 2598 728 2733 1094 2733 1583 
C 2733 2046 2611 2342 2291 2663 
C 2010 2947 1645 3094 890 3229 
L 1158 3776 
z
" transform="scale(0.015625)"/>
      <path id="NimbusRomNo9L-Regu-4e" d="M 3917 -64 
L 3917 3287 
C 3917 3669 3981 3905 4102 3987 
C 4192 4051 4282 4077 4525 4102 
L 4525 4224 
L 3021 4224 
L 3021 4102 
C 3264 4083 3354 4057 3450 4000 
C 3578 3911 3635 3681 3635 3286 
L 3635 1136 
L 1171 4224 
L 77 4224 
L 77 4102 
C 352 4102 442 4051 698 3751 
L 698 938 
C 698 281 608 159 77 121 
L 77 0 
L 1581 0 
L 1581 134 
C 1088 134 979 281 979 928 
L 979 3439 
L 3808 -64 
L 3917 -64 
z
" transform="scale(0.015625)"/>
      <path id="NimbusRomNo9L-Regu-66" d="M 1978 2880 
L 1190 2880 
L 1190 3611 
C 1190 3978 1312 4173 1555 4173 
C 1690 4173 1779 4110 1894 3927 
C 1997 3763 2074 3700 2182 3700 
C 2330 3700 2451 3814 2451 3959 
C 2451 4188 2170 4352 1786 4352 
C 1389 4352 1050 4181 883 3891 
C 717 3613 666 3385 659 2880 
L 134 2880 
L 134 2675 
L 659 2675 
L 659 656 
C 659 185 589 109 128 109 
L 128 0 
L 1792 0 
L 1792 109 
C 1267 109 1197 180 1197 661 
L 1197 2675 
L 1978 2675 
L 1978 2880 
z
" transform="scale(0.015625)"/>
      <path id="NimbusRomNo9L-Regu-2c" d="M 531 -889 
C 960 -678 1248 -288 1248 96 
C 1248 416 1024 666 736 666 
C 512 666 358 519 358 301 
C 358 96 506 -25 736 -25 
C 774 -25 819 -19 858 -13 
C 902 0 902 0 909 0 
C 960 0 998 -38 998 -89 
C 998 -294 819 -531 474 -768 
L 531 -889 
z
" transform="scale(0.015625)"/>
      <path id="NimbusRomNo9L-Regu-43" d="M 3968 2906 
L 3910 4352 
L 3776 4352 
C 3738 4218 3635 4141 3507 4141 
C 3450 4141 3354 4160 3258 4199 
C 2944 4301 2624 4352 2323 4352 
C 1798 4352 1267 4154 870 3802 
C 422 3405 179 2810 179 2106 
C 179 1511 371 960 698 596 
C 1082 180 1670 -64 2304 -64 
C 3027 -64 3661 231 4051 749 
L 3936 864 
C 3462 410 3040 218 2509 218 
C 2106 218 1747 346 1472 589 
C 1120 903 922 1479 922 2189 
C 922 3348 1517 4096 2445 4096 
C 2810 4096 3142 3962 3398 3706 
C 3603 3501 3699 3322 3821 2906 
L 3968 2906 
z
" transform="scale(0.015625)"/>
     </defs>
     <use xlink:href="#NimbusRomNo9L-Regu-4d" transform="scale(0.996264)"/>
     <use xlink:href="#NimbusRomNo9L-Regu-61" transform="translate(88.566907 0) scale(0.996264)"/>
     <use xlink:href="#NimbusRomNo9L-Regu-73" transform="translate(132.800475 0) scale(0.996264)"/>
     <use xlink:href="#NimbusRomNo9L-Regu-61" transform="translate(171.554182 0) scale(0.996264)"/>
     <use xlink:href="#NimbusRomNo9L-Regu-63" transform="translate(240.694351 0) scale(0.996264)"/>
     <use xlink:href="#NimbusRomNo9L-Regu-72" transform="translate(284.927919 0) scale(0.996264)"/>
     <use xlink:href="#NimbusRomNo9L-Regu-b4" transform="translate(315.363119 0.498056) scale(0.996264)"/>
     <use xlink:href="#NimbusRomNo9L-Regu-11" transform="translate(318.103149 0) scale(0.996264)"/>
     <use xlink:href="#NimbusRomNo9L-Regu-74" transform="translate(345.798319 0) scale(0.996264)"/>
     <use xlink:href="#NimbusRomNo9L-Regu-69" transform="translate(373.493488 0) scale(0.996264)"/>
     <use xlink:href="#NimbusRomNo9L-Regu-63" transform="translate(401.188658 0) scale(0.996264)"/>
     <use xlink:href="#NimbusRomNo9L-Regu-61" transform="translate(445.422226 0) scale(0.996264)"/>
     <use xlink:href="#NimbusRomNo9L-Regu-3a" transform="translate(489.655795 0) scale(0.996264)"/>
     <use xlink:href="#NimbusRomNo9L-Regu-37" transform="translate(548.234997 0) scale(0.996264)"/>
     <use xlink:href="#NimbusRomNo9L-Regu-35" transform="translate(598.048198 0) scale(0.996264)"/>
     <use xlink:href="#NimbusRomNo9L-Regu-25" transform="translate(647.861398 0) scale(0.996264)"/>
     <use xlink:href="#NimbusRomNo9L-Regu-2d" transform="translate(755.756429 0) scale(0.996264)"/>
     <use xlink:href="#NimbusRomNo9L-Regu-4e" transform="translate(813.838259 0) scale(0.996264)"/>
     <use xlink:href="#NimbusRomNo9L-Regu-6f" transform="translate(885.768243 0) scale(0.996264)"/>
     <use xlink:href="#NimbusRomNo9L-Regu-64" transform="translate(935.581444 0) scale(0.996264)"/>
     <use xlink:href="#NimbusRomNo9L-Regu-6f" transform="translate(985.394644 0) scale(0.996264)"/>
     <use xlink:href="#NimbusRomNo9L-Regu-73" transform="translate(1035.207845 0) scale(0.996264)"/>
     <use xlink:href="#NimbusRomNo9L-Regu-70" transform="translate(1098.868151 0) scale(0.996264)"/>
     <use xlink:href="#NimbusRomNo9L-Regu-65" transform="translate(1148.681352 0) scale(0.996264)"/>
     <use xlink:href="#NimbusRomNo9L-Regu-72" transform="translate(1192.91492 0) scale(0.996264)"/>
     <use xlink:href="#NimbusRomNo9L-Regu-69" transform="translate(1226.09015 0) scale(0.996264)"/>
     <use xlink:href="#NimbusRomNo9L-Regu-66" transform="translate(1253.78532 0) scale(0.996264)"/>
     <use xlink:href="#NimbusRomNo9L-Regu-65" transform="translate(1286.96055 0) scale(0.996264)"/>
     <use xlink:href="#NimbusRomNo9L-Regu-72" transform="translate(1331.194118 0) scale(0.996264)"/>
     <use xlink:href="#NimbusRomNo9L-Regu-69" transform="translate(1364.369348 0) scale(0.996264)"/>
     <use xlink:href="#NimbusRomNo9L-Regu-63" transform="translate(1392.064518 0) scale(0.996264)"/>
     <use xlink:href="#NimbusRomNo9L-Regu-6f" transform="translate(1436.298086 0) scale(0.996264)"/>
     <use xlink:href="#NimbusRomNo9L-Regu-73" transform="translate(1486.111287 0) scale(0.996264)"/>
     <use xlink:href="#NimbusRomNo9L-Regu-28" transform="translate(1549.771593 0) scale(0.996264)"/>
     <use xlink:href="#NimbusRomNo9L-Regu-48" transform="translate(1582.946823 0) scale(0.996264)"/>
     <use xlink:href="#NimbusRomNo9L-Regu-2c" transform="translate(1654.876808 0) scale(0.996264)"/>
     <use xlink:href="#NimbusRomNo9L-Regu-43" transform="translate(1679.783408 0) scale(0.996264)"/>
     <use xlink:href="#NimbusRomNo9L-Regu-29" transform="translate(1746.233439 0) scale(0.996264)"/>
    </g>
   </g>
  </g>
 </g>
 <defs>
  <clipPath id="pbcda0fde64">
   <rect x="19.261541" y="35.893216" width="139.5" height="138.6"/>
  </clipPath>
 </defs>
</svg>
