<?xml version="1.0" encoding="utf-8" standalone="no"?>
<!DOCTYPE svg PUBLIC "-//W3C//DTD SVG 1.1//EN"
  "http://www.w3.org/Graphics/SVG/1.1/DTD/svg11.dtd">
<svg xmlns:xlink="http://www.w3.org/1999/xlink" width="146.7pt" height="145.8pt" viewBox="0 0 146.7 145.8" xmlns="http://www.w3.org/2000/svg" version="1.1">
 <metadata>
  <rdf:RDF xmlns:dc="http://purl.org/dc/elements/1.1/" xmlns:cc="http://creativecommons.org/ns#" xmlns:rdf="http://www.w3.org/1999/02/22-rdf-syntax-ns#">
   <cc:Work>
    <dc:type rdf:resource="http://purl.org/dc/dcmitype/StillImage"/>
    <dc:date>2025-05-06T00:19:11.929790</dc:date>
    <dc:format>image/svg+xml</dc:format>
    <dc:creator>
     <cc:Agent>
      <dc:title>Matplotlib v3.10.1, https://matplotlib.org/</dc:title>
     </cc:Agent>
    </dc:creator>
   </cc:Work>
  </rdf:RDF>
 </metadata>
 <defs>
  <style type="text/css">*{stroke-linejoin: round; stroke-linecap: butt}</style>
 </defs>
 <g id="figure_1">
  <g id="patch_1">
   <path d="M 0 145.8 
L 146.7 145.8 
L 146.7 0 
L 0 0 
z
" style="fill: #ffffff"/>
  </g>
  <g id="axes_1">
   <g id="LineCollection_1">
    <path d="M 25.236561 126.455025 
L 31.011402 131.052835 
" clip-path="url(#peaa40f207a)" style="fill: none; stroke: #7976b8; stroke-opacity: 0.6; stroke-width: 0.4"/>
    <path d="M 129.161907 92.011603 
L 120.638149 89.19647 
" clip-path="url(#peaa40f207a)" style="fill: none; stroke: #7976b8; stroke-opacity: 0.6; stroke-width: 0.4"/>
    <path d="M 131.448494 88.260009 
L 122.213229 86.796452 
" clip-path="url(#peaa40f207a)" style="fill: none; stroke: #7976b8; stroke-opacity: 0.6; stroke-width: 0.4"/>
    <path d="M 54.303337 34.109536 
L 44.704959 36.276577 
" clip-path="url(#peaa40f207a)" style="fill: none; stroke: #7976b8; stroke-opacity: 0.6; stroke-width: 0.4"/>
    <path d="M 120.638149 89.19647 
L 108.687162 84.885846 
" clip-path="url(#peaa40f207a)" style="fill: none; stroke: #7976b8; stroke-opacity: 0.6; stroke-width: 0.4"/>
    <path d="M 122.213229 86.796452 
L 108.687162 84.885846 
" clip-path="url(#peaa40f207a)" style="fill: none; stroke: #7976b8; stroke-opacity: 0.6; stroke-width: 0.4"/>
   </g>
   <g id="PathCollection_1">
    <defs>
     <path id="me183f88b27" d="M 0 1.936492 
C 0.513564 1.936492 1.006162 1.732451 1.369306 1.369306 
C 1.732451 1.006162 1.936492 0.513564 1.936492 0 
C 1.936492 -0.513564 1.732451 -1.006162 1.369306 -1.369306 
C 1.006162 -1.732451 0.513564 -1.936492 0 -1.936492 
C -0.513564 -1.936492 -1.006162 -1.732451 -1.369306 -1.369306 
C -1.732451 -1.006162 -1.936492 -0.513564 -1.936492 0 
C -1.936492 0.513564 -1.732451 1.006162 -1.369306 1.369306 
C -1.006162 1.732451 -0.513564 1.936492 0 1.936492 
z
" style="stroke: #201f3d; stroke-width: 0.1"/>
    </defs>
    <g clip-path="url(#peaa40f207a)">
     <use xlink:href="#me183f88b27" x="120.638149" y="89.19647" style="fill: #201f3d; stroke: #201f3d; stroke-width: 0.1"/>
     <use xlink:href="#me183f88b27" x="54.303337" y="34.109536" style="fill: #201f3d; stroke: #201f3d; stroke-width: 0.1"/>
     <use xlink:href="#me183f88b27" x="44.704959" y="36.276577" style="fill: #201f3d; stroke: #201f3d; stroke-width: 0.1"/>
     <use xlink:href="#me183f88b27" x="121.692923" y="19.133426" style="fill: #201f3d; stroke: #201f3d; stroke-width: 0.1"/>
     <use xlink:href="#me183f88b27" x="108.687162" y="84.885846" style="fill: #201f3d; stroke: #201f3d; stroke-width: 0.1"/>
     <use xlink:href="#me183f88b27" x="25.236561" y="126.455025" style="fill: #201f3d; stroke: #201f3d; stroke-width: 0.1"/>
     <use xlink:href="#me183f88b27" x="32.366913" y="9.9" style="fill: #201f3d; stroke: #201f3d; stroke-width: 0.1"/>
     <use xlink:href="#me183f88b27" x="31.011402" y="131.052835" style="fill: #201f3d; stroke: #201f3d; stroke-width: 0.1"/>
     <use xlink:href="#me183f88b27" x="9.940909" y="23.82494" style="fill: #201f3d; stroke: #201f3d; stroke-width: 0.1"/>
     <use xlink:href="#me183f88b27" x="129.161907" y="92.011603" style="fill: #201f3d; stroke: #201f3d; stroke-width: 0.1"/>
     <use xlink:href="#me183f88b27" x="131.448494" y="88.260009" style="fill: #201f3d; stroke: #201f3d; stroke-width: 0.1"/>
     <use xlink:href="#me183f88b27" x="122.213229" y="86.796452" style="fill: #201f3d; stroke: #201f3d; stroke-width: 0.1"/>
    </g>
   </g>
  </g>
 </g>
 <defs>
  <clipPath id="peaa40f207a">
   <rect x="3.6" y="3.6" width="139.5" height="138.6"/>
  </clipPath>
 </defs>
</svg>
