<?xml version="1.0" encoding="utf-8" standalone="no"?>
<!DOCTYPE svg PUBLIC "-//W3C//DTD SVG 1.1//EN"
  "http://www.w3.org/Graphics/SVG/1.1/DTD/svg11.dtd">
<svg xmlns:xlink="http://www.w3.org/1999/xlink" width="187.168406pt" height="199.803644pt" viewBox="0 0 187.168406 199.803644" xmlns="http://www.w3.org/2000/svg" version="1.1">
 <metadata>
  <rdf:RDF xmlns:dc="http://purl.org/dc/elements/1.1/" xmlns:cc="http://creativecommons.org/ns#" xmlns:rdf="http://www.w3.org/1999/02/22-rdf-syntax-ns#">
   <cc:Work>
    <dc:type rdf:resource="http://purl.org/dc/dcmitype/StillImage"/>
    <dc:date>2025-06-09T17:40:20.300534</dc:date>
    <dc:format>image/svg+xml</dc:format>
    <dc:creator>
     <cc:Agent>
      <dc:title>Matplotlib v3.10.1, https://matplotlib.org/</dc:title>
     </cc:Agent>
    </dc:creator>
   </cc:Work>
  </rdf:RDF>
 </metadata>
 <defs>
  <style type="text/css">*{stroke-linejoin: round; stroke-linecap: butt}</style>
 </defs>
 <g id="figure_1">
  <g id="patch_1">
   <path d="M -0 199.803644 
L 187.168406 199.803644 
L 187.168406 0 
L -0 0 
z
" style="fill: #ffffff"/>
  </g>
  <g id="axes_1">
   <g id="patch_2">
    <path d="M 28.406864 174.445406 
L 167.906864 174.445406 
L 167.906864 35.845406 
L 28.406864 35.845406 
z
" style="fill: #ffffff"/>
   </g>
   <g id="matplotlib.axis_1">
    <g id="xtick_1">
     <g id="line2d_1">
      <path d="M 28.406864 174.445406 
L 28.406864 35.845406 
" clip-path="url(#pd0d31542a8)" style="fill: none; stroke-dasharray: 1.85,0.8; stroke-dashoffset: 0; stroke: #b0b0b0; stroke-opacity: 0.6; stroke-width: 0.5"/>
     </g>
     <g id="line2d_2">
      <defs>
       <path id="maacaf03db2" d="M 0 0 
L 0 -3 
" style="stroke: #000000; stroke-width: 0.5"/>
      </defs>
      <g>
       <use xlink:href="#maacaf03db2" x="28.406864" y="174.445406" style="stroke: #000000; stroke-width: 0.5"/>
      </g>
     </g>
     <g id="line2d_3">
      <defs>
       <path id="m36e910bf00" d="M 0 0 
L 0 3 
" style="stroke: #000000; stroke-width: 0.5"/>
      </defs>
      <g>
       <use xlink:href="#m36e910bf00" x="28.406864" y="35.845406" style="stroke: #000000; stroke-width: 0.5"/>
      </g>
     </g>
     <g id="text_1">
      <!-- $\mathdefault{0}$ -->
      <g transform="translate(26.414336 183.349062) scale(0.08 -0.08)">
       <defs>
        <path id="NimbusRomNo9L-Regu-30" d="M 1626 4352 
C 1274 4352 1005 4244 768 4020 
C 397 3661 154 2925 154 2176 
C 154 1479 365 730 666 372 
C 902 90 1229 -64 1600 -64 
C 1926 -64 2202 45 2432 269 
C 2803 621 3046 1364 3046 2138 
C 3046 3450 2464 4352 1626 4352 
z
M 1606 4186 
C 2144 4186 2432 3463 2432 2125 
C 2432 788 2150 103 1600 103 
C 1050 103 768 788 768 2119 
C 768 3476 1056 4186 1606 4186 
z
" transform="scale(0.015625)"/>
       </defs>
       <use xlink:href="#NimbusRomNo9L-Regu-30" transform="scale(0.996264)"/>
      </g>
     </g>
    </g>
    <g id="xtick_2">
     <g id="line2d_4">
      <path d="M 56.362776 174.445406 
L 56.362776 35.845406 
" clip-path="url(#pd0d31542a8)" style="fill: none; stroke-dasharray: 1.85,0.8; stroke-dashoffset: 0; stroke: #b0b0b0; stroke-opacity: 0.6; stroke-width: 0.5"/>
     </g>
     <g id="line2d_5">
      <g>
       <use xlink:href="#maacaf03db2" x="56.362776" y="174.445406" style="stroke: #000000; stroke-width: 0.5"/>
      </g>
     </g>
     <g id="line2d_6">
      <g>
       <use xlink:href="#m36e910bf00" x="56.362776" y="35.845406" style="stroke: #000000; stroke-width: 0.5"/>
      </g>
     </g>
     <g id="text_2">
      <!-- $\mathdefault{100}$ -->
      <g transform="translate(50.385192 183.349062) scale(0.08 -0.08)">
       <defs>
        <path id="NimbusRomNo9L-Regu-31" d="M 1862 4339 
L 710 3757 
L 710 3667 
C 787 3699 858 3725 883 3738 
C 998 3783 1107 3808 1171 3808 
C 1306 3808 1363 3711 1363 3505 
L 1363 592 
C 1363 379 1312 232 1210 173 
C 1114 116 1024 96 755 96 
L 755 0 
L 2522 0 
L 2522 96 
C 2016 96 1914 160 1914 470 
L 1914 4327 
L 1862 4339 
z
" transform="scale(0.015625)"/>
       </defs>
       <use xlink:href="#NimbusRomNo9L-Regu-31" transform="scale(0.996264)"/>
       <use xlink:href="#NimbusRomNo9L-Regu-30" transform="translate(49.8132 0) scale(0.996264)"/>
       <use xlink:href="#NimbusRomNo9L-Regu-30" transform="translate(99.626401 0) scale(0.996264)"/>
      </g>
     </g>
    </g>
    <g id="xtick_3">
     <g id="line2d_7">
      <path d="M 84.318688 174.445406 
L 84.318688 35.845406 
" clip-path="url(#pd0d31542a8)" style="fill: none; stroke-dasharray: 1.85,0.8; stroke-dashoffset: 0; stroke: #b0b0b0; stroke-opacity: 0.6; stroke-width: 0.5"/>
     </g>
     <g id="line2d_8">
      <g>
       <use xlink:href="#maacaf03db2" x="84.318688" y="174.445406" style="stroke: #000000; stroke-width: 0.5"/>
      </g>
     </g>
     <g id="line2d_9">
      <g>
       <use xlink:href="#m36e910bf00" x="84.318688" y="35.845406" style="stroke: #000000; stroke-width: 0.5"/>
      </g>
     </g>
     <g id="text_3">
      <!-- $\mathdefault{200}$ -->
      <g transform="translate(78.341104 183.349062) scale(0.08 -0.08)">
       <defs>
        <path id="NimbusRomNo9L-Regu-32" d="M 3040 875 
L 2957 907 
C 2720 544 2637 486 2349 486 
L 819 486 
L 1894 1609 
C 2464 2202 2714 2687 2714 3185 
C 2714 3823 2195 4313 1530 4313 
C 1178 4313 845 4173 608 3918 
C 403 3700 307 3496 198 3043 
L 333 3011 
C 589 3636 819 3840 1261 3840 
C 1798 3840 2163 3476 2163 2940 
C 2163 2443 1869 1850 1331 1282 
L 192 77 
L 192 0 
L 2688 0 
L 3040 875 
z
" transform="scale(0.015625)"/>
       </defs>
       <use xlink:href="#NimbusRomNo9L-Regu-32" transform="scale(0.996264)"/>
       <use xlink:href="#NimbusRomNo9L-Regu-30" transform="translate(49.8132 0) scale(0.996264)"/>
       <use xlink:href="#NimbusRomNo9L-Regu-30" transform="translate(99.626401 0) scale(0.996264)"/>
      </g>
     </g>
    </g>
    <g id="xtick_4">
     <g id="line2d_10">
      <path d="M 112.2746 174.445406 
L 112.2746 35.845406 
" clip-path="url(#pd0d31542a8)" style="fill: none; stroke-dasharray: 1.85,0.8; stroke-dashoffset: 0; stroke: #b0b0b0; stroke-opacity: 0.6; stroke-width: 0.5"/>
     </g>
     <g id="line2d_11">
      <g>
       <use xlink:href="#maacaf03db2" x="112.2746" y="174.445406" style="stroke: #000000; stroke-width: 0.5"/>
      </g>
     </g>
     <g id="line2d_12">
      <g>
       <use xlink:href="#m36e910bf00" x="112.2746" y="35.845406" style="stroke: #000000; stroke-width: 0.5"/>
      </g>
     </g>
     <g id="text_4">
      <!-- $\mathdefault{300}$ -->
      <g transform="translate(106.297016 183.349062) scale(0.08 -0.08)">
       <defs>
        <path id="NimbusRomNo9L-Regu-33" d="M 979 2138 
C 1357 2138 1504 2125 1658 2068 
C 2054 1927 2304 1562 2304 1120 
C 2304 583 1939 167 1466 167 
C 1293 167 1165 212 928 365 
C 736 480 627 525 518 525 
C 371 525 275 436 275 301 
C 275 77 550 -64 998 -64 
C 1491 -64 1997 103 2298 365 
C 2598 628 2765 999 2765 1428 
C 2765 1754 2662 2055 2477 2253 
C 2349 2394 2227 2471 1946 2592 
C 2387 2893 2547 3130 2547 3476 
C 2547 3994 2138 4352 1549 4352 
C 1229 4352 947 4244 717 4039 
C 525 3866 429 3699 288 3315 
L 384 3290 
C 646 3757 934 3968 1338 3968 
C 1754 3968 2042 3687 2042 3284 
C 2042 3053 1946 2823 1786 2663 
C 1594 2471 1414 2375 979 2221 
L 979 2138 
z
" transform="scale(0.015625)"/>
       </defs>
       <use xlink:href="#NimbusRomNo9L-Regu-33" transform="scale(0.996264)"/>
       <use xlink:href="#NimbusRomNo9L-Regu-30" transform="translate(49.8132 0) scale(0.996264)"/>
       <use xlink:href="#NimbusRomNo9L-Regu-30" transform="translate(99.626401 0) scale(0.996264)"/>
      </g>
     </g>
    </g>
    <g id="xtick_5">
     <g id="line2d_13">
      <path d="M 140.230512 174.445406 
L 140.230512 35.845406 
" clip-path="url(#pd0d31542a8)" style="fill: none; stroke-dasharray: 1.85,0.8; stroke-dashoffset: 0; stroke: #b0b0b0; stroke-opacity: 0.6; stroke-width: 0.5"/>
     </g>
     <g id="line2d_14">
      <g>
       <use xlink:href="#maacaf03db2" x="140.230512" y="174.445406" style="stroke: #000000; stroke-width: 0.5"/>
      </g>
     </g>
     <g id="line2d_15">
      <g>
       <use xlink:href="#m36e910bf00" x="140.230512" y="35.845406" style="stroke: #000000; stroke-width: 0.5"/>
      </g>
     </g>
     <g id="text_5">
      <!-- $\mathdefault{400}$ -->
      <g transform="translate(134.252928 183.349062) scale(0.08 -0.08)">
       <defs>
        <path id="NimbusRomNo9L-Regu-34" d="M 3021 1497 
L 2368 1497 
L 2368 4352 
L 2086 4352 
L 77 1497 
L 77 1088 
L 1875 1088 
L 1875 32 
L 2368 32 
L 2368 1088 
L 3021 1088 
L 3021 1497 
z
M 1869 1497 
L 333 1497 
L 1869 3698 
L 1869 1497 
z
" transform="scale(0.015625)"/>
       </defs>
       <use xlink:href="#NimbusRomNo9L-Regu-34" transform="scale(0.996264)"/>
       <use xlink:href="#NimbusRomNo9L-Regu-30" transform="translate(49.8132 0) scale(0.996264)"/>
       <use xlink:href="#NimbusRomNo9L-Regu-30" transform="translate(99.626401 0) scale(0.996264)"/>
      </g>
     </g>
    </g>
    <g id="xtick_6">
     <g id="line2d_16">
      <defs>
       <path id="mac43e322ab" d="M 0 0 
L 0 -1.5 
" style="stroke: #000000; stroke-width: 0.5"/>
      </defs>
      <g>
       <use xlink:href="#mac43e322ab" x="33.998047" y="174.445406" style="stroke: #000000; stroke-width: 0.5"/>
      </g>
     </g>
     <g id="line2d_17">
      <defs>
       <path id="m416a7cbbf2" d="M 0 0 
L 0 1.5 
" style="stroke: #000000; stroke-width: 0.5"/>
      </defs>
      <g>
       <use xlink:href="#m416a7cbbf2" x="33.998047" y="35.845406" style="stroke: #000000; stroke-width: 0.5"/>
      </g>
     </g>
    </g>
    <g id="xtick_7">
     <g id="line2d_18">
      <g>
       <use xlink:href="#mac43e322ab" x="39.589229" y="174.445406" style="stroke: #000000; stroke-width: 0.5"/>
      </g>
     </g>
     <g id="line2d_19">
      <g>
       <use xlink:href="#m416a7cbbf2" x="39.589229" y="35.845406" style="stroke: #000000; stroke-width: 0.5"/>
      </g>
     </g>
    </g>
    <g id="xtick_8">
     <g id="line2d_20">
      <g>
       <use xlink:href="#mac43e322ab" x="45.180411" y="174.445406" style="stroke: #000000; stroke-width: 0.5"/>
      </g>
     </g>
     <g id="line2d_21">
      <g>
       <use xlink:href="#m416a7cbbf2" x="45.180411" y="35.845406" style="stroke: #000000; stroke-width: 0.5"/>
      </g>
     </g>
    </g>
    <g id="xtick_9">
     <g id="line2d_22">
      <g>
       <use xlink:href="#mac43e322ab" x="50.771594" y="174.445406" style="stroke: #000000; stroke-width: 0.5"/>
      </g>
     </g>
     <g id="line2d_23">
      <g>
       <use xlink:href="#m416a7cbbf2" x="50.771594" y="35.845406" style="stroke: #000000; stroke-width: 0.5"/>
      </g>
     </g>
    </g>
    <g id="xtick_10">
     <g id="line2d_24">
      <g>
       <use xlink:href="#mac43e322ab" x="61.953959" y="174.445406" style="stroke: #000000; stroke-width: 0.5"/>
      </g>
     </g>
     <g id="line2d_25">
      <g>
       <use xlink:href="#m416a7cbbf2" x="61.953959" y="35.845406" style="stroke: #000000; stroke-width: 0.5"/>
      </g>
     </g>
    </g>
    <g id="xtick_11">
     <g id="line2d_26">
      <g>
       <use xlink:href="#mac43e322ab" x="67.545141" y="174.445406" style="stroke: #000000; stroke-width: 0.5"/>
      </g>
     </g>
     <g id="line2d_27">
      <g>
       <use xlink:href="#m416a7cbbf2" x="67.545141" y="35.845406" style="stroke: #000000; stroke-width: 0.5"/>
      </g>
     </g>
    </g>
    <g id="xtick_12">
     <g id="line2d_28">
      <g>
       <use xlink:href="#mac43e322ab" x="73.136323" y="174.445406" style="stroke: #000000; stroke-width: 0.5"/>
      </g>
     </g>
     <g id="line2d_29">
      <g>
       <use xlink:href="#m416a7cbbf2" x="73.136323" y="35.845406" style="stroke: #000000; stroke-width: 0.5"/>
      </g>
     </g>
    </g>
    <g id="xtick_13">
     <g id="line2d_30">
      <g>
       <use xlink:href="#mac43e322ab" x="78.727506" y="174.445406" style="stroke: #000000; stroke-width: 0.5"/>
      </g>
     </g>
     <g id="line2d_31">
      <g>
       <use xlink:href="#m416a7cbbf2" x="78.727506" y="35.845406" style="stroke: #000000; stroke-width: 0.5"/>
      </g>
     </g>
    </g>
    <g id="xtick_14">
     <g id="line2d_32">
      <g>
       <use xlink:href="#mac43e322ab" x="89.90987" y="174.445406" style="stroke: #000000; stroke-width: 0.5"/>
      </g>
     </g>
     <g id="line2d_33">
      <g>
       <use xlink:href="#m416a7cbbf2" x="89.90987" y="35.845406" style="stroke: #000000; stroke-width: 0.5"/>
      </g>
     </g>
    </g>
    <g id="xtick_15">
     <g id="line2d_34">
      <g>
       <use xlink:href="#mac43e322ab" x="95.501053" y="174.445406" style="stroke: #000000; stroke-width: 0.5"/>
      </g>
     </g>
     <g id="line2d_35">
      <g>
       <use xlink:href="#m416a7cbbf2" x="95.501053" y="35.845406" style="stroke: #000000; stroke-width: 0.5"/>
      </g>
     </g>
    </g>
    <g id="xtick_16">
     <g id="line2d_36">
      <g>
       <use xlink:href="#mac43e322ab" x="101.092235" y="174.445406" style="stroke: #000000; stroke-width: 0.5"/>
      </g>
     </g>
     <g id="line2d_37">
      <g>
       <use xlink:href="#m416a7cbbf2" x="101.092235" y="35.845406" style="stroke: #000000; stroke-width: 0.5"/>
      </g>
     </g>
    </g>
    <g id="xtick_17">
     <g id="line2d_38">
      <g>
       <use xlink:href="#mac43e322ab" x="106.683418" y="174.445406" style="stroke: #000000; stroke-width: 0.5"/>
      </g>
     </g>
     <g id="line2d_39">
      <g>
       <use xlink:href="#m416a7cbbf2" x="106.683418" y="35.845406" style="stroke: #000000; stroke-width: 0.5"/>
      </g>
     </g>
    </g>
    <g id="xtick_18">
     <g id="line2d_40">
      <g>
       <use xlink:href="#mac43e322ab" x="117.865782" y="174.445406" style="stroke: #000000; stroke-width: 0.5"/>
      </g>
     </g>
     <g id="line2d_41">
      <g>
       <use xlink:href="#m416a7cbbf2" x="117.865782" y="35.845406" style="stroke: #000000; stroke-width: 0.5"/>
      </g>
     </g>
    </g>
    <g id="xtick_19">
     <g id="line2d_42">
      <g>
       <use xlink:href="#mac43e322ab" x="123.456965" y="174.445406" style="stroke: #000000; stroke-width: 0.5"/>
      </g>
     </g>
     <g id="line2d_43">
      <g>
       <use xlink:href="#m416a7cbbf2" x="123.456965" y="35.845406" style="stroke: #000000; stroke-width: 0.5"/>
      </g>
     </g>
    </g>
    <g id="xtick_20">
     <g id="line2d_44">
      <g>
       <use xlink:href="#mac43e322ab" x="129.048147" y="174.445406" style="stroke: #000000; stroke-width: 0.5"/>
      </g>
     </g>
     <g id="line2d_45">
      <g>
       <use xlink:href="#m416a7cbbf2" x="129.048147" y="35.845406" style="stroke: #000000; stroke-width: 0.5"/>
      </g>
     </g>
    </g>
    <g id="xtick_21">
     <g id="line2d_46">
      <g>
       <use xlink:href="#mac43e322ab" x="134.639329" y="174.445406" style="stroke: #000000; stroke-width: 0.5"/>
      </g>
     </g>
     <g id="line2d_47">
      <g>
       <use xlink:href="#m416a7cbbf2" x="134.639329" y="35.845406" style="stroke: #000000; stroke-width: 0.5"/>
      </g>
     </g>
    </g>
    <g id="xtick_22">
     <g id="line2d_48">
      <g>
       <use xlink:href="#mac43e322ab" x="145.821694" y="174.445406" style="stroke: #000000; stroke-width: 0.5"/>
      </g>
     </g>
     <g id="line2d_49">
      <g>
       <use xlink:href="#m416a7cbbf2" x="145.821694" y="35.845406" style="stroke: #000000; stroke-width: 0.5"/>
      </g>
     </g>
    </g>
    <g id="xtick_23">
     <g id="line2d_50">
      <g>
       <use xlink:href="#mac43e322ab" x="151.412876" y="174.445406" style="stroke: #000000; stroke-width: 0.5"/>
      </g>
     </g>
     <g id="line2d_51">
      <g>
       <use xlink:href="#m416a7cbbf2" x="151.412876" y="35.845406" style="stroke: #000000; stroke-width: 0.5"/>
      </g>
     </g>
    </g>
    <g id="xtick_24">
     <g id="line2d_52">
      <g>
       <use xlink:href="#mac43e322ab" x="157.004059" y="174.445406" style="stroke: #000000; stroke-width: 0.5"/>
      </g>
     </g>
     <g id="line2d_53">
      <g>
       <use xlink:href="#m416a7cbbf2" x="157.004059" y="35.845406" style="stroke: #000000; stroke-width: 0.5"/>
      </g>
     </g>
    </g>
    <g id="xtick_25">
     <g id="line2d_54">
      <g>
       <use xlink:href="#mac43e322ab" x="162.595241" y="174.445406" style="stroke: #000000; stroke-width: 0.5"/>
      </g>
     </g>
     <g id="line2d_55">
      <g>
       <use xlink:href="#m416a7cbbf2" x="162.595241" y="35.845406" style="stroke: #000000; stroke-width: 0.5"/>
      </g>
     </g>
    </g>
    <g id="text_6">
     <!-- Iteraciones -->
     <g transform="translate(80.674655 194.478181) scale(0.08 -0.08)">
      <defs>
       <path id="NimbusRomNo9L-Regu-49" d="M 736 689 
C 736 206 653 128 115 128 
L 115 0 
L 2016 0 
L 2016 128 
C 1491 128 1389 217 1389 688 
L 1389 3542 
C 1389 4012 1478 4096 2016 4096 
L 2016 4231 
L 115 4231 
L 115 4096 
C 659 4096 736 4026 736 3548 
L 736 689 
z
" transform="scale(0.015625)"/>
       <path id="NimbusRomNo9L-Regu-74" d="M 1632 2880 
L 986 2880 
L 986 3622 
C 986 3686 979 3706 941 3706 
C 896 3648 858 3590 813 3526 
C 570 3174 294 2867 192 2841 
C 122 2794 83 2748 83 2715 
C 83 2695 90 2682 109 2682 
L 448 2682 
L 448 751 
C 448 212 640 -64 1018 -64 
C 1331 -64 1574 90 1786 423 
L 1702 493 
C 1568 333 1459 269 1318 269 
C 1082 269 986 443 986 847 
L 986 2682 
L 1632 2682 
L 1632 2880 
z
" transform="scale(0.015625)"/>
       <path id="NimbusRomNo9L-Regu-65" d="M 2611 1053 
C 2304 564 2029 378 1619 378 
C 1254 378 979 564 794 930 
C 678 1174 634 1386 621 1779 
L 2592 1779 
C 2541 2193 2477 2377 2317 2581 
C 2125 2811 1830 2944 1498 2944 
C 1178 2944 877 2829 634 2611 
C 333 2349 160 1894 160 1370 
C 160 486 621 -64 1357 -64 
C 1965 -64 2445 315 2714 1008 
L 2611 1053 
z
M 634 1984 
C 704 2479 922 2714 1312 2714 
C 1702 2714 1856 2535 1939 1984 
L 634 1984 
z
" transform="scale(0.015625)"/>
       <path id="NimbusRomNo9L-Regu-72" d="M 45 2496 
C 134 2515 192 2522 269 2522 
C 429 2522 486 2419 486 2138 
L 486 538 
C 486 218 442 173 32 96 
L 32 0 
L 1568 0 
L 1568 102 
C 1133 102 1024 199 1024 565 
L 1024 2013 
C 1024 2219 1299 2541 1472 2541 
C 1510 2541 1568 2509 1638 2445 
C 1741 2355 1811 2317 1894 2317 
C 2048 2317 2144 2426 2144 2605 
C 2144 2816 2010 2944 1792 2944 
C 1523 2944 1338 2797 1024 2343 
L 1024 2931 
L 992 2944 
C 653 2803 422 2721 45 2599 
L 45 2496 
z
" transform="scale(0.015625)"/>
       <path id="NimbusRomNo9L-Regu-61" d="M 2829 423 
C 2720 333 2643 301 2547 301 
C 2400 301 2355 390 2355 672 
L 2355 1920 
C 2355 2253 2323 2438 2227 2592 
C 2086 2822 1811 2944 1434 2944 
C 832 2944 358 2630 358 2227 
C 358 2080 486 1952 634 1952 
C 787 1952 922 2080 922 2221 
C 922 2246 915 2278 909 2323 
C 896 2381 890 2432 890 2477 
C 890 2650 1094 2790 1350 2790 
C 1664 2790 1837 2605 1837 2259 
L 1837 1869 
C 851 1472 742 1421 467 1178 
C 326 1050 237 832 237 621 
C 237 218 518 -64 909 -64 
C 1190 -64 1453 70 1843 403 
C 1875 70 1990 -64 2253 -64 
C 2470 -64 2605 13 2829 256 
L 2829 423 
z
M 1837 783 
C 1837 584 1805 526 1670 449 
C 1517 359 1338 301 1203 301 
C 979 301 800 520 800 796 
L 800 822 
C 800 1201 1062 1433 1837 1715 
L 1837 783 
z
" transform="scale(0.015625)"/>
       <path id="NimbusRomNo9L-Regu-63" d="M 2547 998 
C 2240 550 2010 397 1645 397 
C 1062 397 653 909 653 1645 
C 653 2304 1005 2758 1523 2758 
C 1754 2758 1837 2688 1901 2451 
L 1939 2310 
C 1990 2131 2106 2016 2240 2016 
C 2406 2016 2547 2138 2547 2285 
C 2547 2643 2099 2944 1562 2944 
C 1248 2944 922 2816 659 2586 
C 339 2304 160 1869 160 1363 
C 160 531 666 -64 1376 -64 
C 1664 -64 1920 38 2150 237 
C 2323 390 2445 563 2637 941 
L 2547 998 
z
" transform="scale(0.015625)"/>
       <path id="NimbusRomNo9L-Regu-69" d="M 1120 2929 
L 128 2579 
L 128 2484 
L 179 2490 
C 256 2502 339 2509 397 2509 
C 550 2509 608 2406 608 2125 
L 608 640 
C 608 179 544 109 102 109 
L 102 0 
L 1619 0 
L 1619 96 
C 1197 128 1146 191 1146 650 
L 1146 2910 
L 1120 2929 
z
M 819 4352 
C 646 4352 499 4205 499 4026 
C 499 3847 640 3699 819 3699 
C 1005 3699 1152 3840 1152 4026 
C 1152 4205 1005 4352 819 4352 
z
" transform="scale(0.015625)"/>
       <path id="NimbusRomNo9L-Regu-6f" d="M 1600 2944 
C 768 2944 186 2330 186 1446 
C 186 582 781 -64 1587 -64 
C 2394 -64 3008 614 3008 1498 
C 3008 2336 2419 2944 1600 2944 
z
M 1517 2765 
C 2054 2765 2432 2150 2432 1274 
C 2432 550 2144 115 1664 115 
C 1414 115 1178 269 1043 525 
C 864 858 762 1306 762 1760 
C 762 2368 1062 2765 1517 2765 
z
" transform="scale(0.015625)"/>
       <path id="NimbusRomNo9L-Regu-6e" d="M 102 2579 
C 141 2598 205 2605 275 2605 
C 454 2605 512 2509 512 2195 
L 512 608 
C 512 243 442 154 115 128 
L 115 32 
L 1472 32 
L 1472 128 
C 1146 154 1050 230 1050 461 
L 1050 2259 
C 1357 2547 1498 2624 1709 2624 
C 2022 2624 2176 2426 2176 2003 
L 2176 666 
C 2176 262 2093 154 1773 128 
L 1773 32 
L 3104 32 
L 3104 128 
C 2790 160 2714 237 2714 550 
L 2714 2016 
C 2714 2618 2432 2976 1958 2976 
C 1664 2976 1466 2867 1030 2458 
L 1030 2963 
L 986 2976 
C 672 2861 454 2790 102 2688 
L 102 2579 
z
" transform="scale(0.015625)"/>
       <path id="NimbusRomNo9L-Regu-73" d="M 2016 2010 
L 1990 2880 
L 1920 2880 
L 1907 2867 
C 1850 2822 1843 2816 1818 2816 
C 1779 2816 1715 2829 1645 2861 
C 1504 2915 1363 2944 1197 2944 
C 691 2944 326 2616 326 2154 
C 326 1796 531 1539 1075 1231 
L 1446 1020 
C 1670 892 1779 737 1779 539 
C 1779 256 1574 77 1248 77 
C 1030 77 832 159 710 298 
C 576 455 518 600 435 960 
L 333 960 
L 333 -39 
L 416 -39 
C 461 33 486 48 563 48 
C 621 48 710 35 858 -2 
C 1037 -39 1210 -64 1325 -64 
C 1818 -64 2227 308 2227 757 
C 2227 1077 2074 1289 1690 1520 
L 998 1930 
C 819 2033 723 2194 723 2367 
C 723 2624 922 2803 1216 2803 
C 1581 2803 1773 2583 1920 2010 
L 2016 2010 
z
" transform="scale(0.015625)"/>
      </defs>
      <use xlink:href="#NimbusRomNo9L-Regu-49" transform="scale(0.996264)"/>
      <use xlink:href="#NimbusRomNo9L-Regu-74" transform="translate(33.17523 0) scale(0.996264)"/>
      <use xlink:href="#NimbusRomNo9L-Regu-65" transform="translate(60.870399 0) scale(0.996264)"/>
      <use xlink:href="#NimbusRomNo9L-Regu-72" transform="translate(105.103968 0) scale(0.996264)"/>
      <use xlink:href="#NimbusRomNo9L-Regu-61" transform="translate(138.279198 0) scale(0.996264)"/>
      <use xlink:href="#NimbusRomNo9L-Regu-63" transform="translate(182.512766 0) scale(0.996264)"/>
      <use xlink:href="#NimbusRomNo9L-Regu-69" transform="translate(226.746335 0) scale(0.996264)"/>
      <use xlink:href="#NimbusRomNo9L-Regu-6f" transform="translate(254.441505 0) scale(0.996264)"/>
      <use xlink:href="#NimbusRomNo9L-Regu-6e" transform="translate(304.254705 0) scale(0.996264)"/>
      <use xlink:href="#NimbusRomNo9L-Regu-65" transform="translate(354.067906 0) scale(0.996264)"/>
      <use xlink:href="#NimbusRomNo9L-Regu-73" transform="translate(398.301474 0) scale(0.996264)"/>
     </g>
    </g>
   </g>
   <g id="matplotlib.axis_2">
    <g id="ytick_1">
     <g id="line2d_56">
      <path d="M 28.406864 174.445406 
L 167.906864 174.445406 
" clip-path="url(#pd0d31542a8)" style="fill: none; stroke-dasharray: 1.85,0.8; stroke-dashoffset: 0; stroke: #b0b0b0; stroke-opacity: 0.6; stroke-width: 0.5"/>
     </g>
     <g id="line2d_57">
      <defs>
       <path id="m1e75f1c973" d="M 0 0 
L 3 0 
" style="stroke: #000000; stroke-width: 0.5"/>
      </defs>
      <g>
       <use xlink:href="#m1e75f1c973" x="28.406864" y="174.445406" style="stroke: #000000; stroke-width: 0.5"/>
      </g>
     </g>
     <g id="line2d_58">
      <defs>
       <path id="m0304c2cea8" d="M 0 0 
L -3 0 
" style="stroke: #000000; stroke-width: 0.5"/>
      </defs>
      <g>
       <use xlink:href="#m0304c2cea8" x="167.906864" y="174.445406" style="stroke: #000000; stroke-width: 0.5"/>
      </g>
     </g>
     <g id="text_7">
      <!-- $\mathdefault{0.0}$ -->
      <g transform="translate(14.729119 177.147234) scale(0.08 -0.08)">
       <defs>
        <path id="CMMI10-3a" d="M 1229 338 
C 1229 522 1075 675 890 675 
C 704 675 550 522 550 338 
C 550 153 704 0 890 0 
C 1075 0 1229 153 1229 338 
z
" transform="scale(0.015625)"/>
       </defs>
       <use xlink:href="#NimbusRomNo9L-Regu-30" transform="scale(0.996264)"/>
       <use xlink:href="#CMMI10-3a" transform="translate(49.8132 0) scale(0.996264)"/>
       <use xlink:href="#NimbusRomNo9L-Regu-30" transform="translate(77.408707 0) scale(0.996264)"/>
      </g>
     </g>
    </g>
    <g id="ytick_2">
     <g id="line2d_59">
      <path d="M 28.406864 146.725406 
L 167.906864 146.725406 
" clip-path="url(#pd0d31542a8)" style="fill: none; stroke-dasharray: 1.85,0.8; stroke-dashoffset: 0; stroke: #b0b0b0; stroke-opacity: 0.6; stroke-width: 0.5"/>
     </g>
     <g id="line2d_60">
      <g>
       <use xlink:href="#m1e75f1c973" x="28.406864" y="146.725406" style="stroke: #000000; stroke-width: 0.5"/>
      </g>
     </g>
     <g id="line2d_61">
      <g>
       <use xlink:href="#m0304c2cea8" x="167.906864" y="146.725406" style="stroke: #000000; stroke-width: 0.5"/>
      </g>
     </g>
     <g id="text_8">
      <!-- $\mathdefault{0.2}$ -->
      <g transform="translate(14.729119 149.427234) scale(0.08 -0.08)">
       <use xlink:href="#NimbusRomNo9L-Regu-30" transform="scale(0.996264)"/>
       <use xlink:href="#CMMI10-3a" transform="translate(49.8132 0) scale(0.996264)"/>
       <use xlink:href="#NimbusRomNo9L-Regu-32" transform="translate(77.408707 0) scale(0.996264)"/>
      </g>
     </g>
    </g>
    <g id="ytick_3">
     <g id="line2d_62">
      <path d="M 28.406864 119.005406 
L 167.906864 119.005406 
" clip-path="url(#pd0d31542a8)" style="fill: none; stroke-dasharray: 1.85,0.8; stroke-dashoffset: 0; stroke: #b0b0b0; stroke-opacity: 0.6; stroke-width: 0.5"/>
     </g>
     <g id="line2d_63">
      <g>
       <use xlink:href="#m1e75f1c973" x="28.406864" y="119.005406" style="stroke: #000000; stroke-width: 0.5"/>
      </g>
     </g>
     <g id="line2d_64">
      <g>
       <use xlink:href="#m0304c2cea8" x="167.906864" y="119.005406" style="stroke: #000000; stroke-width: 0.5"/>
      </g>
     </g>
     <g id="text_9">
      <!-- $\mathdefault{0.4}$ -->
      <g transform="translate(14.729119 121.707234) scale(0.08 -0.08)">
       <use xlink:href="#NimbusRomNo9L-Regu-30" transform="scale(0.996264)"/>
       <use xlink:href="#CMMI10-3a" transform="translate(49.8132 0) scale(0.996264)"/>
       <use xlink:href="#NimbusRomNo9L-Regu-34" transform="translate(77.408707 0) scale(0.996264)"/>
      </g>
     </g>
    </g>
    <g id="ytick_4">
     <g id="line2d_65">
      <path d="M 28.406864 91.285406 
L 167.906864 91.285406 
" clip-path="url(#pd0d31542a8)" style="fill: none; stroke-dasharray: 1.85,0.8; stroke-dashoffset: 0; stroke: #b0b0b0; stroke-opacity: 0.6; stroke-width: 0.5"/>
     </g>
     <g id="line2d_66">
      <g>
       <use xlink:href="#m1e75f1c973" x="28.406864" y="91.285406" style="stroke: #000000; stroke-width: 0.5"/>
      </g>
     </g>
     <g id="line2d_67">
      <g>
       <use xlink:href="#m0304c2cea8" x="167.906864" y="91.285406" style="stroke: #000000; stroke-width: 0.5"/>
      </g>
     </g>
     <g id="text_10">
      <!-- $\mathdefault{0.6}$ -->
      <g transform="translate(14.729119 93.987234) scale(0.08 -0.08)">
       <defs>
        <path id="NimbusRomNo9L-Regu-36" d="M 2854 4391 
C 2125 4327 1754 4205 1286 3879 
C 595 3386 218 2656 218 1802 
C 218 1248 390 688 666 370 
C 909 89 1254 -64 1651 -64 
C 2445 -64 2995 541 2995 1421 
C 2995 2236 2528 2752 1792 2752 
C 1510 2752 1376 2707 973 2464 
C 1146 3431 1862 4122 2867 4288 
L 2854 4391 
z
M 1549 2458 
C 2099 2458 2419 2000 2419 1204 
C 2419 504 2170 116 1722 116 
C 1158 116 813 714 813 1700 
C 813 2025 864 2203 992 2299 
C 1126 2400 1325 2458 1549 2458 
z
" transform="scale(0.015625)"/>
       </defs>
       <use xlink:href="#NimbusRomNo9L-Regu-30" transform="scale(0.996264)"/>
       <use xlink:href="#CMMI10-3a" transform="translate(49.8132 0) scale(0.996264)"/>
       <use xlink:href="#NimbusRomNo9L-Regu-36" transform="translate(77.408707 0) scale(0.996264)"/>
      </g>
     </g>
    </g>
    <g id="ytick_5">
     <g id="line2d_68">
      <path d="M 28.406864 63.565406 
L 167.906864 63.565406 
" clip-path="url(#pd0d31542a8)" style="fill: none; stroke-dasharray: 1.85,0.8; stroke-dashoffset: 0; stroke: #b0b0b0; stroke-opacity: 0.6; stroke-width: 0.5"/>
     </g>
     <g id="line2d_69">
      <g>
       <use xlink:href="#m1e75f1c973" x="28.406864" y="63.565406" style="stroke: #000000; stroke-width: 0.5"/>
      </g>
     </g>
     <g id="line2d_70">
      <g>
       <use xlink:href="#m0304c2cea8" x="167.906864" y="63.565406" style="stroke: #000000; stroke-width: 0.5"/>
      </g>
     </g>
     <g id="text_11">
      <!-- $\mathdefault{0.8}$ -->
      <g transform="translate(14.729119 66.267234) scale(0.08 -0.08)">
       <defs>
        <path id="NimbusRomNo9L-Regu-38" d="M 1856 2400 
C 2490 2740 2714 3008 2714 3444 
C 2714 3968 2253 4352 1613 4352 
C 915 4352 397 3924 397 3341 
C 397 2925 518 2740 1190 2151 
C 499 1626 358 1428 358 992 
C 358 372 864 -64 1587 -64 
C 2355 -64 2848 359 2848 1018 
C 2848 1511 2630 1824 1856 2400 
z
M 1741 1741 
C 2208 1408 2362 1178 2362 820 
C 2362 404 2074 116 1658 116 
C 1171 116 845 487 845 1044 
C 845 1453 986 1722 1357 2023 
L 1741 1741 
z
M 1670 2516 
C 1101 2887 870 3181 870 3540 
C 870 3911 1158 4173 1562 4173 
C 1997 4173 2272 3892 2272 3450 
C 2272 3085 2093 2797 1728 2554 
C 1696 2535 1696 2535 1670 2516 
z
" transform="scale(0.015625)"/>
       </defs>
       <use xlink:href="#NimbusRomNo9L-Regu-30" transform="scale(0.996264)"/>
       <use xlink:href="#CMMI10-3a" transform="translate(49.8132 0) scale(0.996264)"/>
       <use xlink:href="#NimbusRomNo9L-Regu-38" transform="translate(77.408707 0) scale(0.996264)"/>
      </g>
     </g>
    </g>
    <g id="ytick_6">
     <g id="line2d_71">
      <path d="M 28.406864 35.845406 
L 167.906864 35.845406 
" clip-path="url(#pd0d31542a8)" style="fill: none; stroke-dasharray: 1.85,0.8; stroke-dashoffset: 0; stroke: #b0b0b0; stroke-opacity: 0.6; stroke-width: 0.5"/>
     </g>
     <g id="line2d_72">
      <g>
       <use xlink:href="#m1e75f1c973" x="28.406864" y="35.845406" style="stroke: #000000; stroke-width: 0.5"/>
      </g>
     </g>
     <g id="line2d_73">
      <g>
       <use xlink:href="#m0304c2cea8" x="167.906864" y="35.845406" style="stroke: #000000; stroke-width: 0.5"/>
      </g>
     </g>
     <g id="text_12">
      <!-- $\mathdefault{1.0}$ -->
      <g transform="translate(14.729119 38.547234) scale(0.08 -0.08)">
       <use xlink:href="#NimbusRomNo9L-Regu-31" transform="scale(0.996264)"/>
       <use xlink:href="#CMMI10-3a" transform="translate(49.8132 0) scale(0.996264)"/>
       <use xlink:href="#NimbusRomNo9L-Regu-30" transform="translate(77.408707 0) scale(0.996264)"/>
      </g>
     </g>
    </g>
    <g id="ytick_7">
     <g id="line2d_74">
      <defs>
       <path id="m3a7836ea8d" d="M 0 0 
L 1.5 0 
" style="stroke: #000000; stroke-width: 0.5"/>
      </defs>
      <g>
       <use xlink:href="#m3a7836ea8d" x="28.406864" y="167.515406" style="stroke: #000000; stroke-width: 0.5"/>
      </g>
     </g>
     <g id="line2d_75">
      <defs>
       <path id="mcd0d69b425" d="M 0 0 
L -1.5 0 
" style="stroke: #000000; stroke-width: 0.5"/>
      </defs>
      <g>
       <use xlink:href="#mcd0d69b425" x="167.906864" y="167.515406" style="stroke: #000000; stroke-width: 0.5"/>
      </g>
     </g>
    </g>
    <g id="ytick_8">
     <g id="line2d_76">
      <g>
       <use xlink:href="#m3a7836ea8d" x="28.406864" y="160.585406" style="stroke: #000000; stroke-width: 0.5"/>
      </g>
     </g>
     <g id="line2d_77">
      <g>
       <use xlink:href="#mcd0d69b425" x="167.906864" y="160.585406" style="stroke: #000000; stroke-width: 0.5"/>
      </g>
     </g>
    </g>
    <g id="ytick_9">
     <g id="line2d_78">
      <g>
       <use xlink:href="#m3a7836ea8d" x="28.406864" y="153.655406" style="stroke: #000000; stroke-width: 0.5"/>
      </g>
     </g>
     <g id="line2d_79">
      <g>
       <use xlink:href="#mcd0d69b425" x="167.906864" y="153.655406" style="stroke: #000000; stroke-width: 0.5"/>
      </g>
     </g>
    </g>
    <g id="ytick_10">
     <g id="line2d_80">
      <g>
       <use xlink:href="#m3a7836ea8d" x="28.406864" y="139.795406" style="stroke: #000000; stroke-width: 0.5"/>
      </g>
     </g>
     <g id="line2d_81">
      <g>
       <use xlink:href="#mcd0d69b425" x="167.906864" y="139.795406" style="stroke: #000000; stroke-width: 0.5"/>
      </g>
     </g>
    </g>
    <g id="ytick_11">
     <g id="line2d_82">
      <g>
       <use xlink:href="#m3a7836ea8d" x="28.406864" y="132.865406" style="stroke: #000000; stroke-width: 0.5"/>
      </g>
     </g>
     <g id="line2d_83">
      <g>
       <use xlink:href="#mcd0d69b425" x="167.906864" y="132.865406" style="stroke: #000000; stroke-width: 0.5"/>
      </g>
     </g>
    </g>
    <g id="ytick_12">
     <g id="line2d_84">
      <g>
       <use xlink:href="#m3a7836ea8d" x="28.406864" y="125.935406" style="stroke: #000000; stroke-width: 0.5"/>
      </g>
     </g>
     <g id="line2d_85">
      <g>
       <use xlink:href="#mcd0d69b425" x="167.906864" y="125.935406" style="stroke: #000000; stroke-width: 0.5"/>
      </g>
     </g>
    </g>
    <g id="ytick_13">
     <g id="line2d_86">
      <g>
       <use xlink:href="#m3a7836ea8d" x="28.406864" y="112.075406" style="stroke: #000000; stroke-width: 0.5"/>
      </g>
     </g>
     <g id="line2d_87">
      <g>
       <use xlink:href="#mcd0d69b425" x="167.906864" y="112.075406" style="stroke: #000000; stroke-width: 0.5"/>
      </g>
     </g>
    </g>
    <g id="ytick_14">
     <g id="line2d_88">
      <g>
       <use xlink:href="#m3a7836ea8d" x="28.406864" y="105.145406" style="stroke: #000000; stroke-width: 0.5"/>
      </g>
     </g>
     <g id="line2d_89">
      <g>
       <use xlink:href="#mcd0d69b425" x="167.906864" y="105.145406" style="stroke: #000000; stroke-width: 0.5"/>
      </g>
     </g>
    </g>
    <g id="ytick_15">
     <g id="line2d_90">
      <g>
       <use xlink:href="#m3a7836ea8d" x="28.406864" y="98.215406" style="stroke: #000000; stroke-width: 0.5"/>
      </g>
     </g>
     <g id="line2d_91">
      <g>
       <use xlink:href="#mcd0d69b425" x="167.906864" y="98.215406" style="stroke: #000000; stroke-width: 0.5"/>
      </g>
     </g>
    </g>
    <g id="ytick_16">
     <g id="line2d_92">
      <g>
       <use xlink:href="#m3a7836ea8d" x="28.406864" y="84.355406" style="stroke: #000000; stroke-width: 0.5"/>
      </g>
     </g>
     <g id="line2d_93">
      <g>
       <use xlink:href="#mcd0d69b425" x="167.906864" y="84.355406" style="stroke: #000000; stroke-width: 0.5"/>
      </g>
     </g>
    </g>
    <g id="ytick_17">
     <g id="line2d_94">
      <g>
       <use xlink:href="#m3a7836ea8d" x="28.406864" y="77.425406" style="stroke: #000000; stroke-width: 0.5"/>
      </g>
     </g>
     <g id="line2d_95">
      <g>
       <use xlink:href="#mcd0d69b425" x="167.906864" y="77.425406" style="stroke: #000000; stroke-width: 0.5"/>
      </g>
     </g>
    </g>
    <g id="ytick_18">
     <g id="line2d_96">
      <g>
       <use xlink:href="#m3a7836ea8d" x="28.406864" y="70.495406" style="stroke: #000000; stroke-width: 0.5"/>
      </g>
     </g>
     <g id="line2d_97">
      <g>
       <use xlink:href="#mcd0d69b425" x="167.906864" y="70.495406" style="stroke: #000000; stroke-width: 0.5"/>
      </g>
     </g>
    </g>
    <g id="ytick_19">
     <g id="line2d_98">
      <g>
       <use xlink:href="#m3a7836ea8d" x="28.406864" y="56.635406" style="stroke: #000000; stroke-width: 0.5"/>
      </g>
     </g>
     <g id="line2d_99">
      <g>
       <use xlink:href="#mcd0d69b425" x="167.906864" y="56.635406" style="stroke: #000000; stroke-width: 0.5"/>
      </g>
     </g>
    </g>
    <g id="ytick_20">
     <g id="line2d_100">
      <g>
       <use xlink:href="#m3a7836ea8d" x="28.406864" y="49.705406" style="stroke: #000000; stroke-width: 0.5"/>
      </g>
     </g>
     <g id="line2d_101">
      <g>
       <use xlink:href="#mcd0d69b425" x="167.906864" y="49.705406" style="stroke: #000000; stroke-width: 0.5"/>
      </g>
     </g>
    </g>
    <g id="ytick_21">
     <g id="line2d_102">
      <g>
       <use xlink:href="#m3a7836ea8d" x="28.406864" y="42.775406" style="stroke: #000000; stroke-width: 0.5"/>
      </g>
     </g>
     <g id="line2d_103">
      <g>
       <use xlink:href="#mcd0d69b425" x="167.906864" y="42.775406" style="stroke: #000000; stroke-width: 0.5"/>
      </g>
     </g>
    </g>
    <g id="text_13">
     <!-- Porcentaje -->
     <g transform="translate(9.003656 121.966125) rotate(-90) scale(0.08 -0.08)">
      <defs>
       <path id="NimbusRomNo9L-Regu-50" d="M 1293 1875 
C 1459 1856 1568 1856 1734 1856 
C 2234 1856 2579 1919 2854 2072 
C 3238 2274 3469 2660 3469 3078 
C 3469 3344 3379 3584 3206 3768 
C 2950 4047 2394 4224 1792 4224 
L 102 4224 
L 102 4102 
C 576 4051 640 3987 640 3528 
L 640 766 
C 640 230 589 166 102 122 
L 102 0 
L 1894 0 
L 1894 128 
C 1389 128 1293 218 1293 693 
L 1293 1875 
z
M 1293 3772 
C 1293 3943 1338 3987 1510 3987 
C 2374 3987 2771 3690 2771 3040 
C 2771 2428 2394 2112 1658 2112 
C 1530 2112 1440 2119 1293 2131 
L 1293 3772 
z
" transform="scale(0.015625)"/>
       <path id="NimbusRomNo9L-Regu-6a" d="M 1235 2907 
L 1203 2926 
C 826 2779 582 2697 205 2581 
L 205 2479 
L 237 2485 
C 333 2498 429 2498 493 2498 
C 640 2498 698 2389 698 2115 
L 698 -304 
C 698 -788 678 -948 608 -1075 
C 570 -1139 480 -1191 390 -1191 
C 294 -1191 230 -1146 122 -1011 
C 6 -864 -83 -807 -186 -807 
C -333 -807 -448 -915 -448 -1056 
C -448 -1261 -192 -1408 154 -1408 
C 858 -1408 1235 -923 1235 -15 
L 1235 2907 
z
M 909 4352 
C 736 4352 589 4205 589 4026 
C 589 3847 730 3699 909 3699 
C 1094 3699 1242 3840 1242 4026 
C 1242 4205 1094 4352 909 4352 
z
" transform="scale(0.015625)"/>
      </defs>
      <use xlink:href="#NimbusRomNo9L-Regu-50" transform="scale(0.996264)"/>
      <use xlink:href="#NimbusRomNo9L-Regu-6f" transform="translate(55.391677 0) scale(0.996264)"/>
      <use xlink:href="#NimbusRomNo9L-Regu-72" transform="translate(105.204877 0) scale(0.996264)"/>
      <use xlink:href="#NimbusRomNo9L-Regu-63" transform="translate(138.380107 0) scale(0.996264)"/>
      <use xlink:href="#NimbusRomNo9L-Regu-65" transform="translate(182.613676 0) scale(0.996264)"/>
      <use xlink:href="#NimbusRomNo9L-Regu-6e" transform="translate(226.847245 0) scale(0.996264)"/>
      <use xlink:href="#NimbusRomNo9L-Regu-74" transform="translate(276.660445 0) scale(0.996264)"/>
      <use xlink:href="#NimbusRomNo9L-Regu-61" transform="translate(304.355615 0) scale(0.996264)"/>
      <use xlink:href="#NimbusRomNo9L-Regu-6a" transform="translate(348.589183 0) scale(0.996264)"/>
      <use xlink:href="#NimbusRomNo9L-Regu-65" transform="translate(376.284353 0) scale(0.996264)"/>
     </g>
    </g>
   </g>
   <g id="line2d_104">
    <path d="M 28.406864 162.110006 
L 30.084219 151.715006 
L 30.643337 151.437806 
L 30.922896 151.437806 
L 31.202456 150.883406 
L 31.482015 151.853606 
L 32.041133 151.160606 
L 32.320692 149.220206 
L 32.87981 148.804406 
L 33.438929 148.527206 
L 33.718488 148.111406 
L 34.277606 147.834206 
L 34.557165 148.250006 
L 34.836724 148.250006 
L 35.116283 147.695606 
L 35.395842 145.755206 
L 35.675401 145.062206 
L 36.23452 144.785006 
L 36.514079 145.478006 
L 36.793638 145.616606 
L 37.073197 145.616606 
L 37.352756 146.171006 
L 37.632315 145.339406 
L 37.911874 146.171006 
L 38.191434 145.616606 
L 38.750552 147.279806 
L 39.030111 147.695606 
L 39.30967 145.893806 
L 39.589229 145.616606 
L 39.868788 144.923606 
L 40.148347 144.646406 
L 40.427906 145.339406 
L 41.546143 144.230606 
L 42.105261 145.062206 
L 42.38482 145.200806 
L 42.664379 144.507806 
L 43.223498 145.200806 
L 43.503057 145.062206 
L 43.782616 144.507806 
L 44.341734 145.062206 
L 44.900852 144.369206 
L 45.180411 144.507806 
L 45.459971 144.369206 
L 46.019089 144.785006 
L 46.298648 144.785006 
L 46.578207 144.092006 
L 47.137325 144.092006 
L 47.416884 144.507806 
L 47.696444 145.755206 
L 47.976003 146.032406 
L 48.81468 148.665806 
L 49.373798 152.546606 
L 49.932916 152.546606 
L 50.212476 153.239606 
L 50.492035 153.378206 
L 50.771594 153.655406 
L 51.330712 154.625606 
L 51.610271 154.625606 
L 51.88983 154.487006 
L 52.448949 156.011606 
L 53.008067 155.595806 
L 54.126303 158.783606 
L 54.405862 158.783606 
L 55.24454 159.476606 
L 55.524099 159.615206 
L 55.803658 158.922206 
L 56.083217 158.645006 
L 56.362776 159.199406 
L 56.642335 159.199406 
L 57.481013 158.229206 
L 57.760572 157.813406 
L 58.040131 158.783606 
L 58.599249 159.615206 
L 58.878808 159.476606 
L 59.158367 158.506406 
L 59.437927 157.952006 
L 59.717486 158.506406 
L 59.997045 158.645006 
L 60.276604 158.645006 
L 60.556163 158.506406 
L 60.835722 158.645006 
L 61.115281 158.645006 
L 61.39484 158.367806 
L 61.674399 158.506406 
L 61.953959 158.367806 
L 62.233518 158.506406 
L 62.513077 158.783606 
L 63.072195 157.952006 
L 63.351754 157.120406 
L 63.910872 157.674806 
L 64.469991 156.981806 
L 64.74955 157.259006 
L 65.029109 157.120406 
L 65.308668 156.843206 
L 65.588227 157.259006 
L 65.867786 158.090606 
L 66.147345 158.229206 
L 66.426904 159.060806 
L 67.8247 160.308206 
L 68.104259 160.446806 
L 68.383818 160.446806 
L 68.663377 160.308206 
L 68.942937 159.753806 
L 69.222496 159.615206 
L 69.502055 160.308206 
L 70.061173 160.862606 
L 70.340732 160.724006 
L 70.620291 160.724006 
L 70.89985 160.862606 
L 71.458969 160.169606 
L 71.738528 159.753806 
L 72.018087 159.615206 
L 72.297646 159.753806 
L 72.577205 160.169606 
L 72.856764 160.169606 
L 73.415882 159.892406 
L 73.695442 160.308206 
L 73.975001 160.446806 
L 74.25456 160.446806 
L 74.534119 159.476606 
L 74.813678 159.615206 
L 75.093237 160.308206 
L 75.652355 160.585406 
L 75.931914 160.308206 
L 76.491033 159.199406 
L 76.770592 159.615206 
L 77.32971 159.615206 
L 77.609269 159.753806 
L 78.168387 159.199406 
L 78.447947 159.338006 
L 78.727506 160.031006 
L 79.286624 159.615206 
L 79.566183 159.476606 
L 80.68442 160.585406 
L 80.963979 160.169606 
L 81.523097 160.446806 
L 82.082215 159.615206 
L 82.641333 160.169606 
L 82.920892 160.169606 
L 83.200452 160.308206 
L 83.480011 160.308206 
L 83.75957 160.585406 
L 84.039129 160.031006 
L 84.598247 160.446806 
L 84.877806 160.585406 
L 85.436925 159.753806 
L 85.716484 160.031006 
L 86.555161 159.338006 
L 86.83472 159.338006 
L 87.114279 159.199406 
L 87.393838 159.338006 
L 87.952957 159.892406 
L 88.512075 159.615206 
L 88.791634 159.615206 
L 89.071193 160.308206 
L 89.350752 160.446806 
L 89.630311 159.753806 
L 90.18943 159.338006 
L 90.468989 159.892406 
L 90.748548 160.031006 
L 91.028107 159.892406 
L 91.307666 159.892406 
L 91.587225 160.031006 
L 91.866784 159.476606 
L 92.146343 159.615206 
L 92.705462 158.645006 
L 92.985021 159.199406 
L 93.26458 158.783606 
L 93.544139 158.922206 
L 93.823698 159.476606 
L 94.382816 160.031006 
L 94.662375 159.199406 
L 95.501053 159.615206 
L 95.780612 159.615206 
L 96.060171 160.169606 
L 96.898848 159.476606 
L 97.178407 159.476606 
L 97.457967 159.753806 
L 97.737526 159.615206 
L 98.017085 159.892406 
L 98.296644 159.892406 
L 98.855762 160.724006 
L 99.135321 159.892406 
L 99.41488 159.892406 
L 99.69444 159.753806 
L 99.973999 159.753806 
L 100.253558 159.615206 
L 100.533117 159.615206 
L 100.812676 159.476606 
L 101.092235 159.753806 
L 101.371794 159.753806 
L 101.651353 159.476606 
L 101.930912 160.031006 
L 102.210472 160.031006 
L 102.76959 160.724006 
L 103.049149 160.862606 
L 103.608267 160.862606 
L 103.887826 160.724006 
L 104.446945 161.139806 
L 105.006063 160.724006 
L 105.565181 160.724006 
L 105.84474 160.862606 
L 106.124299 161.278406 
L 106.403858 160.862606 
L 106.683418 160.169606 
L 106.962977 160.308206 
L 107.242536 159.892406 
L 107.522095 160.031006 
L 107.801654 159.476606 
L 108.081213 160.031006 
L 108.360772 160.031006 
L 108.640331 160.169606 
L 108.91989 160.031006 
L 109.19945 160.446806 
L 109.479009 160.169606 
L 109.758568 160.308206 
L 110.038127 160.031006 
L 110.317686 160.169606 
L 110.597245 160.585406 
L 110.876804 160.446806 
L 111.156363 159.753806 
L 111.435923 160.031006 
L 111.715482 159.892406 
L 112.2746 160.169606 
L 112.554159 159.892406 
L 112.833718 160.031006 
L 113.113277 160.031006 
L 113.672395 159.753806 
L 113.951955 159.338006 
L 114.231514 159.753806 
L 115.070191 159.753806 
L 115.34975 159.892406 
L 115.908868 160.585406 
L 116.188428 160.446806 
L 116.467987 159.892406 
L 116.747546 159.892406 
L 117.865782 160.446806 
L 118.145341 160.446806 
L 118.4249 160.862606 
L 118.70446 160.446806 
L 118.984019 160.446806 
L 119.543137 160.862606 
L 119.822696 161.001206 
L 120.661373 160.031006 
L 120.940933 160.169606 
L 121.220492 160.446806 
L 121.500051 159.615206 
L 121.77961 159.338006 
L 122.338728 160.724006 
L 122.618287 160.169606 
L 122.897846 160.031006 
L 123.177405 160.031006 
L 123.456965 160.446806 
L 123.736524 159.753806 
L 124.016083 160.308206 
L 124.295642 159.892406 
L 124.575201 160.031006 
L 125.134319 159.615206 
L 125.413878 159.615206 
L 125.972997 160.308206 
L 126.252556 159.892406 
L 126.532115 160.031006 
L 126.811674 159.892406 
L 127.091233 160.169606 
L 127.370792 159.753806 
L 127.92991 160.031006 
L 128.20947 159.615206 
L 128.768588 160.862606 
L 129.048147 161.001206 
L 129.327706 160.862606 
L 129.607265 161.001206 
L 129.886824 160.862606 
L 130.445943 159.892406 
L 130.725502 160.169606 
L 131.005061 160.169606 
L 131.564179 160.585406 
L 131.843738 160.031006 
L 132.123297 160.031006 
L 132.402856 160.169606 
L 132.682415 160.169606 
L 132.961975 160.031006 
L 133.521093 159.615206 
L 133.800652 160.169606 
L 134.080211 159.892406 
L 134.35977 160.031006 
L 134.918888 159.753806 
L 135.478007 160.308206 
L 135.757566 160.169606 
L 136.316684 160.169606 
L 136.596243 160.862606 
L 137.434921 159.892406 
L 137.994039 160.585406 
L 138.553157 160.169606 
L 138.832716 160.169606 
L 139.112275 160.031006 
L 139.391834 160.169606 
L 139.671393 160.446806 
L 139.950953 160.031006 
L 140.78963 160.724006 
L 141.069189 160.585406 
L 141.348748 160.585406 
L 141.628307 160.724006 
L 141.907866 159.892406 
L 142.187426 159.892406 
L 142.466985 159.615206 
L 142.746544 160.031006 
L 143.305662 159.753806 
L 143.585221 160.169606 
L 143.86478 160.308206 
L 144.144339 160.031006 
L 144.423898 160.169606 
L 144.703458 160.031006 
L 144.983017 160.446806 
L 145.262576 160.169606 
L 145.542135 160.169606 
L 145.821694 160.031006 
L 146.101253 160.585406 
L 146.380812 160.585406 
L 146.660371 160.724006 
L 146.939931 161.001206 
L 147.21949 160.446806 
L 148.058167 161.139806 
L 148.337726 160.724006 
L 148.617285 161.139806 
L 148.896844 160.724006 
L 149.176403 160.862606 
L 149.735522 160.446806 
L 150.015081 160.862606 
L 150.29464 160.724006 
L 150.574199 160.724006 
L 150.853758 161.001206 
L 151.133317 161.001206 
L 151.412876 160.446806 
L 151.692436 160.446806 
L 151.971995 160.308206 
L 152.251554 160.585406 
L 152.531113 161.278406 
L 152.810672 160.724006 
L 153.090231 160.862606 
L 153.36979 160.862606 
L 153.649349 161.001206 
L 153.928908 160.308206 
L 154.208468 160.585406 
L 154.488027 159.892406 
L 154.767586 160.031006 
L 155.047145 159.892406 
L 155.326704 159.476606 
L 155.606263 159.892406 
L 155.885822 159.753806 
L 156.165381 159.476606 
L 156.7245 159.476606 
L 157.004059 159.338006 
L 157.283618 159.753806 
L 157.563177 159.753806 
L 157.842736 159.476606 
L 158.122295 159.753806 
L 158.401854 159.753806 
L 158.960973 159.199406 
L 159.240532 159.476606 
L 159.520091 160.031006 
L 160.358768 160.031006 
L 160.638327 159.892406 
L 160.917886 160.169606 
L 161.197446 159.892406 
L 161.477005 160.446806 
L 161.756564 160.169606 
L 162.036123 160.585406 
L 162.315682 159.615206 
L 162.595241 159.615206 
L 162.8748 159.753806 
L 163.154359 159.615206 
L 163.433919 159.338006 
L 163.713478 159.615206 
L 163.993037 159.338006 
L 164.272596 159.338006 
L 164.831714 159.753806 
L 165.390832 159.476606 
L 165.670391 159.199406 
L 165.949951 159.199406 
L 166.509069 159.615206 
L 166.788628 159.615206 
L 167.347746 160.446806 
L 167.627305 160.308206 
L 167.906864 160.446806 
L 167.906864 160.446806 
" clip-path="url(#pd0d31542a8)" style="fill: none; stroke: #dedeee; stroke-linecap: square"/>
   </g>
   <g id="line2d_105">
    <path d="M 28.406864 174.445406 
L 167.906864 174.445406 
L 167.906864 174.445406 
" clip-path="url(#pd0d31542a8)" style="fill: none; stroke-dasharray: 3.7,1.6; stroke-dashoffset: 0; stroke: #9b9aca"/>
   </g>
   <g id="line2d_106">
    <path d="M 28.406864 161.139806 
L 28.686424 160.446806 
L 28.965983 158.783606 
L 29.245542 158.506406 
L 29.525101 157.952006 
L 30.084219 154.487006 
L 31.202456 143.537606 
L 31.761574 139.934006 
L 32.041133 139.241006 
L 32.320692 139.102406 
L 32.87981 137.023406 
L 33.159369 136.884806 
L 33.438929 136.053206 
L 33.998047 131.202206 
L 34.557165 128.291606 
L 34.836724 127.321406 
L 35.116283 127.321406 
L 35.395842 126.767006 
L 35.675401 127.044206 
L 36.23452 125.935406 
L 36.514079 123.717806 
L 36.793638 123.024806 
L 37.352756 122.747606 
L 37.632315 122.470406 
L 38.191434 118.312406 
L 38.470993 117.896606 
L 38.750552 116.787806 
L 39.030111 116.372006 
L 39.868788 118.728206 
L 40.148347 118.866806 
L 40.427906 118.589606 
L 40.707466 118.728206 
L 40.987025 118.589606 
L 41.266584 118.728206 
L 41.546143 118.728206 
L 41.825702 117.758006 
L 42.105261 117.342206 
L 42.38482 117.203606 
L 42.664379 117.480806 
L 43.223498 116.787806 
L 43.782616 116.787806 
L 44.062175 116.649206 
L 44.341734 116.372006 
L 44.621293 116.787806 
L 44.900852 116.926406 
L 45.180411 116.926406 
L 45.459971 116.787806 
L 45.73953 116.787806 
L 46.019089 116.649206 
L 46.298648 116.372006 
L 46.578207 116.372006 
L 46.857766 116.649206 
L 47.137325 116.649206 
L 47.416884 116.372006 
L 48.81468 110.550806 
L 49.094239 107.917406 
L 49.373798 106.670006 
L 49.932916 106.670006 
L 50.212476 105.699806 
L 50.492035 105.699806 
L 50.771594 105.422606 
L 51.330712 104.452406 
L 51.610271 104.452406 
L 51.88983 104.313806 
L 52.448949 103.205006 
L 52.728508 103.205006 
L 53.008067 103.482206 
L 53.287626 102.650606 
L 53.567185 101.403206 
L 53.846744 100.987406 
L 54.126303 100.155806 
L 54.405862 99.878606 
L 54.685422 99.878606 
L 54.964981 99.740006 
L 55.24454 99.740006 
L 55.524099 99.462806 
L 56.083217 100.155806 
L 56.362776 99.740006 
L 56.642335 99.740006 
L 56.921894 99.601406 
L 57.201454 99.740006 
L 57.481013 100.433006 
L 57.760572 100.571606 
L 58.040131 99.601406 
L 58.599249 98.908406 
L 58.878808 98.215406 
L 59.158367 98.354006 
L 59.437927 98.769806 
L 59.717486 98.215406 
L 60.276604 98.215406 
L 60.556163 98.492606 
L 60.835722 98.076806 
L 61.115281 98.076806 
L 61.39484 98.492606 
L 61.674399 98.354006 
L 61.953959 98.492606 
L 62.233518 98.354006 
L 62.513077 98.076806 
L 63.351754 99.740006 
L 63.910872 99.324206 
L 64.190432 99.324206 
L 64.469991 99.601406 
L 64.74955 99.462806 
L 65.029109 98.769806 
L 65.308668 96.136406 
L 65.867786 94.057406 
L 66.147345 93.780206 
L 66.426904 92.810006 
L 66.706464 92.810006 
L 66.986023 92.532806 
L 67.265582 92.532806 
L 68.104259 91.701206 
L 68.383818 91.701206 
L 68.663377 91.978406 
L 68.942937 92.532806 
L 69.222496 92.532806 
L 69.781614 91.562606 
L 70.061173 91.146806 
L 70.340732 91.285406 
L 70.620291 91.285406 
L 70.89985 91.146806 
L 71.738528 92.532806 
L 72.018087 92.532806 
L 72.856764 91.839806 
L 73.415882 92.394206 
L 73.695442 91.839806 
L 74.25456 91.839806 
L 74.534119 92.671406 
L 75.093237 91.978406 
L 75.372796 91.562606 
L 75.931914 91.839806 
L 76.211474 92.394206 
L 76.491033 92.532806 
L 77.050151 92.532806 
L 77.32971 92.671406 
L 77.609269 92.532806 
L 78.168387 92.810006 
L 78.447947 92.671406 
L 78.727506 91.978406 
L 79.286624 92.394206 
L 79.566183 92.532806 
L 79.845742 92.532806 
L 80.68442 91.701206 
L 80.963979 91.978406 
L 81.243538 91.978406 
L 81.523097 91.701206 
L 82.082215 92.394206 
L 82.361774 91.978406 
L 82.641333 91.839806 
L 82.920892 92.117006 
L 83.75957 91.701206 
L 84.039129 92.117006 
L 84.598247 91.562606 
L 84.877806 91.562606 
L 85.436925 92.255606 
L 85.716484 91.978406 
L 86.275602 92.394206 
L 86.555161 92.532806 
L 86.83472 92.255606 
L 87.114279 92.394206 
L 87.952957 91.285406 
L 88.232516 91.701206 
L 88.512075 91.701206 
L 88.791634 91.839806 
L 89.071193 91.285406 
L 89.350752 91.146806 
L 89.630311 91.701206 
L 90.18943 91.978406 
L 90.468989 91.146806 
L 90.748548 90.869606 
L 91.307666 90.869606 
L 91.587225 90.731006 
L 91.866784 91.146806 
L 92.146343 90.869606 
L 92.705462 91.424006 
L 93.26458 89.622206 
L 94.382816 88.374806 
L 94.662375 88.929206 
L 94.941935 88.929206 
L 95.221494 88.790606 
L 95.780612 88.790606 
L 96.060171 88.374806 
L 96.33973 88.652006 
L 96.619289 88.652006 
L 96.898848 88.929206 
L 97.178407 88.929206 
L 97.457967 88.236206 
L 97.737526 88.513406 
L 98.296644 87.820406 
L 98.576203 87.959006 
L 98.855762 87.681806 
L 99.135321 88.513406 
L 99.69444 88.790606 
L 99.973999 88.790606 
L 100.253558 88.929206 
L 100.812676 88.929206 
L 101.371794 88.652006 
L 101.651353 88.652006 
L 101.930912 88.374806 
L 102.210472 88.513406 
L 102.76959 87.543206 
L 103.049149 87.681806 
L 103.608267 87.266006 
L 103.887826 87.681806 
L 104.446945 87.266006 
L 105.285622 87.681806 
L 105.565181 87.543206 
L 105.84474 87.543206 
L 106.124299 87.266006 
L 107.242536 88.236206 
L 107.522095 88.374806 
L 107.801654 88.929206 
L 108.081213 88.374806 
L 108.640331 87.959006 
L 108.91989 87.820406 
L 109.19945 87.266006 
L 109.479009 87.404606 
L 109.758568 87.266006 
L 110.038127 87.266006 
L 110.317686 87.127406 
L 110.597245 86.850206 
L 110.876804 86.988806 
L 111.156363 87.820406 
L 111.435923 87.404606 
L 111.715482 87.404606 
L 111.995041 86.988806 
L 112.2746 86.988806 
L 112.833718 86.573006 
L 113.392836 86.850206 
L 113.672395 86.850206 
L 113.951955 87.127406 
L 114.231514 86.850206 
L 114.511073 85.602806 
L 114.790632 85.187006 
L 115.070191 85.048406 
L 115.34975 84.632606 
L 115.629309 83.939606 
L 115.908868 83.662406 
L 116.188428 83.801006 
L 116.467987 84.494006 
L 116.747546 84.771206 
L 117.027105 84.771206 
L 117.306664 84.355406 
L 117.586223 84.355406 
L 117.865782 84.078206 
L 118.145341 84.216806 
L 118.4249 83.939606 
L 118.70446 84.355406 
L 118.984019 84.355406 
L 119.822696 83.662406 
L 120.102255 83.801006 
L 120.661373 84.494006 
L 121.220492 84.216806 
L 121.77961 85.325606 
L 122.338728 83.939606 
L 122.897846 84.771206 
L 123.177405 84.771206 
L 123.456965 84.355406 
L 123.736524 84.771206 
L 124.016083 84.355406 
L 124.295642 84.909806 
L 124.575201 84.771206 
L 125.134319 85.187006 
L 125.413878 85.187006 
L 125.972997 84.494006 
L 126.252556 84.771206 
L 126.532115 84.771206 
L 126.811674 84.909806 
L 127.091233 84.632606 
L 127.370792 84.771206 
L 127.650351 84.632606 
L 127.92991 84.632606 
L 128.20947 84.909806 
L 128.768588 83.662406 
L 129.886824 83.662406 
L 130.445943 84.632606 
L 130.725502 84.494006 
L 131.005061 84.494006 
L 131.564179 84.078206 
L 131.843738 84.355406 
L 132.123297 84.355406 
L 132.402856 84.494006 
L 132.682415 84.355406 
L 133.521093 85.187006 
L 133.800652 84.632606 
L 134.080211 84.632606 
L 134.35977 84.494006 
L 134.639329 84.771206 
L 134.918888 84.771206 
L 135.198448 84.355406 
L 135.478007 84.216806 
L 135.757566 84.355406 
L 136.037125 84.078206 
L 136.316684 84.216806 
L 136.596243 83.939606 
L 136.875802 84.078206 
L 137.434921 84.771206 
L 137.994039 84.216806 
L 138.553157 84.494006 
L 138.832716 84.494006 
L 139.112275 84.632606 
L 139.391834 84.632606 
L 139.671393 84.216806 
L 139.950953 84.494006 
L 140.510071 84.078206 
L 140.78963 84.078206 
L 141.069189 84.216806 
L 141.348748 84.078206 
L 141.628307 84.078206 
L 141.907866 84.771206 
L 142.466985 85.048406 
L 142.746544 84.771206 
L 143.026103 84.909806 
L 143.305662 84.909806 
L 143.585221 84.494006 
L 143.86478 84.355406 
L 144.144339 84.632606 
L 144.423898 84.355406 
L 144.703458 84.632606 
L 144.983017 84.216806 
L 145.262576 84.494006 
L 145.542135 84.494006 
L 145.821694 84.632606 
L 146.380812 83.939606 
L 146.660371 83.939606 
L 146.939931 83.662406 
L 147.21949 84.078206 
L 147.499049 83.662406 
L 147.778608 83.523806 
L 148.337726 83.801006 
L 148.617285 83.662406 
L 148.896844 84.078206 
L 149.176403 83.939606 
L 149.455963 84.078206 
L 149.735522 84.078206 
L 150.015081 83.801006 
L 150.29464 83.939606 
L 150.574199 83.939606 
L 150.853758 83.801006 
L 151.133317 83.801006 
L 151.412876 84.355406 
L 151.971995 84.355406 
L 152.531113 83.385206 
L 153.090231 83.801006 
L 153.36979 83.801006 
L 153.649349 83.523806 
L 153.928908 84.355406 
L 154.208468 84.078206 
L 154.488027 84.771206 
L 154.767586 84.494006 
L 155.326704 85.048406 
L 155.606263 84.632606 
L 156.444941 85.325606 
L 156.7245 85.325606 
L 157.004059 85.464206 
L 157.283618 84.909806 
L 157.563177 85.048406 
L 157.842736 85.325606 
L 158.401854 84.909806 
L 158.681413 85.325606 
L 158.960973 85.325606 
L 159.79965 84.355406 
L 160.079209 84.494006 
L 160.358768 84.494006 
L 160.638327 84.632606 
L 160.917886 84.355406 
L 161.197446 84.771206 
L 161.477005 84.355406 
L 161.756564 84.355406 
L 162.036123 83.939606 
L 162.595241 85.048406 
L 162.8748 84.909806 
L 163.433919 85.187006 
L 163.713478 84.909806 
L 164.272596 85.325606 
L 164.831714 84.909806 
L 165.111273 85.048406 
L 165.390832 85.325606 
L 165.670391 85.325606 
L 165.949951 85.602806 
L 166.22951 85.187006 
L 166.509069 85.048406 
L 166.788628 85.187006 
L 167.068187 84.632606 
L 167.906864 83.939606 
L 167.906864 83.939606 
" clip-path="url(#pd0d31542a8)" style="fill: none; stroke-dasharray: 1,1.65; stroke-dashoffset: 0; stroke: #7976b8"/>
   </g>
   <g id="line2d_107">
    <path d="M 28.406864 61.486406 
L 28.965983 67.169006 
L 29.525101 72.435806 
L 30.084219 78.534206 
L 31.202456 90.315206 
L 31.482015 91.424006 
L 32.320692 96.413606 
L 32.87981 98.908406 
L 33.159369 99.185606 
L 33.438929 100.155806 
L 33.998047 105.561206 
L 34.277606 107.224406 
L 34.836724 109.164806 
L 35.116283 109.719206 
L 35.395842 112.214006 
L 35.675401 112.629806 
L 36.23452 114.015806 
L 36.514079 115.540406 
L 36.793638 116.094806 
L 37.073197 116.233406 
L 37.352756 115.817606 
L 37.911874 117.896606 
L 38.191434 120.807206 
L 38.470993 120.252806 
L 38.750552 120.668606 
L 39.030111 120.668606 
L 39.30967 121.638806 
L 39.589229 121.223006 
L 39.868788 121.084406 
L 40.148347 121.223006 
L 40.427906 120.807206 
L 40.707466 120.945806 
L 41.546143 121.777406 
L 41.825702 122.331806 
L 42.38482 122.331806 
L 42.664379 122.747606 
L 42.943939 122.886206 
L 43.223498 122.747606 
L 43.503057 122.886206 
L 43.782616 123.440606 
L 44.062175 123.302006 
L 44.621293 123.302006 
L 44.900852 123.440606 
L 45.180411 123.302006 
L 45.459971 123.579206 
L 45.73953 123.302006 
L 46.019089 123.302006 
L 46.298648 123.579206 
L 46.578207 124.272206 
L 46.857766 123.995006 
L 47.137325 123.995006 
L 47.696444 123.717806 
L 48.255562 125.103806 
L 48.535121 125.242406 
L 49.094239 125.796806 
L 49.373798 125.519606 
L 49.932916 125.519606 
L 50.212476 125.796806 
L 50.492035 125.658206 
L 51.610271 125.658206 
L 51.88983 125.935406 
L 52.169389 125.796806 
L 52.448949 125.519606 
L 52.728508 125.796806 
L 53.008067 125.658206 
L 53.287626 125.658206 
L 53.567185 125.935406 
L 53.846744 125.658206 
L 54.126303 125.796806 
L 54.405862 126.074006 
L 54.964981 125.658206 
L 55.24454 125.519606 
L 55.524099 125.658206 
L 55.803658 125.935406 
L 56.083217 125.935406 
L 56.362776 125.796806 
L 56.642335 125.796806 
L 56.921894 126.212606 
L 57.201454 126.212606 
L 57.481013 126.074006 
L 57.760572 126.351206 
L 58.040131 126.351206 
L 58.31969 126.212606 
L 58.599249 126.212606 
L 59.158367 127.875806 
L 59.437927 128.014406 
L 59.717486 128.014406 
L 59.997045 127.875806 
L 60.276604 127.875806 
L 60.556163 127.737206 
L 60.835722 128.014406 
L 61.115281 128.014406 
L 61.39484 127.875806 
L 62.513077 127.875806 
L 63.072195 127.598606 
L 63.351754 127.875806 
L 63.631313 127.875806 
L 63.910872 127.737206 
L 64.469991 128.153006 
L 64.74955 128.014406 
L 65.029109 128.846006 
L 65.308668 131.756606 
L 65.588227 132.311006 
L 66.147345 132.726806 
L 66.426904 132.865406 
L 66.986023 132.449606 
L 67.545141 132.449606 
L 67.8247 132.588206 
L 68.383818 132.588206 
L 68.663377 132.449606 
L 68.942937 132.449606 
L 69.222496 132.588206 
L 69.502055 132.449606 
L 70.061173 132.726806 
L 70.89985 132.726806 
L 71.458969 132.449606 
L 71.738528 132.449606 
L 72.297646 132.726806 
L 72.577205 132.588206 
L 72.856764 132.726806 
L 73.415882 132.449606 
L 73.695442 132.588206 
L 73.975001 132.449606 
L 74.25456 132.449606 
L 74.813678 132.726806 
L 75.093237 132.449606 
L 75.372796 132.726806 
L 75.652355 132.449606 
L 76.211474 132.726806 
L 76.491033 133.004006 
L 76.770592 132.588206 
L 77.050151 132.588206 
L 77.32971 132.449606 
L 77.609269 132.449606 
L 78.168387 132.726806 
L 79.566183 132.726806 
L 79.845742 132.449606 
L 80.68442 132.449606 
L 80.963979 132.588206 
L 81.243538 132.449606 
L 81.523097 132.588206 
L 81.802656 132.588206 
L 82.361774 132.865406 
L 82.641333 132.726806 
L 82.920892 132.449606 
L 83.200452 132.449606 
L 83.480011 132.588206 
L 83.75957 132.449606 
L 84.039129 132.588206 
L 84.318688 132.588206 
L 84.598247 132.726806 
L 84.877806 132.588206 
L 85.157365 132.588206 
L 85.436925 132.726806 
L 86.275602 132.726806 
L 86.555161 132.865406 
L 86.83472 133.142606 
L 87.114279 133.142606 
L 87.393838 133.419806 
L 87.673397 133.419806 
L 87.952957 133.558406 
L 88.232516 133.281206 
L 88.512075 133.419806 
L 89.071193 133.142606 
L 89.350752 133.142606 
L 89.90987 133.419806 
L 90.18943 133.419806 
L 90.748548 133.835606 
L 91.028107 133.974206 
L 91.587225 133.974206 
L 92.425902 134.390006 
L 92.985021 134.944406 
L 93.26458 136.330406 
L 93.544139 136.469006 
L 93.823698 136.053206 
L 94.382816 136.330406 
L 94.662375 136.607606 
L 94.941935 136.469006 
L 95.221494 136.469006 
L 95.501053 136.330406 
L 95.780612 136.330406 
L 96.060171 136.191806 
L 96.33973 136.191806 
L 96.619289 136.330406 
L 97.178407 136.330406 
L 97.457967 136.746206 
L 97.737526 136.607606 
L 98.017085 136.607606 
L 98.296644 137.023406 
L 98.576203 136.469006 
L 98.855762 136.330406 
L 99.135321 136.330406 
L 99.41488 136.191806 
L 100.533117 136.191806 
L 100.812676 136.330406 
L 101.092235 136.191806 
L 101.371794 136.330406 
L 101.651353 136.607606 
L 102.210472 136.191806 
L 102.490031 136.191806 
L 102.76959 136.469006 
L 103.049149 136.191806 
L 103.608267 136.607606 
L 103.887826 136.330406 
L 104.446945 136.330406 
L 104.726504 136.469006 
L 105.006063 136.469006 
L 105.285622 136.330406 
L 105.565181 136.469006 
L 106.124299 136.191806 
L 106.403858 136.330406 
L 106.683418 136.607606 
L 106.962977 136.469006 
L 107.242536 136.607606 
L 107.522095 136.330406 
L 108.081213 136.330406 
L 108.360772 136.607606 
L 108.640331 136.607606 
L 109.19945 137.023406 
L 109.479009 137.162006 
L 109.758568 137.162006 
L 110.038127 137.439206 
L 110.317686 137.439206 
L 110.597245 137.300606 
L 110.876804 137.300606 
L 111.156363 137.162006 
L 111.715482 137.439206 
L 111.995041 137.716406 
L 112.2746 137.577806 
L 112.554159 138.132206 
L 112.833718 138.132206 
L 113.113277 137.993606 
L 113.392836 137.993606 
L 113.951955 138.270806 
L 114.231514 138.132206 
L 114.511073 139.379606 
L 114.790632 139.795406 
L 115.070191 139.934006 
L 115.629309 140.627006 
L 115.908868 140.488406 
L 116.188428 140.488406 
L 116.467987 140.349806 
L 117.027105 139.934006 
L 117.306664 140.211206 
L 117.586223 140.072606 
L 117.865782 140.211206 
L 118.4249 139.934006 
L 119.543137 139.934006 
L 120.102255 140.211206 
L 120.940933 140.211206 
L 121.220492 140.072606 
L 121.500051 140.211206 
L 121.77961 140.072606 
L 122.338728 140.072606 
L 122.618287 140.211206 
L 122.897846 139.934006 
L 123.456965 139.934006 
L 123.736524 140.211206 
L 124.295642 139.934006 
L 125.972997 139.934006 
L 126.252556 140.072606 
L 126.532115 139.934006 
L 127.091233 139.934006 
L 127.370792 140.211206 
L 127.650351 140.211206 
L 127.92991 140.072606 
L 128.20947 140.211206 
L 128.768588 140.211206 
L 129.048147 140.072606 
L 129.327706 140.211206 
L 129.607265 140.072606 
L 129.886824 140.211206 
L 130.445943 140.211206 
L 130.725502 140.072606 
L 131.564179 140.072606 
L 131.843738 140.349806 
L 132.123297 140.349806 
L 132.402856 140.072606 
L 132.682415 140.211206 
L 132.961975 140.072606 
L 133.241534 140.072606 
L 133.521093 139.934006 
L 133.800652 139.934006 
L 134.080211 140.211206 
L 134.35977 140.211206 
L 134.639329 140.072606 
L 135.198448 140.349806 
L 135.478007 140.211206 
L 135.757566 140.211206 
L 136.037125 140.488406 
L 136.316684 140.349806 
L 136.596243 139.934006 
L 136.875802 140.072606 
L 137.434921 140.072606 
L 137.71448 139.934006 
L 137.994039 139.934006 
L 138.273598 140.072606 
L 139.112275 140.072606 
L 139.391834 139.934006 
L 139.950953 140.211206 
L 140.510071 140.211206 
L 140.78963 139.934006 
L 141.069189 139.934006 
L 141.348748 140.072606 
L 141.628307 139.934006 
L 141.907866 140.072606 
L 142.187426 139.934006 
L 142.466985 140.072606 
L 142.746544 139.934006 
L 143.026103 139.934006 
L 143.305662 140.072606 
L 144.144339 140.072606 
L 144.423898 140.211206 
L 144.703458 140.072606 
L 145.821694 140.072606 
L 146.101253 139.934006 
L 146.380812 140.211206 
L 146.660371 140.072606 
L 146.939931 140.072606 
L 147.499049 140.349806 
L 148.058167 139.934006 
L 148.337726 140.211206 
L 148.617285 139.934006 
L 149.176403 139.934006 
L 149.735522 140.211206 
L 150.015081 140.072606 
L 150.574199 140.072606 
L 150.853758 139.934006 
L 151.692436 139.934006 
L 152.251554 140.211206 
L 152.531113 140.072606 
L 152.810672 140.349806 
L 153.090231 140.072606 
L 153.36979 140.072606 
L 153.649349 140.211206 
L 153.928908 140.072606 
L 154.488027 140.072606 
L 154.767586 140.211206 
L 155.047145 140.072606 
L 155.326704 140.211206 
L 155.606263 140.211206 
L 155.885822 140.072606 
L 156.165381 140.072606 
L 156.444941 139.934006 
L 157.004059 139.934006 
L 157.283618 140.072606 
L 157.563177 139.934006 
L 158.122295 139.934006 
L 158.401854 140.072606 
L 158.681413 139.934006 
L 158.960973 140.211206 
L 159.240532 140.211206 
L 159.520091 140.072606 
L 159.79965 140.349806 
L 160.079209 140.211206 
L 160.917886 140.211206 
L 161.477005 139.934006 
L 161.756564 140.211206 
L 162.036123 140.211206 
L 162.315682 140.488406 
L 162.595241 140.072606 
L 163.154359 140.072606 
L 163.433919 140.211206 
L 163.993037 140.211206 
L 164.272596 140.072606 
L 165.111273 140.072606 
L 165.390832 139.934006 
L 165.670391 140.211206 
L 165.949951 139.934006 
L 166.22951 140.072606 
L 166.509069 140.072606 
L 166.788628 139.934006 
L 167.068187 140.072606 
L 167.347746 139.934006 
L 167.906864 140.349806 
L 167.906864 140.349806 
" clip-path="url(#pd0d31542a8)" style="fill: none; stroke-dasharray: 6.4,1.6,1,1.6; stroke-dashoffset: 0; stroke: #201f3d"/>
   </g>
   <g id="patch_3">
    <path d="M 28.406864 174.445406 
L 28.406864 35.845406 
" style="fill: none; stroke: #000000; stroke-width: 0.5; stroke-linejoin: miter; stroke-linecap: square"/>
   </g>
   <g id="patch_4">
    <path d="M 167.906864 174.445406 
L 167.906864 35.845406 
" style="fill: none; stroke: #000000; stroke-width: 0.5; stroke-linejoin: miter; stroke-linecap: square"/>
   </g>
   <g id="patch_5">
    <path d="M 28.406864 174.445406 
L 167.906864 174.445406 
" style="fill: none; stroke: #000000; stroke-width: 0.5; stroke-linejoin: miter; stroke-linecap: square"/>
   </g>
   <g id="patch_6">
    <path d="M 28.406864 35.845406 
L 167.906864 35.845406 
" style="fill: none; stroke: #000000; stroke-width: 0.5; stroke-linejoin: miter; stroke-linecap: square"/>
   </g>
   <g id="text_14">
    <!-- Evolucin de Dinamarca -->
    <g transform="translate(50.70957 10.084396) scale(0.096 -0.096)">
     <defs>
      <path id="NimbusRomNo9L-Regu-45" d="M 3821 1078 
L 3642 1078 
C 3322 389 3046 237 2131 237 
L 1958 237 
C 1645 237 1376 269 1331 315 
C 1299 334 1286 404 1286 514 
L 1286 2106 
L 2272 2106 
C 2797 2106 2893 2020 2976 1472 
L 3123 1472 
L 3123 2957 
L 2976 2957 
C 2931 2703 2906 2610 2835 2523 
C 2752 2417 2573 2368 2272 2368 
L 1286 2368 
L 1286 3766 
C 1286 3943 1325 3981 1498 3981 
L 2362 3981 
C 3085 3981 3226 3886 3334 3314 
L 3494 3314 
L 3475 4224 
L 77 4224 
L 77 4102 
C 550 4064 634 3974 634 3525 
L 634 679 
C 634 230 544 134 77 134 
L 77 0 
L 3533 0 
L 3821 1078 
z
" transform="scale(0.015625)"/>
      <path id="NimbusRomNo9L-Regu-76" d="M 3053 2854 
L 2163 2854 
L 2163 2758 
C 2368 2739 2464 2675 2464 2552 
C 2464 2488 2451 2424 2426 2359 
L 1792 695 
L 1139 2340 
C 1101 2431 1082 2520 1082 2578 
C 1082 2694 1152 2739 1376 2758 
L 1376 2854 
L 122 2854 
L 122 2752 
C 365 2752 410 2688 704 2024 
L 1472 175 
C 1485 137 1504 91 1523 40 
C 1562 -76 1600 -128 1638 -128 
C 1677 -128 1722 -44 1818 193 
L 2637 2257 
C 2822 2694 2861 2739 3053 2758 
L 3053 2854 
z
" transform="scale(0.015625)"/>
      <path id="NimbusRomNo9L-Regu-6c" d="M 122 4000 
L 160 4000 
C 230 4000 307 4000 358 4000 
C 563 4000 627 3910 627 3610 
L 627 557 
C 627 211 538 128 134 96 
L 134 0 
L 1645 0 
L 1645 109 
C 1242 109 1165 173 1165 528 
L 1165 4371 
L 1139 4384 
C 806 4275 563 4211 122 4103 
L 122 4000 
z
" transform="scale(0.015625)"/>
      <path id="NimbusRomNo9L-Regu-75" d="M 3066 320 
L 3034 320 
C 2739 320 2669 390 2669 685 
L 2669 2880 
L 1658 2880 
L 1658 2758 
C 2054 2758 2131 2694 2131 2375 
L 2131 875 
C 2131 697 2099 607 2010 537 
C 1837 397 1638 320 1446 320 
C 1197 320 992 537 992 805 
L 992 2880 
L 58 2880 
L 58 2778 
C 365 2778 454 2682 454 2387 
L 454 770 
C 454 263 762 -64 1229 -64 
C 1466 -64 1715 38 1888 211 
L 2163 486 
L 2163 -45 
L 2189 -58 
C 2509 70 2739 141 3066 230 
L 3066 320 
z
" transform="scale(0.015625)"/>
      <path id="NimbusRomNo9L-Regu-b4" d="M 851 3264 
L 1837 3882 
C 1971 3964 2029 4047 2029 4148 
C 2029 4275 1946 4352 1805 4352 
C 1709 4352 1651 4320 1536 4206 
L 595 3264 
L 851 3264 
z
" transform="scale(0.015625)"/>
      <path id="NimbusRomNo9L-Regu-64" d="M 2202 -64 
L 3142 269 
L 3142 365 
C 3027 365 3014 365 2995 365 
C 2765 365 2714 435 2714 731 
L 2714 4364 
L 2682 4377 
C 2374 4268 2150 4204 1741 4096 
L 1741 3994 
C 1792 4000 1830 4000 1882 4000 
C 2118 4000 2176 3936 2176 3672 
L 2176 2669 
C 1933 2874 1760 2944 1504 2944 
C 768 2944 173 2221 173 1312 
C 173 493 653 -64 1357 -64 
C 1715 -64 1958 64 2176 365 
L 2176 -45 
L 2202 -64 
z
M 2176 653 
C 2176 608 2131 531 2067 461 
C 1952 333 1792 269 1606 269 
C 1075 269 723 781 723 1568 
C 723 2291 1037 2765 1523 2765 
C 1862 2765 2176 2464 2176 2125 
L 2176 653 
z
" transform="scale(0.015625)"/>
      <path id="NimbusRomNo9L-Regu-44" d="M 666 679 
C 666 217 589 134 102 134 
L 102 0 
L 1920 0 
C 2662 0 3334 210 3731 568 
C 4147 944 4384 1512 4384 2131 
C 4384 2706 4192 3203 3840 3554 
C 3405 3994 2707 4224 1830 4224 
L 102 4224 
L 102 4102 
C 608 4057 666 4000 666 3525 
L 666 679 
z
M 1318 3738 
C 1318 3936 1389 3987 1651 3987 
C 2202 3987 2618 3885 2925 3668 
C 3424 3323 3686 2775 3686 2087 
C 3686 1334 3424 798 2906 498 
C 2579 314 2208 237 1651 237 
C 1395 237 1318 294 1318 498 
L 1318 3738 
z
" transform="scale(0.015625)"/>
      <path id="NimbusRomNo9L-Regu-6d" d="M 122 2547 
C 205 2566 256 2573 326 2573 
C 493 2573 550 2470 550 2162 
L 550 539 
C 550 192 461 96 102 96 
L 102 0 
L 1523 0 
L 1523 96 
C 1184 96 1088 166 1088 418 
L 1088 2234 
C 1088 2246 1139 2310 1184 2355 
C 1344 2502 1619 2611 1843 2611 
C 2125 2611 2266 2385 2266 1932 
L 2266 528 
C 2266 167 2195 96 1830 96 
L 1830 0 
L 3264 0 
L 3264 96 
C 2899 96 2803 205 2803 603 
L 2803 2221 
C 2995 2496 3206 2611 3501 2611 
C 3866 2611 3981 2438 3981 1907 
L 3981 557 
C 3981 192 3930 141 3558 96 
L 3558 0 
L 4960 0 
L 4960 96 
L 4794 115 
C 4602 115 4518 230 4518 480 
L 4518 1802 
C 4518 2559 4269 2944 3776 2944 
C 3405 2944 3078 2778 2733 2407 
C 2618 2771 2400 2944 2054 2944 
C 1773 2944 1594 2854 1062 2451 
L 1062 2931 
L 1018 2944 
C 691 2822 474 2752 122 2656 
L 122 2547 
z
" transform="scale(0.015625)"/>
     </defs>
     <use xlink:href="#NimbusRomNo9L-Regu-45" transform="scale(0.996264)"/>
     <use xlink:href="#NimbusRomNo9L-Regu-76" transform="translate(60.871631 0) scale(0.996264)"/>
     <use xlink:href="#NimbusRomNo9L-Regu-6f" transform="translate(108.69282 0) scale(0.996264)"/>
     <use xlink:href="#NimbusRomNo9L-Regu-6c" transform="translate(158.506021 0) scale(0.996264)"/>
     <use xlink:href="#NimbusRomNo9L-Regu-75" transform="translate(186.20119 0) scale(0.996264)"/>
     <use xlink:href="#NimbusRomNo9L-Regu-63" transform="translate(236.014391 0) scale(0.996264)"/>
     <use xlink:href="#NimbusRomNo9L-Regu-69" transform="translate(280.247959 0) scale(0.996264)"/>
     <use xlink:href="#NimbusRomNo9L-Regu-b4" transform="translate(316.262122 0.498056) scale(0.996264)"/>
     <use xlink:href="#NimbusRomNo9L-Regu-6f" transform="translate(307.943129 0) scale(0.996264)"/>
     <use xlink:href="#NimbusRomNo9L-Regu-6e" transform="translate(357.756329 0) scale(0.996264)"/>
     <use xlink:href="#NimbusRomNo9L-Regu-64" transform="translate(432.47613 0) scale(0.996264)"/>
     <use xlink:href="#NimbusRomNo9L-Regu-65" transform="translate(482.289331 0) scale(0.996264)"/>
     <use xlink:href="#NimbusRomNo9L-Regu-44" transform="translate(551.4295 0) scale(0.996264)"/>
     <use xlink:href="#NimbusRomNo9L-Regu-69" transform="translate(623.359484 0) scale(0.996264)"/>
     <use xlink:href="#NimbusRomNo9L-Regu-6e" transform="translate(651.054654 0) scale(0.996264)"/>
     <use xlink:href="#NimbusRomNo9L-Regu-61" transform="translate(700.867855 0) scale(0.996264)"/>
     <use xlink:href="#NimbusRomNo9L-Regu-6d" transform="translate(745.101423 0) scale(0.996264)"/>
     <use xlink:href="#NimbusRomNo9L-Regu-61" transform="translate(822.609793 0) scale(0.996264)"/>
     <use xlink:href="#NimbusRomNo9L-Regu-72" transform="translate(866.843362 0) scale(0.996264)"/>
     <use xlink:href="#NimbusRomNo9L-Regu-63" transform="translate(900.018592 0) scale(0.996264)"/>
     <use xlink:href="#NimbusRomNo9L-Regu-61" transform="translate(944.25216 0) scale(0.996264)"/>
    </g>
    <!-- Barabsi-Albert (m=1) - Homofilia: 0.0\%  -->
    <g transform="translate(18.273315 19.936215) scale(0.096 -0.096)">
     <defs>
      <path id="NimbusRomNo9L-Regu-42" d="M 109 4237 
L 109 4096 
C 646 4096 723 4026 723 3548 
L 723 689 
C 723 212 640 128 109 128 
L 109 0 
L 2246 0 
C 2746 0 3200 136 3437 356 
C 3667 564 3795 855 3795 1165 
C 3795 1451 3680 1710 3482 1897 
C 3290 2072 3117 2150 2701 2253 
C 3034 2335 3168 2398 3322 2531 
C 3482 2671 3578 2903 3578 3163 
C 3578 3871 3008 4237 1901 4237 
L 109 4237 
z
M 1376 2112 
C 1997 2112 2291 2080 2522 1982 
C 2886 1827 3059 1568 3059 1159 
C 3059 809 2925 555 2669 406 
C 2464 290 2202 238 1779 238 
C 1466 238 1376 296 1376 504 
L 1376 2112 
z
M 1376 2368 
L 1376 3812 
C 1376 3944 1421 4001 1517 4001 
L 1798 4001 
C 2534 4001 2925 3699 2925 3137 
C 2925 2646 2586 2368 1984 2368 
L 1376 2368 
z
" transform="scale(0.015625)"/>
      <path id="NimbusRomNo9L-Regu-62" d="M 979 4364 
L 947 4377 
C 678 4281 506 4230 205 4147 
L 19 4096 
L 19 3994 
C 58 4000 83 4000 128 4000 
C 384 4000 442 3942 442 3673 
L 442 347 
C 442 147 986 -64 1498 -64 
C 2342 -64 2995 640 2995 1555 
C 2995 2342 2509 2944 1869 2944 
C 1478 2944 1107 2714 979 2400 
L 979 4364 
z
M 979 2061 
C 979 2310 1280 2541 1613 2541 
C 2112 2541 2432 2042 2432 1261 
C 2432 550 2125 141 1600 141 
C 1267 141 979 288 979 448 
L 979 2061 
z
" transform="scale(0.015625)"/>
      <path id="NimbusRomNo9L-Regu-2d" d="M 250 1619 
L 250 1216 
L 1824 1216 
L 1824 1619 
L 250 1619 
z
" transform="scale(0.015625)"/>
      <path id="NimbusRomNo9L-Regu-41" d="M 4518 128 
C 4230 128 4166 192 3942 667 
L 2349 4320 
L 2221 4320 
L 890 1168 
C 480 231 403 128 96 128 
L 96 0 
L 1363 0 
L 1363 128 
C 1056 128 928 212 928 393 
C 928 470 947 560 979 645 
L 1274 1401 
L 2950 1401 
L 3213 778 
C 3290 602 3334 434 3334 342 
C 3334 180 3226 128 2886 128 
L 2886 0 
L 4518 0 
L 4518 128 
z
M 1382 1664 
L 2118 3416 
L 2861 1664 
L 1382 1664 
z
" transform="scale(0.015625)"/>
      <path id="NimbusRomNo9L-Regu-28" d="M 1888 4326 
C 1414 4019 1222 3853 986 3558 
C 531 3002 307 2362 307 1613 
C 307 800 544 173 1107 -480 
C 1370 -787 1536 -928 1869 -1133 
L 1946 -1030 
C 1434 -627 1254 -403 1082 77 
C 928 506 858 992 858 1632 
C 858 2304 941 2829 1114 3226 
C 1293 3622 1485 3853 1946 4224 
L 1888 4326 
z
" transform="scale(0.015625)"/>
      <path id="NimbusRomNo9L-Regu-3d" d="M 3418 2470 
L 192 2470 
L 192 2048 
L 3418 2048 
L 3418 2470 
z
M 3418 1190 
L 192 1190 
L 192 768 
L 3418 768 
L 3418 1190 
z
" transform="scale(0.015625)"/>
      <path id="NimbusRomNo9L-Regu-29" d="M 243 -1133 
C 717 -826 909 -659 1146 -365 
C 1600 192 1824 832 1824 1581 
C 1824 2400 1587 3021 1024 3674 
C 762 3981 595 4122 262 4326 
L 186 4224 
C 698 3821 870 3597 1050 3117 
C 1203 2688 1274 2202 1274 1562 
C 1274 896 1190 365 1018 -26 
C 838 -429 646 -659 186 -1030 
L 243 -1133 
z
" transform="scale(0.015625)"/>
      <path id="NimbusRomNo9L-Regu-48" d="M 1338 2304 
L 1338 3533 
C 1338 3990 1408 4059 1901 4104 
L 1901 4224 
L 122 4224 
L 122 4104 
C 614 4059 685 3989 685 3527 
L 685 749 
C 685 210 621 134 122 134 
L 122 0 
L 1901 0 
L 1901 121 
C 1421 159 1338 242 1338 699 
L 1338 2022 
L 3277 2022 
L 3277 757 
C 3277 211 3213 134 2714 134 
L 2714 0 
L 4493 0 
L 4493 121 
C 4013 159 3930 242 3930 696 
L 3930 3529 
C 3930 3989 4000 4059 4493 4104 
L 4493 4224 
L 2714 4224 
L 2714 4104 
C 3206 4059 3277 3990 3277 3533 
L 3277 2304 
L 1338 2304 
z
" transform="scale(0.015625)"/>
      <path id="NimbusRomNo9L-Regu-2" d="M 198 2669 
L 634 2669 
L 634 566 
C 634 148 563 64 205 64 
L 205 -38 
L 1613 -38 
L 1613 58 
C 1254 84 1171 175 1171 532 
L 1171 2669 
L 1722 2669 
C 2336 2669 2368 2650 2368 2305 
L 2368 591 
C 2368 149 2323 90 1926 58 
L 1926 -38 
L 3334 -38 
L 3334 58 
C 2976 90 2906 175 2906 590 
L 2906 2289 
C 2906 2431 2906 2581 2918 2924 
L 2893 2943 
C 2611 2899 2426 2880 2170 2880 
L 1165 2880 
L 1165 3151 
C 1165 3429 1184 3624 1216 3732 
C 1306 4003 1555 4192 1843 4192 
C 2022 4192 2144 4110 2298 3895 
C 2419 3726 2502 3663 2611 3663 
C 2746 3663 2842 3770 2842 3909 
C 2842 4175 2522 4352 2029 4352 
C 1542 4352 1171 4188 941 3878 
C 749 3619 678 3385 640 2880 
L 198 2880 
L 198 2669 
z
" transform="scale(0.015625)"/>
      <path id="NimbusRomNo9L-Regu-3a" d="M 870 2944 
C 678 2944 518 2777 518 2579 
C 518 2393 678 2233 864 2233 
C 1062 2233 1229 2393 1229 2579 
C 1229 2777 1062 2944 870 2944 
z
M 870 646 
C 678 646 518 480 518 281 
C 518 96 678 -64 864 -64 
C 1062 -64 1229 96 1229 281 
C 1229 480 1062 646 870 646 
z
" transform="scale(0.015625)"/>
      <path id="NimbusRomNo9L-Regu-2e" d="M 800 646 
C 608 646 448 480 448 281 
C 448 96 608 -64 794 -64 
C 992 -64 1158 96 1158 281 
C 1158 480 992 646 800 646 
z
" transform="scale(0.015625)"/>
      <path id="NimbusRomNo9L-Regu-25" d="M 4282 2368 
C 3558 2368 2874 1622 2874 824 
C 2874 325 3181 0 3642 0 
C 3930 0 4166 102 4390 325 
C 4730 670 4941 1187 4941 1686 
C 4941 2120 4698 2368 4282 2368 
z
M 4326 2164 
C 4570 2164 4774 1934 4774 1654 
C 4774 1290 4614 856 4371 556 
C 4166 301 3981 192 3750 192 
C 3520 192 3360 357 3360 601 
C 3360 939 3539 1462 3776 1793 
C 3949 2048 4128 2164 4326 2164 
z
M 4058 4320 
L 3808 4320 
C 3462 4008 3206 3904 2810 3904 
C 2554 3904 2406 3946 2253 4064 
C 2086 4194 2003 4224 1805 4224 
C 1075 4224 390 3468 390 2662 
C 390 2217 730 1856 1146 1856 
C 1421 1856 1709 1984 1920 2209 
C 2253 2549 2458 3056 2458 3526 
C 2458 3615 2445 3693 2413 3808 
C 2528 3763 2643 3744 2829 3744 
C 3110 3744 3277 3788 3533 3931 
L 1286 -96 
L 1594 -96 
L 4058 4320 
z
M 2240 3829 
C 2278 3702 2298 3607 2298 3518 
C 2298 2802 1773 2073 1254 2073 
C 1030 2073 877 2231 877 2460 
C 877 2726 1005 3157 1178 3474 
C 1363 3816 1606 4032 1805 4032 
C 1837 4032 1850 4025 1888 3993 
C 1978 3911 2054 3879 2240 3829 
z
" transform="scale(0.015625)"/>
     </defs>
     <use xlink:href="#NimbusRomNo9L-Regu-42" transform="scale(0.996264)"/>
     <use xlink:href="#NimbusRomNo9L-Regu-61" transform="translate(66.450031 0) scale(0.996264)"/>
     <use xlink:href="#NimbusRomNo9L-Regu-72" transform="translate(110.6836 0) scale(0.996264)"/>
     <use xlink:href="#NimbusRomNo9L-Regu-61" transform="translate(143.85883 0) scale(0.996264)"/>
     <use xlink:href="#NimbusRomNo9L-Regu-62" transform="translate(188.092398 0) scale(0.996264)"/>
     <use xlink:href="#NimbusRomNo9L-Regu-b4" transform="translate(243.434776 0.498056) scale(0.996264)"/>
     <use xlink:href="#NimbusRomNo9L-Regu-61" transform="translate(237.905599 0) scale(0.996264)"/>
     <use xlink:href="#NimbusRomNo9L-Regu-73" transform="translate(282.139167 0) scale(0.996264)"/>
     <use xlink:href="#NimbusRomNo9L-Regu-69" transform="translate(320.892874 0) scale(0.996264)"/>
     <use xlink:href="#NimbusRomNo9L-Regu-2d" transform="translate(348.588043 0) scale(0.996264)"/>
     <use xlink:href="#NimbusRomNo9L-Regu-41" transform="translate(381.763273 0) scale(0.996264)"/>
     <use xlink:href="#NimbusRomNo9L-Regu-6c" transform="translate(453.693258 0) scale(0.996264)"/>
     <use xlink:href="#NimbusRomNo9L-Regu-62" transform="translate(481.388427 0) scale(0.996264)"/>
     <use xlink:href="#NimbusRomNo9L-Regu-65" transform="translate(531.201628 0) scale(0.996264)"/>
     <use xlink:href="#NimbusRomNo9L-Regu-72" transform="translate(575.435197 0) scale(0.996264)"/>
     <use xlink:href="#NimbusRomNo9L-Regu-74" transform="translate(608.610426 0) scale(0.996264)"/>
     <use xlink:href="#NimbusRomNo9L-Regu-28" transform="translate(661.212196 0) scale(0.996264)"/>
     <use xlink:href="#NimbusRomNo9L-Regu-6d" transform="translate(694.387426 0) scale(0.996264)"/>
     <use xlink:href="#NimbusRomNo9L-Regu-3d" transform="translate(771.895796 0) scale(0.996264)"/>
     <use xlink:href="#NimbusRomNo9L-Regu-31" transform="translate(828.084046 0) scale(0.996264)"/>
     <use xlink:href="#NimbusRomNo9L-Regu-29" transform="translate(877.897247 0) scale(0.996264)"/>
     <use xlink:href="#NimbusRomNo9L-Regu-2d" transform="translate(935.979077 0) scale(0.996264)"/>
     <use xlink:href="#NimbusRomNo9L-Regu-48" transform="translate(994.060907 0) scale(0.996264)"/>
     <use xlink:href="#NimbusRomNo9L-Regu-6f" transform="translate(1065.990892 0) scale(0.996264)"/>
     <use xlink:href="#NimbusRomNo9L-Regu-6d" transform="translate(1115.804092 0) scale(0.996264)"/>
     <use xlink:href="#NimbusRomNo9L-Regu-6f" transform="translate(1193.312462 0) scale(0.996264)"/>
     <use xlink:href="#NimbusRomNo9L-Regu-2" transform="translate(1243.125663 0) scale(0.996264)"/>
     <use xlink:href="#NimbusRomNo9L-Regu-6c" transform="translate(1298.51734 0) scale(0.996264)"/>
     <use xlink:href="#NimbusRomNo9L-Regu-69" transform="translate(1326.212509 0) scale(0.996264)"/>
     <use xlink:href="#NimbusRomNo9L-Regu-61" transform="translate(1353.907679 0) scale(0.996264)"/>
     <use xlink:href="#NimbusRomNo9L-Regu-3a" transform="translate(1398.141248 0) scale(0.996264)"/>
     <use xlink:href="#NimbusRomNo9L-Regu-30" transform="translate(1456.72045 0) scale(0.996264)"/>
     <use xlink:href="#NimbusRomNo9L-Regu-2e" transform="translate(1506.53365 0) scale(0.996264)"/>
     <use xlink:href="#NimbusRomNo9L-Regu-30" transform="translate(1531.44025 0) scale(0.996264)"/>
     <use xlink:href="#NimbusRomNo9L-Regu-25" transform="translate(1581.253451 0) scale(0.996264)"/>
    </g>
    <!-- Masa crtica: 15\% - Nodos perifericos (H,C) -->
    <g transform="translate(12.745323 29.845406) scale(0.096 -0.096)">
     <defs>
      <path id="NimbusRomNo9L-Regu-4d" d="M 4314 3667 
L 4314 751 
C 4314 217 4237 134 3731 134 
L 3731 0 
L 5523 0 
L 5523 134 
C 5056 134 4966 223 4966 681 
L 4966 3536 
C 4966 3993 5050 4077 5523 4115 
L 5523 4237 
L 4250 4237 
L 2835 1004 
L 1357 4237 
L 90 4237 
L 90 4096 
C 614 4096 698 4019 698 3550 
L 698 943 
C 698 282 608 159 77 121 
L 77 0 
L 1581 0 
L 1581 134 
C 1088 134 979 282 979 931 
L 979 3520 
L 2586 0 
L 2675 0 
L 4314 3667 
z
" transform="scale(0.015625)"/>
      <path id="NimbusRomNo9L-Regu-11" d="M 1120 2950 
L 128 2598 
L 128 2502 
L 179 2508 
C 256 2521 339 2528 397 2528 
C 550 2528 608 2424 608 2141 
L 608 644 
C 608 180 544 109 102 109 
L 102 0 
L 1619 0 
L 1619 96 
C 1197 128 1146 192 1146 654 
L 1146 2931 
L 1120 2950 
z
" transform="scale(0.015625)"/>
      <path id="NimbusRomNo9L-Regu-35" d="M 1158 3776 
L 2413 3776 
C 2515 3776 2541 3789 2560 3834 
L 2803 4403 
L 2746 4448 
C 2650 4314 2586 4282 2451 4282 
L 1114 4282 
L 416 2759 
C 410 2746 410 2740 410 2727 
C 410 2695 435 2676 486 2676 
C 691 2676 947 2631 1210 2547 
C 1946 2309 2285 1910 2285 1274 
C 2285 656 1894 173 1395 173 
C 1267 173 1158 218 966 360 
C 762 508 614 572 480 572 
C 294 572 205 495 205 334 
C 205 90 506 -64 986 -64 
C 1523 -64 1984 110 2304 438 
C 2598 728 2733 1094 2733 1583 
C 2733 2046 2611 2342 2291 2663 
C 2010 2947 1645 3094 890 3229 
L 1158 3776 
z
" transform="scale(0.015625)"/>
      <path id="NimbusRomNo9L-Regu-4e" d="M 3917 -64 
L 3917 3287 
C 3917 3669 3981 3905 4102 3987 
C 4192 4051 4282 4077 4525 4102 
L 4525 4224 
L 3021 4224 
L 3021 4102 
C 3264 4083 3354 4057 3450 4000 
C 3578 3911 3635 3681 3635 3286 
L 3635 1136 
L 1171 4224 
L 77 4224 
L 77 4102 
C 352 4102 442 4051 698 3751 
L 698 938 
C 698 281 608 159 77 121 
L 77 0 
L 1581 0 
L 1581 134 
C 1088 134 979 281 979 928 
L 979 3439 
L 3808 -64 
L 3917 -64 
z
" transform="scale(0.015625)"/>
      <path id="NimbusRomNo9L-Regu-70" d="M 58 2516 
C 115 2522 160 2522 218 2522 
C 435 2522 480 2458 480 2155 
L 480 -855 
C 480 -1189 410 -1261 32 -1299 
L 32 -1408 
L 1581 -1408 
L 1581 -1293 
C 1101 -1293 1018 -1222 1018 -816 
L 1018 199 
C 1242 -13 1395 -77 1664 -77 
C 2419 -77 3008 643 3008 1575 
C 3008 2372 2560 2944 1939 2944 
C 1581 2944 1299 2784 1018 2438 
L 1018 2931 
L 979 2944 
C 634 2810 410 2726 58 2618 
L 58 2516 
z
M 1018 2136 
C 1018 2329 1376 2560 1670 2560 
C 2144 2560 2458 2071 2458 1324 
C 2458 611 2144 128 1683 128 
C 1382 128 1018 359 1018 552 
L 1018 2136 
z
" transform="scale(0.015625)"/>
      <path id="NimbusRomNo9L-Regu-66" d="M 1978 2880 
L 1190 2880 
L 1190 3611 
C 1190 3978 1312 4173 1555 4173 
C 1690 4173 1779 4110 1894 3927 
C 1997 3763 2074 3700 2182 3700 
C 2330 3700 2451 3814 2451 3959 
C 2451 4188 2170 4352 1786 4352 
C 1389 4352 1050 4181 883 3891 
C 717 3613 666 3385 659 2880 
L 134 2880 
L 134 2675 
L 659 2675 
L 659 656 
C 659 185 589 109 128 109 
L 128 0 
L 1792 0 
L 1792 109 
C 1267 109 1197 180 1197 661 
L 1197 2675 
L 1978 2675 
L 1978 2880 
z
" transform="scale(0.015625)"/>
      <path id="NimbusRomNo9L-Regu-2c" d="M 531 -889 
C 960 -678 1248 -288 1248 96 
C 1248 416 1024 666 736 666 
C 512 666 358 519 358 301 
C 358 96 506 -25 736 -25 
C 774 -25 819 -19 858 -13 
C 902 0 902 0 909 0 
C 960 0 998 -38 998 -89 
C 998 -294 819 -531 474 -768 
L 531 -889 
z
" transform="scale(0.015625)"/>
      <path id="NimbusRomNo9L-Regu-43" d="M 3968 2906 
L 3910 4352 
L 3776 4352 
C 3738 4218 3635 4141 3507 4141 
C 3450 4141 3354 4160 3258 4199 
C 2944 4301 2624 4352 2323 4352 
C 1798 4352 1267 4154 870 3802 
C 422 3405 179 2810 179 2106 
C 179 1511 371 960 698 596 
C 1082 180 1670 -64 2304 -64 
C 3027 -64 3661 231 4051 749 
L 3936 864 
C 3462 410 3040 218 2509 218 
C 2106 218 1747 346 1472 589 
C 1120 903 922 1479 922 2189 
C 922 3348 1517 4096 2445 4096 
C 2810 4096 3142 3962 3398 3706 
C 3603 3501 3699 3322 3821 2906 
L 3968 2906 
z
" transform="scale(0.015625)"/>
     </defs>
     <use xlink:href="#NimbusRomNo9L-Regu-4d" transform="scale(0.996264)"/>
     <use xlink:href="#NimbusRomNo9L-Regu-61" transform="translate(88.566907 0) scale(0.996264)"/>
     <use xlink:href="#NimbusRomNo9L-Regu-73" transform="translate(132.800475 0) scale(0.996264)"/>
     <use xlink:href="#NimbusRomNo9L-Regu-61" transform="translate(171.554182 0) scale(0.996264)"/>
     <use xlink:href="#NimbusRomNo9L-Regu-63" transform="translate(240.694351 0) scale(0.996264)"/>
     <use xlink:href="#NimbusRomNo9L-Regu-72" transform="translate(284.927919 0) scale(0.996264)"/>
     <use xlink:href="#NimbusRomNo9L-Regu-b4" transform="translate(315.363119 0.498056) scale(0.996264)"/>
     <use xlink:href="#NimbusRomNo9L-Regu-11" transform="translate(318.103149 0) scale(0.996264)"/>
     <use xlink:href="#NimbusRomNo9L-Regu-74" transform="translate(345.798319 0) scale(0.996264)"/>
     <use xlink:href="#NimbusRomNo9L-Regu-69" transform="translate(373.493488 0) scale(0.996264)"/>
     <use xlink:href="#NimbusRomNo9L-Regu-63" transform="translate(401.188658 0) scale(0.996264)"/>
     <use xlink:href="#NimbusRomNo9L-Regu-61" transform="translate(445.422226 0) scale(0.996264)"/>
     <use xlink:href="#NimbusRomNo9L-Regu-3a" transform="translate(489.655795 0) scale(0.996264)"/>
     <use xlink:href="#NimbusRomNo9L-Regu-31" transform="translate(548.234997 0) scale(0.996264)"/>
     <use xlink:href="#NimbusRomNo9L-Regu-35" transform="translate(598.048198 0) scale(0.996264)"/>
     <use xlink:href="#NimbusRomNo9L-Regu-25" transform="translate(647.861398 0) scale(0.996264)"/>
     <use xlink:href="#NimbusRomNo9L-Regu-2d" transform="translate(755.756429 0) scale(0.996264)"/>
     <use xlink:href="#NimbusRomNo9L-Regu-4e" transform="translate(813.838259 0) scale(0.996264)"/>
     <use xlink:href="#NimbusRomNo9L-Regu-6f" transform="translate(885.768243 0) scale(0.996264)"/>
     <use xlink:href="#NimbusRomNo9L-Regu-64" transform="translate(935.581444 0) scale(0.996264)"/>
     <use xlink:href="#NimbusRomNo9L-Regu-6f" transform="translate(985.394644 0) scale(0.996264)"/>
     <use xlink:href="#NimbusRomNo9L-Regu-73" transform="translate(1035.207845 0) scale(0.996264)"/>
     <use xlink:href="#NimbusRomNo9L-Regu-70" transform="translate(1098.868151 0) scale(0.996264)"/>
     <use xlink:href="#NimbusRomNo9L-Regu-65" transform="translate(1148.681352 0) scale(0.996264)"/>
     <use xlink:href="#NimbusRomNo9L-Regu-72" transform="translate(1192.91492 0) scale(0.996264)"/>
     <use xlink:href="#NimbusRomNo9L-Regu-69" transform="translate(1226.09015 0) scale(0.996264)"/>
     <use xlink:href="#NimbusRomNo9L-Regu-66" transform="translate(1253.78532 0) scale(0.996264)"/>
     <use xlink:href="#NimbusRomNo9L-Regu-65" transform="translate(1286.96055 0) scale(0.996264)"/>
     <use xlink:href="#NimbusRomNo9L-Regu-72" transform="translate(1331.194118 0) scale(0.996264)"/>
     <use xlink:href="#NimbusRomNo9L-Regu-69" transform="translate(1364.369348 0) scale(0.996264)"/>
     <use xlink:href="#NimbusRomNo9L-Regu-63" transform="translate(1392.064518 0) scale(0.996264)"/>
     <use xlink:href="#NimbusRomNo9L-Regu-6f" transform="translate(1436.298086 0) scale(0.996264)"/>
     <use xlink:href="#NimbusRomNo9L-Regu-73" transform="translate(1486.111287 0) scale(0.996264)"/>
     <use xlink:href="#NimbusRomNo9L-Regu-28" transform="translate(1549.771593 0) scale(0.996264)"/>
     <use xlink:href="#NimbusRomNo9L-Regu-48" transform="translate(1582.946823 0) scale(0.996264)"/>
     <use xlink:href="#NimbusRomNo9L-Regu-2c" transform="translate(1654.876808 0) scale(0.996264)"/>
     <use xlink:href="#NimbusRomNo9L-Regu-43" transform="translate(1679.783408 0) scale(0.996264)"/>
     <use xlink:href="#NimbusRomNo9L-Regu-29" transform="translate(1746.233439 0) scale(0.996264)"/>
    </g>
   </g>
   <g id="legend_1">
    <g id="line2d_108">
     <path d="M 98.615794 44.595406 
L 105.615794 44.595406 
L 112.615794 44.595406 
" style="fill: none; stroke: #dedeee; stroke-linecap: square"/>
    </g>
    <g id="text_15">
     <!-- (C) C. Coop -->
     <g transform="translate(118.215794 47.045406) scale(0.07 -0.07)">
      <use xlink:href="#NimbusRomNo9L-Regu-28" transform="scale(0.996264)"/>
      <use xlink:href="#NimbusRomNo9L-Regu-43" transform="translate(33.17523 0) scale(0.996264)"/>
      <use xlink:href="#NimbusRomNo9L-Regu-29" transform="translate(99.625261 0) scale(0.996264)"/>
      <use xlink:href="#NimbusRomNo9L-Regu-43" transform="translate(157.707091 0) scale(0.996264)"/>
      <use xlink:href="#NimbusRomNo9L-Regu-2e" transform="translate(224.157122 0) scale(0.996264)"/>
      <use xlink:href="#NimbusRomNo9L-Regu-43" transform="translate(273.970322 0) scale(0.996264)"/>
      <use xlink:href="#NimbusRomNo9L-Regu-6f" transform="translate(340.420354 0) scale(0.996264)"/>
      <use xlink:href="#NimbusRomNo9L-Regu-6f" transform="translate(390.233554 0) scale(0.996264)"/>
      <use xlink:href="#NimbusRomNo9L-Regu-70" transform="translate(440.046755 0) scale(0.996264)"/>
     </g>
    </g>
    <g id="line2d_109">
     <path d="M 98.615794 54.505186 
L 105.615794 54.505186 
L 112.615794 54.505186 
" style="fill: none; stroke-dasharray: 3.7,1.6; stroke-dashoffset: 0; stroke: #9b9aca"/>
    </g>
    <g id="text_16">
     <!-- (D) C. no Coop -->
     <g transform="translate(118.215794 56.955186) scale(0.07 -0.07)">
      <use xlink:href="#NimbusRomNo9L-Regu-28" transform="scale(0.996264)"/>
      <use xlink:href="#NimbusRomNo9L-Regu-44" transform="translate(33.17523 0) scale(0.996264)"/>
      <use xlink:href="#NimbusRomNo9L-Regu-29" transform="translate(105.105215 0) scale(0.996264)"/>
      <use xlink:href="#NimbusRomNo9L-Regu-43" transform="translate(163.187045 0) scale(0.996264)"/>
      <use xlink:href="#NimbusRomNo9L-Regu-2e" transform="translate(229.637076 0) scale(0.996264)"/>
      <use xlink:href="#NimbusRomNo9L-Regu-6e" transform="translate(279.450276 0) scale(0.996264)"/>
      <use xlink:href="#NimbusRomNo9L-Regu-6f" transform="translate(329.263477 0) scale(0.996264)"/>
      <use xlink:href="#NimbusRomNo9L-Regu-43" transform="translate(403.983277 0) scale(0.996264)"/>
      <use xlink:href="#NimbusRomNo9L-Regu-6f" transform="translate(470.433309 0) scale(0.996264)"/>
      <use xlink:href="#NimbusRomNo9L-Regu-6f" transform="translate(520.246509 0) scale(0.996264)"/>
      <use xlink:href="#NimbusRomNo9L-Regu-70" transform="translate(570.05971 0) scale(0.996264)"/>
     </g>
    </g>
    <g id="line2d_110">
     <path d="M 98.615794 64.414966 
L 105.615794 64.414966 
L 112.615794 64.414966 
" style="fill: none; stroke-dasharray: 1,1.65; stroke-dashoffset: 0; stroke: #7976b8"/>
    </g>
    <g id="text_17">
     <!-- (H) P. Honrado -->
     <g transform="translate(118.215794 66.864966) scale(0.07 -0.07)">
      <use xlink:href="#NimbusRomNo9L-Regu-28" transform="scale(0.996264)"/>
      <use xlink:href="#NimbusRomNo9L-Regu-48" transform="translate(33.17523 0) scale(0.996264)"/>
      <use xlink:href="#NimbusRomNo9L-Regu-29" transform="translate(105.105215 0) scale(0.996264)"/>
      <use xlink:href="#NimbusRomNo9L-Regu-50" transform="translate(163.187045 0) scale(0.996264)"/>
      <use xlink:href="#NimbusRomNo9L-Regu-2e" transform="translate(207.520276 0) scale(0.996264)"/>
      <use xlink:href="#NimbusRomNo9L-Regu-48" transform="translate(257.333477 0) scale(0.996264)"/>
      <use xlink:href="#NimbusRomNo9L-Regu-6f" transform="translate(329.263461 0) scale(0.996264)"/>
      <use xlink:href="#NimbusRomNo9L-Regu-6e" transform="translate(379.076662 0) scale(0.996264)"/>
      <use xlink:href="#NimbusRomNo9L-Regu-72" transform="translate(428.889862 0) scale(0.996264)"/>
      <use xlink:href="#NimbusRomNo9L-Regu-61" transform="translate(462.065092 0) scale(0.996264)"/>
      <use xlink:href="#NimbusRomNo9L-Regu-64" transform="translate(506.298661 0) scale(0.996264)"/>
      <use xlink:href="#NimbusRomNo9L-Regu-6f" transform="translate(556.111861 0) scale(0.996264)"/>
     </g>
    </g>
    <g id="line2d_111">
     <path d="M 98.615794 74.324747 
L 105.615794 74.324747 
L 112.615794 74.324747 
" style="fill: none; stroke-dasharray: 6.4,1.6,1,1.6; stroke-dashoffset: 0; stroke: #201f3d"/>
    </g>
    <g id="text_18">
     <!-- (K) P. Corrupto -->
     <g transform="translate(118.215794 76.774747) scale(0.07 -0.07)">
      <defs>
       <path id="NimbusRomNo9L-Regu-4b" d="M 2643 4109 
C 2720 4096 2784 4096 2810 4096 
C 3002 4096 3078 4045 3078 3917 
C 3078 3775 2931 3583 2579 3257 
L 1446 2224 
L 1446 3534 
C 1446 4000 1517 4071 2035 4109 
L 2035 4231 
L 218 4231 
L 218 4109 
C 717 4071 794 3988 794 3531 
L 794 750 
C 794 217 723 134 218 134 
L 218 0 
L 2022 0 
L 2022 134 
C 1523 134 1446 211 1446 683 
L 1446 1891 
L 1613 2026 
L 2291 1355 
C 2778 876 3123 422 3123 269 
C 3123 179 3034 134 2854 134 
C 2822 134 2752 134 2675 121 
L 2675 0 
L 4627 0 
L 4627 134 
C 4294 134 4205 198 3622 816 
L 2131 2409 
L 3347 3611 
C 3782 4026 3885 4077 4320 4109 
L 4320 4231 
L 2643 4231 
L 2643 4109 
z
" transform="scale(0.015625)"/>
      </defs>
      <use xlink:href="#NimbusRomNo9L-Regu-28" transform="scale(0.996264)"/>
      <use xlink:href="#NimbusRomNo9L-Regu-4b" transform="translate(33.17523 0) scale(0.996264)"/>
      <use xlink:href="#NimbusRomNo9L-Regu-29" transform="translate(105.105215 0) scale(0.996264)"/>
      <use xlink:href="#NimbusRomNo9L-Regu-50" transform="translate(163.187045 0) scale(0.996264)"/>
      <use xlink:href="#NimbusRomNo9L-Regu-2e" transform="translate(207.520276 0) scale(0.996264)"/>
      <use xlink:href="#NimbusRomNo9L-Regu-43" transform="translate(257.333477 0) scale(0.996264)"/>
      <use xlink:href="#NimbusRomNo9L-Regu-6f" transform="translate(323.783508 0) scale(0.996264)"/>
      <use xlink:href="#NimbusRomNo9L-Regu-72" transform="translate(373.596708 0) scale(0.996264)"/>
      <use xlink:href="#NimbusRomNo9L-Regu-72" transform="translate(406.771938 0) scale(0.996264)"/>
      <use xlink:href="#NimbusRomNo9L-Regu-75" transform="translate(439.947168 0) scale(0.996264)"/>
      <use xlink:href="#NimbusRomNo9L-Regu-70" transform="translate(489.760368 0) scale(0.996264)"/>
      <use xlink:href="#NimbusRomNo9L-Regu-74" transform="translate(539.573569 0) scale(0.996264)"/>
      <use xlink:href="#NimbusRomNo9L-Regu-6f" transform="translate(567.268738 0) scale(0.996264)"/>
     </g>
    </g>
   </g>
  </g>
 </g>
 <defs>
  <clipPath id="pd0d31542a8">
   <rect x="28.406864" y="35.845406" width="139.5" height="138.6"/>
  </clipPath>
 </defs>
</svg>
