<?xml version="1.0" encoding="utf-8" standalone="no"?>
<!DOCTYPE svg PUBLIC "-//W3C//DTD SVG 1.1//EN"
  "http://www.w3.org/Graphics/SVG/1.1/DTD/svg11.dtd">
<svg xmlns:xlink="http://www.w3.org/1999/xlink" width="199.446708pt" height="207.810444pt" viewBox="0 0 199.446708 207.810444" xmlns="http://www.w3.org/2000/svg" version="1.1">
 <metadata>
  <rdf:RDF xmlns:dc="http://purl.org/dc/elements/1.1/" xmlns:cc="http://creativecommons.org/ns#" xmlns:rdf="http://www.w3.org/1999/02/22-rdf-syntax-ns#">
   <cc:Work>
    <dc:type rdf:resource="http://purl.org/dc/dcmitype/StillImage"/>
    <dc:date>2025-03-23T17:49:54.444807</dc:date>
    <dc:format>image/svg+xml</dc:format>
    <dc:creator>
     <cc:Agent>
      <dc:title>Matplotlib v3.10.1, https://matplotlib.org/</dc:title>
     </cc:Agent>
    </dc:creator>
   </cc:Work>
  </rdf:RDF>
 </metadata>
 <defs>
  <style type="text/css">*{stroke-linejoin: round; stroke-linecap: butt}</style>
 </defs>
 <g id="figure_1">
  <g id="patch_1">
   <path d="M 0 207.810444 
L 199.446708 207.810444 
L 199.446708 0 
L 0 0 
z
" style="fill: #ffffff"/>
  </g>
  <g id="axes_1">
   <g id="patch_2">
    <path d="M 28.446708 182.452206 
L 195.846708 182.452206 
L 195.846708 16.132206 
L 28.446708 16.132206 
z
" style="fill: #ffffff"/>
   </g>
   <g id="matplotlib.axis_1">
    <g id="xtick_1">
     <g id="line2d_1">
      <path d="M 36.055799 182.452206 
L 36.055799 16.132206 
" clip-path="url(#p26a59301a7)" style="fill: none; stroke: #b0b0b0; stroke-width: 0.5; stroke-linecap: square"/>
     </g>
     <g id="line2d_2">
      <defs>
       <path id="mfafa42c715" d="M 0 0 
L 0 -3 
" style="stroke: #000000; stroke-width: 0.5"/>
      </defs>
      <g>
       <use xlink:href="#mfafa42c715" x="36.055799" y="182.452206" style="stroke: #000000; stroke-width: 0.5"/>
      </g>
     </g>
     <g id="line2d_3">
      <defs>
       <path id="mab7c65ca87" d="M 0 0 
L 0 3 
" style="stroke: #000000; stroke-width: 0.5"/>
      </defs>
      <g>
       <use xlink:href="#mab7c65ca87" x="36.055799" y="16.132206" style="stroke: #000000; stroke-width: 0.5"/>
      </g>
     </g>
     <g id="text_1">
      <!-- $\mathdefault{0}$ -->
      <g transform="translate(34.063271 191.355862) scale(0.08 -0.08)">
       <defs>
        <path id="NimbusRomNo9L-Regu-30" d="M 1626 4352 
C 1274 4352 1005 4244 768 4020 
C 397 3661 154 2925 154 2176 
C 154 1479 365 730 666 372 
C 902 90 1229 -64 1600 -64 
C 1926 -64 2202 45 2432 269 
C 2803 621 3046 1364 3046 2138 
C 3046 3450 2464 4352 1626 4352 
z
M 1606 4186 
C 2144 4186 2432 3463 2432 2125 
C 2432 788 2150 103 1600 103 
C 1050 103 768 788 768 2119 
C 768 3476 1056 4186 1606 4186 
z
" transform="scale(0.015625)"/>
       </defs>
       <use xlink:href="#NimbusRomNo9L-Regu-30" transform="scale(0.996264)"/>
      </g>
     </g>
    </g>
    <g id="xtick_2">
     <g id="line2d_4">
      <path d="M 66.553158 182.452206 
L 66.553158 16.132206 
" clip-path="url(#p26a59301a7)" style="fill: none; stroke: #b0b0b0; stroke-width: 0.5; stroke-linecap: square"/>
     </g>
     <g id="line2d_5">
      <g>
       <use xlink:href="#mfafa42c715" x="66.553158" y="182.452206" style="stroke: #000000; stroke-width: 0.5"/>
      </g>
     </g>
     <g id="line2d_6">
      <g>
       <use xlink:href="#mab7c65ca87" x="66.553158" y="16.132206" style="stroke: #000000; stroke-width: 0.5"/>
      </g>
     </g>
     <g id="text_2">
      <!-- $\mathdefault{100}$ -->
      <g transform="translate(60.575573 191.355862) scale(0.08 -0.08)">
       <defs>
        <path id="NimbusRomNo9L-Regu-31" d="M 1862 4339 
L 710 3757 
L 710 3667 
C 787 3699 858 3725 883 3738 
C 998 3783 1107 3808 1171 3808 
C 1306 3808 1363 3711 1363 3505 
L 1363 592 
C 1363 379 1312 232 1210 173 
C 1114 116 1024 96 755 96 
L 755 0 
L 2522 0 
L 2522 96 
C 2016 96 1914 160 1914 470 
L 1914 4327 
L 1862 4339 
z
" transform="scale(0.015625)"/>
       </defs>
       <use xlink:href="#NimbusRomNo9L-Regu-31" transform="scale(0.996264)"/>
       <use xlink:href="#NimbusRomNo9L-Regu-30" transform="translate(49.8132 0) scale(0.996264)"/>
       <use xlink:href="#NimbusRomNo9L-Regu-30" transform="translate(99.626401 0) scale(0.996264)"/>
      </g>
     </g>
    </g>
    <g id="xtick_3">
     <g id="line2d_7">
      <path d="M 97.050516 182.452206 
L 97.050516 16.132206 
" clip-path="url(#p26a59301a7)" style="fill: none; stroke: #b0b0b0; stroke-width: 0.5; stroke-linecap: square"/>
     </g>
     <g id="line2d_8">
      <g>
       <use xlink:href="#mfafa42c715" x="97.050516" y="182.452206" style="stroke: #000000; stroke-width: 0.5"/>
      </g>
     </g>
     <g id="line2d_9">
      <g>
       <use xlink:href="#mab7c65ca87" x="97.050516" y="16.132206" style="stroke: #000000; stroke-width: 0.5"/>
      </g>
     </g>
     <g id="text_3">
      <!-- $\mathdefault{200}$ -->
      <g transform="translate(91.072932 191.355862) scale(0.08 -0.08)">
       <defs>
        <path id="NimbusRomNo9L-Regu-32" d="M 3040 875 
L 2957 907 
C 2720 544 2637 486 2349 486 
L 819 486 
L 1894 1609 
C 2464 2202 2714 2687 2714 3185 
C 2714 3823 2195 4313 1530 4313 
C 1178 4313 845 4173 608 3918 
C 403 3700 307 3496 198 3043 
L 333 3011 
C 589 3636 819 3840 1261 3840 
C 1798 3840 2163 3476 2163 2940 
C 2163 2443 1869 1850 1331 1282 
L 192 77 
L 192 0 
L 2688 0 
L 3040 875 
z
" transform="scale(0.015625)"/>
       </defs>
       <use xlink:href="#NimbusRomNo9L-Regu-32" transform="scale(0.996264)"/>
       <use xlink:href="#NimbusRomNo9L-Regu-30" transform="translate(49.8132 0) scale(0.996264)"/>
       <use xlink:href="#NimbusRomNo9L-Regu-30" transform="translate(99.626401 0) scale(0.996264)"/>
      </g>
     </g>
    </g>
    <g id="xtick_4">
     <g id="line2d_10">
      <path d="M 127.547874 182.452206 
L 127.547874 16.132206 
" clip-path="url(#p26a59301a7)" style="fill: none; stroke: #b0b0b0; stroke-width: 0.5; stroke-linecap: square"/>
     </g>
     <g id="line2d_11">
      <g>
       <use xlink:href="#mfafa42c715" x="127.547874" y="182.452206" style="stroke: #000000; stroke-width: 0.5"/>
      </g>
     </g>
     <g id="line2d_12">
      <g>
       <use xlink:href="#mab7c65ca87" x="127.547874" y="16.132206" style="stroke: #000000; stroke-width: 0.5"/>
      </g>
     </g>
     <g id="text_4">
      <!-- $\mathdefault{300}$ -->
      <g transform="translate(121.57029 191.355862) scale(0.08 -0.08)">
       <defs>
        <path id="NimbusRomNo9L-Regu-33" d="M 979 2138 
C 1357 2138 1504 2125 1658 2068 
C 2054 1927 2304 1562 2304 1120 
C 2304 583 1939 167 1466 167 
C 1293 167 1165 212 928 365 
C 736 480 627 525 518 525 
C 371 525 275 436 275 301 
C 275 77 550 -64 998 -64 
C 1491 -64 1997 103 2298 365 
C 2598 628 2765 999 2765 1428 
C 2765 1754 2662 2055 2477 2253 
C 2349 2394 2227 2471 1946 2592 
C 2387 2893 2547 3130 2547 3476 
C 2547 3994 2138 4352 1549 4352 
C 1229 4352 947 4244 717 4039 
C 525 3866 429 3699 288 3315 
L 384 3290 
C 646 3757 934 3968 1338 3968 
C 1754 3968 2042 3687 2042 3284 
C 2042 3053 1946 2823 1786 2663 
C 1594 2471 1414 2375 979 2221 
L 979 2138 
z
" transform="scale(0.015625)"/>
       </defs>
       <use xlink:href="#NimbusRomNo9L-Regu-33" transform="scale(0.996264)"/>
       <use xlink:href="#NimbusRomNo9L-Regu-30" transform="translate(49.8132 0) scale(0.996264)"/>
       <use xlink:href="#NimbusRomNo9L-Regu-30" transform="translate(99.626401 0) scale(0.996264)"/>
      </g>
     </g>
    </g>
    <g id="xtick_5">
     <g id="line2d_13">
      <path d="M 158.045233 182.452206 
L 158.045233 16.132206 
" clip-path="url(#p26a59301a7)" style="fill: none; stroke: #b0b0b0; stroke-width: 0.5; stroke-linecap: square"/>
     </g>
     <g id="line2d_14">
      <g>
       <use xlink:href="#mfafa42c715" x="158.045233" y="182.452206" style="stroke: #000000; stroke-width: 0.5"/>
      </g>
     </g>
     <g id="line2d_15">
      <g>
       <use xlink:href="#mab7c65ca87" x="158.045233" y="16.132206" style="stroke: #000000; stroke-width: 0.5"/>
      </g>
     </g>
     <g id="text_5">
      <!-- $\mathdefault{400}$ -->
      <g transform="translate(152.067649 191.355862) scale(0.08 -0.08)">
       <defs>
        <path id="NimbusRomNo9L-Regu-34" d="M 3021 1497 
L 2368 1497 
L 2368 4352 
L 2086 4352 
L 77 1497 
L 77 1088 
L 1875 1088 
L 1875 32 
L 2368 32 
L 2368 1088 
L 3021 1088 
L 3021 1497 
z
M 1869 1497 
L 333 1497 
L 1869 3698 
L 1869 1497 
z
" transform="scale(0.015625)"/>
       </defs>
       <use xlink:href="#NimbusRomNo9L-Regu-34" transform="scale(0.996264)"/>
       <use xlink:href="#NimbusRomNo9L-Regu-30" transform="translate(49.8132 0) scale(0.996264)"/>
       <use xlink:href="#NimbusRomNo9L-Regu-30" transform="translate(99.626401 0) scale(0.996264)"/>
      </g>
     </g>
    </g>
    <g id="xtick_6">
     <g id="line2d_16">
      <path d="M 188.542591 182.452206 
L 188.542591 16.132206 
" clip-path="url(#p26a59301a7)" style="fill: none; stroke: #b0b0b0; stroke-width: 0.5; stroke-linecap: square"/>
     </g>
     <g id="line2d_17">
      <g>
       <use xlink:href="#mfafa42c715" x="188.542591" y="182.452206" style="stroke: #000000; stroke-width: 0.5"/>
      </g>
     </g>
     <g id="line2d_18">
      <g>
       <use xlink:href="#mab7c65ca87" x="188.542591" y="16.132206" style="stroke: #000000; stroke-width: 0.5"/>
      </g>
     </g>
     <g id="text_6">
      <!-- $\mathdefault{500}$ -->
      <g transform="translate(182.565007 191.355862) scale(0.08 -0.08)">
       <defs>
        <path id="NimbusRomNo9L-Regu-35" d="M 1158 3776 
L 2413 3776 
C 2515 3776 2541 3789 2560 3834 
L 2803 4403 
L 2746 4448 
C 2650 4314 2586 4282 2451 4282 
L 1114 4282 
L 416 2759 
C 410 2746 410 2740 410 2727 
C 410 2695 435 2676 486 2676 
C 691 2676 947 2631 1210 2547 
C 1946 2309 2285 1910 2285 1274 
C 2285 656 1894 173 1395 173 
C 1267 173 1158 218 966 360 
C 762 508 614 572 480 572 
C 294 572 205 495 205 334 
C 205 90 506 -64 986 -64 
C 1523 -64 1984 110 2304 438 
C 2598 728 2733 1094 2733 1583 
C 2733 2046 2611 2342 2291 2663 
C 2010 2947 1645 3094 890 3229 
L 1158 3776 
z
" transform="scale(0.015625)"/>
       </defs>
       <use xlink:href="#NimbusRomNo9L-Regu-35" transform="scale(0.996264)"/>
       <use xlink:href="#NimbusRomNo9L-Regu-30" transform="translate(49.8132 0) scale(0.996264)"/>
       <use xlink:href="#NimbusRomNo9L-Regu-30" transform="translate(99.626401 0) scale(0.996264)"/>
      </g>
     </g>
    </g>
    <g id="xtick_7">
     <g id="line2d_19">
      <defs>
       <path id="m0a2fd3cd72" d="M 0 0 
L 0 -1.5 
" style="stroke: #000000; stroke-width: 0.5"/>
      </defs>
      <g>
       <use xlink:href="#m0a2fd3cd72" x="29.956328" y="182.452206" style="stroke: #000000; stroke-width: 0.5"/>
      </g>
     </g>
     <g id="line2d_20">
      <defs>
       <path id="m0ea03a1417" d="M 0 0 
L 0 1.5 
" style="stroke: #000000; stroke-width: 0.5"/>
      </defs>
      <g>
       <use xlink:href="#m0ea03a1417" x="29.956328" y="16.132206" style="stroke: #000000; stroke-width: 0.5"/>
      </g>
     </g>
    </g>
    <g id="xtick_8">
     <g id="line2d_21">
      <g>
       <use xlink:href="#m0a2fd3cd72" x="42.155271" y="182.452206" style="stroke: #000000; stroke-width: 0.5"/>
      </g>
     </g>
     <g id="line2d_22">
      <g>
       <use xlink:href="#m0ea03a1417" x="42.155271" y="16.132206" style="stroke: #000000; stroke-width: 0.5"/>
      </g>
     </g>
    </g>
    <g id="xtick_9">
     <g id="line2d_23">
      <g>
       <use xlink:href="#m0a2fd3cd72" x="48.254743" y="182.452206" style="stroke: #000000; stroke-width: 0.5"/>
      </g>
     </g>
     <g id="line2d_24">
      <g>
       <use xlink:href="#m0ea03a1417" x="48.254743" y="16.132206" style="stroke: #000000; stroke-width: 0.5"/>
      </g>
     </g>
    </g>
    <g id="xtick_10">
     <g id="line2d_25">
      <g>
       <use xlink:href="#m0a2fd3cd72" x="54.354214" y="182.452206" style="stroke: #000000; stroke-width: 0.5"/>
      </g>
     </g>
     <g id="line2d_26">
      <g>
       <use xlink:href="#m0ea03a1417" x="54.354214" y="16.132206" style="stroke: #000000; stroke-width: 0.5"/>
      </g>
     </g>
    </g>
    <g id="xtick_11">
     <g id="line2d_27">
      <g>
       <use xlink:href="#m0a2fd3cd72" x="60.453686" y="182.452206" style="stroke: #000000; stroke-width: 0.5"/>
      </g>
     </g>
     <g id="line2d_28">
      <g>
       <use xlink:href="#m0ea03a1417" x="60.453686" y="16.132206" style="stroke: #000000; stroke-width: 0.5"/>
      </g>
     </g>
    </g>
    <g id="xtick_12">
     <g id="line2d_29">
      <g>
       <use xlink:href="#m0a2fd3cd72" x="72.652629" y="182.452206" style="stroke: #000000; stroke-width: 0.5"/>
      </g>
     </g>
     <g id="line2d_30">
      <g>
       <use xlink:href="#m0ea03a1417" x="72.652629" y="16.132206" style="stroke: #000000; stroke-width: 0.5"/>
      </g>
     </g>
    </g>
    <g id="xtick_13">
     <g id="line2d_31">
      <g>
       <use xlink:href="#m0a2fd3cd72" x="78.752101" y="182.452206" style="stroke: #000000; stroke-width: 0.5"/>
      </g>
     </g>
     <g id="line2d_32">
      <g>
       <use xlink:href="#m0ea03a1417" x="78.752101" y="16.132206" style="stroke: #000000; stroke-width: 0.5"/>
      </g>
     </g>
    </g>
    <g id="xtick_14">
     <g id="line2d_33">
      <g>
       <use xlink:href="#m0a2fd3cd72" x="84.851573" y="182.452206" style="stroke: #000000; stroke-width: 0.5"/>
      </g>
     </g>
     <g id="line2d_34">
      <g>
       <use xlink:href="#m0ea03a1417" x="84.851573" y="16.132206" style="stroke: #000000; stroke-width: 0.5"/>
      </g>
     </g>
    </g>
    <g id="xtick_15">
     <g id="line2d_35">
      <g>
       <use xlink:href="#m0a2fd3cd72" x="90.951044" y="182.452206" style="stroke: #000000; stroke-width: 0.5"/>
      </g>
     </g>
     <g id="line2d_36">
      <g>
       <use xlink:href="#m0ea03a1417" x="90.951044" y="16.132206" style="stroke: #000000; stroke-width: 0.5"/>
      </g>
     </g>
    </g>
    <g id="xtick_16">
     <g id="line2d_37">
      <g>
       <use xlink:href="#m0a2fd3cd72" x="103.149988" y="182.452206" style="stroke: #000000; stroke-width: 0.5"/>
      </g>
     </g>
     <g id="line2d_38">
      <g>
       <use xlink:href="#m0ea03a1417" x="103.149988" y="16.132206" style="stroke: #000000; stroke-width: 0.5"/>
      </g>
     </g>
    </g>
    <g id="xtick_17">
     <g id="line2d_39">
      <g>
       <use xlink:href="#m0a2fd3cd72" x="109.249459" y="182.452206" style="stroke: #000000; stroke-width: 0.5"/>
      </g>
     </g>
     <g id="line2d_40">
      <g>
       <use xlink:href="#m0ea03a1417" x="109.249459" y="16.132206" style="stroke: #000000; stroke-width: 0.5"/>
      </g>
     </g>
    </g>
    <g id="xtick_18">
     <g id="line2d_41">
      <g>
       <use xlink:href="#m0a2fd3cd72" x="115.348931" y="182.452206" style="stroke: #000000; stroke-width: 0.5"/>
      </g>
     </g>
     <g id="line2d_42">
      <g>
       <use xlink:href="#m0ea03a1417" x="115.348931" y="16.132206" style="stroke: #000000; stroke-width: 0.5"/>
      </g>
     </g>
    </g>
    <g id="xtick_19">
     <g id="line2d_43">
      <g>
       <use xlink:href="#m0a2fd3cd72" x="121.448403" y="182.452206" style="stroke: #000000; stroke-width: 0.5"/>
      </g>
     </g>
     <g id="line2d_44">
      <g>
       <use xlink:href="#m0ea03a1417" x="121.448403" y="16.132206" style="stroke: #000000; stroke-width: 0.5"/>
      </g>
     </g>
    </g>
    <g id="xtick_20">
     <g id="line2d_45">
      <g>
       <use xlink:href="#m0a2fd3cd72" x="133.647346" y="182.452206" style="stroke: #000000; stroke-width: 0.5"/>
      </g>
     </g>
     <g id="line2d_46">
      <g>
       <use xlink:href="#m0ea03a1417" x="133.647346" y="16.132206" style="stroke: #000000; stroke-width: 0.5"/>
      </g>
     </g>
    </g>
    <g id="xtick_21">
     <g id="line2d_47">
      <g>
       <use xlink:href="#m0a2fd3cd72" x="139.746818" y="182.452206" style="stroke: #000000; stroke-width: 0.5"/>
      </g>
     </g>
     <g id="line2d_48">
      <g>
       <use xlink:href="#m0ea03a1417" x="139.746818" y="16.132206" style="stroke: #000000; stroke-width: 0.5"/>
      </g>
     </g>
    </g>
    <g id="xtick_22">
     <g id="line2d_49">
      <g>
       <use xlink:href="#m0a2fd3cd72" x="145.846289" y="182.452206" style="stroke: #000000; stroke-width: 0.5"/>
      </g>
     </g>
     <g id="line2d_50">
      <g>
       <use xlink:href="#m0ea03a1417" x="145.846289" y="16.132206" style="stroke: #000000; stroke-width: 0.5"/>
      </g>
     </g>
    </g>
    <g id="xtick_23">
     <g id="line2d_51">
      <g>
       <use xlink:href="#m0a2fd3cd72" x="151.945761" y="182.452206" style="stroke: #000000; stroke-width: 0.5"/>
      </g>
     </g>
     <g id="line2d_52">
      <g>
       <use xlink:href="#m0ea03a1417" x="151.945761" y="16.132206" style="stroke: #000000; stroke-width: 0.5"/>
      </g>
     </g>
    </g>
    <g id="xtick_24">
     <g id="line2d_53">
      <g>
       <use xlink:href="#m0a2fd3cd72" x="164.144704" y="182.452206" style="stroke: #000000; stroke-width: 0.5"/>
      </g>
     </g>
     <g id="line2d_54">
      <g>
       <use xlink:href="#m0ea03a1417" x="164.144704" y="16.132206" style="stroke: #000000; stroke-width: 0.5"/>
      </g>
     </g>
    </g>
    <g id="xtick_25">
     <g id="line2d_55">
      <g>
       <use xlink:href="#m0a2fd3cd72" x="170.244176" y="182.452206" style="stroke: #000000; stroke-width: 0.5"/>
      </g>
     </g>
     <g id="line2d_56">
      <g>
       <use xlink:href="#m0ea03a1417" x="170.244176" y="16.132206" style="stroke: #000000; stroke-width: 0.5"/>
      </g>
     </g>
    </g>
    <g id="xtick_26">
     <g id="line2d_57">
      <g>
       <use xlink:href="#m0a2fd3cd72" x="176.343648" y="182.452206" style="stroke: #000000; stroke-width: 0.5"/>
      </g>
     </g>
     <g id="line2d_58">
      <g>
       <use xlink:href="#m0ea03a1417" x="176.343648" y="16.132206" style="stroke: #000000; stroke-width: 0.5"/>
      </g>
     </g>
    </g>
    <g id="xtick_27">
     <g id="line2d_59">
      <g>
       <use xlink:href="#m0a2fd3cd72" x="182.443119" y="182.452206" style="stroke: #000000; stroke-width: 0.5"/>
      </g>
     </g>
     <g id="line2d_60">
      <g>
       <use xlink:href="#m0ea03a1417" x="182.443119" y="16.132206" style="stroke: #000000; stroke-width: 0.5"/>
      </g>
     </g>
    </g>
    <g id="xtick_28">
     <g id="line2d_61">
      <g>
       <use xlink:href="#m0a2fd3cd72" x="194.642063" y="182.452206" style="stroke: #000000; stroke-width: 0.5"/>
      </g>
     </g>
     <g id="line2d_62">
      <g>
       <use xlink:href="#m0ea03a1417" x="194.642063" y="16.132206" style="stroke: #000000; stroke-width: 0.5"/>
      </g>
     </g>
    </g>
    <g id="text_7">
     <!-- Iteraciones -->
     <g transform="translate(94.664499 202.484981) scale(0.08 -0.08)">
      <defs>
       <path id="NimbusRomNo9L-Regu-49" d="M 736 689 
C 736 206 653 128 115 128 
L 115 0 
L 2016 0 
L 2016 128 
C 1491 128 1389 217 1389 688 
L 1389 3542 
C 1389 4012 1478 4096 2016 4096 
L 2016 4231 
L 115 4231 
L 115 4096 
C 659 4096 736 4026 736 3548 
L 736 689 
z
" transform="scale(0.015625)"/>
       <path id="NimbusRomNo9L-Regu-74" d="M 1632 2880 
L 986 2880 
L 986 3622 
C 986 3686 979 3706 941 3706 
C 896 3648 858 3590 813 3526 
C 570 3174 294 2867 192 2841 
C 122 2794 83 2748 83 2715 
C 83 2695 90 2682 109 2682 
L 448 2682 
L 448 751 
C 448 212 640 -64 1018 -64 
C 1331 -64 1574 90 1786 423 
L 1702 493 
C 1568 333 1459 269 1318 269 
C 1082 269 986 443 986 847 
L 986 2682 
L 1632 2682 
L 1632 2880 
z
" transform="scale(0.015625)"/>
       <path id="NimbusRomNo9L-Regu-65" d="M 2611 1053 
C 2304 564 2029 378 1619 378 
C 1254 378 979 564 794 930 
C 678 1174 634 1386 621 1779 
L 2592 1779 
C 2541 2193 2477 2377 2317 2581 
C 2125 2811 1830 2944 1498 2944 
C 1178 2944 877 2829 634 2611 
C 333 2349 160 1894 160 1370 
C 160 486 621 -64 1357 -64 
C 1965 -64 2445 315 2714 1008 
L 2611 1053 
z
M 634 1984 
C 704 2479 922 2714 1312 2714 
C 1702 2714 1856 2535 1939 1984 
L 634 1984 
z
" transform="scale(0.015625)"/>
       <path id="NimbusRomNo9L-Regu-72" d="M 45 2496 
C 134 2515 192 2522 269 2522 
C 429 2522 486 2419 486 2138 
L 486 538 
C 486 218 442 173 32 96 
L 32 0 
L 1568 0 
L 1568 102 
C 1133 102 1024 199 1024 565 
L 1024 2013 
C 1024 2219 1299 2541 1472 2541 
C 1510 2541 1568 2509 1638 2445 
C 1741 2355 1811 2317 1894 2317 
C 2048 2317 2144 2426 2144 2605 
C 2144 2816 2010 2944 1792 2944 
C 1523 2944 1338 2797 1024 2343 
L 1024 2931 
L 992 2944 
C 653 2803 422 2721 45 2599 
L 45 2496 
z
" transform="scale(0.015625)"/>
       <path id="NimbusRomNo9L-Regu-61" d="M 2829 423 
C 2720 333 2643 301 2547 301 
C 2400 301 2355 390 2355 672 
L 2355 1920 
C 2355 2253 2323 2438 2227 2592 
C 2086 2822 1811 2944 1434 2944 
C 832 2944 358 2630 358 2227 
C 358 2080 486 1952 634 1952 
C 787 1952 922 2080 922 2221 
C 922 2246 915 2278 909 2323 
C 896 2381 890 2432 890 2477 
C 890 2650 1094 2790 1350 2790 
C 1664 2790 1837 2605 1837 2259 
L 1837 1869 
C 851 1472 742 1421 467 1178 
C 326 1050 237 832 237 621 
C 237 218 518 -64 909 -64 
C 1190 -64 1453 70 1843 403 
C 1875 70 1990 -64 2253 -64 
C 2470 -64 2605 13 2829 256 
L 2829 423 
z
M 1837 783 
C 1837 584 1805 526 1670 449 
C 1517 359 1338 301 1203 301 
C 979 301 800 520 800 796 
L 800 822 
C 800 1201 1062 1433 1837 1715 
L 1837 783 
z
" transform="scale(0.015625)"/>
       <path id="NimbusRomNo9L-Regu-63" d="M 2547 998 
C 2240 550 2010 397 1645 397 
C 1062 397 653 909 653 1645 
C 653 2304 1005 2758 1523 2758 
C 1754 2758 1837 2688 1901 2451 
L 1939 2310 
C 1990 2131 2106 2016 2240 2016 
C 2406 2016 2547 2138 2547 2285 
C 2547 2643 2099 2944 1562 2944 
C 1248 2944 922 2816 659 2586 
C 339 2304 160 1869 160 1363 
C 160 531 666 -64 1376 -64 
C 1664 -64 1920 38 2150 237 
C 2323 390 2445 563 2637 941 
L 2547 998 
z
" transform="scale(0.015625)"/>
       <path id="NimbusRomNo9L-Regu-69" d="M 1120 2929 
L 128 2579 
L 128 2484 
L 179 2490 
C 256 2502 339 2509 397 2509 
C 550 2509 608 2406 608 2125 
L 608 640 
C 608 179 544 109 102 109 
L 102 0 
L 1619 0 
L 1619 96 
C 1197 128 1146 191 1146 650 
L 1146 2910 
L 1120 2929 
z
M 819 4352 
C 646 4352 499 4205 499 4026 
C 499 3847 640 3699 819 3699 
C 1005 3699 1152 3840 1152 4026 
C 1152 4205 1005 4352 819 4352 
z
" transform="scale(0.015625)"/>
       <path id="NimbusRomNo9L-Regu-6f" d="M 1600 2944 
C 768 2944 186 2330 186 1446 
C 186 582 781 -64 1587 -64 
C 2394 -64 3008 614 3008 1498 
C 3008 2336 2419 2944 1600 2944 
z
M 1517 2765 
C 2054 2765 2432 2150 2432 1274 
C 2432 550 2144 115 1664 115 
C 1414 115 1178 269 1043 525 
C 864 858 762 1306 762 1760 
C 762 2368 1062 2765 1517 2765 
z
" transform="scale(0.015625)"/>
       <path id="NimbusRomNo9L-Regu-6e" d="M 102 2579 
C 141 2598 205 2605 275 2605 
C 454 2605 512 2509 512 2195 
L 512 608 
C 512 243 442 154 115 128 
L 115 32 
L 1472 32 
L 1472 128 
C 1146 154 1050 230 1050 461 
L 1050 2259 
C 1357 2547 1498 2624 1709 2624 
C 2022 2624 2176 2426 2176 2003 
L 2176 666 
C 2176 262 2093 154 1773 128 
L 1773 32 
L 3104 32 
L 3104 128 
C 2790 160 2714 237 2714 550 
L 2714 2016 
C 2714 2618 2432 2976 1958 2976 
C 1664 2976 1466 2867 1030 2458 
L 1030 2963 
L 986 2976 
C 672 2861 454 2790 102 2688 
L 102 2579 
z
" transform="scale(0.015625)"/>
       <path id="NimbusRomNo9L-Regu-73" d="M 2016 2010 
L 1990 2880 
L 1920 2880 
L 1907 2867 
C 1850 2822 1843 2816 1818 2816 
C 1779 2816 1715 2829 1645 2861 
C 1504 2915 1363 2944 1197 2944 
C 691 2944 326 2616 326 2154 
C 326 1796 531 1539 1075 1231 
L 1446 1020 
C 1670 892 1779 737 1779 539 
C 1779 256 1574 77 1248 77 
C 1030 77 832 159 710 298 
C 576 455 518 600 435 960 
L 333 960 
L 333 -39 
L 416 -39 
C 461 33 486 48 563 48 
C 621 48 710 35 858 -2 
C 1037 -39 1210 -64 1325 -64 
C 1818 -64 2227 308 2227 757 
C 2227 1077 2074 1289 1690 1520 
L 998 1930 
C 819 2033 723 2194 723 2367 
C 723 2624 922 2803 1216 2803 
C 1581 2803 1773 2583 1920 2010 
L 2016 2010 
z
" transform="scale(0.015625)"/>
      </defs>
      <use xlink:href="#NimbusRomNo9L-Regu-49" transform="scale(0.996264)"/>
      <use xlink:href="#NimbusRomNo9L-Regu-74" transform="translate(33.17523 0) scale(0.996264)"/>
      <use xlink:href="#NimbusRomNo9L-Regu-65" transform="translate(60.870399 0) scale(0.996264)"/>
      <use xlink:href="#NimbusRomNo9L-Regu-72" transform="translate(105.103968 0) scale(0.996264)"/>
      <use xlink:href="#NimbusRomNo9L-Regu-61" transform="translate(138.279198 0) scale(0.996264)"/>
      <use xlink:href="#NimbusRomNo9L-Regu-63" transform="translate(182.512766 0) scale(0.996264)"/>
      <use xlink:href="#NimbusRomNo9L-Regu-69" transform="translate(226.746335 0) scale(0.996264)"/>
      <use xlink:href="#NimbusRomNo9L-Regu-6f" transform="translate(254.441505 0) scale(0.996264)"/>
      <use xlink:href="#NimbusRomNo9L-Regu-6e" transform="translate(304.254705 0) scale(0.996264)"/>
      <use xlink:href="#NimbusRomNo9L-Regu-65" transform="translate(354.067906 0) scale(0.996264)"/>
      <use xlink:href="#NimbusRomNo9L-Regu-73" transform="translate(398.301474 0) scale(0.996264)"/>
     </g>
    </g>
   </g>
   <g id="matplotlib.axis_2">
    <g id="ytick_1">
     <g id="line2d_63">
      <path d="M 28.446708 155.481395 
L 195.846708 155.481395 
" clip-path="url(#p26a59301a7)" style="fill: none; stroke: #b0b0b0; stroke-width: 0.5; stroke-linecap: square"/>
     </g>
     <g id="line2d_64">
      <defs>
       <path id="m5d0080d31c" d="M 0 0 
L 3 0 
" style="stroke: #000000; stroke-width: 0.5"/>
      </defs>
      <g>
       <use xlink:href="#m5d0080d31c" x="28.446708" y="155.481395" style="stroke: #000000; stroke-width: 0.5"/>
      </g>
     </g>
     <g id="line2d_65">
      <defs>
       <path id="m9a539d8d17" d="M 0 0 
L -3 0 
" style="stroke: #000000; stroke-width: 0.5"/>
      </defs>
      <g>
       <use xlink:href="#m9a539d8d17" x="195.846708" y="155.481395" style="stroke: #000000; stroke-width: 0.5"/>
      </g>
     </g>
     <g id="text_8">
      <!-- $\mathdefault{0.1}$ -->
      <g transform="translate(14.768963 158.183223) scale(0.08 -0.08)">
       <defs>
        <path id="CMMI10-3a" d="M 1229 338 
C 1229 522 1075 675 890 675 
C 704 675 550 522 550 338 
C 550 153 704 0 890 0 
C 1075 0 1229 153 1229 338 
z
" transform="scale(0.015625)"/>
       </defs>
       <use xlink:href="#NimbusRomNo9L-Regu-30" transform="scale(0.996264)"/>
       <use xlink:href="#CMMI10-3a" transform="translate(49.8132 0) scale(0.996264)"/>
       <use xlink:href="#NimbusRomNo9L-Regu-31" transform="translate(77.408707 0) scale(0.996264)"/>
      </g>
     </g>
    </g>
    <g id="ytick_2">
     <g id="line2d_66">
      <path d="M 28.446708 124.832746 
L 195.846708 124.832746 
" clip-path="url(#p26a59301a7)" style="fill: none; stroke: #b0b0b0; stroke-width: 0.5; stroke-linecap: square"/>
     </g>
     <g id="line2d_67">
      <g>
       <use xlink:href="#m5d0080d31c" x="28.446708" y="124.832746" style="stroke: #000000; stroke-width: 0.5"/>
      </g>
     </g>
     <g id="line2d_68">
      <g>
       <use xlink:href="#m9a539d8d17" x="195.846708" y="124.832746" style="stroke: #000000; stroke-width: 0.5"/>
      </g>
     </g>
     <g id="text_9">
      <!-- $\mathdefault{0.2}$ -->
      <g transform="translate(14.768963 127.534574) scale(0.08 -0.08)">
       <use xlink:href="#NimbusRomNo9L-Regu-30" transform="scale(0.996264)"/>
       <use xlink:href="#CMMI10-3a" transform="translate(49.8132 0) scale(0.996264)"/>
       <use xlink:href="#NimbusRomNo9L-Regu-32" transform="translate(77.408707 0) scale(0.996264)"/>
      </g>
     </g>
    </g>
    <g id="ytick_3">
     <g id="line2d_69">
      <path d="M 28.446708 94.184098 
L 195.846708 94.184098 
" clip-path="url(#p26a59301a7)" style="fill: none; stroke: #b0b0b0; stroke-width: 0.5; stroke-linecap: square"/>
     </g>
     <g id="line2d_70">
      <g>
       <use xlink:href="#m5d0080d31c" x="28.446708" y="94.184098" style="stroke: #000000; stroke-width: 0.5"/>
      </g>
     </g>
     <g id="line2d_71">
      <g>
       <use xlink:href="#m9a539d8d17" x="195.846708" y="94.184098" style="stroke: #000000; stroke-width: 0.5"/>
      </g>
     </g>
     <g id="text_10">
      <!-- $\mathdefault{0.3}$ -->
      <g transform="translate(14.768963 96.885926) scale(0.08 -0.08)">
       <use xlink:href="#NimbusRomNo9L-Regu-30" transform="scale(0.996264)"/>
       <use xlink:href="#CMMI10-3a" transform="translate(49.8132 0) scale(0.996264)"/>
       <use xlink:href="#NimbusRomNo9L-Regu-33" transform="translate(77.408707 0) scale(0.996264)"/>
      </g>
     </g>
    </g>
    <g id="ytick_4">
     <g id="line2d_72">
      <path d="M 28.446708 63.535449 
L 195.846708 63.535449 
" clip-path="url(#p26a59301a7)" style="fill: none; stroke: #b0b0b0; stroke-width: 0.5; stroke-linecap: square"/>
     </g>
     <g id="line2d_73">
      <g>
       <use xlink:href="#m5d0080d31c" x="28.446708" y="63.535449" style="stroke: #000000; stroke-width: 0.5"/>
      </g>
     </g>
     <g id="line2d_74">
      <g>
       <use xlink:href="#m9a539d8d17" x="195.846708" y="63.535449" style="stroke: #000000; stroke-width: 0.5"/>
      </g>
     </g>
     <g id="text_11">
      <!-- $\mathdefault{0.4}$ -->
      <g transform="translate(14.768963 66.237277) scale(0.08 -0.08)">
       <use xlink:href="#NimbusRomNo9L-Regu-30" transform="scale(0.996264)"/>
       <use xlink:href="#CMMI10-3a" transform="translate(49.8132 0) scale(0.996264)"/>
       <use xlink:href="#NimbusRomNo9L-Regu-34" transform="translate(77.408707 0) scale(0.996264)"/>
      </g>
     </g>
    </g>
    <g id="ytick_5">
     <g id="line2d_75">
      <path d="M 28.446708 32.8868 
L 195.846708 32.8868 
" clip-path="url(#p26a59301a7)" style="fill: none; stroke: #b0b0b0; stroke-width: 0.5; stroke-linecap: square"/>
     </g>
     <g id="line2d_76">
      <g>
       <use xlink:href="#m5d0080d31c" x="28.446708" y="32.8868" style="stroke: #000000; stroke-width: 0.5"/>
      </g>
     </g>
     <g id="line2d_77">
      <g>
       <use xlink:href="#m9a539d8d17" x="195.846708" y="32.8868" style="stroke: #000000; stroke-width: 0.5"/>
      </g>
     </g>
     <g id="text_12">
      <!-- $\mathdefault{0.5}$ -->
      <g transform="translate(14.768963 35.588628) scale(0.08 -0.08)">
       <use xlink:href="#NimbusRomNo9L-Regu-30" transform="scale(0.996264)"/>
       <use xlink:href="#CMMI10-3a" transform="translate(49.8132 0) scale(0.996264)"/>
       <use xlink:href="#NimbusRomNo9L-Regu-35" transform="translate(77.408707 0) scale(0.996264)"/>
      </g>
     </g>
    </g>
    <g id="ytick_6">
     <g id="line2d_78">
      <defs>
       <path id="md7fb3152b9" d="M 0 0 
L 1.5 0 
" style="stroke: #000000; stroke-width: 0.5"/>
      </defs>
      <g>
       <use xlink:href="#md7fb3152b9" x="28.446708" y="180.000314" style="stroke: #000000; stroke-width: 0.5"/>
      </g>
     </g>
     <g id="line2d_79">
      <defs>
       <path id="mf134413cdb" d="M 0 0 
L -1.5 0 
" style="stroke: #000000; stroke-width: 0.5"/>
      </defs>
      <g>
       <use xlink:href="#mf134413cdb" x="195.846708" y="180.000314" style="stroke: #000000; stroke-width: 0.5"/>
      </g>
     </g>
    </g>
    <g id="ytick_7">
     <g id="line2d_80">
      <g>
       <use xlink:href="#md7fb3152b9" x="28.446708" y="173.870584" style="stroke: #000000; stroke-width: 0.5"/>
      </g>
     </g>
     <g id="line2d_81">
      <g>
       <use xlink:href="#mf134413cdb" x="195.846708" y="173.870584" style="stroke: #000000; stroke-width: 0.5"/>
      </g>
     </g>
    </g>
    <g id="ytick_8">
     <g id="line2d_82">
      <g>
       <use xlink:href="#md7fb3152b9" x="28.446708" y="167.740855" style="stroke: #000000; stroke-width: 0.5"/>
      </g>
     </g>
     <g id="line2d_83">
      <g>
       <use xlink:href="#mf134413cdb" x="195.846708" y="167.740855" style="stroke: #000000; stroke-width: 0.5"/>
      </g>
     </g>
    </g>
    <g id="ytick_9">
     <g id="line2d_84">
      <g>
       <use xlink:href="#md7fb3152b9" x="28.446708" y="161.611125" style="stroke: #000000; stroke-width: 0.5"/>
      </g>
     </g>
     <g id="line2d_85">
      <g>
       <use xlink:href="#mf134413cdb" x="195.846708" y="161.611125" style="stroke: #000000; stroke-width: 0.5"/>
      </g>
     </g>
    </g>
    <g id="ytick_10">
     <g id="line2d_86">
      <g>
       <use xlink:href="#md7fb3152b9" x="28.446708" y="149.351665" style="stroke: #000000; stroke-width: 0.5"/>
      </g>
     </g>
     <g id="line2d_87">
      <g>
       <use xlink:href="#mf134413cdb" x="195.846708" y="149.351665" style="stroke: #000000; stroke-width: 0.5"/>
      </g>
     </g>
    </g>
    <g id="ytick_11">
     <g id="line2d_88">
      <g>
       <use xlink:href="#md7fb3152b9" x="28.446708" y="143.221936" style="stroke: #000000; stroke-width: 0.5"/>
      </g>
     </g>
     <g id="line2d_89">
      <g>
       <use xlink:href="#mf134413cdb" x="195.846708" y="143.221936" style="stroke: #000000; stroke-width: 0.5"/>
      </g>
     </g>
    </g>
    <g id="ytick_12">
     <g id="line2d_90">
      <g>
       <use xlink:href="#md7fb3152b9" x="28.446708" y="137.092206" style="stroke: #000000; stroke-width: 0.5"/>
      </g>
     </g>
     <g id="line2d_91">
      <g>
       <use xlink:href="#mf134413cdb" x="195.846708" y="137.092206" style="stroke: #000000; stroke-width: 0.5"/>
      </g>
     </g>
    </g>
    <g id="ytick_13">
     <g id="line2d_92">
      <g>
       <use xlink:href="#md7fb3152b9" x="28.446708" y="130.962476" style="stroke: #000000; stroke-width: 0.5"/>
      </g>
     </g>
     <g id="line2d_93">
      <g>
       <use xlink:href="#mf134413cdb" x="195.846708" y="130.962476" style="stroke: #000000; stroke-width: 0.5"/>
      </g>
     </g>
    </g>
    <g id="ytick_14">
     <g id="line2d_94">
      <g>
       <use xlink:href="#md7fb3152b9" x="28.446708" y="118.703017" style="stroke: #000000; stroke-width: 0.5"/>
      </g>
     </g>
     <g id="line2d_95">
      <g>
       <use xlink:href="#mf134413cdb" x="195.846708" y="118.703017" style="stroke: #000000; stroke-width: 0.5"/>
      </g>
     </g>
    </g>
    <g id="ytick_15">
     <g id="line2d_96">
      <g>
       <use xlink:href="#md7fb3152b9" x="28.446708" y="112.573287" style="stroke: #000000; stroke-width: 0.5"/>
      </g>
     </g>
     <g id="line2d_97">
      <g>
       <use xlink:href="#mf134413cdb" x="195.846708" y="112.573287" style="stroke: #000000; stroke-width: 0.5"/>
      </g>
     </g>
    </g>
    <g id="ytick_16">
     <g id="line2d_98">
      <g>
       <use xlink:href="#md7fb3152b9" x="28.446708" y="106.443557" style="stroke: #000000; stroke-width: 0.5"/>
      </g>
     </g>
     <g id="line2d_99">
      <g>
       <use xlink:href="#mf134413cdb" x="195.846708" y="106.443557" style="stroke: #000000; stroke-width: 0.5"/>
      </g>
     </g>
    </g>
    <g id="ytick_17">
     <g id="line2d_100">
      <g>
       <use xlink:href="#md7fb3152b9" x="28.446708" y="100.313828" style="stroke: #000000; stroke-width: 0.5"/>
      </g>
     </g>
     <g id="line2d_101">
      <g>
       <use xlink:href="#mf134413cdb" x="195.846708" y="100.313828" style="stroke: #000000; stroke-width: 0.5"/>
      </g>
     </g>
    </g>
    <g id="ytick_18">
     <g id="line2d_102">
      <g>
       <use xlink:href="#md7fb3152b9" x="28.446708" y="88.054368" style="stroke: #000000; stroke-width: 0.5"/>
      </g>
     </g>
     <g id="line2d_103">
      <g>
       <use xlink:href="#mf134413cdb" x="195.846708" y="88.054368" style="stroke: #000000; stroke-width: 0.5"/>
      </g>
     </g>
    </g>
    <g id="ytick_19">
     <g id="line2d_104">
      <g>
       <use xlink:href="#md7fb3152b9" x="28.446708" y="81.924638" style="stroke: #000000; stroke-width: 0.5"/>
      </g>
     </g>
     <g id="line2d_105">
      <g>
       <use xlink:href="#mf134413cdb" x="195.846708" y="81.924638" style="stroke: #000000; stroke-width: 0.5"/>
      </g>
     </g>
    </g>
    <g id="ytick_20">
     <g id="line2d_106">
      <g>
       <use xlink:href="#md7fb3152b9" x="28.446708" y="75.794909" style="stroke: #000000; stroke-width: 0.5"/>
      </g>
     </g>
     <g id="line2d_107">
      <g>
       <use xlink:href="#mf134413cdb" x="195.846708" y="75.794909" style="stroke: #000000; stroke-width: 0.5"/>
      </g>
     </g>
    </g>
    <g id="ytick_21">
     <g id="line2d_108">
      <g>
       <use xlink:href="#md7fb3152b9" x="28.446708" y="69.665179" style="stroke: #000000; stroke-width: 0.5"/>
      </g>
     </g>
     <g id="line2d_109">
      <g>
       <use xlink:href="#mf134413cdb" x="195.846708" y="69.665179" style="stroke: #000000; stroke-width: 0.5"/>
      </g>
     </g>
    </g>
    <g id="ytick_22">
     <g id="line2d_110">
      <g>
       <use xlink:href="#md7fb3152b9" x="28.446708" y="57.405719" style="stroke: #000000; stroke-width: 0.5"/>
      </g>
     </g>
     <g id="line2d_111">
      <g>
       <use xlink:href="#mf134413cdb" x="195.846708" y="57.405719" style="stroke: #000000; stroke-width: 0.5"/>
      </g>
     </g>
    </g>
    <g id="ytick_23">
     <g id="line2d_112">
      <g>
       <use xlink:href="#md7fb3152b9" x="28.446708" y="51.27599" style="stroke: #000000; stroke-width: 0.5"/>
      </g>
     </g>
     <g id="line2d_113">
      <g>
       <use xlink:href="#mf134413cdb" x="195.846708" y="51.27599" style="stroke: #000000; stroke-width: 0.5"/>
      </g>
     </g>
    </g>
    <g id="ytick_24">
     <g id="line2d_114">
      <g>
       <use xlink:href="#md7fb3152b9" x="28.446708" y="45.14626" style="stroke: #000000; stroke-width: 0.5"/>
      </g>
     </g>
     <g id="line2d_115">
      <g>
       <use xlink:href="#mf134413cdb" x="195.846708" y="45.14626" style="stroke: #000000; stroke-width: 0.5"/>
      </g>
     </g>
    </g>
    <g id="ytick_25">
     <g id="line2d_116">
      <g>
       <use xlink:href="#md7fb3152b9" x="28.446708" y="39.01653" style="stroke: #000000; stroke-width: 0.5"/>
      </g>
     </g>
     <g id="line2d_117">
      <g>
       <use xlink:href="#mf134413cdb" x="195.846708" y="39.01653" style="stroke: #000000; stroke-width: 0.5"/>
      </g>
     </g>
    </g>
    <g id="ytick_26">
     <g id="line2d_118">
      <g>
       <use xlink:href="#md7fb3152b9" x="28.446708" y="26.757071" style="stroke: #000000; stroke-width: 0.5"/>
      </g>
     </g>
     <g id="line2d_119">
      <g>
       <use xlink:href="#mf134413cdb" x="195.846708" y="26.757071" style="stroke: #000000; stroke-width: 0.5"/>
      </g>
     </g>
    </g>
    <g id="ytick_27">
     <g id="line2d_120">
      <g>
       <use xlink:href="#md7fb3152b9" x="28.446708" y="20.627341" style="stroke: #000000; stroke-width: 0.5"/>
      </g>
     </g>
     <g id="line2d_121">
      <g>
       <use xlink:href="#mf134413cdb" x="195.846708" y="20.627341" style="stroke: #000000; stroke-width: 0.5"/>
      </g>
     </g>
    </g>
    <g id="text_13">
     <!-- Fracción de Cooperadores -->
     <g transform="translate(9.0435 141.123011) rotate(-90) scale(0.08 -0.08)">
      <defs>
       <path id="NimbusRomNo9L-Regu-46" d="M 3066 1472 
L 3066 2957 
L 2918 2957 
C 2842 2461 2726 2368 2214 2368 
L 1286 2368 
L 1286 3766 
C 1286 3943 1318 3981 1491 3981 
L 2362 3981 
C 3085 3981 3226 3886 3334 3314 
L 3494 3314 
L 3475 4224 
L 77 4224 
L 77 4102 
C 550 4064 634 3974 634 3525 
L 634 749 
C 634 217 563 134 77 134 
L 77 0 
L 1869 0 
L 1869 134 
C 1376 134 1286 225 1286 692 
L 1286 2106 
L 2214 2106 
C 2733 2106 2842 2007 2918 1472 
L 3066 1472 
z
" transform="scale(0.015625)"/>
       <path id="NimbusRomNo9L-Regu-b4" d="M 851 3264 
L 1837 3882 
C 1971 3964 2029 4047 2029 4148 
C 2029 4275 1946 4352 1805 4352 
C 1709 4352 1651 4320 1536 4206 
L 595 3264 
L 851 3264 
z
" transform="scale(0.015625)"/>
       <path id="NimbusRomNo9L-Regu-64" d="M 2202 -64 
L 3142 269 
L 3142 365 
C 3027 365 3014 365 2995 365 
C 2765 365 2714 435 2714 731 
L 2714 4364 
L 2682 4377 
C 2374 4268 2150 4204 1741 4096 
L 1741 3994 
C 1792 4000 1830 4000 1882 4000 
C 2118 4000 2176 3936 2176 3672 
L 2176 2669 
C 1933 2874 1760 2944 1504 2944 
C 768 2944 173 2221 173 1312 
C 173 493 653 -64 1357 -64 
C 1715 -64 1958 64 2176 365 
L 2176 -45 
L 2202 -64 
z
M 2176 653 
C 2176 608 2131 531 2067 461 
C 1952 333 1792 269 1606 269 
C 1075 269 723 781 723 1568 
C 723 2291 1037 2765 1523 2765 
C 1862 2765 2176 2464 2176 2125 
L 2176 653 
z
" transform="scale(0.015625)"/>
       <path id="NimbusRomNo9L-Regu-43" d="M 3968 2906 
L 3910 4352 
L 3776 4352 
C 3738 4218 3635 4141 3507 4141 
C 3450 4141 3354 4160 3258 4199 
C 2944 4301 2624 4352 2323 4352 
C 1798 4352 1267 4154 870 3802 
C 422 3405 179 2810 179 2106 
C 179 1511 371 960 698 596 
C 1082 180 1670 -64 2304 -64 
C 3027 -64 3661 231 4051 749 
L 3936 864 
C 3462 410 3040 218 2509 218 
C 2106 218 1747 346 1472 589 
C 1120 903 922 1479 922 2189 
C 922 3348 1517 4096 2445 4096 
C 2810 4096 3142 3962 3398 3706 
C 3603 3501 3699 3322 3821 2906 
L 3968 2906 
z
" transform="scale(0.015625)"/>
       <path id="NimbusRomNo9L-Regu-70" d="M 58 2516 
C 115 2522 160 2522 218 2522 
C 435 2522 480 2458 480 2155 
L 480 -855 
C 480 -1189 410 -1261 32 -1299 
L 32 -1408 
L 1581 -1408 
L 1581 -1293 
C 1101 -1293 1018 -1222 1018 -816 
L 1018 199 
C 1242 -13 1395 -77 1664 -77 
C 2419 -77 3008 643 3008 1575 
C 3008 2372 2560 2944 1939 2944 
C 1581 2944 1299 2784 1018 2438 
L 1018 2931 
L 979 2944 
C 634 2810 410 2726 58 2618 
L 58 2516 
z
M 1018 2136 
C 1018 2329 1376 2560 1670 2560 
C 2144 2560 2458 2071 2458 1324 
C 2458 611 2144 128 1683 128 
C 1382 128 1018 359 1018 552 
L 1018 2136 
z
" transform="scale(0.015625)"/>
      </defs>
      <use xlink:href="#NimbusRomNo9L-Regu-46" transform="scale(0.996264)"/>
      <use xlink:href="#NimbusRomNo9L-Regu-72" transform="translate(55.391677 0) scale(0.996264)"/>
      <use xlink:href="#NimbusRomNo9L-Regu-61" transform="translate(88.566907 0) scale(0.996264)"/>
      <use xlink:href="#NimbusRomNo9L-Regu-63" transform="translate(132.800475 0) scale(0.996264)"/>
      <use xlink:href="#NimbusRomNo9L-Regu-63" transform="translate(177.034044 0) scale(0.996264)"/>
      <use xlink:href="#NimbusRomNo9L-Regu-69" transform="translate(221.267613 0) scale(0.996264)"/>
      <use xlink:href="#NimbusRomNo9L-Regu-b4" transform="translate(257.281775 0.498056) scale(0.996264)"/>
      <use xlink:href="#NimbusRomNo9L-Regu-6f" transform="translate(248.962782 0) scale(0.996264)"/>
      <use xlink:href="#NimbusRomNo9L-Regu-6e" transform="translate(298.775983 0) scale(0.996264)"/>
      <use xlink:href="#NimbusRomNo9L-Regu-64" transform="translate(373.495784 0) scale(0.996264)"/>
      <use xlink:href="#NimbusRomNo9L-Regu-65" transform="translate(423.308984 0) scale(0.996264)"/>
      <use xlink:href="#NimbusRomNo9L-Regu-43" transform="translate(492.449153 0) scale(0.996264)"/>
      <use xlink:href="#NimbusRomNo9L-Regu-6f" transform="translate(558.899184 0) scale(0.996264)"/>
      <use xlink:href="#NimbusRomNo9L-Regu-6f" transform="translate(608.712385 0) scale(0.996264)"/>
      <use xlink:href="#NimbusRomNo9L-Regu-70" transform="translate(658.525585 0) scale(0.996264)"/>
      <use xlink:href="#NimbusRomNo9L-Regu-65" transform="translate(708.338786 0) scale(0.996264)"/>
      <use xlink:href="#NimbusRomNo9L-Regu-72" transform="translate(752.572354 0) scale(0.996264)"/>
      <use xlink:href="#NimbusRomNo9L-Regu-61" transform="translate(785.747584 0) scale(0.996264)"/>
      <use xlink:href="#NimbusRomNo9L-Regu-64" transform="translate(829.981153 0) scale(0.996264)"/>
      <use xlink:href="#NimbusRomNo9L-Regu-6f" transform="translate(879.794353 0) scale(0.996264)"/>
      <use xlink:href="#NimbusRomNo9L-Regu-72" transform="translate(929.607554 0) scale(0.996264)"/>
      <use xlink:href="#NimbusRomNo9L-Regu-65" transform="translate(962.782784 0) scale(0.996264)"/>
      <use xlink:href="#NimbusRomNo9L-Regu-73" transform="translate(1007.016352 0) scale(0.996264)"/>
     </g>
    </g>
   </g>
   <g id="line2d_122">
    <path d="M 36.055799 94.184098 
L 36.665746 86.011125 
L 36.97072 86.011125 
L 37.275694 87.032746 
L 37.580667 91.119233 
L 37.885641 88.054368 
L 38.190614 94.184098 
L 38.495588 83.967882 
L 38.800561 93.162476 
L 39.105535 87.032746 
L 39.410509 90.097611 
L 39.715482 86.011125 
L 40.020456 83.967882 
L 40.325429 77.838152 
L 40.630403 76.81653 
L 40.935377 77.838152 
L 41.24035 76.81653 
L 41.545324 80.903017 
L 41.850297 78.859773 
L 42.155271 75.794909 
L 42.460244 80.903017 
L 42.765218 77.838152 
L 43.070192 78.859773 
L 43.375165 80.903017 
L 43.680139 73.751665 
L 43.985112 74.773287 
L 44.59506 78.859773 
L 44.900033 74.773287 
L 45.205007 82.94626 
L 45.50998 78.859773 
L 45.814954 76.81653 
L 46.119927 80.903017 
L 46.424901 81.924638 
L 46.729875 78.859773 
L 47.034848 77.838152 
L 47.339822 71.708422 
L 47.644795 69.665179 
L 47.949769 71.708422 
L 48.254743 71.708422 
L 48.559716 74.773287 
L 48.86469 73.751665 
L 49.169663 68.643557 
L 49.474637 70.6868 
L 49.77961 69.665179 
L 50.084584 67.621936 
L 50.389558 71.708422 
L 50.694531 67.621936 
L 51.304478 67.621936 
L 51.609452 68.643557 
L 51.914426 67.621936 
L 52.219399 69.665179 
L 52.524373 66.600314 
L 52.829346 66.600314 
L 53.13432 65.578692 
L 53.439293 63.535449 
L 53.744267 62.513828 
L 54.049241 63.535449 
L 54.354214 65.578692 
L 54.659188 68.643557 
L 54.964161 63.535449 
L 55.269135 63.535449 
L 55.574109 60.470584 
L 55.879082 64.557071 
L 56.184056 62.513828 
L 56.489029 65.578692 
L 56.794003 66.600314 
L 57.098976 66.600314 
L 57.40395 68.643557 
L 57.708924 65.578692 
L 58.013897 65.578692 
L 58.623844 67.621936 
L 58.928818 63.535449 
L 59.233792 67.621936 
L 59.538765 62.513828 
L 59.843739 67.621936 
L 60.148712 63.535449 
L 60.453686 65.578692 
L 60.758659 66.600314 
L 61.063633 64.557071 
L 61.368607 64.557071 
L 61.67358 66.600314 
L 61.978554 63.535449 
L 62.283527 64.557071 
L 62.588501 64.557071 
L 62.893475 62.513828 
L 63.198448 67.621936 
L 63.503422 65.578692 
L 63.808395 68.643557 
L 64.113369 63.535449 
L 64.418342 68.643557 
L 64.723316 63.535449 
L 65.02829 64.557071 
L 65.333263 60.470584 
L 65.638237 61.492206 
L 65.94321 58.427341 
L 66.248184 58.427341 
L 66.858131 54.340855 
L 67.468078 54.340855 
L 67.773052 53.319233 
L 68.078025 55.362476 
L 68.382999 55.362476 
L 68.992946 53.319233 
L 69.29792 59.448963 
L 69.602893 54.340855 
L 70.212841 54.340855 
L 70.517814 57.405719 
L 71.127761 57.405719 
L 71.432735 56.384098 
L 71.737708 56.384098 
L 72.042682 54.340855 
L 72.347656 57.405719 
L 72.652629 55.362476 
L 72.957603 58.427341 
L 73.262576 55.362476 
L 73.872524 53.319233 
L 74.177497 55.362476 
L 74.482471 54.340855 
L 75.092418 50.254368 
L 75.397391 52.297611 
L 75.702365 50.254368 
L 76.007339 50.254368 
L 76.312312 44.124638 
L 76.617286 49.232746 
L 76.922259 47.189503 
L 77.227233 48.211125 
L 77.532207 46.167882 
L 77.83718 49.232746 
L 78.142154 48.211125 
L 78.752101 43.103017 
L 79.667022 46.167882 
L 79.971995 46.167882 
L 80.276969 51.27599 
L 80.886916 49.232746 
L 81.19189 49.232746 
L 81.496863 52.297611 
L 81.801837 52.297611 
L 82.10681 55.362476 
L 82.411784 56.384098 
L 83.021731 51.27599 
L 83.326705 53.319233 
L 83.936652 53.319233 
L 84.241625 52.297611 
L 84.546599 50.254368 
L 84.851573 53.319233 
L 85.156546 51.27599 
L 85.46152 52.297611 
L 85.766493 54.340855 
L 86.071467 54.340855 
L 86.37644 52.297611 
L 86.681414 54.340855 
L 86.986388 47.189503 
L 87.291361 54.340855 
L 87.596335 50.254368 
L 87.901308 52.297611 
L 88.206282 52.297611 
L 88.511256 48.211125 
L 88.816229 48.211125 
L 89.121203 52.297611 
L 89.426176 49.232746 
L 89.73115 54.340855 
L 90.036123 50.254368 
L 90.341097 49.232746 
L 90.646071 50.254368 
L 90.951044 52.297611 
L 91.256018 53.319233 
L 91.560991 49.232746 
L 91.865965 52.297611 
L 92.170939 49.232746 
L 92.475912 53.319233 
L 92.780886 50.254368 
L 93.085859 54.340855 
L 93.390833 50.254368 
L 94.00078 55.362476 
L 94.305754 48.211125 
L 94.610727 49.232746 
L 95.220674 49.232746 
L 95.830622 51.27599 
L 96.135595 54.340855 
L 96.440569 50.254368 
L 97.050516 48.211125 
L 97.355489 45.14626 
L 97.660463 46.167882 
L 97.965437 46.167882 
L 98.27041 50.254368 
L 98.575384 46.167882 
L 98.880357 48.211125 
L 99.185331 44.124638 
L 99.490305 43.103017 
L 99.795278 40.038152 
L 100.100252 39.01653 
L 100.405225 40.038152 
L 100.710199 42.081395 
L 101.320146 40.038152 
L 101.62512 40.038152 
L 102.235067 44.124638 
L 102.54004 44.124638 
L 102.845014 40.038152 
L 103.149988 39.01653 
L 103.454961 41.059773 
L 103.759935 44.124638 
L 104.064908 42.081395 
L 104.369882 44.124638 
L 104.674855 39.01653 
L 104.979829 44.124638 
L 105.284803 45.14626 
L 105.589776 41.059773 
L 105.89475 43.103017 
L 106.199723 39.01653 
L 106.504697 42.081395 
L 106.809671 39.01653 
L 107.114644 44.124638 
L 107.419618 43.103017 
L 107.724591 36.973287 
L 108.029565 41.059773 
L 108.334538 39.01653 
L 108.639512 39.01653 
L 108.944486 43.103017 
L 109.249459 41.059773 
L 109.554433 36.973287 
L 109.859406 44.124638 
L 110.16438 41.059773 
L 110.469354 46.167882 
L 110.774327 43.103017 
L 111.079301 43.103017 
L 111.384274 45.14626 
L 111.689248 39.01653 
L 111.994221 44.124638 
L 112.299195 41.059773 
L 112.604169 43.103017 
L 112.909142 42.081395 
L 113.214116 47.189503 
L 113.519089 41.059773 
L 113.824063 44.124638 
L 114.129037 40.038152 
L 114.43401 41.059773 
L 114.738984 40.038152 
L 115.043957 45.14626 
L 115.348931 43.103017 
L 115.653904 47.189503 
L 115.958878 37.994909 
L 116.263852 43.103017 
L 116.873799 43.103017 
L 117.178772 45.14626 
L 117.78872 35.951665 
L 118.398667 40.038152 
L 118.70364 41.059773 
L 119.008614 36.973287 
L 119.313587 36.973287 
L 119.618561 35.951665 
L 119.923535 40.038152 
L 120.228508 34.930044 
L 120.533482 40.038152 
L 120.838455 33.908422 
L 121.753376 42.081395 
L 122.05835 42.081395 
L 122.363323 41.059773 
L 122.668297 43.103017 
L 122.97327 44.124638 
L 123.278244 44.124638 
L 123.583218 42.081395 
L 123.888191 41.059773 
L 124.193165 42.081395 
L 124.498138 47.189503 
L 125.413059 41.059773 
L 125.718033 37.994909 
L 126.023006 42.081395 
L 126.32798 44.124638 
L 126.632953 42.081395 
L 126.937927 45.14626 
L 127.242901 42.081395 
L 127.547874 41.059773 
L 127.852848 43.103017 
L 128.157821 46.167882 
L 128.462795 44.124638 
L 128.767769 46.167882 
L 129.072742 46.167882 
L 129.377716 44.124638 
L 129.682689 37.994909 
L 129.987663 42.081395 
L 130.292636 33.908422 
L 130.59761 39.01653 
L 130.902584 39.01653 
L 131.207557 36.973287 
L 131.512531 39.01653 
L 131.817504 31.865179 
L 132.427452 39.01653 
L 132.732425 32.8868 
L 133.037399 36.973287 
L 133.342372 35.951665 
L 133.647346 37.994909 
L 133.952319 34.930044 
L 134.562267 32.8868 
L 134.86724 33.908422 
L 135.172214 30.843557 
L 135.782161 35.951665 
L 136.392108 33.908422 
L 136.697082 33.908422 
L 137.002055 35.951665 
L 137.307029 33.908422 
L 137.612002 30.843557 
L 137.916976 31.865179 
L 138.22195 28.800314 
L 138.526923 27.778692 
L 138.831897 28.800314 
L 139.13687 28.800314 
L 139.441844 27.778692 
L 139.746818 28.800314 
L 140.051791 28.800314 
L 140.356765 31.865179 
L 140.661738 31.865179 
L 141.271685 27.778692 
L 141.576659 31.865179 
L 141.881633 30.843557 
L 142.186606 31.865179 
L 142.49158 29.821936 
L 142.796553 31.865179 
L 143.101527 25.735449 
L 143.406501 27.778692 
L 143.711474 26.757071 
L 144.321421 30.843557 
L 144.931368 30.843557 
L 145.236342 32.8868 
L 145.541316 29.821936 
L 146.151263 29.821936 
L 146.456236 31.865179 
L 146.76121 29.821936 
L 147.066184 26.757071 
L 147.371157 29.821936 
L 147.676131 25.735449 
L 147.981104 27.778692 
L 148.286078 25.735449 
L 148.591051 29.821936 
L 148.896025 24.713828 
L 149.505972 26.757071 
L 149.810946 28.800314 
L 150.420893 28.800314 
L 150.725867 26.757071 
L 151.03084 28.800314 
L 151.335814 28.800314 
L 151.640787 29.821936 
L 151.945761 28.800314 
L 152.250735 23.692206 
L 152.555708 29.821936 
L 152.860682 27.778692 
L 153.165655 26.757071 
L 153.470629 27.778692 
L 153.775602 24.713828 
L 154.080576 25.735449 
L 154.38555 33.908422 
L 154.690523 32.8868 
L 154.995497 34.930044 
L 155.30047 32.8868 
L 155.605444 31.865179 
L 155.910418 32.8868 
L 156.215391 32.8868 
L 156.520365 30.843557 
L 156.825338 29.821936 
L 157.130312 30.843557 
L 157.435285 28.800314 
L 157.740259 28.800314 
L 158.045233 33.908422 
L 158.350206 35.951665 
L 158.960153 31.865179 
L 159.265127 32.8868 
L 159.570101 31.865179 
L 159.875074 32.8868 
L 160.180048 30.843557 
L 160.485021 29.821936 
L 160.789995 29.821936 
L 161.094968 31.865179 
L 161.399942 28.800314 
L 161.704916 32.8868 
L 162.009889 32.8868 
L 162.314863 28.800314 
L 162.619836 31.865179 
L 162.92481 32.8868 
L 163.229784 29.821936 
L 163.534757 33.908422 
L 163.839731 31.865179 
L 164.144704 28.800314 
L 164.449678 33.908422 
L 164.754651 30.843557 
L 165.364599 32.8868 
L 165.669572 30.843557 
L 165.974546 32.8868 
L 166.279519 33.908422 
L 166.584493 32.8868 
L 166.889467 28.800314 
L 167.19444 28.800314 
L 167.499414 31.865179 
L 167.804387 29.821936 
L 168.109361 28.800314 
L 168.414334 28.800314 
L 168.719308 30.843557 
L 169.329255 30.843557 
L 169.634229 27.778692 
L 169.939202 26.757071 
L 170.244176 24.713828 
L 170.54915 23.692206 
L 171.159097 28.800314 
L 171.46407 30.843557 
L 171.769044 31.865179 
L 172.074017 29.821936 
L 172.378991 30.843557 
L 172.683965 28.800314 
L 172.988938 30.843557 
L 173.293912 31.865179 
L 173.598885 30.843557 
L 173.903859 31.865179 
L 174.208833 31.865179 
L 174.513806 30.843557 
L 174.81878 32.8868 
L 175.123753 29.821936 
L 175.428727 30.843557 
L 175.7337 30.843557 
L 176.038674 31.865179 
L 176.343648 27.778692 
L 176.648621 31.865179 
L 176.953595 29.821936 
L 177.258568 28.800314 
L 177.868516 28.800314 
L 178.173489 32.8868 
L 178.478463 30.843557 
L 178.783436 31.865179 
L 179.08841 30.843557 
L 179.393383 27.778692 
L 179.698357 27.778692 
L 180.003331 29.821936 
L 180.308304 28.800314 
L 180.613278 29.821936 
L 180.918251 29.821936 
L 181.528199 27.778692 
L 181.833172 31.865179 
L 182.138146 29.821936 
L 182.443119 28.800314 
L 182.748093 28.800314 
L 183.053066 27.778692 
L 183.35804 28.800314 
L 183.663014 27.778692 
L 183.967987 27.778692 
L 184.577934 23.692206 
L 184.882908 27.778692 
L 185.187882 28.800314 
L 185.492855 30.843557 
L 185.797829 26.757071 
L 186.102802 27.778692 
L 186.407776 26.757071 
L 187.017723 28.800314 
L 187.322697 28.800314 
L 187.62767 27.778692 
L 187.932644 27.778692 
L 188.237617 30.843557 
L 188.237617 30.843557 
" clip-path="url(#p26a59301a7)" style="fill: none; stroke: #9b9aca; stroke-linecap: square"/>
   </g>
   <g id="line2d_123">
    <path d="M 36.055799 120.74626 
L 36.665746 145.265179 
L 36.97072 146.2868 
L 37.580667 146.2868 
L 38.190614 153.438152 
L 38.495588 152.41653 
L 38.800561 154.459773 
L 40.020456 154.459773 
L 40.630403 158.54626 
L 40.935377 157.524638 
L 41.24035 160.589503 
L 41.545324 158.54626 
L 41.850297 161.611125 
L 42.155271 159.567882 
L 42.460244 158.54626 
L 42.765218 159.567882 
L 43.680139 159.567882 
L 43.985112 160.589503 
L 44.290086 158.54626 
L 44.59506 159.567882 
L 44.900033 157.524638 
L 45.50998 159.567882 
L 45.814954 159.567882 
L 46.119927 158.54626 
L 46.424901 158.54626 
L 46.729875 161.611125 
L 47.034848 159.567882 
L 47.339822 160.589503 
L 47.644795 174.892206 
L 48.254743 172.848963 
L 48.559716 174.892206 
L 48.86469 172.848963 
L 49.77961 172.848963 
L 50.084584 171.827341 
L 50.389558 172.848963 
L 50.694531 172.848963 
L 50.999505 173.870584 
L 51.609452 171.827341 
L 51.914426 173.870584 
L 52.524373 171.827341 
L 53.13432 173.870584 
L 53.439293 172.848963 
L 53.744267 172.848963 
L 54.049241 174.892206 
L 54.354214 171.827341 
L 54.964161 171.827341 
L 55.269135 173.870584 
L 55.879082 173.870584 
L 56.184056 172.848963 
L 56.489029 173.870584 
L 56.794003 173.870584 
L 57.098976 174.892206 
L 57.40395 174.892206 
L 57.708924 173.870584 
L 58.013897 174.892206 
L 58.318871 172.848963 
L 58.623844 172.848963 
L 59.233792 170.805719 
L 59.538765 168.762476 
L 59.843739 168.762476 
L 60.148712 167.740855 
L 60.453686 168.762476 
L 60.758659 168.762476 
L 61.063633 166.719233 
L 61.368607 168.762476 
L 61.67358 168.762476 
L 61.978554 166.719233 
L 62.283527 168.762476 
L 63.198448 168.762476 
L 63.503422 167.740855 
L 63.808395 167.740855 
L 64.113369 168.762476 
L 64.418342 168.762476 
L 64.723316 167.740855 
L 65.02829 167.740855 
L 65.638237 169.784098 
L 65.94321 168.762476 
L 66.553158 168.762476 
L 66.858131 167.740855 
L 67.163105 168.762476 
L 67.468078 167.740855 
L 67.773052 168.762476 
L 68.078025 165.697611 
L 68.382999 167.740855 
L 68.687973 167.740855 
L 68.992946 169.784098 
L 69.29792 167.740855 
L 69.602893 168.762476 
L 69.907867 167.740855 
L 70.212841 169.784098 
L 70.822788 167.740855 
L 71.127761 168.762476 
L 71.432735 168.762476 
L 71.737708 166.719233 
L 72.347656 168.762476 
L 72.652629 168.762476 
L 72.957603 167.740855 
L 73.262576 169.784098 
L 73.56755 167.740855 
L 73.872524 166.719233 
L 74.177497 166.719233 
L 74.482471 168.762476 
L 74.787444 168.762476 
L 75.092418 169.784098 
L 75.397391 166.719233 
L 75.702365 168.762476 
L 76.007339 168.762476 
L 76.312312 169.784098 
L 76.617286 169.784098 
L 76.922259 166.719233 
L 77.532207 168.762476 
L 77.83718 167.740855 
L 78.142154 168.762476 
L 78.447127 168.762476 
L 78.752101 166.719233 
L 79.057074 168.762476 
L 79.362048 167.740855 
L 79.971995 169.784098 
L 80.276969 169.784098 
L 80.581942 168.762476 
L 80.886916 169.784098 
L 81.19189 167.740855 
L 81.496863 169.784098 
L 81.801837 168.762476 
L 82.10681 169.784098 
L 82.411784 166.719233 
L 83.021731 168.762476 
L 83.326705 168.762476 
L 83.631678 169.784098 
L 83.936652 166.719233 
L 84.241625 166.719233 
L 84.546599 168.762476 
L 84.851573 167.740855 
L 85.156546 168.762476 
L 85.46152 167.740855 
L 85.766493 167.740855 
L 86.37644 169.784098 
L 86.681414 168.762476 
L 86.986388 168.762476 
L 87.291361 169.784098 
L 87.596335 167.740855 
L 87.901308 169.784098 
L 88.206282 167.740855 
L 88.511256 168.762476 
L 88.816229 167.740855 
L 89.121203 168.762476 
L 89.73115 168.762476 
L 90.036123 169.784098 
L 90.341097 169.784098 
L 90.646071 167.740855 
L 90.951044 168.762476 
L 91.865965 168.762476 
L 92.170939 167.740855 
L 92.475912 168.762476 
L 93.390833 168.762476 
L 93.695806 167.740855 
L 94.305754 161.611125 
L 94.610727 162.632746 
L 94.915701 160.589503 
L 95.220674 160.589503 
L 95.525648 162.632746 
L 95.830622 159.567882 
L 96.135595 161.611125 
L 96.440569 160.589503 
L 96.745542 161.611125 
L 97.355489 161.611125 
L 97.660463 159.567882 
L 97.965437 159.567882 
L 98.27041 162.632746 
L 98.575384 160.589503 
L 98.880357 161.611125 
L 99.185331 161.611125 
L 99.490305 158.54626 
L 99.795278 160.589503 
L 100.100252 159.567882 
L 100.405225 160.589503 
L 100.710199 160.589503 
L 101.015172 159.567882 
L 101.320146 160.589503 
L 101.62512 159.567882 
L 102.54004 159.567882 
L 102.845014 158.54626 
L 103.149988 158.54626 
L 103.454961 157.524638 
L 103.759935 160.589503 
L 104.369882 160.589503 
L 104.979829 158.54626 
L 105.589776 160.589503 
L 105.89475 159.567882 
L 106.199723 159.567882 
L 106.504697 158.54626 
L 106.809671 160.589503 
L 107.419618 160.589503 
L 107.724591 158.54626 
L 108.029565 157.524638 
L 108.334538 159.567882 
L 108.639512 159.567882 
L 108.944486 160.589503 
L 109.249459 160.589503 
L 109.554433 158.54626 
L 109.859406 158.54626 
L 110.16438 160.589503 
L 110.469354 160.589503 
L 110.774327 158.54626 
L 111.079301 160.589503 
L 111.384274 160.589503 
L 111.689248 157.524638 
L 111.994221 159.567882 
L 112.299195 159.567882 
L 112.604169 158.54626 
L 113.214116 160.589503 
L 113.824063 160.589503 
L 114.129037 159.567882 
L 114.43401 159.567882 
L 114.738984 160.589503 
L 115.043957 159.567882 
L 115.348931 160.589503 
L 115.653904 160.589503 
L 116.263852 158.54626 
L 116.568825 158.54626 
L 116.873799 160.589503 
L 117.178772 160.589503 
L 117.78872 158.54626 
L 118.398667 160.589503 
L 118.70364 159.567882 
L 119.008614 160.589503 
L 119.313587 160.589503 
L 119.618561 159.567882 
L 119.923535 157.524638 
L 120.228508 158.54626 
L 120.533482 157.524638 
L 120.838455 158.54626 
L 121.143429 157.524638 
L 121.753376 157.524638 
L 122.05835 159.567882 
L 122.363323 159.567882 
L 122.668297 158.54626 
L 122.97327 159.567882 
L 123.278244 158.54626 
L 123.583218 159.567882 
L 123.888191 158.54626 
L 124.193165 160.589503 
L 124.803112 160.589503 
L 125.108086 159.567882 
L 126.023006 165.697611 
L 126.32798 164.67599 
L 126.632953 165.697611 
L 126.937927 164.67599 
L 127.547874 164.67599 
L 127.852848 163.654368 
L 128.157821 165.697611 
L 128.462795 164.67599 
L 129.072742 164.67599 
L 129.377716 165.697611 
L 129.682689 165.697611 
L 129.987663 163.654368 
L 130.292636 165.697611 
L 130.59761 164.67599 
L 131.512531 164.67599 
L 131.817504 165.697611 
L 132.122478 164.67599 
L 132.427452 164.67599 
L 132.732425 165.697611 
L 133.037399 163.654368 
L 133.647346 161.611125 
L 133.952319 163.654368 
L 134.562267 163.654368 
L 134.86724 165.697611 
L 136.087135 165.697611 
L 136.697082 163.654368 
L 137.002055 164.67599 
L 137.307029 164.67599 
L 137.612002 165.697611 
L 137.916976 164.67599 
L 138.22195 165.697611 
L 138.526923 163.654368 
L 138.831897 165.697611 
L 139.13687 164.67599 
L 139.441844 164.67599 
L 139.746818 163.654368 
L 140.051791 165.697611 
L 140.356765 165.697611 
L 140.661738 164.67599 
L 140.966712 164.67599 
L 141.271685 165.697611 
L 141.576659 164.67599 
L 141.881633 165.697611 
L 142.186606 165.697611 
L 142.49158 164.67599 
L 144.016448 164.67599 
L 144.321421 163.654368 
L 144.626395 165.697611 
L 144.931368 165.697611 
L 145.236342 164.67599 
L 145.541316 165.697611 
L 145.846289 164.67599 
L 146.151263 165.697611 
L 146.456236 164.67599 
L 147.676131 164.67599 
L 148.286078 162.632746 
L 148.591051 158.54626 
L 148.896025 159.567882 
L 149.200999 161.611125 
L 149.505972 161.611125 
L 149.810946 158.54626 
L 150.115919 160.589503 
L 150.420893 160.589503 
L 150.725867 159.567882 
L 151.03084 160.589503 
L 151.335814 159.567882 
L 151.640787 164.67599 
L 151.945761 164.67599 
L 152.250735 165.697611 
L 152.555708 162.632746 
L 152.860682 163.654368 
L 153.165655 163.654368 
L 153.470629 161.611125 
L 153.775602 162.632746 
L 154.38555 160.589503 
L 154.690523 160.589503 
L 154.995497 161.611125 
L 155.30047 160.589503 
L 155.910418 160.589503 
L 156.520365 156.503017 
L 156.825338 157.524638 
L 157.130312 156.503017 
L 157.435285 157.524638 
L 157.740259 156.503017 
L 158.045233 158.54626 
L 158.65518 156.503017 
L 158.960153 157.524638 
L 159.570101 157.524638 
L 159.875074 155.481395 
L 160.485021 155.481395 
L 160.789995 156.503017 
L 161.094968 155.481395 
L 162.009889 155.481395 
L 162.314863 156.503017 
L 162.619836 156.503017 
L 162.92481 154.459773 
L 163.229784 156.503017 
L 163.534757 155.481395 
L 163.839731 155.481395 
L 164.144704 156.503017 
L 165.669572 156.503017 
L 166.279519 154.459773 
L 166.889467 156.503017 
L 167.19444 155.481395 
L 168.414334 155.481395 
L 168.719308 153.438152 
L 169.329255 155.481395 
L 169.634229 154.459773 
L 169.939202 156.503017 
L 170.244176 154.459773 
L 170.54915 156.503017 
L 170.854123 156.503017 
L 171.159097 154.459773 
L 171.769044 156.503017 
L 172.074017 156.503017 
L 172.378991 155.481395 
L 172.683965 155.481395 
L 172.988938 154.459773 
L 173.293912 154.459773 
L 173.598885 155.481395 
L 173.903859 154.459773 
L 174.208833 155.481395 
L 174.81878 155.481395 
L 175.123753 154.459773 
L 175.428727 154.459773 
L 175.7337 155.481395 
L 176.343648 155.481395 
L 176.648621 156.503017 
L 176.953595 155.481395 
L 177.258568 156.503017 
L 177.563542 155.481395 
L 177.868516 156.503017 
L 178.173489 155.481395 
L 178.478463 156.503017 
L 178.783436 155.481395 
L 179.08841 155.481395 
L 179.393383 156.503017 
L 179.698357 155.481395 
L 180.003331 155.481395 
L 180.308304 156.503017 
L 181.223225 156.503017 
L 181.528199 155.481395 
L 182.443119 155.481395 
L 182.748093 156.503017 
L 183.053066 155.481395 
L 183.35804 156.503017 
L 183.663014 155.481395 
L 184.272961 155.481395 
L 184.577934 156.503017 
L 184.882908 155.481395 
L 185.187882 155.481395 
L 185.492855 156.503017 
L 185.797829 156.503017 
L 186.102802 155.481395 
L 186.407776 155.481395 
L 186.712749 153.438152 
L 187.017723 156.503017 
L 187.322697 156.503017 
L 187.62767 155.481395 
L 187.932644 156.503017 
L 188.237617 155.481395 
L 188.237617 155.481395 
" clip-path="url(#p26a59301a7)" style="fill: none; stroke-dasharray: 3.7,1.6; stroke-dashoffset: 0; stroke: #7976b8"/>
   </g>
   <g id="line2d_124">
    <path d="M 36.055799 127.897611 
L 36.360773 131.984098 
L 36.665746 133.005719 
L 36.97072 131.984098 
L 37.275694 129.940855 
L 37.580667 128.919233 
L 37.885641 128.919233 
L 38.190614 130.962476 
L 38.495588 130.962476 
L 39.105535 133.005719 
L 39.410509 135.048963 
L 40.020456 133.005719 
L 40.325429 133.005719 
L 40.630403 134.027341 
L 41.24035 134.027341 
L 41.545324 135.048963 
L 41.850297 134.027341 
L 42.155271 134.027341 
L 42.460244 135.048963 
L 43.680139 135.048963 
L 43.985112 134.027341 
L 44.290086 134.027341 
L 44.59506 133.005719 
L 46.119927 133.005719 
L 46.424901 131.984098 
L 46.729875 133.005719 
L 47.644795 133.005719 
L 47.949769 131.984098 
L 48.254743 133.005719 
L 48.86469 133.005719 
L 49.169663 131.984098 
L 49.77961 131.984098 
L 50.084584 133.005719 
L 51.609452 133.005719 
L 51.914426 131.984098 
L 52.219399 133.005719 
L 52.829346 133.005719 
L 53.13432 131.984098 
L 53.439293 133.005719 
L 53.744267 133.005719 
L 54.049241 131.984098 
L 54.354214 133.005719 
L 57.40395 133.005719 
L 58.013897 130.962476 
L 58.318871 133.005719 
L 60.453686 133.005719 
L 61.063633 130.962476 
L 61.368607 125.854368 
L 61.67358 125.854368 
L 61.978554 126.87599 
L 62.283527 126.87599 
L 62.588501 125.854368 
L 62.893475 126.87599 
L 63.198448 125.854368 
L 63.503422 125.854368 
L 63.808395 126.87599 
L 64.113369 126.87599 
L 64.418342 125.854368 
L 64.723316 125.854368 
L 65.333263 127.897611 
L 65.638237 125.854368 
L 66.248184 127.897611 
L 66.553158 127.897611 
L 66.858131 126.87599 
L 67.468078 126.87599 
L 68.078025 124.832746 
L 68.382999 124.832746 
L 68.687973 125.854368 
L 68.992946 124.832746 
L 69.29792 124.832746 
L 69.602893 125.854368 
L 69.907867 123.811125 
L 70.212841 123.811125 
L 70.517814 121.767882 
L 70.822788 120.74626 
L 71.127761 120.74626 
L 71.432735 121.767882 
L 72.652629 121.767882 
L 72.957603 120.74626 
L 73.56755 120.74626 
L 73.872524 121.767882 
L 74.177497 120.74626 
L 74.482471 121.767882 
L 74.787444 120.74626 
L 75.092418 121.767882 
L 76.312312 121.767882 
L 76.617286 120.74626 
L 76.922259 121.767882 
L 77.227233 120.74626 
L 77.532207 121.767882 
L 77.83718 121.767882 
L 78.142154 120.74626 
L 78.447127 121.767882 
L 78.752101 120.74626 
L 79.057074 120.74626 
L 79.362048 121.767882 
L 79.667022 120.74626 
L 79.971995 121.767882 
L 82.10681 121.767882 
L 82.411784 120.74626 
L 82.716757 120.74626 
L 83.021731 121.767882 
L 84.546599 121.767882 
L 84.851573 120.74626 
L 85.766493 120.74626 
L 86.071467 121.767882 
L 86.37644 121.767882 
L 86.681414 120.74626 
L 86.986388 121.767882 
L 90.646071 121.767882 
L 90.951044 120.74626 
L 91.256018 120.74626 
L 91.560991 121.767882 
L 92.475912 121.767882 
L 92.780886 120.74626 
L 93.085859 121.767882 
L 95.525648 121.767882 
L 95.830622 120.74626 
L 96.135595 121.767882 
L 96.440569 120.74626 
L 96.745542 120.74626 
L 97.050516 121.767882 
L 97.660463 121.767882 
L 97.965437 120.74626 
L 98.27041 121.767882 
L 98.575384 121.767882 
L 98.880357 120.74626 
L 99.185331 121.767882 
L 99.490305 121.767882 
L 99.795278 120.74626 
L 100.405225 120.74626 
L 100.710199 121.767882 
L 101.62512 121.767882 
L 101.930093 120.74626 
L 102.235067 121.767882 
L 102.845014 121.767882 
L 103.149988 120.74626 
L 103.454961 120.74626 
L 103.759935 121.767882 
L 104.064908 120.74626 
L 104.979829 120.74626 
L 105.284803 121.767882 
L 106.504697 121.767882 
L 106.809671 120.74626 
L 107.114644 121.767882 
L 108.029565 121.767882 
L 108.334538 120.74626 
L 108.639512 121.767882 
L 110.774327 121.767882 
L 111.079301 120.74626 
L 111.384274 120.74626 
L 111.689248 121.767882 
L 112.604169 121.767882 
L 112.909142 120.74626 
L 113.214116 120.74626 
L 113.519089 121.767882 
L 113.824063 121.767882 
L 114.129037 120.74626 
L 114.43401 121.767882 
L 115.348931 121.767882 
L 115.653904 120.74626 
L 116.873799 120.74626 
L 117.178772 121.767882 
L 117.483746 120.74626 
L 117.78872 121.767882 
L 119.923535 121.767882 
L 120.228508 120.74626 
L 120.533482 121.767882 
L 121.753376 121.767882 
L 122.05835 120.74626 
L 122.363323 121.767882 
L 123.278244 121.767882 
L 123.583218 120.74626 
L 123.888191 121.767882 
L 124.193165 120.74626 
L 124.498138 121.767882 
L 124.803112 120.74626 
L 125.108086 120.74626 
L 125.413059 121.767882 
L 126.937927 121.767882 
L 127.242901 120.74626 
L 127.547874 121.767882 
L 127.852848 120.74626 
L 128.462795 120.74626 
L 128.767769 121.767882 
L 130.59761 121.767882 
L 130.902584 120.74626 
L 131.207557 121.767882 
L 131.817504 119.724638 
L 132.122478 119.724638 
L 132.732425 121.767882 
L 133.037399 120.74626 
L 133.342372 121.767882 
L 134.562267 121.767882 
L 134.86724 120.74626 
L 135.172214 121.767882 
L 135.477187 121.767882 
L 135.782161 120.74626 
L 136.087135 121.767882 
L 138.526923 121.767882 
L 138.831897 120.74626 
L 139.13687 120.74626 
L 139.441844 121.767882 
L 140.051791 121.767882 
L 140.356765 120.74626 
L 140.661738 121.767882 
L 140.966712 120.74626 
L 141.576659 120.74626 
L 141.881633 121.767882 
L 142.186606 121.767882 
L 142.49158 120.74626 
L 142.796553 121.767882 
L 143.406501 121.767882 
L 143.711474 120.74626 
L 144.016448 121.767882 
L 144.321421 120.74626 
L 144.626395 121.767882 
L 144.931368 120.74626 
L 145.236342 121.767882 
L 145.541316 120.74626 
L 145.846289 121.767882 
L 146.151263 120.74626 
L 146.456236 120.74626 
L 146.76121 121.767882 
L 147.676131 121.767882 
L 147.981104 120.74626 
L 148.286078 120.74626 
L 148.591051 121.767882 
L 148.896025 120.74626 
L 149.200999 120.74626 
L 149.505972 121.767882 
L 149.810946 121.767882 
L 150.115919 120.74626 
L 150.420893 120.74626 
L 150.725867 121.767882 
L 151.03084 120.74626 
L 151.945761 120.74626 
L 152.250735 121.767882 
L 152.860682 121.767882 
L 153.165655 120.74626 
L 153.470629 120.74626 
L 153.775602 121.767882 
L 154.080576 120.74626 
L 154.38555 121.767882 
L 154.690523 120.74626 
L 154.995497 121.767882 
L 155.605444 121.767882 
L 155.910418 120.74626 
L 156.215391 121.767882 
L 157.740259 121.767882 
L 158.045233 120.74626 
L 158.350206 120.74626 
L 158.65518 121.767882 
L 160.180048 121.767882 
L 160.485021 120.74626 
L 160.789995 121.767882 
L 161.094968 120.74626 
L 161.399942 120.74626 
L 161.704916 121.767882 
L 162.009889 121.767882 
L 162.314863 120.74626 
L 162.619836 121.767882 
L 162.92481 120.74626 
L 163.229784 121.767882 
L 163.534757 120.74626 
L 163.839731 121.767882 
L 164.754651 121.767882 
L 165.059625 120.74626 
L 165.364599 121.767882 
L 165.669572 121.767882 
L 165.974546 120.74626 
L 166.279519 121.767882 
L 166.584493 120.74626 
L 166.889467 121.767882 
L 169.329255 121.767882 
L 169.634229 120.74626 
L 169.939202 121.767882 
L 170.244176 121.767882 
L 170.54915 120.74626 
L 170.854123 121.767882 
L 171.46407 121.767882 
L 171.769044 120.74626 
L 172.074017 120.74626 
L 172.378991 121.767882 
L 172.683965 120.74626 
L 172.988938 121.767882 
L 173.293912 121.767882 
L 173.598885 120.74626 
L 173.903859 121.767882 
L 174.208833 120.74626 
L 174.513806 121.767882 
L 175.428727 121.767882 
L 175.7337 120.74626 
L 176.038674 121.767882 
L 176.343648 121.767882 
L 176.648621 120.74626 
L 177.868516 120.74626 
L 178.173489 121.767882 
L 178.478463 120.74626 
L 178.783436 120.74626 
L 179.08841 121.767882 
L 179.393383 120.74626 
L 180.003331 120.74626 
L 180.308304 121.767882 
L 180.918251 121.767882 
L 181.223225 120.74626 
L 181.528199 121.767882 
L 183.053066 121.767882 
L 183.35804 120.74626 
L 183.663014 121.767882 
L 184.577934 121.767882 
L 184.882908 120.74626 
L 185.187882 121.767882 
L 185.492855 120.74626 
L 185.797829 121.767882 
L 186.102802 120.74626 
L 186.407776 120.74626 
L 186.712749 121.767882 
L 187.017723 120.74626 
L 188.237617 120.74626 
L 188.237617 120.74626 
" clip-path="url(#p26a59301a7)" style="fill: none; stroke-dasharray: 1,1.65; stroke-dashoffset: 0; stroke: #201f3d"/>
   </g>
   <g id="patch_3">
    <path d="M 28.446708 182.452206 
L 28.446708 16.132206 
" style="fill: none; stroke: #000000; stroke-width: 0.5; stroke-linejoin: miter; stroke-linecap: square"/>
   </g>
   <g id="patch_4">
    <path d="M 195.846708 182.452206 
L 195.846708 16.132206 
" style="fill: none; stroke: #000000; stroke-width: 0.5; stroke-linejoin: miter; stroke-linecap: square"/>
   </g>
   <g id="patch_5">
    <path d="M 28.446708 182.452206 
L 195.846708 182.452206 
" style="fill: none; stroke: #000000; stroke-width: 0.5; stroke-linejoin: miter; stroke-linecap: square"/>
   </g>
   <g id="patch_6">
    <path d="M 28.446708 16.132206 
L 195.846708 16.132206 
" style="fill: none; stroke: #000000; stroke-width: 0.5; stroke-linejoin: miter; stroke-linecap: square"/>
   </g>
   <g id="text_14">
    <!-- Evolución de la Cooperación -->
    <g transform="translate(56.593832 10.132206) scale(0.096 -0.096)">
     <defs>
      <path id="NimbusRomNo9L-Regu-45" d="M 3821 1078 
L 3642 1078 
C 3322 389 3046 237 2131 237 
L 1958 237 
C 1645 237 1376 269 1331 315 
C 1299 334 1286 404 1286 514 
L 1286 2106 
L 2272 2106 
C 2797 2106 2893 2020 2976 1472 
L 3123 1472 
L 3123 2957 
L 2976 2957 
C 2931 2703 2906 2610 2835 2523 
C 2752 2417 2573 2368 2272 2368 
L 1286 2368 
L 1286 3766 
C 1286 3943 1325 3981 1498 3981 
L 2362 3981 
C 3085 3981 3226 3886 3334 3314 
L 3494 3314 
L 3475 4224 
L 77 4224 
L 77 4102 
C 550 4064 634 3974 634 3525 
L 634 679 
C 634 230 544 134 77 134 
L 77 0 
L 3533 0 
L 3821 1078 
z
" transform="scale(0.015625)"/>
      <path id="NimbusRomNo9L-Regu-76" d="M 3053 2854 
L 2163 2854 
L 2163 2758 
C 2368 2739 2464 2675 2464 2552 
C 2464 2488 2451 2424 2426 2359 
L 1792 695 
L 1139 2340 
C 1101 2431 1082 2520 1082 2578 
C 1082 2694 1152 2739 1376 2758 
L 1376 2854 
L 122 2854 
L 122 2752 
C 365 2752 410 2688 704 2024 
L 1472 175 
C 1485 137 1504 91 1523 40 
C 1562 -76 1600 -128 1638 -128 
C 1677 -128 1722 -44 1818 193 
L 2637 2257 
C 2822 2694 2861 2739 3053 2758 
L 3053 2854 
z
" transform="scale(0.015625)"/>
      <path id="NimbusRomNo9L-Regu-6c" d="M 122 4000 
L 160 4000 
C 230 4000 307 4000 358 4000 
C 563 4000 627 3910 627 3610 
L 627 557 
C 627 211 538 128 134 96 
L 134 0 
L 1645 0 
L 1645 109 
C 1242 109 1165 173 1165 528 
L 1165 4371 
L 1139 4384 
C 806 4275 563 4211 122 4103 
L 122 4000 
z
" transform="scale(0.015625)"/>
      <path id="NimbusRomNo9L-Regu-75" d="M 3066 320 
L 3034 320 
C 2739 320 2669 390 2669 685 
L 2669 2880 
L 1658 2880 
L 1658 2758 
C 2054 2758 2131 2694 2131 2375 
L 2131 875 
C 2131 697 2099 607 2010 537 
C 1837 397 1638 320 1446 320 
C 1197 320 992 537 992 805 
L 992 2880 
L 58 2880 
L 58 2778 
C 365 2778 454 2682 454 2387 
L 454 770 
C 454 263 762 -64 1229 -64 
C 1466 -64 1715 38 1888 211 
L 2163 486 
L 2163 -45 
L 2189 -58 
C 2509 70 2739 141 3066 230 
L 3066 320 
z
" transform="scale(0.015625)"/>
     </defs>
     <use xlink:href="#NimbusRomNo9L-Regu-45" transform="scale(0.996264)"/>
     <use xlink:href="#NimbusRomNo9L-Regu-76" transform="translate(60.871631 0) scale(0.996264)"/>
     <use xlink:href="#NimbusRomNo9L-Regu-6f" transform="translate(108.69282 0) scale(0.996264)"/>
     <use xlink:href="#NimbusRomNo9L-Regu-6c" transform="translate(158.506021 0) scale(0.996264)"/>
     <use xlink:href="#NimbusRomNo9L-Regu-75" transform="translate(186.20119 0) scale(0.996264)"/>
     <use xlink:href="#NimbusRomNo9L-Regu-63" transform="translate(236.014391 0) scale(0.996264)"/>
     <use xlink:href="#NimbusRomNo9L-Regu-69" transform="translate(280.247959 0) scale(0.996264)"/>
     <use xlink:href="#NimbusRomNo9L-Regu-b4" transform="translate(316.262122 0.498056) scale(0.996264)"/>
     <use xlink:href="#NimbusRomNo9L-Regu-6f" transform="translate(307.943129 0) scale(0.996264)"/>
     <use xlink:href="#NimbusRomNo9L-Regu-6e" transform="translate(357.756329 0) scale(0.996264)"/>
     <use xlink:href="#NimbusRomNo9L-Regu-64" transform="translate(432.47613 0) scale(0.996264)"/>
     <use xlink:href="#NimbusRomNo9L-Regu-65" transform="translate(482.289331 0) scale(0.996264)"/>
     <use xlink:href="#NimbusRomNo9L-Regu-6c" transform="translate(551.4295 0) scale(0.996264)"/>
     <use xlink:href="#NimbusRomNo9L-Regu-61" transform="translate(579.124669 0) scale(0.996264)"/>
     <use xlink:href="#NimbusRomNo9L-Regu-43" transform="translate(648.264838 0) scale(0.996264)"/>
     <use xlink:href="#NimbusRomNo9L-Regu-6f" transform="translate(714.714869 0) scale(0.996264)"/>
     <use xlink:href="#NimbusRomNo9L-Regu-6f" transform="translate(764.52807 0) scale(0.996264)"/>
     <use xlink:href="#NimbusRomNo9L-Regu-70" transform="translate(814.34127 0) scale(0.996264)"/>
     <use xlink:href="#NimbusRomNo9L-Regu-65" transform="translate(864.154471 0) scale(0.996264)"/>
     <use xlink:href="#NimbusRomNo9L-Regu-72" transform="translate(908.388039 0) scale(0.996264)"/>
     <use xlink:href="#NimbusRomNo9L-Regu-61" transform="translate(941.563269 0) scale(0.996264)"/>
     <use xlink:href="#NimbusRomNo9L-Regu-63" transform="translate(985.796838 0) scale(0.996264)"/>
     <use xlink:href="#NimbusRomNo9L-Regu-69" transform="translate(1030.030407 0) scale(0.996264)"/>
     <use xlink:href="#NimbusRomNo9L-Regu-b4" transform="translate(1066.044569 0.498056) scale(0.996264)"/>
     <use xlink:href="#NimbusRomNo9L-Regu-6f" transform="translate(1057.725576 0) scale(0.996264)"/>
     <use xlink:href="#NimbusRomNo9L-Regu-6e" transform="translate(1107.538777 0) scale(0.996264)"/>
    </g>
   </g>
   <g id="legend_1">
    <g id="line2d_125">
     <path d="M 96.52495 87.104011 
L 104.52495 87.104011 
L 112.52495 87.104011 
" style="fill: none; stroke: #9b9aca; stroke-linecap: square"/>
    </g>
    <g id="text_15">
     <!-- Nodos en el centro -->
     <g transform="translate(118.92495 89.904011) scale(0.08 -0.08)">
      <defs>
       <path id="NimbusRomNo9L-Regu-4e" d="M 3917 -64 
L 3917 3287 
C 3917 3669 3981 3905 4102 3987 
C 4192 4051 4282 4077 4525 4102 
L 4525 4224 
L 3021 4224 
L 3021 4102 
C 3264 4083 3354 4057 3450 4000 
C 3578 3911 3635 3681 3635 3286 
L 3635 1136 
L 1171 4224 
L 77 4224 
L 77 4102 
C 352 4102 442 4051 698 3751 
L 698 938 
C 698 281 608 159 77 121 
L 77 0 
L 1581 0 
L 1581 134 
C 1088 134 979 281 979 928 
L 979 3439 
L 3808 -64 
L 3917 -64 
z
" transform="scale(0.015625)"/>
      </defs>
      <use xlink:href="#NimbusRomNo9L-Regu-4e" transform="scale(0.996264)"/>
      <use xlink:href="#NimbusRomNo9L-Regu-6f" transform="translate(71.929985 0) scale(0.996264)"/>
      <use xlink:href="#NimbusRomNo9L-Regu-64" transform="translate(121.743185 0) scale(0.996264)"/>
      <use xlink:href="#NimbusRomNo9L-Regu-6f" transform="translate(171.556386 0) scale(0.996264)"/>
      <use xlink:href="#NimbusRomNo9L-Regu-73" transform="translate(221.369586 0) scale(0.996264)"/>
      <use xlink:href="#NimbusRomNo9L-Regu-65" transform="translate(285.029893 0) scale(0.996264)"/>
      <use xlink:href="#NimbusRomNo9L-Regu-6e" transform="translate(329.263461 0) scale(0.996264)"/>
      <use xlink:href="#NimbusRomNo9L-Regu-65" transform="translate(403.983262 0) scale(0.996264)"/>
      <use xlink:href="#NimbusRomNo9L-Regu-6c" transform="translate(448.216831 0) scale(0.996264)"/>
      <use xlink:href="#NimbusRomNo9L-Regu-63" transform="translate(500.818601 0) scale(0.996264)"/>
      <use xlink:href="#NimbusRomNo9L-Regu-65" transform="translate(545.052169 0) scale(0.996264)"/>
      <use xlink:href="#NimbusRomNo9L-Regu-6e" transform="translate(589.285738 0) scale(0.996264)"/>
      <use xlink:href="#NimbusRomNo9L-Regu-74" transform="translate(639.098939 0) scale(0.996264)"/>
      <use xlink:href="#NimbusRomNo9L-Regu-72" transform="translate(666.794108 0) scale(0.996264)"/>
      <use xlink:href="#NimbusRomNo9L-Regu-6f" transform="translate(699.969338 0) scale(0.996264)"/>
     </g>
    </g>
    <g id="line2d_126">
     <path d="M 96.52495 98.429474 
L 104.52495 98.429474 
L 112.52495 98.429474 
" style="fill: none; stroke-dasharray: 3.7,1.6; stroke-dashoffset: 0; stroke: #7976b8"/>
    </g>
    <g id="text_16">
     <!-- Nodos aleatoriamente -->
     <g transform="translate(118.92495 101.229474) scale(0.08 -0.08)">
      <defs>
       <path id="NimbusRomNo9L-Regu-6d" d="M 122 2547 
C 205 2566 256 2573 326 2573 
C 493 2573 550 2470 550 2162 
L 550 539 
C 550 192 461 96 102 96 
L 102 0 
L 1523 0 
L 1523 96 
C 1184 96 1088 166 1088 418 
L 1088 2234 
C 1088 2246 1139 2310 1184 2355 
C 1344 2502 1619 2611 1843 2611 
C 2125 2611 2266 2385 2266 1932 
L 2266 528 
C 2266 167 2195 96 1830 96 
L 1830 0 
L 3264 0 
L 3264 96 
C 2899 96 2803 205 2803 603 
L 2803 2221 
C 2995 2496 3206 2611 3501 2611 
C 3866 2611 3981 2438 3981 1907 
L 3981 557 
C 3981 192 3930 141 3558 96 
L 3558 0 
L 4960 0 
L 4960 96 
L 4794 115 
C 4602 115 4518 230 4518 480 
L 4518 1802 
C 4518 2559 4269 2944 3776 2944 
C 3405 2944 3078 2778 2733 2407 
C 2618 2771 2400 2944 2054 2944 
C 1773 2944 1594 2854 1062 2451 
L 1062 2931 
L 1018 2944 
C 691 2822 474 2752 122 2656 
L 122 2547 
z
" transform="scale(0.015625)"/>
      </defs>
      <use xlink:href="#NimbusRomNo9L-Regu-4e" transform="scale(0.996264)"/>
      <use xlink:href="#NimbusRomNo9L-Regu-6f" transform="translate(71.929985 0) scale(0.996264)"/>
      <use xlink:href="#NimbusRomNo9L-Regu-64" transform="translate(121.743185 0) scale(0.996264)"/>
      <use xlink:href="#NimbusRomNo9L-Regu-6f" transform="translate(171.556386 0) scale(0.996264)"/>
      <use xlink:href="#NimbusRomNo9L-Regu-73" transform="translate(221.369586 0) scale(0.996264)"/>
      <use xlink:href="#NimbusRomNo9L-Regu-61" transform="translate(285.029893 0) scale(0.996264)"/>
      <use xlink:href="#NimbusRomNo9L-Regu-6c" transform="translate(329.263461 0) scale(0.996264)"/>
      <use xlink:href="#NimbusRomNo9L-Regu-65" transform="translate(356.958631 0) scale(0.996264)"/>
      <use xlink:href="#NimbusRomNo9L-Regu-61" transform="translate(401.1922 0) scale(0.996264)"/>
      <use xlink:href="#NimbusRomNo9L-Regu-74" transform="translate(445.425768 0) scale(0.996264)"/>
      <use xlink:href="#NimbusRomNo9L-Regu-6f" transform="translate(473.120938 0) scale(0.996264)"/>
      <use xlink:href="#NimbusRomNo9L-Regu-72" transform="translate(522.934139 0) scale(0.996264)"/>
      <use xlink:href="#NimbusRomNo9L-Regu-69" transform="translate(556.109368 0) scale(0.996264)"/>
      <use xlink:href="#NimbusRomNo9L-Regu-61" transform="translate(583.804538 0) scale(0.996264)"/>
      <use xlink:href="#NimbusRomNo9L-Regu-6d" transform="translate(628.038107 0) scale(0.996264)"/>
      <use xlink:href="#NimbusRomNo9L-Regu-65" transform="translate(705.546477 0) scale(0.996264)"/>
      <use xlink:href="#NimbusRomNo9L-Regu-6e" transform="translate(749.780045 0) scale(0.996264)"/>
      <use xlink:href="#NimbusRomNo9L-Regu-74" transform="translate(799.593246 0) scale(0.996264)"/>
      <use xlink:href="#NimbusRomNo9L-Regu-65" transform="translate(827.288416 0) scale(0.996264)"/>
     </g>
    </g>
    <g id="line2d_127">
     <path d="M 96.52495 109.754937 
L 104.52495 109.754937 
L 112.52495 109.754937 
" style="fill: none; stroke-dasharray: 1,1.65; stroke-dashoffset: 0; stroke: #201f3d"/>
    </g>
    <g id="text_17">
     <!-- Nodos en los bordes -->
     <g transform="translate(118.92495 112.554937) scale(0.08 -0.08)">
      <defs>
       <path id="NimbusRomNo9L-Regu-62" d="M 979 4364 
L 947 4377 
C 678 4281 506 4230 205 4147 
L 19 4096 
L 19 3994 
C 58 4000 83 4000 128 4000 
C 384 4000 442 3942 442 3673 
L 442 347 
C 442 147 986 -64 1498 -64 
C 2342 -64 2995 640 2995 1555 
C 2995 2342 2509 2944 1869 2944 
C 1478 2944 1107 2714 979 2400 
L 979 4364 
z
M 979 2061 
C 979 2310 1280 2541 1613 2541 
C 2112 2541 2432 2042 2432 1261 
C 2432 550 2125 141 1600 141 
C 1267 141 979 288 979 448 
L 979 2061 
z
" transform="scale(0.015625)"/>
      </defs>
      <use xlink:href="#NimbusRomNo9L-Regu-4e" transform="scale(0.996264)"/>
      <use xlink:href="#NimbusRomNo9L-Regu-6f" transform="translate(71.929985 0) scale(0.996264)"/>
      <use xlink:href="#NimbusRomNo9L-Regu-64" transform="translate(121.743185 0) scale(0.996264)"/>
      <use xlink:href="#NimbusRomNo9L-Regu-6f" transform="translate(171.556386 0) scale(0.996264)"/>
      <use xlink:href="#NimbusRomNo9L-Regu-73" transform="translate(221.369586 0) scale(0.996264)"/>
      <use xlink:href="#NimbusRomNo9L-Regu-65" transform="translate(285.029893 0) scale(0.996264)"/>
      <use xlink:href="#NimbusRomNo9L-Regu-6e" transform="translate(329.263461 0) scale(0.996264)"/>
      <use xlink:href="#NimbusRomNo9L-Regu-6c" transform="translate(403.983262 0) scale(0.996264)"/>
      <use xlink:href="#NimbusRomNo9L-Regu-6f" transform="translate(431.678432 0) scale(0.996264)"/>
      <use xlink:href="#NimbusRomNo9L-Regu-73" transform="translate(481.491632 0) scale(0.996264)"/>
      <use xlink:href="#NimbusRomNo9L-Regu-62" transform="translate(545.151939 0) scale(0.996264)"/>
      <use xlink:href="#NimbusRomNo9L-Regu-6f" transform="translate(594.965139 0) scale(0.996264)"/>
      <use xlink:href="#NimbusRomNo9L-Regu-72" transform="translate(644.77834 0) scale(0.996264)"/>
      <use xlink:href="#NimbusRomNo9L-Regu-64" transform="translate(677.95357 0) scale(0.996264)"/>
      <use xlink:href="#NimbusRomNo9L-Regu-65" transform="translate(727.76677 0) scale(0.996264)"/>
      <use xlink:href="#NimbusRomNo9L-Regu-73" transform="translate(772.000339 0) scale(0.996264)"/>
     </g>
    </g>
   </g>
  </g>
 </g>
 <defs>
  <clipPath id="p26a59301a7">
   <rect x="28.446708" y="16.132206" width="167.4" height="166.32"/>
  </clipPath>
 </defs>
</svg>
