<?xml version="1.0" encoding="utf-8" standalone="no"?>
<!DOCTYPE svg PUBLIC "-//W3C//DTD SVG 1.1//EN"
  "http://www.w3.org/Graphics/SVG/1.1/DTD/svg11.dtd">
<svg xmlns:xlink="http://www.w3.org/1999/xlink" width="205.384448pt" height="227.523644pt" viewBox="0 0 205.384448 227.523644" xmlns="http://www.w3.org/2000/svg" version="1.1">
 <metadata>
  <rdf:RDF xmlns:dc="http://purl.org/dc/elements/1.1/" xmlns:cc="http://creativecommons.org/ns#" xmlns:rdf="http://www.w3.org/1999/02/22-rdf-syntax-ns#">
   <cc:Work>
    <dc:type rdf:resource="http://purl.org/dc/dcmitype/StillImage"/>
    <dc:date>2025-07-07T01:52:00.133428</dc:date>
    <dc:format>image/svg+xml</dc:format>
    <dc:creator>
     <cc:Agent>
      <dc:title>Matplotlib v3.10.1, https://matplotlib.org/</dc:title>
     </cc:Agent>
    </dc:creator>
   </cc:Work>
  </rdf:RDF>
 </metadata>
 <defs>
  <style type="text/css">*{stroke-linejoin: round; stroke-linecap: butt}</style>
 </defs>
 <g id="figure_1">
  <g id="patch_1">
   <path d="M 0 227.523644 
L 205.384448 227.523644 
L 205.384448 0 
L 0 0 
z
" style="fill: #ffffff"/>
  </g>
  <g id="axes_1">
   <g id="patch_2">
    <path d="M 28.406864 202.165406 
L 195.806864 202.165406 
L 195.806864 35.845406 
L 28.406864 35.845406 
z
" style="fill: #ffffff"/>
   </g>
   <g id="matplotlib.axis_1">
    <g id="xtick_1">
     <g id="line2d_1">
      <path d="M 28.406864 202.165406 
L 28.406864 35.845406 
" clip-path="url(#pdf2411c78a)" style="fill: none; stroke-dasharray: 1.85,0.8; stroke-dashoffset: 0; stroke: #b0b0b0; stroke-opacity: 0.6; stroke-width: 0.5"/>
     </g>
     <g id="line2d_2">
      <defs>
       <path id="m329756e27f" d="M 0 0 
L 0 -3 
" style="stroke: #000000; stroke-width: 0.5"/>
      </defs>
      <g>
       <use xlink:href="#m329756e27f" x="28.406864" y="202.165406" style="stroke: #000000; stroke-width: 0.5"/>
      </g>
     </g>
     <g id="line2d_3">
      <defs>
       <path id="m686c109e52" d="M 0 0 
L 0 3 
" style="stroke: #000000; stroke-width: 0.5"/>
      </defs>
      <g>
       <use xlink:href="#m686c109e52" x="28.406864" y="35.845406" style="stroke: #000000; stroke-width: 0.5"/>
      </g>
     </g>
     <g id="text_1">
      <!-- $\mathdefault{0}$ -->
      <g transform="translate(26.414336 211.069062) scale(0.08 -0.08)">
       <defs>
        <path id="NimbusRomNo9L-Regu-30" d="M 1626 4352 
C 1274 4352 1005 4244 768 4020 
C 397 3661 154 2925 154 2176 
C 154 1479 365 730 666 372 
C 902 90 1229 -64 1600 -64 
C 1926 -64 2202 45 2432 269 
C 2803 621 3046 1364 3046 2138 
C 3046 3450 2464 4352 1626 4352 
z
M 1606 4186 
C 2144 4186 2432 3463 2432 2125 
C 2432 788 2150 103 1600 103 
C 1050 103 768 788 768 2119 
C 768 3476 1056 4186 1606 4186 
z
" transform="scale(0.015625)"/>
       </defs>
       <use xlink:href="#NimbusRomNo9L-Regu-30" transform="scale(0.996264)"/>
      </g>
     </g>
    </g>
    <g id="xtick_2">
     <g id="line2d_4">
      <path d="M 61.886864 202.165406 
L 61.886864 35.845406 
" clip-path="url(#pdf2411c78a)" style="fill: none; stroke-dasharray: 1.85,0.8; stroke-dashoffset: 0; stroke: #b0b0b0; stroke-opacity: 0.6; stroke-width: 0.5"/>
     </g>
     <g id="line2d_5">
      <g>
       <use xlink:href="#m329756e27f" x="61.886864" y="202.165406" style="stroke: #000000; stroke-width: 0.5"/>
      </g>
     </g>
     <g id="line2d_6">
      <g>
       <use xlink:href="#m686c109e52" x="61.886864" y="35.845406" style="stroke: #000000; stroke-width: 0.5"/>
      </g>
     </g>
     <g id="text_2">
      <!-- $\mathdefault{100}$ -->
      <g transform="translate(55.90928 211.069062) scale(0.08 -0.08)">
       <defs>
        <path id="NimbusRomNo9L-Regu-31" d="M 1862 4339 
L 710 3757 
L 710 3667 
C 787 3699 858 3725 883 3738 
C 998 3783 1107 3808 1171 3808 
C 1306 3808 1363 3711 1363 3505 
L 1363 592 
C 1363 379 1312 232 1210 173 
C 1114 116 1024 96 755 96 
L 755 0 
L 2522 0 
L 2522 96 
C 2016 96 1914 160 1914 470 
L 1914 4327 
L 1862 4339 
z
" transform="scale(0.015625)"/>
       </defs>
       <use xlink:href="#NimbusRomNo9L-Regu-31" transform="scale(0.996264)"/>
       <use xlink:href="#NimbusRomNo9L-Regu-30" transform="translate(49.8132 0) scale(0.996264)"/>
       <use xlink:href="#NimbusRomNo9L-Regu-30" transform="translate(99.626401 0) scale(0.996264)"/>
      </g>
     </g>
    </g>
    <g id="xtick_3">
     <g id="line2d_7">
      <path d="M 95.366864 202.165406 
L 95.366864 35.845406 
" clip-path="url(#pdf2411c78a)" style="fill: none; stroke-dasharray: 1.85,0.8; stroke-dashoffset: 0; stroke: #b0b0b0; stroke-opacity: 0.6; stroke-width: 0.5"/>
     </g>
     <g id="line2d_8">
      <g>
       <use xlink:href="#m329756e27f" x="95.366864" y="202.165406" style="stroke: #000000; stroke-width: 0.5"/>
      </g>
     </g>
     <g id="line2d_9">
      <g>
       <use xlink:href="#m686c109e52" x="95.366864" y="35.845406" style="stroke: #000000; stroke-width: 0.5"/>
      </g>
     </g>
     <g id="text_3">
      <!-- $\mathdefault{200}$ -->
      <g transform="translate(89.38928 211.069062) scale(0.08 -0.08)">
       <defs>
        <path id="NimbusRomNo9L-Regu-32" d="M 3040 875 
L 2957 907 
C 2720 544 2637 486 2349 486 
L 819 486 
L 1894 1609 
C 2464 2202 2714 2687 2714 3185 
C 2714 3823 2195 4313 1530 4313 
C 1178 4313 845 4173 608 3918 
C 403 3700 307 3496 198 3043 
L 333 3011 
C 589 3636 819 3840 1261 3840 
C 1798 3840 2163 3476 2163 2940 
C 2163 2443 1869 1850 1331 1282 
L 192 77 
L 192 0 
L 2688 0 
L 3040 875 
z
" transform="scale(0.015625)"/>
       </defs>
       <use xlink:href="#NimbusRomNo9L-Regu-32" transform="scale(0.996264)"/>
       <use xlink:href="#NimbusRomNo9L-Regu-30" transform="translate(49.8132 0) scale(0.996264)"/>
       <use xlink:href="#NimbusRomNo9L-Regu-30" transform="translate(99.626401 0) scale(0.996264)"/>
      </g>
     </g>
    </g>
    <g id="xtick_4">
     <g id="line2d_10">
      <path d="M 128.846864 202.165406 
L 128.846864 35.845406 
" clip-path="url(#pdf2411c78a)" style="fill: none; stroke-dasharray: 1.85,0.8; stroke-dashoffset: 0; stroke: #b0b0b0; stroke-opacity: 0.6; stroke-width: 0.5"/>
     </g>
     <g id="line2d_11">
      <g>
       <use xlink:href="#m329756e27f" x="128.846864" y="202.165406" style="stroke: #000000; stroke-width: 0.5"/>
      </g>
     </g>
     <g id="line2d_12">
      <g>
       <use xlink:href="#m686c109e52" x="128.846864" y="35.845406" style="stroke: #000000; stroke-width: 0.5"/>
      </g>
     </g>
     <g id="text_4">
      <!-- $\mathdefault{300}$ -->
      <g transform="translate(122.86928 211.069062) scale(0.08 -0.08)">
       <defs>
        <path id="NimbusRomNo9L-Regu-33" d="M 979 2138 
C 1357 2138 1504 2125 1658 2068 
C 2054 1927 2304 1562 2304 1120 
C 2304 583 1939 167 1466 167 
C 1293 167 1165 212 928 365 
C 736 480 627 525 518 525 
C 371 525 275 436 275 301 
C 275 77 550 -64 998 -64 
C 1491 -64 1997 103 2298 365 
C 2598 628 2765 999 2765 1428 
C 2765 1754 2662 2055 2477 2253 
C 2349 2394 2227 2471 1946 2592 
C 2387 2893 2547 3130 2547 3476 
C 2547 3994 2138 4352 1549 4352 
C 1229 4352 947 4244 717 4039 
C 525 3866 429 3699 288 3315 
L 384 3290 
C 646 3757 934 3968 1338 3968 
C 1754 3968 2042 3687 2042 3284 
C 2042 3053 1946 2823 1786 2663 
C 1594 2471 1414 2375 979 2221 
L 979 2138 
z
" transform="scale(0.015625)"/>
       </defs>
       <use xlink:href="#NimbusRomNo9L-Regu-33" transform="scale(0.996264)"/>
       <use xlink:href="#NimbusRomNo9L-Regu-30" transform="translate(49.8132 0) scale(0.996264)"/>
       <use xlink:href="#NimbusRomNo9L-Regu-30" transform="translate(99.626401 0) scale(0.996264)"/>
      </g>
     </g>
    </g>
    <g id="xtick_5">
     <g id="line2d_13">
      <path d="M 162.326864 202.165406 
L 162.326864 35.845406 
" clip-path="url(#pdf2411c78a)" style="fill: none; stroke-dasharray: 1.85,0.8; stroke-dashoffset: 0; stroke: #b0b0b0; stroke-opacity: 0.6; stroke-width: 0.5"/>
     </g>
     <g id="line2d_14">
      <g>
       <use xlink:href="#m329756e27f" x="162.326864" y="202.165406" style="stroke: #000000; stroke-width: 0.5"/>
      </g>
     </g>
     <g id="line2d_15">
      <g>
       <use xlink:href="#m686c109e52" x="162.326864" y="35.845406" style="stroke: #000000; stroke-width: 0.5"/>
      </g>
     </g>
     <g id="text_5">
      <!-- $\mathdefault{400}$ -->
      <g transform="translate(156.34928 211.069062) scale(0.08 -0.08)">
       <defs>
        <path id="NimbusRomNo9L-Regu-34" d="M 3021 1497 
L 2368 1497 
L 2368 4352 
L 2086 4352 
L 77 1497 
L 77 1088 
L 1875 1088 
L 1875 32 
L 2368 32 
L 2368 1088 
L 3021 1088 
L 3021 1497 
z
M 1869 1497 
L 333 1497 
L 1869 3698 
L 1869 1497 
z
" transform="scale(0.015625)"/>
       </defs>
       <use xlink:href="#NimbusRomNo9L-Regu-34" transform="scale(0.996264)"/>
       <use xlink:href="#NimbusRomNo9L-Regu-30" transform="translate(49.8132 0) scale(0.996264)"/>
       <use xlink:href="#NimbusRomNo9L-Regu-30" transform="translate(99.626401 0) scale(0.996264)"/>
      </g>
     </g>
    </g>
    <g id="xtick_6">
     <g id="line2d_16">
      <path d="M 195.806864 202.165406 
L 195.806864 35.845406 
" clip-path="url(#pdf2411c78a)" style="fill: none; stroke-dasharray: 1.85,0.8; stroke-dashoffset: 0; stroke: #b0b0b0; stroke-opacity: 0.6; stroke-width: 0.5"/>
     </g>
     <g id="line2d_17">
      <g>
       <use xlink:href="#m329756e27f" x="195.806864" y="202.165406" style="stroke: #000000; stroke-width: 0.5"/>
      </g>
     </g>
     <g id="line2d_18">
      <g>
       <use xlink:href="#m686c109e52" x="195.806864" y="35.845406" style="stroke: #000000; stroke-width: 0.5"/>
      </g>
     </g>
     <g id="text_6">
      <!-- $\mathdefault{500}$ -->
      <g transform="translate(189.82928 211.069062) scale(0.08 -0.08)">
       <defs>
        <path id="NimbusRomNo9L-Regu-35" d="M 1158 3776 
L 2413 3776 
C 2515 3776 2541 3789 2560 3834 
L 2803 4403 
L 2746 4448 
C 2650 4314 2586 4282 2451 4282 
L 1114 4282 
L 416 2759 
C 410 2746 410 2740 410 2727 
C 410 2695 435 2676 486 2676 
C 691 2676 947 2631 1210 2547 
C 1946 2309 2285 1910 2285 1274 
C 2285 656 1894 173 1395 173 
C 1267 173 1158 218 966 360 
C 762 508 614 572 480 572 
C 294 572 205 495 205 334 
C 205 90 506 -64 986 -64 
C 1523 -64 1984 110 2304 438 
C 2598 728 2733 1094 2733 1583 
C 2733 2046 2611 2342 2291 2663 
C 2010 2947 1645 3094 890 3229 
L 1158 3776 
z
" transform="scale(0.015625)"/>
       </defs>
       <use xlink:href="#NimbusRomNo9L-Regu-35" transform="scale(0.996264)"/>
       <use xlink:href="#NimbusRomNo9L-Regu-30" transform="translate(49.8132 0) scale(0.996264)"/>
       <use xlink:href="#NimbusRomNo9L-Regu-30" transform="translate(99.626401 0) scale(0.996264)"/>
      </g>
     </g>
    </g>
    <g id="xtick_7">
     <g id="line2d_19">
      <defs>
       <path id="m63f550bbcb" d="M 0 0 
L 0 -1.5 
" style="stroke: #000000; stroke-width: 0.5"/>
      </defs>
      <g>
       <use xlink:href="#m63f550bbcb" x="35.102864" y="202.165406" style="stroke: #000000; stroke-width: 0.5"/>
      </g>
     </g>
     <g id="line2d_20">
      <defs>
       <path id="m3c2f414160" d="M 0 0 
L 0 1.5 
" style="stroke: #000000; stroke-width: 0.5"/>
      </defs>
      <g>
       <use xlink:href="#m3c2f414160" x="35.102864" y="35.845406" style="stroke: #000000; stroke-width: 0.5"/>
      </g>
     </g>
    </g>
    <g id="xtick_8">
     <g id="line2d_21">
      <g>
       <use xlink:href="#m63f550bbcb" x="41.798864" y="202.165406" style="stroke: #000000; stroke-width: 0.5"/>
      </g>
     </g>
     <g id="line2d_22">
      <g>
       <use xlink:href="#m3c2f414160" x="41.798864" y="35.845406" style="stroke: #000000; stroke-width: 0.5"/>
      </g>
     </g>
    </g>
    <g id="xtick_9">
     <g id="line2d_23">
      <g>
       <use xlink:href="#m63f550bbcb" x="48.494864" y="202.165406" style="stroke: #000000; stroke-width: 0.5"/>
      </g>
     </g>
     <g id="line2d_24">
      <g>
       <use xlink:href="#m3c2f414160" x="48.494864" y="35.845406" style="stroke: #000000; stroke-width: 0.5"/>
      </g>
     </g>
    </g>
    <g id="xtick_10">
     <g id="line2d_25">
      <g>
       <use xlink:href="#m63f550bbcb" x="55.190864" y="202.165406" style="stroke: #000000; stroke-width: 0.5"/>
      </g>
     </g>
     <g id="line2d_26">
      <g>
       <use xlink:href="#m3c2f414160" x="55.190864" y="35.845406" style="stroke: #000000; stroke-width: 0.5"/>
      </g>
     </g>
    </g>
    <g id="xtick_11">
     <g id="line2d_27">
      <g>
       <use xlink:href="#m63f550bbcb" x="68.582864" y="202.165406" style="stroke: #000000; stroke-width: 0.5"/>
      </g>
     </g>
     <g id="line2d_28">
      <g>
       <use xlink:href="#m3c2f414160" x="68.582864" y="35.845406" style="stroke: #000000; stroke-width: 0.5"/>
      </g>
     </g>
    </g>
    <g id="xtick_12">
     <g id="line2d_29">
      <g>
       <use xlink:href="#m63f550bbcb" x="75.278864" y="202.165406" style="stroke: #000000; stroke-width: 0.5"/>
      </g>
     </g>
     <g id="line2d_30">
      <g>
       <use xlink:href="#m3c2f414160" x="75.278864" y="35.845406" style="stroke: #000000; stroke-width: 0.5"/>
      </g>
     </g>
    </g>
    <g id="xtick_13">
     <g id="line2d_31">
      <g>
       <use xlink:href="#m63f550bbcb" x="81.974864" y="202.165406" style="stroke: #000000; stroke-width: 0.5"/>
      </g>
     </g>
     <g id="line2d_32">
      <g>
       <use xlink:href="#m3c2f414160" x="81.974864" y="35.845406" style="stroke: #000000; stroke-width: 0.5"/>
      </g>
     </g>
    </g>
    <g id="xtick_14">
     <g id="line2d_33">
      <g>
       <use xlink:href="#m63f550bbcb" x="88.670864" y="202.165406" style="stroke: #000000; stroke-width: 0.5"/>
      </g>
     </g>
     <g id="line2d_34">
      <g>
       <use xlink:href="#m3c2f414160" x="88.670864" y="35.845406" style="stroke: #000000; stroke-width: 0.5"/>
      </g>
     </g>
    </g>
    <g id="xtick_15">
     <g id="line2d_35">
      <g>
       <use xlink:href="#m63f550bbcb" x="102.062864" y="202.165406" style="stroke: #000000; stroke-width: 0.5"/>
      </g>
     </g>
     <g id="line2d_36">
      <g>
       <use xlink:href="#m3c2f414160" x="102.062864" y="35.845406" style="stroke: #000000; stroke-width: 0.5"/>
      </g>
     </g>
    </g>
    <g id="xtick_16">
     <g id="line2d_37">
      <g>
       <use xlink:href="#m63f550bbcb" x="108.758864" y="202.165406" style="stroke: #000000; stroke-width: 0.5"/>
      </g>
     </g>
     <g id="line2d_38">
      <g>
       <use xlink:href="#m3c2f414160" x="108.758864" y="35.845406" style="stroke: #000000; stroke-width: 0.5"/>
      </g>
     </g>
    </g>
    <g id="xtick_17">
     <g id="line2d_39">
      <g>
       <use xlink:href="#m63f550bbcb" x="115.454864" y="202.165406" style="stroke: #000000; stroke-width: 0.5"/>
      </g>
     </g>
     <g id="line2d_40">
      <g>
       <use xlink:href="#m3c2f414160" x="115.454864" y="35.845406" style="stroke: #000000; stroke-width: 0.5"/>
      </g>
     </g>
    </g>
    <g id="xtick_18">
     <g id="line2d_41">
      <g>
       <use xlink:href="#m63f550bbcb" x="122.150864" y="202.165406" style="stroke: #000000; stroke-width: 0.5"/>
      </g>
     </g>
     <g id="line2d_42">
      <g>
       <use xlink:href="#m3c2f414160" x="122.150864" y="35.845406" style="stroke: #000000; stroke-width: 0.5"/>
      </g>
     </g>
    </g>
    <g id="xtick_19">
     <g id="line2d_43">
      <g>
       <use xlink:href="#m63f550bbcb" x="135.542864" y="202.165406" style="stroke: #000000; stroke-width: 0.5"/>
      </g>
     </g>
     <g id="line2d_44">
      <g>
       <use xlink:href="#m3c2f414160" x="135.542864" y="35.845406" style="stroke: #000000; stroke-width: 0.5"/>
      </g>
     </g>
    </g>
    <g id="xtick_20">
     <g id="line2d_45">
      <g>
       <use xlink:href="#m63f550bbcb" x="142.238864" y="202.165406" style="stroke: #000000; stroke-width: 0.5"/>
      </g>
     </g>
     <g id="line2d_46">
      <g>
       <use xlink:href="#m3c2f414160" x="142.238864" y="35.845406" style="stroke: #000000; stroke-width: 0.5"/>
      </g>
     </g>
    </g>
    <g id="xtick_21">
     <g id="line2d_47">
      <g>
       <use xlink:href="#m63f550bbcb" x="148.934864" y="202.165406" style="stroke: #000000; stroke-width: 0.5"/>
      </g>
     </g>
     <g id="line2d_48">
      <g>
       <use xlink:href="#m3c2f414160" x="148.934864" y="35.845406" style="stroke: #000000; stroke-width: 0.5"/>
      </g>
     </g>
    </g>
    <g id="xtick_22">
     <g id="line2d_49">
      <g>
       <use xlink:href="#m63f550bbcb" x="155.630864" y="202.165406" style="stroke: #000000; stroke-width: 0.5"/>
      </g>
     </g>
     <g id="line2d_50">
      <g>
       <use xlink:href="#m3c2f414160" x="155.630864" y="35.845406" style="stroke: #000000; stroke-width: 0.5"/>
      </g>
     </g>
    </g>
    <g id="xtick_23">
     <g id="line2d_51">
      <g>
       <use xlink:href="#m63f550bbcb" x="169.022864" y="202.165406" style="stroke: #000000; stroke-width: 0.5"/>
      </g>
     </g>
     <g id="line2d_52">
      <g>
       <use xlink:href="#m3c2f414160" x="169.022864" y="35.845406" style="stroke: #000000; stroke-width: 0.5"/>
      </g>
     </g>
    </g>
    <g id="xtick_24">
     <g id="line2d_53">
      <g>
       <use xlink:href="#m63f550bbcb" x="175.718864" y="202.165406" style="stroke: #000000; stroke-width: 0.5"/>
      </g>
     </g>
     <g id="line2d_54">
      <g>
       <use xlink:href="#m3c2f414160" x="175.718864" y="35.845406" style="stroke: #000000; stroke-width: 0.5"/>
      </g>
     </g>
    </g>
    <g id="xtick_25">
     <g id="line2d_55">
      <g>
       <use xlink:href="#m63f550bbcb" x="182.414864" y="202.165406" style="stroke: #000000; stroke-width: 0.5"/>
      </g>
     </g>
     <g id="line2d_56">
      <g>
       <use xlink:href="#m3c2f414160" x="182.414864" y="35.845406" style="stroke: #000000; stroke-width: 0.5"/>
      </g>
     </g>
    </g>
    <g id="xtick_26">
     <g id="line2d_57">
      <g>
       <use xlink:href="#m63f550bbcb" x="189.110864" y="202.165406" style="stroke: #000000; stroke-width: 0.5"/>
      </g>
     </g>
     <g id="line2d_58">
      <g>
       <use xlink:href="#m3c2f414160" x="189.110864" y="35.845406" style="stroke: #000000; stroke-width: 0.5"/>
      </g>
     </g>
    </g>
    <g id="text_7">
     <!-- Iteraciones -->
     <g transform="translate(94.624655 222.198181) scale(0.08 -0.08)">
      <defs>
       <path id="NimbusRomNo9L-Regu-49" d="M 736 689 
C 736 206 653 128 115 128 
L 115 0 
L 2016 0 
L 2016 128 
C 1491 128 1389 217 1389 688 
L 1389 3542 
C 1389 4012 1478 4096 2016 4096 
L 2016 4231 
L 115 4231 
L 115 4096 
C 659 4096 736 4026 736 3548 
L 736 689 
z
" transform="scale(0.015625)"/>
       <path id="NimbusRomNo9L-Regu-74" d="M 1632 2880 
L 986 2880 
L 986 3622 
C 986 3686 979 3706 941 3706 
C 896 3648 858 3590 813 3526 
C 570 3174 294 2867 192 2841 
C 122 2794 83 2748 83 2715 
C 83 2695 90 2682 109 2682 
L 448 2682 
L 448 751 
C 448 212 640 -64 1018 -64 
C 1331 -64 1574 90 1786 423 
L 1702 493 
C 1568 333 1459 269 1318 269 
C 1082 269 986 443 986 847 
L 986 2682 
L 1632 2682 
L 1632 2880 
z
" transform="scale(0.015625)"/>
       <path id="NimbusRomNo9L-Regu-65" d="M 2611 1053 
C 2304 564 2029 378 1619 378 
C 1254 378 979 564 794 930 
C 678 1174 634 1386 621 1779 
L 2592 1779 
C 2541 2193 2477 2377 2317 2581 
C 2125 2811 1830 2944 1498 2944 
C 1178 2944 877 2829 634 2611 
C 333 2349 160 1894 160 1370 
C 160 486 621 -64 1357 -64 
C 1965 -64 2445 315 2714 1008 
L 2611 1053 
z
M 634 1984 
C 704 2479 922 2714 1312 2714 
C 1702 2714 1856 2535 1939 1984 
L 634 1984 
z
" transform="scale(0.015625)"/>
       <path id="NimbusRomNo9L-Regu-72" d="M 45 2496 
C 134 2515 192 2522 269 2522 
C 429 2522 486 2419 486 2138 
L 486 538 
C 486 218 442 173 32 96 
L 32 0 
L 1568 0 
L 1568 102 
C 1133 102 1024 199 1024 565 
L 1024 2013 
C 1024 2219 1299 2541 1472 2541 
C 1510 2541 1568 2509 1638 2445 
C 1741 2355 1811 2317 1894 2317 
C 2048 2317 2144 2426 2144 2605 
C 2144 2816 2010 2944 1792 2944 
C 1523 2944 1338 2797 1024 2343 
L 1024 2931 
L 992 2944 
C 653 2803 422 2721 45 2599 
L 45 2496 
z
" transform="scale(0.015625)"/>
       <path id="NimbusRomNo9L-Regu-61" d="M 2829 423 
C 2720 333 2643 301 2547 301 
C 2400 301 2355 390 2355 672 
L 2355 1920 
C 2355 2253 2323 2438 2227 2592 
C 2086 2822 1811 2944 1434 2944 
C 832 2944 358 2630 358 2227 
C 358 2080 486 1952 634 1952 
C 787 1952 922 2080 922 2221 
C 922 2246 915 2278 909 2323 
C 896 2381 890 2432 890 2477 
C 890 2650 1094 2790 1350 2790 
C 1664 2790 1837 2605 1837 2259 
L 1837 1869 
C 851 1472 742 1421 467 1178 
C 326 1050 237 832 237 621 
C 237 218 518 -64 909 -64 
C 1190 -64 1453 70 1843 403 
C 1875 70 1990 -64 2253 -64 
C 2470 -64 2605 13 2829 256 
L 2829 423 
z
M 1837 783 
C 1837 584 1805 526 1670 449 
C 1517 359 1338 301 1203 301 
C 979 301 800 520 800 796 
L 800 822 
C 800 1201 1062 1433 1837 1715 
L 1837 783 
z
" transform="scale(0.015625)"/>
       <path id="NimbusRomNo9L-Regu-63" d="M 2547 998 
C 2240 550 2010 397 1645 397 
C 1062 397 653 909 653 1645 
C 653 2304 1005 2758 1523 2758 
C 1754 2758 1837 2688 1901 2451 
L 1939 2310 
C 1990 2131 2106 2016 2240 2016 
C 2406 2016 2547 2138 2547 2285 
C 2547 2643 2099 2944 1562 2944 
C 1248 2944 922 2816 659 2586 
C 339 2304 160 1869 160 1363 
C 160 531 666 -64 1376 -64 
C 1664 -64 1920 38 2150 237 
C 2323 390 2445 563 2637 941 
L 2547 998 
z
" transform="scale(0.015625)"/>
       <path id="NimbusRomNo9L-Regu-69" d="M 1120 2929 
L 128 2579 
L 128 2484 
L 179 2490 
C 256 2502 339 2509 397 2509 
C 550 2509 608 2406 608 2125 
L 608 640 
C 608 179 544 109 102 109 
L 102 0 
L 1619 0 
L 1619 96 
C 1197 128 1146 191 1146 650 
L 1146 2910 
L 1120 2929 
z
M 819 4352 
C 646 4352 499 4205 499 4026 
C 499 3847 640 3699 819 3699 
C 1005 3699 1152 3840 1152 4026 
C 1152 4205 1005 4352 819 4352 
z
" transform="scale(0.015625)"/>
       <path id="NimbusRomNo9L-Regu-6f" d="M 1600 2944 
C 768 2944 186 2330 186 1446 
C 186 582 781 -64 1587 -64 
C 2394 -64 3008 614 3008 1498 
C 3008 2336 2419 2944 1600 2944 
z
M 1517 2765 
C 2054 2765 2432 2150 2432 1274 
C 2432 550 2144 115 1664 115 
C 1414 115 1178 269 1043 525 
C 864 858 762 1306 762 1760 
C 762 2368 1062 2765 1517 2765 
z
" transform="scale(0.015625)"/>
       <path id="NimbusRomNo9L-Regu-6e" d="M 102 2579 
C 141 2598 205 2605 275 2605 
C 454 2605 512 2509 512 2195 
L 512 608 
C 512 243 442 154 115 128 
L 115 32 
L 1472 32 
L 1472 128 
C 1146 154 1050 230 1050 461 
L 1050 2259 
C 1357 2547 1498 2624 1709 2624 
C 2022 2624 2176 2426 2176 2003 
L 2176 666 
C 2176 262 2093 154 1773 128 
L 1773 32 
L 3104 32 
L 3104 128 
C 2790 160 2714 237 2714 550 
L 2714 2016 
C 2714 2618 2432 2976 1958 2976 
C 1664 2976 1466 2867 1030 2458 
L 1030 2963 
L 986 2976 
C 672 2861 454 2790 102 2688 
L 102 2579 
z
" transform="scale(0.015625)"/>
       <path id="NimbusRomNo9L-Regu-73" d="M 2016 2010 
L 1990 2880 
L 1920 2880 
L 1907 2867 
C 1850 2822 1843 2816 1818 2816 
C 1779 2816 1715 2829 1645 2861 
C 1504 2915 1363 2944 1197 2944 
C 691 2944 326 2616 326 2154 
C 326 1796 531 1539 1075 1231 
L 1446 1020 
C 1670 892 1779 737 1779 539 
C 1779 256 1574 77 1248 77 
C 1030 77 832 159 710 298 
C 576 455 518 600 435 960 
L 333 960 
L 333 -39 
L 416 -39 
C 461 33 486 48 563 48 
C 621 48 710 35 858 -2 
C 1037 -39 1210 -64 1325 -64 
C 1818 -64 2227 308 2227 757 
C 2227 1077 2074 1289 1690 1520 
L 998 1930 
C 819 2033 723 2194 723 2367 
C 723 2624 922 2803 1216 2803 
C 1581 2803 1773 2583 1920 2010 
L 2016 2010 
z
" transform="scale(0.015625)"/>
      </defs>
      <use xlink:href="#NimbusRomNo9L-Regu-49" transform="scale(0.996264)"/>
      <use xlink:href="#NimbusRomNo9L-Regu-74" transform="translate(33.17523 0) scale(0.996264)"/>
      <use xlink:href="#NimbusRomNo9L-Regu-65" transform="translate(60.870399 0) scale(0.996264)"/>
      <use xlink:href="#NimbusRomNo9L-Regu-72" transform="translate(105.103968 0) scale(0.996264)"/>
      <use xlink:href="#NimbusRomNo9L-Regu-61" transform="translate(138.279198 0) scale(0.996264)"/>
      <use xlink:href="#NimbusRomNo9L-Regu-63" transform="translate(182.512766 0) scale(0.996264)"/>
      <use xlink:href="#NimbusRomNo9L-Regu-69" transform="translate(226.746335 0) scale(0.996264)"/>
      <use xlink:href="#NimbusRomNo9L-Regu-6f" transform="translate(254.441505 0) scale(0.996264)"/>
      <use xlink:href="#NimbusRomNo9L-Regu-6e" transform="translate(304.254705 0) scale(0.996264)"/>
      <use xlink:href="#NimbusRomNo9L-Regu-65" transform="translate(354.067906 0) scale(0.996264)"/>
      <use xlink:href="#NimbusRomNo9L-Regu-73" transform="translate(398.301474 0) scale(0.996264)"/>
     </g>
    </g>
   </g>
   <g id="matplotlib.axis_2">
    <g id="ytick_1">
     <g id="line2d_59">
      <path d="M 28.406864 202.165406 
L 195.806864 202.165406 
" clip-path="url(#pdf2411c78a)" style="fill: none; stroke-dasharray: 1.85,0.8; stroke-dashoffset: 0; stroke: #b0b0b0; stroke-opacity: 0.6; stroke-width: 0.5"/>
     </g>
     <g id="line2d_60">
      <defs>
       <path id="m828a5e01d2" d="M 0 0 
L 3 0 
" style="stroke: #000000; stroke-width: 0.5"/>
      </defs>
      <g>
       <use xlink:href="#m828a5e01d2" x="28.406864" y="202.165406" style="stroke: #000000; stroke-width: 0.5"/>
      </g>
     </g>
     <g id="line2d_61">
      <defs>
       <path id="m1a6d240a8d" d="M 0 0 
L -3 0 
" style="stroke: #000000; stroke-width: 0.5"/>
      </defs>
      <g>
       <use xlink:href="#m1a6d240a8d" x="195.806864" y="202.165406" style="stroke: #000000; stroke-width: 0.5"/>
      </g>
     </g>
     <g id="text_8">
      <!-- $\mathdefault{0.0}$ -->
      <g transform="translate(14.729119 204.867234) scale(0.08 -0.08)">
       <defs>
        <path id="CMMI10-3a" d="M 1229 338 
C 1229 522 1075 675 890 675 
C 704 675 550 522 550 338 
C 550 153 704 0 890 0 
C 1075 0 1229 153 1229 338 
z
" transform="scale(0.015625)"/>
       </defs>
       <use xlink:href="#NimbusRomNo9L-Regu-30" transform="scale(0.996264)"/>
       <use xlink:href="#CMMI10-3a" transform="translate(49.8132 0) scale(0.996264)"/>
       <use xlink:href="#NimbusRomNo9L-Regu-30" transform="translate(77.408707 0) scale(0.996264)"/>
      </g>
     </g>
    </g>
    <g id="ytick_2">
     <g id="line2d_62">
      <path d="M 28.406864 168.901406 
L 195.806864 168.901406 
" clip-path="url(#pdf2411c78a)" style="fill: none; stroke-dasharray: 1.85,0.8; stroke-dashoffset: 0; stroke: #b0b0b0; stroke-opacity: 0.6; stroke-width: 0.5"/>
     </g>
     <g id="line2d_63">
      <g>
       <use xlink:href="#m828a5e01d2" x="28.406864" y="168.901406" style="stroke: #000000; stroke-width: 0.5"/>
      </g>
     </g>
     <g id="line2d_64">
      <g>
       <use xlink:href="#m1a6d240a8d" x="195.806864" y="168.901406" style="stroke: #000000; stroke-width: 0.5"/>
      </g>
     </g>
     <g id="text_9">
      <!-- $\mathdefault{0.2}$ -->
      <g transform="translate(14.729119 171.603234) scale(0.08 -0.08)">
       <use xlink:href="#NimbusRomNo9L-Regu-30" transform="scale(0.996264)"/>
       <use xlink:href="#CMMI10-3a" transform="translate(49.8132 0) scale(0.996264)"/>
       <use xlink:href="#NimbusRomNo9L-Regu-32" transform="translate(77.408707 0) scale(0.996264)"/>
      </g>
     </g>
    </g>
    <g id="ytick_3">
     <g id="line2d_65">
      <path d="M 28.406864 135.637406 
L 195.806864 135.637406 
" clip-path="url(#pdf2411c78a)" style="fill: none; stroke-dasharray: 1.85,0.8; stroke-dashoffset: 0; stroke: #b0b0b0; stroke-opacity: 0.6; stroke-width: 0.5"/>
     </g>
     <g id="line2d_66">
      <g>
       <use xlink:href="#m828a5e01d2" x="28.406864" y="135.637406" style="stroke: #000000; stroke-width: 0.5"/>
      </g>
     </g>
     <g id="line2d_67">
      <g>
       <use xlink:href="#m1a6d240a8d" x="195.806864" y="135.637406" style="stroke: #000000; stroke-width: 0.5"/>
      </g>
     </g>
     <g id="text_10">
      <!-- $\mathdefault{0.4}$ -->
      <g transform="translate(14.729119 138.339234) scale(0.08 -0.08)">
       <use xlink:href="#NimbusRomNo9L-Regu-30" transform="scale(0.996264)"/>
       <use xlink:href="#CMMI10-3a" transform="translate(49.8132 0) scale(0.996264)"/>
       <use xlink:href="#NimbusRomNo9L-Regu-34" transform="translate(77.408707 0) scale(0.996264)"/>
      </g>
     </g>
    </g>
    <g id="ytick_4">
     <g id="line2d_68">
      <path d="M 28.406864 102.373406 
L 195.806864 102.373406 
" clip-path="url(#pdf2411c78a)" style="fill: none; stroke-dasharray: 1.85,0.8; stroke-dashoffset: 0; stroke: #b0b0b0; stroke-opacity: 0.6; stroke-width: 0.5"/>
     </g>
     <g id="line2d_69">
      <g>
       <use xlink:href="#m828a5e01d2" x="28.406864" y="102.373406" style="stroke: #000000; stroke-width: 0.5"/>
      </g>
     </g>
     <g id="line2d_70">
      <g>
       <use xlink:href="#m1a6d240a8d" x="195.806864" y="102.373406" style="stroke: #000000; stroke-width: 0.5"/>
      </g>
     </g>
     <g id="text_11">
      <!-- $\mathdefault{0.6}$ -->
      <g transform="translate(14.729119 105.075234) scale(0.08 -0.08)">
       <defs>
        <path id="NimbusRomNo9L-Regu-36" d="M 2854 4391 
C 2125 4327 1754 4205 1286 3879 
C 595 3386 218 2656 218 1802 
C 218 1248 390 688 666 370 
C 909 89 1254 -64 1651 -64 
C 2445 -64 2995 541 2995 1421 
C 2995 2236 2528 2752 1792 2752 
C 1510 2752 1376 2707 973 2464 
C 1146 3431 1862 4122 2867 4288 
L 2854 4391 
z
M 1549 2458 
C 2099 2458 2419 2000 2419 1204 
C 2419 504 2170 116 1722 116 
C 1158 116 813 714 813 1700 
C 813 2025 864 2203 992 2299 
C 1126 2400 1325 2458 1549 2458 
z
" transform="scale(0.015625)"/>
       </defs>
       <use xlink:href="#NimbusRomNo9L-Regu-30" transform="scale(0.996264)"/>
       <use xlink:href="#CMMI10-3a" transform="translate(49.8132 0) scale(0.996264)"/>
       <use xlink:href="#NimbusRomNo9L-Regu-36" transform="translate(77.408707 0) scale(0.996264)"/>
      </g>
     </g>
    </g>
    <g id="ytick_5">
     <g id="line2d_71">
      <path d="M 28.406864 69.109406 
L 195.806864 69.109406 
" clip-path="url(#pdf2411c78a)" style="fill: none; stroke-dasharray: 1.85,0.8; stroke-dashoffset: 0; stroke: #b0b0b0; stroke-opacity: 0.6; stroke-width: 0.5"/>
     </g>
     <g id="line2d_72">
      <g>
       <use xlink:href="#m828a5e01d2" x="28.406864" y="69.109406" style="stroke: #000000; stroke-width: 0.5"/>
      </g>
     </g>
     <g id="line2d_73">
      <g>
       <use xlink:href="#m1a6d240a8d" x="195.806864" y="69.109406" style="stroke: #000000; stroke-width: 0.5"/>
      </g>
     </g>
     <g id="text_12">
      <!-- $\mathdefault{0.8}$ -->
      <g transform="translate(14.729119 71.811234) scale(0.08 -0.08)">
       <defs>
        <path id="NimbusRomNo9L-Regu-38" d="M 1856 2400 
C 2490 2740 2714 3008 2714 3444 
C 2714 3968 2253 4352 1613 4352 
C 915 4352 397 3924 397 3341 
C 397 2925 518 2740 1190 2151 
C 499 1626 358 1428 358 992 
C 358 372 864 -64 1587 -64 
C 2355 -64 2848 359 2848 1018 
C 2848 1511 2630 1824 1856 2400 
z
M 1741 1741 
C 2208 1408 2362 1178 2362 820 
C 2362 404 2074 116 1658 116 
C 1171 116 845 487 845 1044 
C 845 1453 986 1722 1357 2023 
L 1741 1741 
z
M 1670 2516 
C 1101 2887 870 3181 870 3540 
C 870 3911 1158 4173 1562 4173 
C 1997 4173 2272 3892 2272 3450 
C 2272 3085 2093 2797 1728 2554 
C 1696 2535 1696 2535 1670 2516 
z
" transform="scale(0.015625)"/>
       </defs>
       <use xlink:href="#NimbusRomNo9L-Regu-30" transform="scale(0.996264)"/>
       <use xlink:href="#CMMI10-3a" transform="translate(49.8132 0) scale(0.996264)"/>
       <use xlink:href="#NimbusRomNo9L-Regu-38" transform="translate(77.408707 0) scale(0.996264)"/>
      </g>
     </g>
    </g>
    <g id="ytick_6">
     <g id="line2d_74">
      <path d="M 28.406864 35.845406 
L 195.806864 35.845406 
" clip-path="url(#pdf2411c78a)" style="fill: none; stroke-dasharray: 1.85,0.8; stroke-dashoffset: 0; stroke: #b0b0b0; stroke-opacity: 0.6; stroke-width: 0.5"/>
     </g>
     <g id="line2d_75">
      <g>
       <use xlink:href="#m828a5e01d2" x="28.406864" y="35.845406" style="stroke: #000000; stroke-width: 0.5"/>
      </g>
     </g>
     <g id="line2d_76">
      <g>
       <use xlink:href="#m1a6d240a8d" x="195.806864" y="35.845406" style="stroke: #000000; stroke-width: 0.5"/>
      </g>
     </g>
     <g id="text_13">
      <!-- $\mathdefault{1.0}$ -->
      <g transform="translate(14.729119 38.547234) scale(0.08 -0.08)">
       <use xlink:href="#NimbusRomNo9L-Regu-31" transform="scale(0.996264)"/>
       <use xlink:href="#CMMI10-3a" transform="translate(49.8132 0) scale(0.996264)"/>
       <use xlink:href="#NimbusRomNo9L-Regu-30" transform="translate(77.408707 0) scale(0.996264)"/>
      </g>
     </g>
    </g>
    <g id="ytick_7">
     <g id="line2d_77">
      <defs>
       <path id="mce60507876" d="M 0 0 
L 1.5 0 
" style="stroke: #000000; stroke-width: 0.5"/>
      </defs>
      <g>
       <use xlink:href="#mce60507876" x="28.406864" y="193.849406" style="stroke: #000000; stroke-width: 0.5"/>
      </g>
     </g>
     <g id="line2d_78">
      <defs>
       <path id="ma661f9f7e9" d="M 0 0 
L -1.5 0 
" style="stroke: #000000; stroke-width: 0.5"/>
      </defs>
      <g>
       <use xlink:href="#ma661f9f7e9" x="195.806864" y="193.849406" style="stroke: #000000; stroke-width: 0.5"/>
      </g>
     </g>
    </g>
    <g id="ytick_8">
     <g id="line2d_79">
      <g>
       <use xlink:href="#mce60507876" x="28.406864" y="185.533406" style="stroke: #000000; stroke-width: 0.5"/>
      </g>
     </g>
     <g id="line2d_80">
      <g>
       <use xlink:href="#ma661f9f7e9" x="195.806864" y="185.533406" style="stroke: #000000; stroke-width: 0.5"/>
      </g>
     </g>
    </g>
    <g id="ytick_9">
     <g id="line2d_81">
      <g>
       <use xlink:href="#mce60507876" x="28.406864" y="177.217406" style="stroke: #000000; stroke-width: 0.5"/>
      </g>
     </g>
     <g id="line2d_82">
      <g>
       <use xlink:href="#ma661f9f7e9" x="195.806864" y="177.217406" style="stroke: #000000; stroke-width: 0.5"/>
      </g>
     </g>
    </g>
    <g id="ytick_10">
     <g id="line2d_83">
      <g>
       <use xlink:href="#mce60507876" x="28.406864" y="160.585406" style="stroke: #000000; stroke-width: 0.5"/>
      </g>
     </g>
     <g id="line2d_84">
      <g>
       <use xlink:href="#ma661f9f7e9" x="195.806864" y="160.585406" style="stroke: #000000; stroke-width: 0.5"/>
      </g>
     </g>
    </g>
    <g id="ytick_11">
     <g id="line2d_85">
      <g>
       <use xlink:href="#mce60507876" x="28.406864" y="152.269406" style="stroke: #000000; stroke-width: 0.5"/>
      </g>
     </g>
     <g id="line2d_86">
      <g>
       <use xlink:href="#ma661f9f7e9" x="195.806864" y="152.269406" style="stroke: #000000; stroke-width: 0.5"/>
      </g>
     </g>
    </g>
    <g id="ytick_12">
     <g id="line2d_87">
      <g>
       <use xlink:href="#mce60507876" x="28.406864" y="143.953406" style="stroke: #000000; stroke-width: 0.5"/>
      </g>
     </g>
     <g id="line2d_88">
      <g>
       <use xlink:href="#ma661f9f7e9" x="195.806864" y="143.953406" style="stroke: #000000; stroke-width: 0.5"/>
      </g>
     </g>
    </g>
    <g id="ytick_13">
     <g id="line2d_89">
      <g>
       <use xlink:href="#mce60507876" x="28.406864" y="127.321406" style="stroke: #000000; stroke-width: 0.5"/>
      </g>
     </g>
     <g id="line2d_90">
      <g>
       <use xlink:href="#ma661f9f7e9" x="195.806864" y="127.321406" style="stroke: #000000; stroke-width: 0.5"/>
      </g>
     </g>
    </g>
    <g id="ytick_14">
     <g id="line2d_91">
      <g>
       <use xlink:href="#mce60507876" x="28.406864" y="119.005406" style="stroke: #000000; stroke-width: 0.5"/>
      </g>
     </g>
     <g id="line2d_92">
      <g>
       <use xlink:href="#ma661f9f7e9" x="195.806864" y="119.005406" style="stroke: #000000; stroke-width: 0.5"/>
      </g>
     </g>
    </g>
    <g id="ytick_15">
     <g id="line2d_93">
      <g>
       <use xlink:href="#mce60507876" x="28.406864" y="110.689406" style="stroke: #000000; stroke-width: 0.5"/>
      </g>
     </g>
     <g id="line2d_94">
      <g>
       <use xlink:href="#ma661f9f7e9" x="195.806864" y="110.689406" style="stroke: #000000; stroke-width: 0.5"/>
      </g>
     </g>
    </g>
    <g id="ytick_16">
     <g id="line2d_95">
      <g>
       <use xlink:href="#mce60507876" x="28.406864" y="94.057406" style="stroke: #000000; stroke-width: 0.5"/>
      </g>
     </g>
     <g id="line2d_96">
      <g>
       <use xlink:href="#ma661f9f7e9" x="195.806864" y="94.057406" style="stroke: #000000; stroke-width: 0.5"/>
      </g>
     </g>
    </g>
    <g id="ytick_17">
     <g id="line2d_97">
      <g>
       <use xlink:href="#mce60507876" x="28.406864" y="85.741406" style="stroke: #000000; stroke-width: 0.5"/>
      </g>
     </g>
     <g id="line2d_98">
      <g>
       <use xlink:href="#ma661f9f7e9" x="195.806864" y="85.741406" style="stroke: #000000; stroke-width: 0.5"/>
      </g>
     </g>
    </g>
    <g id="ytick_18">
     <g id="line2d_99">
      <g>
       <use xlink:href="#mce60507876" x="28.406864" y="77.425406" style="stroke: #000000; stroke-width: 0.5"/>
      </g>
     </g>
     <g id="line2d_100">
      <g>
       <use xlink:href="#ma661f9f7e9" x="195.806864" y="77.425406" style="stroke: #000000; stroke-width: 0.5"/>
      </g>
     </g>
    </g>
    <g id="ytick_19">
     <g id="line2d_101">
      <g>
       <use xlink:href="#mce60507876" x="28.406864" y="60.793406" style="stroke: #000000; stroke-width: 0.5"/>
      </g>
     </g>
     <g id="line2d_102">
      <g>
       <use xlink:href="#ma661f9f7e9" x="195.806864" y="60.793406" style="stroke: #000000; stroke-width: 0.5"/>
      </g>
     </g>
    </g>
    <g id="ytick_20">
     <g id="line2d_103">
      <g>
       <use xlink:href="#mce60507876" x="28.406864" y="52.477406" style="stroke: #000000; stroke-width: 0.5"/>
      </g>
     </g>
     <g id="line2d_104">
      <g>
       <use xlink:href="#ma661f9f7e9" x="195.806864" y="52.477406" style="stroke: #000000; stroke-width: 0.5"/>
      </g>
     </g>
    </g>
    <g id="ytick_21">
     <g id="line2d_105">
      <g>
       <use xlink:href="#mce60507876" x="28.406864" y="44.161406" style="stroke: #000000; stroke-width: 0.5"/>
      </g>
     </g>
     <g id="line2d_106">
      <g>
       <use xlink:href="#ma661f9f7e9" x="195.806864" y="44.161406" style="stroke: #000000; stroke-width: 0.5"/>
      </g>
     </g>
    </g>
    <g id="text_14">
     <!-- Porcentaje -->
     <g transform="translate(9.003656 135.826125) rotate(-90) scale(0.08 -0.08)">
      <defs>
       <path id="NimbusRomNo9L-Regu-50" d="M 1293 1875 
C 1459 1856 1568 1856 1734 1856 
C 2234 1856 2579 1919 2854 2072 
C 3238 2274 3469 2660 3469 3078 
C 3469 3344 3379 3584 3206 3768 
C 2950 4047 2394 4224 1792 4224 
L 102 4224 
L 102 4102 
C 576 4051 640 3987 640 3528 
L 640 766 
C 640 230 589 166 102 122 
L 102 0 
L 1894 0 
L 1894 128 
C 1389 128 1293 218 1293 693 
L 1293 1875 
z
M 1293 3772 
C 1293 3943 1338 3987 1510 3987 
C 2374 3987 2771 3690 2771 3040 
C 2771 2428 2394 2112 1658 2112 
C 1530 2112 1440 2119 1293 2131 
L 1293 3772 
z
" transform="scale(0.015625)"/>
       <path id="NimbusRomNo9L-Regu-6a" d="M 1235 2907 
L 1203 2926 
C 826 2779 582 2697 205 2581 
L 205 2479 
L 237 2485 
C 333 2498 429 2498 493 2498 
C 640 2498 698 2389 698 2115 
L 698 -304 
C 698 -788 678 -948 608 -1075 
C 570 -1139 480 -1191 390 -1191 
C 294 -1191 230 -1146 122 -1011 
C 6 -864 -83 -807 -186 -807 
C -333 -807 -448 -915 -448 -1056 
C -448 -1261 -192 -1408 154 -1408 
C 858 -1408 1235 -923 1235 -15 
L 1235 2907 
z
M 909 4352 
C 736 4352 589 4205 589 4026 
C 589 3847 730 3699 909 3699 
C 1094 3699 1242 3840 1242 4026 
C 1242 4205 1094 4352 909 4352 
z
" transform="scale(0.015625)"/>
      </defs>
      <use xlink:href="#NimbusRomNo9L-Regu-50" transform="scale(0.996264)"/>
      <use xlink:href="#NimbusRomNo9L-Regu-6f" transform="translate(55.391677 0) scale(0.996264)"/>
      <use xlink:href="#NimbusRomNo9L-Regu-72" transform="translate(105.204877 0) scale(0.996264)"/>
      <use xlink:href="#NimbusRomNo9L-Regu-63" transform="translate(138.380107 0) scale(0.996264)"/>
      <use xlink:href="#NimbusRomNo9L-Regu-65" transform="translate(182.613676 0) scale(0.996264)"/>
      <use xlink:href="#NimbusRomNo9L-Regu-6e" transform="translate(226.847245 0) scale(0.996264)"/>
      <use xlink:href="#NimbusRomNo9L-Regu-74" transform="translate(276.660445 0) scale(0.996264)"/>
      <use xlink:href="#NimbusRomNo9L-Regu-61" transform="translate(304.355615 0) scale(0.996264)"/>
      <use xlink:href="#NimbusRomNo9L-Regu-6a" transform="translate(348.589183 0) scale(0.996264)"/>
      <use xlink:href="#NimbusRomNo9L-Regu-65" transform="translate(376.284353 0) scale(0.996264)"/>
     </g>
    </g>
   </g>
   <g id="line2d_107">
    <path d="M 28.406864 198.007406 
L 28.741664 198.173726 
L 29.076464 199.171646 
L 29.411264 198.839006 
L 29.746064 199.504286 
L 30.080864 199.836926 
L 30.415664 200.335886 
L 30.750464 199.836926 
L 31.085264 200.169566 
L 31.420064 200.335886 
L 31.754864 200.003246 
L 32.089664 200.003246 
L 32.424464 200.169566 
L 32.759264 200.003246 
L 33.094064 200.502206 
L 33.428864 200.335886 
L 33.763664 200.003246 
L 34.098464 200.335886 
L 34.433264 200.169566 
L 34.768064 200.169566 
L 35.102864 200.003246 
L 35.437664 200.003246 
L 35.772464 200.169566 
L 36.107264 200.502206 
L 36.776864 200.169566 
L 37.446464 200.169566 
L 37.781264 200.003246 
L 38.785664 200.003246 
L 39.120464 199.836926 
L 39.455264 200.003246 
L 39.790064 199.836926 
L 40.124864 200.335886 
L 40.459664 199.836926 
L 40.794464 199.836926 
L 41.129264 200.003246 
L 41.464064 199.836926 
L 41.798864 200.003246 
L 42.133664 200.003246 
L 42.468464 199.337966 
L 43.138064 199.670606 
L 43.472864 199.171646 
L 44.142464 198.839006 
L 44.477264 198.839006 
L 44.812064 199.171646 
L 45.146864 199.171646 
L 45.481664 199.337966 
L 45.816464 199.670606 
L 46.151264 199.337966 
L 46.820864 199.670606 
L 47.155664 199.337966 
L 47.490464 199.171646 
L 47.825264 199.337966 
L 48.160064 199.171646 
L 48.494864 199.504286 
L 48.829664 198.340046 
L 49.164464 199.005326 
L 49.499264 199.337966 
L 49.834064 198.839006 
L 50.168864 199.005326 
L 50.503664 199.005326 
L 50.838464 199.337966 
L 51.173264 199.171646 
L 51.508064 198.340046 
L 52.177664 199.005326 
L 52.512464 198.506366 
L 52.847264 198.340046 
L 53.182064 198.506366 
L 53.516864 198.007406 
L 53.851664 198.340046 
L 54.186464 197.508446 
L 54.521264 198.173726 
L 54.856064 198.506366 
L 55.190864 198.672686 
L 55.525664 197.342126 
L 55.860464 197.342126 
L 56.195264 198.340046 
L 56.530064 198.672686 
L 56.864864 198.672686 
L 57.534464 198.340046 
L 57.869264 198.672686 
L 58.204064 198.340046 
L 58.873664 198.340046 
L 59.208464 198.007406 
L 59.543264 196.676846 
L 59.878064 196.843166 
L 60.547664 196.177886 
L 60.882464 196.011566 
L 61.217264 196.344206 
L 61.552064 196.011566 
L 61.886864 196.843166 
L 62.221664 197.009486 
L 62.556464 196.676846 
L 62.891264 196.177886 
L 63.226064 196.843166 
L 63.560864 195.845246 
L 63.895664 195.678926 
L 64.230464 196.344206 
L 64.565264 195.512606 
L 65.234864 196.510526 
L 65.569664 196.344206 
L 65.904464 196.344206 
L 66.239264 195.512606 
L 66.574064 196.344206 
L 66.908864 196.510526 
L 67.243664 196.344206 
L 67.578464 196.011566 
L 67.913264 195.845246 
L 68.248064 196.344206 
L 68.582864 196.011566 
L 68.917664 195.845246 
L 69.252464 195.346286 
L 69.587264 196.011566 
L 70.256864 196.344206 
L 70.591664 196.676846 
L 71.261264 195.845246 
L 71.596064 196.344206 
L 71.930864 196.510526 
L 72.265664 196.177886 
L 72.600464 196.676846 
L 72.935264 196.011566 
L 73.270064 195.678926 
L 73.604864 195.678926 
L 73.939664 196.011566 
L 74.274464 195.512606 
L 74.609264 196.843166 
L 74.944064 196.843166 
L 75.278864 196.510526 
L 75.613664 196.011566 
L 75.948464 195.845246 
L 76.283264 196.177886 
L 76.618064 196.676846 
L 76.952864 195.678926 
L 77.287664 196.510526 
L 77.622464 196.510526 
L 78.292064 196.177886 
L 78.626864 195.845246 
L 78.961664 195.678926 
L 79.296464 196.177886 
L 79.631264 196.344206 
L 79.966064 196.011566 
L 80.300864 195.845246 
L 80.635664 197.009486 
L 80.970464 197.009486 
L 81.305264 195.678926 
L 81.640064 196.676846 
L 81.974864 196.344206 
L 82.309664 195.512606 
L 82.644464 196.011566 
L 82.979264 196.011566 
L 83.648864 196.676846 
L 83.983664 196.676846 
L 84.318464 196.344206 
L 84.653264 197.009486 
L 84.988064 196.011566 
L 85.322864 197.009486 
L 85.657664 196.011566 
L 85.992464 196.011566 
L 86.662064 196.676846 
L 86.996864 196.177886 
L 87.331664 196.344206 
L 87.666464 196.177886 
L 88.001264 196.510526 
L 88.336064 196.344206 
L 88.670864 196.011566 
L 89.005664 196.344206 
L 89.340464 196.344206 
L 90.010064 195.346286 
L 90.344864 196.011566 
L 90.679664 195.845246 
L 91.014464 195.845246 
L 91.349264 196.843166 
L 91.684064 197.342126 
L 92.018864 197.009486 
L 92.353664 196.011566 
L 93.023264 196.344206 
L 93.358064 196.344206 
L 93.692864 196.510526 
L 94.027664 196.344206 
L 94.697264 196.344206 
L 95.032064 196.177886 
L 95.366864 195.678926 
L 95.701664 195.845246 
L 96.036464 196.177886 
L 96.371264 196.344206 
L 96.706064 195.845246 
L 97.040864 196.344206 
L 97.375664 196.344206 
L 97.710464 196.676846 
L 98.045264 195.845246 
L 98.380064 197.009486 
L 98.714864 196.344206 
L 99.049664 196.676846 
L 99.384464 196.011566 
L 99.719264 196.177886 
L 100.054064 196.676846 
L 100.388864 196.177886 
L 100.723664 196.843166 
L 101.058464 196.510526 
L 101.393264 197.175806 
L 101.728064 196.843166 
L 102.062864 197.009486 
L 102.397664 197.009486 
L 102.732464 196.344206 
L 103.067264 197.009486 
L 103.402064 196.843166 
L 103.736864 196.344206 
L 104.071664 196.510526 
L 104.406464 196.344206 
L 104.741264 196.510526 
L 105.410864 196.510526 
L 105.745664 196.011566 
L 106.080464 196.510526 
L 106.415264 196.344206 
L 107.084864 195.678926 
L 107.419664 196.843166 
L 107.754464 195.845246 
L 108.424064 196.177886 
L 109.093664 196.177886 
L 109.428464 196.676846 
L 109.763264 196.510526 
L 110.098064 196.011566 
L 110.432864 196.510526 
L 110.767664 196.344206 
L 111.102464 196.344206 
L 111.437264 196.177886 
L 111.772064 197.009486 
L 112.106864 196.843166 
L 112.441664 196.510526 
L 112.776464 196.011566 
L 113.111264 195.845246 
L 113.446064 196.510526 
L 113.780864 196.510526 
L 114.115664 196.676846 
L 114.450464 196.344206 
L 114.785264 195.678926 
L 115.120064 196.011566 
L 115.454864 196.676846 
L 115.789664 196.344206 
L 116.124464 196.344206 
L 116.459264 196.510526 
L 116.794064 196.510526 
L 117.128864 195.845246 
L 117.463664 196.843166 
L 117.798464 196.344206 
L 118.133264 196.177886 
L 118.468064 196.676846 
L 118.802864 195.678926 
L 119.137664 195.845246 
L 119.472464 196.510526 
L 120.142064 195.346286 
L 120.476864 196.510526 
L 120.811664 196.344206 
L 121.481264 195.678926 
L 121.816064 195.845246 
L 122.485664 194.847326 
L 122.820464 196.011566 
L 123.155264 196.344206 
L 123.490064 196.177886 
L 123.824864 196.676846 
L 124.159664 196.344206 
L 124.494464 196.344206 
L 124.829264 196.510526 
L 125.498864 195.845246 
L 126.168464 196.177886 
L 126.503264 196.177886 
L 126.838064 196.344206 
L 127.172864 196.011566 
L 127.507664 196.344206 
L 127.842464 196.843166 
L 128.177264 195.346286 
L 128.512064 196.177886 
L 128.846864 195.845246 
L 129.516464 196.177886 
L 129.851264 196.510526 
L 130.186064 196.510526 
L 130.520864 196.177886 
L 131.190464 196.843166 
L 131.525264 195.845246 
L 131.860064 195.346286 
L 132.194864 196.011566 
L 132.529664 195.845246 
L 132.864464 195.512606 
L 133.199264 196.510526 
L 133.534064 196.510526 
L 133.868864 196.843166 
L 134.538464 196.843166 
L 134.873264 197.508446 
L 135.208064 196.177886 
L 135.542864 196.177886 
L 135.877664 195.346286 
L 136.882064 196.344206 
L 137.216864 196.177886 
L 137.551664 195.678926 
L 138.221264 196.344206 
L 138.556064 196.011566 
L 138.890864 196.344206 
L 139.225664 196.177886 
L 139.560464 195.678926 
L 139.895264 195.845246 
L 140.230064 195.346286 
L 140.564864 195.845246 
L 140.899664 196.676846 
L 141.569264 197.009486 
L 141.904064 195.845246 
L 142.238864 196.177886 
L 142.573664 196.344206 
L 142.908464 195.678926 
L 143.243264 195.346286 
L 143.578064 195.678926 
L 143.912864 196.177886 
L 144.247664 196.011566 
L 144.917264 196.676846 
L 145.252064 196.843166 
L 145.921664 196.177886 
L 146.256464 196.011566 
L 146.591264 196.011566 
L 146.926064 196.344206 
L 147.260864 196.011566 
L 147.595664 196.676846 
L 147.930464 196.510526 
L 148.265264 196.676846 
L 148.600064 197.009486 
L 148.934864 196.177886 
L 149.269664 196.510526 
L 149.604464 196.344206 
L 149.939264 195.678926 
L 150.274064 196.344206 
L 150.608864 196.510526 
L 150.943664 196.011566 
L 151.278464 196.011566 
L 151.613264 196.177886 
L 152.282864 195.845246 
L 152.617664 195.845246 
L 152.952464 196.344206 
L 153.287264 196.177886 
L 153.622064 196.510526 
L 153.956864 196.510526 
L 154.291664 196.344206 
L 154.626464 197.009486 
L 154.961264 196.510526 
L 155.296064 196.344206 
L 155.630864 196.344206 
L 155.965664 196.676846 
L 156.300464 196.011566 
L 156.635264 195.678926 
L 156.970064 196.177886 
L 157.639664 195.346286 
L 158.309264 196.510526 
L 158.644064 196.177886 
L 158.978864 196.843166 
L 159.313664 196.177886 
L 159.648464 196.344206 
L 160.652864 195.845246 
L 160.987664 196.510526 
L 161.322464 196.676846 
L 161.657264 196.011566 
L 162.326864 196.011566 
L 162.661664 197.175806 
L 162.996464 196.676846 
L 163.331264 196.843166 
L 163.666064 196.177886 
L 164.000864 196.344206 
L 164.335664 196.177886 
L 164.670464 195.845246 
L 165.340064 196.676846 
L 165.674864 196.177886 
L 166.009664 196.843166 
L 166.344464 196.177886 
L 166.679264 197.009486 
L 167.014064 196.344206 
L 167.683664 196.344206 
L 168.018464 197.009486 
L 168.353264 196.510526 
L 168.688064 196.510526 
L 169.022864 197.175806 
L 169.692464 195.678926 
L 170.027264 196.510526 
L 170.362064 196.177886 
L 170.696864 196.011566 
L 171.031664 195.678926 
L 171.366464 195.512606 
L 171.701264 196.843166 
L 172.036064 196.177886 
L 172.370864 196.510526 
L 172.705664 196.011566 
L 173.040464 196.676846 
L 173.375264 196.510526 
L 173.710064 196.177886 
L 174.044864 196.676846 
L 174.379664 195.678926 
L 174.714464 195.845246 
L 175.049264 195.678926 
L 175.384064 196.510526 
L 175.718864 196.344206 
L 176.053664 197.342126 
L 176.723264 195.845246 
L 177.058064 196.676846 
L 177.392864 196.011566 
L 177.727664 196.344206 
L 178.062464 195.678926 
L 178.397264 196.510526 
L 178.732064 196.676846 
L 179.066864 196.676846 
L 179.401664 196.177886 
L 179.736464 196.510526 
L 180.071264 196.344206 
L 180.406064 197.009486 
L 180.740864 197.009486 
L 181.075664 196.510526 
L 181.410464 195.512606 
L 182.080064 196.344206 
L 182.414864 196.344206 
L 182.749664 196.843166 
L 183.084464 196.011566 
L 183.419264 196.344206 
L 183.754064 195.845246 
L 184.088864 195.845246 
L 184.423664 196.676846 
L 184.758464 196.344206 
L 185.093264 196.843166 
L 185.428064 195.678926 
L 185.762864 196.344206 
L 186.097664 196.344206 
L 186.432464 196.676846 
L 186.767264 196.344206 
L 187.102064 196.510526 
L 187.436864 195.845246 
L 187.771664 196.011566 
L 188.106464 196.011566 
L 188.441264 195.678926 
L 188.776064 196.344206 
L 189.110864 195.845246 
L 189.445664 196.510526 
L 189.780464 196.011566 
L 190.450064 196.344206 
L 190.784864 197.009486 
L 191.119664 196.843166 
L 191.454464 196.177886 
L 191.789264 196.676846 
L 192.124064 195.512606 
L 192.458864 195.678926 
L 192.793664 196.676846 
L 193.128464 196.344206 
L 193.463264 197.009486 
L 194.132864 196.344206 
L 194.467664 196.676846 
L 194.802464 196.344206 
L 195.137264 196.676846 
L 195.472064 196.510526 
L 195.806864 196.843166 
L 195.806864 196.843166 
" clip-path="url(#pdf2411c78a)" style="fill: none; stroke: #dedeee; stroke-linecap: square"/>
   </g>
   <g id="line2d_108">
    <path d="M 28.406864 202.165406 
L 195.806864 202.165406 
L 195.806864 202.165406 
" clip-path="url(#pdf2411c78a)" style="fill: none; stroke-dasharray: 3.7,1.6; stroke-dashoffset: 0; stroke: #9b9aca"/>
   </g>
   <g id="line2d_109">
    <path d="M 28.406864 198.007406 
L 28.741664 199.504286 
L 29.076464 199.670606 
L 29.411264 199.504286 
L 30.080864 200.169566 
L 30.415664 200.169566 
L 30.750464 200.003246 
L 31.085264 200.003246 
L 31.420064 199.836926 
L 31.754864 200.003246 
L 32.089664 199.836926 
L 32.424464 200.003246 
L 32.759264 200.003246 
L 33.428864 200.335886 
L 36.442064 200.335886 
L 36.776864 200.169566 
L 37.111664 200.335886 
L 39.455264 200.335886 
L 39.790064 200.169566 
L 41.798864 200.169566 
L 42.133664 200.335886 
L 45.481664 200.335886 
L 45.816464 200.169566 
L 46.151264 200.335886 
L 46.486064 200.003246 
L 46.820864 200.003246 
L 47.155664 200.169566 
L 47.825264 200.169566 
L 48.160064 200.335886 
L 48.829664 200.335886 
L 49.164464 200.169566 
L 49.499264 200.335886 
L 49.834064 200.169566 
L 50.168864 200.335886 
L 56.530064 200.335886 
L 56.864864 200.169566 
L 57.199664 200.335886 
L 58.204064 200.335886 
L 58.538864 200.169566 
L 59.208464 200.169566 
L 59.543264 200.335886 
L 60.547664 200.335886 
L 60.882464 200.169566 
L 61.217264 200.169566 
L 61.552064 200.335886 
L 61.886864 200.335886 
L 62.556464 200.003246 
L 62.891264 200.335886 
L 63.560864 200.335886 
L 63.895664 200.169566 
L 64.230464 200.169566 
L 64.565264 200.335886 
L 64.900064 200.169566 
L 65.234864 200.335886 
L 65.904464 200.335886 
L 66.239264 200.169566 
L 66.574064 200.169566 
L 66.908864 200.335886 
L 67.243664 200.335886 
L 67.578464 200.169566 
L 67.913264 200.335886 
L 68.248064 200.169566 
L 68.582864 200.169566 
L 68.917664 200.003246 
L 69.252464 200.169566 
L 69.922064 200.169566 
L 70.256864 200.335886 
L 70.591664 200.169566 
L 70.926464 200.169566 
L 71.261264 200.335886 
L 71.930864 200.335886 
L 72.265664 200.169566 
L 72.600464 200.335886 
L 73.939664 200.335886 
L 74.274464 200.169566 
L 74.609264 200.335886 
L 79.966064 200.335886 
L 80.300864 200.169566 
L 80.635664 200.335886 
L 80.970464 200.335886 
L 81.305264 200.169566 
L 81.640064 200.335886 
L 82.309664 200.335886 
L 82.644464 200.169566 
L 82.979264 200.335886 
L 83.314064 200.169566 
L 83.648864 200.335886 
L 83.983664 200.169566 
L 84.318464 200.335886 
L 85.322864 200.335886 
L 85.657664 200.169566 
L 86.327264 200.169566 
L 86.662064 200.335886 
L 87.666464 200.335886 
L 88.001264 200.169566 
L 88.336064 200.335886 
L 88.670864 200.169566 
L 89.005664 200.335886 
L 89.340464 200.169566 
L 89.675264 200.335886 
L 90.010064 200.335886 
L 90.344864 200.169566 
L 91.349264 200.169566 
L 91.684064 200.335886 
L 92.353664 200.335886 
L 92.688464 200.169566 
L 93.692864 200.169566 
L 94.027664 200.335886 
L 94.697264 200.335886 
L 95.032064 200.003246 
L 95.366864 200.335886 
L 96.371264 200.335886 
L 97.040864 200.003246 
L 97.375664 200.335886 
L 99.384464 200.335886 
L 99.719264 200.169566 
L 100.054064 200.335886 
L 102.062864 200.335886 
L 102.397664 200.169566 
L 102.732464 200.335886 
L 103.736864 200.335886 
L 104.071664 200.169566 
L 104.406464 200.335886 
L 106.415264 200.335886 
L 107.084864 200.003246 
L 107.419664 200.169566 
L 107.754464 200.003246 
L 108.424064 200.335886 
L 109.763264 200.335886 
L 110.432864 200.003246 
L 110.767664 200.335886 
L 111.102464 200.169566 
L 111.437264 200.335886 
L 111.772064 200.335886 
L 112.106864 200.169566 
L 112.441664 200.169566 
L 112.776464 200.335886 
L 113.446064 200.335886 
L 113.780864 200.169566 
L 114.115664 200.169566 
L 114.450464 200.335886 
L 114.785264 200.335886 
L 115.120064 200.003246 
L 115.454864 200.169566 
L 115.789664 200.003246 
L 116.124464 200.335886 
L 116.459264 200.335886 
L 116.794064 200.003246 
L 117.128864 200.335886 
L 117.463664 200.169566 
L 118.133264 200.169566 
L 118.468064 200.335886 
L 119.137664 200.335886 
L 119.472464 200.169566 
L 119.807264 200.335886 
L 122.820464 200.335886 
L 123.155264 200.169566 
L 125.498864 200.169566 
L 125.833664 200.335886 
L 126.168464 200.169566 
L 126.503264 200.169566 
L 126.838064 200.335886 
L 127.172864 200.335886 
L 127.507664 200.169566 
L 127.842464 200.169566 
L 128.177264 200.335886 
L 129.516464 200.335886 
L 129.851264 200.169566 
L 130.186064 200.335886 
L 130.855664 200.335886 
L 131.190464 200.169566 
L 131.525264 200.335886 
L 131.860064 200.003246 
L 132.194864 200.335886 
L 132.864464 200.335886 
L 133.199264 200.169566 
L 134.538464 200.169566 
L 134.873264 200.335886 
L 136.547264 200.335886 
L 136.882064 200.169566 
L 137.216864 200.335886 
L 141.234464 200.335886 
L 141.569264 200.169566 
L 141.904064 200.335886 
L 143.912864 200.335886 
L 144.582464 200.003246 
L 144.917264 200.335886 
L 145.252064 200.169566 
L 145.586864 200.169566 
L 145.921664 200.335886 
L 147.260864 200.335886 
L 147.595664 200.003246 
L 148.600064 200.003246 
L 149.269664 200.335886 
L 150.943664 200.335886 
L 151.278464 200.169566 
L 151.613264 200.169566 
L 151.948064 200.003246 
L 152.617664 200.335886 
L 154.291664 200.335886 
L 154.626464 200.169566 
L 154.961264 200.335886 
L 156.300464 200.335886 
L 156.635264 200.169566 
L 156.970064 200.335886 
L 157.974464 200.335886 
L 158.309264 200.169566 
L 158.644064 200.335886 
L 159.983264 200.335886 
L 160.318064 200.169566 
L 160.987664 200.169566 
L 161.322464 199.836926 
L 161.657264 200.169566 
L 161.992064 200.335886 
L 162.661664 200.335886 
L 162.996464 200.169566 
L 163.331264 200.335886 
L 165.005264 200.335886 
L 165.340064 200.169566 
L 165.674864 200.335886 
L 166.344464 200.335886 
L 166.679264 200.169566 
L 167.014064 200.335886 
L 167.348864 200.335886 
L 167.683664 200.169566 
L 168.018464 200.335886 
L 168.353264 200.335886 
L 168.688064 200.003246 
L 169.022864 200.169566 
L 170.027264 200.169566 
L 170.362064 200.003246 
L 170.696864 200.335886 
L 171.031664 200.335886 
L 171.366464 200.169566 
L 171.701264 200.335886 
L 173.040464 200.335886 
L 173.375264 200.169566 
L 173.710064 200.169566 
L 174.044864 200.335886 
L 175.049264 200.335886 
L 175.384064 200.169566 
L 175.718864 200.335886 
L 178.062464 200.335886 
L 178.397264 200.169566 
L 178.732064 200.169566 
L 179.066864 200.003246 
L 179.401664 200.335886 
L 179.736464 200.169566 
L 180.071264 200.335886 
L 181.075664 200.335886 
L 181.410464 200.003246 
L 181.745264 200.169566 
L 182.080064 200.169566 
L 182.414864 200.335886 
L 182.749664 200.169566 
L 184.088864 200.169566 
L 184.423664 200.335886 
L 185.762864 200.335886 
L 186.097664 200.169566 
L 186.432464 200.169566 
L 186.767264 200.335886 
L 188.106464 200.335886 
L 188.441264 200.003246 
L 188.776064 200.169566 
L 189.110864 200.169566 
L 189.445664 200.003246 
L 189.780464 200.003246 
L 190.115264 200.169566 
L 191.119664 200.169566 
L 191.454464 200.335886 
L 192.124064 200.335886 
L 192.793664 200.003246 
L 193.463264 200.335886 
L 195.137264 200.335886 
L 195.472064 200.169566 
L 195.806864 200.169566 
L 195.806864 200.169566 
" clip-path="url(#pdf2411c78a)" style="fill: none; stroke-dasharray: 1,1.65; stroke-dashoffset: 0; stroke: #7976b8"/>
   </g>
   <g id="line2d_110">
    <path d="M 28.406864 44.161406 
L 29.076464 41.333966 
L 29.411264 41.832926 
L 30.080864 40.169726 
L 30.415664 39.670766 
L 30.750464 40.336046 
L 31.085264 40.003406 
L 31.420064 40.003406 
L 32.089664 40.336046 
L 32.424464 40.003406 
L 32.759264 40.169726 
L 33.094064 39.504446 
L 33.428864 39.504446 
L 33.763664 39.837086 
L 34.098464 39.504446 
L 34.433264 39.670766 
L 34.768064 39.670766 
L 35.102864 39.837086 
L 35.437664 39.837086 
L 35.772464 39.670766 
L 36.107264 39.338126 
L 36.442064 39.504446 
L 36.776864 39.837086 
L 37.111664 39.670766 
L 37.446464 39.670766 
L 37.781264 39.837086 
L 38.785664 39.837086 
L 39.120464 40.003406 
L 39.455264 39.837086 
L 39.790064 40.169726 
L 40.124864 39.670766 
L 40.459664 40.169726 
L 40.794464 40.169726 
L 41.129264 40.003406 
L 41.464064 40.169726 
L 42.133664 39.837086 
L 42.468464 40.502366 
L 43.138064 40.169726 
L 43.472864 40.668686 
L 44.142464 41.001326 
L 44.477264 41.001326 
L 44.812064 40.668686 
L 45.146864 40.668686 
L 45.816464 40.336046 
L 46.486064 40.668686 
L 46.820864 40.502366 
L 47.490464 40.835006 
L 47.825264 40.668686 
L 48.160064 40.668686 
L 48.494864 40.336046 
L 48.829664 41.500286 
L 49.499264 40.502366 
L 49.834064 41.167646 
L 50.168864 40.835006 
L 50.503664 40.835006 
L 50.838464 40.502366 
L 51.173264 40.668686 
L 51.508064 41.500286 
L 52.177664 40.835006 
L 52.512464 41.333966 
L 52.847264 41.500286 
L 53.182064 41.333966 
L 53.516864 41.832926 
L 53.851664 41.500286 
L 54.186464 42.331886 
L 54.521264 41.666606 
L 54.856064 41.333966 
L 55.190864 41.167646 
L 55.525664 42.498206 
L 55.860464 42.498206 
L 56.195264 41.500286 
L 56.530064 41.167646 
L 56.864864 41.333966 
L 57.199664 41.333966 
L 57.534464 41.500286 
L 57.869264 41.167646 
L 58.204064 41.500286 
L 58.538864 41.666606 
L 58.873664 41.666606 
L 59.208464 41.999246 
L 59.543264 43.163486 
L 59.878064 42.997166 
L 60.882464 43.995086 
L 61.217264 43.662446 
L 61.552064 43.828766 
L 61.886864 42.997166 
L 62.221664 42.997166 
L 62.556464 43.496126 
L 62.891264 43.662446 
L 63.226064 42.997166 
L 63.560864 43.995086 
L 63.895664 44.327726 
L 64.230464 43.662446 
L 64.565264 44.327726 
L 64.900064 43.995086 
L 65.234864 43.329806 
L 65.569664 43.496126 
L 65.904464 43.496126 
L 66.239264 44.494046 
L 66.574064 43.662446 
L 66.908864 43.329806 
L 67.243664 43.496126 
L 67.578464 43.995086 
L 67.913264 43.995086 
L 68.248064 43.662446 
L 69.252464 44.660366 
L 69.587264 43.995086 
L 69.922064 43.828766 
L 70.256864 43.496126 
L 70.591664 43.329806 
L 70.926464 43.828766 
L 71.261264 43.995086 
L 71.596064 43.496126 
L 71.930864 43.329806 
L 72.265664 43.828766 
L 72.600464 43.163486 
L 72.935264 43.828766 
L 73.270064 44.161406 
L 73.604864 44.161406 
L 73.939664 43.828766 
L 74.274464 44.494046 
L 74.609264 42.997166 
L 74.944064 42.997166 
L 75.278864 43.329806 
L 75.613664 43.828766 
L 75.948464 43.995086 
L 76.283264 43.662446 
L 76.618064 43.163486 
L 76.952864 44.161406 
L 77.287664 43.329806 
L 77.622464 43.329806 
L 78.292064 43.662446 
L 78.626864 43.995086 
L 78.961664 44.161406 
L 79.296464 43.662446 
L 79.631264 43.496126 
L 80.300864 44.161406 
L 80.635664 42.830846 
L 80.970464 42.830846 
L 81.305264 44.327726 
L 81.640064 43.163486 
L 81.974864 43.496126 
L 82.309664 44.327726 
L 82.644464 43.995086 
L 83.314064 43.662446 
L 83.648864 43.163486 
L 84.318464 43.496126 
L 84.653264 42.830846 
L 84.988064 43.828766 
L 85.322864 42.830846 
L 85.657664 43.995086 
L 85.992464 43.995086 
L 86.327264 43.662446 
L 86.662064 43.163486 
L 86.996864 43.662446 
L 87.331664 43.496126 
L 87.666464 43.662446 
L 88.001264 43.496126 
L 88.336064 43.496126 
L 88.670864 43.995086 
L 89.005664 43.496126 
L 89.340464 43.662446 
L 89.675264 43.995086 
L 90.010064 44.494046 
L 90.344864 43.995086 
L 90.679664 44.161406 
L 91.014464 44.161406 
L 91.684064 42.498206 
L 92.018864 42.830846 
L 92.353664 43.828766 
L 92.688464 43.828766 
L 93.023264 43.662446 
L 93.358064 43.662446 
L 93.692864 43.496126 
L 94.697264 43.496126 
L 95.032064 43.995086 
L 95.366864 44.161406 
L 95.701664 43.995086 
L 96.036464 43.662446 
L 96.371264 43.496126 
L 96.706064 44.161406 
L 97.710464 43.163486 
L 98.045264 43.995086 
L 98.380064 42.830846 
L 98.714864 43.496126 
L 99.049664 43.163486 
L 99.384464 43.828766 
L 99.719264 43.828766 
L 100.054064 43.163486 
L 100.388864 43.662446 
L 100.723664 42.997166 
L 101.058464 43.329806 
L 101.393264 42.664526 
L 101.728064 42.997166 
L 102.062864 42.830846 
L 102.397664 42.997166 
L 102.732464 43.496126 
L 103.067264 42.830846 
L 103.402064 42.997166 
L 103.736864 43.496126 
L 104.406464 43.496126 
L 104.741264 43.329806 
L 105.410864 43.329806 
L 105.745664 43.828766 
L 106.080464 43.329806 
L 106.415264 43.496126 
L 107.084864 44.494046 
L 107.419664 43.163486 
L 107.754464 44.327726 
L 108.424064 43.662446 
L 109.093664 43.662446 
L 109.428464 43.163486 
L 109.763264 43.329806 
L 110.098064 43.995086 
L 110.432864 43.662446 
L 110.767664 43.496126 
L 111.102464 43.662446 
L 111.437264 43.662446 
L 111.772064 42.830846 
L 112.776464 43.828766 
L 113.111264 43.995086 
L 113.446064 43.329806 
L 113.780864 43.496126 
L 114.115664 43.329806 
L 114.450464 43.496126 
L 114.785264 44.161406 
L 115.120064 44.161406 
L 115.454864 43.329806 
L 115.789664 43.828766 
L 116.124464 43.496126 
L 116.459264 43.329806 
L 117.128864 43.995086 
L 117.463664 43.163486 
L 117.798464 43.662446 
L 118.133264 43.828766 
L 118.468064 43.163486 
L 118.802864 44.161406 
L 119.137664 43.995086 
L 119.472464 43.496126 
L 119.807264 43.828766 
L 120.142064 44.494046 
L 120.476864 43.329806 
L 120.811664 43.496126 
L 121.481264 44.161406 
L 121.816064 43.995086 
L 122.485664 44.993006 
L 122.820464 43.828766 
L 123.155264 43.662446 
L 123.490064 43.828766 
L 123.824864 43.329806 
L 124.159664 43.662446 
L 124.494464 43.662446 
L 124.829264 43.496126 
L 125.498864 44.161406 
L 125.833664 43.828766 
L 126.503264 43.828766 
L 126.838064 43.496126 
L 127.172864 43.828766 
L 127.507664 43.662446 
L 127.842464 43.163486 
L 128.177264 44.494046 
L 128.512064 43.662446 
L 128.846864 43.995086 
L 130.186064 43.329806 
L 130.520864 43.662446 
L 130.855664 43.329806 
L 131.190464 43.163486 
L 131.860064 44.826686 
L 132.194864 43.828766 
L 132.529664 43.995086 
L 132.864464 44.327726 
L 133.199264 43.496126 
L 133.534064 43.496126 
L 133.868864 43.163486 
L 134.538464 43.163486 
L 134.873264 42.331886 
L 135.208064 43.662446 
L 135.542864 43.662446 
L 135.877664 44.494046 
L 136.547264 43.828766 
L 136.882064 43.662446 
L 137.216864 43.662446 
L 137.551664 44.161406 
L 138.221264 43.496126 
L 138.556064 43.828766 
L 138.890864 43.496126 
L 139.225664 43.662446 
L 139.560464 44.161406 
L 139.895264 43.995086 
L 140.230064 44.494046 
L 140.564864 43.995086 
L 140.899664 43.163486 
L 141.234464 42.997166 
L 141.569264 42.997166 
L 141.904064 43.995086 
L 142.238864 43.662446 
L 142.573664 43.496126 
L 142.908464 44.161406 
L 143.243264 44.494046 
L 143.578064 44.161406 
L 143.912864 43.662446 
L 144.247664 43.995086 
L 144.582464 43.828766 
L 144.917264 43.163486 
L 145.252064 43.163486 
L 145.586864 43.496126 
L 146.256464 43.828766 
L 146.591264 43.828766 
L 146.926064 43.496126 
L 147.260864 43.828766 
L 147.595664 43.496126 
L 147.930464 43.662446 
L 148.265264 43.496126 
L 148.600064 43.163486 
L 148.934864 43.828766 
L 149.269664 43.329806 
L 149.604464 43.496126 
L 149.939264 44.161406 
L 150.274064 43.496126 
L 150.608864 43.329806 
L 150.943664 43.828766 
L 151.278464 43.995086 
L 151.613264 43.828766 
L 151.948064 44.161406 
L 152.282864 44.161406 
L 152.617664 43.995086 
L 152.952464 43.496126 
L 153.287264 43.662446 
L 153.622064 43.329806 
L 153.956864 43.329806 
L 154.291664 43.496126 
L 154.626464 42.997166 
L 154.961264 43.329806 
L 155.296064 43.496126 
L 155.630864 43.496126 
L 155.965664 43.163486 
L 156.635264 44.327726 
L 156.970064 43.662446 
L 157.639664 44.494046 
L 158.309264 43.496126 
L 158.644064 43.662446 
L 158.978864 42.997166 
L 159.313664 43.662446 
L 159.648464 43.496126 
L 159.983264 43.662446 
L 160.318064 43.995086 
L 160.652864 44.161406 
L 160.987664 43.496126 
L 161.322464 43.662446 
L 161.657264 43.995086 
L 161.992064 43.828766 
L 162.326864 43.828766 
L 162.661664 42.664526 
L 162.996464 43.329806 
L 163.331264 42.997166 
L 163.666064 43.662446 
L 164.000864 43.496126 
L 164.335664 43.662446 
L 164.670464 43.995086 
L 165.005264 43.496126 
L 165.340064 43.329806 
L 165.674864 43.662446 
L 166.009664 42.997166 
L 166.344464 43.662446 
L 166.679264 42.997166 
L 167.014064 43.496126 
L 167.348864 43.496126 
L 167.683664 43.662446 
L 168.018464 42.830846 
L 168.688064 43.662446 
L 169.022864 42.830846 
L 169.692464 44.327726 
L 170.027264 43.496126 
L 170.362064 43.995086 
L 170.696864 43.828766 
L 171.366464 44.494046 
L 171.701264 42.997166 
L 172.036064 43.662446 
L 172.370864 43.329806 
L 172.705664 43.828766 
L 173.040464 43.163486 
L 173.710064 43.828766 
L 174.044864 43.163486 
L 174.379664 44.161406 
L 174.714464 43.995086 
L 175.049264 44.161406 
L 175.384064 43.496126 
L 175.718864 43.496126 
L 176.053664 42.498206 
L 176.723264 43.995086 
L 177.058064 43.163486 
L 177.392864 43.828766 
L 177.727664 43.496126 
L 178.062464 44.161406 
L 178.397264 43.496126 
L 178.732064 43.329806 
L 179.401664 43.662446 
L 179.736464 43.496126 
L 180.071264 43.496126 
L 180.406064 42.830846 
L 180.740864 42.830846 
L 181.075664 43.329806 
L 181.410464 44.660366 
L 181.745264 43.995086 
L 182.080064 43.662446 
L 182.414864 43.496126 
L 182.749664 43.163486 
L 183.084464 43.995086 
L 183.419264 43.662446 
L 183.754064 44.161406 
L 184.088864 44.161406 
L 184.423664 43.163486 
L 184.758464 43.496126 
L 185.093264 42.997166 
L 185.428064 44.161406 
L 185.762864 43.496126 
L 186.097664 43.662446 
L 186.432464 43.329806 
L 186.767264 43.496126 
L 187.102064 43.329806 
L 187.436864 43.995086 
L 187.771664 43.828766 
L 188.106464 43.828766 
L 188.441264 44.494046 
L 188.776064 43.662446 
L 189.110864 44.161406 
L 189.445664 43.662446 
L 189.780464 44.161406 
L 190.115264 43.828766 
L 190.450064 43.662446 
L 190.784864 42.997166 
L 191.119664 43.163486 
L 191.454464 43.662446 
L 191.789264 43.163486 
L 192.124064 44.327726 
L 192.458864 44.327726 
L 192.793664 43.496126 
L 193.128464 43.662446 
L 193.463264 42.830846 
L 194.132864 43.496126 
L 194.467664 43.163486 
L 194.802464 43.496126 
L 195.137264 43.163486 
L 195.472064 43.496126 
L 195.806864 43.163486 
L 195.806864 43.163486 
" clip-path="url(#pdf2411c78a)" style="fill: none; stroke-dasharray: 6.4,1.6,1,1.6; stroke-dashoffset: 0; stroke: #201f3d"/>
   </g>
   <g id="patch_3">
    <path d="M 28.406864 202.165406 
L 28.406864 35.845406 
" style="fill: none; stroke: #000000; stroke-width: 0.5; stroke-linejoin: miter; stroke-linecap: square"/>
   </g>
   <g id="patch_4">
    <path d="M 195.806864 202.165406 
L 195.806864 35.845406 
" style="fill: none; stroke: #000000; stroke-width: 0.5; stroke-linejoin: miter; stroke-linecap: square"/>
   </g>
   <g id="patch_5">
    <path d="M 28.406864 202.165406 
L 195.806864 202.165406 
" style="fill: none; stroke: #000000; stroke-width: 0.5; stroke-linejoin: miter; stroke-linecap: square"/>
   </g>
   <g id="patch_6">
    <path d="M 28.406864 35.845406 
L 195.806864 35.845406 
" style="fill: none; stroke: #000000; stroke-width: 0.5; stroke-linejoin: miter; stroke-linecap: square"/>
   </g>
   <g id="text_15">
    <!-- Evolucin de Mxico - Red: Barabsi-Albert  -->
    <g transform="translate(25.987475 10.084396) scale(0.096 -0.096)">
     <defs>
      <path id="NimbusRomNo9L-Regu-45" d="M 3821 1078 
L 3642 1078 
C 3322 389 3046 237 2131 237 
L 1958 237 
C 1645 237 1376 269 1331 315 
C 1299 334 1286 404 1286 514 
L 1286 2106 
L 2272 2106 
C 2797 2106 2893 2020 2976 1472 
L 3123 1472 
L 3123 2957 
L 2976 2957 
C 2931 2703 2906 2610 2835 2523 
C 2752 2417 2573 2368 2272 2368 
L 1286 2368 
L 1286 3766 
C 1286 3943 1325 3981 1498 3981 
L 2362 3981 
C 3085 3981 3226 3886 3334 3314 
L 3494 3314 
L 3475 4224 
L 77 4224 
L 77 4102 
C 550 4064 634 3974 634 3525 
L 634 679 
C 634 230 544 134 77 134 
L 77 0 
L 3533 0 
L 3821 1078 
z
" transform="scale(0.015625)"/>
      <path id="NimbusRomNo9L-Regu-76" d="M 3053 2854 
L 2163 2854 
L 2163 2758 
C 2368 2739 2464 2675 2464 2552 
C 2464 2488 2451 2424 2426 2359 
L 1792 695 
L 1139 2340 
C 1101 2431 1082 2520 1082 2578 
C 1082 2694 1152 2739 1376 2758 
L 1376 2854 
L 122 2854 
L 122 2752 
C 365 2752 410 2688 704 2024 
L 1472 175 
C 1485 137 1504 91 1523 40 
C 1562 -76 1600 -128 1638 -128 
C 1677 -128 1722 -44 1818 193 
L 2637 2257 
C 2822 2694 2861 2739 3053 2758 
L 3053 2854 
z
" transform="scale(0.015625)"/>
      <path id="NimbusRomNo9L-Regu-6c" d="M 122 4000 
L 160 4000 
C 230 4000 307 4000 358 4000 
C 563 4000 627 3910 627 3610 
L 627 557 
C 627 211 538 128 134 96 
L 134 0 
L 1645 0 
L 1645 109 
C 1242 109 1165 173 1165 528 
L 1165 4371 
L 1139 4384 
C 806 4275 563 4211 122 4103 
L 122 4000 
z
" transform="scale(0.015625)"/>
      <path id="NimbusRomNo9L-Regu-75" d="M 3066 320 
L 3034 320 
C 2739 320 2669 390 2669 685 
L 2669 2880 
L 1658 2880 
L 1658 2758 
C 2054 2758 2131 2694 2131 2375 
L 2131 875 
C 2131 697 2099 607 2010 537 
C 1837 397 1638 320 1446 320 
C 1197 320 992 537 992 805 
L 992 2880 
L 58 2880 
L 58 2778 
C 365 2778 454 2682 454 2387 
L 454 770 
C 454 263 762 -64 1229 -64 
C 1466 -64 1715 38 1888 211 
L 2163 486 
L 2163 -45 
L 2189 -58 
C 2509 70 2739 141 3066 230 
L 3066 320 
z
" transform="scale(0.015625)"/>
      <path id="NimbusRomNo9L-Regu-b4" d="M 851 3264 
L 1837 3882 
C 1971 3964 2029 4047 2029 4148 
C 2029 4275 1946 4352 1805 4352 
C 1709 4352 1651 4320 1536 4206 
L 595 3264 
L 851 3264 
z
" transform="scale(0.015625)"/>
      <path id="NimbusRomNo9L-Regu-64" d="M 2202 -64 
L 3142 269 
L 3142 365 
C 3027 365 3014 365 2995 365 
C 2765 365 2714 435 2714 731 
L 2714 4364 
L 2682 4377 
C 2374 4268 2150 4204 1741 4096 
L 1741 3994 
C 1792 4000 1830 4000 1882 4000 
C 2118 4000 2176 3936 2176 3672 
L 2176 2669 
C 1933 2874 1760 2944 1504 2944 
C 768 2944 173 2221 173 1312 
C 173 493 653 -64 1357 -64 
C 1715 -64 1958 64 2176 365 
L 2176 -45 
L 2202 -64 
z
M 2176 653 
C 2176 608 2131 531 2067 461 
C 1952 333 1792 269 1606 269 
C 1075 269 723 781 723 1568 
C 723 2291 1037 2765 1523 2765 
C 1862 2765 2176 2464 2176 2125 
L 2176 653 
z
" transform="scale(0.015625)"/>
      <path id="NimbusRomNo9L-Regu-4d" d="M 4314 3667 
L 4314 751 
C 4314 217 4237 134 3731 134 
L 3731 0 
L 5523 0 
L 5523 134 
C 5056 134 4966 223 4966 681 
L 4966 3536 
C 4966 3993 5050 4077 5523 4115 
L 5523 4237 
L 4250 4237 
L 2835 1004 
L 1357 4237 
L 90 4237 
L 90 4096 
C 614 4096 698 4019 698 3550 
L 698 943 
C 698 282 608 159 77 121 
L 77 0 
L 1581 0 
L 1581 134 
C 1088 134 979 282 979 931 
L 979 3520 
L 2586 0 
L 2675 0 
L 4314 3667 
z
" transform="scale(0.015625)"/>
      <path id="NimbusRomNo9L-Regu-78" d="M 1779 0 
L 3066 0 
L 3066 96 
C 2867 96 2739 198 2541 480 
L 1722 1735 
L 2253 2502 
C 2374 2675 2566 2778 2771 2778 
L 2771 2880 
L 1760 2880 
L 1760 2778 
C 1952 2778 2016 2740 2016 2649 
C 2016 2571 1939 2430 1779 2229 
C 1747 2191 1670 2075 1587 1946 
L 1498 2074 
C 1318 2342 1203 2560 1203 2643 
C 1203 2733 1286 2778 1478 2778 
L 1478 2880 
L 154 2880 
L 154 2778 
L 211 2778 
C 403 2778 506 2695 704 2396 
L 1306 1479 
L 576 422 
C 384 160 320 115 109 96 
L 109 0 
L 1037 0 
L 1037 96 
C 858 96 781 128 781 211 
C 781 250 826 346 909 474 
L 1414 1261 
L 1997 365 
C 2022 326 2035 288 2035 250 
C 2035 123 1990 96 1779 96 
L 1779 0 
z
" transform="scale(0.015625)"/>
      <path id="NimbusRomNo9L-Regu-2d" d="M 250 1619 
L 250 1216 
L 1824 1216 
L 1824 1619 
L 250 1619 
z
" transform="scale(0.015625)"/>
      <path id="NimbusRomNo9L-Regu-52" d="M 4218 121 
C 3974 140 3846 205 3661 424 
L 2342 2061 
C 2771 2143 2963 2219 3174 2388 
C 3379 2553 3501 2818 3501 3113 
C 3501 3385 3418 3618 3251 3801 
C 3008 4059 2477 4224 1875 4224 
L 109 4224 
L 109 4102 
C 589 4051 653 3981 653 3528 
L 653 765 
C 653 236 589 159 109 121 
L 109 0 
L 1882 0 
L 1882 134 
C 1389 134 1306 219 1306 692 
L 1306 1984 
L 1664 1984 
L 3187 0 
L 4218 0 
L 4218 121 
z
M 1306 3762 
C 1306 3937 1376 3987 1632 3987 
C 2432 3987 2803 3716 2803 3123 
C 2803 2807 2669 2542 2438 2423 
C 2144 2258 1920 2221 1306 2221 
L 1306 3762 
z
" transform="scale(0.015625)"/>
      <path id="NimbusRomNo9L-Regu-3a" d="M 870 2944 
C 678 2944 518 2777 518 2579 
C 518 2393 678 2233 864 2233 
C 1062 2233 1229 2393 1229 2579 
C 1229 2777 1062 2944 870 2944 
z
M 870 646 
C 678 646 518 480 518 281 
C 518 96 678 -64 864 -64 
C 1062 -64 1229 96 1229 281 
C 1229 480 1062 646 870 646 
z
" transform="scale(0.015625)"/>
      <path id="NimbusRomNo9L-Regu-42" d="M 109 4237 
L 109 4096 
C 646 4096 723 4026 723 3548 
L 723 689 
C 723 212 640 128 109 128 
L 109 0 
L 2246 0 
C 2746 0 3200 136 3437 356 
C 3667 564 3795 855 3795 1165 
C 3795 1451 3680 1710 3482 1897 
C 3290 2072 3117 2150 2701 2253 
C 3034 2335 3168 2398 3322 2531 
C 3482 2671 3578 2903 3578 3163 
C 3578 3871 3008 4237 1901 4237 
L 109 4237 
z
M 1376 2112 
C 1997 2112 2291 2080 2522 1982 
C 2886 1827 3059 1568 3059 1159 
C 3059 809 2925 555 2669 406 
C 2464 290 2202 238 1779 238 
C 1466 238 1376 296 1376 504 
L 1376 2112 
z
M 1376 2368 
L 1376 3812 
C 1376 3944 1421 4001 1517 4001 
L 1798 4001 
C 2534 4001 2925 3699 2925 3137 
C 2925 2646 2586 2368 1984 2368 
L 1376 2368 
z
" transform="scale(0.015625)"/>
      <path id="NimbusRomNo9L-Regu-62" d="M 979 4364 
L 947 4377 
C 678 4281 506 4230 205 4147 
L 19 4096 
L 19 3994 
C 58 4000 83 4000 128 4000 
C 384 4000 442 3942 442 3673 
L 442 347 
C 442 147 986 -64 1498 -64 
C 2342 -64 2995 640 2995 1555 
C 2995 2342 2509 2944 1869 2944 
C 1478 2944 1107 2714 979 2400 
L 979 4364 
z
M 979 2061 
C 979 2310 1280 2541 1613 2541 
C 2112 2541 2432 2042 2432 1261 
C 2432 550 2125 141 1600 141 
C 1267 141 979 288 979 448 
L 979 2061 
z
" transform="scale(0.015625)"/>
      <path id="NimbusRomNo9L-Regu-41" d="M 4518 128 
C 4230 128 4166 192 3942 667 
L 2349 4320 
L 2221 4320 
L 890 1168 
C 480 231 403 128 96 128 
L 96 0 
L 1363 0 
L 1363 128 
C 1056 128 928 212 928 393 
C 928 470 947 560 979 645 
L 1274 1401 
L 2950 1401 
L 3213 778 
C 3290 602 3334 434 3334 342 
C 3334 180 3226 128 2886 128 
L 2886 0 
L 4518 0 
L 4518 128 
z
M 1382 1664 
L 2118 3416 
L 2861 1664 
L 1382 1664 
z
" transform="scale(0.015625)"/>
     </defs>
     <use xlink:href="#NimbusRomNo9L-Regu-45" transform="scale(0.996264)"/>
     <use xlink:href="#NimbusRomNo9L-Regu-76" transform="translate(60.871631 0) scale(0.996264)"/>
     <use xlink:href="#NimbusRomNo9L-Regu-6f" transform="translate(108.69282 0) scale(0.996264)"/>
     <use xlink:href="#NimbusRomNo9L-Regu-6c" transform="translate(158.506021 0) scale(0.996264)"/>
     <use xlink:href="#NimbusRomNo9L-Regu-75" transform="translate(186.20119 0) scale(0.996264)"/>
     <use xlink:href="#NimbusRomNo9L-Regu-63" transform="translate(236.014391 0) scale(0.996264)"/>
     <use xlink:href="#NimbusRomNo9L-Regu-69" transform="translate(280.247959 0) scale(0.996264)"/>
     <use xlink:href="#NimbusRomNo9L-Regu-b4" transform="translate(316.262122 0.498056) scale(0.996264)"/>
     <use xlink:href="#NimbusRomNo9L-Regu-6f" transform="translate(307.943129 0) scale(0.996264)"/>
     <use xlink:href="#NimbusRomNo9L-Regu-6e" transform="translate(357.756329 0) scale(0.996264)"/>
     <use xlink:href="#NimbusRomNo9L-Regu-64" transform="translate(432.47613 0) scale(0.996264)"/>
     <use xlink:href="#NimbusRomNo9L-Regu-65" transform="translate(482.289331 0) scale(0.996264)"/>
     <use xlink:href="#NimbusRomNo9L-Regu-4d" transform="translate(551.4295 0) scale(0.996264)"/>
     <use xlink:href="#NimbusRomNo9L-Regu-b4" transform="translate(645.525583 0.498056) scale(0.996264)"/>
     <use xlink:href="#NimbusRomNo9L-Regu-65" transform="translate(639.996406 0) scale(0.996264)"/>
     <use xlink:href="#NimbusRomNo9L-Regu-78" transform="translate(684.229975 0) scale(0.996264)"/>
     <use xlink:href="#NimbusRomNo9L-Regu-69" transform="translate(734.043175 0) scale(0.996264)"/>
     <use xlink:href="#NimbusRomNo9L-Regu-63" transform="translate(761.738345 0) scale(0.996264)"/>
     <use xlink:href="#NimbusRomNo9L-Regu-6f" transform="translate(805.971914 0) scale(0.996264)"/>
     <use xlink:href="#NimbusRomNo9L-Regu-2d" transform="translate(880.691715 0) scale(0.996264)"/>
     <use xlink:href="#NimbusRomNo9L-Regu-52" transform="translate(938.773545 0) scale(0.996264)"/>
     <use xlink:href="#NimbusRomNo9L-Regu-65" transform="translate(1005.223576 0) scale(0.996264)"/>
     <use xlink:href="#NimbusRomNo9L-Regu-64" transform="translate(1049.457144 0) scale(0.996264)"/>
     <use xlink:href="#NimbusRomNo9L-Regu-3a" transform="translate(1099.270345 0) scale(0.996264)"/>
     <use xlink:href="#NimbusRomNo9L-Regu-42" transform="translate(1157.849547 0) scale(0.996264)"/>
     <use xlink:href="#NimbusRomNo9L-Regu-61" transform="translate(1224.299578 0) scale(0.996264)"/>
     <use xlink:href="#NimbusRomNo9L-Regu-72" transform="translate(1268.533147 0) scale(0.996264)"/>
     <use xlink:href="#NimbusRomNo9L-Regu-61" transform="translate(1301.708376 0) scale(0.996264)"/>
     <use xlink:href="#NimbusRomNo9L-Regu-62" transform="translate(1345.941945 0) scale(0.996264)"/>
     <use xlink:href="#NimbusRomNo9L-Regu-b4" transform="translate(1401.284323 0.498056) scale(0.996264)"/>
     <use xlink:href="#NimbusRomNo9L-Regu-61" transform="translate(1395.755145 0) scale(0.996264)"/>
     <use xlink:href="#NimbusRomNo9L-Regu-73" transform="translate(1439.988714 0) scale(0.996264)"/>
     <use xlink:href="#NimbusRomNo9L-Regu-69" transform="translate(1478.74242 0) scale(0.996264)"/>
     <use xlink:href="#NimbusRomNo9L-Regu-2d" transform="translate(1506.43759 0) scale(0.996264)"/>
     <use xlink:href="#NimbusRomNo9L-Regu-41" transform="translate(1539.61282 0) scale(0.996264)"/>
     <use xlink:href="#NimbusRomNo9L-Regu-6c" transform="translate(1611.542805 0) scale(0.996264)"/>
     <use xlink:href="#NimbusRomNo9L-Regu-62" transform="translate(1639.237974 0) scale(0.996264)"/>
     <use xlink:href="#NimbusRomNo9L-Regu-65" transform="translate(1689.051175 0) scale(0.996264)"/>
     <use xlink:href="#NimbusRomNo9L-Regu-72" transform="translate(1733.284743 0) scale(0.996264)"/>
     <use xlink:href="#NimbusRomNo9L-Regu-74" transform="translate(1766.459973 0) scale(0.996264)"/>
    </g>
    <!--  Masa crtica: 95\% - Nodos perifericos (K) -->
    <g transform="translate(31.080437 19.993587) scale(0.096 -0.096)">
     <defs>
      <path id="NimbusRomNo9L-Regu-11" d="M 1120 2950 
L 128 2598 
L 128 2502 
L 179 2508 
C 256 2521 339 2528 397 2528 
C 550 2528 608 2424 608 2141 
L 608 644 
C 608 180 544 109 102 109 
L 102 0 
L 1619 0 
L 1619 96 
C 1197 128 1146 192 1146 654 
L 1146 2931 
L 1120 2950 
z
" transform="scale(0.015625)"/>
      <path id="NimbusRomNo9L-Regu-39" d="M 378 -123 
C 1094 -40 1446 82 1882 396 
C 2547 882 2938 1676 2938 2539 
C 2938 3593 2349 4339 1523 4339 
C 762 4339 192 3694 192 2832 
C 192 2053 653 1536 1344 1536 
C 1696 1536 1965 1638 2304 1900 
C 2042 856 1331 172 358 5 
L 378 -123 
z
M 2317 2290 
C 2317 2162 2291 2104 2221 2047 
C 2042 1894 1805 1811 1574 1811 
C 1088 1811 781 2290 781 3050 
C 781 3413 883 3796 1018 3963 
C 1126 4090 1286 4160 1472 4160 
C 2029 4160 2317 3611 2317 2539 
L 2317 2290 
z
" transform="scale(0.015625)"/>
      <path id="NimbusRomNo9L-Regu-25" d="M 4282 2368 
C 3558 2368 2874 1622 2874 824 
C 2874 325 3181 0 3642 0 
C 3930 0 4166 102 4390 325 
C 4730 670 4941 1187 4941 1686 
C 4941 2120 4698 2368 4282 2368 
z
M 4326 2164 
C 4570 2164 4774 1934 4774 1654 
C 4774 1290 4614 856 4371 556 
C 4166 301 3981 192 3750 192 
C 3520 192 3360 357 3360 601 
C 3360 939 3539 1462 3776 1793 
C 3949 2048 4128 2164 4326 2164 
z
M 4058 4320 
L 3808 4320 
C 3462 4008 3206 3904 2810 3904 
C 2554 3904 2406 3946 2253 4064 
C 2086 4194 2003 4224 1805 4224 
C 1075 4224 390 3468 390 2662 
C 390 2217 730 1856 1146 1856 
C 1421 1856 1709 1984 1920 2209 
C 2253 2549 2458 3056 2458 3526 
C 2458 3615 2445 3693 2413 3808 
C 2528 3763 2643 3744 2829 3744 
C 3110 3744 3277 3788 3533 3931 
L 1286 -96 
L 1594 -96 
L 4058 4320 
z
M 2240 3829 
C 2278 3702 2298 3607 2298 3518 
C 2298 2802 1773 2073 1254 2073 
C 1030 2073 877 2231 877 2460 
C 877 2726 1005 3157 1178 3474 
C 1363 3816 1606 4032 1805 4032 
C 1837 4032 1850 4025 1888 3993 
C 1978 3911 2054 3879 2240 3829 
z
" transform="scale(0.015625)"/>
      <path id="NimbusRomNo9L-Regu-4e" d="M 3917 -64 
L 3917 3287 
C 3917 3669 3981 3905 4102 3987 
C 4192 4051 4282 4077 4525 4102 
L 4525 4224 
L 3021 4224 
L 3021 4102 
C 3264 4083 3354 4057 3450 4000 
C 3578 3911 3635 3681 3635 3286 
L 3635 1136 
L 1171 4224 
L 77 4224 
L 77 4102 
C 352 4102 442 4051 698 3751 
L 698 938 
C 698 281 608 159 77 121 
L 77 0 
L 1581 0 
L 1581 134 
C 1088 134 979 281 979 928 
L 979 3439 
L 3808 -64 
L 3917 -64 
z
" transform="scale(0.015625)"/>
      <path id="NimbusRomNo9L-Regu-70" d="M 58 2516 
C 115 2522 160 2522 218 2522 
C 435 2522 480 2458 480 2155 
L 480 -855 
C 480 -1189 410 -1261 32 -1299 
L 32 -1408 
L 1581 -1408 
L 1581 -1293 
C 1101 -1293 1018 -1222 1018 -816 
L 1018 199 
C 1242 -13 1395 -77 1664 -77 
C 2419 -77 3008 643 3008 1575 
C 3008 2372 2560 2944 1939 2944 
C 1581 2944 1299 2784 1018 2438 
L 1018 2931 
L 979 2944 
C 634 2810 410 2726 58 2618 
L 58 2516 
z
M 1018 2136 
C 1018 2329 1376 2560 1670 2560 
C 2144 2560 2458 2071 2458 1324 
C 2458 611 2144 128 1683 128 
C 1382 128 1018 359 1018 552 
L 1018 2136 
z
" transform="scale(0.015625)"/>
      <path id="NimbusRomNo9L-Regu-66" d="M 1978 2880 
L 1190 2880 
L 1190 3611 
C 1190 3978 1312 4173 1555 4173 
C 1690 4173 1779 4110 1894 3927 
C 1997 3763 2074 3700 2182 3700 
C 2330 3700 2451 3814 2451 3959 
C 2451 4188 2170 4352 1786 4352 
C 1389 4352 1050 4181 883 3891 
C 717 3613 666 3385 659 2880 
L 134 2880 
L 134 2675 
L 659 2675 
L 659 656 
C 659 185 589 109 128 109 
L 128 0 
L 1792 0 
L 1792 109 
C 1267 109 1197 180 1197 661 
L 1197 2675 
L 1978 2675 
L 1978 2880 
z
" transform="scale(0.015625)"/>
      <path id="NimbusRomNo9L-Regu-28" d="M 1888 4326 
C 1414 4019 1222 3853 986 3558 
C 531 3002 307 2362 307 1613 
C 307 800 544 173 1107 -480 
C 1370 -787 1536 -928 1869 -1133 
L 1946 -1030 
C 1434 -627 1254 -403 1082 77 
C 928 506 858 992 858 1632 
C 858 2304 941 2829 1114 3226 
C 1293 3622 1485 3853 1946 4224 
L 1888 4326 
z
" transform="scale(0.015625)"/>
      <path id="NimbusRomNo9L-Regu-4b" d="M 2643 4109 
C 2720 4096 2784 4096 2810 4096 
C 3002 4096 3078 4045 3078 3917 
C 3078 3775 2931 3583 2579 3257 
L 1446 2224 
L 1446 3534 
C 1446 4000 1517 4071 2035 4109 
L 2035 4231 
L 218 4231 
L 218 4109 
C 717 4071 794 3988 794 3531 
L 794 750 
C 794 217 723 134 218 134 
L 218 0 
L 2022 0 
L 2022 134 
C 1523 134 1446 211 1446 683 
L 1446 1891 
L 1613 2026 
L 2291 1355 
C 2778 876 3123 422 3123 269 
C 3123 179 3034 134 2854 134 
C 2822 134 2752 134 2675 121 
L 2675 0 
L 4627 0 
L 4627 134 
C 4294 134 4205 198 3622 816 
L 2131 2409 
L 3347 3611 
C 3782 4026 3885 4077 4320 4109 
L 4320 4231 
L 2643 4231 
L 2643 4109 
z
" transform="scale(0.015625)"/>
      <path id="NimbusRomNo9L-Regu-29" d="M 243 -1133 
C 717 -826 909 -659 1146 -365 
C 1600 192 1824 832 1824 1581 
C 1824 2400 1587 3021 1024 3674 
C 762 3981 595 4122 262 4326 
L 186 4224 
C 698 3821 870 3597 1050 3117 
C 1203 2688 1274 2202 1274 1562 
C 1274 896 1190 365 1018 -26 
C 838 -429 646 -659 186 -1030 
L 243 -1133 
z
" transform="scale(0.015625)"/>
     </defs>
     <use xlink:href="#NimbusRomNo9L-Regu-4d" transform="scale(0.996264)"/>
     <use xlink:href="#NimbusRomNo9L-Regu-61" transform="translate(88.566907 0) scale(0.996264)"/>
     <use xlink:href="#NimbusRomNo9L-Regu-73" transform="translate(132.800475 0) scale(0.996264)"/>
     <use xlink:href="#NimbusRomNo9L-Regu-61" transform="translate(171.554182 0) scale(0.996264)"/>
     <use xlink:href="#NimbusRomNo9L-Regu-63" transform="translate(240.694351 0) scale(0.996264)"/>
     <use xlink:href="#NimbusRomNo9L-Regu-72" transform="translate(284.927919 0) scale(0.996264)"/>
     <use xlink:href="#NimbusRomNo9L-Regu-b4" transform="translate(315.363119 0.498056) scale(0.996264)"/>
     <use xlink:href="#NimbusRomNo9L-Regu-11" transform="translate(318.103149 0) scale(0.996264)"/>
     <use xlink:href="#NimbusRomNo9L-Regu-74" transform="translate(345.798319 0) scale(0.996264)"/>
     <use xlink:href="#NimbusRomNo9L-Regu-69" transform="translate(373.493488 0) scale(0.996264)"/>
     <use xlink:href="#NimbusRomNo9L-Regu-63" transform="translate(401.188658 0) scale(0.996264)"/>
     <use xlink:href="#NimbusRomNo9L-Regu-61" transform="translate(445.422226 0) scale(0.996264)"/>
     <use xlink:href="#NimbusRomNo9L-Regu-3a" transform="translate(489.655795 0) scale(0.996264)"/>
     <use xlink:href="#NimbusRomNo9L-Regu-39" transform="translate(548.234997 0) scale(0.996264)"/>
     <use xlink:href="#NimbusRomNo9L-Regu-35" transform="translate(598.048198 0) scale(0.996264)"/>
     <use xlink:href="#NimbusRomNo9L-Regu-25" transform="translate(647.861398 0) scale(0.996264)"/>
     <use xlink:href="#NimbusRomNo9L-Regu-2d" transform="translate(755.756429 0) scale(0.996264)"/>
     <use xlink:href="#NimbusRomNo9L-Regu-4e" transform="translate(813.838259 0) scale(0.996264)"/>
     <use xlink:href="#NimbusRomNo9L-Regu-6f" transform="translate(885.768243 0) scale(0.996264)"/>
     <use xlink:href="#NimbusRomNo9L-Regu-64" transform="translate(935.581444 0) scale(0.996264)"/>
     <use xlink:href="#NimbusRomNo9L-Regu-6f" transform="translate(985.394644 0) scale(0.996264)"/>
     <use xlink:href="#NimbusRomNo9L-Regu-73" transform="translate(1035.207845 0) scale(0.996264)"/>
     <use xlink:href="#NimbusRomNo9L-Regu-70" transform="translate(1098.868151 0) scale(0.996264)"/>
     <use xlink:href="#NimbusRomNo9L-Regu-65" transform="translate(1148.681352 0) scale(0.996264)"/>
     <use xlink:href="#NimbusRomNo9L-Regu-72" transform="translate(1192.91492 0) scale(0.996264)"/>
     <use xlink:href="#NimbusRomNo9L-Regu-69" transform="translate(1226.09015 0) scale(0.996264)"/>
     <use xlink:href="#NimbusRomNo9L-Regu-66" transform="translate(1253.78532 0) scale(0.996264)"/>
     <use xlink:href="#NimbusRomNo9L-Regu-65" transform="translate(1286.96055 0) scale(0.996264)"/>
     <use xlink:href="#NimbusRomNo9L-Regu-72" transform="translate(1331.194118 0) scale(0.996264)"/>
     <use xlink:href="#NimbusRomNo9L-Regu-69" transform="translate(1364.369348 0) scale(0.996264)"/>
     <use xlink:href="#NimbusRomNo9L-Regu-63" transform="translate(1392.064518 0) scale(0.996264)"/>
     <use xlink:href="#NimbusRomNo9L-Regu-6f" transform="translate(1436.298086 0) scale(0.996264)"/>
     <use xlink:href="#NimbusRomNo9L-Regu-73" transform="translate(1486.111287 0) scale(0.996264)"/>
     <use xlink:href="#NimbusRomNo9L-Regu-28" transform="translate(1549.771593 0) scale(0.996264)"/>
     <use xlink:href="#NimbusRomNo9L-Regu-4b" transform="translate(1582.946823 0) scale(0.996264)"/>
     <use xlink:href="#NimbusRomNo9L-Regu-29" transform="translate(1654.876808 0) scale(0.996264)"/>
    </g>
    <!--  Homofilia: 0\% -->
    <g transform="translate(83.524747 29.845406) scale(0.096 -0.096)">
     <defs>
      <path id="NimbusRomNo9L-Regu-48" d="M 1338 2304 
L 1338 3533 
C 1338 3990 1408 4059 1901 4104 
L 1901 4224 
L 122 4224 
L 122 4104 
C 614 4059 685 3989 685 3527 
L 685 749 
C 685 210 621 134 122 134 
L 122 0 
L 1901 0 
L 1901 121 
C 1421 159 1338 242 1338 699 
L 1338 2022 
L 3277 2022 
L 3277 757 
C 3277 211 3213 134 2714 134 
L 2714 0 
L 4493 0 
L 4493 121 
C 4013 159 3930 242 3930 696 
L 3930 3529 
C 3930 3989 4000 4059 4493 4104 
L 4493 4224 
L 2714 4224 
L 2714 4104 
C 3206 4059 3277 3990 3277 3533 
L 3277 2304 
L 1338 2304 
z
" transform="scale(0.015625)"/>
      <path id="NimbusRomNo9L-Regu-6d" d="M 122 2547 
C 205 2566 256 2573 326 2573 
C 493 2573 550 2470 550 2162 
L 550 539 
C 550 192 461 96 102 96 
L 102 0 
L 1523 0 
L 1523 96 
C 1184 96 1088 166 1088 418 
L 1088 2234 
C 1088 2246 1139 2310 1184 2355 
C 1344 2502 1619 2611 1843 2611 
C 2125 2611 2266 2385 2266 1932 
L 2266 528 
C 2266 167 2195 96 1830 96 
L 1830 0 
L 3264 0 
L 3264 96 
C 2899 96 2803 205 2803 603 
L 2803 2221 
C 2995 2496 3206 2611 3501 2611 
C 3866 2611 3981 2438 3981 1907 
L 3981 557 
C 3981 192 3930 141 3558 96 
L 3558 0 
L 4960 0 
L 4960 96 
L 4794 115 
C 4602 115 4518 230 4518 480 
L 4518 1802 
C 4518 2559 4269 2944 3776 2944 
C 3405 2944 3078 2778 2733 2407 
C 2618 2771 2400 2944 2054 2944 
C 1773 2944 1594 2854 1062 2451 
L 1062 2931 
L 1018 2944 
C 691 2822 474 2752 122 2656 
L 122 2547 
z
" transform="scale(0.015625)"/>
      <path id="NimbusRomNo9L-Regu-2" d="M 198 2669 
L 634 2669 
L 634 566 
C 634 148 563 64 205 64 
L 205 -38 
L 1613 -38 
L 1613 58 
C 1254 84 1171 175 1171 532 
L 1171 2669 
L 1722 2669 
C 2336 2669 2368 2650 2368 2305 
L 2368 591 
C 2368 149 2323 90 1926 58 
L 1926 -38 
L 3334 -38 
L 3334 58 
C 2976 90 2906 175 2906 590 
L 2906 2289 
C 2906 2431 2906 2581 2918 2924 
L 2893 2943 
C 2611 2899 2426 2880 2170 2880 
L 1165 2880 
L 1165 3151 
C 1165 3429 1184 3624 1216 3732 
C 1306 4003 1555 4192 1843 4192 
C 2022 4192 2144 4110 2298 3895 
C 2419 3726 2502 3663 2611 3663 
C 2746 3663 2842 3770 2842 3909 
C 2842 4175 2522 4352 2029 4352 
C 1542 4352 1171 4188 941 3878 
C 749 3619 678 3385 640 2880 
L 198 2880 
L 198 2669 
z
" transform="scale(0.015625)"/>
     </defs>
     <use xlink:href="#NimbusRomNo9L-Regu-48" transform="scale(0.996264)"/>
     <use xlink:href="#NimbusRomNo9L-Regu-6f" transform="translate(71.929985 0) scale(0.996264)"/>
     <use xlink:href="#NimbusRomNo9L-Regu-6d" transform="translate(121.743185 0) scale(0.996264)"/>
     <use xlink:href="#NimbusRomNo9L-Regu-6f" transform="translate(199.251555 0) scale(0.996264)"/>
     <use xlink:href="#NimbusRomNo9L-Regu-2" transform="translate(249.064756 0) scale(0.996264)"/>
     <use xlink:href="#NimbusRomNo9L-Regu-6c" transform="translate(304.456433 0) scale(0.996264)"/>
     <use xlink:href="#NimbusRomNo9L-Regu-69" transform="translate(332.151603 0) scale(0.996264)"/>
     <use xlink:href="#NimbusRomNo9L-Regu-61" transform="translate(359.846772 0) scale(0.996264)"/>
     <use xlink:href="#NimbusRomNo9L-Regu-3a" transform="translate(404.080341 0) scale(0.996264)"/>
     <use xlink:href="#NimbusRomNo9L-Regu-30" transform="translate(462.659543 0) scale(0.996264)"/>
     <use xlink:href="#NimbusRomNo9L-Regu-25" transform="translate(512.472743 0) scale(0.996264)"/>
    </g>
   </g>
   <g id="legend_1">
    <g id="line2d_111">
     <path d="M 137.938854 103.385846 
L 144.938854 103.385846 
L 151.938854 103.385846 
" style="fill: none; stroke: #dedeee; stroke-linecap: square"/>
    </g>
    <g id="text_16">
     <!-- C. Coop -->
     <g transform="translate(157.538854 105.835846) scale(0.07 -0.07)">
      <defs>
       <path id="NimbusRomNo9L-Regu-43" d="M 3968 2906 
L 3910 4352 
L 3776 4352 
C 3738 4218 3635 4141 3507 4141 
C 3450 4141 3354 4160 3258 4199 
C 2944 4301 2624 4352 2323 4352 
C 1798 4352 1267 4154 870 3802 
C 422 3405 179 2810 179 2106 
C 179 1511 371 960 698 596 
C 1082 180 1670 -64 2304 -64 
C 3027 -64 3661 231 4051 749 
L 3936 864 
C 3462 410 3040 218 2509 218 
C 2106 218 1747 346 1472 589 
C 1120 903 922 1479 922 2189 
C 922 3348 1517 4096 2445 4096 
C 2810 4096 3142 3962 3398 3706 
C 3603 3501 3699 3322 3821 2906 
L 3968 2906 
z
" transform="scale(0.015625)"/>
       <path id="NimbusRomNo9L-Regu-2e" d="M 800 646 
C 608 646 448 480 448 281 
C 448 96 608 -64 794 -64 
C 992 -64 1158 96 1158 281 
C 1158 480 992 646 800 646 
z
" transform="scale(0.015625)"/>
      </defs>
      <use xlink:href="#NimbusRomNo9L-Regu-43" transform="scale(0.996264)"/>
      <use xlink:href="#NimbusRomNo9L-Regu-2e" transform="translate(66.450031 0) scale(0.996264)"/>
      <use xlink:href="#NimbusRomNo9L-Regu-43" transform="translate(116.263232 0) scale(0.996264)"/>
      <use xlink:href="#NimbusRomNo9L-Regu-6f" transform="translate(182.713263 0) scale(0.996264)"/>
      <use xlink:href="#NimbusRomNo9L-Regu-6f" transform="translate(232.526463 0) scale(0.996264)"/>
      <use xlink:href="#NimbusRomNo9L-Regu-70" transform="translate(282.339664 0) scale(0.996264)"/>
     </g>
    </g>
    <g id="line2d_112">
     <path d="M 137.938854 113.295626 
L 144.938854 113.295626 
L 151.938854 113.295626 
" style="fill: none; stroke-dasharray: 3.7,1.6; stroke-dashoffset: 0; stroke: #9b9aca"/>
    </g>
    <g id="text_17">
     <!-- C. no Coop -->
     <g transform="translate(157.538854 115.745626) scale(0.07 -0.07)">
      <use xlink:href="#NimbusRomNo9L-Regu-43" transform="scale(0.996264)"/>
      <use xlink:href="#NimbusRomNo9L-Regu-2e" transform="translate(66.450031 0) scale(0.996264)"/>
      <use xlink:href="#NimbusRomNo9L-Regu-6e" transform="translate(116.263232 0) scale(0.996264)"/>
      <use xlink:href="#NimbusRomNo9L-Regu-6f" transform="translate(166.076432 0) scale(0.996264)"/>
      <use xlink:href="#NimbusRomNo9L-Regu-43" transform="translate(240.796233 0) scale(0.996264)"/>
      <use xlink:href="#NimbusRomNo9L-Regu-6f" transform="translate(307.246264 0) scale(0.996264)"/>
      <use xlink:href="#NimbusRomNo9L-Regu-6f" transform="translate(357.059465 0) scale(0.996264)"/>
      <use xlink:href="#NimbusRomNo9L-Regu-70" transform="translate(406.872665 0) scale(0.996264)"/>
     </g>
    </g>
    <g id="line2d_113">
     <path d="M 137.938854 123.205406 
L 144.938854 123.205406 
L 151.938854 123.205406 
" style="fill: none; stroke-dasharray: 1,1.65; stroke-dashoffset: 0; stroke: #7976b8"/>
    </g>
    <g id="text_18">
     <!-- P. Honrado -->
     <g transform="translate(157.538854 125.655406) scale(0.07 -0.07)">
      <use xlink:href="#NimbusRomNo9L-Regu-50" transform="scale(0.996264)"/>
      <use xlink:href="#NimbusRomNo9L-Regu-2e" transform="translate(44.333232 0) scale(0.996264)"/>
      <use xlink:href="#NimbusRomNo9L-Regu-48" transform="translate(94.146432 0) scale(0.996264)"/>
      <use xlink:href="#NimbusRomNo9L-Regu-6f" transform="translate(166.076417 0) scale(0.996264)"/>
      <use xlink:href="#NimbusRomNo9L-Regu-6e" transform="translate(215.889617 0) scale(0.996264)"/>
      <use xlink:href="#NimbusRomNo9L-Regu-72" transform="translate(265.702818 0) scale(0.996264)"/>
      <use xlink:href="#NimbusRomNo9L-Regu-61" transform="translate(298.878048 0) scale(0.996264)"/>
      <use xlink:href="#NimbusRomNo9L-Regu-64" transform="translate(343.111616 0) scale(0.996264)"/>
      <use xlink:href="#NimbusRomNo9L-Regu-6f" transform="translate(392.924817 0) scale(0.996264)"/>
     </g>
    </g>
    <g id="line2d_114">
     <path d="M 137.938854 133.115186 
L 144.938854 133.115186 
L 151.938854 133.115186 
" style="fill: none; stroke-dasharray: 6.4,1.6,1,1.6; stroke-dashoffset: 0; stroke: #201f3d"/>
    </g>
    <g id="text_19">
     <!-- P. Corrupto -->
     <g transform="translate(157.538854 135.565186) scale(0.07 -0.07)">
      <use xlink:href="#NimbusRomNo9L-Regu-50" transform="scale(0.996264)"/>
      <use xlink:href="#NimbusRomNo9L-Regu-2e" transform="translate(44.333232 0) scale(0.996264)"/>
      <use xlink:href="#NimbusRomNo9L-Regu-43" transform="translate(94.146432 0) scale(0.996264)"/>
      <use xlink:href="#NimbusRomNo9L-Regu-6f" transform="translate(160.596463 0) scale(0.996264)"/>
      <use xlink:href="#NimbusRomNo9L-Regu-72" transform="translate(210.409664 0) scale(0.996264)"/>
      <use xlink:href="#NimbusRomNo9L-Regu-72" transform="translate(243.584893 0) scale(0.996264)"/>
      <use xlink:href="#NimbusRomNo9L-Regu-75" transform="translate(276.760123 0) scale(0.996264)"/>
      <use xlink:href="#NimbusRomNo9L-Regu-70" transform="translate(326.573324 0) scale(0.996264)"/>
      <use xlink:href="#NimbusRomNo9L-Regu-74" transform="translate(376.386524 0) scale(0.996264)"/>
      <use xlink:href="#NimbusRomNo9L-Regu-6f" transform="translate(404.081694 0) scale(0.996264)"/>
     </g>
    </g>
   </g>
  </g>
 </g>
 <defs>
  <clipPath id="pdf2411c78a">
   <rect x="28.406864" y="35.845406" width="167.4" height="166.32"/>
  </clipPath>
 </defs>
</svg>
