<?xml version="1.0" encoding="utf-8" standalone="no"?>
<!DOCTYPE svg PUBLIC "-//W3C//DTD SVG 1.1//EN"
  "http://www.w3.org/Graphics/SVG/1.1/DTD/svg11.dtd">
<svg xmlns:xlink="http://www.w3.org/1999/xlink" width="169.252855pt" height="178.093216pt" viewBox="0 0 169.252855 178.093216" xmlns="http://www.w3.org/2000/svg" version="1.1">
 <metadata>
  <rdf:RDF xmlns:dc="http://purl.org/dc/elements/1.1/" xmlns:cc="http://creativecommons.org/ns#" xmlns:rdf="http://www.w3.org/1999/02/22-rdf-syntax-ns#">
   <cc:Work>
    <dc:type rdf:resource="http://purl.org/dc/dcmitype/StillImage"/>
    <dc:date>2025-06-14T04:34:05.085222</dc:date>
    <dc:format>image/svg+xml</dc:format>
    <dc:creator>
     <cc:Agent>
      <dc:title>Matplotlib v3.10.1, https://matplotlib.org/</dc:title>
     </cc:Agent>
    </dc:creator>
   </cc:Work>
  </rdf:RDF>
 </metadata>
 <defs>
  <style type="text/css">*{stroke-linejoin: round; stroke-linecap: butt}</style>
 </defs>
 <g id="figure_1">
  <g id="patch_1">
   <path d="M 0 178.093216 
L 169.252855 178.093216 
L 169.252855 -0 
L 0 -0 
z
" style="fill: #ffffff"/>
  </g>
  <g id="axes_1">
   <g id="LineCollection_1">
    <path d="M 80.017688 97.60985 
L 74.435053 157.629327 
" clip-path="url(#pecdd53dc69)" style="fill: none; stroke: #201f3d; stroke-opacity: 0.6; stroke-width: 0.4"/>
    <path d="M 80.017688 97.60985 
L 67.219104 129.61452 
" clip-path="url(#pecdd53dc69)" style="fill: none; stroke: #201f3d; stroke-opacity: 0.6; stroke-width: 0.4"/>
    <path d="M 80.017688 97.60985 
L 60.090507 73.791819 
" clip-path="url(#pecdd53dc69)" style="fill: none; stroke: #201f3d; stroke-opacity: 0.6; stroke-width: 0.4"/>
    <path d="M 80.017688 97.60985 
L 76.744298 75.858553 
" clip-path="url(#pecdd53dc69)" style="fill: none; stroke: #201f3d; stroke-opacity: 0.6; stroke-width: 0.4"/>
    <path d="M 80.017688 97.60985 
L 73.656342 93.148926 
" clip-path="url(#pecdd53dc69)" style="fill: none; stroke: #201f3d; stroke-opacity: 0.6; stroke-width: 0.4"/>
    <path d="M 80.017688 97.60985 
L 74.905642 90.37588 
" clip-path="url(#pecdd53dc69)" style="fill: none; stroke: #201f3d; stroke-opacity: 0.6; stroke-width: 0.4"/>
    <path d="M 80.017688 97.60985 
L 36.250804 75.502899 
" clip-path="url(#pecdd53dc69)" style="fill: none; stroke: #201f3d; stroke-opacity: 0.6; stroke-width: 0.4"/>
    <path d="M 80.017688 97.60985 
L 97.987059 78.362791 
" clip-path="url(#pecdd53dc69)" style="fill: none; stroke: #201f3d; stroke-opacity: 0.6; stroke-width: 0.4"/>
    <path d="M 80.017688 97.60985 
L 52.819294 106.324549 
" clip-path="url(#pecdd53dc69)" style="fill: none; stroke: #201f3d; stroke-opacity: 0.6; stroke-width: 0.4"/>
    <path d="M 80.017688 97.60985 
L 67.518662 144.537688 
" clip-path="url(#pecdd53dc69)" style="fill: none; stroke: #201f3d; stroke-opacity: 0.6; stroke-width: 0.4"/>
    <path d="M 80.017688 97.60985 
L 73.829044 85.423485 
" clip-path="url(#pecdd53dc69)" style="fill: none; stroke: #201f3d; stroke-opacity: 0.6; stroke-width: 0.4"/>
    <path d="M 80.017688 97.60985 
L 47.302364 77.738112 
" clip-path="url(#pecdd53dc69)" style="fill: none; stroke: #201f3d; stroke-opacity: 0.6; stroke-width: 0.4"/>
    <path d="M 80.017688 97.60985 
L 77.730119 105.299487 
" clip-path="url(#pecdd53dc69)" style="fill: none; stroke: #201f3d; stroke-opacity: 0.6; stroke-width: 0.4"/>
    <path d="M 80.017688 97.60985 
L 80.298898 92.453676 
" clip-path="url(#pecdd53dc69)" style="fill: none; stroke: #201f3d; stroke-opacity: 0.6; stroke-width: 0.4"/>
    <path d="M 80.017688 97.60985 
L 83.027148 104.61513 
" clip-path="url(#pecdd53dc69)" style="fill: none; stroke: #201f3d; stroke-opacity: 0.6; stroke-width: 0.4"/>
    <path d="M 80.017688 97.60985 
L 66.802438 95.880533 
" clip-path="url(#pecdd53dc69)" style="fill: none; stroke: #201f3d; stroke-opacity: 0.6; stroke-width: 0.4"/>
    <path d="M 80.017688 97.60985 
L 87.999392 94.265473 
" clip-path="url(#pecdd53dc69)" style="fill: none; stroke: #201f3d; stroke-opacity: 0.6; stroke-width: 0.4"/>
    <path d="M 80.017688 97.60985 
L 85.675012 78.657511 
" clip-path="url(#pecdd53dc69)" style="fill: none; stroke: #201f3d; stroke-opacity: 0.6; stroke-width: 0.4"/>
    <path d="M 80.017688 97.60985 
L 80.410239 101.621846 
" clip-path="url(#pecdd53dc69)" style="fill: none; stroke: #201f3d; stroke-opacity: 0.6; stroke-width: 0.4"/>
    <path d="M 80.017688 97.60985 
L 91.40326 91.006255 
" clip-path="url(#pecdd53dc69)" style="fill: none; stroke: #201f3d; stroke-opacity: 0.6; stroke-width: 0.4"/>
    <path d="M 80.017688 97.60985 
L 83.146984 85.480147 
" clip-path="url(#pecdd53dc69)" style="fill: none; stroke: #201f3d; stroke-opacity: 0.6; stroke-width: 0.4"/>
    <path d="M 80.017688 97.60985 
L 80.330567 84.539254 
" clip-path="url(#pecdd53dc69)" style="fill: none; stroke: #201f3d; stroke-opacity: 0.6; stroke-width: 0.4"/>
    <path d="M 80.017688 97.60985 
L 75.102689 100.422792 
" clip-path="url(#pecdd53dc69)" style="fill: none; stroke: #201f3d; stroke-opacity: 0.6; stroke-width: 0.4"/>
    <path d="M 80.017688 97.60985 
L 82.919258 81.695832 
" clip-path="url(#pecdd53dc69)" style="fill: none; stroke: #201f3d; stroke-opacity: 0.6; stroke-width: 0.4"/>
    <path d="M 80.017688 97.60985 
L 91.047898 82.551757 
" clip-path="url(#pecdd53dc69)" style="fill: none; stroke: #201f3d; stroke-opacity: 0.6; stroke-width: 0.4"/>
    <path d="M 80.017688 97.60985 
L 85.850082 97.819295 
" clip-path="url(#pecdd53dc69)" style="fill: none; stroke: #201f3d; stroke-opacity: 0.6; stroke-width: 0.4"/>
    <path d="M 80.017688 97.60985 
L 86.223029 83.660329 
" clip-path="url(#pecdd53dc69)" style="fill: none; stroke: #201f3d; stroke-opacity: 0.6; stroke-width: 0.4"/>
    <path d="M 80.017688 97.60985 
L 71.833457 88.050631 
" clip-path="url(#pecdd53dc69)" style="fill: none; stroke: #201f3d; stroke-opacity: 0.6; stroke-width: 0.4"/>
    <path d="M 80.017688 97.60985 
L 88.214092 88.808787 
" clip-path="url(#pecdd53dc69)" style="fill: none; stroke: #201f3d; stroke-opacity: 0.6; stroke-width: 0.4"/>
    <path d="M 80.017688 97.60985 
L 85.697772 94.344627 
" clip-path="url(#pecdd53dc69)" style="fill: none; stroke: #201f3d; stroke-opacity: 0.6; stroke-width: 0.4"/>
    <path d="M 80.017688 97.60985 
L 84.149957 92.223029 
" clip-path="url(#pecdd53dc69)" style="fill: none; stroke: #201f3d; stroke-opacity: 0.6; stroke-width: 0.4"/>
    <path d="M 80.017688 97.60985 
L 77.123102 100.838641 
" clip-path="url(#pecdd53dc69)" style="fill: none; stroke: #201f3d; stroke-opacity: 0.6; stroke-width: 0.4"/>
    <path d="M 80.017688 97.60985 
L 73.480414 78.511983 
" clip-path="url(#pecdd53dc69)" style="fill: none; stroke: #201f3d; stroke-opacity: 0.6; stroke-width: 0.4"/>
    <path d="M 80.017688 97.60985 
L 87.808329 99.809396 
" clip-path="url(#pecdd53dc69)" style="fill: none; stroke: #201f3d; stroke-opacity: 0.6; stroke-width: 0.4"/>
    <path d="M 80.017688 97.60985 
L 86.003019 85.151196 
" clip-path="url(#pecdd53dc69)" style="fill: none; stroke: #201f3d; stroke-opacity: 0.6; stroke-width: 0.4"/>
    <path d="M 80.017688 97.60985 
L 74.426618 104.07286 
" clip-path="url(#pecdd53dc69)" style="fill: none; stroke: #201f3d; stroke-opacity: 0.6; stroke-width: 0.4"/>
    <path d="M 80.017688 97.60985 
L 83.180013 99.571063 
" clip-path="url(#pecdd53dc69)" style="fill: none; stroke: #201f3d; stroke-opacity: 0.6; stroke-width: 0.4"/>
    <path d="M 80.017688 97.60985 
L 111.96293 101.272392 
" clip-path="url(#pecdd53dc69)" style="fill: none; stroke: #201f3d; stroke-opacity: 0.6; stroke-width: 0.4"/>
    <path d="M 80.017688 97.60985 
L 85.212273 101.36512 
" clip-path="url(#pecdd53dc69)" style="fill: none; stroke: #201f3d; stroke-opacity: 0.6; stroke-width: 0.4"/>
    <path d="M 80.017688 97.60985 
L 69.428411 100.27131 
" clip-path="url(#pecdd53dc69)" style="fill: none; stroke: #201f3d; stroke-opacity: 0.6; stroke-width: 0.4"/>
    <path d="M 80.017688 97.60985 
L 72.574048 100.468955 
" clip-path="url(#pecdd53dc69)" style="fill: none; stroke: #201f3d; stroke-opacity: 0.6; stroke-width: 0.4"/>
    <path d="M 80.017688 97.60985 
L 71.06939 96.873461 
" clip-path="url(#pecdd53dc69)" style="fill: none; stroke: #201f3d; stroke-opacity: 0.6; stroke-width: 0.4"/>
    <path d="M 80.017688 97.60985 
L 72.831427 87.105728 
" clip-path="url(#pecdd53dc69)" style="fill: none; stroke: #201f3d; stroke-opacity: 0.6; stroke-width: 0.4"/>
    <path d="M 80.017688 97.60985 
L 71.639352 93.820514 
" clip-path="url(#pecdd53dc69)" style="fill: none; stroke: #201f3d; stroke-opacity: 0.6; stroke-width: 0.4"/>
    <path d="M 80.017688 97.60985 
L 80.840569 104.182534 
" clip-path="url(#pecdd53dc69)" style="fill: none; stroke: #201f3d; stroke-opacity: 0.6; stroke-width: 0.4"/>
    <path d="M 80.017688 97.60985 
L 74.158348 95.408157 
" clip-path="url(#pecdd53dc69)" style="fill: none; stroke: #201f3d; stroke-opacity: 0.6; stroke-width: 0.4"/>
    <path d="M 80.017688 97.60985 
L 75.373521 98.47956 
" clip-path="url(#pecdd53dc69)" style="fill: none; stroke: #201f3d; stroke-opacity: 0.6; stroke-width: 0.4"/>
    <path d="M 80.017688 97.60985 
L 75.144317 92.094761 
" clip-path="url(#pecdd53dc69)" style="fill: none; stroke: #201f3d; stroke-opacity: 0.6; stroke-width: 0.4"/>
    <path d="M 80.017688 97.60985 
L 67.360563 91.720325 
" clip-path="url(#pecdd53dc69)" style="fill: none; stroke: #201f3d; stroke-opacity: 0.6; stroke-width: 0.4"/>
    <path d="M 80.017688 97.60985 
L 73.09663 102.077006 
" clip-path="url(#pecdd53dc69)" style="fill: none; stroke: #201f3d; stroke-opacity: 0.6; stroke-width: 0.4"/>
    <path d="M 80.017688 97.60985 
L 90.04398 90.421899 
" clip-path="url(#pecdd53dc69)" style="fill: none; stroke: #201f3d; stroke-opacity: 0.6; stroke-width: 0.4"/>
    <path d="M 80.017688 97.60985 
L 84.129783 97.350785 
" clip-path="url(#pecdd53dc69)" style="fill: none; stroke: #201f3d; stroke-opacity: 0.6; stroke-width: 0.4"/>
    <path d="M 80.017688 97.60985 
L 79.944121 90.120816 
" clip-path="url(#pecdd53dc69)" style="fill: none; stroke: #201f3d; stroke-opacity: 0.6; stroke-width: 0.4"/>
    <path d="M 80.017688 97.60985 
L 84.659667 90.098932 
" clip-path="url(#pecdd53dc69)" style="fill: none; stroke: #201f3d; stroke-opacity: 0.6; stroke-width: 0.4"/>
    <path d="M 80.017688 97.60985 
L 72.048235 98.912037 
" clip-path="url(#pecdd53dc69)" style="fill: none; stroke: #201f3d; stroke-opacity: 0.6; stroke-width: 0.4"/>
    <path d="M 80.017688 97.60985 
L 86.818474 92.485697 
" clip-path="url(#pecdd53dc69)" style="fill: none; stroke: #201f3d; stroke-opacity: 0.6; stroke-width: 0.4"/>
    <path d="M 80.017688 97.60985 
L 75.862497 96.189165 
" clip-path="url(#pecdd53dc69)" style="fill: none; stroke: #201f3d; stroke-opacity: 0.6; stroke-width: 0.4"/>
    <path d="M 80.017688 97.60985 
L 77.681887 87.991231 
" clip-path="url(#pecdd53dc69)" style="fill: none; stroke: #201f3d; stroke-opacity: 0.6; stroke-width: 0.4"/>
    <path d="M 80.017688 97.60985 
L 81.381513 89.189288 
" clip-path="url(#pecdd53dc69)" style="fill: none; stroke: #201f3d; stroke-opacity: 0.6; stroke-width: 0.4"/>
    <path d="M 80.017688 97.60985 
L 76.934597 90.756493 
" clip-path="url(#pecdd53dc69)" style="fill: none; stroke: #201f3d; stroke-opacity: 0.6; stroke-width: 0.4"/>
    <path d="M 80.017688 97.60985 
L 78.226682 91.950143 
" clip-path="url(#pecdd53dc69)" style="fill: none; stroke: #201f3d; stroke-opacity: 0.6; stroke-width: 0.4"/>
    <path d="M 80.017688 97.60985 
L 86.142819 99.869288 
" clip-path="url(#pecdd53dc69)" style="fill: none; stroke: #201f3d; stroke-opacity: 0.6; stroke-width: 0.4"/>
    <path d="M 80.017688 97.60985 
L 84.568344 92.36538 
" clip-path="url(#pecdd53dc69)" style="fill: none; stroke: #201f3d; stroke-opacity: 0.6; stroke-width: 0.4"/>
    <path d="M 80.017688 97.60985 
L 79.763041 88.459682 
" clip-path="url(#pecdd53dc69)" style="fill: none; stroke: #201f3d; stroke-opacity: 0.6; stroke-width: 0.4"/>
    <path d="M 80.017688 97.60985 
L 88.197369 95.9638 
" clip-path="url(#pecdd53dc69)" style="fill: none; stroke: #201f3d; stroke-opacity: 0.6; stroke-width: 0.4"/>
    <path d="M 80.017688 97.60985 
L 76.287252 104.514518 
" clip-path="url(#pecdd53dc69)" style="fill: none; stroke: #201f3d; stroke-opacity: 0.6; stroke-width: 0.4"/>
    <path d="M 80.017688 97.60985 
L 78.344583 103.067115 
" clip-path="url(#pecdd53dc69)" style="fill: none; stroke: #201f3d; stroke-opacity: 0.6; stroke-width: 0.4"/>
    <path d="M 80.017688 97.60985 
L 82.867187 90.018145 
" clip-path="url(#pecdd53dc69)" style="fill: none; stroke: #201f3d; stroke-opacity: 0.6; stroke-width: 0.4"/>
    <path d="M 80.017688 97.60985 
L 72.368659 95.260317 
" clip-path="url(#pecdd53dc69)" style="fill: none; stroke: #201f3d; stroke-opacity: 0.6; stroke-width: 0.4"/>
    <path d="M 80.017688 97.60985 
L 85.068579 103.409815 
" clip-path="url(#pecdd53dc69)" style="fill: none; stroke: #201f3d; stroke-opacity: 0.6; stroke-width: 0.4"/>
    <path d="M 80.017688 97.60985 
L 72.93194 91.575737 
" clip-path="url(#pecdd53dc69)" style="fill: none; stroke: #201f3d; stroke-opacity: 0.6; stroke-width: 0.4"/>
    <path d="M 80.017688 97.60985 
L 85.845395 95.16478 
" clip-path="url(#pecdd53dc69)" style="fill: none; stroke: #201f3d; stroke-opacity: 0.6; stroke-width: 0.4"/>
    <path d="M 80.017688 97.60985 
L 76.145549 88.995914 
" clip-path="url(#pecdd53dc69)" style="fill: none; stroke: #201f3d; stroke-opacity: 0.6; stroke-width: 0.4"/>
    <path d="M 80.017688 97.60985 
L 81.944234 95.092397 
" clip-path="url(#pecdd53dc69)" style="fill: none; stroke: #201f3d; stroke-opacity: 0.6; stroke-width: 0.4"/>
    <path d="M 80.017688 97.60985 
L 78.14956 94.581299 
" clip-path="url(#pecdd53dc69)" style="fill: none; stroke: #201f3d; stroke-opacity: 0.6; stroke-width: 0.4"/>
    <path d="M 80.017688 97.60985 
L 75.861766 93.63929 
" clip-path="url(#pecdd53dc69)" style="fill: none; stroke: #201f3d; stroke-opacity: 0.6; stroke-width: 0.4"/>
    <path d="M 80.017688 97.60985 
L 82.899333 102.385757 
" clip-path="url(#pecdd53dc69)" style="fill: none; stroke: #201f3d; stroke-opacity: 0.6; stroke-width: 0.4"/>
    <path d="M 80.017688 97.60985 
L 78.175853 89.242524 
" clip-path="url(#pecdd53dc69)" style="fill: none; stroke: #201f3d; stroke-opacity: 0.6; stroke-width: 0.4"/>
    <path d="M 80.017688 97.60985 
L 88.212361 97.684017 
" clip-path="url(#pecdd53dc69)" style="fill: none; stroke: #201f3d; stroke-opacity: 0.6; stroke-width: 0.4"/>
    <path d="M 80.017688 97.60985 
L 82.172832 92.418143 
" clip-path="url(#pecdd53dc69)" style="fill: none; stroke: #201f3d; stroke-opacity: 0.6; stroke-width: 0.4"/>
    <path d="M 80.017688 97.60985 
L 75.262529 102.574117 
" clip-path="url(#pecdd53dc69)" style="fill: none; stroke: #201f3d; stroke-opacity: 0.6; stroke-width: 0.4"/>
    <path d="M 80.017688 97.60985 
L 73.004979 97.373746 
" clip-path="url(#pecdd53dc69)" style="fill: none; stroke: #201f3d; stroke-opacity: 0.6; stroke-width: 0.4"/>
    <path d="M 80.017688 97.60985 
L 79.606268 105.433261 
" clip-path="url(#pecdd53dc69)" style="fill: none; stroke: #201f3d; stroke-opacity: 0.6; stroke-width: 0.4"/>
    <path d="M 74.435053 157.629327 
L 71.023962 157.417568 
" clip-path="url(#pecdd53dc69)" style="fill: none; stroke: #201f3d; stroke-opacity: 0.6; stroke-width: 0.4"/>
    <path d="M 74.435053 157.629327 
L 70.463512 152.638328 
" clip-path="url(#pecdd53dc69)" style="fill: none; stroke: #201f3d; stroke-opacity: 0.6; stroke-width: 0.4"/>
    <path d="M 74.435053 157.629327 
L 76.321916 155.364556 
" clip-path="url(#pecdd53dc69)" style="fill: none; stroke: #201f3d; stroke-opacity: 0.6; stroke-width: 0.4"/>
    <path d="M 74.435053 157.629327 
L 73.951755 162.78328 
" clip-path="url(#pecdd53dc69)" style="fill: none; stroke: #201f3d; stroke-opacity: 0.6; stroke-width: 0.4"/>
    <path d="M 74.435053 157.629327 
L 71.306152 154.508046 
" clip-path="url(#pecdd53dc69)" style="fill: none; stroke: #201f3d; stroke-opacity: 0.6; stroke-width: 0.4"/>
    <path d="M 74.435053 157.629327 
L 62.297654 155.857135 
" clip-path="url(#pecdd53dc69)" style="fill: none; stroke: #201f3d; stroke-opacity: 0.6; stroke-width: 0.4"/>
    <path d="M 74.435053 157.629327 
L 74.919127 152.969759 
" clip-path="url(#pecdd53dc69)" style="fill: none; stroke: #201f3d; stroke-opacity: 0.6; stroke-width: 0.4"/>
    <path d="M 74.435053 157.629327 
L 73.101069 153.8702 
" clip-path="url(#pecdd53dc69)" style="fill: none; stroke: #201f3d; stroke-opacity: 0.6; stroke-width: 0.4"/>
    <path d="M 74.435053 157.629327 
L 71.612514 160.483229 
" clip-path="url(#pecdd53dc69)" style="fill: none; stroke: #201f3d; stroke-opacity: 0.6; stroke-width: 0.4"/>
    <path d="M 74.435053 157.629327 
L 69.337351 155.406204 
" clip-path="url(#pecdd53dc69)" style="fill: none; stroke: #201f3d; stroke-opacity: 0.6; stroke-width: 0.4"/>
    <path d="M 74.435053 157.629327 
L 70.51567 162.016067 
" clip-path="url(#pecdd53dc69)" style="fill: none; stroke: #201f3d; stroke-opacity: 0.6; stroke-width: 0.4"/>
    <path d="M 67.219104 129.61452 
L 60.98055 125.336107 
" clip-path="url(#pecdd53dc69)" style="fill: none; stroke: #201f3d; stroke-opacity: 0.6; stroke-width: 0.4"/>
    <path d="M 67.219104 129.61452 
L 59.720473 126.998554 
" clip-path="url(#pecdd53dc69)" style="fill: none; stroke: #201f3d; stroke-opacity: 0.6; stroke-width: 0.4"/>
    <path d="M 67.219104 129.61452 
L 58.957961 128.848684 
" clip-path="url(#pecdd53dc69)" style="fill: none; stroke: #201f3d; stroke-opacity: 0.6; stroke-width: 0.4"/>
    <path d="M 67.219104 129.61452 
L 63.085167 128.953983 
" clip-path="url(#pecdd53dc69)" style="fill: none; stroke: #201f3d; stroke-opacity: 0.6; stroke-width: 0.4"/>
    <path d="M 67.219104 129.61452 
L 60.380746 132.143455 
" clip-path="url(#pecdd53dc69)" style="fill: none; stroke: #201f3d; stroke-opacity: 0.6; stroke-width: 0.4"/>
    <path d="M 67.219104 129.61452 
L 60.270726 130.21366 
" clip-path="url(#pecdd53dc69)" style="fill: none; stroke: #201f3d; stroke-opacity: 0.6; stroke-width: 0.4"/>
    <path d="M 67.219104 129.61452 
L 62.681916 126.666419 
" clip-path="url(#pecdd53dc69)" style="fill: none; stroke: #201f3d; stroke-opacity: 0.6; stroke-width: 0.4"/>
    <path d="M 67.219104 129.61452 
L 63.51388 124.988244 
" clip-path="url(#pecdd53dc69)" style="fill: none; stroke: #201f3d; stroke-opacity: 0.6; stroke-width: 0.4"/>
    <path d="M 67.219104 129.61452 
L 61.392229 127.970818 
" clip-path="url(#pecdd53dc69)" style="fill: none; stroke: #201f3d; stroke-opacity: 0.6; stroke-width: 0.4"/>
    <path d="M 67.219104 129.61452 
L 62.457926 131.070864 
" clip-path="url(#pecdd53dc69)" style="fill: none; stroke: #201f3d; stroke-opacity: 0.6; stroke-width: 0.4"/>
    <path d="M 60.090507 73.791819 
L 50.783583 64.628682 
" clip-path="url(#pecdd53dc69)" style="fill: none; stroke: #201f3d; stroke-opacity: 0.6; stroke-width: 0.4"/>
    <path d="M 60.090507 73.791819 
L 56.106632 64.917983 
" clip-path="url(#pecdd53dc69)" style="fill: none; stroke: #201f3d; stroke-opacity: 0.6; stroke-width: 0.4"/>
    <path d="M 60.090507 73.791819 
L 53.184432 62.807665 
" clip-path="url(#pecdd53dc69)" style="fill: none; stroke: #201f3d; stroke-opacity: 0.6; stroke-width: 0.4"/>
    <path d="M 60.090507 73.791819 
L 57.651749 64.47739 
" clip-path="url(#pecdd53dc69)" style="fill: none; stroke: #201f3d; stroke-opacity: 0.6; stroke-width: 0.4"/>
    <path d="M 60.090507 73.791819 
L 54.595316 67.585188 
" clip-path="url(#pecdd53dc69)" style="fill: none; stroke: #201f3d; stroke-opacity: 0.6; stroke-width: 0.4"/>
    <path d="M 60.090507 73.791819 
L 56.008829 66.477741 
" clip-path="url(#pecdd53dc69)" style="fill: none; stroke: #201f3d; stroke-opacity: 0.6; stroke-width: 0.4"/>
    <path d="M 76.744298 75.858553 
L 73.39708 66.746966 
" clip-path="url(#pecdd53dc69)" style="fill: none; stroke: #201f3d; stroke-opacity: 0.6; stroke-width: 0.4"/>
    <path d="M 76.744298 75.858553 
L 75.182087 66.079825 
" clip-path="url(#pecdd53dc69)" style="fill: none; stroke: #201f3d; stroke-opacity: 0.6; stroke-width: 0.4"/>
    <path d="M 61.61094 142.594818 
L 67.518662 144.537688 
" clip-path="url(#pecdd53dc69)" style="fill: none; stroke: #201f3d; stroke-opacity: 0.6; stroke-width: 0.4"/>
    <path d="M 117.904706 95.726892 
L 111.96293 101.272392 
" clip-path="url(#pecdd53dc69)" style="fill: none; stroke: #201f3d; stroke-opacity: 0.6; stroke-width: 0.4"/>
    <path d="M 36.250804 75.502899 
L 27.702363 73.873692 
" clip-path="url(#pecdd53dc69)" style="fill: none; stroke: #201f3d; stroke-opacity: 0.6; stroke-width: 0.4"/>
    <path d="M 36.250804 75.502899 
L 26.981799 75.367789 
" clip-path="url(#pecdd53dc69)" style="fill: none; stroke: #201f3d; stroke-opacity: 0.6; stroke-width: 0.4"/>
    <path d="M 36.250804 75.502899 
L 27.924357 77.497793 
" clip-path="url(#pecdd53dc69)" style="fill: none; stroke: #201f3d; stroke-opacity: 0.6; stroke-width: 0.4"/>
    <path d="M 36.250804 75.502899 
L 28.604208 75.626031 
" clip-path="url(#pecdd53dc69)" style="fill: none; stroke: #201f3d; stroke-opacity: 0.6; stroke-width: 0.4"/>
    <path d="M 36.250804 75.502899 
L 27.2032 72.054523 
" clip-path="url(#pecdd53dc69)" style="fill: none; stroke: #201f3d; stroke-opacity: 0.6; stroke-width: 0.4"/>
    <path d="M 36.250804 75.502899 
L 28.734595 72.251624 
" clip-path="url(#pecdd53dc69)" style="fill: none; stroke: #201f3d; stroke-opacity: 0.6; stroke-width: 0.4"/>
    <path d="M 36.250804 75.502899 
L 28.557659 70.339111 
" clip-path="url(#pecdd53dc69)" style="fill: none; stroke: #201f3d; stroke-opacity: 0.6; stroke-width: 0.4"/>
    <path d="M 97.987059 78.362791 
L 105.218012 71.140138 
" clip-path="url(#pecdd53dc69)" style="fill: none; stroke: #201f3d; stroke-opacity: 0.6; stroke-width: 0.4"/>
    <path d="M 97.987059 78.362791 
L 102.432679 68.902537 
" clip-path="url(#pecdd53dc69)" style="fill: none; stroke: #201f3d; stroke-opacity: 0.6; stroke-width: 0.4"/>
    <path d="M 97.987059 78.362791 
L 103.635885 70.458388 
" clip-path="url(#pecdd53dc69)" style="fill: none; stroke: #201f3d; stroke-opacity: 0.6; stroke-width: 0.4"/>
    <path d="M 97.987059 78.362791 
L 104.203957 69.085352 
" clip-path="url(#pecdd53dc69)" style="fill: none; stroke: #201f3d; stroke-opacity: 0.6; stroke-width: 0.4"/>
    <path d="M 52.819294 106.324549 
L 45.272142 104.061395 
" clip-path="url(#pecdd53dc69)" style="fill: none; stroke: #201f3d; stroke-opacity: 0.6; stroke-width: 0.4"/>
    <path d="M 52.819294 106.324549 
L 45.01886 106.230437 
" clip-path="url(#pecdd53dc69)" style="fill: none; stroke: #201f3d; stroke-opacity: 0.6; stroke-width: 0.4"/>
    <path d="M 67.518662 144.537688 
L 65.19459 151.354655 
" clip-path="url(#pecdd53dc69)" style="fill: none; stroke: #201f3d; stroke-opacity: 0.6; stroke-width: 0.4"/>
    <path d="M 67.518662 144.537688 
L 63.911149 148.039357 
" clip-path="url(#pecdd53dc69)" style="fill: none; stroke: #201f3d; stroke-opacity: 0.6; stroke-width: 0.4"/>
    <path d="M 67.518662 144.537688 
L 65.853329 149.631166 
" clip-path="url(#pecdd53dc69)" style="fill: none; stroke: #201f3d; stroke-opacity: 0.6; stroke-width: 0.4"/>
    <path d="M 67.518662 144.537688 
L 62.523653 148.947628 
" clip-path="url(#pecdd53dc69)" style="fill: none; stroke: #201f3d; stroke-opacity: 0.6; stroke-width: 0.4"/>
    <path d="M 67.518662 144.537688 
L 61.848069 146.190289 
" clip-path="url(#pecdd53dc69)" style="fill: none; stroke: #201f3d; stroke-opacity: 0.6; stroke-width: 0.4"/>
    <path d="M 94.174394 81.932126 
L 88.214092 88.808787 
" clip-path="url(#pecdd53dc69)" style="fill: none; stroke: #201f3d; stroke-opacity: 0.6; stroke-width: 0.4"/>
    <path d="M 73.829044 85.423485 
L 69.441511 77.020927 
" clip-path="url(#pecdd53dc69)" style="fill: none; stroke: #201f3d; stroke-opacity: 0.6; stroke-width: 0.4"/>
    <path d="M 47.302364 77.738112 
L 44.137186 70.443852 
" clip-path="url(#pecdd53dc69)" style="fill: none; stroke: #201f3d; stroke-opacity: 0.6; stroke-width: 0.4"/>
    <path d="M 47.302364 77.738112 
L 42.832051 70.749141 
" clip-path="url(#pecdd53dc69)" style="fill: none; stroke: #201f3d; stroke-opacity: 0.6; stroke-width: 0.4"/>
    <path d="M 47.302364 77.738112 
L 42.414495 73.108836 
" clip-path="url(#pecdd53dc69)" style="fill: none; stroke: #201f3d; stroke-opacity: 0.6; stroke-width: 0.4"/>
    <path d="M 47.302364 77.738112 
L 40.089852 76.902448 
" clip-path="url(#pecdd53dc69)" style="fill: none; stroke: #201f3d; stroke-opacity: 0.6; stroke-width: 0.4"/>
    <path d="M 47.302364 77.738112 
L 40.899327 75.358117 
" clip-path="url(#pecdd53dc69)" style="fill: none; stroke: #201f3d; stroke-opacity: 0.6; stroke-width: 0.4"/>
    <path d="M 47.302364 77.738112 
L 41.558366 71.584522 
" clip-path="url(#pecdd53dc69)" style="fill: none; stroke: #201f3d; stroke-opacity: 0.6; stroke-width: 0.4"/>
    <path d="M 47.302364 77.738112 
L 40.566702 73.67411 
" clip-path="url(#pecdd53dc69)" style="fill: none; stroke: #201f3d; stroke-opacity: 0.6; stroke-width: 0.4"/>
    <path d="M 119.470013 98.753448 
L 111.96293 101.272392 
" clip-path="url(#pecdd53dc69)" style="fill: none; stroke: #201f3d; stroke-opacity: 0.6; stroke-width: 0.4"/>
    <path d="M 66.802438 95.880533 
L 59.174126 95.311658 
" clip-path="url(#pecdd53dc69)" style="fill: none; stroke: #201f3d; stroke-opacity: 0.6; stroke-width: 0.4"/>
    <path d="M 66.802438 95.880533 
L 59.191458 93.024644 
" clip-path="url(#pecdd53dc69)" style="fill: none; stroke: #201f3d; stroke-opacity: 0.6; stroke-width: 0.4"/>
    <path d="M 96.872325 74.219523 
L 91.047898 82.551757 
" clip-path="url(#pecdd53dc69)" style="fill: none; stroke: #201f3d; stroke-opacity: 0.6; stroke-width: 0.4"/>
    <path d="M 134.746469 101.362048 
L 142.271055 97.535444 
" clip-path="url(#pecdd53dc69)" style="fill: none; stroke: #201f3d; stroke-opacity: 0.6; stroke-width: 0.4"/>
    <path d="M 62.297654 155.857135 
L 53.369029 154.632045 
" clip-path="url(#pecdd53dc69)" style="fill: none; stroke: #201f3d; stroke-opacity: 0.6; stroke-width: 0.4"/>
    <path d="M 85.675012 78.657511 
L 88.545886 68.546123 
" clip-path="url(#pecdd53dc69)" style="fill: none; stroke: #201f3d; stroke-opacity: 0.6; stroke-width: 0.4"/>
    <path d="M 85.675012 78.657511 
L 89.87499 68.538127 
" clip-path="url(#pecdd53dc69)" style="fill: none; stroke: #201f3d; stroke-opacity: 0.6; stroke-width: 0.4"/>
    <path d="M 85.675012 78.657511 
L 87.136486 68.320296 
" clip-path="url(#pecdd53dc69)" style="fill: none; stroke: #201f3d; stroke-opacity: 0.6; stroke-width: 0.4"/>
    <path d="M 95.333162 73.42522 
L 91.047898 82.551757 
" clip-path="url(#pecdd53dc69)" style="fill: none; stroke: #201f3d; stroke-opacity: 0.6; stroke-width: 0.4"/>
    <path d="M 91.40326 91.006255 
L 98.806066 85.231242 
" clip-path="url(#pecdd53dc69)" style="fill: none; stroke: #201f3d; stroke-opacity: 0.6; stroke-width: 0.4"/>
    <path d="M 83.146984 85.480147 
L 84.63711 76.068037 
" clip-path="url(#pecdd53dc69)" style="fill: none; stroke: #201f3d; stroke-opacity: 0.6; stroke-width: 0.4"/>
    <path d="M 80.330567 84.539254 
L 80.304754 74.862012 
" clip-path="url(#pecdd53dc69)" style="fill: none; stroke: #201f3d; stroke-opacity: 0.6; stroke-width: 0.4"/>
    <path d="M 96.69247 83.973989 
L 90.04398 90.421899 
" clip-path="url(#pecdd53dc69)" style="fill: none; stroke: #201f3d; stroke-opacity: 0.6; stroke-width: 0.4"/>
    <path d="M 89.812479 74.711597 
L 86.003019 85.151196 
" clip-path="url(#pecdd53dc69)" style="fill: none; stroke: #201f3d; stroke-opacity: 0.6; stroke-width: 0.4"/>
    <path d="M 60.494097 86.613707 
L 67.360563 91.720325 
" clip-path="url(#pecdd53dc69)" style="fill: none; stroke: #201f3d; stroke-opacity: 0.6; stroke-width: 0.4"/>
    <path d="M 82.919258 81.695832 
L 85.33857 72.192283 
" clip-path="url(#pecdd53dc69)" style="fill: none; stroke: #201f3d; stroke-opacity: 0.6; stroke-width: 0.4"/>
    <path d="M 82.919258 81.695832 
L 83.136889 71.492893 
" clip-path="url(#pecdd53dc69)" style="fill: none; stroke: #201f3d; stroke-opacity: 0.6; stroke-width: 0.4"/>
    <path d="M 91.047898 82.551757 
L 97.273172 74.262039 
" clip-path="url(#pecdd53dc69)" style="fill: none; stroke: #201f3d; stroke-opacity: 0.6; stroke-width: 0.4"/>
    <path d="M 50.783583 64.628682 
L 44.305614 57.187759 
" clip-path="url(#pecdd53dc69)" style="fill: none; stroke: #201f3d; stroke-opacity: 0.6; stroke-width: 0.4"/>
    <path d="M 86.223029 83.660329 
L 91.106733 75.755639 
" clip-path="url(#pecdd53dc69)" style="fill: none; stroke: #201f3d; stroke-opacity: 0.6; stroke-width: 0.4"/>
    <path d="M 86.223029 83.660329 
L 88.869191 75.092985 
" clip-path="url(#pecdd53dc69)" style="fill: none; stroke: #201f3d; stroke-opacity: 0.6; stroke-width: 0.4"/>
    <path d="M 71.833457 88.050631 
L 65.945351 81.107894 
" clip-path="url(#pecdd53dc69)" style="fill: none; stroke: #201f3d; stroke-opacity: 0.6; stroke-width: 0.4"/>
    <path d="M 68.048107 80.258693 
L 72.831427 87.105728 
" clip-path="url(#pecdd53dc69)" style="fill: none; stroke: #201f3d; stroke-opacity: 0.6; stroke-width: 0.4"/>
    <path d="M 73.480414 78.511983 
L 69.590241 69.849692 
" clip-path="url(#pecdd53dc69)" style="fill: none; stroke: #201f3d; stroke-opacity: 0.6; stroke-width: 0.4"/>
    <path d="M 111.96293 101.272392 
L 118.920406 96.997925 
" clip-path="url(#pecdd53dc69)" style="fill: none; stroke: #201f3d; stroke-opacity: 0.6; stroke-width: 0.4"/>
    <path d="M 69.428411 100.27131 
L 62.02365 100.717955 
" clip-path="url(#pecdd53dc69)" style="fill: none; stroke: #201f3d; stroke-opacity: 0.6; stroke-width: 0.4"/>
    <path d="M 53.184432 62.807665 
L 48.164584 54.584564 
" clip-path="url(#pecdd53dc69)" style="fill: none; stroke: #201f3d; stroke-opacity: 0.6; stroke-width: 0.4"/>
    <path d="M 67.360563 91.720325 
L 59.837232 88.66115 
" clip-path="url(#pecdd53dc69)" style="fill: none; stroke: #201f3d; stroke-opacity: 0.6; stroke-width: 0.4"/>
   </g>
   <g id="PathCollection_1">
    <defs>
     <path id="mf0d1ebe145" d="M 0 1.581139 
C 0.419323 1.581139 0.821528 1.41454 1.118034 1.118034 
C 1.41454 0.821528 1.581139 0.419323 1.581139 0 
C 1.581139 -0.419323 1.41454 -0.821528 1.118034 -1.118034 
C 0.821528 -1.41454 0.419323 -1.581139 0 -1.581139 
C -0.419323 -1.581139 -0.821528 -1.41454 -1.118034 -1.118034 
C -1.41454 -0.821528 -1.581139 -0.419323 -1.581139 0 
C -1.581139 0.419323 -1.41454 0.821528 -1.118034 1.118034 
C -0.821528 1.41454 -0.419323 1.581139 0 1.581139 
z
" style="stroke: #201f3d; stroke-width: 0.1"/>
    </defs>
    <g clip-path="url(#pecdd53dc69)">
     <use xlink:href="#mf0d1ebe145" x="82.172832" y="92.418143" style="fill: #201f3d; stroke: #201f3d; stroke-width: 0.1"/>
     <use xlink:href="#mf0d1ebe145" x="88.545886" y="68.546123" style="fill: #201f3d; stroke: #201f3d; stroke-width: 0.1"/>
     <use xlink:href="#mf0d1ebe145" x="84.568344" y="92.36538" style="fill: #201f3d; stroke: #201f3d; stroke-width: 0.1"/>
     <use xlink:href="#mf0d1ebe145" x="62.297654" y="155.857135" style="fill: #201f3d; stroke: #201f3d; stroke-width: 0.1"/>
     <use xlink:href="#mf0d1ebe145" x="88.214092" y="88.808787" style="fill: #201f3d; stroke: #201f3d; stroke-width: 0.1"/>
     <use xlink:href="#mf0d1ebe145" x="85.697772" y="94.344627" style="fill: #201f3d; stroke: #201f3d; stroke-width: 0.1"/>
     <use xlink:href="#mf0d1ebe145" x="75.861766" y="93.63929" style="fill: #201f3d; stroke: #201f3d; stroke-width: 0.1"/>
     <use xlink:href="#mf0d1ebe145" x="73.09663" y="102.077006" style="fill: #201f3d; stroke: #201f3d; stroke-width: 0.1"/>
     <use xlink:href="#mf0d1ebe145" x="77.681887" y="87.991231" style="fill: #201f3d; stroke: #201f3d; stroke-width: 0.1"/>
     <use xlink:href="#mf0d1ebe145" x="71.306152" y="154.508046" style="fill: #201f3d; stroke: #201f3d; stroke-width: 0.1"/>
     <use xlink:href="#mf0d1ebe145" x="73.39708" y="66.746966" style="fill: #201f3d; stroke: #201f3d; stroke-width: 0.1"/>
     <use xlink:href="#mf0d1ebe145" x="76.934597" y="90.756493" style="fill: #201f3d; stroke: #201f3d; stroke-width: 0.1"/>
     <use xlink:href="#mf0d1ebe145" x="71.023962" y="157.417568" style="fill: #201f3d; stroke: #201f3d; stroke-width: 0.1"/>
     <use xlink:href="#mf0d1ebe145" x="28.734595" y="72.251624" style="fill: #201f3d; stroke: #201f3d; stroke-width: 0.1"/>
     <use xlink:href="#mf0d1ebe145" x="63.085167" y="128.953983" style="fill: #201f3d; stroke: #201f3d; stroke-width: 0.1"/>
     <use xlink:href="#mf0d1ebe145" x="41.558366" y="71.584522" style="fill: #201f3d; stroke: #201f3d; stroke-width: 0.1"/>
     <use xlink:href="#mf0d1ebe145" x="86.142819" y="99.869288" style="fill: #201f3d; stroke: #201f3d; stroke-width: 0.1"/>
     <use xlink:href="#mf0d1ebe145" x="58.957961" y="128.848684" style="fill: #201f3d; stroke: #201f3d; stroke-width: 0.1"/>
     <use xlink:href="#mf0d1ebe145" x="89.812479" y="74.711597" style="fill: #201f3d; stroke: #201f3d; stroke-width: 0.1"/>
     <use xlink:href="#mf0d1ebe145" x="117.904706" y="95.726892" style="fill: #201f3d; stroke: #201f3d; stroke-width: 0.1"/>
     <use xlink:href="#mf0d1ebe145" x="62.02365" y="100.717955" style="fill: #201f3d; stroke: #201f3d; stroke-width: 0.1"/>
     <use xlink:href="#mf0d1ebe145" x="65.945351" y="81.107894" style="fill: #201f3d; stroke: #201f3d; stroke-width: 0.1"/>
     <use xlink:href="#mf0d1ebe145" x="69.441511" y="77.020927" style="fill: #201f3d; stroke: #201f3d; stroke-width: 0.1"/>
     <use xlink:href="#mf0d1ebe145" x="52.819294" y="106.324549" style="fill: #201f3d; stroke: #201f3d; stroke-width: 0.1"/>
     <use xlink:href="#mf0d1ebe145" x="60.98055" y="125.336107" style="fill: #201f3d; stroke: #201f3d; stroke-width: 0.1"/>
     <use xlink:href="#mf0d1ebe145" x="95.333162" y="73.42522" style="fill: #201f3d; stroke: #201f3d; stroke-width: 0.1"/>
     <use xlink:href="#mf0d1ebe145" x="83.027148" y="104.61513" style="fill: #201f3d; stroke: #201f3d; stroke-width: 0.1"/>
     <use xlink:href="#mf0d1ebe145" x="87.808329" y="99.809396" style="fill: #201f3d; stroke: #201f3d; stroke-width: 0.1"/>
     <use xlink:href="#mf0d1ebe145" x="68.048107" y="80.258693" style="fill: #201f3d; stroke: #201f3d; stroke-width: 0.1"/>
     <use xlink:href="#mf0d1ebe145" x="59.837232" y="88.66115" style="fill: #201f3d; stroke: #201f3d; stroke-width: 0.1"/>
     <use xlink:href="#mf0d1ebe145" x="27.2032" y="72.054523" style="fill: #201f3d; stroke: #201f3d; stroke-width: 0.1"/>
     <use xlink:href="#mf0d1ebe145" x="75.373521" y="98.47956" style="fill: #201f3d; stroke: #201f3d; stroke-width: 0.1"/>
     <use xlink:href="#mf0d1ebe145" x="74.435053" y="157.629327" style="fill: #201f3d; stroke: #201f3d; stroke-width: 0.1"/>
     <use xlink:href="#mf0d1ebe145" x="80.840569" y="104.182534" style="fill: #201f3d; stroke: #201f3d; stroke-width: 0.1"/>
     <use xlink:href="#mf0d1ebe145" x="67.360563" y="91.720325" style="fill: #201f3d; stroke: #201f3d; stroke-width: 0.1"/>
     <use xlink:href="#mf0d1ebe145" x="79.606268" y="105.433261" style="fill: #201f3d; stroke: #201f3d; stroke-width: 0.1"/>
     <use xlink:href="#mf0d1ebe145" x="85.212273" y="101.36512" style="fill: #201f3d; stroke: #201f3d; stroke-width: 0.1"/>
     <use xlink:href="#mf0d1ebe145" x="27.702363" y="73.873692" style="fill: #201f3d; stroke: #201f3d; stroke-width: 0.1"/>
     <use xlink:href="#mf0d1ebe145" x="74.426618" y="104.07286" style="fill: #201f3d; stroke: #201f3d; stroke-width: 0.1"/>
     <use xlink:href="#mf0d1ebe145" x="62.681916" y="126.666419" style="fill: #201f3d; stroke: #201f3d; stroke-width: 0.1"/>
     <use xlink:href="#mf0d1ebe145" x="82.919258" y="81.695832" style="fill: #201f3d; stroke: #201f3d; stroke-width: 0.1"/>
     <use xlink:href="#mf0d1ebe145" x="76.321916" y="155.364556" style="fill: #201f3d; stroke: #201f3d; stroke-width: 0.1"/>
     <use xlink:href="#mf0d1ebe145" x="36.250804" y="75.502899" style="fill: #201f3d; stroke: #201f3d; stroke-width: 0.1"/>
     <use xlink:href="#mf0d1ebe145" x="103.635885" y="70.458388" style="fill: #201f3d; stroke: #201f3d; stroke-width: 0.1"/>
     <use xlink:href="#mf0d1ebe145" x="86.003019" y="85.151196" style="fill: #201f3d; stroke: #201f3d; stroke-width: 0.1"/>
     <use xlink:href="#mf0d1ebe145" x="74.919127" y="152.969759" style="fill: #201f3d; stroke: #201f3d; stroke-width: 0.1"/>
     <use xlink:href="#mf0d1ebe145" x="56.008829" y="66.477741" style="fill: #201f3d; stroke: #201f3d; stroke-width: 0.1"/>
     <use xlink:href="#mf0d1ebe145" x="75.182087" y="66.079825" style="fill: #201f3d; stroke: #201f3d; stroke-width: 0.1"/>
     <use xlink:href="#mf0d1ebe145" x="40.899327" y="75.358117" style="fill: #201f3d; stroke: #201f3d; stroke-width: 0.1"/>
     <use xlink:href="#mf0d1ebe145" x="80.304754" y="74.862012" style="fill: #201f3d; stroke: #201f3d; stroke-width: 0.1"/>
     <use xlink:href="#mf0d1ebe145" x="83.146984" y="85.480147" style="fill: #201f3d; stroke: #201f3d; stroke-width: 0.1"/>
     <use xlink:href="#mf0d1ebe145" x="45.01886" y="106.230437" style="fill: #201f3d; stroke: #201f3d; stroke-width: 0.1"/>
     <use xlink:href="#mf0d1ebe145" x="69.337351" y="155.406204" style="fill: #201f3d; stroke: #201f3d; stroke-width: 0.1"/>
     <use xlink:href="#mf0d1ebe145" x="79.944121" y="90.120816" style="fill: #201f3d; stroke: #201f3d; stroke-width: 0.1"/>
     <use xlink:href="#mf0d1ebe145" x="105.218012" y="71.140138" style="fill: #201f3d; stroke: #201f3d; stroke-width: 0.1"/>
     <use xlink:href="#mf0d1ebe145" x="59.174126" y="95.311658" style="fill: #201f3d; stroke: #201f3d; stroke-width: 0.1"/>
     <use xlink:href="#mf0d1ebe145" x="111.96293" y="101.272392" style="fill: #201f3d; stroke: #201f3d; stroke-width: 0.1"/>
     <use xlink:href="#mf0d1ebe145" x="74.905642" y="90.37588" style="fill: #201f3d; stroke: #201f3d; stroke-width: 0.1"/>
     <use xlink:href="#mf0d1ebe145" x="45.272142" y="104.061395" style="fill: #201f3d; stroke: #201f3d; stroke-width: 0.1"/>
     <use xlink:href="#mf0d1ebe145" x="73.656342" y="93.148926" style="fill: #201f3d; stroke: #201f3d; stroke-width: 0.1"/>
     <use xlink:href="#mf0d1ebe145" x="85.845395" y="95.16478" style="fill: #201f3d; stroke: #201f3d; stroke-width: 0.1"/>
     <use xlink:href="#mf0d1ebe145" x="85.850082" y="97.819295" style="fill: #201f3d; stroke: #201f3d; stroke-width: 0.1"/>
     <use xlink:href="#mf0d1ebe145" x="47.302364" y="77.738112" style="fill: #201f3d; stroke: #201f3d; stroke-width: 0.1"/>
     <use xlink:href="#mf0d1ebe145" x="104.203957" y="69.085352" style="fill: #201f3d; stroke: #201f3d; stroke-width: 0.1"/>
     <use xlink:href="#mf0d1ebe145" x="73.829044" y="85.423485" style="fill: #201f3d; stroke: #201f3d; stroke-width: 0.1"/>
     <use xlink:href="#mf0d1ebe145" x="87.136486" y="68.320296" style="fill: #201f3d; stroke: #201f3d; stroke-width: 0.1"/>
     <use xlink:href="#mf0d1ebe145" x="57.651749" y="64.47739" style="fill: #201f3d; stroke: #201f3d; stroke-width: 0.1"/>
     <use xlink:href="#mf0d1ebe145" x="81.944234" y="95.092397" style="fill: #201f3d; stroke: #201f3d; stroke-width: 0.1"/>
     <use xlink:href="#mf0d1ebe145" x="91.40326" y="91.006255" style="fill: #201f3d; stroke: #201f3d; stroke-width: 0.1"/>
     <use xlink:href="#mf0d1ebe145" x="88.244582" y="42.193216" style="fill: #201f3d; stroke: #201f3d; stroke-width: 0.1"/>
     <use xlink:href="#mf0d1ebe145" x="78.175853" y="89.242524" style="fill: #201f3d; stroke: #201f3d; stroke-width: 0.1"/>
     <use xlink:href="#mf0d1ebe145" x="62.523653" y="148.947628" style="fill: #201f3d; stroke: #201f3d; stroke-width: 0.1"/>
     <use xlink:href="#mf0d1ebe145" x="69.428411" y="100.27131" style="fill: #201f3d; stroke: #201f3d; stroke-width: 0.1"/>
     <use xlink:href="#mf0d1ebe145" x="76.287252" y="104.514518" style="fill: #201f3d; stroke: #201f3d; stroke-width: 0.1"/>
     <use xlink:href="#mf0d1ebe145" x="42.832051" y="70.749141" style="fill: #201f3d; stroke: #201f3d; stroke-width: 0.1"/>
     <use xlink:href="#mf0d1ebe145" x="77.730119" y="105.299487" style="fill: #201f3d; stroke: #201f3d; stroke-width: 0.1"/>
     <use xlink:href="#mf0d1ebe145" x="40.089852" y="76.902448" style="fill: #201f3d; stroke: #201f3d; stroke-width: 0.1"/>
     <use xlink:href="#mf0d1ebe145" x="118.920406" y="96.997925" style="fill: #201f3d; stroke: #201f3d; stroke-width: 0.1"/>
     <use xlink:href="#mf0d1ebe145" x="97.987059" y="78.362791" style="fill: #201f3d; stroke: #201f3d; stroke-width: 0.1"/>
     <use xlink:href="#mf0d1ebe145" x="89.87499" y="68.538127" style="fill: #201f3d; stroke: #201f3d; stroke-width: 0.1"/>
     <use xlink:href="#mf0d1ebe145" x="60.494097" y="86.613707" style="fill: #201f3d; stroke: #201f3d; stroke-width: 0.1"/>
     <use xlink:href="#mf0d1ebe145" x="71.06939" y="96.873461" style="fill: #201f3d; stroke: #201f3d; stroke-width: 0.1"/>
     <use xlink:href="#mf0d1ebe145" x="65.19459" y="151.354655" style="fill: #201f3d; stroke: #201f3d; stroke-width: 0.1"/>
     <use xlink:href="#mf0d1ebe145" x="84.149957" y="92.223029" style="fill: #201f3d; stroke: #201f3d; stroke-width: 0.1"/>
     <use xlink:href="#mf0d1ebe145" x="142.271055" y="97.535444" style="fill: #201f3d; stroke: #201f3d; stroke-width: 0.1"/>
     <use xlink:href="#mf0d1ebe145" x="80.330567" y="84.539254" style="fill: #201f3d; stroke: #201f3d; stroke-width: 0.1"/>
     <use xlink:href="#mf0d1ebe145" x="56.106632" y="64.917983" style="fill: #201f3d; stroke: #201f3d; stroke-width: 0.1"/>
     <use xlink:href="#mf0d1ebe145" x="90.04398" y="90.421899" style="fill: #201f3d; stroke: #201f3d; stroke-width: 0.1"/>
     <use xlink:href="#mf0d1ebe145" x="84.129783" y="97.350785" style="fill: #201f3d; stroke: #201f3d; stroke-width: 0.1"/>
     <use xlink:href="#mf0d1ebe145" x="82.899333" y="102.385757" style="fill: #201f3d; stroke: #201f3d; stroke-width: 0.1"/>
     <use xlink:href="#mf0d1ebe145" x="81.381513" y="89.189288" style="fill: #201f3d; stroke: #201f3d; stroke-width: 0.1"/>
     <use xlink:href="#mf0d1ebe145" x="71.639352" y="93.820514" style="fill: #201f3d; stroke: #201f3d; stroke-width: 0.1"/>
     <use xlink:href="#mf0d1ebe145" x="78.226682" y="91.950143" style="fill: #201f3d; stroke: #201f3d; stroke-width: 0.1"/>
     <use xlink:href="#mf0d1ebe145" x="44.137186" y="70.443852" style="fill: #201f3d; stroke: #201f3d; stroke-width: 0.1"/>
     <use xlink:href="#mf0d1ebe145" x="71.833457" y="88.050631" style="fill: #201f3d; stroke: #201f3d; stroke-width: 0.1"/>
     <use xlink:href="#mf0d1ebe145" x="72.831427" y="87.105728" style="fill: #201f3d; stroke: #201f3d; stroke-width: 0.1"/>
     <use xlink:href="#mf0d1ebe145" x="91.047898" y="82.551757" style="fill: #201f3d; stroke: #201f3d; stroke-width: 0.1"/>
     <use xlink:href="#mf0d1ebe145" x="67.219104" y="129.61452" style="fill: #201f3d; stroke: #201f3d; stroke-width: 0.1"/>
     <use xlink:href="#mf0d1ebe145" x="79.763041" y="88.459682" style="fill: #201f3d; stroke: #201f3d; stroke-width: 0.1"/>
     <use xlink:href="#mf0d1ebe145" x="44.305614" y="57.187759" style="fill: #201f3d; stroke: #201f3d; stroke-width: 0.1"/>
     <use xlink:href="#mf0d1ebe145" x="72.574048" y="100.468955" style="fill: #201f3d; stroke: #201f3d; stroke-width: 0.1"/>
     <use xlink:href="#mf0d1ebe145" x="48.164584" y="54.584564" style="fill: #201f3d; stroke: #201f3d; stroke-width: 0.1"/>
     <use xlink:href="#mf0d1ebe145" x="27.924357" y="77.497793" style="fill: #201f3d; stroke: #201f3d; stroke-width: 0.1"/>
     <use xlink:href="#mf0d1ebe145" x="88.212361" y="97.684017" style="fill: #201f3d; stroke: #201f3d; stroke-width: 0.1"/>
     <use xlink:href="#mf0d1ebe145" x="28.604208" y="75.626031" style="fill: #201f3d; stroke: #201f3d; stroke-width: 0.1"/>
     <use xlink:href="#mf0d1ebe145" x="61.392229" y="127.970818" style="fill: #201f3d; stroke: #201f3d; stroke-width: 0.1"/>
     <use xlink:href="#mf0d1ebe145" x="60.270726" y="130.21366" style="fill: #201f3d; stroke: #201f3d; stroke-width: 0.1"/>
     <use xlink:href="#mf0d1ebe145" x="84.659667" y="90.098932" style="fill: #201f3d; stroke: #201f3d; stroke-width: 0.1"/>
     <use xlink:href="#mf0d1ebe145" x="72.368659" y="95.260317" style="fill: #201f3d; stroke: #201f3d; stroke-width: 0.1"/>
     <use xlink:href="#mf0d1ebe145" x="130.73456" y="102.619617" style="fill: #201f3d; stroke: #201f3d; stroke-width: 0.1"/>
     <use xlink:href="#mf0d1ebe145" x="71.612514" y="160.483229" style="fill: #201f3d; stroke: #201f3d; stroke-width: 0.1"/>
     <use xlink:href="#mf0d1ebe145" x="54.595316" y="67.585188" style="fill: #201f3d; stroke: #201f3d; stroke-width: 0.1"/>
     <use xlink:href="#mf0d1ebe145" x="87.999392" y="94.265473" style="fill: #201f3d; stroke: #201f3d; stroke-width: 0.1"/>
     <use xlink:href="#mf0d1ebe145" x="60.380746" y="132.143455" style="fill: #201f3d; stroke: #201f3d; stroke-width: 0.1"/>
     <use xlink:href="#mf0d1ebe145" x="134.746469" y="101.362048" style="fill: #201f3d; stroke: #201f3d; stroke-width: 0.1"/>
     <use xlink:href="#mf0d1ebe145" x="73.004979" y="97.373746" style="fill: #201f3d; stroke: #201f3d; stroke-width: 0.1"/>
     <use xlink:href="#mf0d1ebe145" x="63.51388" y="124.988244" style="fill: #201f3d; stroke: #201f3d; stroke-width: 0.1"/>
     <use xlink:href="#mf0d1ebe145" x="70.51567" y="162.016067" style="fill: #201f3d; stroke: #201f3d; stroke-width: 0.1"/>
     <use xlink:href="#mf0d1ebe145" x="74.158348" y="95.408157" style="fill: #201f3d; stroke: #201f3d; stroke-width: 0.1"/>
     <use xlink:href="#mf0d1ebe145" x="72.048235" y="98.912037" style="fill: #201f3d; stroke: #201f3d; stroke-width: 0.1"/>
     <use xlink:href="#mf0d1ebe145" x="88.869191" y="75.092985" style="fill: #201f3d; stroke: #201f3d; stroke-width: 0.1"/>
     <use xlink:href="#mf0d1ebe145" x="84.63711" y="76.068037" style="fill: #201f3d; stroke: #201f3d; stroke-width: 0.1"/>
     <use xlink:href="#mf0d1ebe145" x="26.981799" y="75.367789" style="fill: #201f3d; stroke: #201f3d; stroke-width: 0.1"/>
     <use xlink:href="#mf0d1ebe145" x="59.191458" y="93.024644" style="fill: #201f3d; stroke: #201f3d; stroke-width: 0.1"/>
     <use xlink:href="#mf0d1ebe145" x="75.262529" y="102.574117" style="fill: #201f3d; stroke: #201f3d; stroke-width: 0.1"/>
     <use xlink:href="#mf0d1ebe145" x="73.480414" y="78.511983" style="fill: #201f3d; stroke: #201f3d; stroke-width: 0.1"/>
     <use xlink:href="#mf0d1ebe145" x="61.848069" y="146.190289" style="fill: #201f3d; stroke: #201f3d; stroke-width: 0.1"/>
     <use xlink:href="#mf0d1ebe145" x="83.136889" y="71.492893" style="fill: #201f3d; stroke: #201f3d; stroke-width: 0.1"/>
     <use xlink:href="#mf0d1ebe145" x="50.783583" y="64.628682" style="fill: #201f3d; stroke: #201f3d; stroke-width: 0.1"/>
     <use xlink:href="#mf0d1ebe145" x="77.123102" y="100.838641" style="fill: #201f3d; stroke: #201f3d; stroke-width: 0.1"/>
     <use xlink:href="#mf0d1ebe145" x="85.068579" y="103.409815" style="fill: #201f3d; stroke: #201f3d; stroke-width: 0.1"/>
     <use xlink:href="#mf0d1ebe145" x="59.720473" y="126.998554" style="fill: #201f3d; stroke: #201f3d; stroke-width: 0.1"/>
     <use xlink:href="#mf0d1ebe145" x="75.102689" y="100.422792" style="fill: #201f3d; stroke: #201f3d; stroke-width: 0.1"/>
     <use xlink:href="#mf0d1ebe145" x="67.518662" y="144.537688" style="fill: #201f3d; stroke: #201f3d; stroke-width: 0.1"/>
     <use xlink:href="#mf0d1ebe145" x="76.145549" y="88.995914" style="fill: #201f3d; stroke: #201f3d; stroke-width: 0.1"/>
     <use xlink:href="#mf0d1ebe145" x="63.911149" y="148.039357" style="fill: #201f3d; stroke: #201f3d; stroke-width: 0.1"/>
     <use xlink:href="#mf0d1ebe145" x="96.69247" y="83.973989" style="fill: #201f3d; stroke: #201f3d; stroke-width: 0.1"/>
     <use xlink:href="#mf0d1ebe145" x="94.174394" y="81.932126" style="fill: #201f3d; stroke: #201f3d; stroke-width: 0.1"/>
     <use xlink:href="#mf0d1ebe145" x="78.344583" y="103.067115" style="fill: #201f3d; stroke: #201f3d; stroke-width: 0.1"/>
     <use xlink:href="#mf0d1ebe145" x="75.144317" y="92.094761" style="fill: #201f3d; stroke: #201f3d; stroke-width: 0.1"/>
     <use xlink:href="#mf0d1ebe145" x="80.298898" y="92.453676" style="fill: #201f3d; stroke: #201f3d; stroke-width: 0.1"/>
     <use xlink:href="#mf0d1ebe145" x="119.470013" y="98.753448" style="fill: #201f3d; stroke: #201f3d; stroke-width: 0.1"/>
     <use xlink:href="#mf0d1ebe145" x="72.93194" y="91.575737" style="fill: #201f3d; stroke: #201f3d; stroke-width: 0.1"/>
     <use xlink:href="#mf0d1ebe145" x="65.853329" y="149.631166" style="fill: #201f3d; stroke: #201f3d; stroke-width: 0.1"/>
     <use xlink:href="#mf0d1ebe145" x="85.675012" y="78.657511" style="fill: #201f3d; stroke: #201f3d; stroke-width: 0.1"/>
     <use xlink:href="#mf0d1ebe145" x="78.14956" y="94.581299" style="fill: #201f3d; stroke: #201f3d; stroke-width: 0.1"/>
     <use xlink:href="#mf0d1ebe145" x="62.457926" y="131.070864" style="fill: #201f3d; stroke: #201f3d; stroke-width: 0.1"/>
     <use xlink:href="#mf0d1ebe145" x="60.090507" y="73.791819" style="fill: #201f3d; stroke: #201f3d; stroke-width: 0.1"/>
     <use xlink:href="#mf0d1ebe145" x="86.818474" y="92.485697" style="fill: #201f3d; stroke: #201f3d; stroke-width: 0.1"/>
     <use xlink:href="#mf0d1ebe145" x="66.802438" y="95.880533" style="fill: #201f3d; stroke: #201f3d; stroke-width: 0.1"/>
     <use xlink:href="#mf0d1ebe145" x="53.184432" y="62.807665" style="fill: #201f3d; stroke: #201f3d; stroke-width: 0.1"/>
     <use xlink:href="#mf0d1ebe145" x="76.744298" y="75.858553" style="fill: #201f3d; stroke: #201f3d; stroke-width: 0.1"/>
     <use xlink:href="#mf0d1ebe145" x="53.369029" y="154.632045" style="fill: #201f3d; stroke: #201f3d; stroke-width: 0.1"/>
     <use xlink:href="#mf0d1ebe145" x="40.566702" y="73.67411" style="fill: #201f3d; stroke: #201f3d; stroke-width: 0.1"/>
     <use xlink:href="#mf0d1ebe145" x="130.64708" y="104.686917" style="fill: #201f3d; stroke: #201f3d; stroke-width: 0.1"/>
     <use xlink:href="#mf0d1ebe145" x="73.101069" y="153.8702" style="fill: #201f3d; stroke: #201f3d; stroke-width: 0.1"/>
     <use xlink:href="#mf0d1ebe145" x="88.197369" y="95.9638" style="fill: #201f3d; stroke: #201f3d; stroke-width: 0.1"/>
     <use xlink:href="#mf0d1ebe145" x="75.862497" y="96.189165" style="fill: #201f3d; stroke: #201f3d; stroke-width: 0.1"/>
     <use xlink:href="#mf0d1ebe145" x="61.61094" y="142.594818" style="fill: #201f3d; stroke: #201f3d; stroke-width: 0.1"/>
     <use xlink:href="#mf0d1ebe145" x="98.806066" y="85.231242" style="fill: #201f3d; stroke: #201f3d; stroke-width: 0.1"/>
     <use xlink:href="#mf0d1ebe145" x="83.180013" y="99.571063" style="fill: #201f3d; stroke: #201f3d; stroke-width: 0.1"/>
     <use xlink:href="#mf0d1ebe145" x="70.463512" y="152.638328" style="fill: #201f3d; stroke: #201f3d; stroke-width: 0.1"/>
     <use xlink:href="#mf0d1ebe145" x="86.223029" y="83.660329" style="fill: #201f3d; stroke: #201f3d; stroke-width: 0.1"/>
     <use xlink:href="#mf0d1ebe145" x="69.590241" y="69.849692" style="fill: #201f3d; stroke: #201f3d; stroke-width: 0.1"/>
     <use xlink:href="#mf0d1ebe145" x="96.872325" y="74.219523" style="fill: #201f3d; stroke: #201f3d; stroke-width: 0.1"/>
     <use xlink:href="#mf0d1ebe145" x="28.557659" y="70.339111" style="fill: #201f3d; stroke: #201f3d; stroke-width: 0.1"/>
     <use xlink:href="#mf0d1ebe145" x="80.017688" y="97.60985" style="fill: #201f3d; stroke: #201f3d; stroke-width: 0.1"/>
     <use xlink:href="#mf0d1ebe145" x="73.951755" y="162.78328" style="fill: #201f3d; stroke: #201f3d; stroke-width: 0.1"/>
     <use xlink:href="#mf0d1ebe145" x="97.273172" y="74.262039" style="fill: #201f3d; stroke: #201f3d; stroke-width: 0.1"/>
     <use xlink:href="#mf0d1ebe145" x="82.867187" y="90.018145" style="fill: #201f3d; stroke: #201f3d; stroke-width: 0.1"/>
     <use xlink:href="#mf0d1ebe145" x="130.214402" y="100.877253" style="fill: #201f3d; stroke: #201f3d; stroke-width: 0.1"/>
     <use xlink:href="#mf0d1ebe145" x="102.432679" y="68.902537" style="fill: #201f3d; stroke: #201f3d; stroke-width: 0.1"/>
     <use xlink:href="#mf0d1ebe145" x="85.33857" y="72.192283" style="fill: #201f3d; stroke: #201f3d; stroke-width: 0.1"/>
     <use xlink:href="#mf0d1ebe145" x="91.106733" y="75.755639" style="fill: #201f3d; stroke: #201f3d; stroke-width: 0.1"/>
     <use xlink:href="#mf0d1ebe145" x="42.414495" y="73.108836" style="fill: #201f3d; stroke: #201f3d; stroke-width: 0.1"/>
     <use xlink:href="#mf0d1ebe145" x="80.410239" y="101.621846" style="fill: #201f3d; stroke: #201f3d; stroke-width: 0.1"/>
    </g>
   </g>
   <g id="text_1">
    <!-- Red de nodos corruptos (K) de Mxico -->
    <g transform="translate(9.988465 10.132206) scale(0.096 -0.096)">
     <defs>
      <path id="NimbusRomNo9L-Regu-52" d="M 4218 121 
C 3974 140 3846 205 3661 424 
L 2342 2061 
C 2771 2143 2963 2219 3174 2388 
C 3379 2553 3501 2818 3501 3113 
C 3501 3385 3418 3618 3251 3801 
C 3008 4059 2477 4224 1875 4224 
L 109 4224 
L 109 4102 
C 589 4051 653 3981 653 3528 
L 653 765 
C 653 236 589 159 109 121 
L 109 0 
L 1882 0 
L 1882 134 
C 1389 134 1306 219 1306 692 
L 1306 1984 
L 1664 1984 
L 3187 0 
L 4218 0 
L 4218 121 
z
M 1306 3762 
C 1306 3937 1376 3987 1632 3987 
C 2432 3987 2803 3716 2803 3123 
C 2803 2807 2669 2542 2438 2423 
C 2144 2258 1920 2221 1306 2221 
L 1306 3762 
z
" transform="scale(0.015625)"/>
      <path id="NimbusRomNo9L-Regu-65" d="M 2611 1053 
C 2304 564 2029 378 1619 378 
C 1254 378 979 564 794 930 
C 678 1174 634 1386 621 1779 
L 2592 1779 
C 2541 2193 2477 2377 2317 2581 
C 2125 2811 1830 2944 1498 2944 
C 1178 2944 877 2829 634 2611 
C 333 2349 160 1894 160 1370 
C 160 486 621 -64 1357 -64 
C 1965 -64 2445 315 2714 1008 
L 2611 1053 
z
M 634 1984 
C 704 2479 922 2714 1312 2714 
C 1702 2714 1856 2535 1939 1984 
L 634 1984 
z
" transform="scale(0.015625)"/>
      <path id="NimbusRomNo9L-Regu-64" d="M 2202 -64 
L 3142 269 
L 3142 365 
C 3027 365 3014 365 2995 365 
C 2765 365 2714 435 2714 731 
L 2714 4364 
L 2682 4377 
C 2374 4268 2150 4204 1741 4096 
L 1741 3994 
C 1792 4000 1830 4000 1882 4000 
C 2118 4000 2176 3936 2176 3672 
L 2176 2669 
C 1933 2874 1760 2944 1504 2944 
C 768 2944 173 2221 173 1312 
C 173 493 653 -64 1357 -64 
C 1715 -64 1958 64 2176 365 
L 2176 -45 
L 2202 -64 
z
M 2176 653 
C 2176 608 2131 531 2067 461 
C 1952 333 1792 269 1606 269 
C 1075 269 723 781 723 1568 
C 723 2291 1037 2765 1523 2765 
C 1862 2765 2176 2464 2176 2125 
L 2176 653 
z
" transform="scale(0.015625)"/>
      <path id="NimbusRomNo9L-Regu-6e" d="M 102 2579 
C 141 2598 205 2605 275 2605 
C 454 2605 512 2509 512 2195 
L 512 608 
C 512 243 442 154 115 128 
L 115 32 
L 1472 32 
L 1472 128 
C 1146 154 1050 230 1050 461 
L 1050 2259 
C 1357 2547 1498 2624 1709 2624 
C 2022 2624 2176 2426 2176 2003 
L 2176 666 
C 2176 262 2093 154 1773 128 
L 1773 32 
L 3104 32 
L 3104 128 
C 2790 160 2714 237 2714 550 
L 2714 2016 
C 2714 2618 2432 2976 1958 2976 
C 1664 2976 1466 2867 1030 2458 
L 1030 2963 
L 986 2976 
C 672 2861 454 2790 102 2688 
L 102 2579 
z
" transform="scale(0.015625)"/>
      <path id="NimbusRomNo9L-Regu-6f" d="M 1600 2944 
C 768 2944 186 2330 186 1446 
C 186 582 781 -64 1587 -64 
C 2394 -64 3008 614 3008 1498 
C 3008 2336 2419 2944 1600 2944 
z
M 1517 2765 
C 2054 2765 2432 2150 2432 1274 
C 2432 550 2144 115 1664 115 
C 1414 115 1178 269 1043 525 
C 864 858 762 1306 762 1760 
C 762 2368 1062 2765 1517 2765 
z
" transform="scale(0.015625)"/>
      <path id="NimbusRomNo9L-Regu-73" d="M 2016 2010 
L 1990 2880 
L 1920 2880 
L 1907 2867 
C 1850 2822 1843 2816 1818 2816 
C 1779 2816 1715 2829 1645 2861 
C 1504 2915 1363 2944 1197 2944 
C 691 2944 326 2616 326 2154 
C 326 1796 531 1539 1075 1231 
L 1446 1020 
C 1670 892 1779 737 1779 539 
C 1779 256 1574 77 1248 77 
C 1030 77 832 159 710 298 
C 576 455 518 600 435 960 
L 333 960 
L 333 -39 
L 416 -39 
C 461 33 486 48 563 48 
C 621 48 710 35 858 -2 
C 1037 -39 1210 -64 1325 -64 
C 1818 -64 2227 308 2227 757 
C 2227 1077 2074 1289 1690 1520 
L 998 1930 
C 819 2033 723 2194 723 2367 
C 723 2624 922 2803 1216 2803 
C 1581 2803 1773 2583 1920 2010 
L 2016 2010 
z
" transform="scale(0.015625)"/>
      <path id="NimbusRomNo9L-Regu-63" d="M 2547 998 
C 2240 550 2010 397 1645 397 
C 1062 397 653 909 653 1645 
C 653 2304 1005 2758 1523 2758 
C 1754 2758 1837 2688 1901 2451 
L 1939 2310 
C 1990 2131 2106 2016 2240 2016 
C 2406 2016 2547 2138 2547 2285 
C 2547 2643 2099 2944 1562 2944 
C 1248 2944 922 2816 659 2586 
C 339 2304 160 1869 160 1363 
C 160 531 666 -64 1376 -64 
C 1664 -64 1920 38 2150 237 
C 2323 390 2445 563 2637 941 
L 2547 998 
z
" transform="scale(0.015625)"/>
      <path id="NimbusRomNo9L-Regu-72" d="M 45 2496 
C 134 2515 192 2522 269 2522 
C 429 2522 486 2419 486 2138 
L 486 538 
C 486 218 442 173 32 96 
L 32 0 
L 1568 0 
L 1568 102 
C 1133 102 1024 199 1024 565 
L 1024 2013 
C 1024 2219 1299 2541 1472 2541 
C 1510 2541 1568 2509 1638 2445 
C 1741 2355 1811 2317 1894 2317 
C 2048 2317 2144 2426 2144 2605 
C 2144 2816 2010 2944 1792 2944 
C 1523 2944 1338 2797 1024 2343 
L 1024 2931 
L 992 2944 
C 653 2803 422 2721 45 2599 
L 45 2496 
z
" transform="scale(0.015625)"/>
      <path id="NimbusRomNo9L-Regu-75" d="M 3066 320 
L 3034 320 
C 2739 320 2669 390 2669 685 
L 2669 2880 
L 1658 2880 
L 1658 2758 
C 2054 2758 2131 2694 2131 2375 
L 2131 875 
C 2131 697 2099 607 2010 537 
C 1837 397 1638 320 1446 320 
C 1197 320 992 537 992 805 
L 992 2880 
L 58 2880 
L 58 2778 
C 365 2778 454 2682 454 2387 
L 454 770 
C 454 263 762 -64 1229 -64 
C 1466 -64 1715 38 1888 211 
L 2163 486 
L 2163 -45 
L 2189 -58 
C 2509 70 2739 141 3066 230 
L 3066 320 
z
" transform="scale(0.015625)"/>
      <path id="NimbusRomNo9L-Regu-70" d="M 58 2516 
C 115 2522 160 2522 218 2522 
C 435 2522 480 2458 480 2155 
L 480 -855 
C 480 -1189 410 -1261 32 -1299 
L 32 -1408 
L 1581 -1408 
L 1581 -1293 
C 1101 -1293 1018 -1222 1018 -816 
L 1018 199 
C 1242 -13 1395 -77 1664 -77 
C 2419 -77 3008 643 3008 1575 
C 3008 2372 2560 2944 1939 2944 
C 1581 2944 1299 2784 1018 2438 
L 1018 2931 
L 979 2944 
C 634 2810 410 2726 58 2618 
L 58 2516 
z
M 1018 2136 
C 1018 2329 1376 2560 1670 2560 
C 2144 2560 2458 2071 2458 1324 
C 2458 611 2144 128 1683 128 
C 1382 128 1018 359 1018 552 
L 1018 2136 
z
" transform="scale(0.015625)"/>
      <path id="NimbusRomNo9L-Regu-74" d="M 1632 2880 
L 986 2880 
L 986 3622 
C 986 3686 979 3706 941 3706 
C 896 3648 858 3590 813 3526 
C 570 3174 294 2867 192 2841 
C 122 2794 83 2748 83 2715 
C 83 2695 90 2682 109 2682 
L 448 2682 
L 448 751 
C 448 212 640 -64 1018 -64 
C 1331 -64 1574 90 1786 423 
L 1702 493 
C 1568 333 1459 269 1318 269 
C 1082 269 986 443 986 847 
L 986 2682 
L 1632 2682 
L 1632 2880 
z
" transform="scale(0.015625)"/>
      <path id="NimbusRomNo9L-Regu-28" d="M 1888 4326 
C 1414 4019 1222 3853 986 3558 
C 531 3002 307 2362 307 1613 
C 307 800 544 173 1107 -480 
C 1370 -787 1536 -928 1869 -1133 
L 1946 -1030 
C 1434 -627 1254 -403 1082 77 
C 928 506 858 992 858 1632 
C 858 2304 941 2829 1114 3226 
C 1293 3622 1485 3853 1946 4224 
L 1888 4326 
z
" transform="scale(0.015625)"/>
      <path id="NimbusRomNo9L-Regu-4b" d="M 2643 4109 
C 2720 4096 2784 4096 2810 4096 
C 3002 4096 3078 4045 3078 3917 
C 3078 3775 2931 3583 2579 3257 
L 1446 2224 
L 1446 3534 
C 1446 4000 1517 4071 2035 4109 
L 2035 4231 
L 218 4231 
L 218 4109 
C 717 4071 794 3988 794 3531 
L 794 750 
C 794 217 723 134 218 134 
L 218 0 
L 2022 0 
L 2022 134 
C 1523 134 1446 211 1446 683 
L 1446 1891 
L 1613 2026 
L 2291 1355 
C 2778 876 3123 422 3123 269 
C 3123 179 3034 134 2854 134 
C 2822 134 2752 134 2675 121 
L 2675 0 
L 4627 0 
L 4627 134 
C 4294 134 4205 198 3622 816 
L 2131 2409 
L 3347 3611 
C 3782 4026 3885 4077 4320 4109 
L 4320 4231 
L 2643 4231 
L 2643 4109 
z
" transform="scale(0.015625)"/>
      <path id="NimbusRomNo9L-Regu-29" d="M 243 -1133 
C 717 -826 909 -659 1146 -365 
C 1600 192 1824 832 1824 1581 
C 1824 2400 1587 3021 1024 3674 
C 762 3981 595 4122 262 4326 
L 186 4224 
C 698 3821 870 3597 1050 3117 
C 1203 2688 1274 2202 1274 1562 
C 1274 896 1190 365 1018 -26 
C 838 -429 646 -659 186 -1030 
L 243 -1133 
z
" transform="scale(0.015625)"/>
      <path id="NimbusRomNo9L-Regu-4d" d="M 4314 3667 
L 4314 751 
C 4314 217 4237 134 3731 134 
L 3731 0 
L 5523 0 
L 5523 134 
C 5056 134 4966 223 4966 681 
L 4966 3536 
C 4966 3993 5050 4077 5523 4115 
L 5523 4237 
L 4250 4237 
L 2835 1004 
L 1357 4237 
L 90 4237 
L 90 4096 
C 614 4096 698 4019 698 3550 
L 698 943 
C 698 282 608 159 77 121 
L 77 0 
L 1581 0 
L 1581 134 
C 1088 134 979 282 979 931 
L 979 3520 
L 2586 0 
L 2675 0 
L 4314 3667 
z
" transform="scale(0.015625)"/>
      <path id="NimbusRomNo9L-Regu-b4" d="M 851 3264 
L 1837 3882 
C 1971 3964 2029 4047 2029 4148 
C 2029 4275 1946 4352 1805 4352 
C 1709 4352 1651 4320 1536 4206 
L 595 3264 
L 851 3264 
z
" transform="scale(0.015625)"/>
      <path id="NimbusRomNo9L-Regu-78" d="M 1779 0 
L 3066 0 
L 3066 96 
C 2867 96 2739 198 2541 480 
L 1722 1735 
L 2253 2502 
C 2374 2675 2566 2778 2771 2778 
L 2771 2880 
L 1760 2880 
L 1760 2778 
C 1952 2778 2016 2740 2016 2649 
C 2016 2571 1939 2430 1779 2229 
C 1747 2191 1670 2075 1587 1946 
L 1498 2074 
C 1318 2342 1203 2560 1203 2643 
C 1203 2733 1286 2778 1478 2778 
L 1478 2880 
L 154 2880 
L 154 2778 
L 211 2778 
C 403 2778 506 2695 704 2396 
L 1306 1479 
L 576 422 
C 384 160 320 115 109 96 
L 109 0 
L 1037 0 
L 1037 96 
C 858 96 781 128 781 211 
C 781 250 826 346 909 474 
L 1414 1261 
L 1997 365 
C 2022 326 2035 288 2035 250 
C 2035 123 1990 96 1779 96 
L 1779 0 
z
" transform="scale(0.015625)"/>
      <path id="NimbusRomNo9L-Regu-69" d="M 1120 2929 
L 128 2579 
L 128 2484 
L 179 2490 
C 256 2502 339 2509 397 2509 
C 550 2509 608 2406 608 2125 
L 608 640 
C 608 179 544 109 102 109 
L 102 0 
L 1619 0 
L 1619 96 
C 1197 128 1146 191 1146 650 
L 1146 2910 
L 1120 2929 
z
M 819 4352 
C 646 4352 499 4205 499 4026 
C 499 3847 640 3699 819 3699 
C 1005 3699 1152 3840 1152 4026 
C 1152 4205 1005 4352 819 4352 
z
" transform="scale(0.015625)"/>
     </defs>
     <use xlink:href="#NimbusRomNo9L-Regu-52" transform="scale(0.996264)"/>
     <use xlink:href="#NimbusRomNo9L-Regu-65" transform="translate(66.450031 0) scale(0.996264)"/>
     <use xlink:href="#NimbusRomNo9L-Regu-64" transform="translate(110.6836 0) scale(0.996264)"/>
     <use xlink:href="#NimbusRomNo9L-Regu-64" transform="translate(185.403401 0) scale(0.996264)"/>
     <use xlink:href="#NimbusRomNo9L-Regu-65" transform="translate(235.216601 0) scale(0.996264)"/>
     <use xlink:href="#NimbusRomNo9L-Regu-6e" transform="translate(304.35677 0) scale(0.996264)"/>
     <use xlink:href="#NimbusRomNo9L-Regu-6f" transform="translate(354.169971 0) scale(0.996264)"/>
     <use xlink:href="#NimbusRomNo9L-Regu-64" transform="translate(403.983171 0) scale(0.996264)"/>
     <use xlink:href="#NimbusRomNo9L-Regu-6f" transform="translate(453.796372 0) scale(0.996264)"/>
     <use xlink:href="#NimbusRomNo9L-Regu-73" transform="translate(503.609572 0) scale(0.996264)"/>
     <use xlink:href="#NimbusRomNo9L-Regu-63" transform="translate(567.269878 0) scale(0.996264)"/>
     <use xlink:href="#NimbusRomNo9L-Regu-6f" transform="translate(611.503447 0) scale(0.996264)"/>
     <use xlink:href="#NimbusRomNo9L-Regu-72" transform="translate(661.316648 0) scale(0.996264)"/>
     <use xlink:href="#NimbusRomNo9L-Regu-72" transform="translate(694.491877 0) scale(0.996264)"/>
     <use xlink:href="#NimbusRomNo9L-Regu-75" transform="translate(727.667107 0) scale(0.996264)"/>
     <use xlink:href="#NimbusRomNo9L-Regu-70" transform="translate(777.480308 0) scale(0.996264)"/>
     <use xlink:href="#NimbusRomNo9L-Regu-74" transform="translate(827.293508 0) scale(0.996264)"/>
     <use xlink:href="#NimbusRomNo9L-Regu-6f" transform="translate(854.988678 0) scale(0.996264)"/>
     <use xlink:href="#NimbusRomNo9L-Regu-73" transform="translate(904.801878 0) scale(0.996264)"/>
     <use xlink:href="#NimbusRomNo9L-Regu-28" transform="translate(968.462185 0) scale(0.996264)"/>
     <use xlink:href="#NimbusRomNo9L-Regu-4b" transform="translate(1001.637414 0) scale(0.996264)"/>
     <use xlink:href="#NimbusRomNo9L-Regu-29" transform="translate(1073.567399 0) scale(0.996264)"/>
     <use xlink:href="#NimbusRomNo9L-Regu-64" transform="translate(1131.649229 0) scale(0.996264)"/>
     <use xlink:href="#NimbusRomNo9L-Regu-65" transform="translate(1181.46243 0) scale(0.996264)"/>
     <use xlink:href="#NimbusRomNo9L-Regu-4d" transform="translate(1250.602599 0) scale(0.996264)"/>
     <use xlink:href="#NimbusRomNo9L-Regu-b4" transform="translate(1344.698682 0.498056) scale(0.996264)"/>
     <use xlink:href="#NimbusRomNo9L-Regu-65" transform="translate(1339.169505 0) scale(0.996264)"/>
     <use xlink:href="#NimbusRomNo9L-Regu-78" transform="translate(1383.403074 0) scale(0.996264)"/>
     <use xlink:href="#NimbusRomNo9L-Regu-69" transform="translate(1433.216275 0) scale(0.996264)"/>
     <use xlink:href="#NimbusRomNo9L-Regu-63" transform="translate(1460.911444 0) scale(0.996264)"/>
     <use xlink:href="#NimbusRomNo9L-Regu-6f" transform="translate(1505.145013 0) scale(0.996264)"/>
    </g>
    <!-- Barabsi-Albert_(m=1) - H: 0.5\%  -->
    <g transform="translate(20.446972 19.984025) scale(0.096 -0.096)">
     <defs>
      <path id="NimbusRomNo9L-Regu-42" d="M 109 4237 
L 109 4096 
C 646 4096 723 4026 723 3548 
L 723 689 
C 723 212 640 128 109 128 
L 109 0 
L 2246 0 
C 2746 0 3200 136 3437 356 
C 3667 564 3795 855 3795 1165 
C 3795 1451 3680 1710 3482 1897 
C 3290 2072 3117 2150 2701 2253 
C 3034 2335 3168 2398 3322 2531 
C 3482 2671 3578 2903 3578 3163 
C 3578 3871 3008 4237 1901 4237 
L 109 4237 
z
M 1376 2112 
C 1997 2112 2291 2080 2522 1982 
C 2886 1827 3059 1568 3059 1159 
C 3059 809 2925 555 2669 406 
C 2464 290 2202 238 1779 238 
C 1466 238 1376 296 1376 504 
L 1376 2112 
z
M 1376 2368 
L 1376 3812 
C 1376 3944 1421 4001 1517 4001 
L 1798 4001 
C 2534 4001 2925 3699 2925 3137 
C 2925 2646 2586 2368 1984 2368 
L 1376 2368 
z
" transform="scale(0.015625)"/>
      <path id="NimbusRomNo9L-Regu-61" d="M 2829 423 
C 2720 333 2643 301 2547 301 
C 2400 301 2355 390 2355 672 
L 2355 1920 
C 2355 2253 2323 2438 2227 2592 
C 2086 2822 1811 2944 1434 2944 
C 832 2944 358 2630 358 2227 
C 358 2080 486 1952 634 1952 
C 787 1952 922 2080 922 2221 
C 922 2246 915 2278 909 2323 
C 896 2381 890 2432 890 2477 
C 890 2650 1094 2790 1350 2790 
C 1664 2790 1837 2605 1837 2259 
L 1837 1869 
C 851 1472 742 1421 467 1178 
C 326 1050 237 832 237 621 
C 237 218 518 -64 909 -64 
C 1190 -64 1453 70 1843 403 
C 1875 70 1990 -64 2253 -64 
C 2470 -64 2605 13 2829 256 
L 2829 423 
z
M 1837 783 
C 1837 584 1805 526 1670 449 
C 1517 359 1338 301 1203 301 
C 979 301 800 520 800 796 
L 800 822 
C 800 1201 1062 1433 1837 1715 
L 1837 783 
z
" transform="scale(0.015625)"/>
      <path id="NimbusRomNo9L-Regu-62" d="M 979 4364 
L 947 4377 
C 678 4281 506 4230 205 4147 
L 19 4096 
L 19 3994 
C 58 4000 83 4000 128 4000 
C 384 4000 442 3942 442 3673 
L 442 347 
C 442 147 986 -64 1498 -64 
C 2342 -64 2995 640 2995 1555 
C 2995 2342 2509 2944 1869 2944 
C 1478 2944 1107 2714 979 2400 
L 979 4364 
z
M 979 2061 
C 979 2310 1280 2541 1613 2541 
C 2112 2541 2432 2042 2432 1261 
C 2432 550 2125 141 1600 141 
C 1267 141 979 288 979 448 
L 979 2061 
z
" transform="scale(0.015625)"/>
      <path id="NimbusRomNo9L-Regu-2d" d="M 250 1619 
L 250 1216 
L 1824 1216 
L 1824 1619 
L 250 1619 
z
" transform="scale(0.015625)"/>
      <path id="NimbusRomNo9L-Regu-41" d="M 4518 128 
C 4230 128 4166 192 3942 667 
L 2349 4320 
L 2221 4320 
L 890 1168 
C 480 231 403 128 96 128 
L 96 0 
L 1363 0 
L 1363 128 
C 1056 128 928 212 928 393 
C 928 470 947 560 979 645 
L 1274 1401 
L 2950 1401 
L 3213 778 
C 3290 602 3334 434 3334 342 
C 3334 180 3226 128 2886 128 
L 2886 0 
L 4518 0 
L 4518 128 
z
M 1382 1664 
L 2118 3416 
L 2861 1664 
L 1382 1664 
z
" transform="scale(0.015625)"/>
      <path id="NimbusRomNo9L-Regu-6c" d="M 122 4000 
L 160 4000 
C 230 4000 307 4000 358 4000 
C 563 4000 627 3910 627 3610 
L 627 557 
C 627 211 538 128 134 96 
L 134 0 
L 1645 0 
L 1645 109 
C 1242 109 1165 173 1165 528 
L 1165 4371 
L 1139 4384 
C 806 4275 563 4211 122 4103 
L 122 4000 
z
" transform="scale(0.015625)"/>
      <path id="NimbusRomNo9L-Regu-6d" d="M 122 2547 
C 205 2566 256 2573 326 2573 
C 493 2573 550 2470 550 2162 
L 550 539 
C 550 192 461 96 102 96 
L 102 0 
L 1523 0 
L 1523 96 
C 1184 96 1088 166 1088 418 
L 1088 2234 
C 1088 2246 1139 2310 1184 2355 
C 1344 2502 1619 2611 1843 2611 
C 2125 2611 2266 2385 2266 1932 
L 2266 528 
C 2266 167 2195 96 1830 96 
L 1830 0 
L 3264 0 
L 3264 96 
C 2899 96 2803 205 2803 603 
L 2803 2221 
C 2995 2496 3206 2611 3501 2611 
C 3866 2611 3981 2438 3981 1907 
L 3981 557 
C 3981 192 3930 141 3558 96 
L 3558 0 
L 4960 0 
L 4960 96 
L 4794 115 
C 4602 115 4518 230 4518 480 
L 4518 1802 
C 4518 2559 4269 2944 3776 2944 
C 3405 2944 3078 2778 2733 2407 
C 2618 2771 2400 2944 2054 2944 
C 1773 2944 1594 2854 1062 2451 
L 1062 2931 
L 1018 2944 
C 691 2822 474 2752 122 2656 
L 122 2547 
z
" transform="scale(0.015625)"/>
      <path id="NimbusRomNo9L-Regu-3d" d="M 3418 2470 
L 192 2470 
L 192 2048 
L 3418 2048 
L 3418 2470 
z
M 3418 1190 
L 192 1190 
L 192 768 
L 3418 768 
L 3418 1190 
z
" transform="scale(0.015625)"/>
      <path id="NimbusRomNo9L-Regu-31" d="M 1862 4339 
L 710 3757 
L 710 3667 
C 787 3699 858 3725 883 3738 
C 998 3783 1107 3808 1171 3808 
C 1306 3808 1363 3711 1363 3505 
L 1363 592 
C 1363 379 1312 232 1210 173 
C 1114 116 1024 96 755 96 
L 755 0 
L 2522 0 
L 2522 96 
C 2016 96 1914 160 1914 470 
L 1914 4327 
L 1862 4339 
z
" transform="scale(0.015625)"/>
      <path id="NimbusRomNo9L-Regu-48" d="M 1338 2304 
L 1338 3533 
C 1338 3990 1408 4059 1901 4104 
L 1901 4224 
L 122 4224 
L 122 4104 
C 614 4059 685 3989 685 3527 
L 685 749 
C 685 210 621 134 122 134 
L 122 0 
L 1901 0 
L 1901 121 
C 1421 159 1338 242 1338 699 
L 1338 2022 
L 3277 2022 
L 3277 757 
C 3277 211 3213 134 2714 134 
L 2714 0 
L 4493 0 
L 4493 121 
C 4013 159 3930 242 3930 696 
L 3930 3529 
C 3930 3989 4000 4059 4493 4104 
L 4493 4224 
L 2714 4224 
L 2714 4104 
C 3206 4059 3277 3990 3277 3533 
L 3277 2304 
L 1338 2304 
z
" transform="scale(0.015625)"/>
      <path id="NimbusRomNo9L-Regu-3a" d="M 870 2944 
C 678 2944 518 2777 518 2579 
C 518 2393 678 2233 864 2233 
C 1062 2233 1229 2393 1229 2579 
C 1229 2777 1062 2944 870 2944 
z
M 870 646 
C 678 646 518 480 518 281 
C 518 96 678 -64 864 -64 
C 1062 -64 1229 96 1229 281 
C 1229 480 1062 646 870 646 
z
" transform="scale(0.015625)"/>
      <path id="NimbusRomNo9L-Regu-30" d="M 1626 4352 
C 1274 4352 1005 4244 768 4020 
C 397 3661 154 2925 154 2176 
C 154 1479 365 730 666 372 
C 902 90 1229 -64 1600 -64 
C 1926 -64 2202 45 2432 269 
C 2803 621 3046 1364 3046 2138 
C 3046 3450 2464 4352 1626 4352 
z
M 1606 4186 
C 2144 4186 2432 3463 2432 2125 
C 2432 788 2150 103 1600 103 
C 1050 103 768 788 768 2119 
C 768 3476 1056 4186 1606 4186 
z
" transform="scale(0.015625)"/>
      <path id="NimbusRomNo9L-Regu-2e" d="M 800 646 
C 608 646 448 480 448 281 
C 448 96 608 -64 794 -64 
C 992 -64 1158 96 1158 281 
C 1158 480 992 646 800 646 
z
" transform="scale(0.015625)"/>
      <path id="NimbusRomNo9L-Regu-35" d="M 1158 3776 
L 2413 3776 
C 2515 3776 2541 3789 2560 3834 
L 2803 4403 
L 2746 4448 
C 2650 4314 2586 4282 2451 4282 
L 1114 4282 
L 416 2759 
C 410 2746 410 2740 410 2727 
C 410 2695 435 2676 486 2676 
C 691 2676 947 2631 1210 2547 
C 1946 2309 2285 1910 2285 1274 
C 2285 656 1894 173 1395 173 
C 1267 173 1158 218 966 360 
C 762 508 614 572 480 572 
C 294 572 205 495 205 334 
C 205 90 506 -64 986 -64 
C 1523 -64 1984 110 2304 438 
C 2598 728 2733 1094 2733 1583 
C 2733 2046 2611 2342 2291 2663 
C 2010 2947 1645 3094 890 3229 
L 1158 3776 
z
" transform="scale(0.015625)"/>
      <path id="NimbusRomNo9L-Regu-25" d="M 4282 2368 
C 3558 2368 2874 1622 2874 824 
C 2874 325 3181 0 3642 0 
C 3930 0 4166 102 4390 325 
C 4730 670 4941 1187 4941 1686 
C 4941 2120 4698 2368 4282 2368 
z
M 4326 2164 
C 4570 2164 4774 1934 4774 1654 
C 4774 1290 4614 856 4371 556 
C 4166 301 3981 192 3750 192 
C 3520 192 3360 357 3360 601 
C 3360 939 3539 1462 3776 1793 
C 3949 2048 4128 2164 4326 2164 
z
M 4058 4320 
L 3808 4320 
C 3462 4008 3206 3904 2810 3904 
C 2554 3904 2406 3946 2253 4064 
C 2086 4194 2003 4224 1805 4224 
C 1075 4224 390 3468 390 2662 
C 390 2217 730 1856 1146 1856 
C 1421 1856 1709 1984 1920 2209 
C 2253 2549 2458 3056 2458 3526 
C 2458 3615 2445 3693 2413 3808 
C 2528 3763 2643 3744 2829 3744 
C 3110 3744 3277 3788 3533 3931 
L 1286 -96 
L 1594 -96 
L 4058 4320 
z
M 2240 3829 
C 2278 3702 2298 3607 2298 3518 
C 2298 2802 1773 2073 1254 2073 
C 1030 2073 877 2231 877 2460 
C 877 2726 1005 3157 1178 3474 
C 1363 3816 1606 4032 1805 4032 
C 1837 4032 1850 4025 1888 3993 
C 1978 3911 2054 3879 2240 3829 
z
" transform="scale(0.015625)"/>
     </defs>
     <use xlink:href="#NimbusRomNo9L-Regu-42" transform="scale(0.996264)"/>
     <use xlink:href="#NimbusRomNo9L-Regu-61" transform="translate(66.450031 0) scale(0.996264)"/>
     <use xlink:href="#NimbusRomNo9L-Regu-72" transform="translate(110.6836 0) scale(0.996264)"/>
     <use xlink:href="#NimbusRomNo9L-Regu-61" transform="translate(143.85883 0) scale(0.996264)"/>
     <use xlink:href="#NimbusRomNo9L-Regu-62" transform="translate(188.092398 0) scale(0.996264)"/>
     <use xlink:href="#NimbusRomNo9L-Regu-b4" transform="translate(243.434776 0.498056) scale(0.996264)"/>
     <use xlink:href="#NimbusRomNo9L-Regu-61" transform="translate(237.905599 0) scale(0.996264)"/>
     <use xlink:href="#NimbusRomNo9L-Regu-73" transform="translate(282.139167 0) scale(0.996264)"/>
     <use xlink:href="#NimbusRomNo9L-Regu-69" transform="translate(320.892874 0) scale(0.996264)"/>
     <use xlink:href="#NimbusRomNo9L-Regu-2d" transform="translate(348.588043 0) scale(0.996264)"/>
     <use xlink:href="#NimbusRomNo9L-Regu-41" transform="translate(381.763273 0) scale(0.996264)"/>
     <use xlink:href="#NimbusRomNo9L-Regu-6c" transform="translate(453.693258 0) scale(0.996264)"/>
     <use xlink:href="#NimbusRomNo9L-Regu-62" transform="translate(481.388427 0) scale(0.996264)"/>
     <use xlink:href="#NimbusRomNo9L-Regu-65" transform="translate(531.201628 0) scale(0.996264)"/>
     <use xlink:href="#NimbusRomNo9L-Regu-72" transform="translate(575.435197 0) scale(0.996264)"/>
     <use xlink:href="#NimbusRomNo9L-Regu-74" transform="translate(608.610426 0) scale(0.996264)"/>
     <use xlink:href="#NimbusRomNo9L-Regu-28" transform="translate(672.171161 0) scale(0.996264)"/>
     <use xlink:href="#NimbusRomNo9L-Regu-6d" transform="translate(705.346391 0) scale(0.996264)"/>
     <use xlink:href="#NimbusRomNo9L-Regu-3d" transform="translate(782.854761 0) scale(0.996264)"/>
     <use xlink:href="#NimbusRomNo9L-Regu-31" transform="translate(839.043011 0) scale(0.996264)"/>
     <use xlink:href="#NimbusRomNo9L-Regu-29" transform="translate(888.856212 0) scale(0.996264)"/>
     <use xlink:href="#NimbusRomNo9L-Regu-2d" transform="translate(946.938042 0) scale(0.996264)"/>
     <use xlink:href="#NimbusRomNo9L-Regu-48" transform="translate(1005.019872 0) scale(0.996264)"/>
     <use xlink:href="#NimbusRomNo9L-Regu-3a" transform="translate(1076.949857 0) scale(0.996264)"/>
     <use xlink:href="#NimbusRomNo9L-Regu-30" transform="translate(1129.551626 0) scale(0.996264)"/>
     <use xlink:href="#NimbusRomNo9L-Regu-2e" transform="translate(1179.364827 0) scale(0.996264)"/>
     <use xlink:href="#NimbusRomNo9L-Regu-35" transform="translate(1204.271427 0) scale(0.996264)"/>
     <use xlink:href="#NimbusRomNo9L-Regu-25" transform="translate(1254.084628 0) scale(0.996264)"/>
     <path d="M 642.282937 0 
L 672.171161 0 
L 672.171161 0.3985 
L 642.282937 0.3985 
L 642.282937 0 
z
"/>
    </g>
    <!-- Masa crtica: 75\% - Nodos perifericos (H) -->
    <g transform="translate(3.6 29.893216) scale(0.096 -0.096)">
     <defs>
      <path id="NimbusRomNo9L-Regu-11" d="M 1120 2950 
L 128 2598 
L 128 2502 
L 179 2508 
C 256 2521 339 2528 397 2528 
C 550 2528 608 2424 608 2141 
L 608 644 
C 608 180 544 109 102 109 
L 102 0 
L 1619 0 
L 1619 96 
C 1197 128 1146 192 1146 654 
L 1146 2931 
L 1120 2950 
z
" transform="scale(0.015625)"/>
      <path id="NimbusRomNo9L-Regu-37" d="M 2874 4250 
L 506 4250 
L 128 3310 
L 237 3258 
C 512 3693 627 3776 979 3776 
L 2368 3776 
L 1101 -32 
L 1517 -32 
L 2874 4148 
L 2874 4250 
z
" transform="scale(0.015625)"/>
      <path id="NimbusRomNo9L-Regu-4e" d="M 3917 -64 
L 3917 3287 
C 3917 3669 3981 3905 4102 3987 
C 4192 4051 4282 4077 4525 4102 
L 4525 4224 
L 3021 4224 
L 3021 4102 
C 3264 4083 3354 4057 3450 4000 
C 3578 3911 3635 3681 3635 3286 
L 3635 1136 
L 1171 4224 
L 77 4224 
L 77 4102 
C 352 4102 442 4051 698 3751 
L 698 938 
C 698 281 608 159 77 121 
L 77 0 
L 1581 0 
L 1581 134 
C 1088 134 979 281 979 928 
L 979 3439 
L 3808 -64 
L 3917 -64 
z
" transform="scale(0.015625)"/>
      <path id="NimbusRomNo9L-Regu-66" d="M 1978 2880 
L 1190 2880 
L 1190 3611 
C 1190 3978 1312 4173 1555 4173 
C 1690 4173 1779 4110 1894 3927 
C 1997 3763 2074 3700 2182 3700 
C 2330 3700 2451 3814 2451 3959 
C 2451 4188 2170 4352 1786 4352 
C 1389 4352 1050 4181 883 3891 
C 717 3613 666 3385 659 2880 
L 134 2880 
L 134 2675 
L 659 2675 
L 659 656 
C 659 185 589 109 128 109 
L 128 0 
L 1792 0 
L 1792 109 
C 1267 109 1197 180 1197 661 
L 1197 2675 
L 1978 2675 
L 1978 2880 
z
" transform="scale(0.015625)"/>
     </defs>
     <use xlink:href="#NimbusRomNo9L-Regu-4d" transform="scale(0.996264)"/>
     <use xlink:href="#NimbusRomNo9L-Regu-61" transform="translate(88.566907 0) scale(0.996264)"/>
     <use xlink:href="#NimbusRomNo9L-Regu-73" transform="translate(132.800475 0) scale(0.996264)"/>
     <use xlink:href="#NimbusRomNo9L-Regu-61" transform="translate(171.554182 0) scale(0.996264)"/>
     <use xlink:href="#NimbusRomNo9L-Regu-63" transform="translate(240.694351 0) scale(0.996264)"/>
     <use xlink:href="#NimbusRomNo9L-Regu-72" transform="translate(284.927919 0) scale(0.996264)"/>
     <use xlink:href="#NimbusRomNo9L-Regu-b4" transform="translate(315.363119 0.498056) scale(0.996264)"/>
     <use xlink:href="#NimbusRomNo9L-Regu-11" transform="translate(318.103149 0) scale(0.996264)"/>
     <use xlink:href="#NimbusRomNo9L-Regu-74" transform="translate(345.798319 0) scale(0.996264)"/>
     <use xlink:href="#NimbusRomNo9L-Regu-69" transform="translate(373.493488 0) scale(0.996264)"/>
     <use xlink:href="#NimbusRomNo9L-Regu-63" transform="translate(401.188658 0) scale(0.996264)"/>
     <use xlink:href="#NimbusRomNo9L-Regu-61" transform="translate(445.422226 0) scale(0.996264)"/>
     <use xlink:href="#NimbusRomNo9L-Regu-3a" transform="translate(489.655795 0) scale(0.996264)"/>
     <use xlink:href="#NimbusRomNo9L-Regu-37" transform="translate(548.234997 0) scale(0.996264)"/>
     <use xlink:href="#NimbusRomNo9L-Regu-35" transform="translate(598.048198 0) scale(0.996264)"/>
     <use xlink:href="#NimbusRomNo9L-Regu-25" transform="translate(647.861398 0) scale(0.996264)"/>
     <use xlink:href="#NimbusRomNo9L-Regu-2d" transform="translate(755.756429 0) scale(0.996264)"/>
     <use xlink:href="#NimbusRomNo9L-Regu-4e" transform="translate(813.838259 0) scale(0.996264)"/>
     <use xlink:href="#NimbusRomNo9L-Regu-6f" transform="translate(885.768243 0) scale(0.996264)"/>
     <use xlink:href="#NimbusRomNo9L-Regu-64" transform="translate(935.581444 0) scale(0.996264)"/>
     <use xlink:href="#NimbusRomNo9L-Regu-6f" transform="translate(985.394644 0) scale(0.996264)"/>
     <use xlink:href="#NimbusRomNo9L-Regu-73" transform="translate(1035.207845 0) scale(0.996264)"/>
     <use xlink:href="#NimbusRomNo9L-Regu-70" transform="translate(1098.868151 0) scale(0.996264)"/>
     <use xlink:href="#NimbusRomNo9L-Regu-65" transform="translate(1148.681352 0) scale(0.996264)"/>
     <use xlink:href="#NimbusRomNo9L-Regu-72" transform="translate(1192.91492 0) scale(0.996264)"/>
     <use xlink:href="#NimbusRomNo9L-Regu-69" transform="translate(1226.09015 0) scale(0.996264)"/>
     <use xlink:href="#NimbusRomNo9L-Regu-66" transform="translate(1253.78532 0) scale(0.996264)"/>
     <use xlink:href="#NimbusRomNo9L-Regu-65" transform="translate(1286.96055 0) scale(0.996264)"/>
     <use xlink:href="#NimbusRomNo9L-Regu-72" transform="translate(1331.194118 0) scale(0.996264)"/>
     <use xlink:href="#NimbusRomNo9L-Regu-69" transform="translate(1364.369348 0) scale(0.996264)"/>
     <use xlink:href="#NimbusRomNo9L-Regu-63" transform="translate(1392.064518 0) scale(0.996264)"/>
     <use xlink:href="#NimbusRomNo9L-Regu-6f" transform="translate(1436.298086 0) scale(0.996264)"/>
     <use xlink:href="#NimbusRomNo9L-Regu-73" transform="translate(1486.111287 0) scale(0.996264)"/>
     <use xlink:href="#NimbusRomNo9L-Regu-28" transform="translate(1549.771593 0) scale(0.996264)"/>
     <use xlink:href="#NimbusRomNo9L-Regu-48" transform="translate(1582.946823 0) scale(0.996264)"/>
     <use xlink:href="#NimbusRomNo9L-Regu-29" transform="translate(1654.876808 0) scale(0.996264)"/>
    </g>
   </g>
  </g>
 </g>
 <defs>
  <clipPath id="pecdd53dc69">
   <rect x="14.876427" y="35.893216" width="139.5" height="138.6"/>
  </clipPath>
 </defs>
</svg>
