<?xml version="1.0" encoding="utf-8" standalone="no"?>
<!DOCTYPE svg PUBLIC "-//W3C//DTD SVG 1.1//EN"
  "http://www.w3.org/Graphics/SVG/1.1/DTD/svg11.dtd">
<svg xmlns:xlink="http://www.w3.org/1999/xlink" width="160.377745pt" height="188.664963pt" viewBox="0 0 160.377745 188.664963" xmlns="http://www.w3.org/2000/svg" version="1.1">
 <metadata>
  <rdf:RDF xmlns:dc="http://purl.org/dc/elements/1.1/" xmlns:cc="http://creativecommons.org/ns#" xmlns:rdf="http://www.w3.org/1999/02/22-rdf-syntax-ns#">
   <cc:Work>
    <dc:type rdf:resource="http://purl.org/dc/dcmitype/StillImage"/>
    <dc:date>2025-06-25T14:01:55.531369</dc:date>
    <dc:format>image/svg+xml</dc:format>
    <dc:creator>
     <cc:Agent>
      <dc:title>Matplotlib v3.10.1, https://matplotlib.org/</dc:title>
     </cc:Agent>
    </dc:creator>
   </cc:Work>
  </rdf:RDF>
 </metadata>
 <defs>
  <style type="text/css">*{stroke-linejoin: round; stroke-linecap: butt}</style>
 </defs>
 <g id="figure_1">
  <g id="patch_1">
   <path d="M 0 188.664963 
L 160.377745 188.664963 
L 160.377745 0 
L 0 0 
z
" style="fill: #ffffff"/>
  </g>
  <g id="axes_1">
   <g id="patch_2">
    <path d="M 17.277745 174.435844 
L 156.777745 174.435844 
L 156.777745 35.835844 
L 17.277745 35.835844 
z
" style="fill: #ffffff"/>
   </g>
   <g id="matplotlib.axis_1">
    <g id="xtick_1">
     <g id="line2d_1">
      <path d="M 17.277745 174.435844 
L 17.277745 35.835844 
" clip-path="url(#p564eb1b984)" style="fill: none; stroke-dasharray: 1.85,0.8; stroke-dashoffset: 0; stroke: #b0b0b0; stroke-opacity: 0.6; stroke-width: 0.5"/>
     </g>
     <g id="line2d_2">
      <defs>
       <path id="m0576f0ed09" d="M 0 0 
L 0 -3 
" style="stroke: #000000; stroke-width: 0.5"/>
      </defs>
      <g>
       <use xlink:href="#m0576f0ed09" x="17.277745" y="174.435844" style="stroke: #000000; stroke-width: 0.5"/>
      </g>
     </g>
     <g id="line2d_3">
      <defs>
       <path id="m917507739b" d="M 0 0 
L 0 3 
" style="stroke: #000000; stroke-width: 0.5"/>
      </defs>
      <g>
       <use xlink:href="#m917507739b" x="17.277745" y="35.835844" style="stroke: #000000; stroke-width: 0.5"/>
      </g>
     </g>
     <g id="text_1">
      <!-- $\mathdefault{0}$ -->
      <g transform="translate(15.285217 183.3395) scale(0.08 -0.08)">
       <defs>
        <path id="NimbusRomNo9L-Regu-30" d="M 1626 4352 
C 1274 4352 1005 4244 768 4020 
C 397 3661 154 2925 154 2176 
C 154 1479 365 730 666 372 
C 902 90 1229 -64 1600 -64 
C 1926 -64 2202 45 2432 269 
C 2803 621 3046 1364 3046 2138 
C 3046 3450 2464 4352 1626 4352 
z
M 1606 4186 
C 2144 4186 2432 3463 2432 2125 
C 2432 788 2150 103 1600 103 
C 1050 103 768 788 768 2119 
C 768 3476 1056 4186 1606 4186 
z
" transform="scale(0.015625)"/>
       </defs>
       <use xlink:href="#NimbusRomNo9L-Regu-30" transform="scale(0.996264)"/>
      </g>
     </g>
    </g>
    <g id="xtick_2">
     <g id="line2d_4">
      <path d="M 45.233657 174.435844 
L 45.233657 35.835844 
" clip-path="url(#p564eb1b984)" style="fill: none; stroke-dasharray: 1.85,0.8; stroke-dashoffset: 0; stroke: #b0b0b0; stroke-opacity: 0.6; stroke-width: 0.5"/>
     </g>
     <g id="line2d_5">
      <g>
       <use xlink:href="#m0576f0ed09" x="45.233657" y="174.435844" style="stroke: #000000; stroke-width: 0.5"/>
      </g>
     </g>
     <g id="line2d_6">
      <g>
       <use xlink:href="#m917507739b" x="45.233657" y="35.835844" style="stroke: #000000; stroke-width: 0.5"/>
      </g>
     </g>
     <g id="text_2">
      <!-- $\mathdefault{100}$ -->
      <g transform="translate(39.256073 183.3395) scale(0.08 -0.08)">
       <defs>
        <path id="NimbusRomNo9L-Regu-31" d="M 1862 4339 
L 710 3757 
L 710 3667 
C 787 3699 858 3725 883 3738 
C 998 3783 1107 3808 1171 3808 
C 1306 3808 1363 3711 1363 3505 
L 1363 592 
C 1363 379 1312 232 1210 173 
C 1114 116 1024 96 755 96 
L 755 0 
L 2522 0 
L 2522 96 
C 2016 96 1914 160 1914 470 
L 1914 4327 
L 1862 4339 
z
" transform="scale(0.015625)"/>
       </defs>
       <use xlink:href="#NimbusRomNo9L-Regu-31" transform="scale(0.996264)"/>
       <use xlink:href="#NimbusRomNo9L-Regu-30" transform="translate(49.8132 0) scale(0.996264)"/>
       <use xlink:href="#NimbusRomNo9L-Regu-30" transform="translate(99.626401 0) scale(0.996264)"/>
      </g>
     </g>
    </g>
    <g id="xtick_3">
     <g id="line2d_7">
      <path d="M 73.189569 174.435844 
L 73.189569 35.835844 
" clip-path="url(#p564eb1b984)" style="fill: none; stroke-dasharray: 1.85,0.8; stroke-dashoffset: 0; stroke: #b0b0b0; stroke-opacity: 0.6; stroke-width: 0.5"/>
     </g>
     <g id="line2d_8">
      <g>
       <use xlink:href="#m0576f0ed09" x="73.189569" y="174.435844" style="stroke: #000000; stroke-width: 0.5"/>
      </g>
     </g>
     <g id="line2d_9">
      <g>
       <use xlink:href="#m917507739b" x="73.189569" y="35.835844" style="stroke: #000000; stroke-width: 0.5"/>
      </g>
     </g>
     <g id="text_3">
      <!-- $\mathdefault{200}$ -->
      <g transform="translate(67.211985 183.3395) scale(0.08 -0.08)">
       <defs>
        <path id="NimbusRomNo9L-Regu-32" d="M 3040 875 
L 2957 907 
C 2720 544 2637 486 2349 486 
L 819 486 
L 1894 1609 
C 2464 2202 2714 2687 2714 3185 
C 2714 3823 2195 4313 1530 4313 
C 1178 4313 845 4173 608 3918 
C 403 3700 307 3496 198 3043 
L 333 3011 
C 589 3636 819 3840 1261 3840 
C 1798 3840 2163 3476 2163 2940 
C 2163 2443 1869 1850 1331 1282 
L 192 77 
L 192 0 
L 2688 0 
L 3040 875 
z
" transform="scale(0.015625)"/>
       </defs>
       <use xlink:href="#NimbusRomNo9L-Regu-32" transform="scale(0.996264)"/>
       <use xlink:href="#NimbusRomNo9L-Regu-30" transform="translate(49.8132 0) scale(0.996264)"/>
       <use xlink:href="#NimbusRomNo9L-Regu-30" transform="translate(99.626401 0) scale(0.996264)"/>
      </g>
     </g>
    </g>
    <g id="xtick_4">
     <g id="line2d_10">
      <path d="M 101.145481 174.435844 
L 101.145481 35.835844 
" clip-path="url(#p564eb1b984)" style="fill: none; stroke-dasharray: 1.85,0.8; stroke-dashoffset: 0; stroke: #b0b0b0; stroke-opacity: 0.6; stroke-width: 0.5"/>
     </g>
     <g id="line2d_11">
      <g>
       <use xlink:href="#m0576f0ed09" x="101.145481" y="174.435844" style="stroke: #000000; stroke-width: 0.5"/>
      </g>
     </g>
     <g id="line2d_12">
      <g>
       <use xlink:href="#m917507739b" x="101.145481" y="35.835844" style="stroke: #000000; stroke-width: 0.5"/>
      </g>
     </g>
     <g id="text_4">
      <!-- $\mathdefault{300}$ -->
      <g transform="translate(95.167897 183.3395) scale(0.08 -0.08)">
       <defs>
        <path id="NimbusRomNo9L-Regu-33" d="M 979 2138 
C 1357 2138 1504 2125 1658 2068 
C 2054 1927 2304 1562 2304 1120 
C 2304 583 1939 167 1466 167 
C 1293 167 1165 212 928 365 
C 736 480 627 525 518 525 
C 371 525 275 436 275 301 
C 275 77 550 -64 998 -64 
C 1491 -64 1997 103 2298 365 
C 2598 628 2765 999 2765 1428 
C 2765 1754 2662 2055 2477 2253 
C 2349 2394 2227 2471 1946 2592 
C 2387 2893 2547 3130 2547 3476 
C 2547 3994 2138 4352 1549 4352 
C 1229 4352 947 4244 717 4039 
C 525 3866 429 3699 288 3315 
L 384 3290 
C 646 3757 934 3968 1338 3968 
C 1754 3968 2042 3687 2042 3284 
C 2042 3053 1946 2823 1786 2663 
C 1594 2471 1414 2375 979 2221 
L 979 2138 
z
" transform="scale(0.015625)"/>
       </defs>
       <use xlink:href="#NimbusRomNo9L-Regu-33" transform="scale(0.996264)"/>
       <use xlink:href="#NimbusRomNo9L-Regu-30" transform="translate(49.8132 0) scale(0.996264)"/>
       <use xlink:href="#NimbusRomNo9L-Regu-30" transform="translate(99.626401 0) scale(0.996264)"/>
      </g>
     </g>
    </g>
    <g id="xtick_5">
     <g id="line2d_13">
      <path d="M 129.101393 174.435844 
L 129.101393 35.835844 
" clip-path="url(#p564eb1b984)" style="fill: none; stroke-dasharray: 1.85,0.8; stroke-dashoffset: 0; stroke: #b0b0b0; stroke-opacity: 0.6; stroke-width: 0.5"/>
     </g>
     <g id="line2d_14">
      <g>
       <use xlink:href="#m0576f0ed09" x="129.101393" y="174.435844" style="stroke: #000000; stroke-width: 0.5"/>
      </g>
     </g>
     <g id="line2d_15">
      <g>
       <use xlink:href="#m917507739b" x="129.101393" y="35.835844" style="stroke: #000000; stroke-width: 0.5"/>
      </g>
     </g>
     <g id="text_5">
      <!-- $\mathdefault{400}$ -->
      <g transform="translate(123.123809 183.3395) scale(0.08 -0.08)">
       <defs>
        <path id="NimbusRomNo9L-Regu-34" d="M 3021 1497 
L 2368 1497 
L 2368 4352 
L 2086 4352 
L 77 1497 
L 77 1088 
L 1875 1088 
L 1875 32 
L 2368 32 
L 2368 1088 
L 3021 1088 
L 3021 1497 
z
M 1869 1497 
L 333 1497 
L 1869 3698 
L 1869 1497 
z
" transform="scale(0.015625)"/>
       </defs>
       <use xlink:href="#NimbusRomNo9L-Regu-34" transform="scale(0.996264)"/>
       <use xlink:href="#NimbusRomNo9L-Regu-30" transform="translate(49.8132 0) scale(0.996264)"/>
       <use xlink:href="#NimbusRomNo9L-Regu-30" transform="translate(99.626401 0) scale(0.996264)"/>
      </g>
     </g>
    </g>
    <g id="xtick_6">
     <g id="line2d_16">
      <defs>
       <path id="m44b59a5b67" d="M 0 0 
L 0 -1.5 
" style="stroke: #000000; stroke-width: 0.5"/>
      </defs>
      <g>
       <use xlink:href="#m44b59a5b67" x="22.868928" y="174.435844" style="stroke: #000000; stroke-width: 0.5"/>
      </g>
     </g>
     <g id="line2d_17">
      <defs>
       <path id="m1852f8edd9" d="M 0 0 
L 0 1.5 
" style="stroke: #000000; stroke-width: 0.5"/>
      </defs>
      <g>
       <use xlink:href="#m1852f8edd9" x="22.868928" y="35.835844" style="stroke: #000000; stroke-width: 0.5"/>
      </g>
     </g>
    </g>
    <g id="xtick_7">
     <g id="line2d_18">
      <g>
       <use xlink:href="#m44b59a5b67" x="28.46011" y="174.435844" style="stroke: #000000; stroke-width: 0.5"/>
      </g>
     </g>
     <g id="line2d_19">
      <g>
       <use xlink:href="#m1852f8edd9" x="28.46011" y="35.835844" style="stroke: #000000; stroke-width: 0.5"/>
      </g>
     </g>
    </g>
    <g id="xtick_8">
     <g id="line2d_20">
      <g>
       <use xlink:href="#m44b59a5b67" x="34.051292" y="174.435844" style="stroke: #000000; stroke-width: 0.5"/>
      </g>
     </g>
     <g id="line2d_21">
      <g>
       <use xlink:href="#m1852f8edd9" x="34.051292" y="35.835844" style="stroke: #000000; stroke-width: 0.5"/>
      </g>
     </g>
    </g>
    <g id="xtick_9">
     <g id="line2d_22">
      <g>
       <use xlink:href="#m44b59a5b67" x="39.642475" y="174.435844" style="stroke: #000000; stroke-width: 0.5"/>
      </g>
     </g>
     <g id="line2d_23">
      <g>
       <use xlink:href="#m1852f8edd9" x="39.642475" y="35.835844" style="stroke: #000000; stroke-width: 0.5"/>
      </g>
     </g>
    </g>
    <g id="xtick_10">
     <g id="line2d_24">
      <g>
       <use xlink:href="#m44b59a5b67" x="50.82484" y="174.435844" style="stroke: #000000; stroke-width: 0.5"/>
      </g>
     </g>
     <g id="line2d_25">
      <g>
       <use xlink:href="#m1852f8edd9" x="50.82484" y="35.835844" style="stroke: #000000; stroke-width: 0.5"/>
      </g>
     </g>
    </g>
    <g id="xtick_11">
     <g id="line2d_26">
      <g>
       <use xlink:href="#m44b59a5b67" x="56.416022" y="174.435844" style="stroke: #000000; stroke-width: 0.5"/>
      </g>
     </g>
     <g id="line2d_27">
      <g>
       <use xlink:href="#m1852f8edd9" x="56.416022" y="35.835844" style="stroke: #000000; stroke-width: 0.5"/>
      </g>
     </g>
    </g>
    <g id="xtick_12">
     <g id="line2d_28">
      <g>
       <use xlink:href="#m44b59a5b67" x="62.007204" y="174.435844" style="stroke: #000000; stroke-width: 0.5"/>
      </g>
     </g>
     <g id="line2d_29">
      <g>
       <use xlink:href="#m1852f8edd9" x="62.007204" y="35.835844" style="stroke: #000000; stroke-width: 0.5"/>
      </g>
     </g>
    </g>
    <g id="xtick_13">
     <g id="line2d_30">
      <g>
       <use xlink:href="#m44b59a5b67" x="67.598387" y="174.435844" style="stroke: #000000; stroke-width: 0.5"/>
      </g>
     </g>
     <g id="line2d_31">
      <g>
       <use xlink:href="#m1852f8edd9" x="67.598387" y="35.835844" style="stroke: #000000; stroke-width: 0.5"/>
      </g>
     </g>
    </g>
    <g id="xtick_14">
     <g id="line2d_32">
      <g>
       <use xlink:href="#m44b59a5b67" x="78.780751" y="174.435844" style="stroke: #000000; stroke-width: 0.5"/>
      </g>
     </g>
     <g id="line2d_33">
      <g>
       <use xlink:href="#m1852f8edd9" x="78.780751" y="35.835844" style="stroke: #000000; stroke-width: 0.5"/>
      </g>
     </g>
    </g>
    <g id="xtick_15">
     <g id="line2d_34">
      <g>
       <use xlink:href="#m44b59a5b67" x="84.371934" y="174.435844" style="stroke: #000000; stroke-width: 0.5"/>
      </g>
     </g>
     <g id="line2d_35">
      <g>
       <use xlink:href="#m1852f8edd9" x="84.371934" y="35.835844" style="stroke: #000000; stroke-width: 0.5"/>
      </g>
     </g>
    </g>
    <g id="xtick_16">
     <g id="line2d_36">
      <g>
       <use xlink:href="#m44b59a5b67" x="89.963116" y="174.435844" style="stroke: #000000; stroke-width: 0.5"/>
      </g>
     </g>
     <g id="line2d_37">
      <g>
       <use xlink:href="#m1852f8edd9" x="89.963116" y="35.835844" style="stroke: #000000; stroke-width: 0.5"/>
      </g>
     </g>
    </g>
    <g id="xtick_17">
     <g id="line2d_38">
      <g>
       <use xlink:href="#m44b59a5b67" x="95.554298" y="174.435844" style="stroke: #000000; stroke-width: 0.5"/>
      </g>
     </g>
     <g id="line2d_39">
      <g>
       <use xlink:href="#m1852f8edd9" x="95.554298" y="35.835844" style="stroke: #000000; stroke-width: 0.5"/>
      </g>
     </g>
    </g>
    <g id="xtick_18">
     <g id="line2d_40">
      <g>
       <use xlink:href="#m44b59a5b67" x="106.736663" y="174.435844" style="stroke: #000000; stroke-width: 0.5"/>
      </g>
     </g>
     <g id="line2d_41">
      <g>
       <use xlink:href="#m1852f8edd9" x="106.736663" y="35.835844" style="stroke: #000000; stroke-width: 0.5"/>
      </g>
     </g>
    </g>
    <g id="xtick_19">
     <g id="line2d_42">
      <g>
       <use xlink:href="#m44b59a5b67" x="112.327846" y="174.435844" style="stroke: #000000; stroke-width: 0.5"/>
      </g>
     </g>
     <g id="line2d_43">
      <g>
       <use xlink:href="#m1852f8edd9" x="112.327846" y="35.835844" style="stroke: #000000; stroke-width: 0.5"/>
      </g>
     </g>
    </g>
    <g id="xtick_20">
     <g id="line2d_44">
      <g>
       <use xlink:href="#m44b59a5b67" x="117.919028" y="174.435844" style="stroke: #000000; stroke-width: 0.5"/>
      </g>
     </g>
     <g id="line2d_45">
      <g>
       <use xlink:href="#m1852f8edd9" x="117.919028" y="35.835844" style="stroke: #000000; stroke-width: 0.5"/>
      </g>
     </g>
    </g>
    <g id="xtick_21">
     <g id="line2d_46">
      <g>
       <use xlink:href="#m44b59a5b67" x="123.51021" y="174.435844" style="stroke: #000000; stroke-width: 0.5"/>
      </g>
     </g>
     <g id="line2d_47">
      <g>
       <use xlink:href="#m1852f8edd9" x="123.51021" y="35.835844" style="stroke: #000000; stroke-width: 0.5"/>
      </g>
     </g>
    </g>
    <g id="xtick_22">
     <g id="line2d_48">
      <g>
       <use xlink:href="#m44b59a5b67" x="134.692575" y="174.435844" style="stroke: #000000; stroke-width: 0.5"/>
      </g>
     </g>
     <g id="line2d_49">
      <g>
       <use xlink:href="#m1852f8edd9" x="134.692575" y="35.835844" style="stroke: #000000; stroke-width: 0.5"/>
      </g>
     </g>
    </g>
    <g id="xtick_23">
     <g id="line2d_50">
      <g>
       <use xlink:href="#m44b59a5b67" x="140.283757" y="174.435844" style="stroke: #000000; stroke-width: 0.5"/>
      </g>
     </g>
     <g id="line2d_51">
      <g>
       <use xlink:href="#m1852f8edd9" x="140.283757" y="35.835844" style="stroke: #000000; stroke-width: 0.5"/>
      </g>
     </g>
    </g>
    <g id="xtick_24">
     <g id="line2d_52">
      <g>
       <use xlink:href="#m44b59a5b67" x="145.87494" y="174.435844" style="stroke: #000000; stroke-width: 0.5"/>
      </g>
     </g>
     <g id="line2d_53">
      <g>
       <use xlink:href="#m1852f8edd9" x="145.87494" y="35.835844" style="stroke: #000000; stroke-width: 0.5"/>
      </g>
     </g>
    </g>
    <g id="xtick_25">
     <g id="line2d_54">
      <g>
       <use xlink:href="#m44b59a5b67" x="151.466122" y="174.435844" style="stroke: #000000; stroke-width: 0.5"/>
      </g>
     </g>
     <g id="line2d_55">
      <g>
       <use xlink:href="#m1852f8edd9" x="151.466122" y="35.835844" style="stroke: #000000; stroke-width: 0.5"/>
      </g>
     </g>
    </g>
   </g>
   <g id="matplotlib.axis_2">
    <g id="ytick_1">
     <g id="line2d_56">
      <path d="M 17.277745 174.435844 
L 156.777745 174.435844 
" clip-path="url(#p564eb1b984)" style="fill: none; stroke-dasharray: 1.85,0.8; stroke-dashoffset: 0; stroke: #b0b0b0; stroke-opacity: 0.6; stroke-width: 0.5"/>
     </g>
     <g id="line2d_57">
      <defs>
       <path id="m15b060b696" d="M 0 0 
L 3 0 
" style="stroke: #000000; stroke-width: 0.5"/>
      </defs>
      <g>
       <use xlink:href="#m15b060b696" x="17.277745" y="174.435844" style="stroke: #000000; stroke-width: 0.5"/>
      </g>
     </g>
     <g id="line2d_58">
      <defs>
       <path id="me3bc14c677" d="M 0 0 
L -3 0 
" style="stroke: #000000; stroke-width: 0.5"/>
      </defs>
      <g>
       <use xlink:href="#me3bc14c677" x="156.777745" y="174.435844" style="stroke: #000000; stroke-width: 0.5"/>
      </g>
     </g>
     <g id="text_6">
      <!-- $\mathdefault{0.0}$ -->
      <g transform="translate(3.6 177.137672) scale(0.08 -0.08)">
       <defs>
        <path id="CMMI10-3a" d="M 1229 338 
C 1229 522 1075 675 890 675 
C 704 675 550 522 550 338 
C 550 153 704 0 890 0 
C 1075 0 1229 153 1229 338 
z
" transform="scale(0.015625)"/>
       </defs>
       <use xlink:href="#NimbusRomNo9L-Regu-30" transform="scale(0.996264)"/>
       <use xlink:href="#CMMI10-3a" transform="translate(49.8132 0) scale(0.996264)"/>
       <use xlink:href="#NimbusRomNo9L-Regu-30" transform="translate(77.408707 0) scale(0.996264)"/>
      </g>
     </g>
    </g>
    <g id="ytick_2">
     <g id="line2d_59">
      <path d="M 17.277745 146.715844 
L 156.777745 146.715844 
" clip-path="url(#p564eb1b984)" style="fill: none; stroke-dasharray: 1.85,0.8; stroke-dashoffset: 0; stroke: #b0b0b0; stroke-opacity: 0.6; stroke-width: 0.5"/>
     </g>
     <g id="line2d_60">
      <g>
       <use xlink:href="#m15b060b696" x="17.277745" y="146.715844" style="stroke: #000000; stroke-width: 0.5"/>
      </g>
     </g>
     <g id="line2d_61">
      <g>
       <use xlink:href="#me3bc14c677" x="156.777745" y="146.715844" style="stroke: #000000; stroke-width: 0.5"/>
      </g>
     </g>
     <g id="text_7">
      <!-- $\mathdefault{0.2}$ -->
      <g transform="translate(3.6 149.417672) scale(0.08 -0.08)">
       <use xlink:href="#NimbusRomNo9L-Regu-30" transform="scale(0.996264)"/>
       <use xlink:href="#CMMI10-3a" transform="translate(49.8132 0) scale(0.996264)"/>
       <use xlink:href="#NimbusRomNo9L-Regu-32" transform="translate(77.408707 0) scale(0.996264)"/>
      </g>
     </g>
    </g>
    <g id="ytick_3">
     <g id="line2d_62">
      <path d="M 17.277745 118.995844 
L 156.777745 118.995844 
" clip-path="url(#p564eb1b984)" style="fill: none; stroke-dasharray: 1.85,0.8; stroke-dashoffset: 0; stroke: #b0b0b0; stroke-opacity: 0.6; stroke-width: 0.5"/>
     </g>
     <g id="line2d_63">
      <g>
       <use xlink:href="#m15b060b696" x="17.277745" y="118.995844" style="stroke: #000000; stroke-width: 0.5"/>
      </g>
     </g>
     <g id="line2d_64">
      <g>
       <use xlink:href="#me3bc14c677" x="156.777745" y="118.995844" style="stroke: #000000; stroke-width: 0.5"/>
      </g>
     </g>
     <g id="text_8">
      <!-- $\mathdefault{0.4}$ -->
      <g transform="translate(3.6 121.697672) scale(0.08 -0.08)">
       <use xlink:href="#NimbusRomNo9L-Regu-30" transform="scale(0.996264)"/>
       <use xlink:href="#CMMI10-3a" transform="translate(49.8132 0) scale(0.996264)"/>
       <use xlink:href="#NimbusRomNo9L-Regu-34" transform="translate(77.408707 0) scale(0.996264)"/>
      </g>
     </g>
    </g>
    <g id="ytick_4">
     <g id="line2d_65">
      <path d="M 17.277745 91.275844 
L 156.777745 91.275844 
" clip-path="url(#p564eb1b984)" style="fill: none; stroke-dasharray: 1.85,0.8; stroke-dashoffset: 0; stroke: #b0b0b0; stroke-opacity: 0.6; stroke-width: 0.5"/>
     </g>
     <g id="line2d_66">
      <g>
       <use xlink:href="#m15b060b696" x="17.277745" y="91.275844" style="stroke: #000000; stroke-width: 0.5"/>
      </g>
     </g>
     <g id="line2d_67">
      <g>
       <use xlink:href="#me3bc14c677" x="156.777745" y="91.275844" style="stroke: #000000; stroke-width: 0.5"/>
      </g>
     </g>
     <g id="text_9">
      <!-- $\mathdefault{0.6}$ -->
      <g transform="translate(3.6 93.977672) scale(0.08 -0.08)">
       <defs>
        <path id="NimbusRomNo9L-Regu-36" d="M 2854 4391 
C 2125 4327 1754 4205 1286 3879 
C 595 3386 218 2656 218 1802 
C 218 1248 390 688 666 370 
C 909 89 1254 -64 1651 -64 
C 2445 -64 2995 541 2995 1421 
C 2995 2236 2528 2752 1792 2752 
C 1510 2752 1376 2707 973 2464 
C 1146 3431 1862 4122 2867 4288 
L 2854 4391 
z
M 1549 2458 
C 2099 2458 2419 2000 2419 1204 
C 2419 504 2170 116 1722 116 
C 1158 116 813 714 813 1700 
C 813 2025 864 2203 992 2299 
C 1126 2400 1325 2458 1549 2458 
z
" transform="scale(0.015625)"/>
       </defs>
       <use xlink:href="#NimbusRomNo9L-Regu-30" transform="scale(0.996264)"/>
       <use xlink:href="#CMMI10-3a" transform="translate(49.8132 0) scale(0.996264)"/>
       <use xlink:href="#NimbusRomNo9L-Regu-36" transform="translate(77.408707 0) scale(0.996264)"/>
      </g>
     </g>
    </g>
    <g id="ytick_5">
     <g id="line2d_68">
      <path d="M 17.277745 63.555844 
L 156.777745 63.555844 
" clip-path="url(#p564eb1b984)" style="fill: none; stroke-dasharray: 1.85,0.8; stroke-dashoffset: 0; stroke: #b0b0b0; stroke-opacity: 0.6; stroke-width: 0.5"/>
     </g>
     <g id="line2d_69">
      <g>
       <use xlink:href="#m15b060b696" x="17.277745" y="63.555844" style="stroke: #000000; stroke-width: 0.5"/>
      </g>
     </g>
     <g id="line2d_70">
      <g>
       <use xlink:href="#me3bc14c677" x="156.777745" y="63.555844" style="stroke: #000000; stroke-width: 0.5"/>
      </g>
     </g>
     <g id="text_10">
      <!-- $\mathdefault{0.8}$ -->
      <g transform="translate(3.6 66.257672) scale(0.08 -0.08)">
       <defs>
        <path id="NimbusRomNo9L-Regu-38" d="M 1856 2400 
C 2490 2740 2714 3008 2714 3444 
C 2714 3968 2253 4352 1613 4352 
C 915 4352 397 3924 397 3341 
C 397 2925 518 2740 1190 2151 
C 499 1626 358 1428 358 992 
C 358 372 864 -64 1587 -64 
C 2355 -64 2848 359 2848 1018 
C 2848 1511 2630 1824 1856 2400 
z
M 1741 1741 
C 2208 1408 2362 1178 2362 820 
C 2362 404 2074 116 1658 116 
C 1171 116 845 487 845 1044 
C 845 1453 986 1722 1357 2023 
L 1741 1741 
z
M 1670 2516 
C 1101 2887 870 3181 870 3540 
C 870 3911 1158 4173 1562 4173 
C 1997 4173 2272 3892 2272 3450 
C 2272 3085 2093 2797 1728 2554 
C 1696 2535 1696 2535 1670 2516 
z
" transform="scale(0.015625)"/>
       </defs>
       <use xlink:href="#NimbusRomNo9L-Regu-30" transform="scale(0.996264)"/>
       <use xlink:href="#CMMI10-3a" transform="translate(49.8132 0) scale(0.996264)"/>
       <use xlink:href="#NimbusRomNo9L-Regu-38" transform="translate(77.408707 0) scale(0.996264)"/>
      </g>
     </g>
    </g>
    <g id="ytick_6">
     <g id="line2d_71">
      <path d="M 17.277745 35.835844 
L 156.777745 35.835844 
" clip-path="url(#p564eb1b984)" style="fill: none; stroke-dasharray: 1.85,0.8; stroke-dashoffset: 0; stroke: #b0b0b0; stroke-opacity: 0.6; stroke-width: 0.5"/>
     </g>
     <g id="line2d_72">
      <g>
       <use xlink:href="#m15b060b696" x="17.277745" y="35.835844" style="stroke: #000000; stroke-width: 0.5"/>
      </g>
     </g>
     <g id="line2d_73">
      <g>
       <use xlink:href="#me3bc14c677" x="156.777745" y="35.835844" style="stroke: #000000; stroke-width: 0.5"/>
      </g>
     </g>
     <g id="text_11">
      <!-- $\mathdefault{1.0}$ -->
      <g transform="translate(3.6 38.537672) scale(0.08 -0.08)">
       <use xlink:href="#NimbusRomNo9L-Regu-31" transform="scale(0.996264)"/>
       <use xlink:href="#CMMI10-3a" transform="translate(49.8132 0) scale(0.996264)"/>
       <use xlink:href="#NimbusRomNo9L-Regu-30" transform="translate(77.408707 0) scale(0.996264)"/>
      </g>
     </g>
    </g>
    <g id="ytick_7">
     <g id="line2d_74">
      <defs>
       <path id="m9ff633dac6" d="M 0 0 
L 1.5 0 
" style="stroke: #000000; stroke-width: 0.5"/>
      </defs>
      <g>
       <use xlink:href="#m9ff633dac6" x="17.277745" y="167.505844" style="stroke: #000000; stroke-width: 0.5"/>
      </g>
     </g>
     <g id="line2d_75">
      <defs>
       <path id="m44ed3a437a" d="M 0 0 
L -1.5 0 
" style="stroke: #000000; stroke-width: 0.5"/>
      </defs>
      <g>
       <use xlink:href="#m44ed3a437a" x="156.777745" y="167.505844" style="stroke: #000000; stroke-width: 0.5"/>
      </g>
     </g>
    </g>
    <g id="ytick_8">
     <g id="line2d_76">
      <g>
       <use xlink:href="#m9ff633dac6" x="17.277745" y="160.575844" style="stroke: #000000; stroke-width: 0.5"/>
      </g>
     </g>
     <g id="line2d_77">
      <g>
       <use xlink:href="#m44ed3a437a" x="156.777745" y="160.575844" style="stroke: #000000; stroke-width: 0.5"/>
      </g>
     </g>
    </g>
    <g id="ytick_9">
     <g id="line2d_78">
      <g>
       <use xlink:href="#m9ff633dac6" x="17.277745" y="153.645844" style="stroke: #000000; stroke-width: 0.5"/>
      </g>
     </g>
     <g id="line2d_79">
      <g>
       <use xlink:href="#m44ed3a437a" x="156.777745" y="153.645844" style="stroke: #000000; stroke-width: 0.5"/>
      </g>
     </g>
    </g>
    <g id="ytick_10">
     <g id="line2d_80">
      <g>
       <use xlink:href="#m9ff633dac6" x="17.277745" y="139.785844" style="stroke: #000000; stroke-width: 0.5"/>
      </g>
     </g>
     <g id="line2d_81">
      <g>
       <use xlink:href="#m44ed3a437a" x="156.777745" y="139.785844" style="stroke: #000000; stroke-width: 0.5"/>
      </g>
     </g>
    </g>
    <g id="ytick_11">
     <g id="line2d_82">
      <g>
       <use xlink:href="#m9ff633dac6" x="17.277745" y="132.855844" style="stroke: #000000; stroke-width: 0.5"/>
      </g>
     </g>
     <g id="line2d_83">
      <g>
       <use xlink:href="#m44ed3a437a" x="156.777745" y="132.855844" style="stroke: #000000; stroke-width: 0.5"/>
      </g>
     </g>
    </g>
    <g id="ytick_12">
     <g id="line2d_84">
      <g>
       <use xlink:href="#m9ff633dac6" x="17.277745" y="125.925844" style="stroke: #000000; stroke-width: 0.5"/>
      </g>
     </g>
     <g id="line2d_85">
      <g>
       <use xlink:href="#m44ed3a437a" x="156.777745" y="125.925844" style="stroke: #000000; stroke-width: 0.5"/>
      </g>
     </g>
    </g>
    <g id="ytick_13">
     <g id="line2d_86">
      <g>
       <use xlink:href="#m9ff633dac6" x="17.277745" y="112.065844" style="stroke: #000000; stroke-width: 0.5"/>
      </g>
     </g>
     <g id="line2d_87">
      <g>
       <use xlink:href="#m44ed3a437a" x="156.777745" y="112.065844" style="stroke: #000000; stroke-width: 0.5"/>
      </g>
     </g>
    </g>
    <g id="ytick_14">
     <g id="line2d_88">
      <g>
       <use xlink:href="#m9ff633dac6" x="17.277745" y="105.135844" style="stroke: #000000; stroke-width: 0.5"/>
      </g>
     </g>
     <g id="line2d_89">
      <g>
       <use xlink:href="#m44ed3a437a" x="156.777745" y="105.135844" style="stroke: #000000; stroke-width: 0.5"/>
      </g>
     </g>
    </g>
    <g id="ytick_15">
     <g id="line2d_90">
      <g>
       <use xlink:href="#m9ff633dac6" x="17.277745" y="98.205844" style="stroke: #000000; stroke-width: 0.5"/>
      </g>
     </g>
     <g id="line2d_91">
      <g>
       <use xlink:href="#m44ed3a437a" x="156.777745" y="98.205844" style="stroke: #000000; stroke-width: 0.5"/>
      </g>
     </g>
    </g>
    <g id="ytick_16">
     <g id="line2d_92">
      <g>
       <use xlink:href="#m9ff633dac6" x="17.277745" y="84.345844" style="stroke: #000000; stroke-width: 0.5"/>
      </g>
     </g>
     <g id="line2d_93">
      <g>
       <use xlink:href="#m44ed3a437a" x="156.777745" y="84.345844" style="stroke: #000000; stroke-width: 0.5"/>
      </g>
     </g>
    </g>
    <g id="ytick_17">
     <g id="line2d_94">
      <g>
       <use xlink:href="#m9ff633dac6" x="17.277745" y="77.415844" style="stroke: #000000; stroke-width: 0.5"/>
      </g>
     </g>
     <g id="line2d_95">
      <g>
       <use xlink:href="#m44ed3a437a" x="156.777745" y="77.415844" style="stroke: #000000; stroke-width: 0.5"/>
      </g>
     </g>
    </g>
    <g id="ytick_18">
     <g id="line2d_96">
      <g>
       <use xlink:href="#m9ff633dac6" x="17.277745" y="70.485844" style="stroke: #000000; stroke-width: 0.5"/>
      </g>
     </g>
     <g id="line2d_97">
      <g>
       <use xlink:href="#m44ed3a437a" x="156.777745" y="70.485844" style="stroke: #000000; stroke-width: 0.5"/>
      </g>
     </g>
    </g>
    <g id="ytick_19">
     <g id="line2d_98">
      <g>
       <use xlink:href="#m9ff633dac6" x="17.277745" y="56.625844" style="stroke: #000000; stroke-width: 0.5"/>
      </g>
     </g>
     <g id="line2d_99">
      <g>
       <use xlink:href="#m44ed3a437a" x="156.777745" y="56.625844" style="stroke: #000000; stroke-width: 0.5"/>
      </g>
     </g>
    </g>
    <g id="ytick_20">
     <g id="line2d_100">
      <g>
       <use xlink:href="#m9ff633dac6" x="17.277745" y="49.695844" style="stroke: #000000; stroke-width: 0.5"/>
      </g>
     </g>
     <g id="line2d_101">
      <g>
       <use xlink:href="#m44ed3a437a" x="156.777745" y="49.695844" style="stroke: #000000; stroke-width: 0.5"/>
      </g>
     </g>
    </g>
    <g id="ytick_21">
     <g id="line2d_102">
      <g>
       <use xlink:href="#m9ff633dac6" x="17.277745" y="42.765844" style="stroke: #000000; stroke-width: 0.5"/>
      </g>
     </g>
     <g id="line2d_103">
      <g>
       <use xlink:href="#m44ed3a437a" x="156.777745" y="42.765844" style="stroke: #000000; stroke-width: 0.5"/>
      </g>
     </g>
    </g>
   </g>
   <g id="line2d_104">
    <path d="M 17.277745 170.970844 
L 17.557304 169.862044 
L 17.836864 169.862044 
L 18.395982 169.169044 
L 18.675541 169.307644 
L 18.9551 169.030444 
L 19.234659 169.307644 
L 19.514218 168.891844 
L 19.793777 169.030444 
L 20.073337 169.584844 
L 20.632455 169.307644 
L 20.912014 169.446244 
L 21.191573 169.446244 
L 21.471132 169.307644 
L 21.750691 168.753244 
L 22.03025 168.614644 
L 22.589369 168.198844 
L 22.868928 168.198844 
L 23.148487 168.337444 
L 23.428046 168.337444 
L 23.707605 168.198844 
L 23.987164 167.921644 
L 24.546282 168.337444 
L 24.825842 168.198844 
L 25.105401 167.783044 
L 25.38496 168.060244 
L 25.664519 167.505844 
L 26.223637 167.505844 
L 26.503196 167.644444 
L 27.062314 167.644444 
L 27.341874 168.198844 
L 27.621433 167.783044 
L 27.900992 168.060244 
L 28.46011 168.060244 
L 28.739669 167.921644 
L 29.019228 167.644444 
L 29.298787 167.644444 
L 29.578347 167.367244 
L 29.857906 167.505844 
L 30.137465 167.228644 
L 30.417024 167.783044 
L 30.696583 167.783044 
L 30.976142 167.921644 
L 31.255701 167.367244 
L 32.094379 168.060244 
L 32.373938 168.060244 
L 32.933056 167.644444 
L 33.212615 167.644444 
L 33.492174 167.921644 
L 34.051292 166.951444 
L 34.330852 167.367244 
L 34.610411 167.505844 
L 34.88997 167.228644 
L 35.169529 167.367244 
L 35.449088 167.228644 
L 35.728647 167.644444 
L 36.008206 167.783044 
L 36.287765 167.783044 
L 36.567324 168.060244 
L 37.96512 168.060244 
L 38.244679 167.783044 
L 38.524238 167.783044 
L 38.803797 168.476044 
L 39.083357 168.614644 
L 39.362916 168.476044 
L 39.642475 167.367244 
L 39.922034 166.951444 
L 40.201593 167.228644 
L 41.04027 166.812844 
L 42.158507 165.565444 
L 42.438066 164.872444 
L 42.717625 165.288244 
L 42.997184 165.149644 
L 43.276743 165.704044 
L 43.556302 165.426844 
L 44.39498 165.426844 
L 44.674539 165.149644 
L 45.233657 165.426844 
L 45.513216 165.704044 
L 45.792775 165.426844 
L 46.072334 165.704044 
L 46.351894 165.149644 
L 46.631453 164.872444 
L 46.911012 165.426844 
L 47.47013 165.011044 
L 48.029248 165.565444 
L 48.308807 165.565444 
L 48.588367 165.149644 
L 48.867926 165.426844 
L 49.427044 165.426844 
L 49.706603 164.733844 
L 50.265721 165.149644 
L 50.54528 165.288244 
L 51.104399 164.733844 
L 51.383958 164.733844 
L 51.943076 165.565444 
L 52.222635 165.704044 
L 52.781753 165.426844 
L 53.061312 165.981244 
L 53.340872 165.426844 
L 53.620431 165.288244 
L 53.89999 165.426844 
L 54.179549 164.872444 
L 54.738667 165.426844 
L 55.018226 165.011044 
L 55.297785 165.426844 
L 56.136463 165.842644 
L 56.695581 165.426844 
L 56.97514 165.426844 
L 57.254699 165.704044 
L 57.534258 164.872444 
L 57.813817 165.426844 
L 58.093377 165.011044 
L 58.372936 165.011044 
L 58.932054 165.565444 
L 59.211613 165.288244 
L 59.770731 165.704044 
L 60.05029 165.288244 
L 60.32985 165.149644 
L 60.609409 165.704044 
L 60.888968 165.842644 
L 61.168527 165.288244 
L 61.448086 165.565444 
L 61.727645 165.426844 
L 62.007204 165.426844 
L 62.286763 165.704044 
L 62.566322 165.565444 
L 62.845882 165.981244 
L 63.125441 166.119844 
L 63.405 165.704044 
L 63.684559 165.704044 
L 63.964118 165.981244 
L 64.243677 165.426844 
L 64.523236 165.981244 
L 64.802795 165.426844 
L 65.082355 165.565444 
L 65.361914 165.426844 
L 65.641473 165.426844 
L 65.921032 165.149644 
L 66.200591 165.704044 
L 66.48015 165.288244 
L 66.759709 165.426844 
L 67.039268 165.426844 
L 67.318827 165.565444 
L 67.598387 165.426844 
L 67.877946 165.426844 
L 68.437064 164.872444 
L 68.716623 165.288244 
L 68.996182 165.149644 
L 69.275741 165.149644 
L 69.83486 166.119844 
L 70.393978 165.149644 
L 70.673537 165.426844 
L 70.953096 165.149644 
L 71.512214 165.842644 
L 72.071332 165.565444 
L 72.350892 165.704044 
L 72.630451 165.288244 
L 72.91001 165.149644 
L 73.469128 165.426844 
L 74.028246 165.426844 
L 74.307805 165.565444 
L 74.587365 165.565444 
L 74.866924 165.704044 
L 75.146483 165.288244 
L 75.426042 165.981244 
L 75.705601 165.565444 
L 75.98516 165.704044 
L 76.264719 165.565444 
L 76.544278 165.981244 
L 76.823838 165.981244 
L 77.103397 165.704044 
L 77.382956 165.981244 
L 77.662515 165.704044 
L 77.942074 166.119844 
L 78.221633 165.981244 
L 78.501192 165.704044 
L 78.780751 165.981244 
L 79.06031 165.565444 
L 79.33987 165.981244 
L 79.619429 165.842644 
L 79.898988 165.565444 
L 80.178547 165.842644 
L 80.458106 165.288244 
L 80.737665 165.565444 
L 81.017224 165.426844 
L 81.296783 165.565444 
L 81.576343 165.149644 
L 82.135461 165.426844 
L 82.41502 165.149644 
L 82.974138 165.842644 
L 83.533256 165.426844 
L 83.812815 165.704044 
L 84.371934 165.426844 
L 84.651493 165.704044 
L 85.210611 165.149644 
L 86.049288 165.149644 
L 86.887966 165.981244 
L 87.167525 165.426844 
L 87.447084 165.149644 
L 87.726643 165.149644 
L 88.56532 165.842644 
L 88.84488 165.565444 
L 89.124439 165.011044 
L 89.403998 165.149644 
L 89.683557 165.426844 
L 90.242675 165.149644 
L 90.522234 165.426844 
L 91.081353 165.149644 
L 91.360912 165.704044 
L 91.640471 165.842644 
L 91.92003 165.565444 
L 92.199589 165.565444 
L 92.479148 165.288244 
L 92.758707 165.426844 
L 93.038266 165.842644 
L 93.317825 165.288244 
L 93.597385 165.149644 
L 93.876944 165.288244 
L 94.156503 165.704044 
L 94.715621 165.426844 
L 95.274739 165.011044 
L 95.554298 165.149644 
L 95.833858 165.011044 
L 96.113417 165.426844 
L 96.392976 165.426844 
L 96.672535 165.704044 
L 96.952094 165.704044 
L 97.231653 165.426844 
L 97.790771 165.426844 
L 98.07033 165.011044 
L 98.629449 165.704044 
L 98.909008 165.565444 
L 99.188567 165.565444 
L 99.468126 165.149644 
L 100.027244 165.565444 
L 100.306803 165.149644 
L 100.586363 165.426844 
L 100.865922 165.149644 
L 101.42504 165.149644 
L 101.704599 166.119844 
L 102.263717 165.149644 
L 102.822836 165.426844 
L 103.381954 165.011044 
L 103.661513 165.149644 
L 103.941072 165.565444 
L 104.220631 165.288244 
L 104.50019 165.426844 
L 104.779749 165.981244 
L 105.059308 165.842644 
L 105.618427 165.842644 
L 105.897986 165.981244 
L 106.457104 165.704044 
L 106.736663 165.011044 
L 107.016222 165.565444 
L 107.295781 165.288244 
L 107.575341 165.565444 
L 107.8549 165.288244 
L 108.134459 165.288244 
L 108.693577 165.842644 
L 108.973136 165.565444 
L 109.252695 165.842644 
L 109.532254 165.426844 
L 110.091373 165.426844 
L 110.370932 164.872444 
L 110.650491 165.011044 
L 110.93005 165.426844 
L 111.209609 165.565444 
L 111.489168 165.981244 
L 111.768727 165.565444 
L 112.048286 165.565444 
L 112.607405 165.288244 
L 112.886964 164.872444 
L 113.166523 164.872444 
L 113.446082 165.426844 
L 114.0052 164.872444 
L 114.284759 165.426844 
L 114.564318 165.704044 
L 114.843878 165.149644 
L 115.123437 165.149644 
L 115.402996 165.288244 
L 115.682555 165.011044 
L 115.962114 165.565444 
L 116.241673 165.288244 
L 116.521232 165.704044 
L 116.800791 165.426844 
L 117.35991 165.842644 
L 117.639469 165.704044 
L 117.919028 165.981244 
L 118.478146 165.288244 
L 118.757705 166.119844 
L 119.037264 165.704044 
L 119.316823 165.704044 
L 119.596383 165.011044 
L 119.875942 165.288244 
L 120.155501 165.011044 
L 120.43506 165.149644 
L 120.714619 165.426844 
L 120.994178 165.426844 
L 121.273737 165.842644 
L 121.553296 165.565444 
L 121.832856 165.565444 
L 122.112415 165.149644 
L 122.671533 165.565444 
L 122.951092 165.565444 
L 123.230651 165.288244 
L 123.51021 165.426844 
L 124.069328 164.872444 
L 124.348888 165.011044 
L 124.908006 164.733844 
L 125.187565 164.872444 
L 125.467124 165.288244 
L 125.746683 165.426844 
L 126.305801 165.011044 
L 126.585361 165.426844 
L 126.86492 165.426844 
L 127.144479 165.704044 
L 127.424038 165.288244 
L 127.983156 165.981244 
L 128.262715 165.565444 
L 128.542274 165.565444 
L 128.821833 165.426844 
L 129.101393 165.842644 
L 129.380952 165.426844 
L 129.660511 165.426844 
L 129.94007 165.011044 
L 130.219629 165.288244 
L 130.499188 165.288244 
L 130.778747 165.149644 
L 131.058306 165.288244 
L 131.896984 165.981244 
L 132.176543 165.842644 
L 132.456102 165.981244 
L 132.735661 165.565444 
L 133.294779 165.842644 
L 133.574339 165.704044 
L 133.853898 165.704044 
L 134.133457 165.565444 
L 134.413016 165.842644 
L 134.972134 165.149644 
L 135.251693 165.704044 
L 135.531252 165.565444 
L 135.810811 165.704044 
L 136.090371 165.565444 
L 136.36993 165.288244 
L 136.649489 165.842644 
L 136.929048 165.426844 
L 137.208607 165.704044 
L 137.488166 165.426844 
L 137.767725 165.426844 
L 138.047284 165.288244 
L 138.326844 165.288244 
L 138.606403 165.426844 
L 138.885962 165.149644 
L 139.165521 165.288244 
L 139.44508 165.149644 
L 140.283757 165.981244 
L 140.842876 165.011044 
L 141.122435 165.426844 
L 141.401994 165.288244 
L 141.681553 165.704044 
L 141.961112 165.565444 
L 142.240671 165.565444 
L 142.52023 165.704044 
L 142.799789 165.704044 
L 143.079349 165.426844 
L 143.358908 165.426844 
L 144.197585 166.258444 
L 144.756703 165.149644 
L 145.036262 165.288244 
L 145.315821 165.288244 
L 145.595381 165.426844 
L 145.87494 165.426844 
L 146.154499 165.288244 
L 146.713617 165.288244 
L 146.993176 165.426844 
L 147.272735 165.704044 
L 147.552294 165.426844 
L 147.831854 165.704044 
L 148.111413 165.288244 
L 148.390972 165.565444 
L 148.670531 166.119844 
L 149.229649 165.842644 
L 149.509208 165.981244 
L 149.788767 165.842644 
L 150.068326 165.565444 
L 150.347886 165.842644 
L 150.627445 165.704044 
L 150.907004 165.981244 
L 151.186563 165.288244 
L 151.466122 165.565444 
L 151.745681 165.011044 
L 152.584359 165.842644 
L 152.863918 165.842644 
L 153.143477 165.704044 
L 153.423036 165.704044 
L 153.982154 165.288244 
L 154.261713 165.842644 
L 154.541272 165.565444 
L 154.820831 165.565444 
L 155.37995 165.288244 
L 155.659509 165.565444 
L 155.939068 165.426844 
L 156.218627 166.119844 
L 156.498186 165.565444 
L 156.777745 166.119844 
L 156.777745 166.119844 
" clip-path="url(#p564eb1b984)" style="fill: none; stroke: #dedeee; stroke-linecap: square"/>
   </g>
   <g id="line2d_105">
    <path d="M 17.277745 171.386644 
L 17.557304 170.693644 
L 18.116423 170.693644 
L 18.395982 170.970844 
L 18.9551 170.970844 
L 19.234659 170.693644 
L 19.793777 170.693644 
L 20.073337 171.109444 
L 20.352896 171.109444 
L 20.912014 171.525244 
L 21.191573 171.525244 
L 21.471132 171.802444 
L 21.750691 171.802444 
L 22.309809 171.386644 
L 22.589369 172.218244 
L 22.868928 172.356844 
L 23.148487 172.356844 
L 23.707605 172.772644 
L 23.987164 172.634044 
L 24.266723 172.772644 
L 24.546282 172.495444 
L 24.825842 172.495444 
L 25.38496 172.911244 
L 25.664519 172.772644 
L 25.944078 172.772644 
L 26.223637 173.049844 
L 27.062314 173.049844 
L 27.341874 172.911244 
L 27.621433 173.049844 
L 27.900992 172.911244 
L 28.180551 173.049844 
L 28.46011 173.049844 
L 28.739669 172.911244 
L 29.019228 173.049844 
L 30.696583 173.049844 
L 30.976142 173.188444 
L 31.255701 173.049844 
L 31.53526 173.327044 
L 33.771733 173.327044 
L 34.051292 173.465644 
L 34.610411 173.465644 
L 34.88997 173.604244 
L 36.008206 173.604244 
L 36.567324 174.020044 
L 37.406002 174.020044 
L 37.685561 174.158644 
L 37.96512 174.435844 
L 156.777745 174.435844 
L 156.777745 174.435844 
" clip-path="url(#p564eb1b984)" style="fill: none; stroke-dasharray: 3.7,1.6; stroke-dashoffset: 0; stroke: #9b9aca"/>
   </g>
   <g id="line2d_106">
    <path d="M 17.277745 171.802444 
L 17.557304 171.663844 
L 18.116423 170.970844 
L 18.395982 170.693644 
L 19.234659 169.030444 
L 19.514218 167.090044 
L 20.073337 165.011044 
L 20.632455 159.882844 
L 20.912014 157.110844 
L 21.750691 152.398444 
L 23.148487 142.835044 
L 23.428046 142.280644 
L 24.266723 139.647244 
L 24.546282 138.538444 
L 24.825842 136.182244 
L 25.38496 134.519044 
L 26.503196 132.855844 
L 27.062314 132.578644 
L 27.341874 132.162844 
L 27.621433 132.162844 
L 27.900992 132.024244 
L 28.180551 131.469844 
L 28.46011 130.499644 
L 29.298787 129.529444 
L 29.578347 128.975044 
L 29.857906 128.697844 
L 30.137465 127.173244 
L 30.417024 126.618844 
L 30.696583 125.648644 
L 31.814819 124.678444 
L 32.094379 124.539844 
L 32.373938 124.678444 
L 32.653497 124.539844 
L 32.933056 123.431044 
L 33.212615 123.292444 
L 33.492174 123.292444 
L 33.771733 123.153844 
L 34.051292 122.738044 
L 34.330852 122.045044 
L 34.610411 118.441444 
L 34.88997 117.332644 
L 36.008206 109.848244 
L 36.567324 107.353444 
L 37.126443 106.106044 
L 38.244679 104.997244 
L 38.803797 104.997244 
L 39.083357 104.858644 
L 39.362916 104.442844 
L 39.642475 104.997244 
L 39.922034 104.027044 
L 40.201593 103.888444 
L 40.481152 103.472644 
L 40.760711 103.334044 
L 41.04027 102.502444 
L 41.599389 101.809444 
L 42.158507 102.086644 
L 42.438066 101.948044 
L 42.717625 102.086644 
L 42.997184 101.809444 
L 43.835862 101.809444 
L 44.115421 101.948044 
L 44.39498 101.948044 
L 44.674539 102.086644 
L 45.792775 102.086644 
L 46.072334 101.948044 
L 46.351894 101.670844 
L 46.631453 100.839244 
L 46.911012 99.591844 
L 47.190571 95.295244 
L 47.47013 94.879444 
L 47.749689 94.186444 
L 48.029248 93.077644 
L 49.706603 90.721444 
L 49.986162 90.582844 
L 51.663517 90.582844 
L 51.943076 90.444244 
L 52.222635 90.582844 
L 52.502194 90.582844 
L 53.061312 90.305644 
L 53.340872 90.444244 
L 53.620431 90.444244 
L 54.179549 90.721444 
L 54.459108 90.582844 
L 54.738667 90.582844 
L 55.018226 90.721444 
L 55.297785 90.582844 
L 55.577345 90.582844 
L 55.856904 90.305644 
L 56.136463 90.305644 
L 56.416022 90.444244 
L 56.695581 90.305644 
L 56.97514 90.444244 
L 57.254699 90.444244 
L 57.813817 90.721444 
L 58.372936 90.721444 
L 59.211613 90.305644 
L 59.491172 90.444244 
L 59.770731 90.305644 
L 60.05029 90.444244 
L 60.32985 90.444244 
L 60.609409 90.582844 
L 60.888968 90.444244 
L 62.007204 90.444244 
L 62.286763 90.305644 
L 62.566322 90.444244 
L 62.845882 90.444244 
L 63.125441 90.305644 
L 63.405 90.444244 
L 63.684559 90.305644 
L 64.523236 90.305644 
L 65.361914 90.721444 
L 65.921032 90.721444 
L 66.200591 90.582844 
L 66.48015 90.582844 
L 66.759709 90.444244 
L 67.598387 90.444244 
L 67.877946 90.582844 
L 68.157505 90.582844 
L 68.437064 90.305644 
L 68.716623 90.444244 
L 68.996182 90.444244 
L 69.275741 90.305644 
L 69.5553 90.444244 
L 69.83486 90.444244 
L 70.114419 90.582844 
L 70.673537 90.582844 
L 70.953096 90.721444 
L 71.512214 90.444244 
L 71.791773 90.444244 
L 72.071332 90.305644 
L 72.350892 90.305644 
L 72.91001 90.582844 
L 73.189569 90.582844 
L 73.748687 90.305644 
L 74.028246 90.444244 
L 74.587365 90.167044 
L 74.866924 90.305644 
L 75.146483 90.028444 
L 75.426042 88.365244 
L 75.98516 87.395044 
L 76.264719 86.702044 
L 76.823838 86.286244 
L 77.103397 85.038844 
L 77.382956 84.900244 
L 77.662515 84.900244 
L 77.942074 84.761644 
L 78.221633 84.761644 
L 78.501192 84.900244 
L 78.780751 84.761644 
L 79.06031 84.207244 
L 80.458106 82.959844 
L 80.737665 82.959844 
L 81.017224 82.821244 
L 81.855902 83.237044 
L 82.41502 83.237044 
L 83.253697 82.821244 
L 83.533256 82.959844 
L 83.812815 82.821244 
L 84.092375 82.821244 
L 84.651493 83.098444 
L 84.931052 83.098444 
L 85.210611 83.237044 
L 85.769729 83.237044 
L 86.049288 83.098444 
L 86.328848 83.237044 
L 86.608407 83.237044 
L 87.167525 82.959844 
L 87.447084 83.098444 
L 88.006202 83.098444 
L 88.56532 82.821244 
L 88.84488 82.821244 
L 89.403998 83.098444 
L 89.683557 83.098444 
L 89.963116 82.959844 
L 90.242675 82.959844 
L 90.801793 83.237044 
L 91.640471 82.821244 
L 92.199589 82.821244 
L 92.479148 82.682644 
L 92.758707 82.821244 
L 93.038266 82.821244 
L 93.317825 82.959844 
L 93.876944 82.959844 
L 94.156503 83.098444 
L 94.715621 82.821244 
L 94.99518 82.959844 
L 95.274739 82.821244 
L 96.392976 82.821244 
L 96.672535 82.959844 
L 96.952094 82.682644 
L 97.511212 82.959844 
L 98.34989 82.959844 
L 98.909008 83.237044 
L 99.188567 83.237044 
L 99.468126 83.098444 
L 99.747685 83.237044 
L 100.306803 83.237044 
L 100.586363 83.098444 
L 101.42504 83.098444 
L 101.704599 82.959844 
L 102.263717 82.959844 
L 102.543276 83.098444 
L 103.102395 83.098444 
L 103.381954 83.237044 
L 103.661513 83.098444 
L 104.220631 83.098444 
L 105.059308 82.682644 
L 105.338868 82.959844 
L 106.457104 82.959844 
L 107.016222 83.237044 
L 107.575341 82.959844 
L 107.8549 82.959844 
L 108.134459 82.821244 
L 109.532254 82.821244 
L 109.811813 82.959844 
L 110.091373 82.959844 
L 110.650491 83.237044 
L 110.93005 83.237044 
L 111.209609 83.098444 
L 111.489168 83.098444 
L 111.768727 82.959844 
L 112.886964 82.959844 
L 113.446082 83.237044 
L 113.725641 83.237044 
L 114.284759 82.959844 
L 114.564318 82.959844 
L 115.123437 83.237044 
L 115.402996 83.098444 
L 115.682555 83.237044 
L 115.962114 83.098444 
L 116.241673 83.098444 
L 116.521232 83.237044 
L 117.080351 83.237044 
L 117.639469 82.959844 
L 117.919028 82.959844 
L 118.198587 82.821244 
L 118.757705 82.821244 
L 119.037264 82.959844 
L 119.316823 82.959844 
L 119.875942 83.237044 
L 120.43506 83.237044 
L 120.714619 82.959844 
L 121.273737 82.959844 
L 121.832856 83.237044 
L 122.112415 83.098444 
L 122.391974 83.237044 
L 122.671533 83.098444 
L 122.951092 83.237044 
L 124.628447 83.237044 
L 124.908006 83.098444 
L 125.187565 83.237044 
L 126.585361 83.237044 
L 126.86492 83.098444 
L 127.703597 83.098444 
L 128.262715 82.821244 
L 128.542274 82.821244 
L 128.821833 82.959844 
L 129.380952 82.959844 
L 129.660511 83.098444 
L 130.219629 83.098444 
L 130.499188 82.959844 
L 130.778747 83.237044 
L 131.058306 83.098444 
L 131.617425 83.098444 
L 131.896984 82.959844 
L 132.176543 82.959844 
L 132.456102 83.098444 
L 133.01522 83.098444 
L 133.294779 82.959844 
L 133.574339 82.959844 
L 133.853898 82.821244 
L 134.133457 82.959844 
L 134.413016 82.821244 
L 135.251693 82.821244 
L 135.531252 82.959844 
L 135.810811 82.821244 
L 137.208607 82.821244 
L 138.047284 83.237044 
L 138.606403 83.237044 
L 138.885962 83.098444 
L 139.165521 83.098444 
L 139.44508 82.959844 
L 139.724639 83.098444 
L 140.283757 82.821244 
L 140.842876 82.821244 
L 141.122435 82.959844 
L 141.401994 82.821244 
L 141.681553 82.959844 
L 141.961112 82.821244 
L 143.638467 82.821244 
L 143.918026 82.959844 
L 144.197585 82.821244 
L 144.756703 82.821244 
L 145.595381 83.237044 
L 145.87494 83.237044 
L 146.154499 83.098444 
L 146.434058 83.098444 
L 146.713617 82.959844 
L 146.993176 82.959844 
L 147.552294 83.237044 
L 147.831854 83.237044 
L 148.111413 83.098444 
L 148.390972 83.098444 
L 148.670531 82.821244 
L 149.788767 82.821244 
L 150.068326 82.959844 
L 150.627445 82.959844 
L 150.907004 82.821244 
L 151.186563 82.959844 
L 151.745681 82.959844 
L 152.02524 82.821244 
L 152.584359 82.821244 
L 152.863918 82.959844 
L 154.261713 82.959844 
L 154.820831 83.237044 
L 155.100391 83.237044 
L 155.37995 83.098444 
L 155.659509 83.098444 
L 155.939068 82.959844 
L 156.218627 82.959844 
L 156.498186 83.098444 
L 156.777745 82.821244 
L 156.777745 82.821244 
" clip-path="url(#p564eb1b984)" style="fill: none; stroke-dasharray: 1,1.65; stroke-dashoffset: 0; stroke: #7976b8"/>
   </g>
   <g id="line2d_107">
    <path d="M 17.277745 44.983444 
L 17.557304 46.923844 
L 18.675541 48.725644 
L 18.9551 49.695844 
L 19.234659 50.111644 
L 19.514218 52.467844 
L 19.793777 53.438044 
L 20.073337 53.438044 
L 21.191573 62.447044 
L 21.750691 66.189244 
L 22.309809 70.763044 
L 23.148487 75.614044 
L 23.428046 75.891244 
L 23.707605 76.722844 
L 23.987164 77.970244 
L 24.266723 78.524644 
L 24.546282 79.772044 
L 24.825842 82.266844 
L 25.105401 83.375644 
L 25.38496 83.652844 
L 25.664519 84.761644 
L 25.944078 85.316044 
L 26.223637 85.177444 
L 26.503196 85.593244 
L 27.062314 85.870444 
L 27.341874 85.870444 
L 27.621433 86.147644 
L 27.900992 86.147644 
L 28.180551 86.563444 
L 28.46011 87.533644 
L 29.019228 88.642444 
L 29.298787 88.919644 
L 29.578347 89.751244 
L 29.857906 89.889844 
L 30.137465 91.691644 
L 30.417024 91.691644 
L 30.696583 92.661844 
L 30.976142 92.661844 
L 31.255701 93.632044 
L 31.53526 93.216244 
L 31.814819 93.077644 
L 32.094379 93.216244 
L 32.373938 93.077644 
L 32.653497 93.493444 
L 32.933056 94.740844 
L 33.212615 94.879444 
L 33.492174 94.602244 
L 34.051292 95.988244 
L 34.330852 96.265444 
L 34.610411 99.730444 
L 34.88997 100.977844 
L 35.728647 106.106044 
L 36.008206 107.907844 
L 36.567324 109.709644 
L 37.126443 110.957044 
L 37.685561 111.372844 
L 37.96512 111.372844 
L 38.244679 111.927244 
L 38.524238 111.927244 
L 38.803797 111.234244 
L 39.083357 111.234244 
L 39.642475 112.343044 
L 39.922034 113.729044 
L 40.201593 113.590444 
L 40.481152 114.144844 
L 40.760711 114.422044 
L 41.319829 116.085244 
L 41.599389 116.501044 
L 41.878948 116.639644 
L 42.158507 117.055444 
L 42.438066 117.887044 
L 42.717625 117.332644 
L 42.997184 117.748444 
L 43.276743 117.194044 
L 43.556302 117.471244 
L 43.835862 117.471244 
L 44.115421 117.332644 
L 44.39498 117.332644 
L 44.674539 117.471244 
L 45.233657 117.194044 
L 45.513216 116.916844 
L 45.792775 117.194044 
L 46.072334 117.055444 
L 46.911012 119.688844 
L 47.190571 124.262644 
L 48.308807 126.480244 
L 48.588367 127.450444 
L 48.867926 127.589044 
L 49.147485 128.004844 
L 49.427044 128.143444 
L 49.706603 129.252244 
L 50.54528 128.836444 
L 51.104399 129.390844 
L 51.383958 129.390844 
L 51.943076 128.697844 
L 52.222635 128.420644 
L 52.502194 128.559244 
L 52.781753 128.836444 
L 53.061312 128.420644 
L 53.340872 128.836444 
L 53.620431 128.975044 
L 53.89999 128.697844 
L 54.179549 129.113644 
L 54.459108 128.975044 
L 54.738667 128.697844 
L 55.018226 128.975044 
L 55.577345 128.559244 
L 55.856904 128.697844 
L 56.136463 128.559244 
L 56.416022 128.697844 
L 56.695581 128.975044 
L 56.97514 128.836444 
L 57.254699 128.559244 
L 57.534258 129.252244 
L 57.813817 128.559244 
L 58.093377 128.975044 
L 58.372936 128.975044 
L 58.932054 128.697844 
L 59.211613 129.113644 
L 59.491172 128.697844 
L 59.770731 128.697844 
L 60.32985 129.113644 
L 60.609409 128.420644 
L 60.888968 128.420644 
L 61.168527 128.975044 
L 61.448086 128.697844 
L 61.727645 128.836444 
L 62.007204 128.836444 
L 62.286763 128.697844 
L 62.566322 128.697844 
L 62.845882 128.282044 
L 63.125441 128.282044 
L 63.684559 128.697844 
L 63.964118 128.420644 
L 64.243677 128.975044 
L 64.523236 128.420644 
L 64.802795 128.836444 
L 65.082355 128.559244 
L 65.641473 128.559244 
L 65.921032 128.836444 
L 66.200591 128.420644 
L 66.48015 128.836444 
L 67.039268 128.836444 
L 67.318827 128.697844 
L 67.598387 128.836444 
L 67.877946 128.697844 
L 68.157505 128.975044 
L 68.437064 129.529444 
L 68.716623 128.975044 
L 69.275741 129.252244 
L 69.83486 128.143444 
L 70.393978 128.975044 
L 70.673537 128.697844 
L 70.953096 128.836444 
L 71.512214 128.420644 
L 71.791773 128.559244 
L 72.071332 128.836444 
L 72.350892 128.697844 
L 72.630451 128.975044 
L 72.91001 128.975044 
L 73.189569 128.836444 
L 73.469128 128.836444 
L 73.748687 128.975044 
L 74.028246 128.836444 
L 74.307805 128.836444 
L 74.587365 128.975044 
L 74.866924 128.697844 
L 75.426042 130.361044 
L 75.705601 131.192644 
L 75.98516 131.608444 
L 76.264719 132.440044 
L 76.544278 132.301444 
L 76.823838 132.440044 
L 77.103397 133.964644 
L 77.382956 133.826044 
L 77.662515 134.103244 
L 77.942074 133.826044 
L 78.501192 134.103244 
L 78.780751 133.964644 
L 79.06031 134.934844 
L 79.33987 134.796244 
L 79.619429 135.212044 
L 79.898988 135.905044 
L 80.178547 135.905044 
L 80.458106 136.459444 
L 80.737665 136.182244 
L 81.017224 136.459444 
L 81.296783 136.182244 
L 81.576343 136.459444 
L 82.135461 136.043644 
L 82.41502 136.320844 
L 82.694579 136.182244 
L 82.974138 135.905044 
L 83.253697 136.320844 
L 83.533256 136.320844 
L 83.812815 136.182244 
L 84.092375 136.320844 
L 84.371934 136.320844 
L 84.651493 135.905044 
L 85.210611 136.320844 
L 85.769729 136.320844 
L 86.049288 136.459444 
L 86.608407 135.627844 
L 86.887966 135.627844 
L 87.167525 136.320844 
L 87.447084 136.459444 
L 87.726643 136.459444 
L 88.285761 136.043644 
L 88.56532 136.043644 
L 89.124439 136.736644 
L 89.683557 136.182244 
L 90.242675 136.598044 
L 90.522234 136.182244 
L 90.801793 136.182244 
L 91.081353 136.459444 
L 91.360912 136.043644 
L 91.640471 136.043644 
L 91.92003 136.320844 
L 92.199589 136.320844 
L 92.479148 136.736644 
L 93.038266 136.043644 
L 93.317825 136.459444 
L 93.597385 136.598044 
L 93.876944 136.459444 
L 94.156503 135.905044 
L 95.274739 136.875244 
L 95.554298 136.736644 
L 95.833858 136.875244 
L 96.113417 136.459444 
L 96.392976 136.459444 
L 96.672535 136.043644 
L 97.231653 136.459444 
L 97.511212 136.320844 
L 97.790771 136.320844 
L 98.07033 136.736644 
L 98.629449 135.905044 
L 99.188567 135.905044 
L 99.468126 136.459444 
L 99.747685 136.043644 
L 100.027244 135.905044 
L 100.306803 136.320844 
L 100.586363 136.182244 
L 100.865922 136.459444 
L 101.42504 136.459444 
L 101.704599 135.627844 
L 102.263717 136.598044 
L 102.822836 136.182244 
L 103.102395 136.459444 
L 103.661513 136.459444 
L 103.941072 136.043644 
L 104.220631 136.320844 
L 104.50019 136.320844 
L 104.779749 135.905044 
L 105.059308 136.182244 
L 105.338868 135.905044 
L 105.618427 135.905044 
L 105.897986 135.766444 
L 106.457104 136.043644 
L 106.736663 136.598044 
L 107.016222 135.905044 
L 107.295781 136.320844 
L 107.575341 136.182244 
L 108.134459 136.598044 
L 108.693577 136.043644 
L 108.973136 136.320844 
L 109.252695 136.043644 
L 109.532254 136.459444 
L 109.811813 136.320844 
L 110.091373 136.320844 
L 110.370932 136.736644 
L 111.489168 135.627844 
L 111.768727 136.182244 
L 112.048286 136.182244 
L 112.607405 136.459444 
L 112.886964 136.875244 
L 113.166523 136.736644 
L 113.446082 136.043644 
L 114.0052 136.736644 
L 114.564318 136.043644 
L 114.843878 136.459444 
L 115.123437 136.320844 
L 115.402996 136.320844 
L 115.682555 136.459444 
L 115.962114 136.043644 
L 116.241673 136.320844 
L 116.521232 135.766444 
L 116.800791 136.043644 
L 117.080351 135.766444 
L 117.35991 135.766444 
L 117.639469 136.043644 
L 117.919028 135.766444 
L 118.198587 136.320844 
L 118.478146 136.598044 
L 118.757705 135.766444 
L 119.037264 136.043644 
L 119.316823 136.043644 
L 119.596383 136.598044 
L 119.875942 136.182244 
L 120.155501 136.459444 
L 120.43506 136.320844 
L 120.994178 136.320844 
L 121.273737 135.905044 
L 121.553296 136.043644 
L 121.832856 135.905044 
L 122.112415 136.459444 
L 122.391974 136.043644 
L 122.671533 136.043644 
L 122.951092 135.905044 
L 123.230651 136.182244 
L 123.51021 136.043644 
L 124.069328 136.598044 
L 124.348888 136.459444 
L 124.628447 136.598044 
L 124.908006 136.875244 
L 125.746683 136.043644 
L 126.305801 136.459444 
L 126.585361 136.043644 
L 126.86492 136.182244 
L 127.144479 135.905044 
L 127.424038 136.320844 
L 127.983156 135.766444 
L 128.262715 136.320844 
L 128.821833 136.320844 
L 129.101393 135.905044 
L 129.380952 136.320844 
L 129.660511 136.182244 
L 129.94007 136.598044 
L 130.219629 136.320844 
L 130.499188 136.459444 
L 130.778747 136.320844 
L 131.058306 136.320844 
L 131.617425 135.905044 
L 131.896984 135.766444 
L 132.176543 135.905044 
L 132.456102 135.627844 
L 132.735661 136.043644 
L 133.01522 135.905044 
L 133.294779 135.905044 
L 133.853898 136.182244 
L 134.133457 136.182244 
L 134.413016 136.043644 
L 134.972134 136.736644 
L 135.251693 136.182244 
L 135.810811 136.182244 
L 136.090371 136.320844 
L 136.36993 136.598044 
L 136.649489 136.043644 
L 136.929048 136.459444 
L 137.208607 136.182244 
L 137.488166 136.320844 
L 137.767725 136.182244 
L 138.326844 136.182244 
L 138.606403 136.043644 
L 138.885962 136.459444 
L 139.165521 136.320844 
L 139.44508 136.598044 
L 139.724639 136.182244 
L 140.004198 136.182244 
L 140.283757 135.905044 
L 140.842876 136.875244 
L 141.122435 136.320844 
L 141.401994 136.598044 
L 141.681553 136.043644 
L 141.961112 136.320844 
L 142.240671 136.320844 
L 142.52023 136.182244 
L 142.799789 136.182244 
L 143.079349 136.459444 
L 143.358908 136.459444 
L 143.638467 136.182244 
L 143.918026 135.627844 
L 144.197585 135.627844 
L 144.756703 136.736644 
L 145.595381 136.043644 
L 145.87494 136.043644 
L 146.154499 136.320844 
L 146.434058 136.320844 
L 146.713617 136.459444 
L 146.993176 136.320844 
L 147.272735 135.905044 
L 147.552294 136.043644 
L 147.831854 135.766444 
L 148.111413 136.320844 
L 148.670531 135.766444 
L 149.229649 136.043644 
L 149.509208 135.905044 
L 150.068326 136.182244 
L 150.347886 135.905044 
L 150.627445 136.043644 
L 150.907004 135.905044 
L 151.186563 136.459444 
L 151.466122 136.182244 
L 151.745681 136.736644 
L 152.02524 136.598044 
L 152.863918 135.905044 
L 153.143477 136.043644 
L 153.423036 136.043644 
L 153.982154 136.459444 
L 154.261713 135.905044 
L 154.541272 136.043644 
L 154.820831 135.905044 
L 155.100391 136.043644 
L 155.37995 136.320844 
L 155.659509 136.043644 
L 155.939068 136.320844 
L 156.218627 135.627844 
L 156.498186 136.043644 
L 156.777745 135.766444 
L 156.777745 135.766444 
" clip-path="url(#p564eb1b984)" style="fill: none; stroke-dasharray: 6.4,1.6,1,1.6; stroke-dashoffset: 0; stroke: #201f3d"/>
   </g>
   <g id="patch_3">
    <path d="M 17.277745 174.435844 
L 17.277745 35.835844 
" style="fill: none; stroke: #000000; stroke-width: 0.5; stroke-linejoin: miter; stroke-linecap: square"/>
   </g>
   <g id="patch_4">
    <path d="M 156.777745 174.435844 
L 156.777745 35.835844 
" style="fill: none; stroke: #000000; stroke-width: 0.5; stroke-linejoin: miter; stroke-linecap: square"/>
   </g>
   <g id="patch_5">
    <path d="M 17.277745 174.435844 
L 156.777745 174.435844 
" style="fill: none; stroke: #000000; stroke-width: 0.5; stroke-linejoin: miter; stroke-linecap: square"/>
   </g>
   <g id="patch_6">
    <path d="M 17.277745 35.835844 
L 156.777745 35.835844 
" style="fill: none; stroke: #000000; stroke-width: 0.5; stroke-linejoin: miter; stroke-linecap: square"/>
   </g>
   <g id="text_12">
    <!-- Evolucin de Singapur -->
    <g transform="translate(43.315096 10.132206) scale(0.096 -0.096)">
     <defs>
      <path id="NimbusRomNo9L-Regu-45" d="M 3821 1078 
L 3642 1078 
C 3322 389 3046 237 2131 237 
L 1958 237 
C 1645 237 1376 269 1331 315 
C 1299 334 1286 404 1286 514 
L 1286 2106 
L 2272 2106 
C 2797 2106 2893 2020 2976 1472 
L 3123 1472 
L 3123 2957 
L 2976 2957 
C 2931 2703 2906 2610 2835 2523 
C 2752 2417 2573 2368 2272 2368 
L 1286 2368 
L 1286 3766 
C 1286 3943 1325 3981 1498 3981 
L 2362 3981 
C 3085 3981 3226 3886 3334 3314 
L 3494 3314 
L 3475 4224 
L 77 4224 
L 77 4102 
C 550 4064 634 3974 634 3525 
L 634 679 
C 634 230 544 134 77 134 
L 77 0 
L 3533 0 
L 3821 1078 
z
" transform="scale(0.015625)"/>
      <path id="NimbusRomNo9L-Regu-76" d="M 3053 2854 
L 2163 2854 
L 2163 2758 
C 2368 2739 2464 2675 2464 2552 
C 2464 2488 2451 2424 2426 2359 
L 1792 695 
L 1139 2340 
C 1101 2431 1082 2520 1082 2578 
C 1082 2694 1152 2739 1376 2758 
L 1376 2854 
L 122 2854 
L 122 2752 
C 365 2752 410 2688 704 2024 
L 1472 175 
C 1485 137 1504 91 1523 40 
C 1562 -76 1600 -128 1638 -128 
C 1677 -128 1722 -44 1818 193 
L 2637 2257 
C 2822 2694 2861 2739 3053 2758 
L 3053 2854 
z
" transform="scale(0.015625)"/>
      <path id="NimbusRomNo9L-Regu-6f" d="M 1600 2944 
C 768 2944 186 2330 186 1446 
C 186 582 781 -64 1587 -64 
C 2394 -64 3008 614 3008 1498 
C 3008 2336 2419 2944 1600 2944 
z
M 1517 2765 
C 2054 2765 2432 2150 2432 1274 
C 2432 550 2144 115 1664 115 
C 1414 115 1178 269 1043 525 
C 864 858 762 1306 762 1760 
C 762 2368 1062 2765 1517 2765 
z
" transform="scale(0.015625)"/>
      <path id="NimbusRomNo9L-Regu-6c" d="M 122 4000 
L 160 4000 
C 230 4000 307 4000 358 4000 
C 563 4000 627 3910 627 3610 
L 627 557 
C 627 211 538 128 134 96 
L 134 0 
L 1645 0 
L 1645 109 
C 1242 109 1165 173 1165 528 
L 1165 4371 
L 1139 4384 
C 806 4275 563 4211 122 4103 
L 122 4000 
z
" transform="scale(0.015625)"/>
      <path id="NimbusRomNo9L-Regu-75" d="M 3066 320 
L 3034 320 
C 2739 320 2669 390 2669 685 
L 2669 2880 
L 1658 2880 
L 1658 2758 
C 2054 2758 2131 2694 2131 2375 
L 2131 875 
C 2131 697 2099 607 2010 537 
C 1837 397 1638 320 1446 320 
C 1197 320 992 537 992 805 
L 992 2880 
L 58 2880 
L 58 2778 
C 365 2778 454 2682 454 2387 
L 454 770 
C 454 263 762 -64 1229 -64 
C 1466 -64 1715 38 1888 211 
L 2163 486 
L 2163 -45 
L 2189 -58 
C 2509 70 2739 141 3066 230 
L 3066 320 
z
" transform="scale(0.015625)"/>
      <path id="NimbusRomNo9L-Regu-63" d="M 2547 998 
C 2240 550 2010 397 1645 397 
C 1062 397 653 909 653 1645 
C 653 2304 1005 2758 1523 2758 
C 1754 2758 1837 2688 1901 2451 
L 1939 2310 
C 1990 2131 2106 2016 2240 2016 
C 2406 2016 2547 2138 2547 2285 
C 2547 2643 2099 2944 1562 2944 
C 1248 2944 922 2816 659 2586 
C 339 2304 160 1869 160 1363 
C 160 531 666 -64 1376 -64 
C 1664 -64 1920 38 2150 237 
C 2323 390 2445 563 2637 941 
L 2547 998 
z
" transform="scale(0.015625)"/>
      <path id="NimbusRomNo9L-Regu-69" d="M 1120 2929 
L 128 2579 
L 128 2484 
L 179 2490 
C 256 2502 339 2509 397 2509 
C 550 2509 608 2406 608 2125 
L 608 640 
C 608 179 544 109 102 109 
L 102 0 
L 1619 0 
L 1619 96 
C 1197 128 1146 191 1146 650 
L 1146 2910 
L 1120 2929 
z
M 819 4352 
C 646 4352 499 4205 499 4026 
C 499 3847 640 3699 819 3699 
C 1005 3699 1152 3840 1152 4026 
C 1152 4205 1005 4352 819 4352 
z
" transform="scale(0.015625)"/>
      <path id="NimbusRomNo9L-Regu-b4" d="M 851 3264 
L 1837 3882 
C 1971 3964 2029 4047 2029 4148 
C 2029 4275 1946 4352 1805 4352 
C 1709 4352 1651 4320 1536 4206 
L 595 3264 
L 851 3264 
z
" transform="scale(0.015625)"/>
      <path id="NimbusRomNo9L-Regu-6e" d="M 102 2579 
C 141 2598 205 2605 275 2605 
C 454 2605 512 2509 512 2195 
L 512 608 
C 512 243 442 154 115 128 
L 115 32 
L 1472 32 
L 1472 128 
C 1146 154 1050 230 1050 461 
L 1050 2259 
C 1357 2547 1498 2624 1709 2624 
C 2022 2624 2176 2426 2176 2003 
L 2176 666 
C 2176 262 2093 154 1773 128 
L 1773 32 
L 3104 32 
L 3104 128 
C 2790 160 2714 237 2714 550 
L 2714 2016 
C 2714 2618 2432 2976 1958 2976 
C 1664 2976 1466 2867 1030 2458 
L 1030 2963 
L 986 2976 
C 672 2861 454 2790 102 2688 
L 102 2579 
z
" transform="scale(0.015625)"/>
      <path id="NimbusRomNo9L-Regu-64" d="M 2202 -64 
L 3142 269 
L 3142 365 
C 3027 365 3014 365 2995 365 
C 2765 365 2714 435 2714 731 
L 2714 4364 
L 2682 4377 
C 2374 4268 2150 4204 1741 4096 
L 1741 3994 
C 1792 4000 1830 4000 1882 4000 
C 2118 4000 2176 3936 2176 3672 
L 2176 2669 
C 1933 2874 1760 2944 1504 2944 
C 768 2944 173 2221 173 1312 
C 173 493 653 -64 1357 -64 
C 1715 -64 1958 64 2176 365 
L 2176 -45 
L 2202 -64 
z
M 2176 653 
C 2176 608 2131 531 2067 461 
C 1952 333 1792 269 1606 269 
C 1075 269 723 781 723 1568 
C 723 2291 1037 2765 1523 2765 
C 1862 2765 2176 2464 2176 2125 
L 2176 653 
z
" transform="scale(0.015625)"/>
      <path id="NimbusRomNo9L-Regu-65" d="M 2611 1053 
C 2304 564 2029 378 1619 378 
C 1254 378 979 564 794 930 
C 678 1174 634 1386 621 1779 
L 2592 1779 
C 2541 2193 2477 2377 2317 2581 
C 2125 2811 1830 2944 1498 2944 
C 1178 2944 877 2829 634 2611 
C 333 2349 160 1894 160 1370 
C 160 486 621 -64 1357 -64 
C 1965 -64 2445 315 2714 1008 
L 2611 1053 
z
M 634 1984 
C 704 2479 922 2714 1312 2714 
C 1702 2714 1856 2535 1939 1984 
L 634 1984 
z
" transform="scale(0.015625)"/>
      <path id="NimbusRomNo9L-Regu-53" d="M 2861 4352 
L 2726 4352 
C 2701 4205 2630 4135 2522 4135 
C 2458 4135 2349 4160 2240 4212 
C 2003 4301 1766 4352 1562 4352 
C 1286 4352 1005 4244 794 4058 
C 570 3859 454 3590 454 3256 
C 454 2743 736 2385 1453 2006 
C 1914 1763 2246 1499 2406 1256 
C 2464 1173 2496 1038 2496 884 
C 2496 454 2176 160 1709 160 
C 1139 160 736 513 416 1296 
L 269 1296 
L 461 -64 
L 602 -64 
C 608 57 685 147 781 147 
C 851 147 960 122 1082 79 
C 1325 -14 1581 -64 1837 -64 
C 2573 -64 3142 442 3142 1101 
C 3142 1626 2790 2042 1946 2496 
C 1274 2868 1005 3149 1005 3495 
C 1005 3847 1274 4090 1670 4090 
C 1958 4090 2227 3968 2451 3738 
C 2650 3533 2739 3367 2842 2989 
L 3002 2989 
L 2861 4352 
z
" transform="scale(0.015625)"/>
      <path id="NimbusRomNo9L-Regu-67" d="M 3008 2496 
L 3008 2746 
L 2515 2746 
C 2387 2746 2291 2763 2163 2802 
L 2022 2847 
C 1850 2903 1677 2931 1510 2931 
C 915 2931 442 2467 442 1881 
C 442 1476 614 1230 1037 1018 
C 915 906 800 799 762 768 
C 550 588 467 463 467 338 
C 467 206 544 131 806 6 
C 352 -329 179 -543 179 -781 
C 179 -1124 678 -1408 1286 -1408 
C 1766 -1408 2266 -1238 2598 -962 
C 2842 -759 2950 -548 2950 -299 
C 2950 108 2650 384 2176 384 
L 1350 384 
C 1011 384 851 443 851 548 
C 851 678 1062 908 1235 960 
C 1293 953 1338 947 1357 947 
C 1478 934 1562 928 1600 928 
C 1837 928 2093 1026 2291 1203 
C 2502 1387 2598 1617 2598 1945 
C 2598 2135 2566 2286 2477 2496 
L 3008 2496 
z
M 941 -13 
C 1152 -58 1664 -96 1978 -96 
C 2560 -96 2771 -180 2771 -414 
C 2771 -791 2285 -1043 1562 -1043 
C 998 -1043 627 -855 627 -570 
C 627 -420 672 -336 941 -13 
z
M 973 2145 
C 973 2526 1152 2752 1446 2752 
C 1645 2752 1811 2642 1914 2449 
C 2029 2223 2106 1927 2106 1675 
C 2106 1314 1920 1088 1626 1088 
C 1242 1088 973 1507 973 2126 
L 973 2145 
z
" transform="scale(0.015625)"/>
      <path id="NimbusRomNo9L-Regu-61" d="M 2829 423 
C 2720 333 2643 301 2547 301 
C 2400 301 2355 390 2355 672 
L 2355 1920 
C 2355 2253 2323 2438 2227 2592 
C 2086 2822 1811 2944 1434 2944 
C 832 2944 358 2630 358 2227 
C 358 2080 486 1952 634 1952 
C 787 1952 922 2080 922 2221 
C 922 2246 915 2278 909 2323 
C 896 2381 890 2432 890 2477 
C 890 2650 1094 2790 1350 2790 
C 1664 2790 1837 2605 1837 2259 
L 1837 1869 
C 851 1472 742 1421 467 1178 
C 326 1050 237 832 237 621 
C 237 218 518 -64 909 -64 
C 1190 -64 1453 70 1843 403 
C 1875 70 1990 -64 2253 -64 
C 2470 -64 2605 13 2829 256 
L 2829 423 
z
M 1837 783 
C 1837 584 1805 526 1670 449 
C 1517 359 1338 301 1203 301 
C 979 301 800 520 800 796 
L 800 822 
C 800 1201 1062 1433 1837 1715 
L 1837 783 
z
" transform="scale(0.015625)"/>
      <path id="NimbusRomNo9L-Regu-70" d="M 58 2516 
C 115 2522 160 2522 218 2522 
C 435 2522 480 2458 480 2155 
L 480 -855 
C 480 -1189 410 -1261 32 -1299 
L 32 -1408 
L 1581 -1408 
L 1581 -1293 
C 1101 -1293 1018 -1222 1018 -816 
L 1018 199 
C 1242 -13 1395 -77 1664 -77 
C 2419 -77 3008 643 3008 1575 
C 3008 2372 2560 2944 1939 2944 
C 1581 2944 1299 2784 1018 2438 
L 1018 2931 
L 979 2944 
C 634 2810 410 2726 58 2618 
L 58 2516 
z
M 1018 2136 
C 1018 2329 1376 2560 1670 2560 
C 2144 2560 2458 2071 2458 1324 
C 2458 611 2144 128 1683 128 
C 1382 128 1018 359 1018 552 
L 1018 2136 
z
" transform="scale(0.015625)"/>
      <path id="NimbusRomNo9L-Regu-72" d="M 45 2496 
C 134 2515 192 2522 269 2522 
C 429 2522 486 2419 486 2138 
L 486 538 
C 486 218 442 173 32 96 
L 32 0 
L 1568 0 
L 1568 102 
C 1133 102 1024 199 1024 565 
L 1024 2013 
C 1024 2219 1299 2541 1472 2541 
C 1510 2541 1568 2509 1638 2445 
C 1741 2355 1811 2317 1894 2317 
C 2048 2317 2144 2426 2144 2605 
C 2144 2816 2010 2944 1792 2944 
C 1523 2944 1338 2797 1024 2343 
L 1024 2931 
L 992 2944 
C 653 2803 422 2721 45 2599 
L 45 2496 
z
" transform="scale(0.015625)"/>
     </defs>
     <use xlink:href="#NimbusRomNo9L-Regu-45" transform="scale(0.996264)"/>
     <use xlink:href="#NimbusRomNo9L-Regu-76" transform="translate(60.871631 0) scale(0.996264)"/>
     <use xlink:href="#NimbusRomNo9L-Regu-6f" transform="translate(108.69282 0) scale(0.996264)"/>
     <use xlink:href="#NimbusRomNo9L-Regu-6c" transform="translate(158.506021 0) scale(0.996264)"/>
     <use xlink:href="#NimbusRomNo9L-Regu-75" transform="translate(186.20119 0) scale(0.996264)"/>
     <use xlink:href="#NimbusRomNo9L-Regu-63" transform="translate(236.014391 0) scale(0.996264)"/>
     <use xlink:href="#NimbusRomNo9L-Regu-69" transform="translate(280.247959 0) scale(0.996264)"/>
     <use xlink:href="#NimbusRomNo9L-Regu-b4" transform="translate(316.262122 0.498056) scale(0.996264)"/>
     <use xlink:href="#NimbusRomNo9L-Regu-6f" transform="translate(307.943129 0) scale(0.996264)"/>
     <use xlink:href="#NimbusRomNo9L-Regu-6e" transform="translate(357.756329 0) scale(0.996264)"/>
     <use xlink:href="#NimbusRomNo9L-Regu-64" transform="translate(432.47613 0) scale(0.996264)"/>
     <use xlink:href="#NimbusRomNo9L-Regu-65" transform="translate(482.289331 0) scale(0.996264)"/>
     <use xlink:href="#NimbusRomNo9L-Regu-53" transform="translate(551.4295 0) scale(0.996264)"/>
     <use xlink:href="#NimbusRomNo9L-Regu-69" transform="translate(606.821177 0) scale(0.996264)"/>
     <use xlink:href="#NimbusRomNo9L-Regu-6e" transform="translate(634.516346 0) scale(0.996264)"/>
     <use xlink:href="#NimbusRomNo9L-Regu-67" transform="translate(684.329547 0) scale(0.996264)"/>
     <use xlink:href="#NimbusRomNo9L-Regu-61" transform="translate(733.645269 0) scale(0.996264)"/>
     <use xlink:href="#NimbusRomNo9L-Regu-70" transform="translate(777.878838 0) scale(0.996264)"/>
     <use xlink:href="#NimbusRomNo9L-Regu-75" transform="translate(827.692038 0) scale(0.996264)"/>
     <use xlink:href="#NimbusRomNo9L-Regu-72" transform="translate(877.505239 0) scale(0.996264)"/>
    </g>
    <!-- Barabsi-Albert - Homofilia: 0\%  -->
    <g transform="translate(23.919545 19.984025) scale(0.096 -0.096)">
     <defs>
      <path id="NimbusRomNo9L-Regu-42" d="M 109 4237 
L 109 4096 
C 646 4096 723 4026 723 3548 
L 723 689 
C 723 212 640 128 109 128 
L 109 0 
L 2246 0 
C 2746 0 3200 136 3437 356 
C 3667 564 3795 855 3795 1165 
C 3795 1451 3680 1710 3482 1897 
C 3290 2072 3117 2150 2701 2253 
C 3034 2335 3168 2398 3322 2531 
C 3482 2671 3578 2903 3578 3163 
C 3578 3871 3008 4237 1901 4237 
L 109 4237 
z
M 1376 2112 
C 1997 2112 2291 2080 2522 1982 
C 2886 1827 3059 1568 3059 1159 
C 3059 809 2925 555 2669 406 
C 2464 290 2202 238 1779 238 
C 1466 238 1376 296 1376 504 
L 1376 2112 
z
M 1376 2368 
L 1376 3812 
C 1376 3944 1421 4001 1517 4001 
L 1798 4001 
C 2534 4001 2925 3699 2925 3137 
C 2925 2646 2586 2368 1984 2368 
L 1376 2368 
z
" transform="scale(0.015625)"/>
      <path id="NimbusRomNo9L-Regu-62" d="M 979 4364 
L 947 4377 
C 678 4281 506 4230 205 4147 
L 19 4096 
L 19 3994 
C 58 4000 83 4000 128 4000 
C 384 4000 442 3942 442 3673 
L 442 347 
C 442 147 986 -64 1498 -64 
C 2342 -64 2995 640 2995 1555 
C 2995 2342 2509 2944 1869 2944 
C 1478 2944 1107 2714 979 2400 
L 979 4364 
z
M 979 2061 
C 979 2310 1280 2541 1613 2541 
C 2112 2541 2432 2042 2432 1261 
C 2432 550 2125 141 1600 141 
C 1267 141 979 288 979 448 
L 979 2061 
z
" transform="scale(0.015625)"/>
      <path id="NimbusRomNo9L-Regu-73" d="M 2016 2010 
L 1990 2880 
L 1920 2880 
L 1907 2867 
C 1850 2822 1843 2816 1818 2816 
C 1779 2816 1715 2829 1645 2861 
C 1504 2915 1363 2944 1197 2944 
C 691 2944 326 2616 326 2154 
C 326 1796 531 1539 1075 1231 
L 1446 1020 
C 1670 892 1779 737 1779 539 
C 1779 256 1574 77 1248 77 
C 1030 77 832 159 710 298 
C 576 455 518 600 435 960 
L 333 960 
L 333 -39 
L 416 -39 
C 461 33 486 48 563 48 
C 621 48 710 35 858 -2 
C 1037 -39 1210 -64 1325 -64 
C 1818 -64 2227 308 2227 757 
C 2227 1077 2074 1289 1690 1520 
L 998 1930 
C 819 2033 723 2194 723 2367 
C 723 2624 922 2803 1216 2803 
C 1581 2803 1773 2583 1920 2010 
L 2016 2010 
z
" transform="scale(0.015625)"/>
      <path id="NimbusRomNo9L-Regu-2d" d="M 250 1619 
L 250 1216 
L 1824 1216 
L 1824 1619 
L 250 1619 
z
" transform="scale(0.015625)"/>
      <path id="NimbusRomNo9L-Regu-41" d="M 4518 128 
C 4230 128 4166 192 3942 667 
L 2349 4320 
L 2221 4320 
L 890 1168 
C 480 231 403 128 96 128 
L 96 0 
L 1363 0 
L 1363 128 
C 1056 128 928 212 928 393 
C 928 470 947 560 979 645 
L 1274 1401 
L 2950 1401 
L 3213 778 
C 3290 602 3334 434 3334 342 
C 3334 180 3226 128 2886 128 
L 2886 0 
L 4518 0 
L 4518 128 
z
M 1382 1664 
L 2118 3416 
L 2861 1664 
L 1382 1664 
z
" transform="scale(0.015625)"/>
      <path id="NimbusRomNo9L-Regu-74" d="M 1632 2880 
L 986 2880 
L 986 3622 
C 986 3686 979 3706 941 3706 
C 896 3648 858 3590 813 3526 
C 570 3174 294 2867 192 2841 
C 122 2794 83 2748 83 2715 
C 83 2695 90 2682 109 2682 
L 448 2682 
L 448 751 
C 448 212 640 -64 1018 -64 
C 1331 -64 1574 90 1786 423 
L 1702 493 
C 1568 333 1459 269 1318 269 
C 1082 269 986 443 986 847 
L 986 2682 
L 1632 2682 
L 1632 2880 
z
" transform="scale(0.015625)"/>
      <path id="NimbusRomNo9L-Regu-48" d="M 1338 2304 
L 1338 3533 
C 1338 3990 1408 4059 1901 4104 
L 1901 4224 
L 122 4224 
L 122 4104 
C 614 4059 685 3989 685 3527 
L 685 749 
C 685 210 621 134 122 134 
L 122 0 
L 1901 0 
L 1901 121 
C 1421 159 1338 242 1338 699 
L 1338 2022 
L 3277 2022 
L 3277 757 
C 3277 211 3213 134 2714 134 
L 2714 0 
L 4493 0 
L 4493 121 
C 4013 159 3930 242 3930 696 
L 3930 3529 
C 3930 3989 4000 4059 4493 4104 
L 4493 4224 
L 2714 4224 
L 2714 4104 
C 3206 4059 3277 3990 3277 3533 
L 3277 2304 
L 1338 2304 
z
" transform="scale(0.015625)"/>
      <path id="NimbusRomNo9L-Regu-6d" d="M 122 2547 
C 205 2566 256 2573 326 2573 
C 493 2573 550 2470 550 2162 
L 550 539 
C 550 192 461 96 102 96 
L 102 0 
L 1523 0 
L 1523 96 
C 1184 96 1088 166 1088 418 
L 1088 2234 
C 1088 2246 1139 2310 1184 2355 
C 1344 2502 1619 2611 1843 2611 
C 2125 2611 2266 2385 2266 1932 
L 2266 528 
C 2266 167 2195 96 1830 96 
L 1830 0 
L 3264 0 
L 3264 96 
C 2899 96 2803 205 2803 603 
L 2803 2221 
C 2995 2496 3206 2611 3501 2611 
C 3866 2611 3981 2438 3981 1907 
L 3981 557 
C 3981 192 3930 141 3558 96 
L 3558 0 
L 4960 0 
L 4960 96 
L 4794 115 
C 4602 115 4518 230 4518 480 
L 4518 1802 
C 4518 2559 4269 2944 3776 2944 
C 3405 2944 3078 2778 2733 2407 
C 2618 2771 2400 2944 2054 2944 
C 1773 2944 1594 2854 1062 2451 
L 1062 2931 
L 1018 2944 
C 691 2822 474 2752 122 2656 
L 122 2547 
z
" transform="scale(0.015625)"/>
      <path id="NimbusRomNo9L-Regu-2" d="M 198 2669 
L 634 2669 
L 634 566 
C 634 148 563 64 205 64 
L 205 -38 
L 1613 -38 
L 1613 58 
C 1254 84 1171 175 1171 532 
L 1171 2669 
L 1722 2669 
C 2336 2669 2368 2650 2368 2305 
L 2368 591 
C 2368 149 2323 90 1926 58 
L 1926 -38 
L 3334 -38 
L 3334 58 
C 2976 90 2906 175 2906 590 
L 2906 2289 
C 2906 2431 2906 2581 2918 2924 
L 2893 2943 
C 2611 2899 2426 2880 2170 2880 
L 1165 2880 
L 1165 3151 
C 1165 3429 1184 3624 1216 3732 
C 1306 4003 1555 4192 1843 4192 
C 2022 4192 2144 4110 2298 3895 
C 2419 3726 2502 3663 2611 3663 
C 2746 3663 2842 3770 2842 3909 
C 2842 4175 2522 4352 2029 4352 
C 1542 4352 1171 4188 941 3878 
C 749 3619 678 3385 640 2880 
L 198 2880 
L 198 2669 
z
" transform="scale(0.015625)"/>
      <path id="NimbusRomNo9L-Regu-3a" d="M 870 2944 
C 678 2944 518 2777 518 2579 
C 518 2393 678 2233 864 2233 
C 1062 2233 1229 2393 1229 2579 
C 1229 2777 1062 2944 870 2944 
z
M 870 646 
C 678 646 518 480 518 281 
C 518 96 678 -64 864 -64 
C 1062 -64 1229 96 1229 281 
C 1229 480 1062 646 870 646 
z
" transform="scale(0.015625)"/>
      <path id="NimbusRomNo9L-Regu-25" d="M 4282 2368 
C 3558 2368 2874 1622 2874 824 
C 2874 325 3181 0 3642 0 
C 3930 0 4166 102 4390 325 
C 4730 670 4941 1187 4941 1686 
C 4941 2120 4698 2368 4282 2368 
z
M 4326 2164 
C 4570 2164 4774 1934 4774 1654 
C 4774 1290 4614 856 4371 556 
C 4166 301 3981 192 3750 192 
C 3520 192 3360 357 3360 601 
C 3360 939 3539 1462 3776 1793 
C 3949 2048 4128 2164 4326 2164 
z
M 4058 4320 
L 3808 4320 
C 3462 4008 3206 3904 2810 3904 
C 2554 3904 2406 3946 2253 4064 
C 2086 4194 2003 4224 1805 4224 
C 1075 4224 390 3468 390 2662 
C 390 2217 730 1856 1146 1856 
C 1421 1856 1709 1984 1920 2209 
C 2253 2549 2458 3056 2458 3526 
C 2458 3615 2445 3693 2413 3808 
C 2528 3763 2643 3744 2829 3744 
C 3110 3744 3277 3788 3533 3931 
L 1286 -96 
L 1594 -96 
L 4058 4320 
z
M 2240 3829 
C 2278 3702 2298 3607 2298 3518 
C 2298 2802 1773 2073 1254 2073 
C 1030 2073 877 2231 877 2460 
C 877 2726 1005 3157 1178 3474 
C 1363 3816 1606 4032 1805 4032 
C 1837 4032 1850 4025 1888 3993 
C 1978 3911 2054 3879 2240 3829 
z
" transform="scale(0.015625)"/>
     </defs>
     <use xlink:href="#NimbusRomNo9L-Regu-42" transform="scale(0.996264)"/>
     <use xlink:href="#NimbusRomNo9L-Regu-61" transform="translate(66.450031 0) scale(0.996264)"/>
     <use xlink:href="#NimbusRomNo9L-Regu-72" transform="translate(110.6836 0) scale(0.996264)"/>
     <use xlink:href="#NimbusRomNo9L-Regu-61" transform="translate(143.85883 0) scale(0.996264)"/>
     <use xlink:href="#NimbusRomNo9L-Regu-62" transform="translate(188.092398 0) scale(0.996264)"/>
     <use xlink:href="#NimbusRomNo9L-Regu-b4" transform="translate(243.434776 0.498056) scale(0.996264)"/>
     <use xlink:href="#NimbusRomNo9L-Regu-61" transform="translate(237.905599 0) scale(0.996264)"/>
     <use xlink:href="#NimbusRomNo9L-Regu-73" transform="translate(282.139167 0) scale(0.996264)"/>
     <use xlink:href="#NimbusRomNo9L-Regu-69" transform="translate(320.892874 0) scale(0.996264)"/>
     <use xlink:href="#NimbusRomNo9L-Regu-2d" transform="translate(348.588043 0) scale(0.996264)"/>
     <use xlink:href="#NimbusRomNo9L-Regu-41" transform="translate(381.763273 0) scale(0.996264)"/>
     <use xlink:href="#NimbusRomNo9L-Regu-6c" transform="translate(453.693258 0) scale(0.996264)"/>
     <use xlink:href="#NimbusRomNo9L-Regu-62" transform="translate(481.388427 0) scale(0.996264)"/>
     <use xlink:href="#NimbusRomNo9L-Regu-65" transform="translate(531.201628 0) scale(0.996264)"/>
     <use xlink:href="#NimbusRomNo9L-Regu-72" transform="translate(575.435197 0) scale(0.996264)"/>
     <use xlink:href="#NimbusRomNo9L-Regu-74" transform="translate(608.610426 0) scale(0.996264)"/>
     <use xlink:href="#NimbusRomNo9L-Regu-2d" transform="translate(661.212196 0) scale(0.996264)"/>
     <use xlink:href="#NimbusRomNo9L-Regu-48" transform="translate(719.294026 0) scale(0.996264)"/>
     <use xlink:href="#NimbusRomNo9L-Regu-6f" transform="translate(791.224011 0) scale(0.996264)"/>
     <use xlink:href="#NimbusRomNo9L-Regu-6d" transform="translate(841.037212 0) scale(0.996264)"/>
     <use xlink:href="#NimbusRomNo9L-Regu-6f" transform="translate(918.545582 0) scale(0.996264)"/>
     <use xlink:href="#NimbusRomNo9L-Regu-2" transform="translate(968.358782 0) scale(0.996264)"/>
     <use xlink:href="#NimbusRomNo9L-Regu-6c" transform="translate(1023.750459 0) scale(0.996264)"/>
     <use xlink:href="#NimbusRomNo9L-Regu-69" transform="translate(1051.445629 0) scale(0.996264)"/>
     <use xlink:href="#NimbusRomNo9L-Regu-61" transform="translate(1079.140798 0) scale(0.996264)"/>
     <use xlink:href="#NimbusRomNo9L-Regu-3a" transform="translate(1123.374367 0) scale(0.996264)"/>
     <use xlink:href="#NimbusRomNo9L-Regu-30" transform="translate(1181.953569 0) scale(0.996264)"/>
     <use xlink:href="#NimbusRomNo9L-Regu-25" transform="translate(1231.766769 0) scale(0.996264)"/>
    </g>
    <!-- Nodos centrales (K) -->
    <g transform="translate(48.518157 29.835844) scale(0.096 -0.096)">
     <defs>
      <path id="NimbusRomNo9L-Regu-4e" d="M 3917 -64 
L 3917 3287 
C 3917 3669 3981 3905 4102 3987 
C 4192 4051 4282 4077 4525 4102 
L 4525 4224 
L 3021 4224 
L 3021 4102 
C 3264 4083 3354 4057 3450 4000 
C 3578 3911 3635 3681 3635 3286 
L 3635 1136 
L 1171 4224 
L 77 4224 
L 77 4102 
C 352 4102 442 4051 698 3751 
L 698 938 
C 698 281 608 159 77 121 
L 77 0 
L 1581 0 
L 1581 134 
C 1088 134 979 281 979 928 
L 979 3439 
L 3808 -64 
L 3917 -64 
z
" transform="scale(0.015625)"/>
      <path id="NimbusRomNo9L-Regu-28" d="M 1888 4326 
C 1414 4019 1222 3853 986 3558 
C 531 3002 307 2362 307 1613 
C 307 800 544 173 1107 -480 
C 1370 -787 1536 -928 1869 -1133 
L 1946 -1030 
C 1434 -627 1254 -403 1082 77 
C 928 506 858 992 858 1632 
C 858 2304 941 2829 1114 3226 
C 1293 3622 1485 3853 1946 4224 
L 1888 4326 
z
" transform="scale(0.015625)"/>
      <path id="NimbusRomNo9L-Regu-4b" d="M 2643 4109 
C 2720 4096 2784 4096 2810 4096 
C 3002 4096 3078 4045 3078 3917 
C 3078 3775 2931 3583 2579 3257 
L 1446 2224 
L 1446 3534 
C 1446 4000 1517 4071 2035 4109 
L 2035 4231 
L 218 4231 
L 218 4109 
C 717 4071 794 3988 794 3531 
L 794 750 
C 794 217 723 134 218 134 
L 218 0 
L 2022 0 
L 2022 134 
C 1523 134 1446 211 1446 683 
L 1446 1891 
L 1613 2026 
L 2291 1355 
C 2778 876 3123 422 3123 269 
C 3123 179 3034 134 2854 134 
C 2822 134 2752 134 2675 121 
L 2675 0 
L 4627 0 
L 4627 134 
C 4294 134 4205 198 3622 816 
L 2131 2409 
L 3347 3611 
C 3782 4026 3885 4077 4320 4109 
L 4320 4231 
L 2643 4231 
L 2643 4109 
z
" transform="scale(0.015625)"/>
      <path id="NimbusRomNo9L-Regu-29" d="M 243 -1133 
C 717 -826 909 -659 1146 -365 
C 1600 192 1824 832 1824 1581 
C 1824 2400 1587 3021 1024 3674 
C 762 3981 595 4122 262 4326 
L 186 4224 
C 698 3821 870 3597 1050 3117 
C 1203 2688 1274 2202 1274 1562 
C 1274 896 1190 365 1018 -26 
C 838 -429 646 -659 186 -1030 
L 243 -1133 
z
" transform="scale(0.015625)"/>
     </defs>
     <use xlink:href="#NimbusRomNo9L-Regu-4e" transform="scale(0.996264)"/>
     <use xlink:href="#NimbusRomNo9L-Regu-6f" transform="translate(71.929985 0) scale(0.996264)"/>
     <use xlink:href="#NimbusRomNo9L-Regu-64" transform="translate(121.743185 0) scale(0.996264)"/>
     <use xlink:href="#NimbusRomNo9L-Regu-6f" transform="translate(171.556386 0) scale(0.996264)"/>
     <use xlink:href="#NimbusRomNo9L-Regu-73" transform="translate(221.369586 0) scale(0.996264)"/>
     <use xlink:href="#NimbusRomNo9L-Regu-63" transform="translate(285.029893 0) scale(0.996264)"/>
     <use xlink:href="#NimbusRomNo9L-Regu-65" transform="translate(329.263461 0) scale(0.996264)"/>
     <use xlink:href="#NimbusRomNo9L-Regu-6e" transform="translate(373.49703 0) scale(0.996264)"/>
     <use xlink:href="#NimbusRomNo9L-Regu-74" transform="translate(423.310231 0) scale(0.996264)"/>
     <use xlink:href="#NimbusRomNo9L-Regu-72" transform="translate(451.0054 0) scale(0.996264)"/>
     <use xlink:href="#NimbusRomNo9L-Regu-61" transform="translate(484.18063 0) scale(0.996264)"/>
     <use xlink:href="#NimbusRomNo9L-Regu-6c" transform="translate(528.414199 0) scale(0.996264)"/>
     <use xlink:href="#NimbusRomNo9L-Regu-65" transform="translate(556.109368 0) scale(0.996264)"/>
     <use xlink:href="#NimbusRomNo9L-Regu-73" transform="translate(600.342937 0) scale(0.996264)"/>
     <use xlink:href="#NimbusRomNo9L-Regu-28" transform="translate(664.003243 0) scale(0.996264)"/>
     <use xlink:href="#NimbusRomNo9L-Regu-4b" transform="translate(697.178473 0) scale(0.996264)"/>
     <use xlink:href="#NimbusRomNo9L-Regu-29" transform="translate(769.108458 0) scale(0.996264)"/>
    </g>
   </g>
   <g id="legend_1">
    <g id="line2d_108">
     <path d="M 87.486675 44.585844 
L 94.486675 44.585844 
L 101.486675 44.585844 
" style="fill: none; stroke: #dedeee; stroke-linecap: square"/>
    </g>
    <g id="text_13">
     <!-- (C) C. Coop -->
     <g transform="translate(107.086675 47.035844) scale(0.07 -0.07)">
      <defs>
       <path id="NimbusRomNo9L-Regu-43" d="M 3968 2906 
L 3910 4352 
L 3776 4352 
C 3738 4218 3635 4141 3507 4141 
C 3450 4141 3354 4160 3258 4199 
C 2944 4301 2624 4352 2323 4352 
C 1798 4352 1267 4154 870 3802 
C 422 3405 179 2810 179 2106 
C 179 1511 371 960 698 596 
C 1082 180 1670 -64 2304 -64 
C 3027 -64 3661 231 4051 749 
L 3936 864 
C 3462 410 3040 218 2509 218 
C 2106 218 1747 346 1472 589 
C 1120 903 922 1479 922 2189 
C 922 3348 1517 4096 2445 4096 
C 2810 4096 3142 3962 3398 3706 
C 3603 3501 3699 3322 3821 2906 
L 3968 2906 
z
" transform="scale(0.015625)"/>
       <path id="NimbusRomNo9L-Regu-2e" d="M 800 646 
C 608 646 448 480 448 281 
C 448 96 608 -64 794 -64 
C 992 -64 1158 96 1158 281 
C 1158 480 992 646 800 646 
z
" transform="scale(0.015625)"/>
      </defs>
      <use xlink:href="#NimbusRomNo9L-Regu-28" transform="scale(0.996264)"/>
      <use xlink:href="#NimbusRomNo9L-Regu-43" transform="translate(33.17523 0) scale(0.996264)"/>
      <use xlink:href="#NimbusRomNo9L-Regu-29" transform="translate(99.625261 0) scale(0.996264)"/>
      <use xlink:href="#NimbusRomNo9L-Regu-43" transform="translate(157.707091 0) scale(0.996264)"/>
      <use xlink:href="#NimbusRomNo9L-Regu-2e" transform="translate(224.157122 0) scale(0.996264)"/>
      <use xlink:href="#NimbusRomNo9L-Regu-43" transform="translate(273.970322 0) scale(0.996264)"/>
      <use xlink:href="#NimbusRomNo9L-Regu-6f" transform="translate(340.420354 0) scale(0.996264)"/>
      <use xlink:href="#NimbusRomNo9L-Regu-6f" transform="translate(390.233554 0) scale(0.996264)"/>
      <use xlink:href="#NimbusRomNo9L-Regu-70" transform="translate(440.046755 0) scale(0.996264)"/>
     </g>
    </g>
    <g id="line2d_109">
     <path d="M 87.486675 54.495624 
L 94.486675 54.495624 
L 101.486675 54.495624 
" style="fill: none; stroke-dasharray: 3.7,1.6; stroke-dashoffset: 0; stroke: #9b9aca"/>
    </g>
    <g id="text_14">
     <!-- (D) C. no Coop -->
     <g transform="translate(107.086675 56.945624) scale(0.07 -0.07)">
      <defs>
       <path id="NimbusRomNo9L-Regu-44" d="M 666 679 
C 666 217 589 134 102 134 
L 102 0 
L 1920 0 
C 2662 0 3334 210 3731 568 
C 4147 944 4384 1512 4384 2131 
C 4384 2706 4192 3203 3840 3554 
C 3405 3994 2707 4224 1830 4224 
L 102 4224 
L 102 4102 
C 608 4057 666 4000 666 3525 
L 666 679 
z
M 1318 3738 
C 1318 3936 1389 3987 1651 3987 
C 2202 3987 2618 3885 2925 3668 
C 3424 3323 3686 2775 3686 2087 
C 3686 1334 3424 798 2906 498 
C 2579 314 2208 237 1651 237 
C 1395 237 1318 294 1318 498 
L 1318 3738 
z
" transform="scale(0.015625)"/>
      </defs>
      <use xlink:href="#NimbusRomNo9L-Regu-28" transform="scale(0.996264)"/>
      <use xlink:href="#NimbusRomNo9L-Regu-44" transform="translate(33.17523 0) scale(0.996264)"/>
      <use xlink:href="#NimbusRomNo9L-Regu-29" transform="translate(105.105215 0) scale(0.996264)"/>
      <use xlink:href="#NimbusRomNo9L-Regu-43" transform="translate(163.187045 0) scale(0.996264)"/>
      <use xlink:href="#NimbusRomNo9L-Regu-2e" transform="translate(229.637076 0) scale(0.996264)"/>
      <use xlink:href="#NimbusRomNo9L-Regu-6e" transform="translate(279.450276 0) scale(0.996264)"/>
      <use xlink:href="#NimbusRomNo9L-Regu-6f" transform="translate(329.263477 0) scale(0.996264)"/>
      <use xlink:href="#NimbusRomNo9L-Regu-43" transform="translate(403.983277 0) scale(0.996264)"/>
      <use xlink:href="#NimbusRomNo9L-Regu-6f" transform="translate(470.433309 0) scale(0.996264)"/>
      <use xlink:href="#NimbusRomNo9L-Regu-6f" transform="translate(520.246509 0) scale(0.996264)"/>
      <use xlink:href="#NimbusRomNo9L-Regu-70" transform="translate(570.05971 0) scale(0.996264)"/>
     </g>
    </g>
    <g id="line2d_110">
     <path d="M 87.486675 64.405405 
L 94.486675 64.405405 
L 101.486675 64.405405 
" style="fill: none; stroke-dasharray: 1,1.65; stroke-dashoffset: 0; stroke: #7976b8"/>
    </g>
    <g id="text_15">
     <!-- (H) P. Honrado -->
     <g transform="translate(107.086675 66.855405) scale(0.07 -0.07)">
      <defs>
       <path id="NimbusRomNo9L-Regu-50" d="M 1293 1875 
C 1459 1856 1568 1856 1734 1856 
C 2234 1856 2579 1919 2854 2072 
C 3238 2274 3469 2660 3469 3078 
C 3469 3344 3379 3584 3206 3768 
C 2950 4047 2394 4224 1792 4224 
L 102 4224 
L 102 4102 
C 576 4051 640 3987 640 3528 
L 640 766 
C 640 230 589 166 102 122 
L 102 0 
L 1894 0 
L 1894 128 
C 1389 128 1293 218 1293 693 
L 1293 1875 
z
M 1293 3772 
C 1293 3943 1338 3987 1510 3987 
C 2374 3987 2771 3690 2771 3040 
C 2771 2428 2394 2112 1658 2112 
C 1530 2112 1440 2119 1293 2131 
L 1293 3772 
z
" transform="scale(0.015625)"/>
      </defs>
      <use xlink:href="#NimbusRomNo9L-Regu-28" transform="scale(0.996264)"/>
      <use xlink:href="#NimbusRomNo9L-Regu-48" transform="translate(33.17523 0) scale(0.996264)"/>
      <use xlink:href="#NimbusRomNo9L-Regu-29" transform="translate(105.105215 0) scale(0.996264)"/>
      <use xlink:href="#NimbusRomNo9L-Regu-50" transform="translate(163.187045 0) scale(0.996264)"/>
      <use xlink:href="#NimbusRomNo9L-Regu-2e" transform="translate(207.520276 0) scale(0.996264)"/>
      <use xlink:href="#NimbusRomNo9L-Regu-48" transform="translate(257.333477 0) scale(0.996264)"/>
      <use xlink:href="#NimbusRomNo9L-Regu-6f" transform="translate(329.263461 0) scale(0.996264)"/>
      <use xlink:href="#NimbusRomNo9L-Regu-6e" transform="translate(379.076662 0) scale(0.996264)"/>
      <use xlink:href="#NimbusRomNo9L-Regu-72" transform="translate(428.889862 0) scale(0.996264)"/>
      <use xlink:href="#NimbusRomNo9L-Regu-61" transform="translate(462.065092 0) scale(0.996264)"/>
      <use xlink:href="#NimbusRomNo9L-Regu-64" transform="translate(506.298661 0) scale(0.996264)"/>
      <use xlink:href="#NimbusRomNo9L-Regu-6f" transform="translate(556.111861 0) scale(0.996264)"/>
     </g>
    </g>
    <g id="line2d_111">
     <path d="M 87.486675 74.315185 
L 94.486675 74.315185 
L 101.486675 74.315185 
" style="fill: none; stroke-dasharray: 6.4,1.6,1,1.6; stroke-dashoffset: 0; stroke: #201f3d"/>
    </g>
    <g id="text_16">
     <!-- (K) P. Corrupto -->
     <g transform="translate(107.086675 76.765185) scale(0.07 -0.07)">
      <use xlink:href="#NimbusRomNo9L-Regu-28" transform="scale(0.996264)"/>
      <use xlink:href="#NimbusRomNo9L-Regu-4b" transform="translate(33.17523 0) scale(0.996264)"/>
      <use xlink:href="#NimbusRomNo9L-Regu-29" transform="translate(105.105215 0) scale(0.996264)"/>
      <use xlink:href="#NimbusRomNo9L-Regu-50" transform="translate(163.187045 0) scale(0.996264)"/>
      <use xlink:href="#NimbusRomNo9L-Regu-2e" transform="translate(207.520276 0) scale(0.996264)"/>
      <use xlink:href="#NimbusRomNo9L-Regu-43" transform="translate(257.333477 0) scale(0.996264)"/>
      <use xlink:href="#NimbusRomNo9L-Regu-6f" transform="translate(323.783508 0) scale(0.996264)"/>
      <use xlink:href="#NimbusRomNo9L-Regu-72" transform="translate(373.596708 0) scale(0.996264)"/>
      <use xlink:href="#NimbusRomNo9L-Regu-72" transform="translate(406.771938 0) scale(0.996264)"/>
      <use xlink:href="#NimbusRomNo9L-Regu-75" transform="translate(439.947168 0) scale(0.996264)"/>
      <use xlink:href="#NimbusRomNo9L-Regu-70" transform="translate(489.760368 0) scale(0.996264)"/>
      <use xlink:href="#NimbusRomNo9L-Regu-74" transform="translate(539.573569 0) scale(0.996264)"/>
      <use xlink:href="#NimbusRomNo9L-Regu-6f" transform="translate(567.268738 0) scale(0.996264)"/>
     </g>
    </g>
   </g>
  </g>
 </g>
 <defs>
  <clipPath id="p564eb1b984">
   <rect x="17.277745" y="35.835844" width="139.5" height="138.6"/>
  </clipPath>
 </defs>
</svg>
