<?xml version="1.0" encoding="utf-8" standalone="no"?>
<!DOCTYPE svg PUBLIC "-//W3C//DTD SVG 1.1//EN"
  "http://www.w3.org/Graphics/SVG/1.1/DTD/svg11.dtd">
<svg xmlns:xlink="http://www.w3.org/1999/xlink" width="174.312175pt" height="178.035844pt" viewBox="0 0 174.312175 178.035844" xmlns="http://www.w3.org/2000/svg" version="1.1">
 <metadata>
  <rdf:RDF xmlns:dc="http://purl.org/dc/elements/1.1/" xmlns:cc="http://creativecommons.org/ns#" xmlns:rdf="http://www.w3.org/1999/02/22-rdf-syntax-ns#">
   <cc:Work>
    <dc:type rdf:resource="http://purl.org/dc/dcmitype/StillImage"/>
    <dc:date>2025-06-14T03:24:28.962715</dc:date>
    <dc:format>image/svg+xml</dc:format>
    <dc:creator>
     <cc:Agent>
      <dc:title>Matplotlib v3.10.1, https://matplotlib.org/</dc:title>
     </cc:Agent>
    </dc:creator>
   </cc:Work>
  </rdf:RDF>
 </metadata>
 <defs>
  <style type="text/css">*{stroke-linejoin: round; stroke-linecap: butt}</style>
 </defs>
 <g id="figure_1">
  <g id="patch_1">
   <path d="M 0 178.035844 
L 174.312175 178.035844 
L 174.312175 0 
L 0 0 
z
" style="fill: #ffffff"/>
  </g>
  <g id="axes_1">
   <g id="LineCollection_1">
    <path d="M 136.439388 92.210044 
L 131.875419 91.700061 
" clip-path="url(#pcd38b9c222)" style="fill: none; stroke: #201f3d; stroke-opacity: 0.6; stroke-width: 0.4"/>
    <path d="M 112.427221 112.922995 
L 116.687959 114.080717 
" clip-path="url(#pcd38b9c222)" style="fill: none; stroke: #201f3d; stroke-opacity: 0.6; stroke-width: 0.4"/>
    <path d="M 104.765801 89.051749 
L 103.388007 90.116007 
" clip-path="url(#pcd38b9c222)" style="fill: none; stroke: #201f3d; stroke-opacity: 0.6; stroke-width: 0.4"/>
    <path d="M 82.543283 154.919169 
L 82.907277 157.755401 
" clip-path="url(#pcd38b9c222)" style="fill: none; stroke: #201f3d; stroke-opacity: 0.6; stroke-width: 0.4"/>
    <path d="M 61.865826 54.918834 
L 59.643776 51.401106 
" clip-path="url(#pcd38b9c222)" style="fill: none; stroke: #201f3d; stroke-opacity: 0.6; stroke-width: 0.4"/>
    <path d="M 61.865826 54.918834 
L 56.783681 50.922019 
" clip-path="url(#pcd38b9c222)" style="fill: none; stroke: #201f3d; stroke-opacity: 0.6; stroke-width: 0.4"/>
    <path d="M 61.865826 54.918834 
L 60.481723 51.047277 
" clip-path="url(#pcd38b9c222)" style="fill: none; stroke: #201f3d; stroke-opacity: 0.6; stroke-width: 0.4"/>
    <path d="M 95.025641 128.70412 
L 98.44683 131.684373 
" clip-path="url(#pcd38b9c222)" style="fill: none; stroke: #201f3d; stroke-opacity: 0.6; stroke-width: 0.4"/>
    <path d="M 93.302592 132.067661 
L 91.88347 128.317084 
" clip-path="url(#pcd38b9c222)" style="fill: none; stroke: #201f3d; stroke-opacity: 0.6; stroke-width: 0.4"/>
    <path d="M 111.256603 100.566706 
L 115.347176 101.877889 
" clip-path="url(#pcd38b9c222)" style="fill: none; stroke: #201f3d; stroke-opacity: 0.6; stroke-width: 0.4"/>
    <path d="M 111.256603 100.566706 
L 115.480569 101.175132 
" clip-path="url(#pcd38b9c222)" style="fill: none; stroke: #201f3d; stroke-opacity: 0.6; stroke-width: 0.4"/>
    <path d="M 111.256603 100.566706 
L 115.556703 100.418475 
" clip-path="url(#pcd38b9c222)" style="fill: none; stroke: #201f3d; stroke-opacity: 0.6; stroke-width: 0.4"/>
    <path d="M 53.722922 48.39858 
L 56.783681 50.922019 
" clip-path="url(#pcd38b9c222)" style="fill: none; stroke: #201f3d; stroke-opacity: 0.6; stroke-width: 0.4"/>
    <path d="M 138.806673 93.958129 
L 143.387103 94.369891 
" clip-path="url(#pcd38b9c222)" style="fill: none; stroke: #201f3d; stroke-opacity: 0.6; stroke-width: 0.4"/>
    <path d="M 78.453717 69.579854 
L 77.424556 65.455075 
" clip-path="url(#pcd38b9c222)" style="fill: none; stroke: #201f3d; stroke-opacity: 0.6; stroke-width: 0.4"/>
    <path d="M 78.453717 69.579854 
L 78.324366 65.460564 
" clip-path="url(#pcd38b9c222)" style="fill: none; stroke: #201f3d; stroke-opacity: 0.6; stroke-width: 0.4"/>
    <path d="M 115.485279 85.111181 
L 120.572942 85.44845 
" clip-path="url(#pcd38b9c222)" style="fill: none; stroke: #201f3d; stroke-opacity: 0.6; stroke-width: 0.4"/>
    <path d="M 104.443932 84.994583 
L 109.55922 83.334029 
" clip-path="url(#pcd38b9c222)" style="fill: none; stroke: #201f3d; stroke-opacity: 0.6; stroke-width: 0.4"/>
    <path d="M 38.791353 63.948177 
L 33.423209 62.226699 
" clip-path="url(#pcd38b9c222)" style="fill: none; stroke: #201f3d; stroke-opacity: 0.6; stroke-width: 0.4"/>
    <path d="M 38.791353 63.948177 
L 35.114761 62.184143 
" clip-path="url(#pcd38b9c222)" style="fill: none; stroke: #201f3d; stroke-opacity: 0.6; stroke-width: 0.4"/>
    <path d="M 96.725408 55.292994 
L 99.912443 52.525159 
" clip-path="url(#pcd38b9c222)" style="fill: none; stroke: #201f3d; stroke-opacity: 0.6; stroke-width: 0.4"/>
    <path d="M 96.725408 55.292994 
L 99.176419 51.856946 
" clip-path="url(#pcd38b9c222)" style="fill: none; stroke: #201f3d; stroke-opacity: 0.6; stroke-width: 0.4"/>
    <path d="M 106.014066 117.401873 
L 110.696591 118.850467 
" clip-path="url(#pcd38b9c222)" style="fill: none; stroke: #201f3d; stroke-opacity: 0.6; stroke-width: 0.4"/>
    <path d="M 91.88347 128.317084 
L 96.96471 132.525527 
" clip-path="url(#pcd38b9c222)" style="fill: none; stroke: #201f3d; stroke-opacity: 0.6; stroke-width: 0.4"/>
    <path d="M 91.88347 128.317084 
L 92.51265 132.218833 
" clip-path="url(#pcd38b9c222)" style="fill: none; stroke: #201f3d; stroke-opacity: 0.6; stroke-width: 0.4"/>
    <path d="M 95.473136 135.083082 
L 98.029573 138.397515 
" clip-path="url(#pcd38b9c222)" style="fill: none; stroke: #201f3d; stroke-opacity: 0.6; stroke-width: 0.4"/>
    <path d="M 86.992345 138.595445 
L 86.657845 134.353502 
" clip-path="url(#pcd38b9c222)" style="fill: none; stroke: #201f3d; stroke-opacity: 0.6; stroke-width: 0.4"/>
    <path d="M 61.700846 63.666317 
L 58.614994 61.073125 
" clip-path="url(#pcd38b9c222)" style="fill: none; stroke: #201f3d; stroke-opacity: 0.6; stroke-width: 0.4"/>
    <path d="M 61.700846 63.666317 
L 58.184011 62.035319 
" clip-path="url(#pcd38b9c222)" style="fill: none; stroke: #201f3d; stroke-opacity: 0.6; stroke-width: 0.4"/>
    <path d="M 106.933148 79.247714 
L 109.225463 75.507777 
" clip-path="url(#pcd38b9c222)" style="fill: none; stroke: #201f3d; stroke-opacity: 0.6; stroke-width: 0.4"/>
    <path d="M 106.933148 79.247714 
L 109.982772 75.86209 
" clip-path="url(#pcd38b9c222)" style="fill: none; stroke: #201f3d; stroke-opacity: 0.6; stroke-width: 0.4"/>
    <path d="M 59.898161 98.117202 
L 55.343894 98.229328 
" clip-path="url(#pcd38b9c222)" style="fill: none; stroke: #201f3d; stroke-opacity: 0.6; stroke-width: 0.4"/>
    <path d="M 78.103151 137.314001 
L 79.114157 141.158905 
" clip-path="url(#pcd38b9c222)" style="fill: none; stroke: #201f3d; stroke-opacity: 0.6; stroke-width: 0.4"/>
    <path d="M 121.070392 102.205893 
L 125.691755 103.897402 
" clip-path="url(#pcd38b9c222)" style="fill: none; stroke: #201f3d; stroke-opacity: 0.6; stroke-width: 0.4"/>
    <path d="M 78.143213 129.700087 
L 77.17732 133.332677 
" clip-path="url(#pcd38b9c222)" style="fill: none; stroke: #201f3d; stroke-opacity: 0.6; stroke-width: 0.4"/>
    <path d="M 98.717363 91.538239 
L 97.010682 91.732844 
" clip-path="url(#pcd38b9c222)" style="fill: none; stroke: #201f3d; stroke-opacity: 0.6; stroke-width: 0.4"/>
    <path d="M 33.423209 62.226699 
L 29.511459 61.021585 
" clip-path="url(#pcd38b9c222)" style="fill: none; stroke: #201f3d; stroke-opacity: 0.6; stroke-width: 0.4"/>
    <path d="M 86.643252 104.666154 
L 90.32598 102.859442 
" clip-path="url(#pcd38b9c222)" style="fill: none; stroke: #201f3d; stroke-opacity: 0.6; stroke-width: 0.4"/>
    <path d="M 84.210322 125.850257 
L 83.111685 129.905271 
" clip-path="url(#pcd38b9c222)" style="fill: none; stroke: #201f3d; stroke-opacity: 0.6; stroke-width: 0.4"/>
    <path d="M 88.256841 74.721821 
L 93.089807 77.099851 
" clip-path="url(#pcd38b9c222)" style="fill: none; stroke: #201f3d; stroke-opacity: 0.6; stroke-width: 0.4"/>
    <path d="M 98.352483 116.180047 
L 99.298111 119.469985 
" clip-path="url(#pcd38b9c222)" style="fill: none; stroke: #201f3d; stroke-opacity: 0.6; stroke-width: 0.4"/>
    <path d="M 58.787622 125.191971 
L 55.198996 127.893518 
" clip-path="url(#pcd38b9c222)" style="fill: none; stroke: #201f3d; stroke-opacity: 0.6; stroke-width: 0.4"/>
    <path d="M 56.638232 123.758463 
L 51.957497 125.593696 
" clip-path="url(#pcd38b9c222)" style="fill: none; stroke: #201f3d; stroke-opacity: 0.6; stroke-width: 0.4"/>
    <path d="M 70.433643 132.723574 
L 66.583295 136.057969 
" clip-path="url(#pcd38b9c222)" style="fill: none; stroke: #201f3d; stroke-opacity: 0.6; stroke-width: 0.4"/>
    <path d="M 99.82207 107.325833 
L 104.126728 112.876783 
" clip-path="url(#pcd38b9c222)" style="fill: none; stroke: #201f3d; stroke-opacity: 0.6; stroke-width: 0.4"/>
    <path d="M 99.82207 107.325833 
L 102.888581 109.851942 
" clip-path="url(#pcd38b9c222)" style="fill: none; stroke: #201f3d; stroke-opacity: 0.6; stroke-width: 0.4"/>
    <path d="M 99.82207 107.325833 
L 103.939218 108.301963 
" clip-path="url(#pcd38b9c222)" style="fill: none; stroke: #201f3d; stroke-opacity: 0.6; stroke-width: 0.4"/>
    <path d="M 99.82207 107.325833 
L 103.700811 113.628104 
" clip-path="url(#pcd38b9c222)" style="fill: none; stroke: #201f3d; stroke-opacity: 0.6; stroke-width: 0.4"/>
    <path d="M 99.82207 107.325833 
L 103.097253 108.868067 
" clip-path="url(#pcd38b9c222)" style="fill: none; stroke: #201f3d; stroke-opacity: 0.6; stroke-width: 0.4"/>
    <path d="M 104.126728 112.876783 
L 107.342271 116.732592 
" clip-path="url(#pcd38b9c222)" style="fill: none; stroke: #201f3d; stroke-opacity: 0.6; stroke-width: 0.4"/>
    <path d="M 54.1726 47.863117 
L 56.783681 50.922019 
" clip-path="url(#pcd38b9c222)" style="fill: none; stroke: #201f3d; stroke-opacity: 0.6; stroke-width: 0.4"/>
    <path d="M 108.23449 83.453572 
L 105.663558 86.669561 
" clip-path="url(#pcd38b9c222)" style="fill: none; stroke: #201f3d; stroke-opacity: 0.6; stroke-width: 0.4"/>
    <path d="M 103.700811 113.628104 
L 106.591131 118.078267 
" clip-path="url(#pcd38b9c222)" style="fill: none; stroke: #201f3d; stroke-opacity: 0.6; stroke-width: 0.4"/>
    <path d="M 102.693578 120.416866 
L 105.603004 123.274244 
" clip-path="url(#pcd38b9c222)" style="fill: none; stroke: #201f3d; stroke-opacity: 0.6; stroke-width: 0.4"/>
    <path d="M 82.223862 78.57299 
L 83.481419 74.782113 
" clip-path="url(#pcd38b9c222)" style="fill: none; stroke: #201f3d; stroke-opacity: 0.6; stroke-width: 0.4"/>
    <path d="M 56.677839 122.388868 
L 52.038419 123.159317 
" clip-path="url(#pcd38b9c222)" style="fill: none; stroke: #201f3d; stroke-opacity: 0.6; stroke-width: 0.4"/>
    <path d="M 85.083936 155.195867 
L 83.982279 151.545126 
" clip-path="url(#pcd38b9c222)" style="fill: none; stroke: #201f3d; stroke-opacity: 0.6; stroke-width: 0.4"/>
    <path d="M 49.44149 126.68447 
L 45.534696 128.445064 
" clip-path="url(#pcd38b9c222)" style="fill: none; stroke: #201f3d; stroke-opacity: 0.6; stroke-width: 0.4"/>
    <path d="M 97.148093 130.535862 
L 94.381493 127.61406 
" clip-path="url(#pcd38b9c222)" style="fill: none; stroke: #201f3d; stroke-opacity: 0.6; stroke-width: 0.4"/>
    <path d="M 76.177085 162.408571 
L 76.811732 160.229566 
" clip-path="url(#pcd38b9c222)" style="fill: none; stroke: #201f3d; stroke-opacity: 0.6; stroke-width: 0.4"/>
    <path d="M 82.731703 66.420148 
L 83.597661 62.461856 
" clip-path="url(#pcd38b9c222)" style="fill: none; stroke: #201f3d; stroke-opacity: 0.6; stroke-width: 0.4"/>
    <path d="M 48.929775 71.825141 
L 44.882068 69.620729 
" clip-path="url(#pcd38b9c222)" style="fill: none; stroke: #201f3d; stroke-opacity: 0.6; stroke-width: 0.4"/>
    <path d="M 48.929775 71.825141 
L 44.575335 70.363829 
" clip-path="url(#pcd38b9c222)" style="fill: none; stroke: #201f3d; stroke-opacity: 0.6; stroke-width: 0.4"/>
    <path d="M 102.495009 60.887534 
L 107.249964 59.3823 
" clip-path="url(#pcd38b9c222)" style="fill: none; stroke: #201f3d; stroke-opacity: 0.6; stroke-width: 0.4"/>
    <path d="M 54.900491 138.42865 
L 53.382059 141.703275 
" clip-path="url(#pcd38b9c222)" style="fill: none; stroke: #201f3d; stroke-opacity: 0.6; stroke-width: 0.4"/>
    <path d="M 67.71627 109.053283 
L 62.487202 109.372789 
" clip-path="url(#pcd38b9c222)" style="fill: none; stroke: #201f3d; stroke-opacity: 0.6; stroke-width: 0.4"/>
    <path d="M 67.71627 109.053283 
L 62.775385 109.644646 
" clip-path="url(#pcd38b9c222)" style="fill: none; stroke: #201f3d; stroke-opacity: 0.6; stroke-width: 0.4"/>
    <path d="M 69.564817 108.201312 
L 64.622914 107.655922 
" clip-path="url(#pcd38b9c222)" style="fill: none; stroke: #201f3d; stroke-opacity: 0.6; stroke-width: 0.4"/>
    <path d="M 69.564817 108.201312 
L 64.629183 108.314197 
" clip-path="url(#pcd38b9c222)" style="fill: none; stroke: #201f3d; stroke-opacity: 0.6; stroke-width: 0.4"/>
    <path d="M 94.88414 79.16023 
L 98.996893 76.560315 
" clip-path="url(#pcd38b9c222)" style="fill: none; stroke: #201f3d; stroke-opacity: 0.6; stroke-width: 0.4"/>
    <path d="M 83.624518 155.522604 
L 83.982279 151.545126 
" clip-path="url(#pcd38b9c222)" style="fill: none; stroke: #201f3d; stroke-opacity: 0.6; stroke-width: 0.4"/>
    <path d="M 64.986227 72.306494 
L 61.203115 69.659695 
" clip-path="url(#pcd38b9c222)" style="fill: none; stroke: #201f3d; stroke-opacity: 0.6; stroke-width: 0.4"/>
    <path d="M 90.689452 115.678654 
L 95.549227 115.90879 
" clip-path="url(#pcd38b9c222)" style="fill: none; stroke: #201f3d; stroke-opacity: 0.6; stroke-width: 0.4"/>
    <path d="M 68.036774 108.543583 
L 72.319974 108.63049 
" clip-path="url(#pcd38b9c222)" style="fill: none; stroke: #201f3d; stroke-opacity: 0.6; stroke-width: 0.4"/>
    <path d="M 140.961808 74.864854 
L 144.800716 73.043111 
" clip-path="url(#pcd38b9c222)" style="fill: none; stroke: #201f3d; stroke-opacity: 0.6; stroke-width: 0.4"/>
    <path d="M 75.211333 85.982574 
L 71.362345 86.160736 
" clip-path="url(#pcd38b9c222)" style="fill: none; stroke: #201f3d; stroke-opacity: 0.6; stroke-width: 0.4"/>
    <path d="M 144.789231 99.066322 
L 140.490047 97.636635 
" clip-path="url(#pcd38b9c222)" style="fill: none; stroke: #201f3d; stroke-opacity: 0.6; stroke-width: 0.4"/>
    <path d="M 53.200042 124.081626 
L 57.249473 123.140088 
" clip-path="url(#pcd38b9c222)" style="fill: none; stroke: #201f3d; stroke-opacity: 0.6; stroke-width: 0.4"/>
    <path d="M 64.099379 105.95567 
L 68.829071 106.979677 
" clip-path="url(#pcd38b9c222)" style="fill: none; stroke: #201f3d; stroke-opacity: 0.6; stroke-width: 0.4"/>
    <path d="M 113.339409 81.131674 
L 109.798017 84.149541 
" clip-path="url(#pcd38b9c222)" style="fill: none; stroke: #201f3d; stroke-opacity: 0.6; stroke-width: 0.4"/>
    <path d="M 132.140952 90.154989 
L 136.715553 89.784191 
" clip-path="url(#pcd38b9c222)" style="fill: none; stroke: #201f3d; stroke-opacity: 0.6; stroke-width: 0.4"/>
    <path d="M 100.108276 135.714768 
L 96.96471 132.525527 
" clip-path="url(#pcd38b9c222)" style="fill: none; stroke: #201f3d; stroke-opacity: 0.6; stroke-width: 0.4"/>
    <path d="M 124.434248 84.375683 
L 127.972896 81.742558 
" clip-path="url(#pcd38b9c222)" style="fill: none; stroke: #201f3d; stroke-opacity: 0.6; stroke-width: 0.4"/>
    <path d="M 66.767728 71.038677 
L 64.158415 67.758559 
" clip-path="url(#pcd38b9c222)" style="fill: none; stroke: #201f3d; stroke-opacity: 0.6; stroke-width: 0.4"/>
    <path d="M 113.699159 81.814618 
L 109.798017 84.149541 
" clip-path="url(#pcd38b9c222)" style="fill: none; stroke: #201f3d; stroke-opacity: 0.6; stroke-width: 0.4"/>
    <path d="M 73.666232 67.983251 
L 77.049228 66.512856 
" clip-path="url(#pcd38b9c222)" style="fill: none; stroke: #201f3d; stroke-opacity: 0.6; stroke-width: 0.4"/>
   </g>
   <g id="PathCollection_1">
    <defs>
     <path id="mc34dafe7f8" d="M 0 1.581139 
C 0.419323 1.581139 0.821528 1.41454 1.118034 1.118034 
C 1.41454 0.821528 1.581139 0.419323 1.581139 0 
C 1.581139 -0.419323 1.41454 -0.821528 1.118034 -1.118034 
C 0.821528 -1.41454 0.419323 -1.581139 0 -1.581139 
C -0.419323 -1.581139 -0.821528 -1.41454 -1.118034 -1.118034 
C -1.41454 -0.821528 -1.581139 -0.419323 -1.581139 0 
C -1.581139 0.419323 -1.41454 0.821528 -1.118034 1.118034 
C -0.821528 1.41454 -0.419323 1.581139 0 1.581139 
z
" style="stroke: #201f3d; stroke-width: 0.1"/>
    </defs>
    <g clip-path="url(#pcd38b9c222)">
     <use xlink:href="#mc34dafe7f8" x="97.148093" y="130.535862" style="fill: #201f3d; stroke: #201f3d; stroke-width: 0.1"/>
     <use xlink:href="#mc34dafe7f8" x="78.103151" y="137.314001" style="fill: #201f3d; stroke: #201f3d; stroke-width: 0.1"/>
     <use xlink:href="#mc34dafe7f8" x="141.199995" y="87.466117" style="fill: #201f3d; stroke: #201f3d; stroke-width: 0.1"/>
     <use xlink:href="#mc34dafe7f8" x="69.564817" y="108.201312" style="fill: #201f3d; stroke: #201f3d; stroke-width: 0.1"/>
     <use xlink:href="#mc34dafe7f8" x="103.700811" y="113.628104" style="fill: #201f3d; stroke: #201f3d; stroke-width: 0.1"/>
     <use xlink:href="#mc34dafe7f8" x="109.027149" y="109.248017" style="fill: #201f3d; stroke: #201f3d; stroke-width: 0.1"/>
     <use xlink:href="#mc34dafe7f8" x="82.543283" y="154.919169" style="fill: #201f3d; stroke: #201f3d; stroke-width: 0.1"/>
     <use xlink:href="#mc34dafe7f8" x="104.060763" y="119.440514" style="fill: #201f3d; stroke: #201f3d; stroke-width: 0.1"/>
     <use xlink:href="#mc34dafe7f8" x="83.280681" y="141.151138" style="fill: #201f3d; stroke: #201f3d; stroke-width: 0.1"/>
     <use xlink:href="#mc34dafe7f8" x="73.666232" y="67.983251" style="fill: #201f3d; stroke: #201f3d; stroke-width: 0.1"/>
     <use xlink:href="#mc34dafe7f8" x="99.176419" y="51.856946" style="fill: #201f3d; stroke: #201f3d; stroke-width: 0.1"/>
     <use xlink:href="#mc34dafe7f8" x="109.934542" y="111.788214" style="fill: #201f3d; stroke: #201f3d; stroke-width: 0.1"/>
     <use xlink:href="#mc34dafe7f8" x="82.907277" y="157.755401" style="fill: #201f3d; stroke: #201f3d; stroke-width: 0.1"/>
     <use xlink:href="#mc34dafe7f8" x="50.677465" y="125.70706" style="fill: #201f3d; stroke: #201f3d; stroke-width: 0.1"/>
     <use xlink:href="#mc34dafe7f8" x="97.822534" y="80.770848" style="fill: #201f3d; stroke: #201f3d; stroke-width: 0.1"/>
     <use xlink:href="#mc34dafe7f8" x="76.187562" y="133.056112" style="fill: #201f3d; stroke: #201f3d; stroke-width: 0.1"/>
     <use xlink:href="#mc34dafe7f8" x="93.667975" y="53.122032" style="fill: #201f3d; stroke: #201f3d; stroke-width: 0.1"/>
     <use xlink:href="#mc34dafe7f8" x="117.534152" y="100.774575" style="fill: #201f3d; stroke: #201f3d; stroke-width: 0.1"/>
     <use xlink:href="#mc34dafe7f8" x="77.17732" y="133.332677" style="fill: #201f3d; stroke: #201f3d; stroke-width: 0.1"/>
     <use xlink:href="#mc34dafe7f8" x="106.35343" y="130.401745" style="fill: #201f3d; stroke: #201f3d; stroke-width: 0.1"/>
     <use xlink:href="#mc34dafe7f8" x="116.843505" y="116.675242" style="fill: #201f3d; stroke: #201f3d; stroke-width: 0.1"/>
     <use xlink:href="#mc34dafe7f8" x="89.273414" y="65.310302" style="fill: #201f3d; stroke: #201f3d; stroke-width: 0.1"/>
     <use xlink:href="#mc34dafe7f8" x="109.798017" y="84.149541" style="fill: #201f3d; stroke: #201f3d; stroke-width: 0.1"/>
     <use xlink:href="#mc34dafe7f8" x="145.59689" y="97.610694" style="fill: #201f3d; stroke: #201f3d; stroke-width: 0.1"/>
     <use xlink:href="#mc34dafe7f8" x="35.114761" y="62.184143" style="fill: #201f3d; stroke: #201f3d; stroke-width: 0.1"/>
     <use xlink:href="#mc34dafe7f8" x="54.260373" y="89.38511" style="fill: #201f3d; stroke: #201f3d; stroke-width: 0.1"/>
     <use xlink:href="#mc34dafe7f8" x="87.717813" y="130.222758" style="fill: #201f3d; stroke: #201f3d; stroke-width: 0.1"/>
     <use xlink:href="#mc34dafe7f8" x="53.382059" y="141.703275" style="fill: #201f3d; stroke: #201f3d; stroke-width: 0.1"/>
     <use xlink:href="#mc34dafe7f8" x="71.362345" y="86.160736" style="fill: #201f3d; stroke: #201f3d; stroke-width: 0.1"/>
     <use xlink:href="#mc34dafe7f8" x="98.996893" y="76.560315" style="fill: #201f3d; stroke: #201f3d; stroke-width: 0.1"/>
     <use xlink:href="#mc34dafe7f8" x="73.400841" y="78.338467" style="fill: #201f3d; stroke: #201f3d; stroke-width: 0.1"/>
     <use xlink:href="#mc34dafe7f8" x="56.638232" y="123.758463" style="fill: #201f3d; stroke: #201f3d; stroke-width: 0.1"/>
     <use xlink:href="#mc34dafe7f8" x="75.218142" y="76.708214" style="fill: #201f3d; stroke: #201f3d; stroke-width: 0.1"/>
     <use xlink:href="#mc34dafe7f8" x="106.933148" y="79.247714" style="fill: #201f3d; stroke: #201f3d; stroke-width: 0.1"/>
     <use xlink:href="#mc34dafe7f8" x="83.111685" y="129.905271" style="fill: #201f3d; stroke: #201f3d; stroke-width: 0.1"/>
     <use xlink:href="#mc34dafe7f8" x="52.038419" y="123.159317" style="fill: #201f3d; stroke: #201f3d; stroke-width: 0.1"/>
     <use xlink:href="#mc34dafe7f8" x="83.597661" y="62.461856" style="fill: #201f3d; stroke: #201f3d; stroke-width: 0.1"/>
     <use xlink:href="#mc34dafe7f8" x="89.216948" y="52.233999" style="fill: #201f3d; stroke: #201f3d; stroke-width: 0.1"/>
     <use xlink:href="#mc34dafe7f8" x="111.256603" y="100.566706" style="fill: #201f3d; stroke: #201f3d; stroke-width: 0.1"/>
     <use xlink:href="#mc34dafe7f8" x="50.251035" y="54.10792" style="fill: #201f3d; stroke: #201f3d; stroke-width: 0.1"/>
     <use xlink:href="#mc34dafe7f8" x="78.58868" y="54.339524" style="fill: #201f3d; stroke: #201f3d; stroke-width: 0.1"/>
     <use xlink:href="#mc34dafe7f8" x="92.51265" y="132.218833" style="fill: #201f3d; stroke: #201f3d; stroke-width: 0.1"/>
     <use xlink:href="#mc34dafe7f8" x="108.23449" y="83.453572" style="fill: #201f3d; stroke: #201f3d; stroke-width: 0.1"/>
     <use xlink:href="#mc34dafe7f8" x="55.584821" y="108.553205" style="fill: #201f3d; stroke: #201f3d; stroke-width: 0.1"/>
     <use xlink:href="#mc34dafe7f8" x="95.473136" y="135.083082" style="fill: #201f3d; stroke: #201f3d; stroke-width: 0.1"/>
     <use xlink:href="#mc34dafe7f8" x="100.108276" y="135.714768" style="fill: #201f3d; stroke: #201f3d; stroke-width: 0.1"/>
     <use xlink:href="#mc34dafe7f8" x="103.388007" y="90.116007" style="fill: #201f3d; stroke: #201f3d; stroke-width: 0.1"/>
     <use xlink:href="#mc34dafe7f8" x="49.44149" y="126.68447" style="fill: #201f3d; stroke: #201f3d; stroke-width: 0.1"/>
     <use xlink:href="#mc34dafe7f8" x="55.198996" y="127.893518" style="fill: #201f3d; stroke: #201f3d; stroke-width: 0.1"/>
     <use xlink:href="#mc34dafe7f8" x="106.880441" y="130.559111" style="fill: #201f3d; stroke: #201f3d; stroke-width: 0.1"/>
     <use xlink:href="#mc34dafe7f8" x="38.791353" y="63.948177" style="fill: #201f3d; stroke: #201f3d; stroke-width: 0.1"/>
     <use xlink:href="#mc34dafe7f8" x="109.474048" y="110.579066" style="fill: #201f3d; stroke: #201f3d; stroke-width: 0.1"/>
     <use xlink:href="#mc34dafe7f8" x="131.875419" y="91.700061" style="fill: #201f3d; stroke: #201f3d; stroke-width: 0.1"/>
     <use xlink:href="#mc34dafe7f8" x="74.823532" y="163.90488" style="fill: #201f3d; stroke: #201f3d; stroke-width: 0.1"/>
     <use xlink:href="#mc34dafe7f8" x="82.223862" y="78.57299" style="fill: #201f3d; stroke: #201f3d; stroke-width: 0.1"/>
     <use xlink:href="#mc34dafe7f8" x="58.943769" y="100.599854" style="fill: #201f3d; stroke: #201f3d; stroke-width: 0.1"/>
     <use xlink:href="#mc34dafe7f8" x="107.342271" y="116.732592" style="fill: #201f3d; stroke: #201f3d; stroke-width: 0.1"/>
     <use xlink:href="#mc34dafe7f8" x="95.182133" y="109.829479" style="fill: #201f3d; stroke: #201f3d; stroke-width: 0.1"/>
     <use xlink:href="#mc34dafe7f8" x="100.234495" y="119.673865" style="fill: #201f3d; stroke: #201f3d; stroke-width: 0.1"/>
     <use xlink:href="#mc34dafe7f8" x="52.875459" y="88.889253" style="fill: #201f3d; stroke: #201f3d; stroke-width: 0.1"/>
     <use xlink:href="#mc34dafe7f8" x="77.049228" y="66.512856" style="fill: #201f3d; stroke: #201f3d; stroke-width: 0.1"/>
     <use xlink:href="#mc34dafe7f8" x="78.324366" y="65.460564" style="fill: #201f3d; stroke: #201f3d; stroke-width: 0.1"/>
     <use xlink:href="#mc34dafe7f8" x="76.177085" y="162.408571" style="fill: #201f3d; stroke: #201f3d; stroke-width: 0.1"/>
     <use xlink:href="#mc34dafe7f8" x="59.643776" y="51.401106" style="fill: #201f3d; stroke: #201f3d; stroke-width: 0.1"/>
     <use xlink:href="#mc34dafe7f8" x="120.572942" y="85.44845" style="fill: #201f3d; stroke: #201f3d; stroke-width: 0.1"/>
     <use xlink:href="#mc34dafe7f8" x="138.806673" y="93.958129" style="fill: #201f3d; stroke: #201f3d; stroke-width: 0.1"/>
     <use xlink:href="#mc34dafe7f8" x="93.302592" y="132.067661" style="fill: #201f3d; stroke: #201f3d; stroke-width: 0.1"/>
     <use xlink:href="#mc34dafe7f8" x="143.387103" y="94.369891" style="fill: #201f3d; stroke: #201f3d; stroke-width: 0.1"/>
     <use xlink:href="#mc34dafe7f8" x="140.961808" y="74.864854" style="fill: #201f3d; stroke: #201f3d; stroke-width: 0.1"/>
     <use xlink:href="#mc34dafe7f8" x="83.982279" y="151.545126" style="fill: #201f3d; stroke: #201f3d; stroke-width: 0.1"/>
     <use xlink:href="#mc34dafe7f8" x="112.118903" y="78.842722" style="fill: #201f3d; stroke: #201f3d; stroke-width: 0.1"/>
     <use xlink:href="#mc34dafe7f8" x="99.298111" y="119.469985" style="fill: #201f3d; stroke: #201f3d; stroke-width: 0.1"/>
     <use xlink:href="#mc34dafe7f8" x="87.764618" y="131.954614" style="fill: #201f3d; stroke: #201f3d; stroke-width: 0.1"/>
     <use xlink:href="#mc34dafe7f8" x="54.900491" y="138.42865" style="fill: #201f3d; stroke: #201f3d; stroke-width: 0.1"/>
     <use xlink:href="#mc34dafe7f8" x="79.114157" y="141.158905" style="fill: #201f3d; stroke: #201f3d; stroke-width: 0.1"/>
     <use xlink:href="#mc34dafe7f8" x="28.743176" y="53.911638" style="fill: #201f3d; stroke: #201f3d; stroke-width: 0.1"/>
     <use xlink:href="#mc34dafe7f8" x="28.210771" y="55.965743" style="fill: #201f3d; stroke: #201f3d; stroke-width: 0.1"/>
     <use xlink:href="#mc34dafe7f8" x="59.898161" y="98.117202" style="fill: #201f3d; stroke: #201f3d; stroke-width: 0.1"/>
     <use xlink:href="#mc34dafe7f8" x="102.693578" y="120.416866" style="fill: #201f3d; stroke: #201f3d; stroke-width: 0.1"/>
     <use xlink:href="#mc34dafe7f8" x="51.377164" y="74.087309" style="fill: #201f3d; stroke: #201f3d; stroke-width: 0.1"/>
     <use xlink:href="#mc34dafe7f8" x="124.363402" y="86.634026" style="fill: #201f3d; stroke: #201f3d; stroke-width: 0.1"/>
     <use xlink:href="#mc34dafe7f8" x="82.731703" y="66.420148" style="fill: #201f3d; stroke: #201f3d; stroke-width: 0.1"/>
     <use xlink:href="#mc34dafe7f8" x="56.783681" y="50.922019" style="fill: #201f3d; stroke: #201f3d; stroke-width: 0.1"/>
     <use xlink:href="#mc34dafe7f8" x="78.143213" y="129.700087" style="fill: #201f3d; stroke: #201f3d; stroke-width: 0.1"/>
     <use xlink:href="#mc34dafe7f8" x="61.700846" y="63.666317" style="fill: #201f3d; stroke: #201f3d; stroke-width: 0.1"/>
     <use xlink:href="#mc34dafe7f8" x="64.622914" y="107.655922" style="fill: #201f3d; stroke: #201f3d; stroke-width: 0.1"/>
     <use xlink:href="#mc34dafe7f8" x="97.010682" y="91.732844" style="fill: #201f3d; stroke: #201f3d; stroke-width: 0.1"/>
     <use xlink:href="#mc34dafe7f8" x="71.414112" y="129.267309" style="fill: #201f3d; stroke: #201f3d; stroke-width: 0.1"/>
     <use xlink:href="#mc34dafe7f8" x="94.88414" y="79.16023" style="fill: #201f3d; stroke: #201f3d; stroke-width: 0.1"/>
     <use xlink:href="#mc34dafe7f8" x="106.799903" y="102.752607" style="fill: #201f3d; stroke: #201f3d; stroke-width: 0.1"/>
     <use xlink:href="#mc34dafe7f8" x="67.670653" y="76.411676" style="fill: #201f3d; stroke: #201f3d; stroke-width: 0.1"/>
     <use xlink:href="#mc34dafe7f8" x="98.260544" y="124.361492" style="fill: #201f3d; stroke: #201f3d; stroke-width: 0.1"/>
     <use xlink:href="#mc34dafe7f8" x="104.443932" y="84.994583" style="fill: #201f3d; stroke: #201f3d; stroke-width: 0.1"/>
     <use xlink:href="#mc34dafe7f8" x="68.464836" y="116.949786" style="fill: #201f3d; stroke: #201f3d; stroke-width: 0.1"/>
     <use xlink:href="#mc34dafe7f8" x="86.657845" y="134.353502" style="fill: #201f3d; stroke: #201f3d; stroke-width: 0.1"/>
     <use xlink:href="#mc34dafe7f8" x="116.687959" y="114.080717" style="fill: #201f3d; stroke: #201f3d; stroke-width: 0.1"/>
     <use xlink:href="#mc34dafe7f8" x="110.696591" y="118.850467" style="fill: #201f3d; stroke: #201f3d; stroke-width: 0.1"/>
     <use xlink:href="#mc34dafe7f8" x="46.971215" y="141.819448" style="fill: #201f3d; stroke: #201f3d; stroke-width: 0.1"/>
     <use xlink:href="#mc34dafe7f8" x="109.225463" y="75.507777" style="fill: #201f3d; stroke: #201f3d; stroke-width: 0.1"/>
     <use xlink:href="#mc34dafe7f8" x="56.979605" y="118.263394" style="fill: #201f3d; stroke: #201f3d; stroke-width: 0.1"/>
     <use xlink:href="#mc34dafe7f8" x="53.200042" y="124.081626" style="fill: #201f3d; stroke: #201f3d; stroke-width: 0.1"/>
     <use xlink:href="#mc34dafe7f8" x="68.399957" y="117.506598" style="fill: #201f3d; stroke: #201f3d; stroke-width: 0.1"/>
     <use xlink:href="#mc34dafe7f8" x="123.944793" y="86.101552" style="fill: #201f3d; stroke: #201f3d; stroke-width: 0.1"/>
     <use xlink:href="#mc34dafe7f8" x="56.677839" y="122.388868" style="fill: #201f3d; stroke: #201f3d; stroke-width: 0.1"/>
     <use xlink:href="#mc34dafe7f8" x="75.211333" y="85.982574" style="fill: #201f3d; stroke: #201f3d; stroke-width: 0.1"/>
     <use xlink:href="#mc34dafe7f8" x="61.865826" y="54.918834" style="fill: #201f3d; stroke: #201f3d; stroke-width: 0.1"/>
     <use xlink:href="#mc34dafe7f8" x="70.501885" y="128.970497" style="fill: #201f3d; stroke: #201f3d; stroke-width: 0.1"/>
     <use xlink:href="#mc34dafe7f8" x="29.511459" y="61.021585" style="fill: #201f3d; stroke: #201f3d; stroke-width: 0.1"/>
     <use xlink:href="#mc34dafe7f8" x="144.789231" y="99.066322" style="fill: #201f3d; stroke: #201f3d; stroke-width: 0.1"/>
     <use xlink:href="#mc34dafe7f8" x="91.88347" y="128.317084" style="fill: #201f3d; stroke: #201f3d; stroke-width: 0.1"/>
     <use xlink:href="#mc34dafe7f8" x="103.097253" y="108.868067" style="fill: #201f3d; stroke: #201f3d; stroke-width: 0.1"/>
     <use xlink:href="#mc34dafe7f8" x="68.829071" y="106.979677" style="fill: #201f3d; stroke: #201f3d; stroke-width: 0.1"/>
     <use xlink:href="#mc34dafe7f8" x="121.59167" y="120.77366" style="fill: #201f3d; stroke: #201f3d; stroke-width: 0.1"/>
     <use xlink:href="#mc34dafe7f8" x="112.427221" y="112.922995" style="fill: #201f3d; stroke: #201f3d; stroke-width: 0.1"/>
     <use xlink:href="#mc34dafe7f8" x="138.813078" y="90.220822" style="fill: #201f3d; stroke: #201f3d; stroke-width: 0.1"/>
     <use xlink:href="#mc34dafe7f8" x="51.957497" y="125.593696" style="fill: #201f3d; stroke: #201f3d; stroke-width: 0.1"/>
     <use xlink:href="#mc34dafe7f8" x="70.567284" y="80.534684" style="fill: #201f3d; stroke: #201f3d; stroke-width: 0.1"/>
     <use xlink:href="#mc34dafe7f8" x="64.629183" y="108.314197" style="fill: #201f3d; stroke: #201f3d; stroke-width: 0.1"/>
     <use xlink:href="#mc34dafe7f8" x="136.439388" y="92.210044" style="fill: #201f3d; stroke: #201f3d; stroke-width: 0.1"/>
     <use xlink:href="#mc34dafe7f8" x="106.591131" y="118.078267" style="fill: #201f3d; stroke: #201f3d; stroke-width: 0.1"/>
     <use xlink:href="#mc34dafe7f8" x="67.586793" y="106.278086" style="fill: #201f3d; stroke: #201f3d; stroke-width: 0.1"/>
     <use xlink:href="#mc34dafe7f8" x="92.882594" y="52.60091" style="fill: #201f3d; stroke: #201f3d; stroke-width: 0.1"/>
     <use xlink:href="#mc34dafe7f8" x="138.78281" y="90.877145" style="fill: #201f3d; stroke: #201f3d; stroke-width: 0.1"/>
     <use xlink:href="#mc34dafe7f8" x="103.939218" y="108.301963" style="fill: #201f3d; stroke: #201f3d; stroke-width: 0.1"/>
     <use xlink:href="#mc34dafe7f8" x="83.624518" y="155.522604" style="fill: #201f3d; stroke: #201f3d; stroke-width: 0.1"/>
     <use xlink:href="#mc34dafe7f8" x="88.256841" y="74.721821" style="fill: #201f3d; stroke: #201f3d; stroke-width: 0.1"/>
     <use xlink:href="#mc34dafe7f8" x="136.982638" y="93.848135" style="fill: #201f3d; stroke: #201f3d; stroke-width: 0.1"/>
     <use xlink:href="#mc34dafe7f8" x="104.765801" y="89.051749" style="fill: #201f3d; stroke: #201f3d; stroke-width: 0.1"/>
     <use xlink:href="#mc34dafe7f8" x="107.995591" y="122.787518" style="fill: #201f3d; stroke: #201f3d; stroke-width: 0.1"/>
     <use xlink:href="#mc34dafe7f8" x="64.986227" y="72.306494" style="fill: #201f3d; stroke: #201f3d; stroke-width: 0.1"/>
     <use xlink:href="#mc34dafe7f8" x="70.433643" y="132.723574" style="fill: #201f3d; stroke: #201f3d; stroke-width: 0.1"/>
     <use xlink:href="#mc34dafe7f8" x="115.480569" y="101.175132" style="fill: #201f3d; stroke: #201f3d; stroke-width: 0.1"/>
     <use xlink:href="#mc34dafe7f8" x="102.888581" y="109.851942" style="fill: #201f3d; stroke: #201f3d; stroke-width: 0.1"/>
     <use xlink:href="#mc34dafe7f8" x="66.583295" y="136.057969" style="fill: #201f3d; stroke: #201f3d; stroke-width: 0.1"/>
     <use xlink:href="#mc34dafe7f8" x="95.025641" y="128.70412" style="fill: #201f3d; stroke: #201f3d; stroke-width: 0.1"/>
     <use xlink:href="#mc34dafe7f8" x="41.759689" y="82.228466" style="fill: #201f3d; stroke: #201f3d; stroke-width: 0.1"/>
     <use xlink:href="#mc34dafe7f8" x="64.158415" y="67.758559" style="fill: #201f3d; stroke: #201f3d; stroke-width: 0.1"/>
     <use xlink:href="#mc34dafe7f8" x="119.173166" y="127.933211" style="fill: #201f3d; stroke: #201f3d; stroke-width: 0.1"/>
     <use xlink:href="#mc34dafe7f8" x="125.691755" y="103.897402" style="fill: #201f3d; stroke: #201f3d; stroke-width: 0.1"/>
     <use xlink:href="#mc34dafe7f8" x="82.420186" y="141.043934" style="fill: #201f3d; stroke: #201f3d; stroke-width: 0.1"/>
     <use xlink:href="#mc34dafe7f8" x="109.55922" y="83.334029" style="fill: #201f3d; stroke: #201f3d; stroke-width: 0.1"/>
     <use xlink:href="#mc34dafe7f8" x="58.184011" y="62.035319" style="fill: #201f3d; stroke: #201f3d; stroke-width: 0.1"/>
     <use xlink:href="#mc34dafe7f8" x="90.32598" y="102.859442" style="fill: #201f3d; stroke: #201f3d; stroke-width: 0.1"/>
     <use xlink:href="#mc34dafe7f8" x="99.82207" y="107.325833" style="fill: #201f3d; stroke: #201f3d; stroke-width: 0.1"/>
     <use xlink:href="#mc34dafe7f8" x="27.48234" y="50.33004" style="fill: #201f3d; stroke: #201f3d; stroke-width: 0.1"/>
     <use xlink:href="#mc34dafe7f8" x="84.210322" y="125.850257" style="fill: #201f3d; stroke: #201f3d; stroke-width: 0.1"/>
     <use xlink:href="#mc34dafe7f8" x="85.083936" y="155.195867" style="fill: #201f3d; stroke: #201f3d; stroke-width: 0.1"/>
     <use xlink:href="#mc34dafe7f8" x="105.690002" y="131.102694" style="fill: #201f3d; stroke: #201f3d; stroke-width: 0.1"/>
     <use xlink:href="#mc34dafe7f8" x="109.982772" y="75.86209" style="fill: #201f3d; stroke: #201f3d; stroke-width: 0.1"/>
     <use xlink:href="#mc34dafe7f8" x="54.1726" y="47.863117" style="fill: #201f3d; stroke: #201f3d; stroke-width: 0.1"/>
     <use xlink:href="#mc34dafe7f8" x="95.85249" y="86.569907" style="fill: #201f3d; stroke: #201f3d; stroke-width: 0.1"/>
     <use xlink:href="#mc34dafe7f8" x="113.339409" y="81.131674" style="fill: #201f3d; stroke: #201f3d; stroke-width: 0.1"/>
     <use xlink:href="#mc34dafe7f8" x="62.487202" y="109.372789" style="fill: #201f3d; stroke: #201f3d; stroke-width: 0.1"/>
     <use xlink:href="#mc34dafe7f8" x="107.249964" y="59.3823" style="fill: #201f3d; stroke: #201f3d; stroke-width: 0.1"/>
     <use xlink:href="#mc34dafe7f8" x="117.006773" y="100.440814" style="fill: #201f3d; stroke: #201f3d; stroke-width: 0.1"/>
     <use xlink:href="#mc34dafe7f8" x="98.455076" y="53.514339" style="fill: #201f3d; stroke: #201f3d; stroke-width: 0.1"/>
     <use xlink:href="#mc34dafe7f8" x="74.683453" y="118.874161" style="fill: #201f3d; stroke: #201f3d; stroke-width: 0.1"/>
     <use xlink:href="#mc34dafe7f8" x="33.423209" y="62.226699" style="fill: #201f3d; stroke: #201f3d; stroke-width: 0.1"/>
     <use xlink:href="#mc34dafe7f8" x="68.036774" y="108.543583" style="fill: #201f3d; stroke: #201f3d; stroke-width: 0.1"/>
     <use xlink:href="#mc34dafe7f8" x="115.485279" y="85.111181" style="fill: #201f3d; stroke: #201f3d; stroke-width: 0.1"/>
     <use xlink:href="#mc34dafe7f8" x="106.014066" y="117.401873" style="fill: #201f3d; stroke: #201f3d; stroke-width: 0.1"/>
     <use xlink:href="#mc34dafe7f8" x="92.836215" y="92.484193" style="fill: #201f3d; stroke: #201f3d; stroke-width: 0.1"/>
     <use xlink:href="#mc34dafe7f8" x="62.775385" y="109.644646" style="fill: #201f3d; stroke: #201f3d; stroke-width: 0.1"/>
     <use xlink:href="#mc34dafe7f8" x="51.15798" y="126.625242" style="fill: #201f3d; stroke: #201f3d; stroke-width: 0.1"/>
     <use xlink:href="#mc34dafe7f8" x="46.00891" y="79.464415" style="fill: #201f3d; stroke: #201f3d; stroke-width: 0.1"/>
     <use xlink:href="#mc34dafe7f8" x="48.929775" y="71.825141" style="fill: #201f3d; stroke: #201f3d; stroke-width: 0.1"/>
     <use xlink:href="#mc34dafe7f8" x="86.196719" y="132.772082" style="fill: #201f3d; stroke: #201f3d; stroke-width: 0.1"/>
     <use xlink:href="#mc34dafe7f8" x="44.882068" y="69.620729" style="fill: #201f3d; stroke: #201f3d; stroke-width: 0.1"/>
     <use xlink:href="#mc34dafe7f8" x="75.983107" y="112.705094" style="fill: #201f3d; stroke: #201f3d; stroke-width: 0.1"/>
     <use xlink:href="#mc34dafe7f8" x="30.340392" y="52.826278" style="fill: #201f3d; stroke: #201f3d; stroke-width: 0.1"/>
     <use xlink:href="#mc34dafe7f8" x="46.200088" y="77.717652" style="fill: #201f3d; stroke: #201f3d; stroke-width: 0.1"/>
     <use xlink:href="#mc34dafe7f8" x="117.853322" y="126.305053" style="fill: #201f3d; stroke: #201f3d; stroke-width: 0.1"/>
     <use xlink:href="#mc34dafe7f8" x="124.434248" y="84.375683" style="fill: #201f3d; stroke: #201f3d; stroke-width: 0.1"/>
     <use xlink:href="#mc34dafe7f8" x="86.992345" y="138.595445" style="fill: #201f3d; stroke: #201f3d; stroke-width: 0.1"/>
     <use xlink:href="#mc34dafe7f8" x="96.725408" y="55.292994" style="fill: #201f3d; stroke: #201f3d; stroke-width: 0.1"/>
     <use xlink:href="#mc34dafe7f8" x="77.424556" y="65.455075" style="fill: #201f3d; stroke: #201f3d; stroke-width: 0.1"/>
     <use xlink:href="#mc34dafe7f8" x="127.972896" y="81.742558" style="fill: #201f3d; stroke: #201f3d; stroke-width: 0.1"/>
     <use xlink:href="#mc34dafe7f8" x="88.074272" y="78.667245" style="fill: #201f3d; stroke: #201f3d; stroke-width: 0.1"/>
     <use xlink:href="#mc34dafe7f8" x="64.099379" y="105.95567" style="fill: #201f3d; stroke: #201f3d; stroke-width: 0.1"/>
     <use xlink:href="#mc34dafe7f8" x="58.614994" y="61.073125" style="fill: #201f3d; stroke: #201f3d; stroke-width: 0.1"/>
     <use xlink:href="#mc34dafe7f8" x="55.343894" y="98.229328" style="fill: #201f3d; stroke: #201f3d; stroke-width: 0.1"/>
     <use xlink:href="#mc34dafe7f8" x="129.746116" y="101.89878" style="fill: #201f3d; stroke: #201f3d; stroke-width: 0.1"/>
     <use xlink:href="#mc34dafe7f8" x="60.481723" y="51.047277" style="fill: #201f3d; stroke: #201f3d; stroke-width: 0.1"/>
     <use xlink:href="#mc34dafe7f8" x="44.575335" y="70.363829" style="fill: #201f3d; stroke: #201f3d; stroke-width: 0.1"/>
     <use xlink:href="#mc34dafe7f8" x="98.44683" y="131.684373" style="fill: #201f3d; stroke: #201f3d; stroke-width: 0.1"/>
     <use xlink:href="#mc34dafe7f8" x="132.140952" y="90.154989" style="fill: #201f3d; stroke: #201f3d; stroke-width: 0.1"/>
     <use xlink:href="#mc34dafe7f8" x="94.566025" y="92.603107" style="fill: #201f3d; stroke: #201f3d; stroke-width: 0.1"/>
     <use xlink:href="#mc34dafe7f8" x="67.71627" y="109.053283" style="fill: #201f3d; stroke: #201f3d; stroke-width: 0.1"/>
     <use xlink:href="#mc34dafe7f8" x="42.533683" y="82.696499" style="fill: #201f3d; stroke: #201f3d; stroke-width: 0.1"/>
     <use xlink:href="#mc34dafe7f8" x="90.689452" y="115.678654" style="fill: #201f3d; stroke: #201f3d; stroke-width: 0.1"/>
     <use xlink:href="#mc34dafe7f8" x="102.495009" y="60.887534" style="fill: #201f3d; stroke: #201f3d; stroke-width: 0.1"/>
     <use xlink:href="#mc34dafe7f8" x="100.18152" y="130.932843" style="fill: #201f3d; stroke: #201f3d; stroke-width: 0.1"/>
     <use xlink:href="#mc34dafe7f8" x="72.319974" y="108.63049" style="fill: #201f3d; stroke: #201f3d; stroke-width: 0.1"/>
     <use xlink:href="#mc34dafe7f8" x="78.453717" y="69.579854" style="fill: #201f3d; stroke: #201f3d; stroke-width: 0.1"/>
     <use xlink:href="#mc34dafe7f8" x="55.165322" y="69.495366" style="fill: #201f3d; stroke: #201f3d; stroke-width: 0.1"/>
     <use xlink:href="#mc34dafe7f8" x="99.912443" y="52.525159" style="fill: #201f3d; stroke: #201f3d; stroke-width: 0.1"/>
     <use xlink:href="#mc34dafe7f8" x="94.381493" y="127.61406" style="fill: #201f3d; stroke: #201f3d; stroke-width: 0.1"/>
     <use xlink:href="#mc34dafe7f8" x="58.787622" y="125.191971" style="fill: #201f3d; stroke: #201f3d; stroke-width: 0.1"/>
     <use xlink:href="#mc34dafe7f8" x="66.767728" y="71.038677" style="fill: #201f3d; stroke: #201f3d; stroke-width: 0.1"/>
     <use xlink:href="#mc34dafe7f8" x="115.556703" y="100.418475" style="fill: #201f3d; stroke: #201f3d; stroke-width: 0.1"/>
     <use xlink:href="#mc34dafe7f8" x="102.978459" y="120.13667" style="fill: #201f3d; stroke: #201f3d; stroke-width: 0.1"/>
     <use xlink:href="#mc34dafe7f8" x="93.425774" y="111.745741" style="fill: #201f3d; stroke: #201f3d; stroke-width: 0.1"/>
     <use xlink:href="#mc34dafe7f8" x="105.663558" y="86.669561" style="fill: #201f3d; stroke: #201f3d; stroke-width: 0.1"/>
     <use xlink:href="#mc34dafe7f8" x="86.643252" y="104.666154" style="fill: #201f3d; stroke: #201f3d; stroke-width: 0.1"/>
     <use xlink:href="#mc34dafe7f8" x="136.715553" y="89.784191" style="fill: #201f3d; stroke: #201f3d; stroke-width: 0.1"/>
     <use xlink:href="#mc34dafe7f8" x="140.490047" y="97.636635" style="fill: #201f3d; stroke: #201f3d; stroke-width: 0.1"/>
     <use xlink:href="#mc34dafe7f8" x="105.603004" y="123.274244" style="fill: #201f3d; stroke: #201f3d; stroke-width: 0.1"/>
     <use xlink:href="#mc34dafe7f8" x="121.070392" y="102.205893" style="fill: #201f3d; stroke: #201f3d; stroke-width: 0.1"/>
     <use xlink:href="#mc34dafe7f8" x="98.352483" y="116.180047" style="fill: #201f3d; stroke: #201f3d; stroke-width: 0.1"/>
     <use xlink:href="#mc34dafe7f8" x="53.722922" y="48.39858" style="fill: #201f3d; stroke: #201f3d; stroke-width: 0.1"/>
     <use xlink:href="#mc34dafe7f8" x="57.249473" y="123.140088" style="fill: #201f3d; stroke: #201f3d; stroke-width: 0.1"/>
     <use xlink:href="#mc34dafe7f8" x="51.308441" y="137.014238" style="fill: #201f3d; stroke: #201f3d; stroke-width: 0.1"/>
     <use xlink:href="#mc34dafe7f8" x="113.699159" y="81.814618" style="fill: #201f3d; stroke: #201f3d; stroke-width: 0.1"/>
     <use xlink:href="#mc34dafe7f8" x="115.347176" y="101.877889" style="fill: #201f3d; stroke: #201f3d; stroke-width: 0.1"/>
     <use xlink:href="#mc34dafe7f8" x="98.029573" y="138.397515" style="fill: #201f3d; stroke: #201f3d; stroke-width: 0.1"/>
     <use xlink:href="#mc34dafe7f8" x="75.541291" y="132.84435" style="fill: #201f3d; stroke: #201f3d; stroke-width: 0.1"/>
     <use xlink:href="#mc34dafe7f8" x="35.375985" y="77.832024" style="fill: #201f3d; stroke: #201f3d; stroke-width: 0.1"/>
     <use xlink:href="#mc34dafe7f8" x="104.126728" y="112.876783" style="fill: #201f3d; stroke: #201f3d; stroke-width: 0.1"/>
     <use xlink:href="#mc34dafe7f8" x="51.50551" y="134.379774" style="fill: #201f3d; stroke: #201f3d; stroke-width: 0.1"/>
     <use xlink:href="#mc34dafe7f8" x="144.800716" y="73.043111" style="fill: #201f3d; stroke: #201f3d; stroke-width: 0.1"/>
     <use xlink:href="#mc34dafe7f8" x="80.303063" y="67.073518" style="fill: #201f3d; stroke: #201f3d; stroke-width: 0.1"/>
     <use xlink:href="#mc34dafe7f8" x="89.476653" y="75.59076" style="fill: #201f3d; stroke: #201f3d; stroke-width: 0.1"/>
     <use xlink:href="#mc34dafe7f8" x="89.685014" y="75.607719" style="fill: #201f3d; stroke: #201f3d; stroke-width: 0.1"/>
     <use xlink:href="#mc34dafe7f8" x="96.96471" y="132.525527" style="fill: #201f3d; stroke: #201f3d; stroke-width: 0.1"/>
     <use xlink:href="#mc34dafe7f8" x="61.203115" y="69.659695" style="fill: #201f3d; stroke: #201f3d; stroke-width: 0.1"/>
     <use xlink:href="#mc34dafe7f8" x="132.138589" y="111.532134" style="fill: #201f3d; stroke: #201f3d; stroke-width: 0.1"/>
     <use xlink:href="#mc34dafe7f8" x="76.811732" y="160.229566" style="fill: #201f3d; stroke: #201f3d; stroke-width: 0.1"/>
     <use xlink:href="#mc34dafe7f8" x="45.534696" y="128.445064" style="fill: #201f3d; stroke: #201f3d; stroke-width: 0.1"/>
     <use xlink:href="#mc34dafe7f8" x="99.020899" y="123.99517" style="fill: #201f3d; stroke: #201f3d; stroke-width: 0.1"/>
     <use xlink:href="#mc34dafe7f8" x="98.717363" y="91.538239" style="fill: #201f3d; stroke: #201f3d; stroke-width: 0.1"/>
     <use xlink:href="#mc34dafe7f8" x="95.549171" y="64.612806" style="fill: #201f3d; stroke: #201f3d; stroke-width: 0.1"/>
     <use xlink:href="#mc34dafe7f8" x="124.235909" y="87.268211" style="fill: #201f3d; stroke: #201f3d; stroke-width: 0.1"/>
     <use xlink:href="#mc34dafe7f8" x="83.481419" y="74.782113" style="fill: #201f3d; stroke: #201f3d; stroke-width: 0.1"/>
     <use xlink:href="#mc34dafe7f8" x="95.549227" y="115.90879" style="fill: #201f3d; stroke: #201f3d; stroke-width: 0.1"/>
     <use xlink:href="#mc34dafe7f8" x="93.089807" y="77.099851" style="fill: #201f3d; stroke: #201f3d; stroke-width: 0.1"/>
    </g>
   </g>
   <g id="text_1">
    <!-- Red de nodos corruptos (K) de México -->
    <g transform="translate(12.518126 10.132206) scale(0.096 -0.096)">
     <defs>
      <path id="NimbusRomNo9L-Regu-52" d="M 4218 121 
C 3974 140 3846 205 3661 424 
L 2342 2061 
C 2771 2143 2963 2219 3174 2388 
C 3379 2553 3501 2818 3501 3113 
C 3501 3385 3418 3618 3251 3801 
C 3008 4059 2477 4224 1875 4224 
L 109 4224 
L 109 4102 
C 589 4051 653 3981 653 3528 
L 653 765 
C 653 236 589 159 109 121 
L 109 0 
L 1882 0 
L 1882 134 
C 1389 134 1306 219 1306 692 
L 1306 1984 
L 1664 1984 
L 3187 0 
L 4218 0 
L 4218 121 
z
M 1306 3762 
C 1306 3937 1376 3987 1632 3987 
C 2432 3987 2803 3716 2803 3123 
C 2803 2807 2669 2542 2438 2423 
C 2144 2258 1920 2221 1306 2221 
L 1306 3762 
z
" transform="scale(0.015625)"/>
      <path id="NimbusRomNo9L-Regu-65" d="M 2611 1053 
C 2304 564 2029 378 1619 378 
C 1254 378 979 564 794 930 
C 678 1174 634 1386 621 1779 
L 2592 1779 
C 2541 2193 2477 2377 2317 2581 
C 2125 2811 1830 2944 1498 2944 
C 1178 2944 877 2829 634 2611 
C 333 2349 160 1894 160 1370 
C 160 486 621 -64 1357 -64 
C 1965 -64 2445 315 2714 1008 
L 2611 1053 
z
M 634 1984 
C 704 2479 922 2714 1312 2714 
C 1702 2714 1856 2535 1939 1984 
L 634 1984 
z
" transform="scale(0.015625)"/>
      <path id="NimbusRomNo9L-Regu-64" d="M 2202 -64 
L 3142 269 
L 3142 365 
C 3027 365 3014 365 2995 365 
C 2765 365 2714 435 2714 731 
L 2714 4364 
L 2682 4377 
C 2374 4268 2150 4204 1741 4096 
L 1741 3994 
C 1792 4000 1830 4000 1882 4000 
C 2118 4000 2176 3936 2176 3672 
L 2176 2669 
C 1933 2874 1760 2944 1504 2944 
C 768 2944 173 2221 173 1312 
C 173 493 653 -64 1357 -64 
C 1715 -64 1958 64 2176 365 
L 2176 -45 
L 2202 -64 
z
M 2176 653 
C 2176 608 2131 531 2067 461 
C 1952 333 1792 269 1606 269 
C 1075 269 723 781 723 1568 
C 723 2291 1037 2765 1523 2765 
C 1862 2765 2176 2464 2176 2125 
L 2176 653 
z
" transform="scale(0.015625)"/>
      <path id="NimbusRomNo9L-Regu-6e" d="M 102 2579 
C 141 2598 205 2605 275 2605 
C 454 2605 512 2509 512 2195 
L 512 608 
C 512 243 442 154 115 128 
L 115 32 
L 1472 32 
L 1472 128 
C 1146 154 1050 230 1050 461 
L 1050 2259 
C 1357 2547 1498 2624 1709 2624 
C 2022 2624 2176 2426 2176 2003 
L 2176 666 
C 2176 262 2093 154 1773 128 
L 1773 32 
L 3104 32 
L 3104 128 
C 2790 160 2714 237 2714 550 
L 2714 2016 
C 2714 2618 2432 2976 1958 2976 
C 1664 2976 1466 2867 1030 2458 
L 1030 2963 
L 986 2976 
C 672 2861 454 2790 102 2688 
L 102 2579 
z
" transform="scale(0.015625)"/>
      <path id="NimbusRomNo9L-Regu-6f" d="M 1600 2944 
C 768 2944 186 2330 186 1446 
C 186 582 781 -64 1587 -64 
C 2394 -64 3008 614 3008 1498 
C 3008 2336 2419 2944 1600 2944 
z
M 1517 2765 
C 2054 2765 2432 2150 2432 1274 
C 2432 550 2144 115 1664 115 
C 1414 115 1178 269 1043 525 
C 864 858 762 1306 762 1760 
C 762 2368 1062 2765 1517 2765 
z
" transform="scale(0.015625)"/>
      <path id="NimbusRomNo9L-Regu-73" d="M 2016 2010 
L 1990 2880 
L 1920 2880 
L 1907 2867 
C 1850 2822 1843 2816 1818 2816 
C 1779 2816 1715 2829 1645 2861 
C 1504 2915 1363 2944 1197 2944 
C 691 2944 326 2616 326 2154 
C 326 1796 531 1539 1075 1231 
L 1446 1020 
C 1670 892 1779 737 1779 539 
C 1779 256 1574 77 1248 77 
C 1030 77 832 159 710 298 
C 576 455 518 600 435 960 
L 333 960 
L 333 -39 
L 416 -39 
C 461 33 486 48 563 48 
C 621 48 710 35 858 -2 
C 1037 -39 1210 -64 1325 -64 
C 1818 -64 2227 308 2227 757 
C 2227 1077 2074 1289 1690 1520 
L 998 1930 
C 819 2033 723 2194 723 2367 
C 723 2624 922 2803 1216 2803 
C 1581 2803 1773 2583 1920 2010 
L 2016 2010 
z
" transform="scale(0.015625)"/>
      <path id="NimbusRomNo9L-Regu-63" d="M 2547 998 
C 2240 550 2010 397 1645 397 
C 1062 397 653 909 653 1645 
C 653 2304 1005 2758 1523 2758 
C 1754 2758 1837 2688 1901 2451 
L 1939 2310 
C 1990 2131 2106 2016 2240 2016 
C 2406 2016 2547 2138 2547 2285 
C 2547 2643 2099 2944 1562 2944 
C 1248 2944 922 2816 659 2586 
C 339 2304 160 1869 160 1363 
C 160 531 666 -64 1376 -64 
C 1664 -64 1920 38 2150 237 
C 2323 390 2445 563 2637 941 
L 2547 998 
z
" transform="scale(0.015625)"/>
      <path id="NimbusRomNo9L-Regu-72" d="M 45 2496 
C 134 2515 192 2522 269 2522 
C 429 2522 486 2419 486 2138 
L 486 538 
C 486 218 442 173 32 96 
L 32 0 
L 1568 0 
L 1568 102 
C 1133 102 1024 199 1024 565 
L 1024 2013 
C 1024 2219 1299 2541 1472 2541 
C 1510 2541 1568 2509 1638 2445 
C 1741 2355 1811 2317 1894 2317 
C 2048 2317 2144 2426 2144 2605 
C 2144 2816 2010 2944 1792 2944 
C 1523 2944 1338 2797 1024 2343 
L 1024 2931 
L 992 2944 
C 653 2803 422 2721 45 2599 
L 45 2496 
z
" transform="scale(0.015625)"/>
      <path id="NimbusRomNo9L-Regu-75" d="M 3066 320 
L 3034 320 
C 2739 320 2669 390 2669 685 
L 2669 2880 
L 1658 2880 
L 1658 2758 
C 2054 2758 2131 2694 2131 2375 
L 2131 875 
C 2131 697 2099 607 2010 537 
C 1837 397 1638 320 1446 320 
C 1197 320 992 537 992 805 
L 992 2880 
L 58 2880 
L 58 2778 
C 365 2778 454 2682 454 2387 
L 454 770 
C 454 263 762 -64 1229 -64 
C 1466 -64 1715 38 1888 211 
L 2163 486 
L 2163 -45 
L 2189 -58 
C 2509 70 2739 141 3066 230 
L 3066 320 
z
" transform="scale(0.015625)"/>
      <path id="NimbusRomNo9L-Regu-70" d="M 58 2516 
C 115 2522 160 2522 218 2522 
C 435 2522 480 2458 480 2155 
L 480 -855 
C 480 -1189 410 -1261 32 -1299 
L 32 -1408 
L 1581 -1408 
L 1581 -1293 
C 1101 -1293 1018 -1222 1018 -816 
L 1018 199 
C 1242 -13 1395 -77 1664 -77 
C 2419 -77 3008 643 3008 1575 
C 3008 2372 2560 2944 1939 2944 
C 1581 2944 1299 2784 1018 2438 
L 1018 2931 
L 979 2944 
C 634 2810 410 2726 58 2618 
L 58 2516 
z
M 1018 2136 
C 1018 2329 1376 2560 1670 2560 
C 2144 2560 2458 2071 2458 1324 
C 2458 611 2144 128 1683 128 
C 1382 128 1018 359 1018 552 
L 1018 2136 
z
" transform="scale(0.015625)"/>
      <path id="NimbusRomNo9L-Regu-74" d="M 1632 2880 
L 986 2880 
L 986 3622 
C 986 3686 979 3706 941 3706 
C 896 3648 858 3590 813 3526 
C 570 3174 294 2867 192 2841 
C 122 2794 83 2748 83 2715 
C 83 2695 90 2682 109 2682 
L 448 2682 
L 448 751 
C 448 212 640 -64 1018 -64 
C 1331 -64 1574 90 1786 423 
L 1702 493 
C 1568 333 1459 269 1318 269 
C 1082 269 986 443 986 847 
L 986 2682 
L 1632 2682 
L 1632 2880 
z
" transform="scale(0.015625)"/>
      <path id="NimbusRomNo9L-Regu-28" d="M 1888 4326 
C 1414 4019 1222 3853 986 3558 
C 531 3002 307 2362 307 1613 
C 307 800 544 173 1107 -480 
C 1370 -787 1536 -928 1869 -1133 
L 1946 -1030 
C 1434 -627 1254 -403 1082 77 
C 928 506 858 992 858 1632 
C 858 2304 941 2829 1114 3226 
C 1293 3622 1485 3853 1946 4224 
L 1888 4326 
z
" transform="scale(0.015625)"/>
      <path id="NimbusRomNo9L-Regu-4b" d="M 2643 4109 
C 2720 4096 2784 4096 2810 4096 
C 3002 4096 3078 4045 3078 3917 
C 3078 3775 2931 3583 2579 3257 
L 1446 2224 
L 1446 3534 
C 1446 4000 1517 4071 2035 4109 
L 2035 4231 
L 218 4231 
L 218 4109 
C 717 4071 794 3988 794 3531 
L 794 750 
C 794 217 723 134 218 134 
L 218 0 
L 2022 0 
L 2022 134 
C 1523 134 1446 211 1446 683 
L 1446 1891 
L 1613 2026 
L 2291 1355 
C 2778 876 3123 422 3123 269 
C 3123 179 3034 134 2854 134 
C 2822 134 2752 134 2675 121 
L 2675 0 
L 4627 0 
L 4627 134 
C 4294 134 4205 198 3622 816 
L 2131 2409 
L 3347 3611 
C 3782 4026 3885 4077 4320 4109 
L 4320 4231 
L 2643 4231 
L 2643 4109 
z
" transform="scale(0.015625)"/>
      <path id="NimbusRomNo9L-Regu-29" d="M 243 -1133 
C 717 -826 909 -659 1146 -365 
C 1600 192 1824 832 1824 1581 
C 1824 2400 1587 3021 1024 3674 
C 762 3981 595 4122 262 4326 
L 186 4224 
C 698 3821 870 3597 1050 3117 
C 1203 2688 1274 2202 1274 1562 
C 1274 896 1190 365 1018 -26 
C 838 -429 646 -659 186 -1030 
L 243 -1133 
z
" transform="scale(0.015625)"/>
      <path id="NimbusRomNo9L-Regu-4d" d="M 4314 3667 
L 4314 751 
C 4314 217 4237 134 3731 134 
L 3731 0 
L 5523 0 
L 5523 134 
C 5056 134 4966 223 4966 681 
L 4966 3536 
C 4966 3993 5050 4077 5523 4115 
L 5523 4237 
L 4250 4237 
L 2835 1004 
L 1357 4237 
L 90 4237 
L 90 4096 
C 614 4096 698 4019 698 3550 
L 698 943 
C 698 282 608 159 77 121 
L 77 0 
L 1581 0 
L 1581 134 
C 1088 134 979 282 979 931 
L 979 3520 
L 2586 0 
L 2675 0 
L 4314 3667 
z
" transform="scale(0.015625)"/>
      <path id="NimbusRomNo9L-Regu-b4" d="M 851 3264 
L 1837 3882 
C 1971 3964 2029 4047 2029 4148 
C 2029 4275 1946 4352 1805 4352 
C 1709 4352 1651 4320 1536 4206 
L 595 3264 
L 851 3264 
z
" transform="scale(0.015625)"/>
      <path id="NimbusRomNo9L-Regu-78" d="M 1779 0 
L 3066 0 
L 3066 96 
C 2867 96 2739 198 2541 480 
L 1722 1735 
L 2253 2502 
C 2374 2675 2566 2778 2771 2778 
L 2771 2880 
L 1760 2880 
L 1760 2778 
C 1952 2778 2016 2740 2016 2649 
C 2016 2571 1939 2430 1779 2229 
C 1747 2191 1670 2075 1587 1946 
L 1498 2074 
C 1318 2342 1203 2560 1203 2643 
C 1203 2733 1286 2778 1478 2778 
L 1478 2880 
L 154 2880 
L 154 2778 
L 211 2778 
C 403 2778 506 2695 704 2396 
L 1306 1479 
L 576 422 
C 384 160 320 115 109 96 
L 109 0 
L 1037 0 
L 1037 96 
C 858 96 781 128 781 211 
C 781 250 826 346 909 474 
L 1414 1261 
L 1997 365 
C 2022 326 2035 288 2035 250 
C 2035 123 1990 96 1779 96 
L 1779 0 
z
" transform="scale(0.015625)"/>
      <path id="NimbusRomNo9L-Regu-69" d="M 1120 2929 
L 128 2579 
L 128 2484 
L 179 2490 
C 256 2502 339 2509 397 2509 
C 550 2509 608 2406 608 2125 
L 608 640 
C 608 179 544 109 102 109 
L 102 0 
L 1619 0 
L 1619 96 
C 1197 128 1146 191 1146 650 
L 1146 2910 
L 1120 2929 
z
M 819 4352 
C 646 4352 499 4205 499 4026 
C 499 3847 640 3699 819 3699 
C 1005 3699 1152 3840 1152 4026 
C 1152 4205 1005 4352 819 4352 
z
" transform="scale(0.015625)"/>
     </defs>
     <use xlink:href="#NimbusRomNo9L-Regu-52" transform="scale(0.996264)"/>
     <use xlink:href="#NimbusRomNo9L-Regu-65" transform="translate(66.450031 0) scale(0.996264)"/>
     <use xlink:href="#NimbusRomNo9L-Regu-64" transform="translate(110.6836 0) scale(0.996264)"/>
     <use xlink:href="#NimbusRomNo9L-Regu-64" transform="translate(185.403401 0) scale(0.996264)"/>
     <use xlink:href="#NimbusRomNo9L-Regu-65" transform="translate(235.216601 0) scale(0.996264)"/>
     <use xlink:href="#NimbusRomNo9L-Regu-6e" transform="translate(304.35677 0) scale(0.996264)"/>
     <use xlink:href="#NimbusRomNo9L-Regu-6f" transform="translate(354.169971 0) scale(0.996264)"/>
     <use xlink:href="#NimbusRomNo9L-Regu-64" transform="translate(403.983171 0) scale(0.996264)"/>
     <use xlink:href="#NimbusRomNo9L-Regu-6f" transform="translate(453.796372 0) scale(0.996264)"/>
     <use xlink:href="#NimbusRomNo9L-Regu-73" transform="translate(503.609572 0) scale(0.996264)"/>
     <use xlink:href="#NimbusRomNo9L-Regu-63" transform="translate(567.269878 0) scale(0.996264)"/>
     <use xlink:href="#NimbusRomNo9L-Regu-6f" transform="translate(611.503447 0) scale(0.996264)"/>
     <use xlink:href="#NimbusRomNo9L-Regu-72" transform="translate(661.316648 0) scale(0.996264)"/>
     <use xlink:href="#NimbusRomNo9L-Regu-72" transform="translate(694.491877 0) scale(0.996264)"/>
     <use xlink:href="#NimbusRomNo9L-Regu-75" transform="translate(727.667107 0) scale(0.996264)"/>
     <use xlink:href="#NimbusRomNo9L-Regu-70" transform="translate(777.480308 0) scale(0.996264)"/>
     <use xlink:href="#NimbusRomNo9L-Regu-74" transform="translate(827.293508 0) scale(0.996264)"/>
     <use xlink:href="#NimbusRomNo9L-Regu-6f" transform="translate(854.988678 0) scale(0.996264)"/>
     <use xlink:href="#NimbusRomNo9L-Regu-73" transform="translate(904.801878 0) scale(0.996264)"/>
     <use xlink:href="#NimbusRomNo9L-Regu-28" transform="translate(968.462185 0) scale(0.996264)"/>
     <use xlink:href="#NimbusRomNo9L-Regu-4b" transform="translate(1001.637414 0) scale(0.996264)"/>
     <use xlink:href="#NimbusRomNo9L-Regu-29" transform="translate(1073.567399 0) scale(0.996264)"/>
     <use xlink:href="#NimbusRomNo9L-Regu-64" transform="translate(1131.649229 0) scale(0.996264)"/>
     <use xlink:href="#NimbusRomNo9L-Regu-65" transform="translate(1181.46243 0) scale(0.996264)"/>
     <use xlink:href="#NimbusRomNo9L-Regu-4d" transform="translate(1250.602599 0) scale(0.996264)"/>
     <use xlink:href="#NimbusRomNo9L-Regu-b4" transform="translate(1344.698682 0.498056) scale(0.996264)"/>
     <use xlink:href="#NimbusRomNo9L-Regu-65" transform="translate(1339.169505 0) scale(0.996264)"/>
     <use xlink:href="#NimbusRomNo9L-Regu-78" transform="translate(1383.403074 0) scale(0.996264)"/>
     <use xlink:href="#NimbusRomNo9L-Regu-69" transform="translate(1433.216275 0) scale(0.996264)"/>
     <use xlink:href="#NimbusRomNo9L-Regu-63" transform="translate(1460.911444 0) scale(0.996264)"/>
     <use xlink:href="#NimbusRomNo9L-Regu-6f" transform="translate(1505.145013 0) scale(0.996264)"/>
    </g>
    <!-- Barabási-Albert_(m=1) - H: 0.8\%  -->
    <g transform="translate(22.976633 19.984025) scale(0.096 -0.096)">
     <defs>
      <path id="NimbusRomNo9L-Regu-42" d="M 109 4237 
L 109 4096 
C 646 4096 723 4026 723 3548 
L 723 689 
C 723 212 640 128 109 128 
L 109 0 
L 2246 0 
C 2746 0 3200 136 3437 356 
C 3667 564 3795 855 3795 1165 
C 3795 1451 3680 1710 3482 1897 
C 3290 2072 3117 2150 2701 2253 
C 3034 2335 3168 2398 3322 2531 
C 3482 2671 3578 2903 3578 3163 
C 3578 3871 3008 4237 1901 4237 
L 109 4237 
z
M 1376 2112 
C 1997 2112 2291 2080 2522 1982 
C 2886 1827 3059 1568 3059 1159 
C 3059 809 2925 555 2669 406 
C 2464 290 2202 238 1779 238 
C 1466 238 1376 296 1376 504 
L 1376 2112 
z
M 1376 2368 
L 1376 3812 
C 1376 3944 1421 4001 1517 4001 
L 1798 4001 
C 2534 4001 2925 3699 2925 3137 
C 2925 2646 2586 2368 1984 2368 
L 1376 2368 
z
" transform="scale(0.015625)"/>
      <path id="NimbusRomNo9L-Regu-61" d="M 2829 423 
C 2720 333 2643 301 2547 301 
C 2400 301 2355 390 2355 672 
L 2355 1920 
C 2355 2253 2323 2438 2227 2592 
C 2086 2822 1811 2944 1434 2944 
C 832 2944 358 2630 358 2227 
C 358 2080 486 1952 634 1952 
C 787 1952 922 2080 922 2221 
C 922 2246 915 2278 909 2323 
C 896 2381 890 2432 890 2477 
C 890 2650 1094 2790 1350 2790 
C 1664 2790 1837 2605 1837 2259 
L 1837 1869 
C 851 1472 742 1421 467 1178 
C 326 1050 237 832 237 621 
C 237 218 518 -64 909 -64 
C 1190 -64 1453 70 1843 403 
C 1875 70 1990 -64 2253 -64 
C 2470 -64 2605 13 2829 256 
L 2829 423 
z
M 1837 783 
C 1837 584 1805 526 1670 449 
C 1517 359 1338 301 1203 301 
C 979 301 800 520 800 796 
L 800 822 
C 800 1201 1062 1433 1837 1715 
L 1837 783 
z
" transform="scale(0.015625)"/>
      <path id="NimbusRomNo9L-Regu-62" d="M 979 4364 
L 947 4377 
C 678 4281 506 4230 205 4147 
L 19 4096 
L 19 3994 
C 58 4000 83 4000 128 4000 
C 384 4000 442 3942 442 3673 
L 442 347 
C 442 147 986 -64 1498 -64 
C 2342 -64 2995 640 2995 1555 
C 2995 2342 2509 2944 1869 2944 
C 1478 2944 1107 2714 979 2400 
L 979 4364 
z
M 979 2061 
C 979 2310 1280 2541 1613 2541 
C 2112 2541 2432 2042 2432 1261 
C 2432 550 2125 141 1600 141 
C 1267 141 979 288 979 448 
L 979 2061 
z
" transform="scale(0.015625)"/>
      <path id="NimbusRomNo9L-Regu-2d" d="M 250 1619 
L 250 1216 
L 1824 1216 
L 1824 1619 
L 250 1619 
z
" transform="scale(0.015625)"/>
      <path id="NimbusRomNo9L-Regu-41" d="M 4518 128 
C 4230 128 4166 192 3942 667 
L 2349 4320 
L 2221 4320 
L 890 1168 
C 480 231 403 128 96 128 
L 96 0 
L 1363 0 
L 1363 128 
C 1056 128 928 212 928 393 
C 928 470 947 560 979 645 
L 1274 1401 
L 2950 1401 
L 3213 778 
C 3290 602 3334 434 3334 342 
C 3334 180 3226 128 2886 128 
L 2886 0 
L 4518 0 
L 4518 128 
z
M 1382 1664 
L 2118 3416 
L 2861 1664 
L 1382 1664 
z
" transform="scale(0.015625)"/>
      <path id="NimbusRomNo9L-Regu-6c" d="M 122 4000 
L 160 4000 
C 230 4000 307 4000 358 4000 
C 563 4000 627 3910 627 3610 
L 627 557 
C 627 211 538 128 134 96 
L 134 0 
L 1645 0 
L 1645 109 
C 1242 109 1165 173 1165 528 
L 1165 4371 
L 1139 4384 
C 806 4275 563 4211 122 4103 
L 122 4000 
z
" transform="scale(0.015625)"/>
      <path id="NimbusRomNo9L-Regu-6d" d="M 122 2547 
C 205 2566 256 2573 326 2573 
C 493 2573 550 2470 550 2162 
L 550 539 
C 550 192 461 96 102 96 
L 102 0 
L 1523 0 
L 1523 96 
C 1184 96 1088 166 1088 418 
L 1088 2234 
C 1088 2246 1139 2310 1184 2355 
C 1344 2502 1619 2611 1843 2611 
C 2125 2611 2266 2385 2266 1932 
L 2266 528 
C 2266 167 2195 96 1830 96 
L 1830 0 
L 3264 0 
L 3264 96 
C 2899 96 2803 205 2803 603 
L 2803 2221 
C 2995 2496 3206 2611 3501 2611 
C 3866 2611 3981 2438 3981 1907 
L 3981 557 
C 3981 192 3930 141 3558 96 
L 3558 0 
L 4960 0 
L 4960 96 
L 4794 115 
C 4602 115 4518 230 4518 480 
L 4518 1802 
C 4518 2559 4269 2944 3776 2944 
C 3405 2944 3078 2778 2733 2407 
C 2618 2771 2400 2944 2054 2944 
C 1773 2944 1594 2854 1062 2451 
L 1062 2931 
L 1018 2944 
C 691 2822 474 2752 122 2656 
L 122 2547 
z
" transform="scale(0.015625)"/>
      <path id="NimbusRomNo9L-Regu-3d" d="M 3418 2470 
L 192 2470 
L 192 2048 
L 3418 2048 
L 3418 2470 
z
M 3418 1190 
L 192 1190 
L 192 768 
L 3418 768 
L 3418 1190 
z
" transform="scale(0.015625)"/>
      <path id="NimbusRomNo9L-Regu-31" d="M 1862 4339 
L 710 3757 
L 710 3667 
C 787 3699 858 3725 883 3738 
C 998 3783 1107 3808 1171 3808 
C 1306 3808 1363 3711 1363 3505 
L 1363 592 
C 1363 379 1312 232 1210 173 
C 1114 116 1024 96 755 96 
L 755 0 
L 2522 0 
L 2522 96 
C 2016 96 1914 160 1914 470 
L 1914 4327 
L 1862 4339 
z
" transform="scale(0.015625)"/>
      <path id="NimbusRomNo9L-Regu-48" d="M 1338 2304 
L 1338 3533 
C 1338 3990 1408 4059 1901 4104 
L 1901 4224 
L 122 4224 
L 122 4104 
C 614 4059 685 3989 685 3527 
L 685 749 
C 685 210 621 134 122 134 
L 122 0 
L 1901 0 
L 1901 121 
C 1421 159 1338 242 1338 699 
L 1338 2022 
L 3277 2022 
L 3277 757 
C 3277 211 3213 134 2714 134 
L 2714 0 
L 4493 0 
L 4493 121 
C 4013 159 3930 242 3930 696 
L 3930 3529 
C 3930 3989 4000 4059 4493 4104 
L 4493 4224 
L 2714 4224 
L 2714 4104 
C 3206 4059 3277 3990 3277 3533 
L 3277 2304 
L 1338 2304 
z
" transform="scale(0.015625)"/>
      <path id="NimbusRomNo9L-Regu-3a" d="M 870 2944 
C 678 2944 518 2777 518 2579 
C 518 2393 678 2233 864 2233 
C 1062 2233 1229 2393 1229 2579 
C 1229 2777 1062 2944 870 2944 
z
M 870 646 
C 678 646 518 480 518 281 
C 518 96 678 -64 864 -64 
C 1062 -64 1229 96 1229 281 
C 1229 480 1062 646 870 646 
z
" transform="scale(0.015625)"/>
      <path id="NimbusRomNo9L-Regu-30" d="M 1626 4352 
C 1274 4352 1005 4244 768 4020 
C 397 3661 154 2925 154 2176 
C 154 1479 365 730 666 372 
C 902 90 1229 -64 1600 -64 
C 1926 -64 2202 45 2432 269 
C 2803 621 3046 1364 3046 2138 
C 3046 3450 2464 4352 1626 4352 
z
M 1606 4186 
C 2144 4186 2432 3463 2432 2125 
C 2432 788 2150 103 1600 103 
C 1050 103 768 788 768 2119 
C 768 3476 1056 4186 1606 4186 
z
" transform="scale(0.015625)"/>
      <path id="NimbusRomNo9L-Regu-2e" d="M 800 646 
C 608 646 448 480 448 281 
C 448 96 608 -64 794 -64 
C 992 -64 1158 96 1158 281 
C 1158 480 992 646 800 646 
z
" transform="scale(0.015625)"/>
      <path id="NimbusRomNo9L-Regu-38" d="M 1856 2400 
C 2490 2740 2714 3008 2714 3444 
C 2714 3968 2253 4352 1613 4352 
C 915 4352 397 3924 397 3341 
C 397 2925 518 2740 1190 2151 
C 499 1626 358 1428 358 992 
C 358 372 864 -64 1587 -64 
C 2355 -64 2848 359 2848 1018 
C 2848 1511 2630 1824 1856 2400 
z
M 1741 1741 
C 2208 1408 2362 1178 2362 820 
C 2362 404 2074 116 1658 116 
C 1171 116 845 487 845 1044 
C 845 1453 986 1722 1357 2023 
L 1741 1741 
z
M 1670 2516 
C 1101 2887 870 3181 870 3540 
C 870 3911 1158 4173 1562 4173 
C 1997 4173 2272 3892 2272 3450 
C 2272 3085 2093 2797 1728 2554 
C 1696 2535 1696 2535 1670 2516 
z
" transform="scale(0.015625)"/>
      <path id="NimbusRomNo9L-Regu-25" d="M 4282 2368 
C 3558 2368 2874 1622 2874 824 
C 2874 325 3181 0 3642 0 
C 3930 0 4166 102 4390 325 
C 4730 670 4941 1187 4941 1686 
C 4941 2120 4698 2368 4282 2368 
z
M 4326 2164 
C 4570 2164 4774 1934 4774 1654 
C 4774 1290 4614 856 4371 556 
C 4166 301 3981 192 3750 192 
C 3520 192 3360 357 3360 601 
C 3360 939 3539 1462 3776 1793 
C 3949 2048 4128 2164 4326 2164 
z
M 4058 4320 
L 3808 4320 
C 3462 4008 3206 3904 2810 3904 
C 2554 3904 2406 3946 2253 4064 
C 2086 4194 2003 4224 1805 4224 
C 1075 4224 390 3468 390 2662 
C 390 2217 730 1856 1146 1856 
C 1421 1856 1709 1984 1920 2209 
C 2253 2549 2458 3056 2458 3526 
C 2458 3615 2445 3693 2413 3808 
C 2528 3763 2643 3744 2829 3744 
C 3110 3744 3277 3788 3533 3931 
L 1286 -96 
L 1594 -96 
L 4058 4320 
z
M 2240 3829 
C 2278 3702 2298 3607 2298 3518 
C 2298 2802 1773 2073 1254 2073 
C 1030 2073 877 2231 877 2460 
C 877 2726 1005 3157 1178 3474 
C 1363 3816 1606 4032 1805 4032 
C 1837 4032 1850 4025 1888 3993 
C 1978 3911 2054 3879 2240 3829 
z
" transform="scale(0.015625)"/>
     </defs>
     <use xlink:href="#NimbusRomNo9L-Regu-42" transform="scale(0.996264)"/>
     <use xlink:href="#NimbusRomNo9L-Regu-61" transform="translate(66.450031 0) scale(0.996264)"/>
     <use xlink:href="#NimbusRomNo9L-Regu-72" transform="translate(110.6836 0) scale(0.996264)"/>
     <use xlink:href="#NimbusRomNo9L-Regu-61" transform="translate(143.85883 0) scale(0.996264)"/>
     <use xlink:href="#NimbusRomNo9L-Regu-62" transform="translate(188.092398 0) scale(0.996264)"/>
     <use xlink:href="#NimbusRomNo9L-Regu-b4" transform="translate(243.434776 0.498056) scale(0.996264)"/>
     <use xlink:href="#NimbusRomNo9L-Regu-61" transform="translate(237.905599 0) scale(0.996264)"/>
     <use xlink:href="#NimbusRomNo9L-Regu-73" transform="translate(282.139167 0) scale(0.996264)"/>
     <use xlink:href="#NimbusRomNo9L-Regu-69" transform="translate(320.892874 0) scale(0.996264)"/>
     <use xlink:href="#NimbusRomNo9L-Regu-2d" transform="translate(348.588043 0) scale(0.996264)"/>
     <use xlink:href="#NimbusRomNo9L-Regu-41" transform="translate(381.763273 0) scale(0.996264)"/>
     <use xlink:href="#NimbusRomNo9L-Regu-6c" transform="translate(453.693258 0) scale(0.996264)"/>
     <use xlink:href="#NimbusRomNo9L-Regu-62" transform="translate(481.388427 0) scale(0.996264)"/>
     <use xlink:href="#NimbusRomNo9L-Regu-65" transform="translate(531.201628 0) scale(0.996264)"/>
     <use xlink:href="#NimbusRomNo9L-Regu-72" transform="translate(575.435197 0) scale(0.996264)"/>
     <use xlink:href="#NimbusRomNo9L-Regu-74" transform="translate(608.610426 0) scale(0.996264)"/>
     <use xlink:href="#NimbusRomNo9L-Regu-28" transform="translate(672.171161 0) scale(0.996264)"/>
     <use xlink:href="#NimbusRomNo9L-Regu-6d" transform="translate(705.346391 0) scale(0.996264)"/>
     <use xlink:href="#NimbusRomNo9L-Regu-3d" transform="translate(782.854761 0) scale(0.996264)"/>
     <use xlink:href="#NimbusRomNo9L-Regu-31" transform="translate(839.043011 0) scale(0.996264)"/>
     <use xlink:href="#NimbusRomNo9L-Regu-29" transform="translate(888.856212 0) scale(0.996264)"/>
     <use xlink:href="#NimbusRomNo9L-Regu-2d" transform="translate(946.938042 0) scale(0.996264)"/>
     <use xlink:href="#NimbusRomNo9L-Regu-48" transform="translate(1005.019872 0) scale(0.996264)"/>
     <use xlink:href="#NimbusRomNo9L-Regu-3a" transform="translate(1076.949857 0) scale(0.996264)"/>
     <use xlink:href="#NimbusRomNo9L-Regu-30" transform="translate(1129.551626 0) scale(0.996264)"/>
     <use xlink:href="#NimbusRomNo9L-Regu-2e" transform="translate(1179.364827 0) scale(0.996264)"/>
     <use xlink:href="#NimbusRomNo9L-Regu-38" transform="translate(1204.271427 0) scale(0.996264)"/>
     <use xlink:href="#NimbusRomNo9L-Regu-25" transform="translate(1254.084628 0) scale(0.996264)"/>
     <path d="M 642.282937 0 
L 672.171161 0 
L 672.171161 0.3985 
L 642.282937 0.3985 
L 642.282937 0 
z
"/>
    </g>
    <!-- Masa crítica: 60\% - Nodos aleatorios (H,C) -->
    <g transform="translate(3.6 29.835844) scale(0.096 -0.096)">
     <defs>
      <path id="NimbusRomNo9L-Regu-11" d="M 1120 2950 
L 128 2598 
L 128 2502 
L 179 2508 
C 256 2521 339 2528 397 2528 
C 550 2528 608 2424 608 2141 
L 608 644 
C 608 180 544 109 102 109 
L 102 0 
L 1619 0 
L 1619 96 
C 1197 128 1146 192 1146 654 
L 1146 2931 
L 1120 2950 
z
" transform="scale(0.015625)"/>
      <path id="NimbusRomNo9L-Regu-36" d="M 2854 4391 
C 2125 4327 1754 4205 1286 3879 
C 595 3386 218 2656 218 1802 
C 218 1248 390 688 666 370 
C 909 89 1254 -64 1651 -64 
C 2445 -64 2995 541 2995 1421 
C 2995 2236 2528 2752 1792 2752 
C 1510 2752 1376 2707 973 2464 
C 1146 3431 1862 4122 2867 4288 
L 2854 4391 
z
M 1549 2458 
C 2099 2458 2419 2000 2419 1204 
C 2419 504 2170 116 1722 116 
C 1158 116 813 714 813 1700 
C 813 2025 864 2203 992 2299 
C 1126 2400 1325 2458 1549 2458 
z
" transform="scale(0.015625)"/>
      <path id="NimbusRomNo9L-Regu-4e" d="M 3917 -64 
L 3917 3287 
C 3917 3669 3981 3905 4102 3987 
C 4192 4051 4282 4077 4525 4102 
L 4525 4224 
L 3021 4224 
L 3021 4102 
C 3264 4083 3354 4057 3450 4000 
C 3578 3911 3635 3681 3635 3286 
L 3635 1136 
L 1171 4224 
L 77 4224 
L 77 4102 
C 352 4102 442 4051 698 3751 
L 698 938 
C 698 281 608 159 77 121 
L 77 0 
L 1581 0 
L 1581 134 
C 1088 134 979 281 979 928 
L 979 3439 
L 3808 -64 
L 3917 -64 
z
" transform="scale(0.015625)"/>
      <path id="NimbusRomNo9L-Regu-2c" d="M 531 -889 
C 960 -678 1248 -288 1248 96 
C 1248 416 1024 666 736 666 
C 512 666 358 519 358 301 
C 358 96 506 -25 736 -25 
C 774 -25 819 -19 858 -13 
C 902 0 902 0 909 0 
C 960 0 998 -38 998 -89 
C 998 -294 819 -531 474 -768 
L 531 -889 
z
" transform="scale(0.015625)"/>
      <path id="NimbusRomNo9L-Regu-43" d="M 3968 2906 
L 3910 4352 
L 3776 4352 
C 3738 4218 3635 4141 3507 4141 
C 3450 4141 3354 4160 3258 4199 
C 2944 4301 2624 4352 2323 4352 
C 1798 4352 1267 4154 870 3802 
C 422 3405 179 2810 179 2106 
C 179 1511 371 960 698 596 
C 1082 180 1670 -64 2304 -64 
C 3027 -64 3661 231 4051 749 
L 3936 864 
C 3462 410 3040 218 2509 218 
C 2106 218 1747 346 1472 589 
C 1120 903 922 1479 922 2189 
C 922 3348 1517 4096 2445 4096 
C 2810 4096 3142 3962 3398 3706 
C 3603 3501 3699 3322 3821 2906 
L 3968 2906 
z
" transform="scale(0.015625)"/>
     </defs>
     <use xlink:href="#NimbusRomNo9L-Regu-4d" transform="scale(0.996264)"/>
     <use xlink:href="#NimbusRomNo9L-Regu-61" transform="translate(88.566907 0) scale(0.996264)"/>
     <use xlink:href="#NimbusRomNo9L-Regu-73" transform="translate(132.800475 0) scale(0.996264)"/>
     <use xlink:href="#NimbusRomNo9L-Regu-61" transform="translate(171.554182 0) scale(0.996264)"/>
     <use xlink:href="#NimbusRomNo9L-Regu-63" transform="translate(240.694351 0) scale(0.996264)"/>
     <use xlink:href="#NimbusRomNo9L-Regu-72" transform="translate(284.927919 0) scale(0.996264)"/>
     <use xlink:href="#NimbusRomNo9L-Regu-b4" transform="translate(315.363119 0.498056) scale(0.996264)"/>
     <use xlink:href="#NimbusRomNo9L-Regu-11" transform="translate(318.103149 0) scale(0.996264)"/>
     <use xlink:href="#NimbusRomNo9L-Regu-74" transform="translate(345.798319 0) scale(0.996264)"/>
     <use xlink:href="#NimbusRomNo9L-Regu-69" transform="translate(373.493488 0) scale(0.996264)"/>
     <use xlink:href="#NimbusRomNo9L-Regu-63" transform="translate(401.188658 0) scale(0.996264)"/>
     <use xlink:href="#NimbusRomNo9L-Regu-61" transform="translate(445.422226 0) scale(0.996264)"/>
     <use xlink:href="#NimbusRomNo9L-Regu-3a" transform="translate(489.655795 0) scale(0.996264)"/>
     <use xlink:href="#NimbusRomNo9L-Regu-36" transform="translate(548.234997 0) scale(0.996264)"/>
     <use xlink:href="#NimbusRomNo9L-Regu-30" transform="translate(598.048198 0) scale(0.996264)"/>
     <use xlink:href="#NimbusRomNo9L-Regu-25" transform="translate(647.861398 0) scale(0.996264)"/>
     <use xlink:href="#NimbusRomNo9L-Regu-2d" transform="translate(755.756429 0) scale(0.996264)"/>
     <use xlink:href="#NimbusRomNo9L-Regu-4e" transform="translate(813.838259 0) scale(0.996264)"/>
     <use xlink:href="#NimbusRomNo9L-Regu-6f" transform="translate(885.768243 0) scale(0.996264)"/>
     <use xlink:href="#NimbusRomNo9L-Regu-64" transform="translate(935.581444 0) scale(0.996264)"/>
     <use xlink:href="#NimbusRomNo9L-Regu-6f" transform="translate(985.394644 0) scale(0.996264)"/>
     <use xlink:href="#NimbusRomNo9L-Regu-73" transform="translate(1035.207845 0) scale(0.996264)"/>
     <use xlink:href="#NimbusRomNo9L-Regu-61" transform="translate(1098.868151 0) scale(0.996264)"/>
     <use xlink:href="#NimbusRomNo9L-Regu-6c" transform="translate(1143.10172 0) scale(0.996264)"/>
     <use xlink:href="#NimbusRomNo9L-Regu-65" transform="translate(1170.79689 0) scale(0.996264)"/>
     <use xlink:href="#NimbusRomNo9L-Regu-61" transform="translate(1215.030458 0) scale(0.996264)"/>
     <use xlink:href="#NimbusRomNo9L-Regu-74" transform="translate(1259.264027 0) scale(0.996264)"/>
     <use xlink:href="#NimbusRomNo9L-Regu-6f" transform="translate(1286.959197 0) scale(0.996264)"/>
     <use xlink:href="#NimbusRomNo9L-Regu-72" transform="translate(1336.772397 0) scale(0.996264)"/>
     <use xlink:href="#NimbusRomNo9L-Regu-69" transform="translate(1369.947627 0) scale(0.996264)"/>
     <use xlink:href="#NimbusRomNo9L-Regu-6f" transform="translate(1397.642796 0) scale(0.996264)"/>
     <use xlink:href="#NimbusRomNo9L-Regu-73" transform="translate(1447.455997 0) scale(0.996264)"/>
     <use xlink:href="#NimbusRomNo9L-Regu-28" transform="translate(1511.116303 0) scale(0.996264)"/>
     <use xlink:href="#NimbusRomNo9L-Regu-48" transform="translate(1544.291533 0) scale(0.996264)"/>
     <use xlink:href="#NimbusRomNo9L-Regu-2c" transform="translate(1616.221518 0) scale(0.996264)"/>
     <use xlink:href="#NimbusRomNo9L-Regu-43" transform="translate(1641.128118 0) scale(0.996264)"/>
     <use xlink:href="#NimbusRomNo9L-Regu-29" transform="translate(1707.578149 0) scale(0.996264)"/>
    </g>
   </g>
  </g>
 </g>
 <defs>
  <clipPath id="pcd38b9c222">
   <rect x="17.406088" y="35.835844" width="139.5" height="138.6"/>
  </clipPath>
 </defs>
</svg>
